<svg width="20" height="27" viewBox="0 0 20 27" fill="none" xmlns="http://www.w3.org/2000/svg">
<path d="M16.0801 11.2927C17.1201 11.2927 17.9601 12.1327 17.9601 13.1727C17.9601 14.2127 17.1201 15.0527 16.0801 15.0527" stroke="#333333" stroke-miterlimit="10" stroke-linecap="round" stroke-linejoin="round"/>
<path d="M8.13965 2.60266C8.13965 1.56266 8.97965 0.722656 10.0196 0.722656C11.0596 0.722656 11.8997 1.56266 11.8997 2.60266" stroke="#333333" stroke-miterlimit="10" stroke-linecap="round" stroke-linejoin="round"/>
<path d="M17.0195 15.0427C18.0595 15.0427 18.8995 15.8827 18.8995 16.9227C18.8995 17.9627 18.0595 18.8027 17.0195 18.8027" stroke="#333333" stroke-miterlimit="10" stroke-linecap="round" stroke-linejoin="round"/>
<path d="M16.3994 18.7927C17.4394 18.7927 18.2794 19.6327 18.2794 20.6727C18.2794 21.7127 17.4394 22.5527 16.3994 22.5527" stroke="#333333" stroke-miterlimit="10" stroke-linecap="round" stroke-linejoin="round"/>
<path d="M15.1396 22.5427C16.1796 22.5427 17.0196 23.3827 17.0196 24.4227C17.0196 25.4627 16.1796 26.3027 15.1396 26.3027" stroke="#333333" stroke-miterlimit="10" stroke-linecap="round" stroke-linejoin="round"/>
<path d="M11.8895 2.60254C11.8895 8.58254 9.01953 11.2925 9.01953 11.2925H16.0695" stroke="#333333" stroke-miterlimit="10" stroke-linecap="round" stroke-linejoin="round"/>
<path d="M16.4296 15.0427H12.0596" stroke="#333333" stroke-miterlimit="10" stroke-linecap="round" stroke-linejoin="round"/>
<path d="M17.0196 18.7927H12.0596" stroke="#333333" stroke-miterlimit="10" stroke-linecap="round" stroke-linejoin="round"/>
<path d="M16.3996 22.5427H12.0596" stroke="#333333" stroke-miterlimit="10" stroke-linecap="round" stroke-linejoin="round"/>
<path d="M15.1396 26.2926C9.58961 26.2926 5.58961 26.2926 1.09961 23.4226" stroke="#333333" stroke-miterlimit="10" stroke-linecap="round" stroke-linejoin="round"/>
<path d="M8.13961 2.60254C7.59961 8.42254 3.66961 9.54254 1.09961 11.7025" stroke="#333333" stroke-miterlimit="10" stroke-linecap="round" stroke-linejoin="round"/>
</svg>
