<svg width="20" height="28" viewBox="0 0 20 28" fill="none" xmlns="http://www.w3.org/2000/svg">
<path d="M16.0796 11.5234C17.1196 11.5234 17.9596 12.3796 17.9596 13.4396C17.9596 14.4996 17.1196 15.3557 16.0796 15.3557" stroke="white" stroke-miterlimit="10" stroke-linecap="round" stroke-linejoin="round"/>
<path d="M8.13965 2.66616C8.13965 1.60616 8.97965 0.75 10.0196 0.75C11.0596 0.75 11.8997 1.60616 11.8997 2.66616" stroke="white" stroke-miterlimit="10" stroke-linecap="round" stroke-linejoin="round"/>
<path d="M17.0195 15.3438C18.0595 15.3438 18.8995 16.1999 18.8995 17.2599C18.8995 18.3199 18.0595 19.1761 17.0195 19.1761" stroke="white" stroke-miterlimit="10" stroke-linecap="round" stroke-linejoin="round"/>
<path d="M16.3994 19.168C17.4394 19.168 18.2794 20.0241 18.2794 21.0841C18.2794 22.1441 17.4394 23.0003 16.3994 23.0003" stroke="white" stroke-miterlimit="10" stroke-linecap="round" stroke-linejoin="round"/>
<path d="M15.1396 22.9883C16.1796 22.9883 17.0196 23.8444 17.0196 24.9044C17.0196 25.9644 16.1796 26.8206 15.1396 26.8206" stroke="white" stroke-miterlimit="10" stroke-linecap="round" stroke-linejoin="round"/>
<path d="M11.8895 2.66797C11.8895 8.76297 9.01953 11.5251 9.01953 11.5251H16.0695" stroke="white" stroke-miterlimit="10" stroke-linecap="round" stroke-linejoin="round"/>
<path d="M16.4296 15.3438H12.0596" stroke="white" stroke-miterlimit="10" stroke-linecap="round" stroke-linejoin="round"/>
<path d="M17.0196 19.168H12.0596" stroke="white" stroke-miterlimit="10" stroke-linecap="round" stroke-linejoin="round"/>
<path d="M16.3996 22.9883H12.0596" stroke="white" stroke-miterlimit="10" stroke-linecap="round" stroke-linejoin="round"/>
<path d="M15.1396 26.8158C9.58961 26.8158 5.58961 26.8158 1.09961 23.8906" stroke="white" stroke-miterlimit="10" stroke-linecap="round" stroke-linejoin="round"/>
<path d="M8.13961 2.66797C7.59961 8.59989 3.66961 9.74143 1.09961 11.943" stroke="white" stroke-miterlimit="10" stroke-linecap="round" stroke-linejoin="round"/>
</svg>
