<svg width="20" height="30" viewBox="0 0 20 30" fill="none" xmlns="http://www.w3.org/2000/svg">
<path d="M19.4605 18.6069C19.4605 22.4189 18.3705 26.3327 17.2305 28.6056" stroke="#333333" stroke-miterlimit="10" stroke-linecap="round" stroke-linejoin="round"/>
<path d="M14.3217 5.26741C14.0017 4.25837 14.5517 3.18817 15.5317 2.86202C16.5217 2.53587 17.5717 3.09644 17.8917 4.09529" stroke="#333333" stroke-miterlimit="10" stroke-linecap="round" stroke-linejoin="round"/>
<path d="M9.8618 3.36052C9.5418 2.35148 9.7518 0.975526 10.9018 0.608603C11.8918 0.282449 12.9418 0.843025 13.2618 1.84187L14.5918 6.0513C15.5818 8.94591 15.8918 12.4419 15.8918 14.8065" stroke="#333333" stroke-miterlimit="10" stroke-linecap="round" stroke-linejoin="round"/>
<path d="M12.049 10.7611C11.919 9.75211 11.429 8.35576 10.789 6.30711L9.45901 2.09768C9.13901 1.08865 8.08901 0.538262 7.09901 0.864415C6.10901 1.19057 5.56901 2.26076 5.88901 3.2698L7.80901 9.39538" stroke="#333333" stroke-miterlimit="10" stroke-linecap="round" stroke-linejoin="round"/>
<path d="M3.38 21.7843C1.54 20.2861 1 17.3303 1 14.3236C1 13.4368 1.55 12.6113 2.39 12.3972C3.63 12.0813 4.75 13.0292 4.75 14.2522V16.8513C4.75 17.8603 5.55 18.6757 6.54 18.6757H8.34C9.33 18.6757 10.13 17.8603 10.13 16.8513V15.0167C10.13 14.0076 9.33 13.1922 8.34 13.1922H5.87C5 13.1922 4.19 12.6317 3.98 11.7755C3.67 10.5117 4.6 9.37012 5.8 9.37012C10.1 9.37012 13.4 9.60454 13.4 14.9657" stroke="#333333" stroke-miterlimit="10" stroke-linecap="round" stroke-linejoin="round"/>
<path d="M17.8984 4.09082C19.5984 9.47236 19.4684 12.4485 19.4684 18.6149" stroke="#333333" stroke-miterlimit="10" stroke-linecap="round" stroke-linejoin="round"/>
<path d="M3.37891 21.792C6.55891 24.0241 7.58891 26.3887 7.58891 28.6208" stroke="#333333" stroke-miterlimit="10" stroke-linecap="round" stroke-linejoin="round"/>
</svg>
