<svg width="20" height="30" viewBox="0 0 20 30" fill="none" xmlns="http://www.w3.org/2000/svg">
<path d="M19.46 18.6055C19.46 22.4174 18.37 26.3312 17.23 28.6041" stroke="white" stroke-miterlimit="10" stroke-linecap="round" stroke-linejoin="round"/>
<path d="M14.3197 5.26789C13.9997 4.25886 14.5497 3.18866 15.5297 2.86251C16.5197 2.53636 17.5697 3.09693 17.8897 4.09578" stroke="white" stroke-miterlimit="10" stroke-linecap="round" stroke-linejoin="round"/>
<path d="M9.85985 3.36052C9.53985 2.35148 9.74984 0.975526 10.8998 0.608603C11.8898 0.282449 12.9398 0.843025 13.2598 1.84187L14.5898 6.0513C15.5798 8.94591 15.8898 12.4419 15.8898 14.8065" stroke="white" stroke-miterlimit="10" stroke-linecap="round" stroke-linejoin="round"/>
<path d="M12.05 10.7602C11.92 9.75113 11.43 8.35478 10.79 6.30613L9.45999 2.09671C9.13999 1.08767 8.08999 0.537285 7.09999 0.863439C6.10999 1.18959 5.56999 2.25978 5.88999 3.26882L7.80999 9.3944" stroke="white" stroke-miterlimit="10" stroke-linecap="round" stroke-linejoin="round"/>
<path d="M3.38 21.7853C1.54 20.2871 1 17.3313 1 14.3246C1 13.4378 1.55 12.6122 2.39 12.3982C3.63 12.0822 4.75 13.0301 4.75 14.2532V16.8522C4.75 17.8613 5.55 18.6767 6.54 18.6767H8.34C9.33 18.6767 10.13 17.8613 10.13 16.8522V15.0176C10.13 14.0086 9.33 13.1932 8.34 13.1932H5.87C5 13.1932 4.19 12.6326 3.98 11.7765C3.67 10.5126 4.6 9.37109 5.8 9.37109C10.1 9.37109 13.4 9.60552 13.4 14.9667" stroke="white" stroke-miterlimit="10" stroke-linecap="round" stroke-linejoin="round"/>
<path d="M17.8999 4.08984C19.5999 9.47138 19.4699 12.4475 19.4699 18.6139" stroke="white" stroke-miterlimit="10" stroke-linecap="round" stroke-linejoin="round"/>
<path d="M3.37988 21.793C6.55988 24.0251 7.58988 26.3897 7.58988 28.6218" stroke="white" stroke-miterlimit="10" stroke-linecap="round" stroke-linejoin="round"/>
</svg>
