<svg width="20" height="28" viewBox="0 0 20 28" fill="none" xmlns="http://www.w3.org/2000/svg">
<path d="M16.0796 16.0667C17.1196 16.0667 17.9596 15.2105 17.9596 14.1505C17.9596 13.0905 17.1196 12.2344 16.0796 12.2344" stroke="white" stroke-miterlimit="10" stroke-linecap="round" stroke-linejoin="round"/>
<path d="M8.13965 24.9297C8.13965 25.9897 8.97965 26.8458 10.0196 26.8458C11.0596 26.8458 11.8997 25.9897 11.8997 24.9297" stroke="white" stroke-miterlimit="10" stroke-linecap="round" stroke-linejoin="round"/>
<path d="M17.0195 12.2464C18.0595 12.2464 18.8995 11.3902 18.8995 10.3302C18.8995 9.27022 18.0595 8.41406 17.0195 8.41406" stroke="white" stroke-miterlimit="10" stroke-linecap="round" stroke-linejoin="round"/>
<path d="M16.3994 8.42215C17.4394 8.42215 18.2794 7.566 18.2794 6.506C18.2794 5.446 17.4394 4.58984 16.3994 4.58984" stroke="white" stroke-miterlimit="10" stroke-linecap="round" stroke-linejoin="round"/>
<path d="M15.1396 4.60184C16.1796 4.60184 17.0196 3.74569 17.0196 2.68569C17.0196 1.62569 16.1796 0.769531 15.1396 0.769531" stroke="white" stroke-miterlimit="10" stroke-linecap="round" stroke-linejoin="round"/>
<path d="M11.8895 24.9235C11.8895 18.8285 9.01953 16.0664 9.01953 16.0664H16.0695" stroke="white" stroke-miterlimit="10" stroke-linecap="round" stroke-linejoin="round"/>
<path d="M16.4296 12.2422H12.0596" stroke="white" stroke-miterlimit="10" stroke-linecap="round" stroke-linejoin="round"/>
<path d="M17.0196 8.42188H12.0596" stroke="white" stroke-miterlimit="10" stroke-linecap="round" stroke-linejoin="round"/>
<path d="M16.3996 4.59766H12.0596" stroke="white" stroke-miterlimit="10" stroke-linecap="round" stroke-linejoin="round"/>
<path d="M15.1396 0.777344C9.58961 0.777344 5.58961 0.777343 1.09961 3.70253" stroke="white" stroke-miterlimit="10" stroke-linecap="round" stroke-linejoin="round"/>
<path d="M8.13961 24.9273C7.59961 18.9954 3.66961 17.8539 1.09961 15.6523" stroke="white" stroke-miterlimit="10" stroke-linecap="round" stroke-linejoin="round"/>
</svg>
