<svg width="20" height="28" viewBox="0 0 20 28" fill="none" xmlns="http://www.w3.org/2000/svg">
<path d="M16.082 16.0672C17.122 16.0672 17.962 15.211 17.962 14.151C17.962 13.091 17.122 12.2349 16.082 12.2349" stroke="#333333" stroke-miterlimit="10" stroke-linecap="round" stroke-linejoin="round"/>
<path d="M8.14062 24.9277C8.14062 25.9877 8.98063 26.8439 10.0206 26.8439C11.0606 26.8439 11.9006 25.9877 11.9006 24.9277" stroke="#333333" stroke-miterlimit="10" stroke-linecap="round" stroke-linejoin="round"/>
<path d="M17.0234 12.2449C18.0634 12.2449 18.9034 11.3888 18.9034 10.3288C18.9034 9.26875 18.0634 8.4126 17.0234 8.4126" stroke="#333333" stroke-miterlimit="10" stroke-linecap="round" stroke-linejoin="round"/>
<path d="M16.4023 8.42313C17.4423 8.42313 18.2823 7.56698 18.2823 6.50698C18.2823 5.44698 17.4423 4.59082 16.4023 4.59082" stroke="#333333" stroke-miterlimit="10" stroke-linecap="round" stroke-linejoin="round"/>
<path d="M15.1406 4.60135C16.1806 4.60135 17.0206 3.7452 17.0206 2.6852C17.0206 1.6252 16.1806 0.769043 15.1406 0.769043" stroke="#333333" stroke-miterlimit="10" stroke-linecap="round" stroke-linejoin="round"/>
<path d="M11.8934 24.9221C11.8934 18.8271 9.02344 16.0649 9.02344 16.0649H16.0734" stroke="#333333" stroke-miterlimit="10" stroke-linecap="round" stroke-linejoin="round"/>
<path d="M16.4325 12.2427H12.0625" stroke="#333333" stroke-miterlimit="10" stroke-linecap="round" stroke-linejoin="round"/>
<path d="M17.0225 8.4209H12.0625" stroke="#333333" stroke-miterlimit="10" stroke-linecap="round" stroke-linejoin="round"/>
<path d="M16.4025 4.59863H12.0625" stroke="#333333" stroke-miterlimit="10" stroke-linecap="round" stroke-linejoin="round"/>
<path d="M15.1416 0.776855C9.59156 0.776855 5.59156 0.776854 1.10156 3.70205" stroke="#333333" stroke-miterlimit="10" stroke-linecap="round" stroke-linejoin="round"/>
<path d="M8.14156 24.9259C7.60156 18.994 3.67156 17.8524 1.10156 15.6509" stroke="#333333" stroke-miterlimit="10" stroke-linecap="round" stroke-linejoin="round"/>
</svg>
