<svg width="20" height="26" viewBox="0 0 20 26" fill="none" xmlns="http://www.w3.org/2000/svg">
<path d="M18.5711 1.10242H1.42871V24.8976H18.5711V1.10242Z" stroke="#FE0000" stroke-miterlimit="10" stroke-linecap="round" stroke-linejoin="round"/>
<path d="M6.92432 12.1682H3.18872V15.0194H6.92432V12.1682Z" stroke="#FE0000" stroke-miterlimit="10" stroke-linecap="round" stroke-linejoin="round"/>
<path d="M11.8699 12.1682H8.12988V15.0194H11.8699V12.1682Z" stroke="#FE0000" stroke-miterlimit="10" stroke-linecap="round" stroke-linejoin="round"/>
<path d="M11.8699 16.2297H8.12988V19.0809H11.8699V16.2297Z" stroke="#FE0000" stroke-miterlimit="10" stroke-linecap="round" stroke-linejoin="round"/>
<path d="M6.92432 16.2297H3.18872V19.0809H6.92432V16.2297Z" stroke="#FE0000" stroke-miterlimit="10" stroke-linecap="round" stroke-linejoin="round"/>
<path d="M6.92432 20.2866H3.18872V23.1378H6.92432V20.2866Z" stroke="#FE0000" stroke-miterlimit="10" stroke-linecap="round" stroke-linejoin="round"/>
<path d="M11.8699 20.2866H8.12988V23.1378H11.8699V20.2866Z" stroke="#FE0000" stroke-miterlimit="10" stroke-linecap="round" stroke-linejoin="round"/>
<path d="M16.811 20.2866H13.0754V23.1378H16.811V20.2866Z" stroke="#FE0000" stroke-miterlimit="10" stroke-linecap="round" stroke-linejoin="round"/>
<path d="M16.811 16.2297H13.0754V19.0809H16.811V16.2297Z" stroke="#FE0000" stroke-miterlimit="10" stroke-linecap="round" stroke-linejoin="round"/>
<path d="M16.811 12.1682H13.0754V15.0194H16.811V12.1682Z" stroke="#FE0000" stroke-miterlimit="10" stroke-linecap="round" stroke-linejoin="round"/>
<path d="M16.8111 2.86243H3.18872V10.9628H16.8111V2.86243Z" stroke="#FE0000" stroke-miterlimit="10" stroke-linecap="round" stroke-linejoin="round"/>
<path d="M16.8111 2.86243H3.18872V10.9628H16.8111V2.86243Z" stroke="#FE0000" stroke-miterlimit="10" stroke-linecap="round" stroke-linejoin="round"/>
<path d="M6.92432 20.2866H3.18872V23.1378H6.92432V20.2866Z" stroke="#FE0000" stroke-miterlimit="10" stroke-linecap="round" stroke-linejoin="round"/>
<path d="M11.8699 20.2866H8.12988V23.1378H11.8699V20.2866Z" stroke="#FE0000" stroke-miterlimit="10" stroke-linecap="round" stroke-linejoin="round"/>
<path d="M6.92432 12.1682H3.18872V15.0194H6.92432V12.1682Z" stroke="#FE0000" stroke-miterlimit="10" stroke-linecap="round" stroke-linejoin="round"/>
<path d="M11.8699 16.2297H8.12988V19.0809H11.8699V16.2297Z" stroke="#FE0000" stroke-miterlimit="10" stroke-linecap="round" stroke-linejoin="round"/>
<path d="M6.92432 16.2297H3.18872V19.0809H6.92432V16.2297Z" stroke="#FE0000" stroke-miterlimit="10" stroke-linecap="round" stroke-linejoin="round"/>
<path d="M11.8699 12.1682H8.12988V15.0194H11.8699V12.1682Z" stroke="#FE0000" stroke-miterlimit="10" stroke-linecap="round" stroke-linejoin="round"/>
<path d="M16.811 12.1682H13.0754V15.0194H16.811V12.1682Z" stroke="#FE0000" stroke-miterlimit="10" stroke-linecap="round" stroke-linejoin="round"/>
<path d="M16.811 16.2297H13.0754V19.0809H16.811V16.2297Z" stroke="#FE0000" stroke-miterlimit="10" stroke-linecap="round" stroke-linejoin="round"/>
<path d="M16.811 20.2866H13.0754V23.1378H16.811V20.2866Z" stroke="#FE0000" stroke-miterlimit="10" stroke-linecap="round" stroke-linejoin="round"/>
</svg>
