<svg width="200" height="200" viewBox="0 0 200 200" fill="none" xmlns="http://www.w3.org/2000/svg">
<circle cx="100" cy="100" r="99" stroke="white" stroke-opacity="0.29" stroke-width="2"/>
<path d="M23.1261 93.4726C21.5061 93.2647 20.3097 92.7629 19.5369 91.9675C18.755 91.1708 18.4456 90.1383 18.6089 88.8701C18.6971 88.1851 18.8938 87.6081 19.1988 87.1391C19.5039 86.6702 19.8995 86.3022 20.3855 86.0352C20.8636 85.7578 21.4228 85.5802 22.0633 85.5024C22.6946 85.4235 23.3898 85.4327 24.1489 85.5301C25.7689 85.738 26.9693 86.245 27.7501 87.0509C28.5229 87.8464 28.827 88.8829 28.6625 90.1603C28.5755 90.8361 28.3794 91.4085 28.0744 91.8774C27.7705 92.3372 27.3795 92.7057 26.9015 92.9832C26.4155 93.2501 25.8568 93.4231 25.2255 93.502C24.585 93.5798 23.8852 93.57 23.1261 93.4726ZM23.2835 92.2506C23.8204 92.3196 24.3361 92.334 24.8306 92.2939C25.3263 92.2446 25.7736 92.1327 26.1725 91.958C26.5621 91.7822 26.8901 91.5373 27.1564 91.2233C27.4146 90.8988 27.5741 90.5006 27.6349 90.0285C27.7458 89.1676 27.5088 88.4502 26.9239 87.8765C26.3298 87.3015 25.3524 86.9267 23.9915 86.7521C23.4639 86.6843 22.9522 86.6751 22.4565 86.7244C21.9527 86.7633 21.5054 86.8753 21.1146 87.0604C20.7157 87.235 20.3871 87.4845 20.1289 87.809C19.8626 88.123 19.6985 88.5206 19.6365 89.002C19.5268 89.8536 19.769 90.5669 20.3631 91.1419C20.9492 91.7064 21.9226 92.076 23.2835 92.2506Z" fill="white"/>
<path d="M33.4355 76.9653L33.226 77.7353L31.4278 77.4652L29.6229 84.098L31.3108 84.7733L31.0976 85.5568L28.3547 84.813L28.6156 83.8538C28.5362 83.7549 28.3359 83.5846 28.0148 83.3428C27.6871 83.0895 27.2051 82.7992 26.5687 82.4719C25.9257 82.1331 25.1113 81.7672 24.1252 81.3741C23.1302 80.9785 21.93 80.5902 20.5248 80.2091L21.8996 75.1568L30.3581 77.4507L30.6926 76.2214L33.4355 76.9653ZM30.053 78.5719L22.5944 76.5492L21.8114 79.4266C22.7949 79.7223 23.672 80.0182 24.4426 80.3142C25.2157 80.6012 25.8939 80.8818 26.477 81.156C27.0511 81.4278 27.5405 81.691 27.9451 81.9458C28.3497 82.2006 28.6811 82.4404 28.9391 82.6651L30.053 78.5719Z" fill="white"/>
<path d="M28.814 66.5179L27.8163 66.0024L27.7943 66.0539L28.6145 67.0568L32.8386 73.9949L32.5694 74.6259L23.5508 70.7911L24.0069 69.7223L30.191 72.3519L31.1704 72.8748L31.1923 72.8233L30.3776 71.8075L26.0891 64.842L26.3583 64.211L35.3769 68.0458L34.9209 69.1146L28.814 66.5179Z" fill="white"/>
<path d="M35.9183 58.3992L33.4965 62.4318L37.3527 64.7397L36.7544 65.7359L28.3454 60.7031L28.9437 59.707L32.6076 61.8998L35.0294 57.8671L31.3655 55.6743L31.9637 54.6781L40.3727 59.7109L39.7745 60.707L35.9183 58.3992Z" fill="white"/>
<path d="M42.0292 49.866C40.8442 48.7419 40.175 47.631 40.0214 46.5334C39.8612 45.4293 40.2218 44.4142 41.1034 43.488C41.5796 42.9878 42.0795 42.6386 42.603 42.4406C43.1266 42.2426 43.6635 42.1794 44.2137 42.2511C44.7636 42.3097 45.3201 42.4967 45.8832 42.8121C46.4395 43.1212 46.9952 43.539 47.5505 44.0658C48.7354 45.1899 49.4048 46.3074 49.5587 47.4182C49.7122 48.5159 49.345 49.5311 48.4569 50.464C47.9871 50.9575 47.4905 51.3033 46.9669 51.5013C46.4498 51.6926 45.9163 51.759 45.3664 51.7005C44.8162 51.6287 44.2629 51.4383 43.7066 51.1293C43.1435 50.8139 42.5844 50.3928 42.0292 49.866ZM42.8786 48.9737C43.2713 49.3463 43.6791 49.6624 44.102 49.922C44.5313 50.1749 44.9586 50.3487 45.3839 50.4434C45.8024 50.5317 46.212 50.5279 46.6126 50.4319C47.0129 50.3228 47.3771 50.0958 47.7053 49.751C48.3038 49.1223 48.5365 48.404 48.4036 47.5961C48.2639 46.7817 47.6964 45.9024 46.701 44.9581C46.3151 44.592 45.9074 44.2824 45.4781 44.0295C45.0485 43.7635 44.6212 43.5897 44.1962 43.5081C43.7709 43.4134 43.3581 43.4207 42.9579 43.5298C42.5573 43.6258 42.1896 43.8495 41.855 44.2011C41.263 44.823 41.0368 45.5411 41.1765 46.3555C41.3159 47.1567 41.8832 48.0294 42.8786 48.9737Z" fill="white"/>
<path d="M46.7559 38.4627L50.8866 35.1101L51.5408 35.9134L48.3124 38.5337L50.1689 40.8134C50.2744 40.6917 50.4089 40.5464 50.5724 40.3777C50.7359 40.2089 50.901 40.0569 51.0677 39.9216C51.4373 39.6217 51.8182 39.3726 52.2105 39.1744C52.5969 38.9689 52.9847 38.8465 53.3739 38.8071C53.7631 38.7677 54.148 38.8339 54.5287 39.0057C54.9107 39.1645 55.2786 39.4609 55.6322 39.8952C55.9859 40.3294 56.2163 40.7674 56.3234 41.2094C56.4247 41.6441 56.431 42.0657 56.3424 42.4742C56.2479 42.8755 56.0716 43.265 55.8135 43.6427C55.5568 44.0074 55.2436 44.3397 54.874 44.6396C54.7508 44.7396 54.6066 44.8507 54.4413 44.9729C54.2891 45.0964 54.1201 45.2215 53.9344 45.3482C53.756 45.469 53.5745 45.5862 53.3902 45.6998C53.219 45.8147 53.0498 45.9099 52.8826 45.9855L46.7559 38.4627ZM54.3462 43.7698C54.5781 43.5816 54.7726 43.3697 54.9297 43.134C55.0868 42.8982 55.1914 42.6571 55.2433 42.4106C55.2967 42.1509 55.2873 41.8881 55.2151 41.6221C55.1502 41.3503 55.0116 41.0841 54.7994 40.8235C54.5283 40.4906 54.2559 40.267 53.9821 40.1526C53.7098 40.025 53.4395 39.974 53.1712 39.9993C52.903 40.0247 52.6382 40.1134 52.3769 40.2655C52.1168 40.4044 51.8636 40.5738 51.6173 40.7738C51.552 40.8267 51.4789 40.8921 51.3978 40.9699C51.3168 41.0477 51.2357 41.1256 51.1546 41.2034C51.0736 41.2812 51.0027 41.3568 50.942 41.4301C50.8754 41.4961 50.827 41.5475 50.7966 41.5841L53.2279 44.5693C53.2904 44.5426 53.3645 44.5006 53.4501 44.4431C53.5429 44.3797 53.6394 44.3135 53.7395 44.2442C53.8468 44.1691 53.9512 44.0904 54.0527 44.008C54.1542 43.9257 54.252 43.8463 54.3462 43.7698Z" fill="white"/>
<path d="M55.9534 32.9737L54.0534 34.1602L53.5033 33.2823L56.3889 31.4804L58.4109 34.7072C58.4455 34.6746 58.5078 34.6247 58.5979 34.5574C58.683 34.4823 58.7784 34.4062 58.8843 34.329C58.9981 34.247 59.1119 34.1649 59.2257 34.0829C59.3395 34.0008 59.4439 33.9301 59.5389 33.8708C59.911 33.6384 60.2999 33.4506 60.7057 33.3072C61.1145 33.151 61.5208 33.0788 61.9248 33.0906C62.3287 33.1025 62.7193 33.2162 63.0967 33.4317C63.4691 33.6393 63.8089 33.9883 64.1161 34.4786C64.4135 34.9532 64.5881 35.4163 64.6399 35.8681C64.6917 36.32 64.643 36.752 64.4938 37.1643C64.3446 37.5765 64.1067 37.9616 63.7803 38.3195C63.4618 38.6725 63.0729 38.9923 62.6138 39.2791C62.5029 39.3483 62.3659 39.4284 62.2026 39.5193C62.0442 39.6182 61.8691 39.7166 61.6771 39.8145C61.498 39.9153 61.3099 40.0107 61.113 40.1007C60.916 40.1907 60.73 40.2628 60.5548 40.3172L55.9534 32.9737ZM62.2092 38.3433C62.4942 38.1654 62.7371 37.9642 62.9379 37.7397C63.1417 37.5024 63.2875 37.2518 63.3754 36.9878C63.4663 36.711 63.4953 36.4233 63.4624 36.1247C63.4246 35.8183 63.309 35.5108 63.1158 35.2024C62.9076 34.8702 62.6748 34.6304 62.4173 34.4831C62.1598 34.3358 61.8924 34.2607 61.6152 34.2578C61.3331 34.2469 61.0504 34.2968 60.7674 34.4076C60.4794 34.5104 60.2008 34.6459 59.9316 34.8139C59.8604 34.8584 59.7757 34.9168 59.6778 34.9889C59.5798 35.0611 59.4819 35.1333 59.3839 35.2055C59.2859 35.2776 59.1984 35.3488 59.1212 35.419C59.044 35.4892 58.9881 35.5406 58.9535 35.5733L61.0721 38.9544C61.1978 38.9089 61.3685 38.8298 61.5842 38.7171C61.795 38.5964 62.0033 38.4719 62.2092 38.3433Z" fill="white"/>
<path d="M63.5678 27.4926L68.4058 25.2464L68.8433 26.1855L65.0592 27.9423L66.4131 30.8485L69.8797 29.239L70.3172 30.1781L66.8505 31.7876L68.3226 34.9475L72.1702 33.1612L72.6077 34.1003L67.7062 36.3759L63.5678 27.4926Z" fill="white"/>
<path d="M75.8812 28.2014L75.2548 28.4028L76.6478 32.7196L75.5416 33.0754L72.5321 23.7489L73.6383 23.3932L75.0399 27.7366L75.5794 27.3572L77.37 22.1931L78.6495 21.7816L76.8249 26.7949L76.407 27.4146L77.2587 27.729L82.0722 30.9752L80.6728 31.4252L75.8812 28.2014Z" fill="white"/>
<path d="M88.9794 20.8014L85.981 21.3708L87.6215 29.9799L86.4799 30.1967L84.8394 21.5876L81.841 22.157L81.647 21.1393L88.7855 19.7837L88.9794 20.8014Z" fill="white"/>
<path d="M103.879 21.5098C103.872 22.0045 103.772 22.5118 103.578 23.0319C103.394 23.5428 103.149 24.0575 102.843 24.5761C102.547 25.0948 102.213 25.6037 101.842 26.1027C101.472 26.5924 101.101 27.0588 100.731 27.5018L100.037 28.0945L100.036 28.1505L100.934 28.0086L103.986 28.0499L103.972 29.0858L98.4006 29.0104L98.4061 28.6045C98.6144 28.3926 98.8653 28.13 99.1589 27.8166C99.4525 27.5032 99.7559 27.1573 100.069 26.7788C100.392 26.3911 100.705 25.9847 101.01 25.5594C101.324 25.1249 101.605 24.6854 101.854 24.2407C102.112 23.7961 102.318 23.3556 102.474 22.919C102.629 22.4824 102.709 22.0681 102.715 21.6761C102.721 21.2188 102.595 20.8391 102.338 20.5369C102.081 20.2254 101.686 20.0661 101.154 20.0589C100.8 20.0541 100.453 20.1241 100.115 20.2688C99.7775 20.4043 99.486 20.5637 99.2408 20.7471L98.7897 19.9429C99.1201 19.6673 99.5104 19.4532 99.9605 19.3007C100.411 19.1481 100.892 19.0752 101.406 19.0822C101.807 19.0876 102.161 19.1531 102.467 19.2785C102.773 19.3947 103.033 19.5615 103.244 19.7791C103.456 19.9966 103.616 20.2555 103.724 20.5556C103.832 20.8465 103.884 21.1645 103.879 21.5098Z" fill="white"/>
<path d="M107.301 24.5085C107.524 22.8433 107.96 21.6255 108.609 20.8551C109.267 20.0859 110.115 19.7704 111.151 19.9084C112.27 20.0575 113.024 20.5816 113.412 21.4807C113.811 22.3718 113.897 23.6639 113.671 25.3568C113.449 27.022 113.008 28.2392 112.35 29.0083C111.701 29.7787 110.854 30.0943 109.808 29.9551C108.707 29.8084 107.961 29.2618 107.57 28.3152C107.178 27.3686 107.089 26.0997 107.301 24.5085ZM108.453 24.6619C108.373 25.2632 108.336 25.8186 108.344 26.328C108.361 26.8294 108.429 27.2716 108.548 27.6545C108.667 28.0283 108.838 28.3335 109.061 28.5703C109.294 28.7991 109.586 28.9369 109.938 28.9837C110.641 29.0773 111.198 28.8219 111.608 28.2175C112.029 27.605 112.333 26.6003 112.519 25.2034C112.599 24.6113 112.634 24.0606 112.627 23.5512C112.629 23.043 112.571 22.5974 112.453 22.2144C112.344 21.8327 112.173 21.5275 111.94 21.2987C111.706 21.0699 111.4 20.9303 111.021 20.8797C110.327 20.7873 109.77 21.0474 109.349 21.6598C108.937 22.2735 108.639 23.2742 108.453 24.6619Z" fill="white"/>
<path d="M130.184 26.2443L127.301 25.2449L124.422 33.5226L123.324 33.1421L126.203 24.8644L123.319 23.8649L123.659 22.8864L130.525 25.2658L130.184 26.2443Z" fill="white"/>
<path d="M137.566 32.2293L138.142 31.2647L138.092 31.2398L137.04 31.9987L129.851 35.8027L129.237 35.4971L133.615 26.7292L134.655 27.2469L131.653 33.2591L131.072 34.205L131.122 34.2299L132.186 33.4772L139.406 29.6106L140.02 29.9162L135.642 38.6841L134.602 38.1664L137.566 32.2293Z" fill="white"/>
<path d="M147.527 36.1651L143.792 33.6155L138.839 40.8458L137.879 40.1906L143.418 32.1057L149.072 35.9656L143.534 44.0506L142.574 43.3954L147.527 36.1651Z" fill="white"/>
<path d="M148.79 42.1237C149.889 40.9154 150.986 40.2221 152.082 40.0439C153.184 39.8587 154.209 40.1955 155.156 41.0542C155.668 41.5181 156.029 42.009 156.239 42.527C156.449 43.045 156.525 43.5794 156.465 44.1302C156.419 44.6804 156.244 45.24 155.941 45.8092C155.644 46.3715 155.238 46.9357 154.723 47.5019C153.624 48.7102 152.52 49.4038 151.411 49.5827C150.316 49.761 149.291 49.4176 148.336 48.5526C147.831 48.095 147.474 47.6072 147.264 47.0892C147.061 46.5775 146.982 46.0465 147.028 45.4964C147.088 44.9455 147.266 44.389 147.563 43.8267C147.866 43.2576 148.275 42.6899 148.79 42.1237ZM149.703 42.9511C149.339 43.3516 149.031 43.7658 148.781 44.1938C148.537 44.6281 148.373 45.0585 148.287 45.4851C148.209 45.9049 148.222 46.3135 148.327 46.7112C148.445 47.1082 148.681 47.4665 149.033 47.7862C149.676 48.3691 150.401 48.585 151.207 48.4339C152.019 48.2759 152.887 47.6894 153.81 46.6745C154.168 46.2809 154.469 45.867 154.713 45.4327C154.969 44.9978 155.134 44.5674 155.206 44.1414C155.291 43.7148 155.275 43.303 155.156 42.906C155.051 42.5084 154.819 42.1466 154.459 41.8206C153.823 41.2439 153.099 41.0346 152.286 41.1926C151.487 41.35 150.626 41.9362 149.703 42.9511Z" fill="white"/>
<path d="M162.441 52.5474C162.262 52.6977 162.056 52.8225 161.822 52.9218C161.588 53.0211 161.341 53.0828 161.081 53.1071C160.827 53.1253 160.564 53.0964 160.292 53.0203C160.021 52.9443 159.75 52.8122 159.481 52.6239L159.438 52.66C159.583 52.9039 159.694 53.1582 159.771 53.4228C159.854 53.6946 159.884 53.9684 159.861 54.2444C159.837 54.5204 159.757 54.7949 159.622 55.0679C159.486 55.3409 159.271 55.6007 158.979 55.8472C158.593 56.1719 158.188 56.3724 157.764 56.449C157.353 56.5266 156.947 56.5087 156.546 56.3952C156.151 56.2889 155.768 56.1043 155.4 55.8414C155.031 55.5784 154.699 55.2723 154.404 54.923C154.301 54.8018 154.181 54.6593 154.042 54.4953C153.904 54.3313 153.766 54.1542 153.63 53.964C153.486 53.7797 153.35 53.5895 153.221 53.3932C153.085 53.203 152.977 53.0251 152.898 52.8596L160.276 46.646C160.542 46.8737 160.837 47.1502 161.161 47.4755C161.484 47.8008 161.821 48.1701 162.17 48.5836C162.405 48.8616 162.618 49.1643 162.809 49.4915C163.013 49.8199 163.147 50.1588 163.21 50.5083C163.281 50.8517 163.261 51.1975 163.152 51.5456C163.049 51.9009 162.812 52.2348 162.441 52.5474ZM155.247 54.3593C155.44 54.5874 155.651 54.7873 155.882 54.9591C156.12 55.1249 156.365 55.2416 156.618 55.3094C156.878 55.3712 157.133 55.3762 157.382 55.3246C157.638 55.2801 157.884 55.1587 158.119 54.9603C158.412 54.7138 158.596 54.4548 158.672 54.1833C158.755 53.9189 158.764 53.6484 158.702 53.3718C158.645 53.1023 158.535 52.8348 158.372 52.5695C158.209 52.3042 158.028 52.0539 157.829 51.8187L157.043 50.8884L154.355 53.1519C154.383 53.2139 154.432 53.2942 154.504 53.3929C154.575 53.4916 154.652 53.5974 154.735 53.7103C154.818 53.8233 154.905 53.9398 154.994 54.0598C155.09 54.1739 155.175 54.2737 155.247 54.3593ZM158.262 50.8131C158.365 50.9343 158.492 51.0775 158.644 51.2426C158.795 51.4076 158.926 51.5412 159.037 51.6432C159.239 51.7662 159.442 51.8695 159.647 51.9531C159.859 52.0306 160.067 52.0814 160.271 52.1052C160.487 52.1302 160.694 52.1147 160.891 52.0586C161.101 52.0036 161.292 51.904 161.463 51.7597C161.699 51.5613 161.853 51.3527 161.924 51.1337C162.009 50.9159 162.034 50.6931 162.001 50.4652C161.967 50.2373 161.887 50.0121 161.76 49.7896C161.64 49.5611 161.496 49.347 161.327 49.1474C161.128 48.9121 160.937 48.7007 160.754 48.5131C160.585 48.3266 160.447 48.1925 160.341 48.1108L157.792 50.2571L158.262 50.8131Z" fill="white"/>
<path d="M164.98 70.4689C164.658 70.3244 164.358 70.0831 164.08 69.7452C163.802 69.4073 163.548 69.0249 163.317 68.5979C163.037 68.0806 162.862 67.5497 162.791 67.0051C162.727 66.4561 162.786 65.916 162.965 65.3846C163.145 64.8532 163.461 64.3386 163.913 63.8406C164.374 63.3382 164.99 62.879 165.763 62.4631C166.568 62.0294 167.308 61.7689 167.982 61.6815C168.669 61.5979 169.284 61.6375 169.828 61.8003C170.385 61.9669 170.866 62.2277 171.27 62.5826C171.673 62.9375 172 63.3449 172.248 63.8047C172.514 64.2974 172.703 64.7153 172.814 65.0583C172.933 65.3968 173.008 65.7013 173.037 65.9717L172.004 66.2099C171.98 65.714 171.771 65.1006 171.376 64.3698C171.194 64.0331 170.953 63.7338 170.652 63.4717C170.351 63.2096 169.99 63.0224 169.569 62.9101C169.152 62.806 168.675 62.7976 168.139 62.8849C167.603 62.9723 167.006 63.193 166.348 63.547C165.757 63.8656 165.279 64.2182 164.915 64.605C164.551 64.9918 164.29 65.3921 164.132 65.8059C163.978 66.228 163.92 66.6513 163.959 67.0758C164.001 67.5085 164.134 67.9302 164.356 68.3408C164.555 68.7103 164.765 69.0106 164.986 69.2418C165.21 69.4811 165.431 69.6643 165.648 69.7912L164.98 70.4689Z" fill="white"/>
<path d="M174.601 75.5201C174.384 75.6046 174.148 75.656 173.895 75.6742C173.642 75.6925 173.388 75.6709 173.134 75.6095C172.888 75.5447 172.649 75.4323 172.416 75.2723C172.184 75.1124 171.97 74.8997 171.777 74.6345L171.725 74.6547C171.783 74.9325 171.806 75.2091 171.793 75.4844C171.783 75.7685 171.723 76.0373 171.611 76.2909C171.499 76.5444 171.335 76.7784 171.118 76.9929C170.901 77.2073 170.614 77.3837 170.258 77.5223C169.788 77.7047 169.34 77.7635 168.914 77.6986C168.5 77.6391 168.122 77.4907 167.779 77.2534C167.439 77.0248 167.138 76.7264 166.874 76.3582C166.611 75.99 166.396 75.5928 166.23 75.1667C166.172 75.0189 166.104 74.8449 166.026 74.6449C165.948 74.4449 165.876 74.2328 165.808 74.0086C165.732 73.7879 165.665 73.5637 165.606 73.3361C165.539 73.112 165.495 72.9088 165.474 72.7267L174.466 69.2348C174.644 69.5363 174.833 69.8934 175.034 70.306C175.234 70.7186 175.433 71.1771 175.63 71.6815C175.762 72.0206 175.865 72.376 175.94 72.7475C176.027 73.1243 176.043 73.4883 175.99 73.8395C175.945 74.1873 175.815 74.5082 175.599 74.8024C175.386 75.1052 175.054 75.3444 174.601 75.5201ZM167.21 74.9062C167.318 75.1844 167.454 75.4422 167.616 75.6795C167.788 75.9133 167.982 76.1032 168.199 76.2492C168.425 76.3918 168.664 76.479 168.917 76.511C169.173 76.5517 169.445 76.5162 169.732 76.4047C170.089 76.2662 170.347 76.0808 170.507 75.8485C170.67 75.6249 170.767 75.372 170.797 75.0899C170.831 74.8165 170.814 74.5279 170.746 74.224C170.677 73.9201 170.587 73.6247 170.475 73.3377L170.033 72.2028L166.757 73.4749C166.764 73.5425 166.785 73.6346 166.82 73.751C166.855 73.8674 166.894 73.9926 166.936 74.1264C166.978 74.2602 167.022 74.3984 167.068 74.5409C167.122 74.6801 167.169 74.8018 167.21 74.9062ZM171.211 72.5264C171.269 72.6742 171.342 72.8508 171.432 73.0561C171.522 73.2615 171.603 73.4303 171.675 73.5627C171.826 73.7444 171.985 73.908 172.152 74.0534C172.327 74.1955 172.507 74.3108 172.692 74.3993C172.889 74.493 173.089 74.5453 173.294 74.556C173.511 74.572 173.723 74.5394 173.932 74.4584C174.219 74.3469 174.432 74.1991 174.571 74.0151C174.721 73.8364 174.818 73.6338 174.86 73.4072C174.902 73.1807 174.899 72.9416 174.851 72.6899C174.811 72.4348 174.744 72.1855 174.649 71.942C174.538 71.655 174.426 71.3932 174.313 71.1564C174.213 70.925 174.126 70.7535 174.053 70.6419L170.947 71.8481L171.211 72.5264Z" fill="white"/>
<path d="M172.185 85.2843L171.316 81.7786L168.443 81.4792L168.167 80.365L178.723 81.577L178.851 82.0934L170.084 88.0967L169.791 86.9145L172.185 85.2843ZM172.385 81.9036L173.079 84.7027L175.711 82.9272L177.068 82.2314L177.064 82.2178L175.512 82.2409L172.385 81.9036Z" fill="white"/>
<path d="M177.567 95.5885L178.69 95.5494L178.684 95.4937L177.476 95.0211L170.388 91.0414L170.313 90.3596L180.054 89.2863L180.181 90.4413L173.502 91.1772L172.392 91.201L172.398 91.2566L173.607 91.7432L180.764 95.7152L180.84 96.397L171.099 97.4703L170.971 96.3153L177.567 95.5885ZM182.686 91.433C182.346 91.5079 182.096 91.6669 181.935 91.91C181.774 92.1531 181.715 92.4602 181.756 92.8313C181.797 93.2023 181.922 93.4843 182.131 93.6773C182.341 93.8795 182.616 93.9853 182.955 93.9949L182.827 95.009C182.315 94.9621 181.89 94.7695 181.552 94.4312C181.225 94.1011 181.023 93.5928 180.947 92.9063C180.874 92.2476 180.939 91.6911 181.143 91.2368C181.356 90.7907 181.737 90.4999 182.286 90.3644L182.686 91.433Z" fill="white"/>
<path d="M175.74 106.18C177.363 106.359 178.568 106.839 179.355 107.621C180.151 108.403 180.479 109.43 180.339 110.701C180.263 111.387 180.077 111.968 179.78 112.442C179.483 112.917 179.095 113.292 178.613 113.567C178.14 113.853 177.584 114.041 176.945 114.13C176.316 114.22 175.62 114.223 174.86 114.14C173.236 113.961 172.027 113.475 171.232 112.684C170.445 111.902 170.122 110.871 170.264 109.591C170.339 108.914 170.524 108.338 170.821 107.864C171.116 107.398 171.501 107.023 171.974 106.737C172.455 106.461 173.01 106.278 173.64 106.188C174.279 106.099 174.979 106.096 175.74 106.18ZM175.604 107.405C175.066 107.345 174.55 107.34 174.057 107.389C173.562 107.447 173.117 107.567 172.721 107.749C172.335 107.932 172.011 108.182 171.75 108.501C171.498 108.83 171.346 109.231 171.293 109.704C171.198 110.567 171.448 111.28 172.043 111.843C172.647 112.408 173.631 112.765 174.995 112.915C175.524 112.973 176.036 112.973 176.53 112.915C177.033 112.867 177.479 112.747 177.866 112.555C178.262 112.374 178.586 112.118 178.838 111.789C179.099 111.47 179.256 111.07 179.309 110.588C179.403 109.734 179.148 109.025 178.544 108.461C177.948 107.907 176.968 107.555 175.604 107.405Z" fill="white"/>
<path d="M165.727 122.87L165.923 122.096L167.725 122.334L169.411 115.67L167.711 115.025L167.91 114.238L170.666 114.932L170.422 115.896C170.503 115.994 170.707 116.16 171.032 116.396C171.364 116.644 171.851 116.925 172.494 117.241C173.143 117.568 173.963 117.92 174.956 118.295C175.958 118.673 177.165 119.04 178.577 119.395L177.293 124.472L168.795 122.329L168.483 123.565L165.727 122.87ZM169.08 121.203L176.574 123.092L177.305 120.201C176.316 119.923 175.434 119.643 174.658 119.36C173.88 119.087 173.197 118.819 172.609 118.555C172.03 118.294 171.536 118.039 171.127 117.792C170.718 117.544 170.382 117.31 170.12 117.09L169.08 121.203Z" fill="white"/>
<path d="M170.536 133.233L171.543 133.73L171.564 133.678L170.726 132.69L166.378 125.829L166.636 125.193L175.721 128.866L175.285 129.942L169.054 127.424L168.066 126.919L168.045 126.971L168.878 127.972L173.29 134.859L173.032 135.495L163.947 131.822L164.383 130.746L170.536 133.233Z" fill="white"/>
<path d="M163.577 141.477L165.926 137.401L162.03 135.163L162.61 134.156L171.108 139.038L170.527 140.044L166.825 137.918L164.476 141.993L168.178 144.12L167.598 145.127L159.1 140.245L159.68 139.239L163.577 141.477Z" fill="white"/>
<path d="M157.624 150.118C158.829 151.221 159.518 152.32 159.691 153.415C159.871 154.516 159.529 155.537 158.664 156.479C158.197 156.987 157.703 157.346 157.183 157.553C156.663 157.76 156.128 157.833 155.576 157.771C155.025 157.723 154.465 157.546 153.897 157.24C153.335 156.941 152.772 156.533 152.207 156.017C151.002 154.914 150.313 153.809 150.139 152.701C149.966 151.606 150.315 150.584 151.186 149.636C151.647 149.134 152.138 148.779 152.658 148.572C153.171 148.371 153.703 148.295 154.254 148.344C154.806 148.406 155.362 148.586 155.924 148.885C156.493 149.191 157.059 149.602 157.624 150.118ZM156.791 151.026C156.391 150.66 155.978 150.352 155.55 150.1C155.117 149.854 154.686 149.688 154.259 149.601C153.839 149.52 153.43 149.532 153.031 149.635C152.633 149.751 152.273 149.985 151.951 150.335C151.364 150.974 151.144 151.697 151.291 152.502C151.445 153.314 152.029 154.183 153.041 155.109C153.433 155.468 153.846 155.771 154.28 156.016C154.714 156.274 155.145 156.44 155.571 156.514C155.998 156.601 156.411 156.587 156.809 156.47C157.208 156.367 157.571 156.137 157.899 155.779C158.48 155.147 158.694 154.425 158.539 153.613C158.386 152.815 157.803 151.952 156.791 151.026Z" fill="white"/>
<path d="M153.102 161.604L149.032 165.03L148.364 164.238L151.545 161.561L149.647 159.315C149.544 159.438 149.412 159.586 149.252 159.758C149.091 159.929 148.929 160.084 148.765 160.222C148.401 160.529 148.024 160.785 147.636 160.99C147.253 161.202 146.867 161.332 146.479 161.378C146.091 161.424 145.704 161.365 145.321 161.2C144.936 161.048 144.563 160.758 144.201 160.331C143.84 159.903 143.602 159.469 143.487 159.029C143.378 158.596 143.364 158.175 143.445 157.765C143.532 157.362 143.702 156.969 143.953 156.587C144.203 156.218 144.51 155.88 144.874 155.573C144.996 155.471 145.138 155.358 145.301 155.232C145.451 155.106 145.618 154.978 145.801 154.848C145.977 154.724 146.157 154.604 146.339 154.487C146.508 154.369 146.676 154.271 146.841 154.192L153.102 161.604ZM145.418 156.434C145.189 156.626 144.999 156.841 144.846 157.08C144.693 157.318 144.593 157.561 144.545 157.809C144.496 158.069 144.511 158.332 144.588 158.597C144.657 158.867 144.801 159.131 145.017 159.388C145.294 159.716 145.571 159.934 145.847 160.044C146.121 160.166 146.392 160.213 146.66 160.182C146.928 160.152 147.191 160.059 147.45 159.902C147.707 159.759 147.957 159.585 148.2 159.38C148.264 159.326 148.336 159.259 148.416 159.18C148.496 159.101 148.575 159.022 148.655 158.942C148.735 158.863 148.804 158.786 148.863 158.712C148.929 158.645 148.976 158.593 149.006 158.555L146.522 155.614C146.46 155.642 146.386 155.685 146.302 155.744C146.21 155.809 146.115 155.877 146.016 155.948C145.91 156.025 145.807 156.106 145.707 156.19C145.607 156.274 145.511 156.355 145.418 156.434Z" fill="white"/>
<path d="M144.004 167.258L145.883 166.038L146.449 166.906L143.596 168.759L141.516 165.569C141.482 165.602 141.421 165.653 141.332 165.722C141.248 165.799 141.154 165.876 141.05 165.955C140.937 166.039 140.825 166.124 140.713 166.208C140.6 166.292 140.497 166.364 140.403 166.425C140.036 166.664 139.65 166.859 139.247 167.01C138.841 167.173 138.436 167.253 138.032 167.248C137.628 167.243 137.235 167.137 136.854 166.928C136.478 166.727 136.132 166.384 135.816 165.9C135.51 165.43 135.327 164.971 135.267 164.52C135.208 164.069 135.248 163.636 135.39 163.221C135.532 162.806 135.763 162.417 136.083 162.053C136.395 161.695 136.778 161.368 137.232 161.073C137.342 161.002 137.477 160.919 137.639 160.825C137.795 160.724 137.969 160.622 138.159 160.521C138.336 160.417 138.523 160.318 138.718 160.225C138.913 160.131 139.098 160.056 139.272 159.998L144.004 167.258ZM137.653 162.001C137.372 162.184 137.132 162.39 136.936 162.618C136.736 162.859 136.595 163.112 136.512 163.378C136.426 163.656 136.402 163.944 136.44 164.242C136.483 164.548 136.604 164.853 136.803 165.158C137.017 165.486 137.254 165.722 137.515 165.865C137.775 166.007 138.043 166.078 138.32 166.076C138.603 166.081 138.884 166.026 139.166 165.911C139.452 165.803 139.728 165.662 139.994 165.489C140.064 165.444 140.148 165.384 140.245 165.31C140.341 165.236 140.438 165.162 140.534 165.088C140.631 165.014 140.717 164.941 140.793 164.87C140.869 164.798 140.924 164.746 140.958 164.713L138.779 161.37C138.654 161.418 138.485 161.5 138.272 161.617C138.063 161.741 137.857 161.869 137.653 162.001Z" fill="white"/>
<path d="M136.487 172.875L131.69 175.207L131.235 174.276L134.987 172.452L133.582 169.57L130.144 171.241L129.69 170.31L133.127 168.639L131.599 165.506L127.784 167.361L127.329 166.43L132.189 164.067L136.487 172.875Z" fill="white"/>
<path d="M124.166 172.385L124.789 172.172L123.318 167.881L124.418 167.506L127.595 176.777L126.495 177.152L125.015 172.834L124.483 173.223L122.785 178.419L121.513 178.853L123.248 173.808L123.654 173.181L122.797 172.882L117.926 169.722L119.317 169.247L124.166 172.385Z" fill="white"/>
<path d="M111.205 180.018L114.192 179.395L112.398 170.817L113.535 170.58L115.33 179.158L118.318 178.535L118.53 179.549L111.417 181.032L111.205 180.018Z" fill="white"/>
<path d="M96.2942 179.577C96.2921 179.082 96.3832 178.573 96.5675 178.05C96.7426 177.536 96.9783 177.017 97.2747 176.493C97.5617 175.969 97.8862 175.454 98.2479 174.948C98.6098 174.452 98.9717 173.979 99.3337 173.53L100.017 172.925L100.017 172.869L99.1215 173.027L96.0695 173.04L96.065 172.004L101.637 171.98L101.639 172.386C101.434 172.601 101.188 172.868 100.9 173.187C100.612 173.505 100.315 173.857 100.009 174.241C99.6932 174.634 99.387 175.046 99.0903 175.477C98.7842 175.917 98.5108 176.361 98.2701 176.81C98.0201 177.259 97.8214 177.704 97.674 178.143C97.5266 178.582 97.4537 178.998 97.4554 179.39C97.4574 179.847 97.5898 180.225 97.8524 180.522C98.1151 180.829 98.5124 180.981 99.0444 180.979C99.3991 180.977 99.7441 180.901 100.079 180.75C100.415 180.609 100.703 180.444 100.945 180.257L101.411 181.053C101.085 181.334 100.699 181.555 100.252 181.716C99.8044 181.876 99.3241 181.958 98.8107 181.96C98.4094 181.962 98.0545 181.903 97.7459 181.783C97.4375 181.672 97.1754 181.51 96.9598 181.296C96.7442 181.082 96.5797 180.826 96.4664 180.528C96.3532 180.239 96.2958 179.922 96.2942 179.577Z" fill="white"/>
<path d="M92.8163 176.639C92.6237 178.308 92.2098 179.534 91.5746 180.315C90.9302 181.096 90.0888 181.427 89.0503 181.308C87.9283 181.179 87.1652 180.668 86.7608 179.776C86.346 178.892 86.2365 177.602 86.4324 175.905C86.625 174.236 87.0435 173.011 87.6879 172.23C88.3231 171.449 89.1645 171.118 90.2123 171.238C91.3157 171.365 92.0715 171.898 92.4798 172.838C92.8882 173.777 93.0003 175.045 92.8163 176.639ZM91.6619 176.506C91.7314 175.904 91.758 175.348 91.7416 174.839C91.7149 174.338 91.6389 173.897 91.5137 173.516C91.3875 173.144 91.211 172.842 90.9842 172.61C90.747 172.385 90.4523 172.252 90.0999 172.212C89.3952 172.131 88.8432 172.396 88.4437 173.008C88.034 173.628 87.7483 174.638 87.5867 176.038C87.5183 176.631 87.4922 177.183 87.5086 177.692C87.5157 178.2 87.5819 178.644 87.7071 179.025C87.823 179.405 87.9995 179.707 88.2366 179.932C88.4738 180.156 88.7825 180.29 89.1626 180.334C89.858 180.414 90.4106 180.144 90.8204 179.524C91.2209 178.903 91.5014 177.897 91.6619 176.506Z" fill="white"/>
<path d="M69.9063 175.313L72.8074 176.261L75.5371 167.933L76.6417 168.294L73.912 176.622L76.8131 177.569L76.4905 178.554L69.5836 176.298L69.9063 175.313Z" fill="white"/>
<path d="M62.415 169.462L61.8569 170.437L61.9075 170.461L62.9455 169.683L70.0643 165.751L70.6838 166.046L66.4642 174.891L65.4148 174.392L68.3082 168.327L68.873 167.37L68.8224 167.346L67.7718 168.118L60.6228 172.113L60.0032 171.819L64.2229 162.974L65.2723 163.473L62.415 169.462Z" fill="white"/>
<path d="M52.3893 165.705L56.169 168.187L60.9914 160.869L61.9627 161.507L56.5703 169.69L50.8479 165.932L56.2404 157.749L57.2116 158.387L52.3893 165.705Z" fill="white"/>
<path d="M51.0165 159.769C49.9394 160.997 48.8546 161.71 47.7622 161.908C46.6637 162.113 45.6331 161.794 44.6704 160.953C44.1505 160.498 43.7808 160.014 43.5614 159.5C43.342 158.985 43.2571 158.452 43.3066 157.901C43.3429 157.35 43.5076 156.787 43.8005 156.213C44.0873 155.645 44.4831 155.074 44.9878 154.498C46.0649 153.271 47.1563 152.557 48.2619 152.358C49.3542 152.161 50.3853 152.486 51.3549 153.333C51.8679 153.782 52.234 154.263 52.4534 154.777C52.6658 155.285 52.7538 155.815 52.7175 156.366C52.6679 156.917 52.4998 157.477 52.213 158.045C51.9201 158.619 51.5212 159.194 51.0165 159.769ZM50.089 158.958C50.446 158.551 50.7459 158.132 50.9887 157.699C51.2244 157.261 51.3811 156.827 51.4586 156.399C51.5301 155.978 51.5096 155.57 51.3974 155.174C51.2719 154.779 51.0301 154.425 50.6717 154.112C50.0182 153.541 49.2899 153.338 48.4866 153.503C47.6772 153.676 46.8201 154.278 45.9153 155.309C45.5644 155.709 45.2711 156.128 45.0354 156.567C44.7865 157.006 44.6298 157.44 44.5654 157.867C44.4878 158.295 44.5118 158.706 44.6372 159.101C44.7495 159.497 44.9883 159.855 45.3537 160.174C46.0001 160.739 46.728 160.935 47.5374 160.763C48.3337 160.591 49.1842 159.99 50.089 158.958Z" fill="white"/>
<path d="M37.1846 149.593C37.3604 149.439 37.5643 149.311 37.7963 149.207C38.0282 149.104 38.2743 149.037 38.5344 149.009C38.7875 148.986 39.0507 149.01 39.3239 149.081C39.5972 149.152 39.8701 149.28 40.1425 149.463L40.1847 149.426C40.0353 149.185 39.9197 148.933 39.838 148.669C39.7502 148.399 39.7155 148.126 39.7339 147.85C39.7524 147.573 39.8271 147.297 39.958 147.022C40.089 146.746 40.2985 146.483 40.5868 146.231C40.9664 145.9 41.3675 145.692 41.7902 145.608C42.1997 145.523 42.6061 145.533 43.0095 145.64C43.4067 145.739 43.792 145.917 44.1654 146.173C44.5389 146.429 44.8763 146.729 45.1777 147.073C45.2823 147.193 45.4053 147.333 45.5468 147.494C45.6883 147.656 45.8289 147.83 45.9686 148.018C46.1153 148.2 46.255 148.388 46.3877 148.582C46.5274 148.769 46.6382 148.945 46.7199 149.109L39.4543 155.454C39.1845 155.231 38.8849 154.96 38.5553 154.641C38.2258 154.321 37.8827 153.958 37.5259 153.551C37.286 153.277 37.0677 152.978 36.8708 152.655C36.6608 152.33 36.5211 151.993 36.4517 151.645C36.3753 151.303 36.3885 150.957 36.4913 150.607C36.588 150.25 36.8191 149.912 37.1846 149.593ZM44.3447 147.652C44.1478 147.427 43.9326 147.231 43.6988 147.064C43.458 146.902 43.2107 146.79 42.9567 146.727C42.6957 146.67 42.4409 146.669 42.1922 146.725C41.9374 146.774 41.694 146.9 41.462 147.103C41.1737 147.354 40.994 147.617 40.9228 147.889C40.8455 148.155 40.8407 148.426 40.9083 148.701C40.9698 148.97 41.0845 149.235 41.2523 149.497C41.4202 149.76 41.6056 150.007 41.8086 150.238L42.6113 151.155L45.2581 148.843C45.2291 148.782 45.1781 148.702 45.1052 148.605C45.0323 148.508 44.9532 148.403 44.8679 148.292C44.7827 148.18 44.6944 148.065 44.603 147.947C44.5046 147.835 44.4185 147.736 44.3447 147.652ZM41.3933 151.252C41.2888 151.132 41.1591 150.991 41.0045 150.829C40.8498 150.667 40.7163 150.536 40.6038 150.436C40.3999 150.316 40.1948 150.217 39.9882 150.137C39.7747 150.063 39.566 150.016 39.3621 149.996C39.1451 149.975 38.9386 149.994 38.7426 150.053C38.5335 150.112 38.3446 150.215 38.1758 150.363C37.9438 150.565 37.794 150.777 37.7263 150.997C37.6455 151.216 37.624 151.439 37.6617 151.666C37.6995 151.894 37.7839 152.117 37.9148 152.338C38.0387 152.564 38.1868 152.775 38.359 152.972C38.562 153.204 38.7566 153.412 38.9429 153.596C39.116 153.779 39.2562 153.911 39.3634 153.991L41.8731 151.799L41.3933 151.252Z" fill="white"/>
<path d="M34.3202 131.719C34.6449 131.858 34.9492 132.094 35.2333 132.427C35.5174 132.76 35.7786 133.137 36.0169 133.56C36.3056 134.072 36.4906 134.6 36.5718 135.143C36.6449 135.691 36.5964 136.232 36.4262 136.767C36.2561 137.301 35.9494 137.821 35.5061 138.327C35.0546 138.838 34.4464 139.308 33.6815 139.738C32.8841 140.186 32.1491 140.46 31.4766 140.559C30.7914 140.655 30.1753 140.626 29.6283 140.473C29.0686 140.317 28.5837 140.065 28.1734 139.717C27.7632 139.369 27.4297 138.968 27.1731 138.513C26.8981 138.025 26.702 137.61 26.5848 137.269C26.4594 136.933 26.3796 136.63 26.3454 136.36L27.3739 136.103C27.4068 136.599 27.6271 137.208 28.0351 137.932C28.223 138.265 28.4696 138.56 28.775 138.817C29.0804 139.074 29.4448 139.254 29.8681 139.359C30.2868 139.456 30.7635 139.456 31.2981 139.359C31.8328 139.262 32.4256 139.03 33.0765 138.665C33.6624 138.335 34.1338 137.974 34.4907 137.581C34.8476 137.188 35.1015 136.783 35.2524 136.366C35.3986 135.942 35.4487 135.517 35.4027 135.094C35.3521 134.662 35.2122 134.242 34.983 133.836C34.7768 133.47 34.5614 133.174 34.3369 132.946C34.1079 132.711 33.8837 132.532 33.6643 132.409L34.3202 131.719Z" fill="white"/>
<path d="M24.6127 126.841C24.8287 126.753 25.0632 126.697 25.3161 126.674C25.5691 126.651 25.8232 126.668 26.0786 126.725C26.3254 126.786 26.5665 126.894 26.802 127.05C27.0374 127.205 27.2543 127.414 27.4525 127.676L27.5044 127.655C27.4412 127.378 27.4136 127.102 27.4216 126.826C27.426 126.542 27.4817 126.272 27.5887 126.017C27.6957 125.761 27.8557 125.524 28.0688 125.306C28.2819 125.088 28.5655 124.906 28.9197 124.761C29.3861 124.571 29.8329 124.504 30.2599 124.561C30.6748 124.613 31.0558 124.755 31.4029 124.986C31.7465 125.208 32.0534 125.501 32.3236 125.865C32.5938 126.228 32.8158 126.621 32.9895 127.044C33.0497 127.191 33.1206 127.364 33.2021 127.562C33.2836 127.761 33.3601 127.972 33.4314 128.195C33.5114 128.414 33.5827 128.637 33.6454 128.863C33.7167 129.086 33.7645 129.289 33.7886 129.47L24.8608 133.123C24.6778 132.825 24.4822 132.471 24.274 132.062C24.0658 131.653 23.8589 131.198 23.6533 130.697C23.5151 130.361 23.4053 130.007 23.324 129.637C23.2305 129.262 23.2074 128.898 23.2546 128.546C23.2931 128.198 23.4177 127.874 23.6283 127.576C23.8354 127.27 24.1635 127.025 24.6127 126.841ZM32.014 127.322C31.9006 127.046 31.7605 126.791 31.5937 126.557C31.4182 126.326 31.2206 126.139 31.0009 125.997C30.7725 125.859 30.5317 125.776 30.2783 125.748C30.0213 125.712 29.7503 125.753 29.4652 125.869C29.1111 126.014 28.8561 126.204 28.7004 126.439C28.5412 126.666 28.4489 126.92 28.4237 127.203C28.3949 127.477 28.4174 127.765 28.4912 128.068C28.5649 128.37 28.6603 128.664 28.7772 128.949L29.2398 130.076L32.4921 128.745C32.4846 128.678 32.4621 128.586 32.4247 128.47C32.3872 128.355 32.3463 128.23 32.3017 128.097C32.2572 127.964 32.2109 127.827 32.1628 127.685C32.1061 127.547 32.0565 127.426 32.014 127.322ZM28.0563 129.773C27.996 129.627 27.9191 129.451 27.8254 129.248C27.7317 129.044 27.6478 128.877 27.5738 128.746C27.4197 128.567 27.2578 128.406 27.0884 128.264C26.9103 128.125 26.7281 128.013 26.5418 127.927C26.3434 127.837 26.1418 127.789 25.9371 127.782C25.7203 127.769 25.5082 127.806 25.3009 127.891C25.0158 128.007 24.8056 128.159 24.6703 128.345C24.5228 128.527 24.4301 128.731 24.3922 128.958C24.3543 129.185 24.3616 129.424 24.4141 129.675C24.458 129.93 24.5296 130.178 24.6288 130.419C24.7458 130.704 24.8625 130.964 24.979 131.199C25.0834 131.428 25.1733 131.598 25.2488 131.709L28.3327 130.447L28.0563 129.773Z" fill="white"/>
<path d="M26.8543 117.035L27.7867 120.525L30.6642 120.773L30.9606 121.882L20.3841 120.859L20.2467 120.345L28.9042 114.186L29.2186 115.363L26.8543 117.035ZM26.7151 120.419L25.9706 117.633L23.3709 119.455L22.0272 120.175L22.0308 120.189L23.5823 120.138L26.7151 120.419Z" fill="white"/>
<path d="M21.2853 106.829L20.1636 106.888L20.1708 106.944L21.3863 107.395L28.545 111.247L28.6326 111.927L18.9123 113.175L18.7639 112.022L25.4292 111.167L26.5387 111.123L26.5316 111.068L25.3142 110.603L18.0862 106.76L17.9986 106.079L27.7189 104.832L27.8673 105.984L21.2853 106.829ZM16.2423 111.076C16.5801 110.995 16.8272 110.831 16.9838 110.585C17.1403 110.339 17.1947 110.031 17.147 109.661C17.0994 109.291 16.9692 109.011 16.7567 108.822C16.5429 108.623 16.2664 108.522 15.9272 108.519L16.0363 107.503C16.5493 107.54 16.9778 107.725 17.3217 108.058C17.6552 108.382 17.866 108.886 17.9542 109.571C18.0389 110.229 17.9836 110.786 17.7885 111.244C17.5829 111.694 17.2072 111.992 16.6613 112.137L16.2423 111.076Z" fill="white"/>
</svg>
