<svg width="35" height="35" viewBox="0 0 35 35" fill="none" xmlns="http://www.w3.org/2000/svg">
<path d="M12.7584 6.12891C8.46526 6.12891 4.99023 9.72394 4.99023 14.1653C4.99023 24.3063 12.7584 30.9796 12.7584 30.9796C12.7584 30.9796 20.541 24.3063 20.541 14.1653C20.541 9.72394 17.0515 6.12891 12.7584 6.12891ZM12.7584 10.5703C14.6841 10.5703 16.2479 12.1731 16.2479 14.1653C16.2479 16.1576 14.6841 17.7603 12.7584 17.7603C10.8471 17.7603 9.28334 16.1576 9.28334 14.1653C9.28334 12.1731 10.8471 10.5703 12.7584 10.5703Z" stroke="#333333" stroke-miterlimit="10" stroke-linecap="round" stroke-linejoin="round"/>
<path d="M12.7559 6.13041V1H33.997L26.4243 8.84167" stroke="#333333" stroke-miterlimit="10" stroke-linecap="round" stroke-linejoin="round"/>
<path d="M20.3809 16.6818H33.9986L26.426 8.84766" stroke="#333333" stroke-miterlimit="10" stroke-linecap="round" stroke-linejoin="round"/>
<path d="M12.7572 34.0014C6.26322 34.0014 1 32.6532 1 30.983C1 29.897 3.22981 28.9533 6.56729 28.4141" stroke="#333333" stroke-miterlimit="10" stroke-linecap="round" stroke-linejoin="round"/>
<path d="M12.7559 34.0014C19.2498 34.0014 24.513 32.6532 24.513 30.983C24.513 29.897 22.2832 28.9533 18.9457 28.4141" stroke="#333333" stroke-miterlimit="10" stroke-linecap="round" stroke-linejoin="round"/>
</svg>
