<svg width="20" height="28" viewBox="0 0 20 28" fill="none" xmlns="http://www.w3.org/2000/svg">
<path d="M16.168 16.2972C17.2124 16.2972 18.056 15.441 18.056 14.381C18.056 13.321 17.2124 12.4648 16.168 12.4648" stroke="white" stroke-miterlimit="10" stroke-linecap="round" stroke-linejoin="round"/>
<path d="M8.19385 25.1582C8.19385 26.2182 9.03744 27.0744 10.0819 27.0744C11.1263 27.0744 11.9699 26.2182 11.9699 25.1582" stroke="white" stroke-miterlimit="10" stroke-linecap="round" stroke-linejoin="round"/>
<path d="M17.1118 12.4768C18.1563 12.4768 18.9999 11.6207 18.9999 10.5607C18.9999 9.50069 18.1563 8.64453 17.1118 8.64453" stroke="white" stroke-miterlimit="10" stroke-linecap="round" stroke-linejoin="round"/>
<path d="M16.4893 8.65262C17.5337 8.65262 18.3773 7.79647 18.3773 6.73647C18.3773 5.67647 17.5337 4.82031 16.4893 4.82031" stroke="white" stroke-miterlimit="10" stroke-linecap="round" stroke-linejoin="round"/>
<path d="M15.2241 4.83231C16.2686 4.83231 17.1122 3.97616 17.1122 2.91616C17.1122 1.85616 16.2686 1 15.2241 1" stroke="white" stroke-miterlimit="10" stroke-linecap="round" stroke-linejoin="round"/>
<path d="M11.9599 25.154C11.9599 19.059 9.07764 16.2969 9.07764 16.2969H16.1578" stroke="white" stroke-miterlimit="10" stroke-linecap="round" stroke-linejoin="round"/>
<path d="M16.5195 12.4727H12.1309" stroke="white" stroke-miterlimit="10" stroke-linecap="round" stroke-linejoin="round"/>
<path d="M17.1121 8.65234H12.1309" stroke="white" stroke-miterlimit="10" stroke-linecap="round" stroke-linejoin="round"/>
<path d="M16.4894 4.83008H12.1309" stroke="white" stroke-miterlimit="10" stroke-linecap="round" stroke-linejoin="round"/>
<path d="M15.224 1.00781C9.6503 1.00781 5.63321 1.00781 1.12402 3.933" stroke="white" stroke-miterlimit="10" stroke-linecap="round" stroke-linejoin="round"/>
<path d="M8.19411 25.1578C7.6518 19.2259 3.70501 18.0844 1.12402 15.8828" stroke="white" stroke-miterlimit="10" stroke-linecap="round" stroke-linejoin="round"/>
</svg>
