<svg width="46" height="28" viewBox="0 0 46 28" fill="none" xmlns="http://www.w3.org/2000/svg">
<path d="M44.092 1.71368L28.7364 14.0004L25.7233 16.3922C24.1394 17.6652 21.8603 17.6652 20.2571 16.3922L17.2826 14.0004L1.90771 1.71368C2.39059 1.27004 3.04731 1 3.76197 1H42.2377C42.9524 1 43.5898 1.28933 44.092 1.71368Z" stroke="white" stroke-miterlimit="10" stroke-linecap="round" stroke-linejoin="round"/>
<path d="M45.0002 3.77871V24.2245C45.0002 25.0346 44.6525 25.7868 44.0924 26.2691L28.7368 14.0016L44.073 1.71484C44.6525 2.21634 45.0002 2.9493 45.0002 3.77871Z" stroke="white" stroke-miterlimit="10" stroke-linecap="round" stroke-linejoin="round"/>
<path d="M44.0917 26.2868C43.6088 26.7304 42.9521 27.0004 42.2568 27.0004H3.78101C3.06635 27.0004 2.40964 26.7304 1.92676 26.2868L17.2823 14L20.2568 16.3918C21.86 17.6648 24.1392 17.6648 25.723 16.3918L28.7362 14L44.0917 26.2868Z" stroke="white" stroke-miterlimit="10" stroke-linecap="round" stroke-linejoin="round"/>
<path d="M17.2827 13.9979L1.90781 26.2847C1.34768 25.7639 1 25.0502 1 24.2401V3.77505C1 2.96493 1.34768 2.23197 1.90781 1.73047L17.2827 13.9979Z" stroke="white" stroke-miterlimit="10" stroke-linecap="round" stroke-linejoin="round"/>
</svg>
