<svg width="995" height="393" viewBox="0 0 995 393" fill="none" xmlns="http://www.w3.org/2000/svg">
<path d="M967.445 365.451L970.601 369.956" stroke="#FE0000" stroke-miterlimit="10" stroke-linecap="round" stroke-linejoin="round"/>
<path d="M946.469 335.506L961.811 357.407" stroke="#FE0000" stroke-miterlimit="10" stroke-linecap="round" stroke-linejoin="round"/>
<path d="M971.156 362.557L974.45 367.258" stroke="#FE0000" stroke-miterlimit="10" stroke-linecap="round" stroke-linejoin="round"/>
<path d="M963.193 351.189L966.63 356.095" stroke="#FE0000" stroke-miterlimit="10" stroke-linecap="round" stroke-linejoin="round"/>
<path d="M963.835 355.868C961.23 357.692 956.001 362.637 956.546 363.415C957.091 364.193 962.399 361.94 964.135 360.724C963.068 359.201 963.098 357.605 963.835 355.868Z" stroke="#FE0000" stroke-miterlimit="10" stroke-linecap="round" stroke-linejoin="round"/>
<path d="M963.915 368.253C966.52 366.429 978.757 357.527 976.35 354.109C974.853 351.971 968.361 354.87 966.625 356.087C968.358 358.56 968.821 358.907 968.678 360.9C968.466 363.979 966.499 365.528 963.915 368.253Z" stroke="#FE0000" stroke-miterlimit="10" stroke-linecap="round" stroke-linejoin="round"/>
<path d="M964.135 360.725L967.049 364.885" stroke="#FE0000" stroke-miterlimit="10" stroke-linecap="round" stroke-linejoin="round"/>
<path d="M970.6 369.955L972.814 373.117" stroke="#FE0000" stroke-miterlimit="10" stroke-linecap="round" stroke-linejoin="round"/>
<path d="M985.515 387.148L978.449 381.158" stroke="#FE0000" stroke-miterlimit="10" stroke-linecap="round" stroke-linejoin="round"/>
<path d="M982.161 378.265L985.515 387.148" stroke="#FE0000" stroke-miterlimit="10" stroke-linecap="round" stroke-linejoin="round"/>
<path d="M974.449 367.258L977.628 371.795" stroke="#FE0000" stroke-miterlimit="10" stroke-linecap="round" stroke-linejoin="round"/>
<path d="M974.838 371.577C972.234 373.401 967.005 378.346 967.55 379.124C968.095 379.902 973.403 377.649 975.139 376.433C974.066 374.901 974.102 373.314 974.838 371.577Z" stroke="#FE0000" stroke-miterlimit="10" stroke-linecap="round" stroke-linejoin="round"/>
<path d="M974.919 383.962C977.523 382.138 989.761 373.236 987.354 369.818C985.857 367.68 979.365 370.579 977.629 371.796C979.362 374.269 979.825 374.616 979.682 376.609C979.47 379.688 977.503 381.237 974.919 383.962Z" stroke="#FE0000" stroke-miterlimit="10" stroke-linecap="round" stroke-linejoin="round"/>
<path d="M975.139 376.434L978.053 380.594" stroke="#FE0000" stroke-miterlimit="10" stroke-linecap="round" stroke-linejoin="round"/>
<path d="M946.469 335.505L945.912 334.71L945.355 333.916L947.28 332.568L949.205 331.219L956.199 341.203L963.193 351.188" stroke="#FE0000" stroke-miterlimit="10" stroke-linecap="round" stroke-linejoin="round"/>
<path d="M950.318 332.809L953.644 330.479L959.261 338.498L958.324 343.818" stroke="#FE0000" stroke-miterlimit="10" stroke-linecap="round" stroke-linejoin="round"/>
<path d="M946.468 335.507L943.143 337.836L948.76 345.854L954.08 346.791" stroke="#FE0000" stroke-miterlimit="10" stroke-linecap="round" stroke-linejoin="round"/>
<path d="M32.8203 25.4141L28.8398 29.2095" stroke="#FE0000" stroke-miterlimit="10" stroke-linecap="round" stroke-linejoin="round"/>
<path d="M43.0391 15.6699L39.927 18.6373" stroke="#FE0000" stroke-miterlimit="10" stroke-linecap="round" stroke-linejoin="round"/>
<path d="M36.2305 28.6426L32.0763 32.6036" stroke="#FE0000" stroke-miterlimit="10" stroke-linecap="round" stroke-linejoin="round"/>
<path d="M46.2754 19.0645L41.9402 23.198" stroke="#FE0000" stroke-miterlimit="10" stroke-linecap="round" stroke-linejoin="round"/>
<path d="M41.7524 20.4076C39.5579 18.1061 33.8846 13.6777 33.1971 14.3333C32.5095 14.9889 35.5331 19.8988 36.9961 21.4331C38.3495 20.1427 39.9245 19.9397 41.7524 20.4076Z" stroke="#FE0000" stroke-miterlimit="10" stroke-linecap="round" stroke-linejoin="round"/>
<path d="M29.5189 22.3446C31.7133 24.6461 42.3497 35.4098 45.368 32.518C47.2569 30.7169 43.4172 24.7337 41.9542 23.1993C39.7685 25.2834 39.4947 25.7932 37.5034 25.9509C34.4208 26.1959 32.6012 24.4904 29.5189 22.3446Z" stroke="#FE0000" stroke-miterlimit="10" stroke-linecap="round" stroke-linejoin="round"/>
<path d="M36.9961 21.4336L33.3195 24.9392" stroke="#FE0000" stroke-miterlimit="10" stroke-linecap="round" stroke-linejoin="round"/>
<path d="M28.8398 29.2109L21.5591 36.1532" stroke="#FE0000" stroke-miterlimit="10" stroke-linecap="round" stroke-linejoin="round"/>
<path d="M18.8459 45.2185L13.2731 50.5321L5.3541 51.6027L10.0366 47.1378L15.6094 41.8242" stroke="#FE0000" stroke-miterlimit="10" stroke-linecap="round" stroke-linejoin="round"/>
<path d="M32.0762 32.6035L23.5723 40.712" stroke="#FE0000" stroke-miterlimit="10" stroke-linecap="round" stroke-linejoin="round"/>
<path d="M23.0653 38.2244C20.8708 35.923 16.4996 32.6573 15.8121 33.3128C15.1245 33.9684 17.1503 37.4117 18.6202 38.9533C19.9736 37.6628 21.2374 37.7566 23.0653 38.2244Z" stroke="#FE0000" stroke-miterlimit="10" stroke-linecap="round" stroke-linejoin="round"/>
<path d="M12.4756 38.5963C14.67 40.8978 24.3239 51.0369 26.6978 48.7735C28.2176 47.3243 25.0422 42.2551 23.5723 40.7136C21.8643 42.3422 20.5567 42.304 19.4464 42.2988C17.2612 42.2821 15.5578 40.7421 12.4756 38.5963Z" stroke="#FE0000" stroke-miterlimit="10" stroke-linecap="round" stroke-linejoin="round"/>
<path d="M18.627 38.9473L15.609 41.8249" stroke="#FE0000" stroke-miterlimit="10" stroke-linecap="round" stroke-linejoin="round"/>
<path d="M43.0384 15.6705L47.7695 2.33008L59.8253 14.9737L46.2749 19.0648" stroke="#FE0000" stroke-miterlimit="10" stroke-linecap="round" stroke-linejoin="round"/>
<path d="M52.1799 6.95399L53.584 5.61523L56.8205 9.00954L55.4164 10.3483" stroke="#FE0000" stroke-miterlimit="10" stroke-linecap="round" stroke-linejoin="round"/>
<path d="M30.2441 27.8711L33.453 31.2364" stroke="#FE0000" stroke-miterlimit="10" stroke-linecap="round" stroke-linejoin="round"/>
<path d="M400.84 71.92L396.45 68.29L398.44 62.96L392.83 62.01L391.88 56.4L386.55 58.37L383.45 54.63L382.92 54L379.28 58.37L379.24 58.36L373.95 56.4L373 62.01L367.4 62.96L369.37 68.29L365 71.92L369.37 75.55L367.54 80.5L367.4 80.89L373 81.84L373.05 82.12L373.95 87.44L379.28 85.47L382.92 89.84L386.55 85.47L391.88 87.44L392.83 81.84L398.44 80.89L396.45 75.55L400.84 71.92ZM384.79 81.67H381.04V77.93H384.79V81.67ZM384.87 74.3H380.97L379.82 62.16H386.01L384.87 74.3Z" stroke="#FE0000" stroke-miterlimit="10" stroke-linecap="round" stroke-linejoin="round"/>
<path d="M386.02 62.1602L384.87 74.3002H380.97L379.82 62.1602H386.02Z" stroke="#FE0000" stroke-miterlimit="10" stroke-linecap="round" stroke-linejoin="round"/>
<path d="M953.84 252.92L949.45 249.29L951.44 243.96L945.83 243.01L944.88 237.4L939.55 239.37L936.45 235.63L935.92 235L932.28 239.37L932.24 239.36L926.95 237.4L926 243.01L920.4 243.96L922.37 249.29L918 252.92L922.37 256.55L920.54 261.5L920.4 261.89L926 262.84L926.05 263.12L926.95 268.44L932.28 266.47L935.92 270.84L939.55 266.47L944.88 268.44L945.83 262.84L951.44 261.89L949.45 256.55L953.84 252.92ZM937.79 262.67H934.04V258.93H937.79V262.67ZM937.87 255.3H933.97L932.82 243.16H939.01L937.87 255.3Z" stroke="#FE0000" stroke-miterlimit="10" stroke-linecap="round" stroke-linejoin="round"/>
<path d="M939.02 243.16L937.87 255.3H933.97L932.82 243.16H939.02Z" stroke="#FE0000" stroke-miterlimit="10" stroke-linecap="round" stroke-linejoin="round"/>
<path d="M40.7143 324L25.9762 334.2H32.8214L24 347L43 331.026H35.631L40.7143 324Z" stroke="#FE0000" stroke-miterlimit="10" stroke-linecap="round" stroke-linejoin="round"/>
<path d="M683.714 150L668.976 160.2H675.821L667 173L686 157.026H678.631L683.714 150Z" stroke="#FE0000" stroke-miterlimit="10" stroke-linecap="round" stroke-linejoin="round"/>
<path d="M905.381 30.63L899.681 20.75L883.831 48.17L881.701 51.86H917.641L905.381 30.63ZM903.551 48.83L899.681 44.96L895.811 48.83L893.071 46.09L895.121 44.04L896.941 42.22L893.071 38.35L895.811 35.61L899.681 39.48L902.381 36.78L903.551 35.61L906.291 38.35L902.421 42.22L906.291 46.09L903.551 48.83Z" stroke="#FE0000" stroke-miterlimit="10" stroke-linecap="round" stroke-linejoin="round"/>
<path d="M906.58 24.96L899.68 13L889.12 31.29L879.3 48.29L875 55.73H924.34L906.58 24.96ZM883.83 48.17L899.67 20.74L905.37 30.62L917.64 51.86H881.7L883.83 48.17Z" stroke="#FE0000" stroke-miterlimit="10" stroke-linecap="round" stroke-linejoin="round"/>
<path d="M489.381 343.63L483.681 333.75L467.831 361.17L465.701 364.86H501.641L489.381 343.63ZM487.551 361.83L483.681 357.96L479.811 361.83L477.071 359.09L479.121 357.04L480.941 355.22L477.071 351.35L479.811 348.61L483.681 352.48L486.381 349.78L487.551 348.61L490.291 351.35L486.421 355.22L490.291 359.09L487.551 361.83Z" stroke="#FE0000" stroke-miterlimit="10" stroke-linecap="round" stroke-linejoin="round"/>
<path d="M490.58 337.96L483.68 326L473.12 344.29L463.3 361.29L459 368.73H508.34L490.58 337.96ZM467.83 361.17L483.67 333.74L489.37 343.62L501.64 364.86H465.7L467.83 361.17Z" stroke="#FE0000" stroke-miterlimit="10" stroke-linecap="round" stroke-linejoin="round"/>
</svg>
