<svg width="33" height="21" viewBox="0 0 33 21" fill="none" xmlns="http://www.w3.org/2000/svg">
<path d="M16.5 20C25.0604 20 32 15.7467 32 10.5C32 5.2533 25.0604 1 16.5 1C7.93959 1 1 5.2533 1 10.5C1 15.7467 7.93959 20 16.5 20Z" stroke="#333333" stroke-miterlimit="10" stroke-linecap="round" stroke-linejoin="round"/>
<path d="M6.14238 7.15137C5.04902 8.1082 4.08428 9.27007 3.3125 10.5003C4.1486 11.7988 5.11333 12.8924 6.14238 13.8492" stroke="#333333" stroke-miterlimit="10" stroke-linecap="round" stroke-linejoin="round"/>
<path d="M26.8516 7.15137C27.9449 8.1082 28.9097 9.27007 29.6814 10.5003C28.8453 11.7988 27.8806 12.8924 26.8516 13.8492" stroke="#333333" stroke-miterlimit="10" stroke-linecap="round" stroke-linejoin="round"/>
<path d="M16.4976 2.50391C14.2465 2.50391 12.1884 3.59743 10.7735 5.30607L13.8606 8.10822C14.5038 7.28808 15.4042 6.80966 16.4976 6.80966C18.427 6.80966 19.9706 8.44995 19.9706 10.5003C19.9706 12.5507 18.427 14.191 16.4976 14.191C14.5681 14.191 13.0245 12.5507 13.0245 10.5003H8.97266C8.97266 14.9428 12.3171 18.4967 16.4976 18.4967C20.6781 18.4967 24.0225 14.9428 24.0225 10.5003C24.0225 6.05786 20.6781 2.50391 16.4976 2.50391Z" stroke="#333333" stroke-miterlimit="10" stroke-linecap="round" stroke-linejoin="round"/>
<path d="M13.0234 10.4992C13.0234 12.5496 14.567 14.1899 16.4965 14.1899C18.4259 14.1899 19.9695 12.5496 19.9695 10.4992C19.9695 8.44888 18.4259 6.80859 16.4965 6.80859C15.4674 6.80859 14.5027 7.28701 13.8595 8.10716L16.4965 10.4992H13.0234Z" stroke="#333333" stroke-miterlimit="10" stroke-linecap="round" stroke-linejoin="round"/>
</svg>
