<svg width="35" height="35" viewBox="0 0 35 35" fill="none" xmlns="http://www.w3.org/2000/svg">
<path d="M34 17.4998C34 25.7154 27.9981 32.5284 20.1331 33.7866V22.3604H23.9694L24.7944 17.5205H20.1331C20.1331 16.0836 19.9612 13.2924 20.6144 12.5499C21.2675 11.8074 22.23 11.553 24.9731 11.8555V7.71681C21.5012 7.24244 18.3869 7.09806 16.3863 9.33242C14.86 11.0305 14.86 13.9867 14.86 17.5273L10.6319 17.5686V22.3673H14.86V33.7934C7.00187 32.5284 1 25.7154 1 17.4998C1 8.38368 8.39062 1 17.5 1C26.6163 1 34 8.38368 34 17.4998Z" stroke="white" stroke-miterlimit="10" stroke-linejoin="round"/>
<path d="M20.6153 12.55C19.9622 13.2925 20.1341 16.0838 20.1341 17.5206H24.7953L23.9703 22.3606H20.1341V33.7867C19.2816 33.9311 18.4016 33.9998 17.5009 33.9998C16.6003 33.9998 15.7203 33.9311 14.8609 33.7867V22.3606H10.6328V17.5687L14.8609 17.5275C14.8609 13.9869 14.8609 11.0307 16.3872 9.33258C18.3878 7.1051 21.5022 7.24947 24.9741 7.71697V11.8557C22.2309 11.5532 21.2684 11.8076 20.6153 12.55Z" fill="white" stroke="white" stroke-miterlimit="10"/>
</svg>
