<svg width="33" height="33" viewBox="0 0 33 33" fill="none" xmlns="http://www.w3.org/2000/svg">
<path d="M33 16.5003C33 24.7161 26.9981 31.5294 19.1331 32.7875V21.361H22.9694L23.7944 16.5209H19.1331C19.1331 15.084 18.9612 12.2927 19.6144 11.5502C20.2675 10.8077 21.23 10.5533 23.9731 10.8558V6.717C20.5012 6.24262 17.3869 6.09824 15.3863 8.33266C13.86 10.0308 13.86 12.9871 13.86 16.5278L9.63187 16.5691V21.3679H13.86V32.7944C6.00187 31.5294 0 24.7161 0 16.5003C0 7.38389 7.39062 0 16.5 0C25.6163 0 33 7.38389 33 16.5003Z" fill="#0D8BF0"/>
<path d="M19.6153 11.5492C18.9622 12.2917 19.1341 15.083 19.1341 16.5199H23.7953L22.9703 21.36H19.1341V32.7865C18.2816 32.9309 17.4016 32.9996 16.5009 32.9996C15.6003 32.9996 14.7203 32.9309 13.8609 32.7865V21.36H9.63281V16.5681L13.8609 16.5268C13.8609 12.9861 13.8609 10.0298 15.3872 8.33166C17.3878 6.10411 20.5022 6.24849 23.9741 6.716V10.8548C21.2309 10.5523 20.2684 10.8067 19.6153 11.5492Z" fill="white"/>
</svg>
