<svg width="22" height="21" viewBox="0 0 22 21" fill="none" xmlns="http://www.w3.org/2000/svg">
<path d="M21.0017 9.91457L11.8327 18.9027C10.3402 20.3657 7.92196 20.3657 6.43577 18.9027C4.94328 17.4396 4.94328 15.0692 6.43577 13.6123L15.3907 4.83406C16.3857 3.8587 17.9978 3.8587 18.9928 4.83406C19.9878 5.80942 19.9878 7.38975 18.9928 8.36511L10.8314 16.3532C10.3339 16.8408 9.5278 16.8408 9.03031 16.3532C8.53281 15.8655 8.53281 15.0753 9.03031 14.5876L13.1992 10.501" stroke="#333333" stroke-opacity="0.54" stroke-miterlimit="10" stroke-linecap="round" stroke-linejoin="round"/>
<path d="M14.4828 4.09893V1H6.09461L1 5.99408V14.2167H4.53285" stroke="#333333" stroke-opacity="0.54" stroke-miterlimit="10" stroke-linecap="round" stroke-linejoin="round"/>
<path d="M6.09461 5.99408V1L1 5.99408H6.09461Z" stroke="#333333" stroke-opacity="0.54" stroke-miterlimit="10" stroke-linecap="round" stroke-linejoin="round"/>
</svg>
