<svg width="77" height="52" viewBox="0 0 77 52" fill="none" xmlns="http://www.w3.org/2000/svg">
<path d="M26.5647 37.8314C28.325 35.407 29.2333 32.5202 29.2669 29.6109C26.3516 29.7687 24.0867 29.0132 23.8176 27.6375C23.5261 26.273 25.3201 24.6943 28.0559 23.6681C27.4841 22.3713 26.688 21.1196 25.6901 20.0033C24.7034 18.8756 23.5597 17.9397 22.3375 17.2067C21.6087 18.6726 20.7229 19.8229 19.8595 20.4543C19.1756 20.9618 18.5028 21.176 17.931 20.9731C16.6079 20.5333 16.137 18.199 16.6303 15.3123C13.7599 15.0078 10.7998 15.5716 8.19847 17.0488C9.79065 19.5071 10.284 21.8413 9.24124 22.7773C8.19847 23.7132 5.94474 22.9464 3.70223 21.0633C1.94186 23.4877 1.03364 26.3745 1 29.2838C3.90406 29.126 6.15778 29.8815 6.44931 31.2572C6.71841 32.6217 4.94682 34.2004 2.19974 35.2266C2.79401 36.5233 3.56768 37.775 4.5656 38.8914C5.56352 40.0191 6.7072 40.955 7.91816 41.688C9.24124 39.0718 11.0128 37.4706 12.3359 37.9216C13.659 38.3614 14.1299 40.6957 13.6254 43.605C14.6233 43.7065 15.6436 43.7065 16.6415 43.5937C18.5252 43.3907 20.3417 42.8156 22.046 41.8571C20.465 39.3989 19.9829 37.0646 21.0144 36.1287C22.046 35.1927 24.3109 35.9595 26.5647 37.8314ZM18.6374 33.4223C18.4243 33.6027 18.2113 33.7719 17.987 33.9072C15.8454 35.3168 12.9414 34.9785 11.181 32.9938C9.25245 30.7949 9.43185 27.4345 11.6183 25.4949C13.7935 23.5441 17.1349 23.7358 19.0634 25.9347C19.0747 25.946 19.0747 25.946 19.0971 25.9685C21.0032 28.1562 20.7902 31.5053 18.6374 33.4223Z" stroke="white" stroke-miterlimit="10" stroke-linecap="round" stroke-linejoin="round"/>
<path d="M18.6372 33.4211C18.4241 33.6015 18.2111 33.7707 17.9868 33.906C15.8452 35.3155 12.9412 34.9772 11.1808 32.9926C9.25224 30.7937 9.43164 27.4333 11.6181 25.4937C13.7933 23.5429 17.1347 23.7346 19.0632 25.9335C19.0744 25.9448 19.0745 25.9448 19.0969 25.9673C21.003 28.155 20.79 31.5041 18.6372 33.4211Z" stroke="white" stroke-miterlimit="10" stroke-linecap="round" stroke-linejoin="round"/>
<path d="M26.1867 50.9985H15.6133L16.6448 43.5898" stroke="white" stroke-miterlimit="10" stroke-linecap="round" stroke-linejoin="round"/>
<path d="M19.8477 20.4773L22.0229 4.85938H26.1828" stroke="white" stroke-miterlimit="10" stroke-linecap="round" stroke-linejoin="round"/>
<path d="M26.1865 1H19.829L19.1562 4.84529H22.0155" stroke="white" stroke-miterlimit="10" stroke-linecap="round" stroke-linejoin="round"/>
<path d="M26.1836 4.85938H30.3435L33.3933 26.8937" stroke="white" stroke-miterlimit="10" stroke-linecap="round" stroke-linejoin="round"/>
<path d="M26.1836 1H32.5299L33.2139 4.84529H30.3435" stroke="white" stroke-miterlimit="10" stroke-linecap="round" stroke-linejoin="round"/>
<path d="M75.9983 12.6602V51.0003H61.7695V26.9813L75.9983 12.6602Z" stroke="white" stroke-miterlimit="10" stroke-linecap="round" stroke-linejoin="round"/>
<path d="M61.7712 12.6602V51.0003H47.5312V26.9813L61.7712 12.6602Z" stroke="white" stroke-miterlimit="10" stroke-linecap="round" stroke-linejoin="round"/>
<path d="M47.5336 12.6602V51.0003H36.7471L33.3945 26.8911L47.5336 12.6602Z" stroke="white" stroke-miterlimit="10" stroke-linecap="round" stroke-linejoin="round"/>
<path d="M26.1836 51H36.7458" stroke="white" stroke-miterlimit="10" stroke-linecap="round" stroke-linejoin="round"/>
<path d="M43.0469 35.6172V50.9983" stroke="white" stroke-miterlimit="10" stroke-linecap="round" stroke-linejoin="round"/>
<path d="M43.0469 25.3242V31.8308" stroke="white" stroke-miterlimit="10" stroke-linecap="round" stroke-linejoin="round"/>
<path d="M57.2852 35.6172V50.9983" stroke="white" stroke-miterlimit="10" stroke-linecap="round" stroke-linejoin="round"/>
<path d="M57.2852 25.3242V31.8308" stroke="white" stroke-miterlimit="10" stroke-linecap="round" stroke-linejoin="round"/>
<path d="M71.5234 35.6172V50.9983" stroke="white" stroke-miterlimit="10" stroke-linecap="round" stroke-linejoin="round"/>
<path d="M71.5234 25.3242V31.8308" stroke="white" stroke-miterlimit="10" stroke-linecap="round" stroke-linejoin="round"/>
</svg>
