<svg width="88" height="59" viewBox="0 0 88 59" fill="none" xmlns="http://www.w3.org/2000/svg">
<path d="M30.2763 42.9871C32.2923 40.2232 33.3323 36.9324 33.3709 33.6158C30.0323 33.7957 27.4386 32.9345 27.1304 31.3661C26.7965 29.8107 28.851 28.011 31.9841 26.8412C31.3292 25.3628 30.4176 23.9359 29.2748 22.6633C28.1448 21.3778 26.8351 20.3108 25.4354 19.4753C24.6008 21.1464 23.5864 22.4576 22.5977 23.1775C21.8144 23.756 21.044 24.0002 20.3891 23.7688C18.874 23.2675 18.3347 20.6065 18.8996 17.3156C15.6125 16.9685 12.2226 17.6113 9.24359 19.2953C11.0669 22.0977 11.6319 24.7587 10.4378 25.8256C9.24359 26.8926 6.66265 26.0185 4.09456 23.8717C2.0786 26.6355 1.03852 29.9264 1 33.243C4.32569 33.063 6.90663 33.9243 7.24048 35.4926C7.54865 37.0481 5.51985 38.8478 2.37393 40.0176C3.05448 41.4959 3.94047 42.9228 5.08328 44.1954C6.22608 45.4809 7.53581 46.5479 8.92258 47.3835C10.4378 44.4011 12.4666 42.5757 13.9817 43.0899C15.4969 43.5913 16.0362 46.2522 15.4584 49.5688C16.6012 49.6845 17.7697 49.6845 18.9125 49.556C21.0697 49.3246 23.1498 48.669 25.1016 47.5763C23.2911 44.7739 22.7389 42.1129 23.9203 41.046C25.1016 39.979 27.6954 40.8531 30.2763 42.9871ZM21.1981 37.9608C20.9541 38.1664 20.7101 38.3593 20.4533 38.5135C18.0008 40.1204 14.6751 39.7348 12.6592 37.4723C10.4506 34.9655 10.656 31.1347 13.1599 28.9237C15.651 26.6998 19.4775 26.9183 21.686 29.425C21.6989 29.4379 21.6989 29.4379 21.7245 29.4636C23.9074 31.9575 23.6635 35.7754 21.1981 37.9608Z" stroke="white" stroke-miterlimit="10" stroke-linecap="round" stroke-linejoin="round"/>
<path d="M21.1984 37.9593C20.9545 38.165 20.7105 38.3578 20.4537 38.5121C18.0012 40.119 14.6755 39.7333 12.6595 37.4708C10.4509 34.9641 10.6564 31.1333 13.1603 28.9223C15.6513 26.6983 19.4778 26.9169 21.6864 29.4236C21.6992 29.4365 21.6992 29.4365 21.7249 29.4622C23.9078 31.956 23.6638 35.774 21.1984 37.9593Z" stroke="white" stroke-miterlimit="10" stroke-linecap="round" stroke-linejoin="round"/>
<path d="M29.839 57.9965H17.7305L18.9118 49.5508" stroke="white" stroke-miterlimit="10" stroke-linecap="round" stroke-linejoin="round"/>
<path d="M22.5859 23.2046L25.077 5.40039H29.8408" stroke="white" stroke-miterlimit="10" stroke-linecap="round" stroke-linejoin="round"/>
<path d="M29.84 1H22.5595L21.7891 5.38356H25.0634" stroke="white" stroke-miterlimit="10" stroke-linecap="round" stroke-linejoin="round"/>
<path d="M29.8398 5.40039H34.6037L38.0963 30.5191" stroke="white" stroke-miterlimit="10" stroke-linecap="round" stroke-linejoin="round"/>
<path d="M29.8398 1H37.1076L37.8908 5.38356H34.6037" stroke="white" stroke-miterlimit="10" stroke-linecap="round" stroke-linejoin="round"/>
<path d="M86.8883 14.293V58H70.5938V30.6188L86.8883 14.293Z" stroke="white" stroke-miterlimit="10" stroke-linecap="round" stroke-linejoin="round"/>
<path d="M70.5965 14.293V58H54.2891V30.6188L70.5965 14.293Z" stroke="white" stroke-miterlimit="10" stroke-linecap="round" stroke-linejoin="round"/>
<path d="M54.2895 14.293V58H41.937L38.0977 30.516L54.2895 14.293Z" stroke="white" stroke-miterlimit="10" stroke-linecap="round" stroke-linejoin="round"/>
<path d="M29.8438 57.998H41.9395" stroke="white" stroke-miterlimit="10" stroke-linecap="round" stroke-linejoin="round"/>
<path d="M49.1523 40.4629V57.9971" stroke="white" stroke-miterlimit="10" stroke-linecap="round" stroke-linejoin="round"/>
<path d="M49.1523 28.7266V36.1439" stroke="white" stroke-miterlimit="10" stroke-linecap="round" stroke-linejoin="round"/>
<path d="M65.457 40.4629V57.9971" stroke="white" stroke-miterlimit="10" stroke-linecap="round" stroke-linejoin="round"/>
<path d="M65.457 28.7266V36.1439" stroke="white" stroke-miterlimit="10" stroke-linecap="round" stroke-linejoin="round"/>
<path d="M81.7656 40.4629V57.9971" stroke="white" stroke-miterlimit="10" stroke-linecap="round" stroke-linejoin="round"/>
<path d="M81.7656 28.7266V36.1439" stroke="white" stroke-miterlimit="10" stroke-linecap="round" stroke-linejoin="round"/>
</svg>
