<svg width="72" height="52" viewBox="0 0 72 52" fill="none" xmlns="http://www.w3.org/2000/svg">
<path d="M1 44.2265C1 44.2265 14.4689 44.2265 20.5291 44.2265C26.5893 44.2265 32.6496 41.0117 38.9598 41.0117C45.27 41.0117 46.8684 43.5485 55.6254 42.6191C64.3824 41.6897 70.0184 38.5586 70.0184 38.5586V50.9991H1V44.2265Z" stroke="white" stroke-miterlimit="10" stroke-linecap="round" stroke-linejoin="round"/>
<path d="M1 48.5388C8.65862 44.8135 15.2264 48.5388 19.6882 48.5388C27.5135 48.5388 27.5968 45.8268 37.1947 45.1564C46.2623 44.5164 56.7238 50.8243 70.0184 44.3945" stroke="white" stroke-miterlimit="10" stroke-linecap="round" stroke-linejoin="round"/>
<path d="M2.17188 50.9909L6.0277 47.1133" stroke="white" stroke-miterlimit="10" stroke-linecap="round" stroke-linejoin="round"/>
<path d="M7.47656 50.9909L11.3324 47.1133" stroke="white" stroke-miterlimit="10" stroke-linecap="round" stroke-linejoin="round"/>
<path d="M12.7812 50.9924L15.6674 48.0898" stroke="white" stroke-miterlimit="10" stroke-linecap="round" stroke-linejoin="round"/>
<path d="M18.0859 50.99L20.4646 48.6055" stroke="white" stroke-miterlimit="10" stroke-linecap="round" stroke-linejoin="round"/>
<path d="M23.3867 50.9931L26.932 47.4277" stroke="white" stroke-miterlimit="10" stroke-linecap="round" stroke-linejoin="round"/>
<path d="M28.6836 50.99L34.1833 45.4668" stroke="white" stroke-miterlimit="10" stroke-linecap="round" stroke-linejoin="round"/>
<path d="M33.9883 50.9906L39.7682 45.1855" stroke="white" stroke-miterlimit="10" stroke-linecap="round" stroke-linejoin="round"/>
<path d="M39.293 50.9903L44.5426 45.7109" stroke="white" stroke-miterlimit="10" stroke-linecap="round" stroke-linejoin="round"/>
<path d="M44.5898 50.991L49.0593 46.5039" stroke="white" stroke-miterlimit="10" stroke-linecap="round" stroke-linejoin="round"/>
<path d="M49.8984 50.9894L53.6634 47.2031" stroke="white" stroke-miterlimit="10" stroke-linecap="round" stroke-linejoin="round"/>
<path d="M55.2031 50.9929L58.915 47.2676" stroke="white" stroke-miterlimit="10" stroke-linecap="round" stroke-linejoin="round"/>
<path d="M60.5039 50.9916L65.2536 46.2227" stroke="white" stroke-miterlimit="10" stroke-linecap="round" stroke-linejoin="round"/>
<path d="M21.0352 44.2187L26.6712 38.5508" stroke="white" stroke-miterlimit="10" stroke-linecap="round" stroke-linejoin="round"/>
<path d="M27.3438 43.2045L31.7904 38.7402" stroke="white" stroke-miterlimit="10" stroke-linecap="round" stroke-linejoin="round"/>
<path d="M34.4648 41.3847L37.2828 38.5508" stroke="white" stroke-miterlimit="10" stroke-linecap="round" stroke-linejoin="round"/>
<path d="M40.1641 40.9734L42.5806 38.5508" stroke="white" stroke-miterlimit="10" stroke-linecap="round" stroke-linejoin="round"/>
<path d="M44.8516 41.5982L47.7908 38.6348" stroke="white" stroke-miterlimit="10" stroke-linecap="round" stroke-linejoin="round"/>
<path d="M49.1094 42.6494L53.1849 38.5508" stroke="white" stroke-miterlimit="10" stroke-linecap="round" stroke-linejoin="round"/>
<path d="M54.3281 42.7332L58.487 38.5508" stroke="white" stroke-miterlimit="10" stroke-linecap="round" stroke-linejoin="round"/>
<path d="M60.6914 41.659L63.7897 38.5508" stroke="white" stroke-miterlimit="10" stroke-linecap="round" stroke-linejoin="round"/>
<path d="M65.8086 50.9898L70.0205 46.7617" stroke="white" stroke-miterlimit="10" stroke-linecap="round" stroke-linejoin="round"/>
<path d="M70.016 38.5508H21.0266L18.8828 40.5391" stroke="white" stroke-miterlimit="10" stroke-linecap="round" stroke-linejoin="round"/>
<path d="M19.272 42.1463L18.166 38.8477L12.8633 40.5008" stroke="white" stroke-miterlimit="10" stroke-linecap="round" stroke-linejoin="round"/>
<path d="M14.4228 42.1445C14.1728 41.9769 11.2639 39.5391 11.2639 39.5391L7.52174 40.5904L7.18842 41.9312L4.36284 41.7636L2.97656 44.2166" stroke="white" stroke-miterlimit="10" stroke-linecap="round" stroke-linejoin="round"/>
<path d="M24.5415 38.3543C26.1522 38.3543 27.458 37.0411 27.458 35.4213C27.458 33.8014 26.1522 32.4883 24.5415 32.4883C22.9308 32.4883 21.625 33.8014 21.625 35.4213C21.625 37.0411 22.9308 38.3543 24.5415 38.3543Z" stroke="white" stroke-miterlimit="10" stroke-linecap="round" stroke-linejoin="round"/>
<path d="M51.2251 38.3543C52.8358 38.3543 54.1416 37.0411 54.1416 35.4213C54.1416 33.8014 52.8358 32.4883 51.2251 32.4883C49.6143 32.4883 48.3086 33.8014 48.3086 35.4213C48.3086 37.0411 49.6143 38.3543 51.2251 38.3543Z" stroke="white" stroke-miterlimit="10" stroke-linecap="round" stroke-linejoin="round"/>
<path d="M57.061 38.3543C58.6718 38.3543 59.9775 37.0411 59.9775 35.4213C59.9775 33.8014 58.6718 32.4883 57.061 32.4883C55.4503 32.4883 54.1445 33.8014 54.1445 35.4213C54.1445 37.0411 55.4503 38.3543 57.061 38.3543Z" stroke="white" stroke-miterlimit="10" stroke-linecap="round" stroke-linejoin="round"/>
<path d="M18.5898 33.9034L20.87 28.5097C21.3245 27.4279 22.3775 26.7347 23.5441 26.7347H25.5212C26.4303 26.7347 27.2636 26.2166 27.665 25.3938L29.324 22.019C29.8619 20.9296 30.9679 20.2363 32.1723 20.2363H36.8766V35.4194H29.1422L27.4605 30.9018H19.8398" stroke="white" stroke-miterlimit="10" stroke-linecap="round" stroke-linejoin="round"/>
<path d="M35.3685 25.7669V21.7598H32.1793C31.5429 21.7598 30.9672 22.1178 30.6869 22.6892L29.1719 25.7669H35.3685Z" stroke="white" stroke-miterlimit="10" stroke-linecap="round" stroke-linejoin="round"/>
<path d="M20.3292 34.1758H17.2461V35.7527H20.3292V34.1758Z" stroke="white" stroke-miterlimit="10" stroke-linecap="round" stroke-linejoin="round"/>
<path d="M36.8828 35.4207H47.1549V32.2363H36.8828" stroke="white" stroke-miterlimit="10" stroke-linecap="round" stroke-linejoin="round"/>
<path d="M42.4961 26.7284H47.6321H52.7682V24.9686V23.2012H47.6321H42.4961V24.9686V26.7284Z" stroke="white" stroke-miterlimit="10" stroke-linecap="round" stroke-linejoin="round"/>
<path d="M38.7388 25.7441H36.8828V32.2348H38.7388V25.7441Z" stroke="white" stroke-miterlimit="10" stroke-linecap="round" stroke-linejoin="round"/>
<path d="M40.5942 25.7441H38.7383V32.2348H40.5942V25.7441Z" stroke="white" stroke-miterlimit="10" stroke-linecap="round" stroke-linejoin="round"/>
<path d="M61.297 28.5098H40.5938V32.2351H61.297V28.5098Z" stroke="white" stroke-miterlimit="10" stroke-linecap="round" stroke-linejoin="round"/>
<path d="M44.6836 26.7246V28.5073" stroke="white" stroke-miterlimit="10" stroke-linecap="round" stroke-linejoin="round"/>
<path d="M50.5781 26.7246V28.5073" stroke="white" stroke-miterlimit="10" stroke-linecap="round" stroke-linejoin="round"/>
<path d="M52.7695 24.9668H58.5495V28.5093" stroke="white" stroke-miterlimit="10" stroke-linecap="round" stroke-linejoin="round"/>
<path d="M43.207 26.736C43.7449 25.2352 44.8054 23.9782 46.1614 23.2012" stroke="white" stroke-miterlimit="10" stroke-linecap="round" stroke-linejoin="round"/>
<path d="M49.668 26.736C50.2058 25.2352 51.2664 23.9782 52.6223 23.2012" stroke="white" stroke-miterlimit="10" stroke-linecap="round" stroke-linejoin="round"/>
<path d="M46.4414 26.736C46.9793 25.2352 48.0398 23.9782 49.3958 23.2012" stroke="white" stroke-miterlimit="10" stroke-linecap="round" stroke-linejoin="round"/>
<path d="M63.0391 38.5462V9.06379L66.1222 3.75391H67.5236" stroke="white" stroke-miterlimit="10" stroke-linecap="round" stroke-linejoin="round"/>
<path d="M67.5273 1V38.5501" stroke="white" stroke-miterlimit="10" stroke-linecap="round" stroke-linejoin="round"/>
<path d="M70.0234 1V34.5201" stroke="white" stroke-miterlimit="10" stroke-linecap="round" stroke-linejoin="round"/>
<path d="M69.0352 28.5103L70.9972 27.1543" stroke="white" stroke-miterlimit="10" stroke-linecap="round" stroke-linejoin="round"/>
<path d="M69.0352 30.6783L70.9972 29.3223" stroke="white" stroke-miterlimit="10" stroke-linecap="round" stroke-linejoin="round"/>
<path d="M69.0352 32.8482L70.9972 31.4922" stroke="white" stroke-miterlimit="10" stroke-linecap="round" stroke-linejoin="round"/>
<path d="M70.0233 9.18164H67.5234" stroke="white" stroke-miterlimit="10" stroke-linecap="round" stroke-linejoin="round"/>
<path d="M70.0272 19.7695H67.5273" stroke="white" stroke-miterlimit="10" stroke-linecap="round" stroke-linejoin="round"/>
<path d="M67.5236 38.549L63.0391 34.0391" stroke="white" stroke-miterlimit="10" stroke-linecap="round" stroke-linejoin="round"/>
<path d="M67.5236 29.5215L63.0391 34.0391" stroke="white" stroke-miterlimit="10" stroke-linecap="round" stroke-linejoin="round"/>
<path d="M67.5236 29.7363L63.0391 25.2188" stroke="white" stroke-miterlimit="10" stroke-linecap="round" stroke-linejoin="round"/>
<path d="M67.5236 20.709L63.0391 25.219" stroke="white" stroke-miterlimit="10" stroke-linecap="round" stroke-linejoin="round"/>
<path d="M67.5236 20.9219L63.0391 16.4043" stroke="white" stroke-miterlimit="10" stroke-linecap="round" stroke-linejoin="round"/>
<path d="M67.5236 11.8867L63.0391 16.4043" stroke="white" stroke-miterlimit="10" stroke-linecap="round" stroke-linejoin="round"/>
<path d="M67.5209 12.0999L63.5742 8.13086" stroke="white" stroke-miterlimit="10" stroke-linecap="round" stroke-linejoin="round"/>
<path d="M61.2969 28.5098H63.0392" stroke="white" stroke-miterlimit="10" stroke-linecap="round" stroke-linejoin="round"/>
<path d="M61.2969 30.0059H63.0392" stroke="white" stroke-miterlimit="10" stroke-linecap="round" stroke-linejoin="round"/>
</svg>
