<svg width="68" height="59" viewBox="0 0 68 59" fill="none" xmlns="http://www.w3.org/2000/svg">
<path d="M10.0312 30.2443C11.3694 24.5346 14.7148 21.0039 14.7148 21.0039C14.7148 21.0039 16.82 23.2321 18.3539 27.0085" stroke="white" stroke-miterlimit="10" stroke-linecap="round" stroke-linejoin="round"/>
<path d="M19.3272 29.9746C19.7026 31.4737 19.9392 33.1203 19.9392 34.9143C19.9392 38.5842 17.6056 41.5661 14.7171 41.5661C13.7135 41.5661 12.7915 41.2138 12 40.5831" stroke="white" stroke-miterlimit="10" stroke-linecap="round" stroke-linejoin="round"/>
<path d="M12.0013 40.5751C11.3893 42.5329 9.89611 43.9173 8.14998 43.9173C5.85716 43.9173 3.98047 41.5499 3.98047 38.6254C3.98047 31.9572 8.14998 27.5664 8.14998 27.5664C8.14998 27.5664 9.05568 28.5412 10.0348 30.2533C9.70028 31.6787 9.48814 33.2352 9.48814 34.9145C9.48814 37.3065 10.4999 39.4118 12.0013 40.5751Z" stroke="white" stroke-miterlimit="10" stroke-linecap="round" stroke-linejoin="round"/>
<path d="M40.875 31.6349V28.6367" stroke="white" stroke-miterlimit="10" stroke-linecap="round" stroke-linejoin="round"/>
<path d="M58.6553 28.6367V35.7718C58.6553 36.8286 58.2228 37.8362 57.464 38.5734L53.7759 42.1123C53.2945 42.5792 52.6499 42.8332 51.9808 42.8332H50.8711" stroke="white" stroke-miterlimit="10" stroke-linecap="round" stroke-linejoin="round"/>
<path d="M56.5502 9.41211V14.7286C55.7098 14.147 54.7796 13.6964 53.7842 13.3852V12.2874C52.854 12.0335 51.8748 11.886 50.8712 11.886C49.8594 11.886 48.8803 12.0335 47.9583 12.2874V13.3852C44.2702 14.5074 41.4959 17.7105 40.9819 21.6262H28.6039V31.6366H40.8758V32.3575C40.8758 33.0866 41.2511 33.7747 41.8957 34.1433L43.0707 34.8396V35.7817C43.0707 36.8384 43.5032 37.846 44.262 38.5751L47.2239 41.4095V45.6119C45.437 45.9068 43.8867 46.1444 42.5485 46.341C42.1161 46.4065 41.6918 46.4638 41.3083 46.5294V35.7161H28.6039V49.077H25.2422V9.41211H56.5502Z" stroke="white" stroke-miterlimit="10" stroke-linecap="round" stroke-linejoin="round"/>
<path d="M43.0781 34.8379V28.6367" stroke="white" stroke-miterlimit="10" stroke-linecap="round" stroke-linejoin="round"/>
<path d="M47.2227 41.4023L47.957 42.1068C48.4384 42.5738 49.083 42.8359 49.7603 42.8359H50.8618" stroke="white" stroke-miterlimit="10" stroke-linecap="round" stroke-linejoin="round"/>
<path d="M60.8671 28.6367V32.3476C60.8671 33.0849 60.4755 33.7648 59.8472 34.1334L58.6641 34.8298" stroke="white" stroke-miterlimit="10" stroke-linecap="round" stroke-linejoin="round"/>
<path d="M47.2227 45.6133C47.2227 46.3424 47.5898 47.0223 48.21 47.4073L50.8618 49.0784" stroke="white" stroke-miterlimit="10" stroke-linecap="round" stroke-linejoin="round"/>
<path d="M62.8558 46.9905L58.9637 58.0004H42.7671L39.6094 49.0794L38.875 46.9905C39.5686 46.8349 40.3764 46.6874 41.3065 46.54C41.6982 46.4744 42.1143 46.4171 42.5468 46.3516L45.6637 54.6089H56.0671L59.1922 46.3516C60.6527 46.5646 61.8685 46.7693 62.8558 46.9905Z" stroke="white" stroke-miterlimit="10" stroke-linecap="round" stroke-linejoin="round"/>
<path d="M62.8569 46.9902C67.4997 48.0224 67.4997 49.6935 67.4997 58.0001H58.9648" stroke="white" stroke-miterlimit="10" stroke-linecap="round" stroke-linejoin="round"/>
<path d="M59.1914 46.3424C57.8532 46.1376 56.3029 45.9082 54.5078 45.6133" stroke="white" stroke-miterlimit="10" stroke-linecap="round" stroke-linejoin="round"/>
<path d="M54.5184 41.4023V45.6048C54.5184 46.3338 54.1431 47.0138 53.5311 47.3988L50.8711 49.0699" stroke="white" stroke-miterlimit="10" stroke-linecap="round" stroke-linejoin="round"/>
<path d="M47.9493 13.3848V22.9692H40.875C40.875 22.5187 40.9076 22.0599 40.9729 21.6258C41.487 17.7101 44.2694 14.507 47.9493 13.3848Z" stroke="white" stroke-miterlimit="10" stroke-linecap="round" stroke-linejoin="round"/>
<path d="M60.858 24.7773V28.4883H49.5734C47.9823 28.4883 46.6604 27.2103 46.6604 25.6129C46.6604 26.8171 45.8934 27.8575 44.8409 28.2835C44.5063 28.4063 44.1392 28.4883 43.7557 28.4883H40.8672V24.7773H60.858Z" stroke="white" stroke-miterlimit="10" stroke-linecap="round" stroke-linejoin="round"/>
<path d="M60.8594 22.9692H53.7852V13.3848C54.7888 13.6879 55.7108 14.1466 56.5512 14.7282C59.1541 16.5386 60.8594 19.545 60.8594 22.9692Z" stroke="white" stroke-miterlimit="10" stroke-linecap="round" stroke-linejoin="round"/>
<path d="M62.663 24.7792H39.082L40.8771 22.9688H60.8598L62.663 24.7792Z" stroke="white" stroke-miterlimit="10" stroke-linecap="round" stroke-linejoin="round"/>
<path d="M53.7833 12.2881V22.9703H47.9492V12.2881C48.8794 12.0342 49.8585 11.8867 50.8622 11.8867C51.8739 11.8867 52.8531 12.0342 53.7833 12.2881Z" stroke="white" stroke-miterlimit="10" stroke-linecap="round" stroke-linejoin="round"/>
<path d="M18.0781 26.3201V17.0141V9.41211H25.2422" stroke="white" stroke-miterlimit="10" stroke-linecap="round" stroke-linejoin="round"/>
<path d="M35.1373 49.0801H28.6016" stroke="white" stroke-miterlimit="10" stroke-linecap="round" stroke-linejoin="round"/>
<path d="M25.2419 49.0801H22.6717H18.0779H14.7161H1" stroke="white" stroke-miterlimit="10" stroke-linecap="round" stroke-linejoin="round"/>
<path d="M8.14062 41.2051V49.0774" stroke="white" stroke-miterlimit="10" stroke-linecap="round" stroke-linejoin="round"/>
<path d="M14.7148 34.4297V49.0767" stroke="white" stroke-miterlimit="10" stroke-linecap="round" stroke-linejoin="round"/>
<path d="M18.0703 40.1074V49.0775" stroke="white" stroke-miterlimit="10" stroke-linecap="round" stroke-linejoin="round"/>
<path d="M13.3945 29.9643H22.6719V24.4512L13.3945 29.9643Z" stroke="white" stroke-miterlimit="10" stroke-linecap="round" stroke-linejoin="round"/>
<path d="M22.6719 29.9668V49.0784" stroke="white" stroke-miterlimit="10" stroke-linecap="round" stroke-linejoin="round"/>
<path d="M15.9727 6.52131H25.25V1L15.9727 6.52131Z" stroke="white" stroke-miterlimit="10" stroke-linecap="round" stroke-linejoin="round"/>
<path d="M25.2422 9.41321V6.52148" stroke="white" stroke-miterlimit="10" stroke-linecap="round" stroke-linejoin="round"/>
<path d="M42.7692 58.0001H34.2344C34.2344 56.1078 34.2344 54.5513 34.2997 53.2734C34.3812 51.3155 34.5934 50.0048 35.1401 49.0792C35.5807 48.3173 36.2579 47.8176 37.2697 47.4408C37.7348 47.2688 38.257 47.1213 38.8771 46.9902L39.6115 49.0792L42.7692 58.0001Z" stroke="white" stroke-miterlimit="10" stroke-linecap="round" stroke-linejoin="round"/>
<path d="M41.3098 35.7168V46.53C40.3796 46.6775 39.5718 46.8249 38.8783 46.9806C38.2582 47.1198 37.7278 47.2673 37.2709 47.4311C36.2591 47.808 35.59 48.3077 35.1412 49.0695H28.6055V35.7168H41.3098Z" stroke="white" stroke-miterlimit="10" stroke-linecap="round" stroke-linejoin="round"/>
<path d="M40.8774 28.4933V31.639H28.6055V21.6367H40.9753C40.91 22.0709 40.8774 22.5214 40.8774 22.9802L39.0741 24.7906H40.861V28.5015H40.8774V28.4933Z" stroke="white" stroke-miterlimit="10" stroke-linecap="round" stroke-linejoin="round"/>
<path d="M18.0273 17.0156H42.767" stroke="white" stroke-miterlimit="10" stroke-linecap="round" stroke-linejoin="round"/>
</svg>
