<svg width="56" height="59" viewBox="0 0 56 59" fill="none" xmlns="http://www.w3.org/2000/svg">
<path d="M22.5586 21.7148V26.3012C22.5586 27.2124 23.0386 28.0527 23.8086 28.5083L25.2586 29.3688" stroke="white" stroke-miterlimit="10" stroke-linecap="round" stroke-linejoin="round"/>
<path d="M24.888 57.9997H14.418C14.418 55.661 14.418 53.7373 14.498 52.1579C14.678 47.7437 15.398 45.9922 18.138 44.9494C18.708 44.7368 19.348 44.5546 20.108 44.3926L24.888 57.9997Z" stroke="white" stroke-miterlimit="10" stroke-linecap="round" stroke-linejoin="round"/>
<path d="M34.8067 58H24.8867" stroke="white" stroke-miterlimit="10" stroke-linecap="round" stroke-linejoin="round"/>
<path d="M20.1094 44.3845C21.3194 44.1111 22.8094 43.858 24.6094 43.5847C26.2494 43.3316 28.1494 43.0481 30.3394 42.6836" stroke="white" stroke-miterlimit="10" stroke-linecap="round" stroke-linejoin="round"/>
<path d="M44.3564 21.7148V30.5331C44.3564 31.8392 43.8264 33.0845 42.8964 33.9957L38.3764 38.3694C37.7864 38.9465 36.9964 39.2603 36.1764 39.2603H34.8164" stroke="white" stroke-miterlimit="10" stroke-linecap="round" stroke-linejoin="round"/>
<path d="M25.2578 21.7148V30.5331C25.2578 31.8392 25.7878 33.0845 26.7178 33.9957L31.2378 38.3694C31.8278 38.9465 32.6178 39.2603 33.4378 39.2603H34.7978" stroke="white" stroke-miterlimit="10" stroke-linecap="round" stroke-linejoin="round"/>
<path d="M47.0594 21.7148V26.3012C47.0594 27.2124 46.5794 28.0527 45.8094 28.5083L44.3594 29.3688" stroke="white" stroke-miterlimit="10" stroke-linecap="round" stroke-linejoin="round"/>
<path d="M30.3398 37.4863V42.6801C30.3398 43.5812 30.7998 44.4215 31.5498 44.8973L34.8098 46.9627" stroke="white" stroke-miterlimit="10" stroke-linecap="round" stroke-linejoin="round"/>
<path d="M24.6094 43.5938L28.4294 53.789H34.8094" stroke="white" stroke-miterlimit="10" stroke-linecap="round" stroke-linejoin="round"/>
<path d="M39.2786 42.6836C55.1986 45.3665 55.1986 43.5239 55.1986 57.9916H34.8086" stroke="white" stroke-miterlimit="10" stroke-linecap="round" stroke-linejoin="round"/>
<path d="M39.2786 37.4863V42.6801C39.2786 43.5812 38.8186 44.4215 38.0686 44.8973L34.8086 46.9627" stroke="white" stroke-miterlimit="10" stroke-linecap="round" stroke-linejoin="round"/>
<path d="M45.0086 43.5938L41.1886 53.789H34.8086" stroke="white" stroke-miterlimit="10" stroke-linecap="round" stroke-linejoin="round"/>
<path d="M44.7266 57.9919L49.4966 44.3848" stroke="white" stroke-miterlimit="10" stroke-linecap="round" stroke-linejoin="round"/>
<path d="M31.2403 2.86328V14.7087H22.5703C22.5703 9.12012 26.2203 4.40218 31.2403 2.86328Z" stroke="white" stroke-miterlimit="10" stroke-linecap="round" stroke-linejoin="round"/>
<path d="M47.0469 16.9336V21.5199H33.2169C31.2669 21.5199 29.6469 19.9405 29.6469 17.9663C29.6469 19.4546 28.7069 20.7403 27.4169 21.2668C27.0069 21.4187 26.5569 21.5199 26.0869 21.5199H22.5469V16.9336H47.0469Z" stroke="white" stroke-miterlimit="10" stroke-linecap="round" stroke-linejoin="round"/>
<path d="M47.0489 14.7087H38.3789V2.86328C43.3989 4.40218 47.0489 9.12012 47.0489 14.7087Z" stroke="white" stroke-miterlimit="10" stroke-linecap="round" stroke-linejoin="round"/>
<path d="M49.2594 16.9344H20.3594L22.5694 14.707H47.0494L49.2594 16.9344Z" stroke="white" stroke-miterlimit="10" stroke-linecap="round" stroke-linejoin="round"/>
<path d="M38.3805 1.49609V14.6982H31.2305V1.49609C32.3705 1.18224 33.5705 1 34.8005 1C36.0505 1 37.2505 1.19236 38.3805 1.49609Z" stroke="white" stroke-miterlimit="10" stroke-linecap="round" stroke-linejoin="round"/>
<path d="M23.0676 35.2079L18.1376 44.9374C15.3976 45.9802 14.6776 47.7317 14.4976 52.146L13.0276 55.0415C12.6376 55.811 11.5476 55.811 11.1576 55.0415L1.11759 35.1978C0.757592 34.479 1.26759 33.6387 2.05759 33.6387H22.1176C22.9076 33.6589 23.4276 34.4891 23.0676 35.2079Z" stroke="white" stroke-miterlimit="10" stroke-linecap="round" stroke-linejoin="round"/>
<path d="M12.0977 29.8223V40.4326" stroke="white" stroke-miterlimit="10" stroke-linecap="round" stroke-linejoin="round"/>
<path d="M15.0362 29.8225H9.15625V10.1003C9.15625 9.54349 9.60625 9.08789 10.1563 9.08789H14.0463C14.5963 9.08789 15.0463 9.54349 15.0463 10.1003V29.8225H15.0362Z" stroke="white" stroke-miterlimit="10" stroke-linecap="round" stroke-linejoin="round"/>
</svg>
