<svg width="59" height="52" viewBox="0 0 59 52" fill="none" xmlns="http://www.w3.org/2000/svg">
<path d="M37.2547 8.77208C37.2547 12.2361 35.0003 15.1638 31.8775 16.1661C31.1319 16.4123 30.3337 16.5442 29.5004 16.5442C28.6758 16.5442 27.8688 16.4123 27.1232 16.1661C24.0005 15.1638 21.7461 12.2361 21.7461 8.77208C21.7461 4.48161 25.2197 1 29.5004 1C33.781 1.00879 37.2547 4.48161 37.2547 8.77208Z" stroke="white" stroke-miterlimit="10" stroke-linecap="round" stroke-linejoin="round"/>
<path d="M28.5781 8.77276C28.5781 8.5178 28.6834 8.28921 28.85 8.12216C29.0167 7.95511 29.2448 7.84961 29.4992 7.84961C29.7535 7.84961 29.9816 7.95511 30.1483 8.12216C30.3149 8.28921 30.4202 8.5178 30.4202 8.77276C30.4202 9.02773 30.3149 9.25632 30.1483 9.42337C29.9816 9.59041 29.7535 9.69592 29.4992 9.69592C29.2448 9.69592 29.0167 9.59041 28.85 9.42337C28.6834 9.25632 28.5781 9.02773 28.5781 8.77276Z" stroke="white" stroke-miterlimit="10" stroke-linecap="round" stroke-linejoin="round"/>
<path d="M34.1836 6.43046C32.9556 5.80623 30.2188 8.04818 30.2188 8.04818C30.2188 8.04818 32.4556 5.31388 31.8328 4.07422C32.8503 4.58415 33.6836 5.41059 34.1836 6.43046Z" stroke="white" stroke-miterlimit="10" stroke-linecap="round" stroke-linejoin="round"/>
<path d="M29.4985 3.52148C26.6038 3.52148 24.2617 5.86893 24.2617 8.77027C24.2617 9.68464 24.4898 10.5375 24.9021 11.2848" stroke="white" stroke-miterlimit="10" stroke-linecap="round" stroke-linejoin="round"/>
<path d="M34.0977 11.286C34.5012 10.5387 34.738 9.68585 34.738 8.77148" stroke="white" stroke-miterlimit="10" stroke-linecap="round" stroke-linejoin="round"/>
<path d="M26.6562 11.6189L28.8492 9.42969" stroke="white" stroke-miterlimit="10" stroke-linecap="round" stroke-linejoin="round"/>
<path d="M30.2196 8.04883C30.1929 8.07551 30.1751 8.0933 30.1484 8.11998" stroke="white" stroke-miterlimit="10" stroke-linecap="round" stroke-linejoin="round"/>
<path d="M30.2196 8.04883C30.1929 8.07551 30.1751 8.0933 30.1484 8.11998" stroke="white" stroke-miterlimit="10" stroke-linecap="round" stroke-linejoin="round"/>
<path d="M29.5 3.52148V4.89303" stroke="white" stroke-miterlimit="10" stroke-linecap="round" stroke-linejoin="round"/>
<path d="M24.2578 8.77148H25.6262" stroke="white" stroke-miterlimit="10" stroke-linecap="round" stroke-linejoin="round"/>
<path d="M34.7356 8.77148H33.3672" stroke="white" stroke-miterlimit="10" stroke-linecap="round" stroke-linejoin="round"/>
<path d="M31.4492 16.2871V18.3005" stroke="white" stroke-miterlimit="10" stroke-linecap="round" stroke-linejoin="round"/>
<path d="M27.5508 16.2871V18.3005" stroke="white" stroke-miterlimit="10" stroke-linecap="round" stroke-linejoin="round"/>
<path d="M29.4999 18.2988H21.2544L16.5703 23.0025H4.14062V25.5786H29.4999" stroke="white" stroke-miterlimit="10" stroke-linecap="round" stroke-linejoin="round"/>
<path d="M13.4379 20.9238H6.18359V23.0075H13.4379V20.9238Z" stroke="white" stroke-miterlimit="10" stroke-linecap="round" stroke-linejoin="round"/>
<path d="M11.043 6.0625H8.57812V20.9209H11.043V6.0625Z" stroke="white" stroke-miterlimit="10" stroke-linecap="round" stroke-linejoin="round"/>
<path d="M13.4379 25.582H6.18359V27.6657H13.4379V25.582Z" stroke="white" stroke-miterlimit="10" stroke-linecap="round" stroke-linejoin="round"/>
<path d="M27.5547 25.582V27.9822" stroke="white" stroke-miterlimit="10" stroke-linecap="round" stroke-linejoin="round"/>
<path d="M29.499 27.9824H26.5078V37.7679" stroke="white" stroke-miterlimit="10" stroke-linecap="round" stroke-linejoin="round"/>
<path d="M24.1523 25.582V28.3691L26.512 30.7341" stroke="white" stroke-miterlimit="10" stroke-linecap="round" stroke-linejoin="round"/>
<path d="M26.511 33.5212L22.1953 29.1955V25.582" stroke="white" stroke-miterlimit="10" stroke-linecap="round" stroke-linejoin="round"/>
<path d="M26.5077 33.5215H11.043" stroke="white" stroke-miterlimit="10" stroke-linecap="round" stroke-linejoin="round"/>
<path d="M8.57885 33.5215H1" stroke="white" stroke-miterlimit="10" stroke-linecap="round" stroke-linejoin="round"/>
<path d="M1 36.458L3.92979 33.5215" stroke="white" stroke-miterlimit="10" stroke-linecap="round" stroke-linejoin="round"/>
<path d="M5.65625 36.458L8.57726 33.5215" stroke="white" stroke-miterlimit="10" stroke-linecap="round" stroke-linejoin="round"/>
<path d="M53.3906 36.458L56.3204 33.5215" stroke="white" stroke-miterlimit="10" stroke-linecap="round" stroke-linejoin="round"/>
<path d="M12.7383 36.458L15.6593 33.5215" stroke="white" stroke-miterlimit="10" stroke-linecap="round" stroke-linejoin="round"/>
<path d="M22.1953 36.458L25.1163 33.5215" stroke="white" stroke-miterlimit="10" stroke-linecap="round" stroke-linejoin="round"/>
<path d="M17.4648 36.458L20.3859 33.5215" stroke="white" stroke-miterlimit="10" stroke-linecap="round" stroke-linejoin="round"/>
<path d="M35.332 36.458L38.253 33.5215" stroke="white" stroke-miterlimit="10" stroke-linecap="round" stroke-linejoin="round"/>
<path d="M44.7852 36.458L47.7062 33.5215" stroke="white" stroke-miterlimit="10" stroke-linecap="round" stroke-linejoin="round"/>
<path d="M40.0586 36.458L42.9796 33.5215" stroke="white" stroke-miterlimit="10" stroke-linecap="round" stroke-linejoin="round"/>
<path d="M26.5078 37.7676V47.0782L29.499 50.9995" stroke="white" stroke-miterlimit="10" stroke-linecap="round" stroke-linejoin="round"/>
<path d="M29.5 18.2988H37.7455L42.4297 23.0025H54.8593V25.5786H29.5" stroke="white" stroke-miterlimit="10" stroke-linecap="round" stroke-linejoin="round"/>
<path d="M45.566 22.998L52.8203 22.998L52.8203 20.9144L45.566 20.9144L45.566 22.998Z" stroke="white" stroke-miterlimit="10" stroke-linecap="round" stroke-linejoin="round"/>
<path d="M47.9609 20.9199L50.4258 20.9199L50.4258 6.06153L47.9609 6.06153L47.9609 20.9199Z" stroke="white" stroke-miterlimit="10" stroke-linecap="round" stroke-linejoin="round"/>
<path d="M45.566 27.6562L52.8203 27.6562L52.8203 25.5726L45.566 25.5726L45.566 27.6562Z" stroke="white" stroke-miterlimit="10" stroke-linecap="round" stroke-linejoin="round"/>
<path d="M48.9869 38.0664C48.1711 38.5939 47.9518 39.4907 47.9518 40.071V40.8622C47.9518 40.8622 44.3203 40.0886 44.3203 39.4555C44.3203 39.0335 46.5834 38.55 47.9168 38.2686C47.9255 38.2686 47.9431 38.2598 47.9518 38.2598C48.4869 38.1543 48.8904 38.0752 48.9869 38.0664Z" stroke="white" stroke-miterlimit="10" stroke-linecap="round" stroke-linejoin="round"/>
<path d="M53.686 40.9615C53.4579 41.5857 51.9843 41.955 50.4316 42.3946C50.4229 42.3946 50.4229 42.3946 50.4141 42.3946C49.7474 42.588 48.8001 42.7199 47.9492 42.8166V42.4034C49.2036 41.8846 50.4141 41.1901 50.4141 40.4691V39.3086C51.7211 39.546 53.993 40.1087 53.686 40.9615Z" stroke="white" stroke-miterlimit="10" stroke-linecap="round" stroke-linejoin="round"/>
<path d="M47.9495 42.4004V42.8136C47.4319 42.8752 46.9583 42.9279 46.5898 42.9807V42.8839C47.0109 42.7521 47.4846 42.585 47.9495 42.4004Z" stroke="white" stroke-miterlimit="10" stroke-linecap="round" stroke-linejoin="round"/>
<path d="M47.9492 42.8146C48.8001 42.7179 49.7474 42.586 50.4141 42.3926V44.74L49.1773 50.9999L47.9492 44.74V42.8146Z" stroke="white" stroke-miterlimit="10" stroke-linecap="round" stroke-linejoin="round"/>
<path d="M50.4141 27.6582V40.4681C50.4141 41.189 49.2036 41.8836 47.9492 42.4023V40.0724C47.9492 39.4922 48.1685 38.5954 48.9843 38.0679C48.8878 38.0767 48.4843 38.1558 47.9492 38.2613V27.6582H50.4141Z" stroke="white" stroke-miterlimit="10" stroke-linecap="round" stroke-linejoin="round"/>
<path d="M9.60801 38.0664C8.79223 38.5939 8.57294 39.4907 8.57294 40.071V40.8622C8.57294 40.8622 4.94141 40.0886 4.94141 39.4555C4.94141 39.0335 7.20454 38.55 8.53785 38.2686C8.54662 38.2686 8.56417 38.2598 8.57294 38.2598C9.10802 38.1543 9.51152 38.0752 9.60801 38.0664Z" stroke="white" stroke-miterlimit="10" stroke-linecap="round" stroke-linejoin="round"/>
<path d="M14.3071 40.9615C14.079 41.5857 12.6053 41.955 11.0527 42.3946C11.044 42.3946 11.044 42.3946 11.0352 42.3946C10.3685 42.588 9.42118 42.7199 8.57031 42.8166V42.4034C9.82468 41.8846 11.0352 41.1901 11.0352 40.4691V39.3086C12.3422 39.546 14.6141 40.1087 14.3071 40.9615Z" stroke="white" stroke-miterlimit="10" stroke-linecap="round" stroke-linejoin="round"/>
<path d="M8.57057 42.4004V42.8136C8.05303 42.8752 7.57935 42.9279 7.21094 42.9807V42.8839C7.63198 42.7521 8.10566 42.585 8.57057 42.4004Z" stroke="white" stroke-miterlimit="10" stroke-linecap="round" stroke-linejoin="round"/>
<path d="M8.57031 42.8146C9.42118 42.7179 10.3685 42.586 11.0352 42.3926V44.74L9.79837 50.9999L8.57031 44.74V42.8146Z" stroke="white" stroke-miterlimit="10" stroke-linecap="round" stroke-linejoin="round"/>
<path d="M11.0352 27.6582V40.4681C11.0352 41.189 9.82468 41.8836 8.57031 42.4023V40.0724C8.57031 39.4922 8.78961 38.5954 9.60539 38.0679C9.5089 38.0767 9.10539 38.1558 8.57031 38.2613V27.6582H11.0352Z" stroke="white" stroke-miterlimit="10" stroke-linecap="round" stroke-linejoin="round"/>
<path d="M31.4453 25.582V27.9822" stroke="white" stroke-miterlimit="10" stroke-linecap="round" stroke-linejoin="round"/>
<path d="M29.5 27.9707H32.5V39.0398" stroke="white" stroke-miterlimit="10" stroke-linecap="round" stroke-linejoin="round"/>
<path d="M34.8518 25.582V28.3691L32.4922 30.7341" stroke="white" stroke-miterlimit="10" stroke-linecap="round" stroke-linejoin="round"/>
<path d="M32.4922 33.5212L36.8079 29.1955V25.582" stroke="white" stroke-miterlimit="10" stroke-linecap="round" stroke-linejoin="round"/>
<path d="M32.4922 33.5215H47.9569" stroke="white" stroke-miterlimit="10" stroke-linecap="round" stroke-linejoin="round"/>
<path d="M50.4219 33.5215H58.0007" stroke="white" stroke-miterlimit="10" stroke-linecap="round" stroke-linejoin="round"/>
<path d="M32.4912 38.0664V47.0781L29.5 50.9994" stroke="white" stroke-miterlimit="10" stroke-linecap="round" stroke-linejoin="round"/>
</svg>
