<svg width="40" height="51" viewBox="0 0 40 51" fill="none" xmlns="http://www.w3.org/2000/svg">
<path d="M12.68 4.88L20.42 8.75H8.74V16.75L4.87 24.49L1 16.75V1H20.42L12.68 4.88Z" stroke="#333333" stroke-miterlimit="10" stroke-linecap="round" stroke-linejoin="round"/>
<path d="M39.2208 1V24.49L35.3508 16.75L31.4808 24.49V8.75H27.5408L19.8008 4.88L27.5408 1H39.2208Z" stroke="#333333" stroke-miterlimit="10" stroke-linecap="round" stroke-linejoin="round"/>
<path d="M39.22 31.6091V38.9391L20.11 49.7391L1 38.9391V23.8691L4.87 31.6091L8.74 23.8691V34.4191L20.11 40.8491L31.48 34.4191V31.6091L35.35 23.8691L39.22 31.6091Z" stroke="#333333" stroke-miterlimit="10" stroke-linecap="round" stroke-linejoin="round"/>
<path d="M20.1102 30.9098C24.2247 30.9098 27.5602 27.5743 27.5602 23.4598C27.5602 19.3452 24.2247 16.0098 20.1102 16.0098C15.9956 16.0098 12.6602 19.3452 12.6602 23.4598C12.6602 27.5743 15.9956 30.9098 20.1102 30.9098Z" stroke="#333333" stroke-miterlimit="10" stroke-linecap="round" stroke-linejoin="round"/>
<path d="M24.0312 23.4609L17.5312 26.7109V23.4609V20.2109L24.0312 23.4609Z" stroke="#333333" stroke-miterlimit="10" stroke-linecap="round" stroke-linejoin="round"/>
</svg>
