<svg width="55" height="47" viewBox="0 0 55 47" fill="none" xmlns="http://www.w3.org/2000/svg">
<path d="M37.2396 35.8329L40.1972 38.7905L38.1108 40.8769L35.1532 37.9193L32.1879 40.8769L30.1016 38.7905L31.6683 37.2238L33.0592 35.8329L30.1016 32.8753L32.1879 30.7812L35.1532 33.7389L37.209 31.6831L38.1108 30.7812L40.1972 32.8753L37.2396 35.8329Z" stroke="#333333" stroke-miterlimit="10" stroke-linecap="round" stroke-linejoin="round"/>
<path d="M39.5113 26.9687L35.1551 19.418L23.0419 40.3735L21.4141 43.1935H48.8809L39.5113 26.9687ZM38.1128 40.8779L35.1551 37.9203L32.1975 40.8779L30.1035 38.7839L31.6702 37.2172L33.0611 35.8262L30.1035 32.8686L32.1975 30.7746L35.1551 33.7322L37.2186 31.6688L38.1128 30.7746L40.2068 32.8686L37.2492 35.8262L40.2068 38.7839L38.1128 40.8779Z" stroke="#333333" stroke-miterlimit="10" stroke-linecap="round" stroke-linejoin="round"/>
<path d="M40.4277 22.6345L35.1545 13.4941L27.0841 27.4721L19.5792 40.4642L16.293 46.1502H54.0007L40.4277 22.6345ZM23.0412 40.3725L35.1468 19.4094L39.503 26.9601L48.8802 43.1926H21.4134L23.0412 40.3725Z" stroke="#333333" stroke-miterlimit="10" stroke-linecap="round" stroke-linejoin="round"/>
<path d="M40.5113 20.748C40.5113 21.39 40.4807 22.0167 40.4196 22.6433L35.1463 13.503L27.0836 27.4733L19.5787 40.4655C9.2156 39.8541 1 31.264 1 20.748C1 9.84228 9.84228 1 20.7633 1C31.669 0.992363 40.5113 9.84228 40.5113 20.748Z" stroke="#333333" stroke-miterlimit="10" stroke-linecap="round" stroke-linejoin="round"/>
<path d="M12.5106 25.3262C13.8862 23.9505 15.9267 23.7595 17.0655 24.8982C15.9267 23.7595 16.6681 21.1687 18.7162 19.1129C20.772 17.0571 23.3628 16.3158 24.5015 17.4621C23.3628 16.3234 23.5539 14.2829 24.9295 12.9072C26.244 11.5927 28.1623 11.3711 29.3239 12.357C29.0717 12.0589 28.8119 11.7609 28.5291 11.4781C23.7067 6.65574 15.8962 6.65574 11.0738 11.4781C6.25144 16.3005 6.25144 24.111 11.0738 28.9334C11.3566 29.2162 11.6546 29.476 11.9527 29.7282C10.9745 28.5589 11.1961 26.6407 12.5106 25.3262Z" stroke="#333333" stroke-miterlimit="10" stroke-linecap="round" stroke-linejoin="round"/>
<path d="M24.5098 17.4615C21.1547 13.0748 15.5758 9.8726 11.082 11.4699" stroke="#333333" stroke-miterlimit="10" stroke-linecap="round" stroke-linejoin="round"/>
<path d="M17.065 24.8984C12.6783 21.5434 9.47612 15.9644 11.0734 11.4707" stroke="#333333" stroke-miterlimit="10" stroke-linecap="round" stroke-linejoin="round"/>
<path d="M18.7227 19.1133L27.0835 27.4741" stroke="#333333" stroke-miterlimit="10" stroke-linecap="round" stroke-linejoin="round"/>
</svg>
