<svg width="54" height="56" viewBox="0 0 54 56" fill="none" xmlns="http://www.w3.org/2000/svg">
<path d="M5.85964 32.9291V18.8986C5.85964 17.556 4.77236 16.4688 3.42982 16.4688C2.08727 16.4688 1 17.556 1 18.8986V39.1124C1 40.3887 1.64291 41.5895 2.70182 42.2986L12.024 48.5197C13.0924 49.2288 13.7258 50.4295 13.7258 51.7058V54.684" stroke="white" stroke-miterlimit="10" stroke-linecap="round" stroke-linejoin="round"/>
<path d="M14.161 43.5282L5.23589 37.742C4.03516 36.9668 3.68534 35.3689 4.4417 34.1588C5.21698 32.9202 6.86207 32.5609 8.09116 33.3646L18.7559 40.342C20.8075 41.6846 22.0461 43.9726 22.0461 46.4213V54.6846" stroke="white" stroke-miterlimit="10" stroke-linecap="round" stroke-linejoin="round"/>
<path d="M48.1396 32.9291V18.8986C48.1396 17.556 49.2269 16.4688 50.5694 16.4688C51.912 16.4688 52.9993 17.556 52.9993 18.8986V39.1124C52.9993 40.3887 52.3563 41.5895 51.2974 42.2986L41.9753 48.5197C40.9069 49.2288 40.2734 50.4295 40.2734 51.7058V54.684" stroke="white" stroke-miterlimit="10" stroke-linecap="round" stroke-linejoin="round"/>
<path d="M39.8382 43.5282L48.7633 37.742C49.964 36.9668 50.3138 35.3689 49.5575 34.1588C48.7822 32.9202 47.1371 32.5609 45.908 33.3646L35.2433 40.342C33.1917 41.6846 31.9531 43.9726 31.9531 46.4213V54.6846" stroke="white" stroke-miterlimit="10" stroke-linecap="round" stroke-linejoin="round"/>
<path d="M40.3314 15.182V30.5835L27.0005 38.2795L13.6602 30.5835V11.7406L20.3351 7.89258L21.8194 10.4737L27.0005 19.446L28.4943 22.0177L40.3314 15.182Z" stroke="white" stroke-miterlimit="10" stroke-linecap="round" stroke-linejoin="round"/>
<path d="M27 38.2788V19.4453" stroke="white" stroke-miterlimit="10" stroke-linecap="round" stroke-linejoin="round"/>
<path d="M13.6596 11.7402L10.8516 13.3664" stroke="white" stroke-miterlimit="10" stroke-linecap="round" stroke-linejoin="round"/>
<path d="M20.3359 7.89236L29.1759 2.79636L32.277 1" stroke="white" stroke-miterlimit="10" stroke-linecap="round" stroke-linejoin="round"/>
<path d="M29.8347 24.3623L28.4922 22.0176" stroke="white" stroke-miterlimit="10" stroke-linecap="round" stroke-linejoin="round"/>
<path d="M32.2656 1L41.7769 17.4793" stroke="white" stroke-miterlimit="10" stroke-linecap="round" stroke-linejoin="round"/>
<path d="M13.6602 24.3613L27.0005 32.0573L40.3314 24.3613" stroke="white" stroke-miterlimit="10" stroke-linecap="round" stroke-linejoin="round"/>
<path d="M17.9062 27.084V32.9269" stroke="white" stroke-miterlimit="10" stroke-linecap="round" stroke-linejoin="round"/>
<path d="M22.1406 29.25V35.2725" stroke="white" stroke-miterlimit="10" stroke-linecap="round" stroke-linejoin="round"/>
<path d="M36.0938 27.084V32.9269" stroke="white" stroke-miterlimit="10" stroke-linecap="round" stroke-linejoin="round"/>
<path d="M31.8516 29.25V35.2725" stroke="white" stroke-miterlimit="10" stroke-linecap="round" stroke-linejoin="round"/>
</svg>
