<svg width="55" height="53" viewBox="0 0 55 53" fill="none" xmlns="http://www.w3.org/2000/svg">
<path d="M32.6992 18.2383V22.6417C32.6992 23.3539 33.0032 24.0314 33.533 24.5004L36.3384 27.0017C36.7466 27.3665 37.2677 27.5663 37.8149 27.5663H38.2491" stroke="white" stroke-miterlimit="10" stroke-linecap="round" stroke-linejoin="round"/>
<path d="M38.2519 30.8415C37.0881 30.8415 36.0806 30.1293 35.5335 29.0784L35.4727 29.1044V26.2383" stroke="white" stroke-miterlimit="10" stroke-linecap="round" stroke-linejoin="round"/>
<path d="M35.471 29.1035L31.7971 30.7624C30.5204 31.3356 29.6953 32.6124 29.6953 34.0107V41.0458H38.2503" stroke="white" stroke-miterlimit="10" stroke-linecap="round" stroke-linejoin="round"/>
<path d="M33.4375 36.5137V41.0474" stroke="white" stroke-miterlimit="10" stroke-linecap="round" stroke-linejoin="round"/>
<path d="M43.7921 17.3438V22.6418C43.7921 23.354 43.4881 24.0314 42.9583 24.5004L40.1529 27.0018C39.7447 27.3666 39.2236 27.5663 38.6765 27.5663H38.2422" stroke="white" stroke-miterlimit="10" stroke-linecap="round" stroke-linejoin="round"/>
<path d="M38.25 30.8415C39.4138 30.8415 40.4213 30.1293 40.9685 29.0784L41.0206 29.1044V26.2383" stroke="white" stroke-miterlimit="10" stroke-linecap="round" stroke-linejoin="round"/>
<path d="M41.0215 29.1035L44.6954 30.7624C45.9721 31.3356 46.7972 32.6124 46.7972 34.0107V41.0458H38.2422" stroke="white" stroke-miterlimit="10" stroke-linecap="round" stroke-linejoin="round"/>
<path d="M43.0547 36.5137V41.0474" stroke="white" stroke-miterlimit="10" stroke-linecap="round" stroke-linejoin="round"/>
<path d="M43.7903 16.4062C43.7903 17.9957 42.5049 19.2811 40.9155 19.2811H36.1038C34.2191 19.2811 32.6992 20.8097 32.6992 22.6857" stroke="white" stroke-miterlimit="10" stroke-linecap="round" stroke-linejoin="round"/>
<path d="M43.7895 13.3926C43.7895 14.1829 43.1467 14.8257 42.3564 14.8257H40.9233H36.1117C34.227 14.8257 32.707 16.3543 32.707 18.2303" stroke="white" stroke-miterlimit="10" stroke-linecap="round" stroke-linejoin="round"/>
<path d="M43.793 13.3926V17.3444" stroke="white" stroke-miterlimit="10" stroke-linecap="round" stroke-linejoin="round"/>
<path d="M38.2499 52.001L53.9529 43.1854V12.6566C50.5482 11.1193 45.0939 9.58203 38.2499 9.58203C31.4059 9.58203 25.9602 11.1193 22.5469 12.6566V43.1854L38.2499 52.001Z" stroke="white" stroke-miterlimit="10" stroke-linecap="round" stroke-linejoin="round"/>
<path d="M26.1523 41.9769V8.94679C28.7058 8.06958 32.8661 7.02734 38.2423 7.02734C43.6185 7.02734 47.7787 8.06958 50.3322 8.94679V41.9769L38.2423 48.7688L26.1523 41.9769Z" stroke="white" stroke-miterlimit="10" stroke-linecap="round" stroke-linejoin="round"/>
<path d="M18.2663 36.8008L19.4562 44.6001L12.4038 41.0565L5.36001 44.6001L6.5499 36.8008L1 31.1901L8.7907 29.9133L12.4038 22.9043L14.8183 27.5683" stroke="white" stroke-miterlimit="10" stroke-linecap="round" stroke-linejoin="round"/>
<path d="M11.8918 1C10.2329 1 8.88672 2.34622 8.88672 4.00511V7.02759H14.8969" stroke="white" stroke-miterlimit="10" stroke-linecap="round" stroke-linejoin="round"/>
<path d="M18.0391 36.6702C19.698 36.6702 21.0442 35.3239 21.0442 33.6651V30.6426H22.5467" stroke="white" stroke-miterlimit="10" stroke-linecap="round" stroke-linejoin="round"/>
<path d="M36.625 1C38.2839 1 39.6301 2.34622 39.6301 4.00511V7.02759" stroke="white" stroke-miterlimit="10" stroke-linecap="round" stroke-linejoin="round"/>
<path d="M11.8906 1H36.6263" stroke="white" stroke-miterlimit="10" stroke-linecap="round" stroke-linejoin="round"/>
<path d="M11.8906 1C13.5495 1 14.8957 2.34622 14.8957 4.00511V7.02759V30.6429V33.6654C14.8957 35.3242 16.242 36.6705 17.9008 36.6705H22.5475" stroke="white" stroke-miterlimit="10" stroke-linecap="round" stroke-linejoin="round"/>
<path d="M19.457 4.01367H35.1427" stroke="white" stroke-miterlimit="10" stroke-linecap="round" stroke-linejoin="round"/>
<path d="M19.457 7.02734H24.0168" stroke="white" stroke-miterlimit="10" stroke-linecap="round" stroke-linejoin="round"/>
</svg>
