<svg width="55" height="52" viewBox="0 0 55 52" fill="none" xmlns="http://www.w3.org/2000/svg">
<path d="M53.7384 33.3907L49.3484 29.7607L51.3384 24.4307L45.7284 23.4807L44.7784 17.8707L39.4484 19.8407L36.3484 16.1007L35.8184 15.4707L32.1784 19.8407L32.1384 19.8307L26.8484 17.8707L25.8984 23.4807L20.2984 24.4307L22.2684 29.7607L17.8984 33.3907L22.2684 37.0207L20.4384 41.9707L20.2984 42.3607L25.8984 43.3107L25.9484 43.5907L26.8484 48.9107L32.1784 46.9407L35.8184 51.3107L39.4484 46.9407L44.7784 48.9107L45.7284 43.3107L51.3384 42.3607L49.3484 37.0207L53.7384 33.3907ZM37.6884 43.1407H33.9384V39.4007H37.6884V43.1407ZM37.7684 35.7707H33.8684L32.7184 23.6307H38.9084L37.7684 35.7707Z" stroke="#333333" stroke-miterlimit="10" stroke-linecap="round" stroke-linejoin="round"/>
<path d="M37.6914 39.4004H33.9414V43.1404H37.6914V39.4004Z" stroke="#333333" stroke-miterlimit="10" stroke-linecap="round" stroke-linejoin="round"/>
<path d="M38.9188 23.6309L37.7688 35.7709H33.8688L32.7188 23.6309H38.9188Z" stroke="#333333" stroke-miterlimit="10" stroke-linecap="round" stroke-linejoin="round"/>
<path d="M37.6914 39.4004H33.9414V43.1404H37.6914V39.4004Z" stroke="#333333" stroke-miterlimit="10" stroke-linecap="round" stroke-linejoin="round"/>
<path d="M36.35 9.87V16.1L35.82 15.47L32.18 19.84L32.14 19.83L26.85 17.87L25.9 23.48L20.3 24.43L22.27 29.76L17.9 33.39L22.27 37.02L20.44 41.97L20.3 42.36L25.9 43.31L25.95 43.59L18.67 47.91L4.16 39.28C2.2 38.11 1 35.99 1 33.72V9.87C3.63 9.87 5.77 7.74 5.77 5.1C5.77 4.45 5.64 3.84 5.41 3.27C10.2 1.66 15.27 1 18.67 1C22.08 1 27.15 1.66 31.93 3.28C31.7 3.85 31.57 4.45 31.57 5.1C31.58 7.74 33.72 9.87 36.35 9.87Z" stroke="#333333" stroke-miterlimit="10" stroke-linecap="round" stroke-linejoin="round"/>
<path d="M32.1392 13.0292V19.8292L26.8492 17.8692L25.8992 23.4792L20.2992 24.4292L22.2692 29.7592L17.8992 33.3892L22.2692 37.0192L20.4392 41.9692L18.6692 43.0292L6.30922 35.6792C5.62922 35.2692 5.19922 34.5192 5.19922 33.7292V13.0292C7.68922 11.6992 9.47922 9.23922 9.87922 6.34922C13.2892 5.51922 16.4992 5.19922 18.6692 5.19922C20.8392 5.19922 24.0492 5.51922 27.4592 6.34922C27.8592 9.24922 29.6492 11.6992 32.1392 13.0292Z" stroke="#333333" stroke-miterlimit="10" stroke-linecap="round" stroke-linejoin="round"/>
<path d="M22.6806 9.00977L10.3006 17.5598H16.0506L8.64062 28.2898L24.6006 14.8998H18.4106L22.6806 9.00977Z" stroke="#333333" stroke-miterlimit="10" stroke-linecap="round" stroke-linejoin="round"/>
</svg>
