<svg width="32" height="44" viewBox="0 0 32 44" fill="none" xmlns="http://www.w3.org/2000/svg">
<path d="M25.3231 40.7422C25.3231 41.9921 24.3017 43.0002 23.0488 43.0002C21.7899 43.0002 20.7744 41.9862 20.7744 40.7422" stroke="#252630" stroke-miterlimit="10" stroke-linecap="round" stroke-linejoin="round"/>
<path d="M23.7433 38.2621C23.7433 37.8847 23.4345 37.5723 23.0485 37.5723C22.6685 37.5723 22.3538 37.8788 22.3538 38.2621V40.7442C22.3538 41.1215 22.6625 41.4339 23.0485 41.4339C23.4286 41.4339 23.7433 41.1274 23.7433 40.7442V38.2621Z" stroke="#252630" stroke-miterlimit="10" stroke-linecap="round" stroke-linejoin="round"/>
<path d="M20.7744 40.7413V33.4306C20.7744 33.1476 20.62 32.8941 20.3646 32.7644L15.5071 30.2411C15.2577 30.1114 15.0974 29.8519 15.0974 29.5748V27.3757C15.0974 26.9571 15.4359 26.6211 15.8575 26.6211H23.0487" stroke="#252630" stroke-miterlimit="10" stroke-linecap="round" stroke-linejoin="round"/>
<path d="M25.323 40.7413V33.4306C25.323 33.1476 25.4774 32.8941 25.7328 32.7644L30.5903 30.2411C30.8397 30.1114 31 29.8519 31 29.5748V27.3757C31 26.9571 30.6615 26.6211 30.2399 26.6211H23.0487" stroke="#252630" stroke-miterlimit="10" stroke-linecap="round" stroke-linejoin="round"/>
<path d="M23.0487 16.502H15.5605V26.619" stroke="#252630" stroke-miterlimit="10" stroke-linecap="round" stroke-linejoin="round"/>
<path d="M23.0487 16.502H30.5368V26.619" stroke="#252630" stroke-miterlimit="10" stroke-linecap="round" stroke-linejoin="round"/>
<path d="M27.5439 21.5605V26.6191" stroke="#252630" stroke-miterlimit="10" stroke-linecap="round" stroke-linejoin="round"/>
<path d="M27.5439 16.502V19.0961" stroke="#252630" stroke-miterlimit="10" stroke-linecap="round" stroke-linejoin="round"/>
<path d="M24.5452 16.502V25.4163" stroke="#252630" stroke-miterlimit="10" stroke-linecap="round" stroke-linejoin="round"/>
<path d="M21.5521 16.502V26.619" stroke="#252630" stroke-miterlimit="10" stroke-linecap="round" stroke-linejoin="round"/>
<path d="M18.5533 19.0977V26.6206" stroke="#252630" stroke-miterlimit="10" stroke-linecap="round" stroke-linejoin="round"/>
<path d="M12.5261 7.43164H8.57716C7.99522 7.43164 7.47265 7.80307 7.28263 8.35137L6.49878 10.6212" stroke="#252630" stroke-miterlimit="10" stroke-linecap="round" stroke-linejoin="round"/>
<path d="M4.8717 12.166H20.1805" stroke="#252630" stroke-miterlimit="10" stroke-linecap="round" stroke-linejoin="round"/>
<path d="M6.49878 12.166V32.3234C6.49878 33.0722 7.11042 33.6794 7.86457 33.6794H12.5261" stroke="#252630" stroke-miterlimit="10" stroke-linecap="round" stroke-linejoin="round"/>
<path d="M8.2565 16.0352H11.4691V29.6189H6.49878V16.0352" stroke="#252630" stroke-miterlimit="10" stroke-linecap="round" stroke-linejoin="round"/>
<path d="M12.5261 3.24023H11.4691V7.43208" stroke="#252630" stroke-miterlimit="10" stroke-linecap="round" stroke-linejoin="round"/>
<path d="M12.5261 7.43164H16.4751C17.057 7.43164 17.5796 7.80307 17.7696 8.35137L18.5534 10.6212" stroke="#252630" stroke-miterlimit="10" stroke-linecap="round" stroke-linejoin="round"/>
<path d="M18.5534 31.8281V32.3293C18.5534 33.078 17.9418 33.6853 17.1876 33.6853H12.5261" stroke="#252630" stroke-miterlimit="10" stroke-linecap="round" stroke-linejoin="round"/>
<path d="M18.5533 12.166V16.5053" stroke="#252630" stroke-miterlimit="10" stroke-linecap="round" stroke-linejoin="round"/>
<path d="M12.5261 3.24023H13.5831V7.43208" stroke="#252630" stroke-miterlimit="10" stroke-linecap="round" stroke-linejoin="round"/>
<path d="M10.2815 4.76758H1" stroke="#252630" stroke-miterlimit="10" stroke-linecap="round" stroke-linejoin="round"/>
<path d="M10.2815 4.76758L2.92407 6.72495" stroke="#252630" stroke-miterlimit="10" stroke-linecap="round" stroke-linejoin="round"/>
<path d="M2.85273 9.02344L2.24109 9.37129" stroke="#252630" stroke-miterlimit="10" stroke-linecap="round" stroke-linejoin="round"/>
<path d="M10.2814 4.76758L4.8717 7.86872" stroke="#252630" stroke-miterlimit="10" stroke-linecap="round" stroke-linejoin="round"/>
<path d="M2.1223 2.599L1.3147 2.38086" stroke="#252630" stroke-miterlimit="10" stroke-linecap="round" stroke-linejoin="round"/>
<path d="M10.2815 4.76722L4.53333 3.24023" stroke="#252630" stroke-miterlimit="10" stroke-linecap="round" stroke-linejoin="round"/>
<path d="M10.2815 4.76736L3.70789 1" stroke="#252630" stroke-miterlimit="10" stroke-linecap="round" stroke-linejoin="round"/>
</svg>
