<svg width="32" height="35" viewBox="0 0 32 35" fill="none" xmlns="http://www.w3.org/2000/svg">
<path d="M23.8256 10.5684H4.11755V19.4449H23.8256V10.5684Z" stroke="#252630" stroke-miterlimit="10" stroke-linecap="round" stroke-linejoin="round"/>
<path d="M21.8458 17.4585V12.5527L6.09668 12.5527L6.09668 17.4585L21.8458 17.4585Z" stroke="#252630" stroke-miterlimit="10" stroke-linecap="round" stroke-linejoin="round"/>
<path d="M4.11865 17.4605L4.11865 12.5547H2.22852L2.22852 17.4605H4.11865Z" stroke="#252630" stroke-miterlimit="10" stroke-linecap="round" stroke-linejoin="round"/>
<path d="M25.7196 17.4566V12.5508H23.8295V17.4566H25.7196Z" stroke="#252630" stroke-miterlimit="10" stroke-linecap="round" stroke-linejoin="round"/>
<path d="M13.9716 6.69141H7.33884C5.5582 6.69141 4.11755 8.13428 4.11755 9.91768V10.5699" stroke="#252630" stroke-miterlimit="10" stroke-linecap="round" stroke-linejoin="round"/>
<path d="M13.9716 2.28125H9.75913C6.64157 2.28125 4.11755 4.80917 4.11755 7.93155V10.0728" stroke="#252630" stroke-miterlimit="10" stroke-linecap="round" stroke-linejoin="round"/>
<path d="M8.72766 2.375L10.1914 6.69209" stroke="#252630" stroke-miterlimit="10" stroke-linecap="round" stroke-linejoin="round"/>
<path d="M3.18396 1.63486L3.82361 1" stroke="#252630" stroke-miterlimit="10" stroke-linecap="round" stroke-linejoin="round"/>
<path d="M1.63965 1.63486L1 1" stroke="#252630" stroke-miterlimit="10" stroke-linecap="round" stroke-linejoin="round"/>
<path d="M1.63965 3.18164L1 3.82228" stroke="#252630" stroke-miterlimit="10" stroke-linecap="round" stroke-linejoin="round"/>
<path d="M3.18396 3.18164L3.82361 3.82228" stroke="#252630" stroke-miterlimit="10" stroke-linecap="round" stroke-linejoin="round"/>
<path d="M29.0061 23.0761V22.1758" stroke="#252630" stroke-miterlimit="10" stroke-linecap="round" stroke-linejoin="round"/>
<path d="M27.9113 24.1719H27.0123" stroke="#252630" stroke-miterlimit="10" stroke-linecap="round" stroke-linejoin="round"/>
<path d="M29.0061 25.2695V26.1641" stroke="#252630" stroke-miterlimit="10" stroke-linecap="round" stroke-linejoin="round"/>
<path d="M30.1011 24.1719H31" stroke="#252630" stroke-miterlimit="10" stroke-linecap="round" stroke-linejoin="round"/>
<path d="M28.7872 29.6669C27.9516 30.1401 27.2658 30.8269 26.7933 31.6638C26.3208 30.8269 25.635 30.1401 24.7994 29.6669C25.635 29.1936 26.3208 28.5068 26.7933 27.6699C27.2658 28.5068 27.9516 29.1936 28.7872 29.6669Z" stroke="#252630" stroke-miterlimit="10" stroke-linecap="round" stroke-linejoin="round"/>
<path d="M13.9715 30.6402H11.8682C7.60389 30.6402 4.1521 27.1773 4.1521 22.9121V19.4492" stroke="#252630" stroke-miterlimit="10" stroke-linecap="round" stroke-linejoin="round"/>
<path d="M13.9715 33.9999H12.5597C7.91504 33.9999 4.15784 30.2311 4.15784 25.585V18.3418" stroke="#252630" stroke-miterlimit="10" stroke-linecap="round" stroke-linejoin="round"/>
<path d="M6.09985 20.9902C6.09985 23.8183 10.7445 24.7763 10.7445 27.3504" stroke="#252630" stroke-miterlimit="10" stroke-linecap="round" stroke-linejoin="round"/>
<path d="M13.9716 6.69141H20.6101C22.3907 6.69141 23.8313 8.13428 23.8313 9.91768V10.5699" stroke="#252630" stroke-miterlimit="10" stroke-linecap="round" stroke-linejoin="round"/>
<path d="M13.9716 2.28125H18.184C21.3016 2.28125 23.8256 4.80917 23.8256 7.93155V10.0728" stroke="#252630" stroke-miterlimit="10" stroke-linecap="round" stroke-linejoin="round"/>
<path d="M19.2213 2.375L17.7518 6.69209" stroke="#252630" stroke-miterlimit="10" stroke-linecap="round" stroke-linejoin="round"/>
<path d="M13.9716 30.6402H16.0749C20.3392 30.6402 23.791 27.1773 23.791 22.9121V19.4492" stroke="#252630" stroke-miterlimit="10" stroke-linecap="round" stroke-linejoin="round"/>
<path d="M13.9716 33.9999H15.3834C20.028 33.9999 23.7853 30.2311 23.7853 25.585V18.3418" stroke="#252630" stroke-miterlimit="10" stroke-linecap="round" stroke-linejoin="round"/>
<path d="M21.849 20.9902C21.849 23.8183 17.2043 24.7763 17.2043 27.3504" stroke="#252630" stroke-miterlimit="10" stroke-linecap="round" stroke-linejoin="round"/>
<path d="M6.09985 17.4593L9.2808 14.2734" stroke="#252630" stroke-miterlimit="10" stroke-linecap="round" stroke-linejoin="round"/>
<path d="M13.5337 12.5547L10.1453 15.9426" stroke="#252630" stroke-miterlimit="10" stroke-linecap="round" stroke-linejoin="round"/>
</svg>
