<svg width="52" height="41" viewBox="0 0 52 41" fill="none" xmlns="http://www.w3.org/2000/svg">
<path d="M31.602 17.8633L17.7988 22.5229L12.2039 20.6304L26.007 15.9707L31.602 17.8633Z" stroke="#252630" stroke-miterlimit="10" stroke-linecap="round" stroke-linejoin="round"/>
<path d="M50.9931 20.6297L45.3981 22.5223H45.3912L31.6019 17.8626L37.1969 15.9766H37.2038L50.9931 20.6297Z" stroke="#252630" stroke-miterlimit="10" stroke-linecap="round" stroke-linejoin="round"/>
<path d="M45.3913 22.5229L31.602 27.1761H31.595L17.7988 22.5229L31.602 17.8633L45.3913 22.5229Z" stroke="#252630" stroke-miterlimit="10" stroke-linecap="round" stroke-linejoin="round"/>
<path d="M31.595 27.1746L26.0001 29.0672L12.1969 24.4075L17.7988 22.5215L31.595 27.1746Z" stroke="#252630" stroke-miterlimit="10" stroke-linecap="round" stroke-linejoin="round"/>
<path d="M51 24.4075L37.1899 29.0672L31.6019 27.1746L45.3912 22.5215H45.3982L51 24.4075Z" stroke="#252630" stroke-miterlimit="10" stroke-linecap="round" stroke-linejoin="round"/>
<path d="M17.7988 26.2949V35.3466L31.602 39.9998L45.3913 35.3466V26.3014" stroke="#252630" stroke-miterlimit="10" stroke-linecap="round" stroke-linejoin="round"/>
<path d="M31.6019 39.9996V27.1758" stroke="#252630" stroke-miterlimit="10" stroke-linecap="round" stroke-linejoin="round"/>
<path d="M31.595 24.8332V17.8633" stroke="#252630" stroke-miterlimit="10" stroke-linecap="round" stroke-linejoin="round"/>
<path d="M22.7264 1L1 10.2279V30.1H17.7987" stroke="#252630" stroke-miterlimit="10" stroke-linecap="round" stroke-linejoin="round"/>
<path d="M22.7264 11.1035H4.70447V30.101" stroke="#252630" stroke-miterlimit="10" stroke-linecap="round" stroke-linejoin="round"/>
<path d="M15.3105 26.7656H4.70447V30.1005H15.3105V26.7656Z" stroke="#252630" stroke-miterlimit="10" stroke-linecap="round" stroke-linejoin="round"/>
<path d="M10.0075 23.4766H4.70447V26.7657H10.0075V23.4766Z" stroke="#252630" stroke-miterlimit="10" stroke-linecap="round" stroke-linejoin="round"/>
<path d="M22.7264 14.1426H4.70447" stroke="#252630" stroke-miterlimit="10" stroke-linecap="round" stroke-linejoin="round"/>
<path d="M22.7264 1L44.4459 10.2279V18.4182" stroke="#252630" stroke-miterlimit="10" stroke-linecap="round" stroke-linejoin="round"/>
<path d="M22.7264 11.1035H40.7415V17.1663" stroke="#252630" stroke-miterlimit="10" stroke-linecap="round" stroke-linejoin="round"/>
<path d="M22.7264 14.1426H40.7415" stroke="#252630" stroke-miterlimit="10" stroke-linecap="round" stroke-linejoin="round"/>
</svg>
