<svg width="52" height="41" viewBox="0 0 52 41" fill="none" xmlns="http://www.w3.org/2000/svg">
<path d="M36.6628 9.79297V14.3765H33.2606C33.2606 14.1609 33.2766 13.9453 33.3087 13.7376C33.5568 11.8611 34.8937 10.328 36.6628 9.79297Z" stroke="#252630" stroke-miterlimit="10" stroke-linecap="round" stroke-linejoin="round"/>
<path d="M42.8748 14.3765H39.4727V9.79297C39.953 9.9367 40.4012 10.1603 40.8015 10.4318C42.0503 11.3022 42.8748 12.7395 42.8748 14.3765Z" stroke="#252630" stroke-miterlimit="10" stroke-linecap="round" stroke-linejoin="round"/>
<path d="M39.4726 9.26391V14.3744H36.6708V9.26391C37.1191 9.14413 37.5834 9.07227 38.0717 9.07227C38.552 9.07227 39.0243 9.14413 39.4726 9.26391Z" stroke="#252630" stroke-miterlimit="10" stroke-linecap="round" stroke-linejoin="round"/>
<path d="M16.2657 37.9384L11.1425 28.3242H26.1441L31.2673 37.9384" stroke="#252630" stroke-miterlimit="10" stroke-linecap="round" stroke-linejoin="round"/>
<path d="M16.2657 37.9395H31.2674" stroke="#252630" stroke-miterlimit="10" stroke-linecap="round" stroke-linejoin="round"/>
<path d="M39.6007 25.954H40.2491C40.7374 25.954 41.1297 25.5627 41.1297 25.0756C41.1297 24.5885 41.5219 24.1973 42.0102 24.1973H46.1889C46.5892 24.1973 46.9414 24.4688 47.0374 24.852L51 39.9919H16.2657" stroke="#252630" stroke-miterlimit="10" stroke-linecap="round" stroke-linejoin="round"/>
<path d="M39.6008 25.954H38.9524C38.4641 25.954 38.0718 25.5627 38.0718 25.0756C38.0718 24.5885 37.6796 24.1973 37.1912 24.1973H33.0126C32.6123 24.1973 32.2601 24.4688 32.164 24.852L29.5784 34.7457" stroke="#252630" stroke-miterlimit="10" stroke-linecap="round" stroke-linejoin="round"/>
<path d="M41.1297 25.0757V15.8848H35.0858V20.8835C35.0858 21.4345 35.6302 21.8257 36.1505 21.6501L38.8722 20.7477V18.3442" stroke="#252630" stroke-miterlimit="10" stroke-linecap="round" stroke-linejoin="round"/>
<path d="M38.0717 25.0744V21.002" stroke="#252630" stroke-miterlimit="10" stroke-linecap="round" stroke-linejoin="round"/>
<path d="M7.54016 15.3102L14.3125 12.5633C14.3125 12.5633 18.5552 16.2285 19.0195 15.8851C19.4758 15.5417 39.4726 5.12109 39.4726 5.12109" stroke="#252630" stroke-miterlimit="10" stroke-linecap="round" stroke-linejoin="round"/>
<path d="M45.4124 21.0029V1H4.44214V25.0753" stroke="#252630" stroke-miterlimit="10" stroke-linecap="round" stroke-linejoin="round"/>
<path d="M1 25.0742H29.5703" stroke="#252630" stroke-miterlimit="10" stroke-linecap="round" stroke-linejoin="round"/>
<path d="M14.6007 16.3379V22.0633" stroke="#252630" stroke-miterlimit="10" stroke-linecap="round" stroke-linejoin="round"/>
<path d="M9.66943 18.1777V22.0665" stroke="#252630" stroke-miterlimit="10" stroke-linecap="round" stroke-linejoin="round"/>
<path d="M19.5319 18.6309V22.0645" stroke="#252630" stroke-miterlimit="10" stroke-linecap="round" stroke-linejoin="round"/>
<path d="M24.4709 15.9082V22.0648" stroke="#252630" stroke-miterlimit="10" stroke-linecap="round" stroke-linejoin="round"/>
<path d="M29.4022 13.043V22.0662" stroke="#252630" stroke-miterlimit="10" stroke-linecap="round" stroke-linejoin="round"/>
<path d="M9.66943 22.0645H31.2673" stroke="#252630" stroke-miterlimit="10" stroke-linecap="round" stroke-linejoin="round"/>
<path d="M31.0111 37.9395H36.3505" stroke="#252630" stroke-miterlimit="10" stroke-linecap="round" stroke-linejoin="round"/>
<path d="M32.1559 39.9991L34.1972 37.9629" stroke="#252630" stroke-miterlimit="10" stroke-linecap="round" stroke-linejoin="round"/>
<path d="M36.6628 40.0006V37.9324C36.6628 37.1978 37.2632 36.6069 37.9917 36.6069H43.3631C44.3798 36.6069 45.1002 35.6247 44.7961 34.6585L43.5713 30.7617" stroke="#252630" stroke-miterlimit="10" stroke-linecap="round" stroke-linejoin="round"/>
<path d="M35.5422 30.7617L33.1807 37.9404" stroke="#252630" stroke-miterlimit="10" stroke-linecap="round" stroke-linejoin="round"/>
</svg>
