<svg width="46" height="33" viewBox="0 0 46 33" fill="none" xmlns="http://www.w3.org/2000/svg">
<path d="M14.5129 21.7217H17.0329L19.9498 23.9456H22.8604" stroke="#252630" stroke-miterlimit="10" stroke-linecap="round" stroke-linejoin="round"/>
<path d="M14.5129 21.7209H17.0329L19.9498 19.4971H22.8604" stroke="#252630" stroke-miterlimit="10" stroke-linecap="round" stroke-linejoin="round"/>
<path d="M14.5129 17.2725H17.0329L19.9498 19.4963H22.8604" stroke="#252630" stroke-miterlimit="10" stroke-linecap="round" stroke-linejoin="round"/>
<path d="M14.5129 17.2727H17.0329L19.9498 15.0488H22.8604" stroke="#252630" stroke-miterlimit="10" stroke-linecap="round" stroke-linejoin="round"/>
<path d="M14.5129 12.8311H17.0329L19.9498 15.0486H22.8604" stroke="#252630" stroke-miterlimit="10" stroke-linecap="round" stroke-linejoin="round"/>
<path d="M14.5129 12.8313H17.0329L19.9498 10.6074H22.8604" stroke="#252630" stroke-miterlimit="10" stroke-linecap="round" stroke-linejoin="round"/>
<path d="M14.5129 8.73047V26.9562" stroke="#252630" stroke-miterlimit="10" stroke-linecap="round" stroke-linejoin="round"/>
<path d="M13.3286 26.9561H15.6974" stroke="#252630" stroke-miterlimit="10" stroke-linecap="round" stroke-linejoin="round"/>
<path d="M21.676 26.9561H24.0511" stroke="#252630" stroke-miterlimit="10" stroke-linecap="round" stroke-linejoin="round"/>
<path d="M22.8601 8.73047V26.9562" stroke="#252630" stroke-miterlimit="10" stroke-linecap="round" stroke-linejoin="round"/>
<path d="M38.4207 26.9561H40.7957" stroke="#252630" stroke-miterlimit="10" stroke-linecap="round" stroke-linejoin="round"/>
<path d="M39.6118 8.73047V26.9562" stroke="#252630" stroke-miterlimit="10" stroke-linecap="round" stroke-linejoin="round"/>
<path d="M14.5129 10.6074H39.6119" stroke="#252630" stroke-miterlimit="10" stroke-linecap="round" stroke-linejoin="round"/>
<path d="M22.8601 23.9443H39.6116" stroke="#252630" stroke-miterlimit="10" stroke-linecap="round" stroke-linejoin="round"/>
<path d="M14.5129 23.9443H20.2963" stroke="#252630" stroke-miterlimit="10" stroke-linecap="round" stroke-linejoin="round"/>
<path d="M22.8601 15.0488H39.6116" stroke="#252630" stroke-miterlimit="10" stroke-linecap="round" stroke-linejoin="round"/>
<path d="M22.8601 19.4971H39.6116" stroke="#252630" stroke-miterlimit="10" stroke-linecap="round" stroke-linejoin="round"/>
<path d="M11.2747 25.2305H42.8499" stroke="#252630" stroke-miterlimit="10" stroke-linecap="round" stroke-linejoin="round"/>
<path d="M45.4208 3.86719V31.82H5.27759C5.97058 31.8137 6.65727 31.6184 7.27467 31.1963C8.05586 30.6608 8.57245 29.7914 8.69845 28.8905C8.72995 28.6448 8.72995 28.3928 8.69845 28.1408V6.89116C8.72995 6.65806 8.72995 6.41236 8.69845 6.17296C8.64805 5.70677 8.48425 5.25317 8.18816 4.85628C7.74086 4.25778 7.00377 3.86719 6.27298 3.86719H45.4208V3.86719Z" stroke="#252630" stroke-miterlimit="10" stroke-linecap="round" stroke-linejoin="round"/>
<path d="M39.0075 3.86708H6.27304C7.00384 3.86708 7.74723 4.25768 8.18822 4.85617C8.49062 5.25307 8.65442 5.70667 8.69852 6.17286V6.89105C8.57882 7.79194 8.05593 8.66133 7.27473 9.19683C6.65734 9.61262 5.96435 9.81422 5.27766 9.82052C3.88537 9.83942 2.48678 9.08973 1.71819 7.86754C1.2331 7.10525 1 6.26106 1 5.41057C1 4.56638 1.2268 3.72219 1.71819 2.95359C2.49308 1.72511 3.88537 0.975416 5.27766 1.00062H39.0075V3.86708Z" stroke="#252630" stroke-miterlimit="10" stroke-linecap="round" stroke-linejoin="round"/>
<path d="M8.69852 6.89118V28.8842C8.57882 29.7851 8.05593 30.6545 7.27473 31.19C6.65734 31.6121 5.96435 31.8074 5.27766 31.8137H5.23985C3.86017 31.8137 2.48678 31.064 1.71819 29.8607C1.2331 29.0984 1 28.2543 1 27.4038V5.41699C1 6.26118 1.2268 7.10537 1.71819 7.87396C2.49308 9.09615 3.88537 9.83955 5.27766 9.82695C5.97065 9.82065 6.65734 9.61275 7.27473 9.20325C8.05593 8.66146 8.57882 7.79207 8.69852 6.89118Z" stroke="#252630" stroke-miterlimit="10" stroke-linecap="round" stroke-linejoin="round"/>
</svg>
