<svg width="40" height="41" viewBox="0 0 40 41" fill="none" xmlns="http://www.w3.org/2000/svg">
<path d="M4.53047 24.1956V14.0025C4.53047 13.0272 3.74058 12.2373 2.76523 12.2373C1.78989 12.2373 1 13.0272 1 14.0025V28.6876C1 29.6149 1.46707 30.4872 2.23635 31.0024L9.00881 35.5219C9.78496 36.0371 10.2452 36.9094 10.2452 37.8366V40.0002" stroke="#252630" stroke-miterlimit="10" stroke-linecap="round" stroke-linejoin="round"/>
<path d="M10.5608 31.8947L4.07685 27.6911C3.20453 27.1278 2.95039 25.967 3.49988 25.0879C4.06311 24.1881 5.25825 23.9271 6.15117 24.5109L13.899 29.5799C15.3895 30.5553 16.2892 32.2175 16.2892 33.9965V39.9996" stroke="#252630" stroke-miterlimit="10" stroke-linecap="round" stroke-linejoin="round"/>
<path d="M35.2469 24.1956V14.0025C35.2469 13.0272 36.0368 12.2373 37.0121 12.2373C37.9875 12.2373 38.7774 13.0272 38.7774 14.0025V28.6876C38.7774 29.6149 38.3103 30.4872 37.541 31.0024L30.7686 35.5219C29.9924 36.0371 29.5322 36.9094 29.5322 37.8366V40.0002" stroke="#252630" stroke-miterlimit="10" stroke-linecap="round" stroke-linejoin="round"/>
<path d="M29.2165 31.8947L35.7004 27.6911C36.5727 27.1278 36.8269 25.967 36.2774 25.0879C35.7142 24.1881 34.519 23.9271 33.6261 24.5109L25.8783 29.5799C24.3878 30.5553 23.488 32.2175 23.488 33.9965V39.9996" stroke="#252630" stroke-miterlimit="10" stroke-linecap="round" stroke-linejoin="round"/>
<path d="M29.5731 11.3025V22.4915L19.8884 28.0826L10.1968 22.4915V8.80236L15.046 6.00684L16.1244 7.88197L19.8884 14.4003L20.9736 16.2685L29.5731 11.3025Z" stroke="#252630" stroke-miterlimit="10" stroke-linecap="round" stroke-linejoin="round"/>
<path d="M19.8887 28.0827V14.4004" stroke="#252630" stroke-miterlimit="10" stroke-linecap="round" stroke-linejoin="round"/>
<path d="M10.197 8.80273L8.15698 9.98413" stroke="#252630" stroke-miterlimit="10" stroke-linecap="round" stroke-linejoin="round"/>
<path d="M15.0464 6.00722L21.4685 2.30504L23.7214 1" stroke="#252630" stroke-miterlimit="10" stroke-linecap="round" stroke-linejoin="round"/>
<path d="M21.9492 17.9729L20.9739 16.2695" stroke="#252630" stroke-miterlimit="10" stroke-linecap="round" stroke-linejoin="round"/>
<path d="M23.7146 1L30.6244 12.972" stroke="#252630" stroke-miterlimit="10" stroke-linecap="round" stroke-linejoin="round"/>
<path d="M10.1968 17.9727L19.8884 23.5637L29.5731 17.9727" stroke="#252630" stroke-miterlimit="10" stroke-linecap="round" stroke-linejoin="round"/>
<path d="M13.281 19.9502V24.195" stroke="#252630" stroke-miterlimit="10" stroke-linecap="round" stroke-linejoin="round"/>
<path d="M16.3584 21.5234V25.8987" stroke="#252630" stroke-miterlimit="10" stroke-linecap="round" stroke-linejoin="round"/>
<path d="M26.4963 19.9502V24.195" stroke="#252630" stroke-miterlimit="10" stroke-linecap="round" stroke-linejoin="round"/>
<path d="M23.4121 21.5234V25.8987" stroke="#252630" stroke-miterlimit="10" stroke-linecap="round" stroke-linejoin="round"/>
</svg>
