<svg width="73" height="56" viewBox="0 0 73 56" fill="none" xmlns="http://www.w3.org/2000/svg">
<path d="M72.4791 24.0398C72.4791 24.7498 70.4291 25.6098 67.9491 26.3198C67.9191 26.3298 67.8891 26.3398 67.8591 26.3398C66.8291 26.6298 65.7391 26.8998 64.6891 27.1098C64.0291 27.2498 63.3791 27.3598 62.7891 27.4498V27.2998C63.4291 27.0998 64.0791 26.8698 64.6891 26.6098C66.4291 25.8698 67.8591 24.8798 67.8591 23.7098V21.8198C69.9391 22.2098 72.4791 23.1898 72.4791 24.0398Z" stroke="#333333" stroke-miterlimit="10" stroke-linecap="round" stroke-linejoin="round"/>
<path d="M38.1783 47.0402C38.0483 47.0102 37.8983 47.0002 37.7583 47.0002H7.98828C8.18828 45.9502 9.12828 45.1602 10.2283 45.1602H35.9183C37.0383 45.1602 37.9883 45.9702 38.1783 47.0402Z" stroke="#333333" stroke-miterlimit="10" stroke-linecap="round" stroke-linejoin="round"/>
<path d="M16.4014 55.1H10.2314C10.0914 55.1 9.96141 55.09 9.83141 55.07C8.76141 54.88 7.94141 53.93 7.94141 52.81V47.44C7.94141 47.29 7.95141 47.14 7.99141 47H12.5414C11.8414 47.86 11.4214 48.95 11.4214 50.13C11.4214 52.87 13.6514 55.1 16.4014 55.1Z" stroke="#333333" stroke-miterlimit="10" stroke-linecap="round" stroke-linejoin="round"/>
<path d="M29.7584 55.1H16.3984C19.1384 55.1 21.3684 52.87 21.3684 50.13C21.3684 48.95 20.9584 47.86 20.2584 47H25.8984C25.1984 47.86 24.7784 48.95 24.7784 50.13C24.7784 52.87 27.0084 55.1 29.7584 55.1Z" stroke="#333333" stroke-miterlimit="10" stroke-linecap="round" stroke-linejoin="round"/>
<path d="M38.2117 47.44V52.81C38.2117 54.07 37.1817 55.1 35.9217 55.1H29.7617C32.5017 55.1 34.7217 52.87 34.7217 50.13C34.7217 48.95 34.3017 47.86 33.6217 47H37.7617C37.9017 47 38.0517 47.01 38.1817 47.04C38.2017 47.17 38.2117 47.3 38.2117 47.44Z" stroke="#333333" stroke-miterlimit="10" stroke-linecap="round" stroke-linejoin="round"/>
<path d="M21.3719 50.13C21.3719 52.87 19.1419 55.1 16.4019 55.1C13.6519 55.1 11.4219 52.87 11.4219 50.13C11.4219 48.95 11.8419 47.86 12.5419 47H20.2619C20.9619 47.86 21.3719 48.95 21.3719 50.13Z" stroke="#333333" stroke-miterlimit="10" stroke-linecap="round" stroke-linejoin="round"/>
<path d="M34.7212 50.13C34.7212 52.87 32.5012 55.1 29.7612 55.1C27.0112 55.1 24.7812 52.87 24.7812 50.13C24.7812 48.95 25.2012 47.86 25.9012 47H33.6213C34.3013 47.86 34.7212 48.95 34.7212 50.13Z" stroke="#333333" stroke-miterlimit="10" stroke-linecap="round" stroke-linejoin="round"/>
<path d="M27.7388 35.2799V42.1699H23.0588V34.6099L14.7188 17.1899H17.6287C18.8087 17.1899 19.8687 17.8699 20.3787 18.9399L27.2887 33.3299C27.5887 33.9399 27.7388 34.5999 27.7388 35.2799Z" stroke="#333333" stroke-miterlimit="10" stroke-linecap="round" stroke-linejoin="round"/>
<path d="M23.0588 34.6002H20.0088L13.9288 21.9202C13.4188 20.8502 12.3488 20.1702 11.1588 20.1702H7.21875L7.51875 18.9502C7.76875 17.9202 8.69875 17.1802 9.75875 17.1802H14.7188L23.0588 34.6002Z" stroke="#333333" stroke-miterlimit="10" stroke-linecap="round" stroke-linejoin="round"/>
<path d="M20.0091 34.5999H4.78906V30.9099C4.78906 30.4299 4.83906 29.9699 4.95906 29.5199L7.22906 20.1699H11.1691C12.3591 20.1699 13.4291 20.8499 13.9391 21.9199L20.0091 34.5999Z" stroke="#333333" stroke-miterlimit="10" stroke-linecap="round" stroke-linejoin="round"/>
<path d="M2.11 30.2002H4.78V42.1602H2.11C1.5 42.1602 1 41.6602 1 41.0502V31.3102C1 30.7002 1.5 30.2002 2.11 30.2002Z" stroke="#333333" stroke-miterlimit="10" stroke-linecap="round" stroke-linejoin="round"/>
<path d="M23.0691 34.6001H4.78906V42.1601H23.0691V34.6001Z" stroke="#333333" stroke-miterlimit="10" stroke-linecap="round" stroke-linejoin="round"/>
<path d="M27.0386 34.6001H23.0586" stroke="#333333" stroke-miterlimit="10" stroke-linecap="round" stroke-linejoin="round"/>
<path d="M35.4808 42.1699H9.80078V45.1599H35.4808V42.1699Z" stroke="#333333" stroke-miterlimit="10" stroke-linecap="round" stroke-linejoin="round"/>
<path d="M35.4783 42.1702V22.2002L32.4083 20.1802L27.7383 42.1702H35.4783Z" stroke="#333333" stroke-miterlimit="10" stroke-linecap="round" stroke-linejoin="round"/>
<path d="M32.4102 20.1802L47.9702 6.4502L51.0502 8.7402L35.4802 22.4602" stroke="#333333" stroke-miterlimit="10" stroke-linecap="round" stroke-linejoin="round"/>
<path d="M51.0505 8.74023L35.4805 42.1702" stroke="#333333" stroke-miterlimit="10" stroke-linecap="round" stroke-linejoin="round"/>
<path d="M47.9688 6.45L66.3588 1L69.4387 3.34L51.0487 8.79" stroke="#333333" stroke-miterlimit="10" stroke-linecap="round" stroke-linejoin="round"/>
<path d="M69.4395 3.33984L66.2695 12.7398" stroke="#333333" stroke-miterlimit="10" stroke-linecap="round" stroke-linejoin="round"/>
<path d="M63.75 5.02002L66.27 12.74" stroke="#333333" stroke-miterlimit="10" stroke-linecap="round" stroke-linejoin="round"/>
<path d="M66.3892 19.6001C65.0592 20.4301 64.6892 21.9801 64.6892 22.9101V24.4401C64.6892 24.4401 59.1992 22.8701 59.1992 21.8701C59.1992 21.1901 62.5292 20.3801 64.6492 19.9401C64.6592 19.9401 64.6792 19.9301 64.6892 19.9301C65.6692 19.7301 66.3892 19.6001 66.3892 19.6001Z" stroke="#333333" stroke-miterlimit="10" stroke-linecap="round" stroke-linejoin="round"/>
<path d="M72.4791 35.9798C72.4791 36.6898 70.4291 37.5498 67.9491 38.2598C67.9191 38.2698 67.8891 38.2798 67.8591 38.2798C66.8291 38.5698 65.7391 38.8398 64.6891 39.0498C64.0291 39.1898 63.3791 39.2998 62.7891 39.3898V39.2398C63.4291 39.0398 64.0791 38.8098 64.6891 38.5498C66.4291 37.8098 67.8591 36.8198 67.8591 35.6498V33.7598C69.9391 34.1498 72.4791 35.1298 72.4791 35.9798Z" stroke="#333333" stroke-miterlimit="10" stroke-linecap="round" stroke-linejoin="round"/>
<path d="M66.3892 31.54C65.0592 32.37 64.6892 33.92 64.6892 34.85V36.38C64.6892 36.38 59.1992 34.81 59.1992 33.81C59.1992 33.13 62.5292 32.32 64.6492 31.88C64.6592 31.88 64.6792 31.87 64.6892 31.87C65.6692 31.67 66.3892 31.54 66.3892 31.54Z" stroke="#333333" stroke-miterlimit="10" stroke-linecap="round" stroke-linejoin="round"/>
<path d="M67.8614 38.2798V44.0598L66.2714 51.2998L64.6914 44.0598V39.0498C65.7414 38.8398 66.8314 38.5698 67.8614 38.2798Z" stroke="#333333" stroke-miterlimit="10" stroke-linecap="round" stroke-linejoin="round"/>
<path d="M67.8614 26.3398V35.6498C67.8614 36.8198 66.4314 37.8098 64.6914 38.5498V34.8498C64.6914 33.9198 65.0614 32.3698 66.3914 31.5398C66.3914 31.5398 65.6714 31.6698 64.6914 31.8698V27.1098C65.7414 26.8998 66.8314 26.6298 67.8614 26.3398Z" stroke="#333333" stroke-miterlimit="10" stroke-linecap="round" stroke-linejoin="round"/>
<path d="M67.8614 12.7402V23.7102C67.8614 24.8802 66.4314 25.8702 64.6914 26.6102V22.9102C64.6914 21.9802 65.0614 20.4302 66.3914 19.6002C66.3914 19.6002 65.6714 19.7302 64.6914 19.9302V12.7402H67.8614V12.7402Z" stroke="#333333" stroke-miterlimit="10" stroke-linecap="round" stroke-linejoin="round"/>
</svg>
