<svg width="60" height="57" viewBox="0 0 60 57" fill="none" xmlns="http://www.w3.org/2000/svg">
<path d="M18.3 18.2V1L1 18.2H18.3Z" stroke="#252630" stroke-miterlimit="10" stroke-linecap="round" stroke-linejoin="round"/>
<path d="M46.5 20.4V1H18.3L1 18.2V55.8H46.5V51.4" stroke="#252630" stroke-miterlimit="10" stroke-linecap="round" stroke-linejoin="round"/>
<path d="M23 4.9H42.7V20.4" stroke="#252630" stroke-miterlimit="10" stroke-linecap="round" stroke-linejoin="round"/>
<path d="M23 9.6H38" stroke="#252630" stroke-miterlimit="10" stroke-linecap="round" stroke-linejoin="round"/>
<path d="M23 13.9H38" stroke="#252630" stroke-miterlimit="10" stroke-linecap="round" stroke-linejoin="round"/>
<path d="M43.5 51.4C52.0604 51.4 59 44.4604 59 35.9C59 27.3396 52.0604 20.4 43.5 20.4C34.9396 20.4 28 27.3396 28 35.9C28 44.4604 34.9396 51.4 43.5 51.4Z" stroke="#252630" stroke-miterlimit="10" stroke-linecap="round" stroke-linejoin="round"/>
<path d="M11.8998 37.2H8.7998V47.8H11.8998V37.2Z" stroke="#252630" stroke-miterlimit="10" stroke-linecap="round" stroke-linejoin="round"/>
<path d="M18.1 31.6H15V47.8H18.1V31.6Z" stroke="#252630" stroke-miterlimit="10" stroke-linecap="round" stroke-linejoin="round"/>
<path d="M24.3002 24.6H21.2002V47.8H24.3002V24.6Z" stroke="#252630" stroke-miterlimit="10" stroke-linecap="round" stroke-linejoin="round"/>
<path d="M31.8004 51.9H4.90039" stroke="#252630" stroke-miterlimit="10" stroke-linecap="round" stroke-linejoin="round"/>
<path d="M4.90039 51.9V18.3" stroke="#252630" stroke-miterlimit="10" stroke-linecap="round" stroke-linejoin="round"/>
<path d="M41.4004 27.5H45.3004C48.0004 27.5 50.3004 29.7 50.3004 32.5C50.3004 35.3 48.1004 37.5 45.3004 37.5H41.4004" stroke="#252630" stroke-miterlimit="10" stroke-linecap="round" stroke-linejoin="round"/>
<path d="M41.4004 27.5V44.3" stroke="#252630" stroke-miterlimit="10" stroke-linecap="round" stroke-linejoin="round"/>
<path d="M41.4002 37.5H36.7002" stroke="#252630" stroke-miterlimit="10" stroke-linecap="round" stroke-linejoin="round"/>
<path d="M41.4002 40.4H36.7002" stroke="#252630" stroke-miterlimit="10" stroke-linecap="round" stroke-linejoin="round"/>
<path d="M46.1004 40.4H41.4004" stroke="#252630" stroke-miterlimit="10" stroke-linecap="round" stroke-linejoin="round"/>
<path d="M31 35.9C31 29 36.6 23.4 43.5 23.4" stroke="#252630" stroke-miterlimit="10" stroke-linecap="round" stroke-linejoin="round"/>
<path d="M56 35.9C56 42.8 50.4 48.4 43.5 48.4" stroke="#252630" stroke-miterlimit="10" stroke-linecap="round" stroke-linejoin="round"/>
</svg>
