<svg width="32" height="32" viewBox="0 0 32 32" fill="none" xmlns="http://www.w3.org/2000/svg">
<path d="M11.6873 5.66211C7.78427 5.66211 4.625 8.93019 4.625 12.9676C4.625 22.1863 11.6873 28.2527 11.6873 28.2527C11.6873 28.2527 18.7627 22.1863 18.7627 12.9676C18.7627 8.93019 15.5903 5.66211 11.6873 5.66211ZM11.6873 9.69955C13.438 9.69955 14.8597 11.1566 14.8597 12.9676C14.8597 14.7787 13.438 16.2357 11.6873 16.2357C9.94969 16.2357 8.52802 14.7787 8.52802 12.9676C8.52802 11.1566 9.94969 9.69955 11.6873 9.69955Z" stroke="#FE0000" stroke-miterlimit="10" stroke-linecap="round" stroke-linejoin="round"/>
<path d="M11.6875 5.66382V1H30.9985L24.114 8.1285" stroke="#FE0000" stroke-miterlimit="10" stroke-linecap="round" stroke-linejoin="round"/>
<path d="M18.6172 15.2565H30.9976L24.113 8.13477" stroke="#FE0000" stroke-miterlimit="10" stroke-linecap="round" stroke-linejoin="round"/>
<path d="M11.6889 30.9991C5.78498 30.9991 1 29.7735 1 28.2552C1 27.268 3.0272 26.4101 6.06142 25.9199" stroke="#FE0000" stroke-miterlimit="10" stroke-linecap="round" stroke-linejoin="round"/>
<path d="M11.6875 30.9991C17.5914 30.9991 22.3764 29.7735 22.3764 28.2552C22.3764 27.268 20.3492 26.4101 17.3149 25.9199" stroke="#FE0000" stroke-miterlimit="10" stroke-linecap="round" stroke-linejoin="round"/>
</svg>
