<svg width="70" height="64" viewBox="0 0 70 64" fill="none" xmlns="http://www.w3.org/2000/svg">
<path d="M44.6016 56.6501L34.8516 62.2801L25.1016 56.6501C27.3316 52.7901 27.4916 47.8801 25.1016 43.7401V43.7301L34.8616 38.1001L44.6116 43.7301C42.3816 47.6001 42.2116 52.5101 44.6016 56.6501Z" stroke="#333333" stroke-miterlimit="10" stroke-linecap="round" stroke-linejoin="round"/>
<path d="M28.9609 44.9698L34.8609 41.5698L43.4409 46.4198" stroke="#333333" stroke-miterlimit="10" stroke-linecap="round" stroke-linejoin="round"/>
<path d="M34.8619 38.1001L25.1119 43.7301V43.7201C22.7219 39.5801 18.3819 37.2701 13.9319 37.2701H13.9219V26.0001L23.6719 20.3701C26.0619 24.5201 30.4019 26.8301 34.8619 26.8401V38.1001Z" stroke="#333333" stroke-miterlimit="10" stroke-linecap="round" stroke-linejoin="round"/>
<path d="M16.9102 34.56V27.74L25.1602 22.98" stroke="#333333" stroke-miterlimit="10" stroke-linecap="round" stroke-linejoin="round"/>
<path d="M49.3294 38.9999C47.2894 40.1799 45.6994 41.8299 44.5994 43.7299L34.8594 38.0999V26.8399C37.0594 26.8399 39.2794 26.2799 41.3194 25.0999C43.3594 23.9199 44.9594 22.2799 46.0494 20.3799L55.7994 26.0099V37.2699C53.5894 37.2799 51.3694 37.8299 49.3294 38.9999Z" stroke="#333333" stroke-miterlimit="10" stroke-linecap="round" stroke-linejoin="round"/>
<path d="M46.8906 24.3398L52.7906 27.7398V34.5598" stroke="#333333" stroke-miterlimit="10" stroke-linecap="round" stroke-linejoin="round"/>
<path d="M60.0691 52.8498C60.0691 55.2098 58.1591 57.1097 55.7991 57.1097C53.4491 57.1097 51.5391 55.2098 51.5391 52.8498C51.5391 49.7898 52.9291 47.1497 55.7991 43.2397C58.6891 47.1497 60.0691 49.7998 60.0691 52.8498Z" stroke="#333333" stroke-miterlimit="10" stroke-linecap="round" stroke-linejoin="round"/>
<path d="M66.9989 43.7198C64.7589 39.8598 60.5889 37.2598 55.7989 37.2598C48.6689 37.2598 42.8789 43.0398 42.8789 50.1798C42.8789 57.3098 48.6689 63.0998 55.7989 63.0998C60.5889 63.0998 64.7589 60.4998 66.9989 56.6398C68.0989 54.7398 68.7189 52.5298 68.7189 50.1798C68.7189 47.8298 68.0989 45.6298 66.9989 43.7198ZM51.5389 52.8498C51.5389 49.7898 52.9289 47.1498 55.7989 43.2398C58.6889 47.1498 60.0689 49.7898 60.0689 52.8498C60.0689 55.2098 58.1589 57.1098 55.7989 57.1098C53.4489 57.1198 51.5389 55.2098 51.5389 52.8498Z" stroke="#333333" stroke-miterlimit="10" stroke-linecap="round" stroke-linejoin="round"/>
<path d="M60.0691 52.8498C60.0691 55.2098 58.1591 57.1097 55.7991 57.1097C53.4491 57.1097 51.5391 55.2098 51.5391 52.8498C51.5391 49.7898 52.9291 47.1497 55.7991 43.2397C58.6891 47.1497 60.0691 49.7998 60.0691 52.8498Z" stroke="#333333" stroke-miterlimit="10" stroke-linecap="round" stroke-linejoin="round"/>
<path d="M1 50.1798C1 43.0498 6.78 37.2598 13.92 37.2598C18.7 37.2598 22.87 39.8598 25.11 43.7198C26.2 45.6198 26.84 47.8298 26.84 50.1798C26.84 52.5298 26.2 54.7398 25.11 56.6398C22.87 60.4998 18.7 63.0998 13.92 63.0998C6.78 63.0998 1 57.3198 1 50.1798Z" stroke="#333333" stroke-miterlimit="10" stroke-linecap="round" stroke-linejoin="round"/>
<path d="M13.9102 58.9999L17.7802 50.1899H13.9102" stroke="#333333" stroke-miterlimit="10" stroke-linecap="round" stroke-linejoin="round"/>
<path d="M13.9108 41.3799L10.0508 50.1899H13.9108" stroke="#333333" stroke-miterlimit="10" stroke-linecap="round" stroke-linejoin="round"/>
<path d="M46.0397 7.46C43.8097 3.6 39.6397 1 34.8597 1H34.8397C30.0597 1 25.8897 3.6 23.6597 7.46V7.47C22.5497 9.36 21.9297 11.58 21.9297 13.93C21.9297 21.06 27.7097 26.85 34.8397 26.85C41.9897 26.85 47.7697 21.06 47.7697 13.93C47.7797 11.57 47.1497 9.35 46.0397 7.46ZM34.6497 21.25C28.6597 20.85 27.0097 11.04 34.6497 6.57C32.6897 9.61 33.1497 14.18 34.6597 15.49C36.3097 16.91 38.6397 14.39 37.2797 9.35C41.5497 11.3 41.4797 21.7 34.6497 21.25Z" stroke="#333333" stroke-miterlimit="10" stroke-linecap="round" stroke-linejoin="round"/>
<path d="M34.6494 21.2498C28.6594 20.8498 27.0094 11.0398 34.6494 6.56982C32.6894 9.60982 33.1494 14.1798 34.6594 15.4898C36.3094 16.9098 38.6394 14.3898 37.2794 9.34982C41.5494 11.2998 41.4794 21.6998 34.6494 21.2498Z" stroke="#333333" stroke-miterlimit="10" stroke-linecap="round" stroke-linejoin="round"/>
<path d="M34.6494 21.2498C28.6594 20.8498 27.0094 11.0398 34.6494 6.56982C32.6894 9.60982 33.1494 14.1798 34.6594 15.4898C36.3094 16.9098 38.6394 14.3898 37.2794 9.34982C41.5494 11.2998 41.4794 21.6998 34.6494 21.2498Z" stroke="#333333" stroke-miterlimit="10" stroke-linecap="round" stroke-linejoin="round"/>
</svg>
