<svg width="35" height="39" viewBox="0 0 35 39" fill="none" xmlns="http://www.w3.org/2000/svg">
<path d="M13.7385 2.99121C16.825 4.27143 18.9925 7.30719 18.9925 10.85" stroke="#252630" stroke-miterlimit="10" stroke-linecap="round" stroke-linejoin="round"/>
<path d="M1.97607 10.85C1.97607 7.30085 4.14357 4.26509 7.23003 2.99121" stroke="#252630" stroke-miterlimit="10" stroke-linecap="round" stroke-linejoin="round"/>
<path d="M13.7388 1.19155V10.8502H7.22998V1.19155C8.25035 0.842973 9.34677 0.65918 10.4812 0.65918C11.622 0.65918 12.7121 0.842973 13.7388 1.19155Z" stroke="#252630" stroke-miterlimit="10" stroke-linecap="round" stroke-linejoin="round"/>
<path d="M19.9685 10.8506V12.5364H18.0482V13.9244H14.7653V16.1743H1.0061V10.8506H19.9685Z" stroke="#252630" stroke-miterlimit="10" stroke-linecap="round" stroke-linejoin="round"/>
<path d="M3.26904 16.1738V27.7465L8.35188 31.8153H10.4877" stroke="#252630" stroke-miterlimit="10" stroke-linecap="round" stroke-linejoin="round"/>
<path d="M14.7653 30.0977L12.6168 31.8152H10.4873" stroke="#252630" stroke-miterlimit="10" stroke-linecap="round" stroke-linejoin="round"/>
<path d="M3.2689 18.4043H1V21.9597L3.24989 24.2096" stroke="#252630" stroke-miterlimit="10" stroke-linecap="round" stroke-linejoin="round"/>
<path d="M28.5692 12.5361H18.0486V15.312H28.5692V12.5361Z" stroke="#252630" stroke-miterlimit="10" stroke-linecap="round" stroke-linejoin="round"/>
<path d="M31.8582 13.9238V36.1185H14.7654V13.9238H18.0483V15.3118H28.5752V13.9238H31.8582Z" stroke="#252630" stroke-miterlimit="10" stroke-linecap="round" stroke-linejoin="round"/>
<path d="M31.8584 15.9453H33.8801V38.1399H16.7874V36.1182" stroke="#252630" stroke-miterlimit="10" stroke-linecap="round" stroke-linejoin="round"/>
<path d="M23.3151 20.332L18.4541 23.71" stroke="#252630" stroke-miterlimit="10" stroke-linecap="round" stroke-linejoin="round"/>
<path d="M23.3149 20.3311L28.1696 23.709V29.7172" stroke="#252630" stroke-miterlimit="10" stroke-linecap="round" stroke-linejoin="round"/>
<path d="M21.9905 21.4209L25.2798 23.7088V29.717H18.4541V26.6178" stroke="#252630" stroke-miterlimit="10" stroke-linecap="round" stroke-linejoin="round"/>
</svg>
