<svg width="46" height="39" viewBox="0 0 46 39" fill="none" xmlns="http://www.w3.org/2000/svg">
<path d="M12.5945 17.8418C12.5945 21.5512 15.598 24.5547 19.3073 24.5547" stroke="#252630" stroke-miterlimit="10" stroke-linecap="round" stroke-linejoin="round"/>
<path d="M12.5945 17.8418C12.5945 14.1324 15.598 11.1289 19.3073 11.1289" stroke="#252630" stroke-miterlimit="10" stroke-linecap="round" stroke-linejoin="round"/>
<path d="M19.3074 11.1289H39.0597V7.07324L44.8602 12.8737" stroke="#252630" stroke-miterlimit="10" stroke-linecap="round" stroke-linejoin="round"/>
<path d="M23.5496 14.6122H39.0597V18.6679L44.8602 12.874" stroke="#252630" stroke-miterlimit="10" stroke-linecap="round" stroke-linejoin="round"/>
<path d="M18.2285 19.5862C18.2285 16.8358 20.606 14.6182 23.5495 14.6182" stroke="#252630" stroke-miterlimit="10" stroke-linecap="round" stroke-linejoin="round"/>
<path d="M18.2285 19.5869C18.2285 22.3373 20.606 24.555 23.5495 24.555" stroke="#252630" stroke-miterlimit="10" stroke-linecap="round" stroke-linejoin="round"/>
<path d="M38.1472 33.7383C41.8566 33.7383 44.8601 30.7349 44.8601 27.0255V16.7031" stroke="#252630" stroke-miterlimit="10" stroke-linecap="round" stroke-linejoin="round"/>
<path d="M38.1473 33.739H18.3883V37.788L12.5945 31.9941" stroke="#252630" stroke-miterlimit="10" stroke-linecap="round" stroke-linejoin="round"/>
<path d="M33.8985 30.2559H18.3883V26.2002L12.5945 31.994" stroke="#252630" stroke-miterlimit="10" stroke-linecap="round" stroke-linejoin="round"/>
<path d="M33.8987 30.2552C36.8422 30.2552 39.2197 28.0309 39.2197 25.2871V21.7109" stroke="#252630" stroke-miterlimit="10" stroke-linecap="round" stroke-linejoin="round"/>
<path d="M21.4646 11.129L20.519 5.04883H12.2744" stroke="#252630" stroke-miterlimit="10" stroke-linecap="round" stroke-linejoin="round"/>
<path d="M12.2744 24.5547H23.5491L22.0374 14.8184" stroke="#252630" stroke-miterlimit="10" stroke-linecap="round" stroke-linejoin="round"/>
<path d="M12.2747 24.5547H1L4.03011 5.04883H12.2747" stroke="#252630" stroke-miterlimit="10" stroke-linecap="round" stroke-linejoin="round"/>
<path d="M12.2747 1C10.0371 1 8.21899 2.81141 8.21899 5.05568V9.29784" stroke="#252630" stroke-miterlimit="10" stroke-linecap="round" stroke-linejoin="round"/>
<path d="M12.2744 1C14.512 1 16.3301 2.81141 16.3301 5.05568V9.29784" stroke="#252630" stroke-miterlimit="10" stroke-linecap="round" stroke-linejoin="round"/>
</svg>
