<svg width="52" height="39" viewBox="0 0 52 39" fill="none" xmlns="http://www.w3.org/2000/svg">
<path d="M24.9236 32.3493H1V13.7002" stroke="#252630" stroke-miterlimit="10" stroke-linecap="round" stroke-linejoin="round"/>
<path d="M24.9238 1H47.6122V12.0815" stroke="#252630" stroke-miterlimit="10" stroke-linecap="round" stroke-linejoin="round"/>
<path d="M50.8352 25.037L47.0372 28.8279V34.1947H41.6704L37.8795 37.9998L34.0815 34.1947H28.7147V28.8279L24.9238 25.037L28.7147 21.2461V15.8793H34.0815L37.8795 12.0742L39.5052 13.6999L41.6704 15.8793H47.0372V21.2461L50.8352 25.037Z" stroke="#252630" stroke-miterlimit="10" stroke-linecap="round" stroke-linejoin="round"/>
<path d="M44.8576 3.75391V15.879H41.6702L39.505 13.6996L37.8793 12.0739L34.0813 15.879H28.7145V21.2458L24.9236 25.0367L28.7145 28.8276V29.5943H3.75439V3.75391H44.8576Z" stroke="#252630" stroke-miterlimit="10" stroke-linecap="round" stroke-linejoin="round"/>
<path d="M13.5229 13.6856C13.5229 13.6856 10.1508 13.9979 7.82236 11.6766C6.8001 10.6543 6.8001 9.00735 7.82236 7.99219C8.84461 6.96994 10.4916 6.96993 11.5067 7.98509C13.8352 10.3136 13.5229 13.6856 13.5229 13.6856Z" stroke="#252630" stroke-miterlimit="10" stroke-linecap="round" stroke-linejoin="round"/>
<path d="M13.5226 13.6856C13.5226 13.6856 16.8946 13.9979 19.2231 11.6766C20.2453 10.6543 20.2453 9.00735 19.2231 7.99219C18.2008 6.96994 16.5538 6.96993 15.5387 7.98509C13.2031 10.3136 13.5226 13.6856 13.5226 13.6856Z" stroke="#252630" stroke-miterlimit="10" stroke-linecap="round" stroke-linejoin="round"/>
<path d="M13.5232 13.6855L17.1579 17.3273" stroke="#252630" stroke-miterlimit="10" stroke-linecap="round" stroke-linejoin="round"/>
<path d="M13.5231 13.6855L9.88135 17.3273" stroke="#252630" stroke-miterlimit="10" stroke-linecap="round" stroke-linejoin="round"/>
<path d="M44.8578 13.7002H39.5051" stroke="#252630" stroke-miterlimit="10" stroke-linecap="round" stroke-linejoin="round"/>
<path d="M36.2607 13.7002H3.75439" stroke="#252630" stroke-miterlimit="10" stroke-linecap="round" stroke-linejoin="round"/>
<path d="M13.5225 29.6014V3.75391" stroke="#252630" stroke-miterlimit="10" stroke-linecap="round" stroke-linejoin="round"/>
<path d="M33.4355 29.4807L37.8795 25.0367L42.3235 20.5928" stroke="#252630" stroke-miterlimit="10" stroke-linecap="round" stroke-linejoin="round"/>
<path d="M35.1104 23.9577C36.0396 23.9577 36.7929 23.2044 36.7929 22.2752C36.7929 21.346 36.0396 20.5928 35.1104 20.5928C34.1812 20.5928 33.428 21.346 33.428 22.2752C33.428 23.2044 34.1812 23.9577 35.1104 23.9577Z" stroke="#252630" stroke-miterlimit="10" stroke-linecap="round" stroke-linejoin="round"/>
<path d="M40.6407 29.4811C41.5699 29.4811 42.3232 28.7279 42.3232 27.7987C42.3232 26.8695 41.5699 26.1162 40.6407 26.1162C39.7115 26.1162 38.9583 26.8695 38.9583 27.7987C38.9583 28.7279 39.7115 29.4811 40.6407 29.4811Z" stroke="#252630" stroke-miterlimit="10" stroke-linecap="round" stroke-linejoin="round"/>
</svg>
