<svg width="63" height="51" viewBox="0 0 63 51" fill="none" xmlns="http://www.w3.org/2000/svg">
<path d="M13.94 40.52H1V49.74H13.94V40.52Z" stroke="#333333" stroke-miterlimit="10" stroke-linecap="round" stroke-linejoin="round"/>
<path d="M20.4114 40.52H13.9414V49.74H20.4114V40.52Z" stroke="#333333" stroke-miterlimit="10" stroke-linecap="round" stroke-linejoin="round"/>
<path d="M7.46234 40.5142H20.4023V31.2942H7.46234L7.46234 40.5142Z" stroke="#333333" stroke-miterlimit="10" stroke-linecap="round" stroke-linejoin="round"/>
<path d="M7.47 31.2998H1V40.5198H7.47V31.2998Z" stroke="#333333" stroke-miterlimit="10" stroke-linecap="round" stroke-linejoin="round"/>
<path d="M13.94 22.0698H1V31.2898H13.94V22.0698Z" stroke="#333333" stroke-miterlimit="10" stroke-linecap="round" stroke-linejoin="round"/>
<path d="M20.4114 22.0698H13.9414V31.2898H20.4114V22.0698Z" stroke="#333333" stroke-miterlimit="10" stroke-linecap="round" stroke-linejoin="round"/>
<path d="M13.94 3.62988H1V12.8499H13.94V3.62988Z" stroke="#333333" stroke-miterlimit="10" stroke-linecap="round" stroke-linejoin="round"/>
<path d="M20.4114 3.62988H13.9414V12.8499H20.4114V3.62988Z" stroke="#333333" stroke-miterlimit="10" stroke-linecap="round" stroke-linejoin="round"/>
<path d="M7.46234 22.0752H20.4023V12.8552L7.46234 12.8552L7.46234 22.0752Z" stroke="#333333" stroke-miterlimit="10" stroke-linecap="round" stroke-linejoin="round"/>
<path d="M7.47 12.8501H1V22.0701H7.47V12.8501Z" stroke="#333333" stroke-miterlimit="10" stroke-linecap="round" stroke-linejoin="round"/>
<path d="M27.6584 36.71L20.3984 43.96V49.74H22.6784L34.9084 37.51L27.6584 36.71Z" stroke="#333333" stroke-miterlimit="10" stroke-linecap="round" stroke-linejoin="round"/>
<path d="M34.9097 37.5103L22.6797 49.7403H30.7397L42.1697 38.3103L34.9097 37.5103Z" stroke="#333333" stroke-miterlimit="10" stroke-linecap="round" stroke-linejoin="round"/>
<path d="M20.3984 35.9102V43.9602L27.6584 36.7102L20.3984 35.9102Z" stroke="#333333" stroke-miterlimit="10" stroke-linecap="round" stroke-linejoin="round"/>
<path d="M62.1784 42.46L54.8984 49.74H62.1784V42.46Z" stroke="#333333" stroke-miterlimit="10" stroke-linecap="round" stroke-linejoin="round"/>
<path d="M62.1777 40.5202L56.6777 39.9102L46.8477 49.7402H54.8977L62.1777 42.4602V40.5202Z" stroke="#333333" stroke-miterlimit="10" stroke-linecap="round" stroke-linejoin="round"/>
<path d="M49.4191 39.1104L38.7891 49.7404H46.8491L56.6791 39.9104L49.4191 39.1104Z" stroke="#333333" stroke-miterlimit="10" stroke-linecap="round" stroke-linejoin="round"/>
<path d="M42.1683 38.3101L30.7383 49.7401H38.7883L49.4183 39.1101L42.1683 38.3101Z" stroke="#333333" stroke-miterlimit="10" stroke-linecap="round" stroke-linejoin="round"/>
<path d="M1 3.63V1" stroke="#333333" stroke-miterlimit="10" stroke-linecap="round" stroke-linejoin="round"/>
<path d="M20.3984 3.63V1" stroke="#333333" stroke-miterlimit="10" stroke-linecap="round" stroke-linejoin="round"/>
</svg>
