<svg width="33" height="59" viewBox="0 0 33 59" fill="none" xmlns="http://www.w3.org/2000/svg">
<path d="M23.5101 34.7598C19.5801 34.7598 10.3801 35.2998 9.39011 37.7998C8.48011 40.1298 13.4101 41.1998 16.4501 42.1798" stroke="#252630" stroke-miterlimit="10" stroke-linecap="round" stroke-linejoin="round"/>
<path d="M16.4001 35.19V31.54" stroke="#252630" stroke-miterlimit="10" stroke-linecap="round" stroke-linejoin="round"/>
<path d="M9.40015 49.5899C13.3301 49.5899 22.5301 49.0499 23.5201 46.5499C24.4301 44.2199 19.5001 43.1499 16.4601 42.1699" stroke="#252630" stroke-miterlimit="10" stroke-linecap="round" stroke-linejoin="round"/>
<path d="M16.51 49.1602V52.8102" stroke="#252630" stroke-miterlimit="10" stroke-linecap="round" stroke-linejoin="round"/>
<path d="M16.4 27.2995C17.9961 27.2995 19.29 26.0056 19.29 24.4095C19.29 22.8134 17.9961 21.5195 16.4 21.5195C14.8039 21.5195 13.51 22.8134 13.51 24.4095C13.51 26.0056 14.8039 27.2995 16.4 27.2995Z" stroke="#252630" stroke-miterlimit="10" stroke-linecap="round" stroke-linejoin="round"/>
<path d="M16.4001 1C11.0901 1 6.81011 4.84 7.34011 11.1C7.91011 17.79 13.5101 24.41 16.4001 24.41" stroke="#252630" stroke-miterlimit="10" stroke-linecap="round" stroke-linejoin="round"/>
<path d="M19.0299 23.21C18.0599 23.97 17.1399 24.41 16.3999 24.41" stroke="#252630" stroke-miterlimit="10" stroke-linecap="round" stroke-linejoin="round"/>
<path d="M16.3999 1C21.7099 1 25.9899 4.84 25.4599 11.1C25.2299 13.74 24.2299 16.37 22.9099 18.59" stroke="#252630" stroke-miterlimit="10" stroke-linecap="round" stroke-linejoin="round"/>
<path d="M16.4 13.96L1 24.91V57.56H16.51" stroke="#252630" stroke-miterlimit="10" stroke-linecap="round" stroke-linejoin="round"/>
<path d="M16.4 13.96L31.8 24.91V57.56H16.29" stroke="#252630" stroke-miterlimit="10" stroke-linecap="round" stroke-linejoin="round"/>
</svg>
