<svg width="69" height="67" viewBox="0 0 69 67" fill="none" xmlns="http://www.w3.org/2000/svg">
<path d="M25.0167 31.523C24.9588 31.523 24.901 31.4964 24.8666 31.4464L12.6206 14.9511C12.5878 14.9074 12.5769 14.8527 12.5862 14.8011C12.5972 14.7479 12.63 14.7026 12.6769 14.676L37.1673 0.536779C37.2501 0.489878 37.3564 0.511766 37.4112 0.588371L49.6571 17.0836C49.69 17.1274 49.7009 17.1821 49.6915 17.2337C49.6806 17.2868 49.6477 17.3322 49.6008 17.3588L25.1105 31.498C25.0808 31.5152 25.0479 31.523 25.0167 31.523ZM13.0474 14.8964L25.0683 31.0884L49.2288 17.1383L37.2095 0.946384L13.0474 14.8964Z" fill="#333333"/>
<path d="M0.52667 17.384C0.450064 17.384 0.378148 17.3355 0.350007 17.2605C0.317176 17.1745 0.353133 17.0776 0.432866 17.0322L24.9232 2.89302C24.9404 2.88207 24.9607 2.87582 24.9811 2.87113L37.2255 0.515117C37.3146 0.499483 37.4053 0.547947 37.4381 0.633933C37.4709 0.719919 37.435 0.81685 37.3552 0.862188L12.8649 15.0014C12.8477 15.0123 12.8273 15.0186 12.807 15.0233L0.562627 17.3793C0.55012 17.3824 0.537613 17.384 0.52667 17.384ZM25.0842 3.2354L1.58977 16.7993L12.7054 14.6606L36.1999 1.09669L25.0842 3.2354Z" fill="#333333"/>
<path d="M22.9753 56.3073C22.8721 56.3073 22.7861 56.2229 22.7861 56.1182V28.5902C22.7861 28.487 22.8706 28.401 22.9753 28.401C23.08 28.401 23.1645 28.4854 23.1645 28.5902V56.1197C23.1629 56.2229 23.0785 56.3073 22.9753 56.3073Z" fill="#333333"/>
<path d="M2.56515 44.5226C2.46196 44.5226 2.37598 44.4382 2.37598 44.3334V16.7992C2.37598 16.696 2.4604 16.61 2.56515 16.61C2.66833 16.61 2.75432 16.6944 2.75432 16.7992V44.335C2.75432 44.4382 2.66833 44.5226 2.56515 44.5226Z" fill="#333333"/>
<path d="M47.4675 29.2936C47.3643 29.2936 47.2783 29.2091 47.2783 29.1044V18.3718C47.2783 18.2686 47.3627 18.1826 47.4675 18.1826C47.5722 18.1826 47.6567 18.267 47.6567 18.3718V29.1044C47.6567 29.2091 47.5722 29.2936 47.4675 29.2936Z" fill="#333333"/>
<path d="M29.0227 29.035L16.7783 12.5382L16.9284 12.4272L29.1728 28.9225L29.0227 29.035Z" fill="#333333"/>
<path d="M33.1047 26.6782L20.8604 10.1814L21.0104 10.0688L33.2548 26.5656L33.1047 26.6782Z" fill="#333333"/>
<path d="M37.1863 24.3207L34.1221 20.1918L34.2722 20.0808L37.3364 24.2081L37.1863 24.3207Z" fill="#333333"/>
<path d="M28.0066 11.9547L24.9424 7.82582L25.0925 7.71326L28.1583 11.8421L28.0066 11.9547Z" fill="#333333"/>
<path d="M41.2684 21.9652L29.0225 5.46842L29.1725 5.35742L41.4185 21.8527L41.2684 21.9652Z" fill="#333333"/>
<path d="M33.2522 2.99913L33.1016 3.11096L45.3481 19.606L45.4987 19.4942L33.2522 2.99913Z" fill="#333333"/>
<path d="M4.6258 14.9308L4.58984 14.7464L16.8358 12.3888L16.8702 12.5748L4.6258 14.9308Z" fill="#333333"/>
<path d="M8.68479 12.5885L8.65039 12.404L20.9182 10.0339L20.9526 10.2184L8.68479 12.5885Z" fill="#333333"/>
<path d="M12.7883 10.2185L12.7539 10.034L24.9999 7.67798L25.0343 7.86246L12.7883 10.2185Z" fill="#333333"/>
<path d="M16.8703 7.86042L16.8359 7.67594L29.0803 5.31836L29.1147 5.5044L16.8703 7.86042Z" fill="#333333"/>
<path d="M20.9524 5.50458L20.918 5.31854L33.1624 2.96252L33.1968 3.147L20.9524 5.50458Z" fill="#333333"/>
<path d="M21.0323 38.5676L20.8916 38.4863L4.51367 29.0309V25.443L6.01295 26.3138V28.1695L19.5346 35.9677V34.1182L21.0339 34.9874V38.5676H21.0323ZM4.69971 28.9231L20.8432 38.2424V35.0969L19.7191 34.4465V36.2944L19.5784 36.2131L5.82222 28.279V26.4232L4.69815 25.7713V28.9231H4.69971Z" fill="#333333"/>
<path d="M19.6263 30.6329V29.7371L5.91699 21.8248V28.2222L6.88941 28.7834V23.2803L19.6263 30.6329Z" fill="#333333"/>
<path d="M19.6266 30.8213C19.5937 30.8213 19.5609 30.8119 19.5328 30.7963L7.07732 23.6063V28.7827C7.07732 28.8499 7.04136 28.9124 6.98196 28.9453C6.92567 28.9781 6.85063 28.9781 6.79435 28.9453L5.82193 28.3856C5.76252 28.3527 5.72656 28.2902 5.72656 28.223V21.8241C5.72656 21.7568 5.76252 21.6943 5.82193 21.6615C5.87821 21.6286 5.95325 21.6286 6.00953 21.6615L19.7188 29.5753C19.7782 29.6081 19.8142 29.6707 19.8142 29.7379V30.6337C19.8142 30.7009 19.7782 30.7635 19.7188 30.7963C19.6922 30.8135 19.6594 30.8213 19.6266 30.8213ZM6.88972 23.092C6.92255 23.092 6.95538 23.1013 6.98352 23.117L19.439 30.307V29.8458L6.10646 22.1492V28.1135L6.70055 28.4575V23.2811C6.70055 23.2139 6.73651 23.1514 6.79591 23.1185C6.82405 23.0998 6.85689 23.092 6.88972 23.092Z" fill="#333333"/>
<path d="M12.3339 39.9925V39.0967L8.25195 36.7391V46.1664L9.22281 46.7276V38.1962L12.3339 39.9925Z" fill="#333333"/>
<path d="M9.22409 46.9149C9.19126 46.9149 9.15843 46.9055 9.13029 46.8899L8.15787 46.3286C8.09846 46.2958 8.0625 46.2333 8.0625 46.166V36.7404C8.0625 36.6732 8.09846 36.6107 8.15787 36.5778C8.21415 36.545 8.28919 36.545 8.34547 36.5778L12.4275 38.9339C12.4869 38.9667 12.5228 39.0292 12.5228 39.0964V39.9923C12.5228 40.0595 12.4869 40.122 12.4275 40.1549C12.3712 40.1877 12.2961 40.1877 12.2399 40.1549L9.4117 38.5227V46.7257C9.4117 46.793 9.37574 46.8555 9.31633 46.8883C9.28819 46.9055 9.25536 46.9149 9.22409 46.9149ZM8.44084 46.0566L9.03492 46.4005V38.1959C9.03492 38.1287 9.07088 38.0662 9.13029 38.0333C9.18657 38.0005 9.26161 38.0005 9.31789 38.0333L12.1445 39.6655V39.2043L8.43928 37.0656V46.0566H8.44084Z" fill="#333333"/>
<path d="M19.6262 36.3187C19.5934 36.3187 19.5606 36.3093 19.5324 36.2937L6.79556 28.9474C6.73615 28.9146 6.7002 28.852 6.7002 28.7848V23.2833C6.7002 23.2161 6.73615 23.1535 6.79556 23.1207C6.85184 23.0879 6.92689 23.0879 6.98317 23.1207L19.72 30.4733C19.7794 30.5061 19.8154 30.5686 19.8154 30.6358V36.1311C19.8154 36.1983 19.7794 36.2609 19.72 36.2937C19.6919 36.3109 19.6591 36.3187 19.6262 36.3187ZM7.07697 28.6754L19.4371 35.8044V30.7437L7.07697 23.6085V28.6754Z" fill="#333333"/>
<path d="M12.3329 48.7111C12.3001 48.7111 12.2673 48.7017 12.2391 48.6861L9.12955 46.8897C9.07014 46.8569 9.03418 46.7944 9.03418 46.7271V38.1973C9.03418 38.1301 9.07014 38.0676 9.12955 38.0348C9.18583 38.0019 9.26087 38.0019 9.31715 38.0348L12.4267 39.8311C12.4861 39.8639 12.5221 39.9264 12.5221 39.9937V48.5235C12.5221 48.5907 12.4861 48.6532 12.4267 48.6861C12.3986 48.7017 12.3657 48.7111 12.3329 48.7111ZM9.41095 46.6177L12.1437 48.1967V40.1015L9.41095 38.5241V46.6177Z" fill="#333333"/>
<path d="M12.7722 32.3649C12.669 32.3649 12.583 32.2804 12.583 32.1757V26.2286C12.583 26.1254 12.6674 26.0394 12.7722 26.0394C12.8753 26.0394 12.9613 26.1238 12.9613 26.2286V32.1757C12.9598 32.2804 12.8753 32.3649 12.7722 32.3649Z" fill="#333333"/>
<path d="M26.251 35.4669V32.6857L29.1917 30.991V33.7722L26.251 35.4669ZM26.4386 32.7935V35.1417L29.0041 33.6643V31.3161L26.4386 32.7935Z" fill="#333333"/>
<path d="M29.0039 33.8788V31.0976L31.9462 29.3982V32.1841L31.5069 32.4374L29.0039 33.8788ZM29.1915 31.207V33.5552L31.7586 32.0763V29.7249L29.1915 31.207Z" fill="#333333"/>
<path d="M38.4951 28.4254V25.6442L41.4374 23.9495V26.7307L38.4951 28.4254ZM38.6827 25.752V28.1002L41.2498 26.6228V24.2746L38.6827 25.752Z" fill="#333333"/>
<path d="M41.25 26.8373V24.0561L44.1907 22.3567V25.1426L41.25 26.8373ZM41.4376 24.1655V26.5137L44.0031 25.0348V22.6834L41.4376 24.1655Z" fill="#333333"/>
<path d="M2.27832 51.953V50.1019L8.68974 53.804V55.6551L2.27832 51.953Z" fill="#333333"/>
<path d="M8.68945 55.8438C8.65662 55.8438 8.62379 55.8345 8.59565 55.8188L2.18423 52.1167C2.12482 52.0839 2.08887 52.0214 2.08887 51.9542V50.1031C2.08887 50.0359 2.12482 49.9733 2.18423 49.9405C2.24051 49.9077 2.31556 49.9077 2.37184 49.9405L8.78325 53.6426C8.84266 53.6754 8.87862 53.738 8.87862 53.8052V55.6562C8.87862 55.7235 8.84266 55.786 8.78325 55.8188C8.75511 55.8345 8.72228 55.8438 8.68945 55.8438ZM2.46721 51.8447L8.50185 55.3295V53.9131L2.46721 50.4283V51.8447Z" fill="#333333"/>
<path d="M8.68947 53.9905C8.65664 53.9905 8.62381 53.9811 8.59567 53.9655L2.18423 50.2634C2.12483 50.2305 2.08887 50.168 2.08887 50.1008C2.08887 50.0336 2.12483 49.971 2.18423 49.9382L3.78827 49.0127C3.84455 48.9798 3.91959 48.9798 3.97587 49.0127L10.3873 52.7147C10.4467 52.7476 10.4827 52.8101 10.4827 52.8773C10.4827 52.9446 10.4467 53.0071 10.3873 53.0399L8.78327 53.9655C8.75513 53.9811 8.7223 53.9905 8.68947 53.9905ZM2.65481 50.0992L8.68947 53.584L9.91516 52.8758L3.8805 49.391L2.65481 50.0992Z" fill="#333333"/>
<path d="M10.2942 51.0301V52.8795L3.88281 49.1743V47.3264L10.2942 51.0301Z" fill="#333333"/>
<path d="M10.2945 53.0664C10.2617 53.0664 10.2289 53.057 10.2007 53.0414L3.78775 49.3377C3.72834 49.3049 3.69238 49.2423 3.69238 49.1751V47.3256C3.69238 47.2584 3.72834 47.1959 3.78775 47.1631C3.84403 47.1302 3.91907 47.1302 3.97535 47.1631L10.3884 50.8667C10.4478 50.8995 10.4837 50.9621 10.4837 51.0293V52.8788C10.4837 52.946 10.4478 53.0085 10.3884 53.0414C10.3602 53.0586 10.3274 53.0664 10.2945 53.0664ZM4.07072 49.0657L10.1069 52.552V51.1387L4.07072 47.6524V49.0657Z" fill="#333333"/>
<path d="M10.2945 51.2177C10.2617 51.2177 10.2289 51.2084 10.2007 51.1927L3.78775 47.4891C3.72834 47.4547 3.69238 47.3937 3.69238 47.3265C3.69238 47.2593 3.72834 47.1967 3.78775 47.1639L6.99424 45.3144C7.05052 45.2816 7.12557 45.2816 7.18185 45.3144L13.5948 49.0118C13.6527 49.0462 13.6886 49.1072 13.6886 49.1744C13.6886 49.2416 13.6527 49.3042 13.5948 49.337L10.3883 51.1927C10.3602 51.2084 10.3274 51.2177 10.2945 51.2177ZM4.25989 47.3249L10.2961 50.8113L13.1258 49.1728L7.08805 45.6928L4.25989 47.3249Z" fill="#333333"/>
<path d="M8.68722 55.8404C8.65439 55.8404 8.62155 55.831 8.59341 55.8154C8.534 55.781 8.49805 55.72 8.49805 55.6528V53.8033C8.49805 53.7361 8.534 53.6735 8.59341 53.6407L10.1052 52.7699V51.0299C10.1052 50.9627 10.1412 50.9001 10.199 50.8673L13.4055 49.0131C13.4649 48.9787 13.5368 48.9803 13.5947 49.0131C13.6541 49.046 13.69 49.1085 13.69 49.1757V52.8793C13.69 52.9466 13.6541 53.0091 13.5962 53.0419L8.78258 55.8154C8.75288 55.8326 8.72005 55.8404 8.68722 55.8404ZM8.87639 53.9127V55.3276L13.3117 52.7715V49.5025L10.4835 51.1393V52.8793C10.4835 52.9466 10.4476 53.0091 10.3882 53.0419L8.87639 53.9127Z" fill="#333333"/>
<path d="M50.111 64.1733C50.0079 64.1733 49.9219 64.0889 49.9219 63.9841V50.5907C49.9219 50.4875 50.0063 50.4015 50.111 50.4015C50.2142 50.4015 50.3002 50.4859 50.3002 50.5907V63.9857C50.2986 64.0889 50.2142 64.1733 50.111 64.1733Z" fill="#333333"/>
<path d="M66.4361 54.5564V56.8718L50.1113 66.2989V63.9851L66.4361 54.5564Z" fill="#333333"/>
<path d="M50.111 66.4877C50.0782 66.4877 50.0454 66.4783 50.0172 66.4627C49.9578 66.4299 49.9219 66.3673 49.9219 66.3001V63.9848C49.9219 63.9175 49.9578 63.855 50.0172 63.8222L66.3421 54.395C66.3983 54.3622 66.4734 54.3622 66.5297 54.395C66.5891 54.4278 66.625 54.4904 66.625 54.5576V56.8714C66.625 56.9386 66.5891 57.0011 66.5297 57.034L50.2048 66.4612C50.1751 66.4783 50.1423 66.4877 50.111 66.4877ZM50.2986 64.0926V65.9718L66.2467 56.7619V54.8828L50.2986 64.0926Z" fill="#333333"/>
<path d="M66.4343 54.7469C66.3311 54.7469 66.2451 54.6625 66.2451 54.5578V45.0899C66.2451 44.9867 66.3295 44.9008 66.4343 44.9008C66.539 44.9008 66.6234 44.9852 66.6234 45.0899V54.5578C66.6234 54.6625 66.539 54.7469 66.4343 54.7469Z" fill="#333333"/>
<path d="M52.1479 53.5257C52.0901 53.5257 52.0322 53.4991 51.9978 53.4491L39.7534 36.9538C39.7206 36.9101 39.7097 36.8553 39.719 36.8038C39.73 36.7506 39.7628 36.7053 39.8097 36.6787L56.1361 27.2531C56.219 27.2046 56.3253 27.2265 56.38 27.3047L68.6244 43.7999C68.6572 43.8437 68.6682 43.8984 68.6588 43.95C68.6478 44.0031 68.615 44.0485 68.5681 44.075L52.2417 53.5022C52.212 53.5179 52.1807 53.5257 52.1479 53.5257ZM40.1802 36.8991L52.1995 53.0911L68.1976 43.8546L56.1783 27.6627L40.1802 36.8991Z" fill="#333333"/>
<path d="M27.6575 39.3876C27.5809 39.3876 27.509 39.3392 27.4809 39.2641C27.448 39.1781 27.484 39.0812 27.5637 39.0359L43.8917 29.6087C43.9089 29.5977 43.9292 29.5915 43.9495 29.5868L56.1939 27.2308C56.2846 27.2136 56.3752 27.2636 56.4065 27.3496C56.4393 27.4356 56.4034 27.5325 56.3237 27.5779L39.9973 37.0035C39.9801 37.0144 39.9598 37.0207 39.9394 37.0254L27.6935 39.3814C27.681 39.3861 27.67 39.3876 27.6575 39.3876ZM44.0527 29.9511L28.7206 38.8029L39.8363 36.6642L55.1668 27.8139L44.0527 29.9511Z" fill="#333333"/>
<path d="M56.1546 51.0387L43.9102 34.5435L44.0602 34.4309L56.3046 50.9261L56.1546 51.0387Z" fill="#333333"/>
<path d="M48.1418 32.0703L47.9912 32.1821L60.2377 48.6772L60.3884 48.5654L48.1418 32.0703Z" fill="#333333"/>
<path d="M64.3192 46.324L52.0732 29.8288L52.2233 29.7162L64.4693 46.213L64.3192 46.324Z" fill="#333333"/>
<path d="M31.7571 36.9367L31.7227 36.7522L43.9686 34.3962L44.003 34.5807L31.7571 36.9367Z" fill="#333333"/>
<path d="M35.8342 34.5811L35.7998 34.3966L48.0489 32.0375L48.0833 32.222L35.8342 34.5811Z" fill="#333333"/>
<path d="M39.9211 32.222L39.8867 32.0375L52.1311 29.6815L52.1655 29.866L39.9211 32.222Z" fill="#333333"/>
<path d="M32.1412 56.1206C32.11 56.1206 32.0803 56.1128 32.0505 56.0972L29.6054 54.6808C29.5163 54.6292 29.485 54.5135 29.5366 54.4244C29.5882 54.3353 29.7055 54.304 29.793 54.3556L32.2382 55.7658C32.2976 55.7986 32.3335 55.8611 32.3335 55.9283C32.3335 55.9956 32.2976 56.0612 32.2382 56.0941C32.21 56.1128 32.1756 56.1206 32.1412 56.1206Z" fill="#333333"/>
<path d="M47.6582 64.8807L50.1112 66.2972L47.6582 64.887V64.8807Z" fill="#333333"/>
<path d="M50.1109 66.4873C50.0781 66.4873 50.0468 66.4795 50.0171 66.4623H50.0155L47.5641 65.0537C47.5047 65.0209 47.4688 64.9584 47.4688 64.8911C47.4688 64.8239 47.5047 64.7582 47.5641 64.7254C47.6235 64.691 47.6939 64.6895 47.7517 64.7223L50.2031 66.1387C50.2938 66.1903 50.3251 66.306 50.2719 66.3951C50.2391 66.4529 50.175 66.4873 50.1109 66.4873Z" fill="#333333"/>
<path d="M50.1108 64.1737C50.078 64.1737 50.0452 64.1643 50.017 64.1487L47.5656 62.7323C47.5062 62.6994 47.4703 62.6369 47.4703 62.5697V51.8011L32.3352 43.0634V53.6146C32.3352 53.6819 32.2992 53.7444 32.2398 53.7772C32.1835 53.8101 32.1085 53.8101 32.0522 53.7772L29.6071 52.3671C29.5477 52.3342 29.5117 52.2717 29.5117 52.2045V38.811C29.5117 38.7203 29.5758 38.6437 29.6649 38.6265L39.8675 36.6598C39.9379 36.6473 40.0114 36.6738 40.0536 36.7317L50.2609 50.4801C50.2859 50.5129 50.2984 50.552 50.2984 50.5926V63.9861C50.2984 64.0533 50.2625 64.1159 50.2031 64.1487C50.1749 64.1659 50.1421 64.1737 50.1108 64.1737ZM47.847 62.4618L49.9216 63.6609V50.6552L39.8222 37.0522L29.8901 38.9673V52.0966L31.9584 53.2895V42.7382C31.9584 42.671 31.9944 42.6084 32.0538 42.5756C32.1101 42.5428 32.1851 42.5428 32.2414 42.5756L47.7532 51.5307C47.8126 51.5635 47.8486 51.626 47.8486 51.6932V62.4618H47.847Z" fill="#333333"/>
<path d="M47.6584 51.6921V52.702L33.1955 44.3489V56.537L32.1465 55.9335V42.7355L47.6584 51.6921Z" fill="#333333"/>
<path d="M33.1952 56.7239C33.1624 56.7239 33.1311 56.7145 33.1014 56.6988L32.0524 56.0954C31.993 56.0625 31.957 56 31.957 55.9328V42.7347C31.957 42.6675 31.993 42.6049 32.0524 42.5721C32.1087 42.5393 32.1837 42.5393 32.24 42.5721L47.7519 51.5272C47.8113 51.56 47.8472 51.6225 47.8472 51.6898V52.6997C47.8472 52.7669 47.8113 52.8295 47.7519 52.8623C47.6956 52.8951 47.6205 52.8951 47.5643 52.8623L33.3828 44.6733V56.5347C33.3828 56.6019 33.3469 56.6644 33.289 56.6973C33.2609 56.716 33.2281 56.7239 33.1952 56.7239ZM32.3354 55.8233L33.0076 56.2095V44.3481C33.0076 44.2809 33.0436 44.2183 33.103 44.1855C33.1593 44.1527 33.2343 44.1527 33.2906 44.1855L47.472 52.3745V51.7992L32.3369 43.0614V55.8233H32.3354Z" fill="#333333"/>
<path d="M47.6579 65.0797C47.625 65.0797 47.5922 65.0703 47.5641 65.0546L33.1012 56.7015C33.0418 56.6687 33.0059 56.6061 33.0059 56.5389V44.3508C33.0059 44.2836 33.0418 44.221 33.1012 44.1882C33.1575 44.1554 33.2325 44.1554 33.2888 44.1882L47.7517 52.5398C47.8111 52.5726 47.847 52.6351 47.847 52.7024V64.8905C47.847 64.9577 47.8111 65.0203 47.7517 65.0531C47.7235 65.0703 47.6907 65.0797 47.6579 65.0797ZM33.3842 56.4295L47.4703 64.5637V52.8102L33.3842 44.676V56.4295Z" fill="#333333"/>
<path d="M52.0537 57.0308V55.2423L56.3233 52.7769V54.5654L52.0537 57.0308ZM52.2413 55.3517V56.7056L56.1357 54.4591V53.1052L52.2413 55.3517Z" fill="#333333"/>
<path d="M56.1357 54.6751V52.8866L60.4053 50.4211V52.2097L56.1357 54.6751ZM56.3233 52.9945V54.3484L60.2177 52.1002V50.7463L56.3233 52.9945Z" fill="#333333"/>
<path d="M60.2178 52.3193V50.5308L64.4874 48.0653V49.8538L60.2178 52.3193ZM60.4054 50.6386V51.9925L64.2998 49.7444V48.3905L60.4054 50.6386Z" fill="#333333"/>
<path d="M31.1364 22.0975C31.1036 22.0975 31.0708 22.0882 31.0426 22.0725C30.9832 22.0397 30.9473 21.9772 30.9473 21.9099V17.6794C30.9473 17.6528 30.9535 17.6263 30.9645 17.6013L33.1485 12.7954C33.1751 12.7344 33.2329 12.6938 33.297 12.686C33.3658 12.6782 33.4284 12.7063 33.4674 12.7579L35.3623 15.203C35.3873 15.2359 35.4013 15.2765 35.4013 15.3187V19.5477C35.4013 19.6149 35.3654 19.6774 35.3075 19.7103L31.2287 22.071C31.2021 22.0882 31.1693 22.0975 31.1364 22.0975ZM31.3256 17.7216V21.5832L35.0261 19.4414V15.3859L33.3627 13.2379L31.3256 17.7216ZM32.8014 19.9541C32.7686 19.9541 32.7358 19.9448 32.7061 19.9291C32.6482 19.8963 32.6123 19.8338 32.6123 19.7665V16.2911C32.6123 16.2239 32.6482 16.1614 32.7076 16.1285L33.4627 15.6955C33.5222 15.6611 33.5925 15.6627 33.6519 15.6955C33.7098 15.7283 33.7457 15.7909 33.7457 15.8581V19.3335C33.7457 19.4007 33.7098 19.4632 33.6504 19.4961L32.8952 19.9291C32.8655 19.9448 32.8343 19.9541 32.8014 19.9541ZM32.9906 16.399V19.4398L33.3689 19.2225V16.1817L32.9906 16.399ZM33.5565 19.3319H33.5612H33.5565Z" fill="#333333"/>
<path d="M33.3203 13.0617C33.264 13.0617 33.2078 13.0367 33.1702 12.9866L29.576 8.23552C29.5119 8.15266 29.5291 8.03541 29.612 7.97131C29.6948 7.90721 29.8137 7.92441 29.8762 8.00883L33.4704 12.7599C33.5345 12.8428 33.5173 12.9601 33.4345 13.0242C33.4001 13.0492 33.3594 13.0617 33.3203 13.0617Z" fill="#333333"/>
<path d="M31.1373 17.6811V21.9085L27.6572 12.8752L31.1373 17.6811Z" fill="#333333"/>
<path d="M31.1373 22.0984C31.0607 22.0984 30.9903 22.0515 30.9622 21.978L27.4805 12.9432C27.4461 12.8557 27.4836 12.7556 27.5665 12.7103C27.6509 12.6649 27.7541 12.6884 27.8088 12.765L31.2905 17.5708C31.3139 17.6036 31.3264 17.6412 31.3264 17.6818V21.9108C31.3264 22.0014 31.2608 22.0796 31.1717 22.0952C31.1607 22.0968 31.1482 22.0984 31.1373 22.0984ZM28.3513 14.1564L30.9497 20.8977V17.7428L28.3513 14.1564Z" fill="#333333"/>
<path d="M27.6549 13.0643C27.6298 13.0643 27.6048 13.0597 27.5798 13.0487C27.4845 13.0081 27.4407 12.8971 27.4829 12.8017L29.5544 8.04747C29.5966 7.9521 29.7076 7.90833 29.8029 7.95054C29.8983 7.99119 29.9421 8.10219 29.8999 8.19755L27.8284 12.9518C27.7971 13.0221 27.7283 13.0643 27.6549 13.0643Z" fill="#333333"/>
<path d="M33.5563 15.8597V19.3336L32.8027 19.7666V16.2912L33.5563 15.8597Z" fill="#333333"/>
<path d="M32.8015 19.9556C32.7686 19.9556 32.7358 19.9462 32.7061 19.9306C32.6483 19.8978 32.6123 19.8352 32.6123 19.768V16.2926C32.6123 16.2254 32.6483 16.1629 32.7077 16.13L33.4628 15.697C33.5222 15.6626 33.5925 15.6641 33.6519 15.697C33.7098 15.7298 33.7458 15.7923 33.7458 15.8596V19.3349C33.7458 19.4022 33.7098 19.4647 33.6504 19.4975L32.8953 19.9306C32.8656 19.9462 32.8343 19.9556 32.8015 19.9556ZM32.9906 16.4005V19.4413L33.369 19.2239V16.1832L32.9906 16.4005Z" fill="#333333"/>
<path d="M50.1112 63.9861V66.2999L47.6582 64.8835V62.5697L50.1112 63.9861Z" fill="#333333"/>
<path d="M50.1113 66.4887C50.0784 66.4887 50.0456 66.4794 50.0175 66.4637L47.5661 65.0473C47.5067 65.0145 47.4707 64.9519 47.4707 64.8847V62.5709C47.4707 62.5037 47.5067 62.4411 47.5661 62.4083C47.6224 62.3755 47.6974 62.3755 47.7537 62.4083L50.2051 63.8247C50.2645 63.8576 50.3004 63.9201 50.3004 63.9873V66.3011C50.3004 66.3684 50.2645 66.4309 50.2051 66.4637C50.1754 66.4794 50.1425 66.4887 50.1113 66.4887ZM47.8475 64.7753L49.9221 65.9744V64.0952L47.8475 62.8961V64.7753Z" fill="#333333"/>
<path d="M47.6581 65.0719C47.6252 65.0719 47.594 65.0641 47.5643 65.0469L32.0524 56.0982C31.993 56.0653 31.957 56.0028 31.957 55.9356C31.957 55.7839 32.165 55.6995 32.2713 55.7902L33.289 56.3749L47.7519 64.7202C47.8425 64.7718 47.8738 64.8875 47.8207 64.9781C47.7863 65.0375 47.7237 65.0719 47.6581 65.0719Z" fill="#333333"/>
<path d="M5.81726 46.2095L3.88336 47.3241V47.4086L3.84428 47.3898L2.56543 46.6488V44.335L5.81726 46.2095Z" fill="#333333"/>
<path d="M3.88346 47.5975C3.85532 47.5975 3.82718 47.5912 3.80061 47.5787C3.79748 47.5771 3.75214 47.5553 3.74901 47.5537L2.47173 46.8127C2.41389 46.7798 2.37793 46.7173 2.37793 46.6501V44.3363C2.37793 44.269 2.41389 44.2065 2.4733 44.1737C2.52958 44.1408 2.60462 44.1408 2.6609 44.1737L5.91273 46.0482C5.97214 46.081 6.0081 46.1435 6.0081 46.2108C6.0081 46.278 5.97214 46.3405 5.91273 46.3733L4.07107 47.4349C4.06325 47.4896 4.03199 47.5396 3.98352 47.5693C3.95225 47.5881 3.91786 47.5975 3.88346 47.5975ZM2.7547 46.5406L3.80686 47.1503L5.44059 46.2092L2.7547 44.6599V46.5406Z" fill="#333333"/>
<path d="M22.9731 56.1173V58.4389L13.4615 52.9452L13.4209 52.9249L13.5006 52.8795V50.6501L22.9731 56.1173Z" fill="#333333"/>
<path d="M22.975 58.6257C22.9422 58.6257 22.9093 58.6163 22.8812 58.6007L13.368 53.107C13.3086 53.0742 13.2539 53.0007 13.2539 52.9335C13.2539 52.8725 13.2664 52.8068 13.3133 52.7709V50.6494C13.3133 50.5821 13.3493 50.5196 13.4087 50.4868C13.465 50.454 13.54 50.454 13.5963 50.4868L23.0704 55.9539C23.1298 55.9867 23.1657 56.0493 23.1657 56.1165V58.4381C23.1657 58.5054 23.1298 58.5679 23.0704 58.6007C23.0391 58.6179 23.0063 58.6257 22.975 58.6257ZM13.6885 52.8584L22.7858 58.1114V56.2259L13.6885 50.9746V52.8584Z" fill="#333333"/>
<path d="M29.7009 52.2025V54.5163L22.9736 58.4373V56.1157L29.7009 52.2025Z" fill="#333333"/>
<path d="M22.9753 58.6257C22.9425 58.6257 22.9112 58.6163 22.8815 58.6007C22.8221 58.5679 22.7861 58.5053 22.7861 58.4381V56.1165C22.7861 56.0492 22.8221 55.9867 22.8799 55.9539L29.6056 52.0391C29.665 52.0063 29.7353 52.0063 29.7948 52.0391C29.8542 52.072 29.8901 52.1345 29.8901 52.2017V54.5156C29.8901 54.5828 29.8542 54.6438 29.7963 54.6782L23.0707 58.5991C23.0394 58.6179 23.0081 58.6257 22.9753 58.6257ZM23.1629 56.2259V58.1098L29.5118 54.4092V52.5301L23.1629 56.2259Z" fill="#333333"/>
<path d="M32.1463 53.6139V55.9293L29.7012 54.5191V52.2053L32.1463 53.6139Z" fill="#333333"/>
<path d="M32.146 56.1161C32.1132 56.1161 32.0803 56.1067 32.0522 56.0911L29.6071 54.6809C29.5477 54.6481 29.5117 54.5856 29.5117 54.5183V52.2045C29.5117 52.1373 29.5477 52.0748 29.6071 52.042C29.6634 52.0091 29.7384 52.0091 29.7947 52.042L32.2398 53.4521C32.2992 53.485 32.3352 53.5475 32.3352 53.6147V55.9285C32.3352 55.9957 32.2992 56.0583 32.2398 56.0911C32.2117 56.1083 32.1788 56.1161 32.146 56.1161ZM29.8885 54.4089L31.9568 55.6018V53.7226L29.8885 52.5297V54.4089Z" fill="#333333"/>
</svg>
