<svg width="72" height="68" viewBox="0 0 72 68" fill="none" xmlns="http://www.w3.org/2000/svg">
<path d="M68.3702 67.48H3.63016C2.40016 67.48 1.41016 66.49 1.41016 65.26V19.63C1.41016 18.4 2.40016 17.41 3.63016 17.41H68.3702C69.6002 17.41 70.5901 18.4 70.5901 19.63V65.25C70.5901 66.48 69.6002 67.48 68.3702 67.48Z" stroke="#333333" stroke-miterlimit="10" stroke-linecap="round" stroke-linejoin="round"/>
<path d="M1.41016 19.63V12.37C1.41016 12.37 6.30016 12.37 7.63016 12.37C8.96016 12.37 11.0402 9.85002 11.0402 7.33002C11.0402 7.33002 11.9802 16.42 14.6002 14.44C17.3302 12.37 18.0002 0.52002 18.0002 0.52002C18.0002 6.39002 19.6302 14.45 25.2602 14.45C30.8902 14.45 34.5902 14.45 37.1102 14.45C39.6302 14.45 40.3702 12.38 40.6702 11.04C40.8202 13.26 42.6102 14.47 43.3402 14.3C45.5602 13.78 46.4502 8.23002 46.4502 5.56002C46.8202 10.82 49.2602 14.37 50.4402 13.12C51.7202 11.75 53.4102 6.23002 54.1502 0.53002C56.0802 10.31 56.9602 15.2 59.6302 15.2C62.3002 15.2 63.1902 6.90002 63.1902 6.90002C64.2402 15.49 70.6002 12.09 70.6002 12.09V21.13" stroke="#333333" stroke-miterlimit="10" stroke-linecap="round" stroke-linejoin="round"/>
<path d="M1.41016 25C7.48016 20.11 21.1502 21.67 33.1502 27C45.1502 32.33 60.0401 19.89 70.5901 23.22" stroke="#333333" stroke-miterlimit="10" stroke-linecap="round" stroke-linejoin="round"/>
<path d="M1.41016 34.1501C7.48016 31.7201 21.1502 32.4901 33.1502 35.1501C45.1502 37.8101 60.0401 31.6101 70.5901 33.2701" stroke="#333333" stroke-miterlimit="10" stroke-linecap="round" stroke-linejoin="round"/>
<path d="M1.41016 50C22.3702 50 34.2602 50 41.3702 50C56.1502 50 54.1501 55.33 70.5901 55.33" stroke="#333333" stroke-miterlimit="10" stroke-linecap="round" stroke-linejoin="round"/>
<path d="M1.41016 57.29C22.3702 57.29 20.3802 57.29 27.4902 57.29C42.2702 57.29 40.2702 62.62 56.7102 62.62H70.5901" stroke="#333333" stroke-miterlimit="10" stroke-linecap="round" stroke-linejoin="round"/>
<path d="M1.41016 45.67L7.59016 41.34L21.9302 44.89L24.2602 50" stroke="#333333" stroke-miterlimit="10" stroke-linecap="round" stroke-linejoin="round"/>
<path d="M4.65039 33.26L13.3704 38.56L12.0604 42.44" stroke="#333333" stroke-miterlimit="10" stroke-linecap="round" stroke-linejoin="round"/>
<path d="M16.8301 43.63C17.2001 43.72 24.7101 37.85 24.7101 37.85L34.8201 42.44L32.0401 45.67H35.6001L38.4801 50" stroke="#333333" stroke-miterlimit="10" stroke-linecap="round" stroke-linejoin="round"/>
<path d="M31.1597 34.72L27.9697 39.34" stroke="#333333" stroke-miterlimit="10" stroke-linecap="round" stroke-linejoin="round"/>
<path d="M34.8105 42.44H39.9205L44.1405 45.67H47.4705L49.8005 42.44L53.4705 43.92C53.4705 43.92 59.9105 40.77 59.5805 40.66C59.2505 40.55 54.3605 35.8 54.3605 35.8L45.3605 39.32L42.8005 35.8" stroke="#333333" stroke-miterlimit="10" stroke-linecap="round" stroke-linejoin="round"/>
<path d="M45.3704 39.34L44.1504 45.67" stroke="#333333" stroke-miterlimit="10" stroke-linecap="round" stroke-linejoin="round"/>
<path d="M13.3701 38.56L17.8101 37.03L15.5901 35.23L17.8101 32.89" stroke="#333333" stroke-miterlimit="10" stroke-linecap="round" stroke-linejoin="round"/>
<path d="M53.4805 43.9301L57.4805 47.6701L54.8105 52.4601" stroke="#333333" stroke-miterlimit="10" stroke-linecap="round" stroke-linejoin="round"/>
<path d="M57.4805 47.67H63.0405L66.0405 51H70.5905" stroke="#333333" stroke-miterlimit="10" stroke-linecap="round" stroke-linejoin="round"/>
<path d="M59.5898 40.67H65.4799L70.5898 43.93" stroke="#333333" stroke-miterlimit="10" stroke-linecap="round" stroke-linejoin="round"/>
<path d="M54.3701 35.81V34.25" stroke="#333333" stroke-miterlimit="10" stroke-linecap="round" stroke-linejoin="round"/>
<path d="M62.5898 33.26L65.0898 36.67L70.5898 35.72" stroke="#333333" stroke-miterlimit="10" stroke-linecap="round" stroke-linejoin="round"/>
<path d="M1.41016 28.35H4.65016" stroke="#333333" stroke-miterlimit="10" stroke-linecap="round" stroke-linejoin="round"/>
<path d="M9.00977 25.2001H12.2498" stroke="#333333" stroke-miterlimit="10" stroke-linecap="round" stroke-linejoin="round"/>
<path d="M15.21 29.5601H18.45" stroke="#333333" stroke-miterlimit="10" stroke-linecap="round" stroke-linejoin="round"/>
<path d="M24.5 28.35H27.74" stroke="#333333" stroke-miterlimit="10" stroke-linecap="round" stroke-linejoin="round"/>
<path d="M34.3799 31.76H37.6199" stroke="#333333" stroke-miterlimit="10" stroke-linecap="round" stroke-linejoin="round"/>
<path d="M43.1406 32.89H46.3806" stroke="#333333" stroke-miterlimit="10" stroke-linecap="round" stroke-linejoin="round"/>
<path d="M50.4404 28.89H53.6804" stroke="#333333" stroke-miterlimit="10" stroke-linecap="round" stroke-linejoin="round"/>
<path d="M57.9902 30.78H61.2202" stroke="#333333" stroke-miterlimit="10" stroke-linecap="round" stroke-linejoin="round"/>
<path d="M63.4697 26.4501H66.7097" stroke="#333333" stroke-miterlimit="10" stroke-linecap="round" stroke-linejoin="round"/>
<path d="M67.3506 29.5601H70.5906" stroke="#333333" stroke-miterlimit="10" stroke-linecap="round" stroke-linejoin="round"/>
</svg>
