<svg width="65" height="65" viewBox="0 0 65 65" fill="none" xmlns="http://www.w3.org/2000/svg">
<path d="M64 58.34V63.9892H1V55.1262C1 55.1262 1.98656 55.1262 3.60092 55.1262H26.6803C26.9095 55.1262 27.1288 55.1262 27.358 55.1162C30.1183 55.0364 32.8687 54.4774 35.649 53.7888C40.6615 52.5611 45.7338 50.9043 50.9356 50.9043C56.5062 50.9043 59.2865 52.4014 64 53.0202V58.34Z" stroke="#333333" stroke-miterlimit="10" stroke-linecap="round" stroke-linejoin="round"/>
<path d="M64 58.0702C62.0369 57.7408 60.1335 57.3815 58.27 57.0821C54.9018 56.5232 51.693 56.1239 48.6038 56.3435C47.1289 56.4433 45.8235 56.5831 44.6575 56.7527C35.8184 58.0103 34.6724 60.775 25.5742 60.775C22.5747 60.775 18.8576 59.5074 14.5925 58.9086C10.5068 58.3397 5.92281 58.3896 1 60.775" stroke="#333333" stroke-miterlimit="10" stroke-linecap="round" stroke-linejoin="round"/>
<path d="M2.54297 63.9984L7.61526 58.9082" stroke="#333333" stroke-miterlimit="10" stroke-linecap="round" stroke-linejoin="round"/>
<path d="M9.51953 63.9984L14.5918 58.9082" stroke="#333333" stroke-miterlimit="10" stroke-linecap="round" stroke-linejoin="round"/>
<path d="M16.4961 63.9982L20.2928 60.1855" stroke="#333333" stroke-miterlimit="10" stroke-linecap="round" stroke-linejoin="round"/>
<path d="M23.4727 63.9973L26.6017 60.8633" stroke="#333333" stroke-miterlimit="10" stroke-linecap="round" stroke-linejoin="round"/>
<path d="M30.4453 63.9982L35.109 59.3271" stroke="#333333" stroke-miterlimit="10" stroke-linecap="round" stroke-linejoin="round"/>
<path d="M37.4219 63.998L44.6566 56.752" stroke="#333333" stroke-miterlimit="10" stroke-linecap="round" stroke-linejoin="round"/>
<path d="M44.3984 63.9992L52.0019 56.3838" stroke="#333333" stroke-miterlimit="10" stroke-linecap="round" stroke-linejoin="round"/>
<path d="M51.375 63.999L58.2809 57.0723" stroke="#333333" stroke-miterlimit="10" stroke-linecap="round" stroke-linejoin="round"/>
<path d="M64.0018 58.3389L58.3516 63.988" stroke="#333333" stroke-miterlimit="10" stroke-linecap="round" stroke-linejoin="round"/>
<path d="M27.3594 55.1152L34.7635 47.6895" stroke="#333333" stroke-miterlimit="10" stroke-linecap="round" stroke-linejoin="round"/>
<path d="M35.6484 53.7982L41.488 47.9395" stroke="#333333" stroke-miterlimit="10" stroke-linecap="round" stroke-linejoin="round"/>
<path d="M45.0156 51.4023L48.7127 47.6895" stroke="#333333" stroke-miterlimit="10" stroke-linecap="round" stroke-linejoin="round"/>
<path d="M52.5195 50.8634L55.6885 47.6895" stroke="#333333" stroke-miterlimit="10" stroke-linecap="round" stroke-linejoin="round"/>
<path d="M58.6797 51.6814L62.5562 47.7988" stroke="#333333" stroke-miterlimit="10" stroke-linecap="round" stroke-linejoin="round"/>
<path d="M24.5273 50.2945L27.3475 47.6895H34.7616H48.7129H55.6885H63.9995" stroke="#333333" stroke-miterlimit="10" stroke-linecap="round" stroke-linejoin="round"/>
<path d="M25.036 52.4018L23.5811 48.0801L16.6055 50.2459" stroke="#333333" stroke-miterlimit="10" stroke-linecap="round" stroke-linejoin="round"/>
<path d="M18.659 52.4017C18.3301 52.1822 14.5035 48.9883 14.5035 48.9883L9.58068 50.3756L9.14221 52.1322L5.43516 51.9127L3.60156 55.1265" stroke="#333333" stroke-miterlimit="10" stroke-linecap="round" stroke-linejoin="round"/>
<path d="M64 53.0192V47.6895" stroke="#333333" stroke-miterlimit="10" stroke-linecap="round" stroke-linejoin="round"/>
<path d="M36.6833 47.5801C40.068 47.5801 42.8119 44.832 42.8119 41.4419C42.8119 38.0519 40.068 35.3037 36.6833 35.3037C33.2986 35.3037 30.5547 38.0519 30.5547 41.4419C30.5547 44.832 33.2986 47.5801 36.6833 47.5801Z" stroke="#333333" stroke-miterlimit="10" stroke-linecap="round" stroke-linejoin="round"/>
<path d="M36.6841 35.3037L34.5117 37.4895" stroke="#333333" stroke-miterlimit="10" stroke-linecap="round" stroke-linejoin="round"/>
<path d="M40.9288 37.0215L39.4141 38.5286" stroke="#333333" stroke-miterlimit="10" stroke-linecap="round" stroke-linejoin="round"/>
<path d="M42.6316 41.2637L40.4492 43.4495" stroke="#333333" stroke-miterlimit="10" stroke-linecap="round" stroke-linejoin="round"/>
<path d="M36.6836 47.5801L38.866 45.4043" stroke="#333333" stroke-miterlimit="10" stroke-linecap="round" stroke-linejoin="round"/>
<path d="M32.4375 45.8743L33.9522 44.3672" stroke="#333333" stroke-miterlimit="10" stroke-linecap="round" stroke-linejoin="round"/>
<path d="M30.7344 41.6221L32.9168 39.4463" stroke="#333333" stroke-miterlimit="10" stroke-linecap="round" stroke-linejoin="round"/>
<path d="M36.6825 44.0285C38.108 44.0285 39.2635 42.8711 39.2635 41.4434C39.2635 40.0158 38.108 38.8584 36.6825 38.8584C35.2571 38.8584 34.1016 40.0158 34.1016 41.4434C34.1016 42.8711 35.2571 44.0285 36.6825 44.0285Z" stroke="#333333" stroke-miterlimit="10" stroke-linecap="round" stroke-linejoin="round"/>
<path d="M45.8911 29.7253L43.5094 27.3398H30.5547V29.7253H45.8911Z" stroke="#333333" stroke-miterlimit="10" stroke-linecap="round" stroke-linejoin="round"/>
<path d="M30.5555 29.7246L24.0781 36.2122V39.4859" stroke="#333333" stroke-miterlimit="10" stroke-linecap="round" stroke-linejoin="round"/>
<path d="M30.8725 39.4862H21.864L19.293 36.9111" stroke="#333333" stroke-miterlimit="10" stroke-linecap="round" stroke-linejoin="round"/>
<path d="M27.7852 32.5H45.8919" stroke="#333333" stroke-miterlimit="10" stroke-linecap="round" stroke-linejoin="round"/>
<path d="M30.9022 42.7993H22.8603L17.9375 45.554L22.1428 39.9248" stroke="#333333" stroke-miterlimit="10" stroke-linecap="round" stroke-linejoin="round"/>
<path d="M17.6602 41.4424V49.7464" stroke="#333333" stroke-miterlimit="10" stroke-linecap="round" stroke-linejoin="round"/>
<path d="M42.4922 39.4863H45.8903" stroke="#333333" stroke-miterlimit="10" stroke-linecap="round" stroke-linejoin="round"/>
<path d="M42.8125 42.3018H45.8917" stroke="#333333" stroke-miterlimit="10" stroke-linecap="round" stroke-linejoin="round"/>
<path d="M47.9933 41.4427V11.041H45.8906V44.0377H49.8269V41.4427H47.9933Z" stroke="#333333" stroke-miterlimit="10" stroke-linecap="round" stroke-linejoin="round"/>
<path d="M51.433 39.4863H49.8286V44.0376H47.8555V45.8641H51.433" stroke="#333333" stroke-miterlimit="10" stroke-linecap="round" stroke-linejoin="round"/>
<path d="M51.4336 39.4863H53.038V44.0376H55.0011V45.8641H51.4336" stroke="#333333" stroke-miterlimit="10" stroke-linecap="round" stroke-linejoin="round"/>
<path d="M51.4336 39.4856V22.6279" stroke="#333333" stroke-miterlimit="10" stroke-linecap="round" stroke-linejoin="round"/>
<path d="M52.5875 1H50.2656V22.6285H52.5875V1Z" stroke="#333333" stroke-miterlimit="10" stroke-linecap="round" stroke-linejoin="round"/>
<path d="M50.2643 18.2461H47.9922" stroke="#333333" stroke-miterlimit="10" stroke-linecap="round" stroke-linejoin="round"/>
<path d="M50.2648 2.61621C50.2648 6.04962 41.625 6.71834 41.625 12.5971C41.625 15.7211 43.8273 17.1184 45.8901 17.7472" stroke="#333333" stroke-miterlimit="10" stroke-linecap="round" stroke-linejoin="round"/>
<path d="M45.8906 42.3018V47.5816" stroke="#333333" stroke-miterlimit="10" stroke-linecap="round" stroke-linejoin="round"/>
</svg>
