<svg width="50" height="48" viewBox="0 0 50 48" fill="none" xmlns="http://www.w3.org/2000/svg">
<path d="M1 35.7391V11.9564L11.9564 1H35.4104V35.9874V39.7126V46.7978H1V39.7126V35.7391Z" stroke="white" stroke-miterlimit="10" stroke-linecap="round" stroke-linejoin="round"/>
<path d="M11.9564 1V11.9564H1" stroke="white" stroke-miterlimit="10" stroke-linecap="round" stroke-linejoin="round"/>
<path d="M15.6094 8.54688H30.8826" stroke="white" stroke-miterlimit="10" stroke-linecap="round" stroke-linejoin="round"/>
<path d="M15.6094 5.30078H30.8826" stroke="white" stroke-miterlimit="10" stroke-linecap="round" stroke-linejoin="round"/>
<path d="M29.8877 15.8496C30.872 15.8496 31.6699 15.0517 31.6699 14.0674C31.6699 13.0831 30.872 12.2852 29.8877 12.2852C28.9034 12.2852 28.1055 13.0831 28.1055 14.0674C28.1055 15.0517 28.9034 15.8496 29.8877 15.8496Z" stroke="white" stroke-miterlimit="10" stroke-linecap="round" stroke-linejoin="round"/>
<path d="M15.1191 17.9601C24.1253 17.9601 26.806 12.2773 29.8884 12.2773" stroke="white" stroke-miterlimit="10" stroke-linecap="round" stroke-linejoin="round"/>
<path d="M16.8362 17.8867L11.2266 31.6772" stroke="white" stroke-miterlimit="10" stroke-linecap="round" stroke-linejoin="round"/>
<path d="M16.8359 17.8867L22.4529 31.6772" stroke="white" stroke-miterlimit="10" stroke-linecap="round" stroke-linejoin="round"/>
<path d="M11.2266 31.6797C11.5845 33.8783 13.9584 35.5729 16.8435 35.5729C19.7287 35.5729 22.1026 33.871 22.4605 31.6797H11.2266V31.6797Z" stroke="white" stroke-miterlimit="10" stroke-linecap="round" stroke-linejoin="round"/>
<path d="M44.6579 17.9601C35.6517 17.9601 32.9711 12.2773 29.8887 12.2773" stroke="white" stroke-miterlimit="10" stroke-linecap="round" stroke-linejoin="round"/>
<path d="M42.9414 17.8867L48.5511 31.6772" stroke="white" stroke-miterlimit="10" stroke-linecap="round" stroke-linejoin="round"/>
<path d="M42.9412 17.8867L37.3242 31.6772" stroke="white" stroke-miterlimit="10" stroke-linecap="round" stroke-linejoin="round"/>
<path d="M48.5504 31.6797C48.1925 33.8783 45.8186 35.5729 42.9334 35.5729C40.0482 35.5729 37.6743 33.871 37.3164 31.6797H48.5504V31.6797Z" stroke="white" stroke-miterlimit="10" stroke-linecap="round" stroke-linejoin="round"/>
<path d="M29.8887 15.8516V38.5751" stroke="white" stroke-miterlimit="10" stroke-linecap="round" stroke-linejoin="round"/>
<path d="M41.0348 42.6862H18.7422V41.6855C18.7422 39.9982 20.1081 38.625 21.8027 38.625H37.9816C39.6689 38.625 41.0421 39.9909 41.0421 41.6855V42.6862H41.0348Z" stroke="white" stroke-miterlimit="10" stroke-linecap="round" stroke-linejoin="round"/>
<path d="M45.146 42.6875H8.67578" stroke="white" stroke-miterlimit="10" stroke-linecap="round" stroke-linejoin="round"/>
<path d="M29.8887 12.2778V10.6562" stroke="white" stroke-miterlimit="10" stroke-linecap="round" stroke-linejoin="round"/>
</svg>
