<svg width="70" height="51" viewBox="0 0 70 51" fill="none" xmlns="http://www.w3.org/2000/svg">
<path d="M2.61156 27.2402L9.13156 31.0102V40.3302C9.13156 40.8402 8.76156 41.3202 8.16156 41.6602C7.58156 41.9902 6.76156 42.2102 5.87156 42.2102C4.97156 42.2102 4.14156 42.0002 3.56156 41.6602H3.55156C2.97156 41.3102 2.60156 40.8402 2.60156 40.3302V27.2402H2.61156Z" stroke="#333333" stroke-miterlimit="10" stroke-linecap="round" stroke-linejoin="round"/>
<path d="M38.3481 31.0001V40.3301C38.3481 40.8401 37.9781 41.3201 37.3881 41.6601C36.8081 41.9901 35.9881 42.2101 35.0881 42.2101C34.1881 42.2101 33.3681 42.0001 32.7881 41.6601H32.7781C32.1881 41.3101 31.8281 40.8401 31.8281 40.3301V31.0001L35.0881 29.1201L38.3481 31.0001Z" stroke="#333333" stroke-miterlimit="10" stroke-linecap="round" stroke-linejoin="round"/>
<path d="M23.7388 35.6802V48.6002C23.7388 49.1202 23.3687 49.5902 22.7687 49.9302C22.1887 50.2702 21.3787 50.4802 20.4787 50.4802C19.5787 50.4802 18.7487 50.2702 18.1787 49.9302H18.1688C17.5888 49.5802 17.2188 49.1202 17.2188 48.6002V35.6802L20.4787 37.5602L23.7388 35.6802Z" stroke="#333333" stroke-miterlimit="10" stroke-linecap="round" stroke-linejoin="round"/>
<path d="M52.9692 35.6699V48.5999C52.9692 49.1199 52.5992 49.5799 52.0192 49.9299H52.0092C51.4292 50.2699 50.6092 50.4799 49.7092 50.4799C48.8092 50.4799 47.9892 50.2699 47.4092 49.9299C46.8092 49.5899 46.4492 49.1199 46.4492 48.5999V35.6799L49.6992 37.5599L52.9692 35.6699Z" stroke="#333333" stroke-miterlimit="10" stroke-linecap="round" stroke-linejoin="round"/>
<path d="M67.5786 27.2402V40.3302C67.5786 40.8402 67.2086 41.3202 66.6186 41.6602C66.0286 41.9902 65.2186 42.2102 64.3186 42.2102C63.4186 42.2102 62.5986 42.0002 62.0186 41.6602H62.0086C61.4286 41.3102 61.0586 40.8402 61.0586 40.3302V31.0002L67.5786 27.2402Z" stroke="#333333" stroke-miterlimit="10" stroke-linecap="round" stroke-linejoin="round"/>
<path d="M20.4794 20.6899L15.6094 23.4999L20.4794 26.3199L25.3494 23.4999L20.4794 20.6899Z" stroke="#333333" stroke-miterlimit="10" stroke-linecap="round" stroke-linejoin="round"/>
<path d="M25.3494 23.4999L20.4794 26.3099L15.6094 23.4999L20.4794 20.6899L25.3494 23.4999Z" stroke="#333333" stroke-miterlimit="10" stroke-linecap="round" stroke-linejoin="round"/>
<path d="M25.3494 23.4999L20.4794 26.3099L15.6094 23.4999L20.4794 20.6899L25.3494 23.4999Z" stroke="#333333" stroke-miterlimit="10" stroke-linecap="round" stroke-linejoin="round"/>
<path d="M49.6981 20.6899L44.8281 23.4999L49.6981 26.3199L54.5681 23.4999L49.6981 20.6899Z" stroke="#333333" stroke-miterlimit="10" stroke-linecap="round" stroke-linejoin="round"/>
<path d="M54.5681 23.4999L49.6981 26.3099L44.8281 23.4999L49.6981 20.6899L54.5681 23.4999Z" stroke="#333333" stroke-miterlimit="10" stroke-linecap="round" stroke-linejoin="round"/>
<path d="M54.5681 23.4999L49.6981 26.3099L44.8281 23.4999L49.6981 20.6899L54.5681 23.4999Z" stroke="#333333" stroke-miterlimit="10" stroke-linecap="round" stroke-linejoin="round"/>
<path d="M35.0887 12.25L30.2188 15.06L35.0887 17.88L39.9587 15.06L35.0887 12.25Z" stroke="#333333" stroke-miterlimit="10" stroke-linecap="round" stroke-linejoin="round"/>
<path d="M54.57 12.25L49.7 9.43L35.09 1L20.48 9.44L15.61 12.26L1 20.7L2.61 21.63L9.13 25.4L10.74 26.33L17.22 30.07L20.48 31.95L23.74 30.07L31.83 25.39L35.09 23.5L38.35 25.38L46.45 30.06L49.7 31.94L52.97 30.05L59.44 26.32L61.06 25.38L67.58 21.62L69.18 20.69L54.57 12.25ZM25.35 23.5L20.48 26.32L15.61 23.5L10.74 20.69L20.48 15.07L30.22 20.69L25.35 23.5ZM35.09 17.88L30.22 15.06L25.35 12.25L35.09 6.63L44.83 12.25L39.96 15.06L35.09 17.88ZM54.57 23.5L49.7 26.32L44.83 23.5L39.96 20.69L49.7 15.07L59.44 20.69L54.57 23.5Z" stroke="#333333" stroke-miterlimit="10" stroke-linecap="round" stroke-linejoin="round"/>
<path d="M59.4392 20.6898L54.5692 23.4998L49.6992 20.6898V15.0698L59.4392 20.6898Z" stroke="#333333" stroke-miterlimit="10" stroke-linecap="round" stroke-linejoin="round"/>
<path d="M49.7009 15.0698V20.6898L44.8309 23.4998L39.9609 20.6898L49.7009 15.0698Z" stroke="#333333" stroke-miterlimit="10" stroke-linecap="round" stroke-linejoin="round"/>
<path d="M30.2205 20.6898L25.3505 23.4998L20.4805 20.6898V15.0698L30.2205 20.6898Z" stroke="#333333" stroke-miterlimit="10" stroke-linecap="round" stroke-linejoin="round"/>
<path d="M20.4783 15.0698V20.6898L15.6083 23.4998L10.7383 20.6898L20.4783 15.0698Z" stroke="#333333" stroke-miterlimit="10" stroke-linecap="round" stroke-linejoin="round"/>
<path d="M69.1792 20.6899V26.3099L67.5792 27.2399L61.0592 30.9999L59.4392 31.9399L52.9692 35.6699L49.6992 37.5599V31.9399L52.9692 30.0499L59.4392 26.3099L61.0592 25.3799L67.5792 21.6199L69.1792 20.6899Z" stroke="#333333" stroke-miterlimit="10" stroke-linecap="round" stroke-linejoin="round"/>
<path d="M49.6998 31.94V37.56L46.4498 35.68L38.3498 31L35.0898 29.12V23.5L38.3498 25.38L46.4498 30.06L49.6998 31.94Z" stroke="#333333" stroke-miterlimit="10" stroke-linecap="round" stroke-linejoin="round"/>
<path d="M35.0905 23.5V29.12L31.8305 31L23.7405 35.68L20.4805 37.56V31.94L23.7405 30.06L31.8305 25.38L35.0905 23.5Z" stroke="#333333" stroke-miterlimit="10" stroke-linecap="round" stroke-linejoin="round"/>
<path d="M20.48 31.9399V37.5599L17.22 35.6799L10.74 31.9399L9.13 31.0099L2.61 27.2399L1 26.3099V20.6899L2.61 21.6199L9.13 25.3899L10.74 26.3099L17.22 30.0599L20.48 31.9399Z" stroke="#333333" stroke-miterlimit="10" stroke-linecap="round" stroke-linejoin="round"/>
<path d="M35.0916 6.62988V12.2499L30.2216 15.0599L25.3516 12.2499L35.0916 6.62988Z" stroke="#333333" stroke-miterlimit="10" stroke-linecap="round" stroke-linejoin="round"/>
<path d="M44.8298 12.2499L39.9598 15.0599L35.0898 12.2499V6.62988L44.8298 12.2499Z" stroke="#333333" stroke-miterlimit="10" stroke-linecap="round" stroke-linejoin="round"/>
<path d="M39.9587 15.06L35.0887 17.88L30.2188 15.06L35.0887 12.25L39.9587 15.06Z" stroke="#333333" stroke-miterlimit="10" stroke-linecap="round" stroke-linejoin="round"/>
<path d="M39.9587 15.06L35.0887 17.88L30.2188 15.06L35.0887 12.25L39.9587 15.06Z" stroke="#333333" stroke-miterlimit="10" stroke-linecap="round" stroke-linejoin="round"/>
</svg>
