<svg width="55" height="66" viewBox="0 0 55 66" fill="none" xmlns="http://www.w3.org/2000/svg">
<path d="M25.3398 53.5044V59.0374L20.4498 61.8235L15.5898 64.5802V59.0571L20.4498 56.2906L25.3398 53.5044Z" stroke="#333333" stroke-miterlimit="10" stroke-linecap="round" stroke-linejoin="round"/>
<path d="M35.0498 47.9912V53.5242L30.1798 56.2907L25.3398 59.0375V53.5045L30.1798 50.7577L35.0498 47.9912Z" stroke="#333333" stroke-miterlimit="10" stroke-linecap="round" stroke-linejoin="round"/>
<path d="M44.7708 42.4668V47.9899L39.9108 50.7564L35.0508 53.5229V47.9899L39.9108 45.2234L44.7708 42.4668Z" stroke="#333333" stroke-miterlimit="10" stroke-linecap="round" stroke-linejoin="round"/>
<path d="M54.4995 36.9346V42.4675L49.6395 45.2242L44.7695 47.9907V42.4675L49.6395 39.6912L54.4995 36.9346Z" stroke="#333333" stroke-miterlimit="10" stroke-linecap="round" stroke-linejoin="round"/>
<path d="M20.4498 50.7563V56.2893L15.5898 59.0558V53.5228L20.4498 50.7563Z" stroke="#333333" stroke-miterlimit="10" stroke-linecap="round" stroke-linejoin="round"/>
<path d="M25.3398 42.4478V47.9807L20.4498 50.7571L15.5898 53.5235V47.9906L20.4498 45.2339L25.3398 42.4478Z" stroke="#333333" stroke-miterlimit="10" stroke-linecap="round" stroke-linejoin="round"/>
<path d="M30.1792 45.2339V50.757L25.3392 53.5038L20.4492 56.29V50.757L25.3392 47.9807L30.1792 45.2339Z" stroke="#333333" stroke-miterlimit="10" stroke-linecap="round" stroke-linejoin="round"/>
<path d="M39.9097 39.6924V45.2254L35.0497 47.9919L30.1797 50.7583V45.2352L35.0497 42.4687L39.9097 39.6924Z" stroke="#333333" stroke-miterlimit="10" stroke-linecap="round" stroke-linejoin="round"/>
<path d="M49.6402 34.168V39.6911L44.7702 42.4674L39.9102 45.2241V39.6911L44.7702 36.9345L49.6402 34.168Z" stroke="#333333" stroke-miterlimit="10" stroke-linecap="round" stroke-linejoin="round"/>
<path d="M44.7708 31.4028V36.9358L39.9108 39.6924L35.0508 42.4688V36.9358L39.9108 34.1693L44.7708 31.4028Z" stroke="#333333" stroke-miterlimit="10" stroke-linecap="round" stroke-linejoin="round"/>
<path d="M35.0498 36.9346V42.4675L30.1798 45.234L25.3398 47.9808V42.4479L30.1798 39.7011L35.0498 36.9346Z" stroke="#333333" stroke-miterlimit="10" stroke-linecap="round" stroke-linejoin="round"/>
<path d="M15.5887 59.0571V64.5802L10.7388 61.8236L10.7188 61.8137V56.2808L10.7388 56.2906L15.5887 59.0571Z" stroke="#333333" stroke-miterlimit="10" stroke-linecap="round" stroke-linejoin="round"/>
<path d="M10.72 56.2795V61.8125L5.85 59.0361L1.01 56.2893L1 56.2795V50.7563H1.01L5.85 53.5031L10.72 56.2795Z" stroke="#333333" stroke-miterlimit="10" stroke-linecap="round" stroke-linejoin="round"/>
<path d="M15.5887 47.9906V53.5236L10.7388 50.7571H10.7188V45.2241L10.7388 45.234L15.5887 47.9906Z" stroke="#333333" stroke-miterlimit="10" stroke-linecap="round" stroke-linejoin="round"/>
<path d="M10.72 45.2254V50.7583L5.85 47.982L1.01 45.2352L1 45.2254V39.6924L1.01 39.7022L5.85 42.449L10.72 45.2254Z" stroke="#333333" stroke-miterlimit="10" stroke-linecap="round" stroke-linejoin="round"/>
<path d="M25.3203 9.28962V31.4018L39.9103 23.1122V1" stroke="#333333" stroke-miterlimit="10" stroke-linecap="round" stroke-linejoin="round"/>
<path d="M25.3209 25.8779L20.4609 28.6444V39.7005L44.7709 25.8779V14.8218L39.9109 17.5883" stroke="#333333" stroke-miterlimit="10" stroke-linecap="round" stroke-linejoin="round"/>
<path d="M32.6094 5.14551V27.2577" stroke="#333333" stroke-miterlimit="10" stroke-linecap="round" stroke-linejoin="round"/>
<path d="M54.5006 31.4028V36.9358L49.6406 39.6924V34.1693L54.5006 31.4028Z" stroke="#333333" stroke-miterlimit="10" stroke-linecap="round" stroke-linejoin="round"/>
<path d="M54.4995 25.8784V31.4015L49.6395 34.168L44.7695 36.9345V31.4015L49.6395 28.6351L54.4995 25.8784Z" stroke="#333333" stroke-miterlimit="10" stroke-linecap="round" stroke-linejoin="round"/>
<path d="M5.85 47.9808V53.5039L1.01 50.7571H1V45.2241L1.01 45.234L5.85 47.9808Z" stroke="#333333" stroke-miterlimit="10" stroke-linecap="round" stroke-linejoin="round"/>
<path d="M15.5916 53.5248V59.0577L10.7416 56.2912L10.7216 56.2814L5.85156 53.5051V47.9819L10.7216 50.7583H10.7416L15.5916 53.5248Z" stroke="#333333" stroke-miterlimit="10" stroke-linecap="round" stroke-linejoin="round"/>
<path d="M15.5898 47.9901V14.8218" stroke="#333333" stroke-miterlimit="10" stroke-linecap="round" stroke-linejoin="round"/>
</svg>
