<svg width="22" height="32" viewBox="0 0 22 32" fill="none" xmlns="http://www.w3.org/2000/svg">
<path d="M19.6555 31H2.34454C1.60224 31 1 30.3825 1 29.6214V2.37865C1 1.61752 1.60224 1 2.34454 1H19.6555C20.3978 1 21 1.61752 21 2.37865V29.6214C21 30.3825 20.3978 31 19.6555 31Z" stroke="#FE0000" stroke-miterlimit="10" stroke-linecap="round" stroke-linejoin="round"/>
<path d="M4.54297 27.2539H17.4561" stroke="#FE0000" stroke-miterlimit="10" stroke-linecap="round" stroke-linejoin="round"/>
<path d="M11.0018 7.93558C12.1312 7.93558 13.0467 6.99686 13.0467 5.83888C13.0467 4.68091 12.1312 3.74219 11.0018 3.74219C9.87253 3.74219 8.95703 4.68091 8.95703 5.83888C8.95703 6.99686 9.87253 7.93558 11.0018 7.93558Z" stroke="#FE0000" stroke-miterlimit="10" stroke-linecap="round" stroke-linejoin="round"/>
</svg>
