<svg width="64" height="51" viewBox="0 0 64 51" fill="none" xmlns="http://www.w3.org/2000/svg">
<path d="M45.5508 12.0098V17.7498H41.3008C41.3008 17.4798 41.3208 17.2098 41.3608 16.9498C41.6708 14.5998 43.3408 12.6798 45.5508 12.0098Z" stroke="#333333" stroke-miterlimit="10" stroke-linecap="round" stroke-linejoin="round"/>
<path d="M53.3125 17.7498H49.0625V12.0098C49.6625 12.1898 50.2225 12.4698 50.7225 12.8098C52.2825 13.8998 53.3125 15.6998 53.3125 17.7498Z" stroke="#333333" stroke-miterlimit="10" stroke-linecap="round" stroke-linejoin="round"/>
<path d="M49.0625 11.3499V17.7499H45.5625V11.3499C46.1225 11.1999 46.7025 11.1099 47.3125 11.1099C47.9125 11.1099 48.5025 11.1999 49.0625 11.3499Z" stroke="#333333" stroke-miterlimit="10" stroke-linecap="round" stroke-linejoin="round"/>
<path d="M20.0719 47.2602L13.6719 35.2202H32.4119L38.8119 47.2602" stroke="#333333" stroke-miterlimit="10" stroke-linecap="round" stroke-linejoin="round"/>
<path d="M20.0703 47.2598H38.8103" stroke="#333333" stroke-miterlimit="10" stroke-linecap="round" stroke-linejoin="round"/>
<path d="M49.2203 32.2498H50.0303C50.6403 32.2498 51.1303 31.7598 51.1303 31.1498C51.1303 30.5398 51.6203 30.0498 52.2303 30.0498H57.4503C57.9503 30.0498 58.3903 30.3898 58.5103 30.8698L63.4603 49.8298H20.0703" stroke="#333333" stroke-miterlimit="10" stroke-linecap="round" stroke-linejoin="round"/>
<path d="M49.2192 32.2498H48.4092C47.7992 32.2498 47.3092 31.7598 47.3092 31.1498C47.3092 30.5398 46.8192 30.0498 46.2092 30.0498H40.9892C40.4892 30.0498 40.0492 30.3898 39.9292 30.8698L36.6992 43.2598" stroke="#333333" stroke-miterlimit="10" stroke-linecap="round" stroke-linejoin="round"/>
<path d="M51.1281 31.1501V19.6401H43.5781V25.9001C43.5781 26.5901 44.2581 27.0801 44.9081 26.8601L48.3081 25.7301V22.7201" stroke="#333333" stroke-miterlimit="10" stroke-linecap="round" stroke-linejoin="round"/>
<path d="M47.3086 31.1498V26.0498" stroke="#333333" stroke-miterlimit="10" stroke-linecap="round" stroke-linejoin="round"/>
<path d="M9.17188 18.9202L17.6319 15.4802C17.6319 15.4802 22.9319 20.0702 23.5119 19.6402C24.0819 19.2102 49.0619 6.16016 49.0619 6.16016" stroke="#333333" stroke-miterlimit="10" stroke-linecap="round" stroke-linejoin="round"/>
<path d="M56.4808 26.05V1H5.30078V31.15" stroke="#333333" stroke-miterlimit="10" stroke-linecap="round" stroke-linejoin="round"/>
<path d="M1 31.1499H36.69" stroke="#333333" stroke-miterlimit="10" stroke-linecap="round" stroke-linejoin="round"/>
<path d="M17.9883 20.21V27.38" stroke="#333333" stroke-miterlimit="10" stroke-linecap="round" stroke-linejoin="round"/>
<path d="M11.8281 22.5098V27.3798" stroke="#333333" stroke-miterlimit="10" stroke-linecap="round" stroke-linejoin="round"/>
<path d="M24.1484 23.0801V27.3801" stroke="#333333" stroke-miterlimit="10" stroke-linecap="round" stroke-linejoin="round"/>
<path d="M30.3203 19.6699V27.3799" stroke="#333333" stroke-miterlimit="10" stroke-linecap="round" stroke-linejoin="round"/>
<path d="M36.4805 16.0801V27.3801" stroke="#333333" stroke-miterlimit="10" stroke-linecap="round" stroke-linejoin="round"/>
<path d="M11.8281 27.3799H38.8081" stroke="#333333" stroke-miterlimit="10" stroke-linecap="round" stroke-linejoin="round"/>
<path d="M38.4883 47.2598H45.1583" stroke="#333333" stroke-miterlimit="10" stroke-linecap="round" stroke-linejoin="round"/>
<path d="M39.9219 49.84L42.4719 47.29" stroke="#333333" stroke-miterlimit="10" stroke-linecap="round" stroke-linejoin="round"/>
<path d="M45.5508 49.84V47.25C45.5508 46.33 46.3008 45.59 47.2108 45.59H53.9208C55.1908 45.59 56.0908 44.36 55.7108 43.15L54.1808 38.27" stroke="#333333" stroke-miterlimit="10" stroke-linecap="round" stroke-linejoin="round"/>
<path d="M44.1492 38.27L41.1992 47.26" stroke="#333333" stroke-miterlimit="10" stroke-linecap="round" stroke-linejoin="round"/>
</svg>
