<svg width="33" height="33" viewBox="0 0 33 33" fill="none" xmlns="http://www.w3.org/2000/svg">
<path d="M21.3684 0.712435C22.1709 0.712435 22.9735 0.712435 23.769 0.71956C25.7613 0.740933 27.5283 1.42487 29.1757 2.80699C30.4992 3.92552 31.4285 5.39314 31.9424 7.1671C32.1676 7.92228 32.2803 8.71308 32.2803 9.50389L32.2873 12.7811C32.2944 16.3504 32.3084 20.0479 32.2732 23.6742C32.2521 25.5907 31.5974 27.3718 30.3302 28.9747C29.5488 29.9579 28.5984 30.7416 27.5142 31.3115C26.3879 31.8957 25.36 32.1949 24.3674 32.2234C22.896 32.2733 21.4036 32.2733 19.9534 32.2804H18.9678C17.6583 32.2804 16.3559 32.2876 15.0535 32.2876C13.2091 32.2876 11.3646 32.2876 9.51311 32.2733C8.12625 32.2733 6.80978 31.9598 5.59891 31.3471C4.57108 30.8271 3.69108 30.1431 2.91669 29.2597C1.81142 28.0058 1.12151 26.5026 0.790629 24.6645C0.741349 24.3653 0.713189 24.0447 0.713189 23.7383C0.713189 22.3491 0.713189 20.9598 0.706149 19.5777C0.699109 16.1723 0.692069 12.6457 0.727269 9.17617C0.741349 7.61593 1.23415 6.09132 2.19862 4.63795C3.00117 3.43394 4.04308 2.47215 5.30323 1.77396C6.5493 1.09003 7.85873 0.733808 9.19632 0.71956C10.4213 0.712435 11.6462 0.712435 12.8712 0.712435H14.7086H16.4475C16.4827 0.71956 16.5108 0.71956 16.546 0.71956C17.3486 0.71956 18.1511 0.71956 18.9537 0.712435C19.7633 0.712435 20.5658 0.712435 21.3684 0.712435ZM21.3684 0C19.7633 0 18.1511 0.00712451 16.546 0.00712451C16.546 0.00712451 16.546 0.00712435 16.546 0C15.3211 0 14.0961 0 12.8712 0C11.6462 0 10.4142 1.63223e-07 9.18928 0.00712451C7.68977 0.0213732 6.28178 0.420337 4.96531 1.14702C3.59957 1.9022 2.48021 2.93523 1.6143 4.23899C0.62167 5.7351 0.0373549 7.38083 0.023275 9.16904C-0.0189646 14.0278 0.00919483 18.8795 0.00919483 23.7383C0.00919483 24.0803 0.0373552 24.4365 0.0936747 24.7785C0.424552 26.6308 1.13559 28.305 2.3887 29.7299C3.21941 30.6703 4.17684 31.4184 5.28211 31.9812C6.61266 32.658 8.02769 32.9857 9.51311 32.9857C11.3576 32.9929 13.2091 33 15.0535 33C16.3559 33 17.6654 33 18.9678 32.9929C20.777 32.9857 22.5792 32.9929 24.3885 32.9359C25.6064 32.9003 26.7539 32.5084 27.8381 31.9456C29.0278 31.3258 30.0416 30.478 30.8793 29.4236C32.2099 27.7422 32.9561 25.8258 32.9772 23.6813C33.0195 18.9579 32.9913 14.2273 32.9843 9.50389C32.9843 8.64184 32.8646 7.79404 32.6182 6.96049C32.0761 5.10104 31.1046 3.51231 29.6262 2.25842C27.9296 0.833549 25.9936 0.0284976 23.776 0.00712451C22.9805 1.63223e-07 22.1709 0 21.3684 0Z" fill="white"/>
<path d="M19.7288 5.17142C20.4399 5.17142 21.1579 5.17142 21.876 5.18567C23.1503 5.19992 24.3189 5.59176 25.3538 6.35406C26.7969 7.40847 27.6417 8.81909 27.9585 10.6857C27.9726 10.764 27.9726 10.8851 27.9726 11.0134V11.0989C27.9726 11.106 27.9726 11.1345 27.9726 11.1416C27.9937 11.9681 28.0149 12.7446 28.0149 13.5497C28.0149 13.9557 28.0078 14.3547 28.0008 14.7608C27.9937 15.2595 27.9797 15.7582 27.9867 16.2569C27.9867 16.7984 27.9937 17.3398 28.0008 17.8813C28.0078 18.4156 28.0149 18.9499 28.0149 19.4842V19.9117C28.0149 20.731 28.0148 21.5859 27.9585 22.4123C27.9022 23.2886 27.6347 24.1578 27.1419 24.9985C26.7899 25.6112 26.3323 26.174 25.7691 26.6585C24.9243 27.3923 23.9598 27.8625 22.8968 28.0406C22.3829 28.1261 21.8197 28.1688 21.1791 28.1688C19.4754 28.1759 17.7717 28.1759 16.0681 28.1759C14.3644 28.1759 12.6607 28.1688 10.9571 28.1617C10.0067 28.1617 9.05629 27.8696 8.04254 27.2783C7.20479 26.7796 6.53599 26.1384 6.05024 25.369C5.73344 24.8631 5.46592 24.2718 5.26176 23.6164C5.04352 22.8968 5.0224 22.1274 5.0224 21.2796C5.02944 19.3346 5.0224 17.3897 5.0224 15.4447V12.5309V12.2032C5.0224 11.5192 5.01536 10.878 5.13504 10.2582C5.3392 9.21093 5.78272 8.28476 6.47967 7.42984C7.18366 6.57492 8.07774 5.94797 9.13373 5.55614C9.8166 5.30678 10.4572 5.17854 11.0979 5.17142C11.6963 5.17142 12.2947 5.17142 12.8931 5.17142H14.6882H16.4834C17.0255 5.17142 17.5676 5.17142 18.1097 5.1643C18.6517 5.17854 19.1868 5.17142 19.7288 5.17142ZM19.7218 4.45898C18.6447 4.45898 17.5676 4.46611 16.4834 4.46611C15.2866 4.46611 14.0898 4.46611 12.8931 4.46611C12.2947 4.46611 11.6963 4.46611 11.0979 4.46611C10.3376 4.47323 9.6054 4.62997 8.89437 4.89357C7.72574 5.32103 6.73311 6.01209 5.9376 6.98101C5.18432 7.90005 4.67745 8.9402 4.44513 10.1228C4.29025 10.9208 4.31841 11.7258 4.31841 12.5309C4.31841 15.4447 4.32545 18.3657 4.31841 21.2796C4.31841 22.1416 4.33249 22.9965 4.58593 23.8301C4.79713 24.514 5.07872 25.1623 5.45184 25.7537C6.01503 26.6442 6.78239 27.3566 7.67646 27.891C8.68317 28.4823 9.76732 28.8741 10.95 28.8741C12.6537 28.8813 14.3574 28.8884 16.061 28.8884C17.7647 28.8884 19.4684 28.8813 21.1791 28.8741C21.7915 28.8741 22.404 28.8385 23.0095 28.7388C24.2203 28.5322 25.2974 28.005 26.2267 27.1928C26.8321 26.6656 27.3461 26.0529 27.7473 25.3476C28.2683 24.4499 28.5921 23.481 28.6555 22.448C28.7259 21.4577 28.7118 20.4674 28.7118 19.4771C28.7118 18.4013 28.6836 17.3256 28.6836 16.2498C28.6766 15.345 28.7118 14.4402 28.7118 13.5425C28.7118 12.7232 28.6907 11.9111 28.6696 11.0918C28.6696 10.9065 28.6766 10.7213 28.6414 10.5432C28.3105 8.56261 27.3742 6.95963 25.7621 5.77699C24.6005 4.92207 23.2981 4.48748 21.876 4.47323C21.1579 4.46611 20.4399 4.45898 19.7218 4.45898Z" fill="white"/>
<path d="M28.7196 13.5431C28.7196 12.7238 28.6985 11.9116 28.6774 11.0923C28.6774 10.9071 28.6844 10.7219 28.6492 10.5438C28.3183 8.56318 27.382 6.9602 25.7699 5.77756C24.6083 4.92264 23.3059 4.48805 21.8838 4.4738C20.0887 4.44531 18.2935 4.46668 16.4912 4.46668C14.6961 4.46668 12.9009 4.45956 11.1057 4.46668C10.3454 4.4738 9.61322 4.63054 8.90218 4.89414C7.73355 5.3216 6.74092 6.01266 5.94541 6.98158C5.19213 7.90062 4.68526 8.94077 4.45294 10.1234C4.29806 10.9213 4.32622 11.7264 4.32622 12.5314C4.32622 15.4453 4.33326 18.3663 4.32622 21.2802C4.32622 22.1422 4.3403 22.9971 4.59374 23.8307C4.80494 24.5146 5.08654 25.1629 5.45965 25.7542C6.02285 26.6448 6.7902 27.3572 7.68427 27.8916C8.69099 28.4829 9.77514 28.8747 10.9578 28.8747C14.3652 28.889 17.7725 28.889 21.1869 28.8747C21.7994 28.8747 22.4118 28.8391 23.0173 28.7394C24.2281 28.5327 25.3052 28.0055 26.2345 27.1934C26.84 26.6662 27.3539 26.0535 27.7552 25.3482C28.2761 24.4505 28.5999 23.4816 28.6633 22.4485C28.7337 21.4583 28.7196 20.468 28.7196 19.4777C28.7196 18.4019 28.6915 17.3261 28.6915 16.2504C28.6844 15.3456 28.7196 14.4408 28.7196 13.5431ZM26.4668 21.6292C26.4316 22.9686 26.0867 24.2368 25.1433 25.2484C24.8758 25.5405 24.559 25.8041 24.2211 25.9965C23.3904 26.4809 22.4752 26.7232 21.5107 26.7374C20.7504 26.7517 19.9831 26.7445 19.2227 26.7445C16.6884 26.7445 14.1469 26.7445 11.6126 26.7303C10.4791 26.7232 9.4161 26.4168 8.46571 25.797C7.79691 25.3695 7.33932 24.7426 7.02956 24.0017C6.65644 23.1325 6.48044 22.2206 6.48044 21.273C6.46636 18.1739 6.46636 15.0677 6.48044 11.9686C6.48044 11.1137 6.60716 10.273 6.88172 9.46798C7.3534 8.07873 8.30379 7.20243 9.70474 6.80347C10.4439 6.58974 11.2042 6.49712 11.9646 6.49712C14.9354 6.47575 17.8992 6.47575 20.8701 6.49C21.9402 6.49712 22.9961 6.64673 23.9677 7.14544C24.9744 7.66551 25.6643 8.46344 26.0585 9.5321C26.3542 10.3443 26.4809 11.1921 26.488 12.0612C26.495 13.6143 26.488 15.1746 26.488 16.7277H26.4809C26.4809 18.3592 26.5161 19.9978 26.4668 21.6292Z" fill="white"/>
<path d="M24.4161 10.066C24.4231 10.8355 23.7895 11.5479 22.9588 11.5123C22.1351 11.5123 21.5156 10.8853 21.5156 10.0518C21.5156 9.21113 22.1703 8.54856 23.0222 8.57706C23.8247 8.60556 24.4161 9.21825 24.4161 10.066Z" fill="white"/>
<path d="M16.4834 10.3874C13.0479 10.2876 10.2812 13.1659 10.2389 16.4787C10.1897 20.1264 12.9493 22.9405 16.4834 22.9191C19.8907 22.9049 22.6433 20.1477 22.6504 16.6069C22.6504 13.0519 19.6584 10.2876 16.4834 10.3874ZM16.4059 20.7889C14.125 20.8103 12.2876 18.844 12.3228 16.5571C12.365 14.32 14.2165 12.4819 16.4763 12.4819C18.6657 12.4819 20.6017 14.3556 20.5454 16.7566C20.4961 18.9936 18.6305 20.8459 16.4059 20.7889Z" fill="white"/>
</svg>
