<svg width="33" height="33" viewBox="0 0 33 33" fill="none" xmlns="http://www.w3.org/2000/svg">
<circle cx="16" cy="17" r="15" fill="white"/>
<path d="M32.9885 9.50893C32.9885 8.64685 32.8688 7.79189 32.6224 6.96543C32.0804 5.09878 31.109 3.5171 29.6237 2.26317C27.9272 0.838237 25.9914 0.0331515 23.774 0.0117775C21.3665 -0.0095964 18.9591 0.00465273 16.5446 0.00465273C14.0949 0.00465273 11.6382 -0.0095964 9.18848 0.0117775C7.68911 0.0189022 6.28124 0.425006 4.96489 1.15172C3.59925 1.90693 2.48 2.94001 1.61416 4.24382C0.628656 5.73287 0.0373517 7.38579 0.023273 9.17408C-0.018963 14.026 0.00919404 18.885 0.00919404 23.7369C0.00919404 24.086 0.037352 24.4351 0.0936666 24.7771C0.424515 26.6366 1.13549 28.3038 2.38849 29.7358C3.21209 30.6763 4.17648 31.4243 5.28166 31.9872C6.61209 32.664 8.02699 32.9918 9.51229 32.9918C12.6659 33.006 15.8125 32.9989 18.9661 32.9918C20.7752 32.9846 22.5773 32.9918 24.3864 32.9348C25.6042 32.8992 26.7516 32.5073 27.8357 31.9444C29.0324 31.3246 30.046 30.4839 30.8837 29.4223C32.2141 27.7409 32.9603 25.8244 32.9744 23.6799C33.0166 18.9562 32.9955 14.2326 32.9885 9.50893ZM28.6593 22.4473C28.5889 23.4804 28.2651 24.4493 27.7512 25.347C27.35 26.0524 26.8361 26.6651 26.2307 27.1923C25.3015 28.0045 24.2245 28.5317 23.0067 28.7384C22.4084 28.8381 21.7889 28.8737 21.1765 28.8737C17.7694 28.888 14.3554 28.888 10.9483 28.8737C9.76571 28.8666 8.68165 28.4819 7.68207 27.8834C6.78103 27.3491 6.02079 26.6437 5.45764 25.7531C5.08455 25.1618 4.79594 24.5134 4.5918 23.8295C4.33839 22.9888 4.32431 22.1409 4.32431 21.2789C4.32431 18.3577 4.32431 15.4438 4.32431 12.5227C4.32431 11.7176 4.29615 10.9125 4.45101 10.1145C4.67627 8.93184 5.19014 7.89164 5.94335 6.97256C6.73176 6.00361 7.7243 5.31252 8.89283 4.88504C9.6038 4.62142 10.3429 4.46468 11.0961 4.45756C12.8912 4.45043 14.6862 4.45756 16.4883 4.45756C18.2833 4.45756 20.0783 4.44331 21.8804 4.46468C23.3023 4.47893 24.6046 4.91353 25.7661 5.76849C27.3852 6.95831 28.3144 8.56136 28.6522 10.5349C28.6804 10.713 28.6734 10.9054 28.6804 11.0906C28.6945 11.9099 28.7226 12.7221 28.7226 13.5415C28.7226 14.4463 28.6945 15.344 28.6945 16.2489C28.6945 17.3247 28.7297 18.4005 28.7226 19.4834C28.7156 20.4666 28.7226 21.4641 28.6593 22.4473ZM26.4841 16.7262C26.4841 15.1659 26.4912 13.6127 26.4841 12.0524C26.4771 11.1903 26.3574 10.3354 26.0547 9.52318C25.6605 8.46161 24.9707 7.65652 23.964 7.14355C22.9926 6.64482 21.9367 6.48808 20.8667 6.48808C17.8961 6.47383 14.9326 6.47383 11.962 6.49521C11.2017 6.50233 10.4415 6.58783 9.70236 6.80157C8.30153 7.20055 7.35122 8.07688 6.87958 9.46619C6.60505 10.2784 6.47834 11.1191 6.47834 11.9669C6.46426 15.0662 6.4713 18.1725 6.47834 21.2717C6.47834 22.2122 6.65433 23.1241 7.02741 24.0005C7.34418 24.7414 7.80174 25.3684 8.47047 25.7959C9.42078 26.4157 10.4837 26.7221 11.6171 26.7292C14.1512 26.7435 16.6924 26.7363 19.2266 26.7435C19.9868 26.7435 20.7541 26.7506 21.5144 26.7363C22.4787 26.7221 23.3939 26.4798 24.2245 25.9954C24.5624 25.7959 24.8792 25.5323 25.1467 25.2473C26.0899 24.2356 26.4349 22.9674 26.4701 21.628C26.5123 19.9964 26.4771 18.3649 26.4841 16.7262ZM16.4812 22.9246C12.9475 22.946 10.1881 20.1318 10.2303 16.484C10.2725 13.171 13.039 10.2926 16.4812 10.3924C19.6489 10.2855 22.6477 13.0499 22.6407 16.6122C22.6407 20.1532 19.8883 22.9033 16.4812 22.9246ZM22.9574 11.511C22.1338 11.511 21.5144 10.884 21.5144 10.0504C21.5144 9.2097 22.169 8.5471 23.0208 8.58273C23.8162 8.61123 24.4146 9.22395 24.4146 10.0647C24.4146 10.8412 23.7881 11.5466 22.9574 11.511ZM16.4742 12.4799C14.2146 12.4799 12.3632 14.3181 12.321 16.5552C12.2788 18.8422 14.1231 20.8086 16.3968 20.7873C18.6282 20.8442 20.4866 18.9847 20.5429 16.7547C20.5992 14.3537 18.6564 12.4799 16.4742 12.4799Z" fill="url(#paint0_linear)"/>
<defs>
<linearGradient id="paint0_linear" x1="3.67979" y1="29.468" x2="29.6606" y2="3.79818" gradientUnits="userSpaceOnUse">
<stop stop-color="#EEBB26"/>
<stop offset="0.3436" stop-color="#DA1749"/>
<stop offset="0.4832" stop-color="#BC2262"/>
<stop offset="1" stop-color="#292F8F"/>
</linearGradient>
</defs>
</svg>
