<svg width="200" height="200" viewBox="0 0 200 200" fill="none" xmlns="http://www.w3.org/2000/svg">
<circle cx="100" cy="100" r="99" stroke="white" stroke-opacity="0.29" stroke-width="2"/>
<circle cx="98.5" cy="100.5" r="18.5" fill="white"/>
<path d="M100 67C81.7746 67 67 81.7747 67 100C67 118.225 81.7746 133 100 133C118.225 133 133 118.225 133 100C133 81.7747 118.225 67 100 67ZM90.4474 84.3684L116.5 100L90.4474 115.632V84.3684Z" fill="#FE0000"/>
<path d="M23.1261 93.4724C21.5061 93.2645 20.3097 92.7628 19.5369 91.9673C18.755 91.1706 18.4456 90.1382 18.6089 88.87C18.6971 88.185 18.8938 87.608 19.1988 87.139C19.5039 86.67 19.8995 86.3021 20.3855 86.0351C20.8636 85.7577 21.4228 85.5801 22.0633 85.5023C22.6946 85.4234 23.3898 85.4326 24.1489 85.53C25.7689 85.7379 26.9693 86.2449 27.7501 87.0508C28.5229 87.8463 28.827 88.8828 28.6625 90.1602C28.5755 90.836 28.3794 91.4083 28.0744 91.8773C27.7705 92.3371 27.3795 92.7056 26.9015 92.983C26.4155 93.25 25.8568 93.423 25.2255 93.5019C24.585 93.5797 23.8852 93.5699 23.1261 93.4724ZM23.2835 92.2505C23.8204 92.3194 24.3361 92.3339 24.8306 92.2938C25.3263 92.2445 25.7736 92.1325 26.1725 91.9579C26.5621 91.7821 26.8901 91.5371 27.1564 91.2232C27.4146 90.8987 27.5741 90.5005 27.6349 90.0283C27.7458 89.1675 27.5088 88.4501 26.9239 87.8763C26.3298 87.3014 25.3524 86.9266 23.9915 86.7519C23.4639 86.6842 22.9522 86.675 22.4565 86.7243C21.9527 86.7632 21.5054 86.8751 21.1146 87.0602C20.7157 87.2349 20.3871 87.4844 20.1289 87.8089C19.8626 88.1228 19.6985 88.5205 19.6365 89.0019C19.5268 89.8535 19.769 90.5668 20.3631 91.1418C20.9492 91.7063 21.9226 92.0759 23.2835 92.2505Z" fill="white"/>
<path d="M33.4355 76.9655L33.226 77.7355L31.4278 77.4654L29.6229 84.0982L31.3108 84.7736L31.0976 85.5571L28.3547 84.8132L28.6156 83.8541C28.5362 83.7552 28.3359 83.5848 28.0148 83.343C27.6871 83.0897 27.2051 82.7995 26.5687 82.4721C25.9257 82.1334 25.1113 81.7674 24.1252 81.3743C23.1302 80.9787 21.93 80.5904 20.5248 80.2093L21.8996 75.157L30.3581 77.4509L30.6926 76.2216L33.4355 76.9655ZM30.053 78.5722L22.5944 76.5494L21.8114 79.4268C22.7949 79.7225 23.672 80.0184 24.4426 80.3144C25.2157 80.6015 25.8939 80.8821 26.477 81.1563C27.0511 81.428 27.5405 81.6913 27.9451 81.9461C28.3497 82.2009 28.6811 82.4406 28.9391 82.6653L30.053 78.5722Z" fill="white"/>
<path d="M28.814 66.5176L27.8163 66.0021L27.7943 66.0536L28.6145 67.0565L32.8386 73.9947L32.5694 74.6256L23.5508 70.7909L24.0069 69.7221L30.191 72.3516L31.1704 72.8746L31.1923 72.8231L30.3776 71.8073L26.0891 64.8417L26.3583 64.2108L35.3769 68.0455L34.9209 69.1143L28.814 66.5176Z" fill="white"/>
<path d="M35.9183 58.3997L33.4965 62.4323L37.3527 64.7402L36.7544 65.7364L28.3454 60.7036L28.9437 59.7075L32.6076 61.9003L35.0294 57.8676L31.3655 55.6748L31.9637 54.6786L40.3727 59.7114L39.7745 60.7075L35.9183 58.3997Z" fill="white"/>
<path d="M42.0292 49.8657C40.8442 48.7415 40.175 47.6307 40.0214 46.533C39.8612 45.4289 40.2218 44.4138 41.1034 43.4877C41.5796 42.9874 42.0795 42.6383 42.603 42.4402C43.1266 42.2422 43.6635 42.179 44.2137 42.2508C44.7636 42.3093 45.3201 42.4963 45.8832 42.8118C46.4395 43.1208 46.9952 43.5387 47.5505 44.0654C48.7354 45.1895 49.4048 46.307 49.5587 47.4178C49.7122 48.5155 49.345 49.5308 48.4569 50.4637C47.9871 50.9572 47.4905 51.3029 46.9669 51.501C46.4498 51.6923 45.9163 51.7586 45.3664 51.7001C44.8162 51.6284 44.2629 51.438 43.7066 51.129C43.1435 50.8135 42.5844 50.3924 42.0292 49.8657ZM42.8786 48.9733C43.2713 49.3459 43.6791 49.662 44.102 49.9217C44.5313 50.1746 44.9586 50.3484 45.3839 50.4431C45.8024 50.5313 46.212 50.5275 46.6126 50.4315C47.0129 50.3224 47.3771 50.0954 47.7053 49.7507C48.3038 49.122 48.5365 48.4036 48.4036 47.5957C48.2639 46.7813 47.6964 45.902 46.701 44.9577C46.3151 44.5916 45.9074 44.2821 45.4781 44.0292C45.0485 43.7631 44.6212 43.5893 44.1962 43.5078C43.7709 43.4131 43.3581 43.4203 42.9579 43.5294C42.5573 43.6254 42.1896 43.8492 41.855 44.2007C41.263 44.8226 41.0368 45.5408 41.1765 46.3551C41.3159 47.1563 41.8832 48.0291 42.8786 48.9733Z" fill="white"/>
<path d="M46.7559 38.4631L50.8866 35.1105L51.5408 35.9138L48.3124 38.5341L50.1689 40.8137C50.2744 40.692 50.4089 40.5468 50.5724 40.3781C50.7359 40.2093 50.901 40.0573 51.0677 39.922C51.4373 39.622 51.8182 39.3729 52.2105 39.1747C52.5969 38.9693 52.9847 38.8469 53.3739 38.8075C53.7631 38.7681 54.148 38.8343 54.5287 39.0061C54.9107 39.1648 55.2786 39.4613 55.6322 39.8955C55.9859 40.3297 56.2163 40.7678 56.3234 41.2098C56.4247 41.6445 56.431 42.0661 56.3424 42.4746C56.2479 42.8758 56.0716 43.2653 55.8135 43.6431C55.5568 44.0077 55.2436 44.34 54.874 44.64C54.7508 44.74 54.6066 44.8511 54.4413 44.9732C54.2891 45.0968 54.1201 45.2219 53.9344 45.3486C53.756 45.4694 53.5745 45.5866 53.3902 45.7001C53.219 45.8151 53.0498 45.9103 52.8826 45.9859L46.7559 38.4631ZM54.3462 43.7702C54.5781 43.582 54.7726 43.37 54.9297 43.1343C55.0868 42.8986 55.1914 42.6575 55.2433 42.4109C55.2967 42.1513 55.2873 41.8885 55.2151 41.6225C55.1502 41.3506 55.0116 41.0844 54.7994 40.8239C54.5283 40.491 54.2559 40.2673 53.9821 40.1529C53.7098 40.0254 53.4395 39.9743 53.1712 39.9997C52.903 40.0251 52.6382 40.1138 52.3769 40.2658C52.1168 40.4047 51.8636 40.5742 51.6173 40.7742C51.552 40.8271 51.4789 40.8925 51.3978 40.9703C51.3168 41.0481 51.2357 41.1259 51.1546 41.2038C51.0736 41.2816 51.0027 41.3571 50.942 41.4304C50.8754 41.4965 50.827 41.5478 50.7966 41.5845L53.2279 44.5697C53.2904 44.543 53.3645 44.5009 53.4501 44.4435C53.5429 44.3801 53.6394 44.3138 53.7395 44.2446C53.8468 44.1695 53.9512 44.0908 54.0527 44.0084C54.1542 43.9261 54.252 43.8467 54.3462 43.7702Z" fill="white"/>
<path d="M55.9534 32.9734L54.0534 34.1598L53.5033 33.2819L56.3889 31.48L58.4109 34.7069C58.4455 34.6742 58.5078 34.6243 58.5979 34.5571C58.683 34.4819 58.7784 34.4058 58.8843 34.3287C58.9981 34.2466 59.1119 34.1646 59.2257 34.0825C59.3395 34.0004 59.4439 33.9297 59.5389 33.8704C59.911 33.6381 60.2999 33.4502 60.7057 33.3068C61.1145 33.1506 61.5208 33.0784 61.9248 33.0903C62.3287 33.1021 62.7193 33.2158 63.0967 33.4313C63.4691 33.6389 63.8089 33.9879 64.1161 34.4783C64.4135 34.9528 64.5881 35.416 64.6399 35.8678C64.6917 36.3196 64.643 36.7516 64.4938 37.1639C64.3446 37.5762 64.1067 37.9613 63.7803 38.3192C63.4618 38.6721 63.0729 38.992 62.6138 39.2787C62.5029 39.3479 62.3659 39.428 62.2026 39.519C62.0442 39.6178 61.8691 39.7162 61.6771 39.8141C61.498 39.9149 61.3099 40.0103 61.113 40.1003C60.916 40.1903 60.73 40.2625 60.5548 40.3169L55.9534 32.9734ZM62.2092 38.343C62.4942 38.165 62.7371 37.9638 62.9379 37.7394C63.1417 37.5021 63.2875 37.2514 63.3754 36.9875C63.4663 36.7106 63.4953 36.423 63.4624 36.1244C63.4246 35.8179 63.309 35.5104 63.1158 35.202C62.9076 34.8698 62.6748 34.6301 62.4173 34.4828C62.1598 34.3355 61.8924 34.2603 61.6152 34.2574C61.3331 34.2465 61.0504 34.2965 60.7674 34.4072C60.4794 34.51 60.2008 34.6455 59.9316 34.8136C59.8604 34.8581 59.7757 34.9164 59.6778 34.9886C59.5798 35.0607 59.4819 35.1329 59.3839 35.2051C59.2859 35.2773 59.1984 35.3485 59.1212 35.4187C59.044 35.4889 58.9881 35.5403 58.9535 35.5729L61.0721 38.954C61.1978 38.9085 61.3685 38.8294 61.5842 38.7167C61.795 38.5961 62.0033 38.4715 62.2092 38.343Z" fill="white"/>
<path d="M63.5678 27.4921L68.4058 25.2459L68.8433 26.185L65.0592 27.9418L66.4131 30.848L69.8797 29.2385L70.3172 30.1776L66.8505 31.7871L68.3226 34.947L72.1702 33.1607L72.6077 34.0998L67.7062 36.3754L63.5678 27.4921Z" fill="white"/>
<path d="M75.8812 28.2015L75.2548 28.4029L76.6478 32.7197L75.5416 33.0755L72.5321 23.7491L73.6383 23.3933L75.0399 27.7368L75.5794 27.3574L77.37 22.1932L78.6495 21.7817L76.8249 26.795L76.407 27.4147L77.2587 27.7291L82.0722 30.9753L80.6728 31.4253L75.8812 28.2015Z" fill="white"/>
<path d="M88.9794 20.8016L85.981 21.371L87.6215 29.9801L86.4799 30.1969L84.8394 21.5878L81.841 22.1572L81.647 21.1395L88.7855 19.7839L88.9794 20.8016Z" fill="white"/>
<path d="M103.879 21.5098C103.872 22.0045 103.772 22.5118 103.578 23.0319C103.394 23.5428 103.149 24.0575 102.843 24.5761C102.547 25.0948 102.213 25.6037 101.842 26.1027C101.472 26.5924 101.101 27.0588 100.731 27.5018L100.037 28.0945L100.036 28.1505L100.934 28.0086L103.986 28.0499L103.972 29.0858L98.4006 29.0104L98.4061 28.6045C98.6144 28.3926 98.8653 28.13 99.1589 27.8166C99.4525 27.5032 99.7559 27.1573 100.069 26.7788C100.392 26.3911 100.705 25.9847 101.01 25.5594C101.324 25.1249 101.605 24.6854 101.854 24.2407C102.112 23.7961 102.318 23.3556 102.474 22.919C102.629 22.4824 102.709 22.0681 102.715 21.6761C102.721 21.2188 102.595 20.8391 102.338 20.5369C102.081 20.2254 101.686 20.0661 101.154 20.0589C100.8 20.0541 100.453 20.1241 100.115 20.2688C99.7775 20.4043 99.486 20.5637 99.2408 20.7471L98.7897 19.9429C99.1201 19.6673 99.5104 19.4532 99.9605 19.3007C100.411 19.1481 100.892 19.0752 101.406 19.0822C101.807 19.0876 102.161 19.1531 102.467 19.2785C102.773 19.3947 103.033 19.5615 103.244 19.7791C103.456 19.9966 103.616 20.2555 103.724 20.5556C103.832 20.8465 103.884 21.1645 103.879 21.5098Z" fill="white"/>
<path d="M107.301 24.5087C107.524 22.8435 107.96 21.6257 108.609 20.8553C109.267 20.0862 110.115 19.7706 111.151 19.9086C112.27 20.0577 113.024 20.5818 113.412 21.481C113.811 22.3721 113.897 23.6641 113.671 25.3571C113.449 27.0223 113.008 28.2394 112.35 29.0086C111.701 29.779 110.854 30.0945 109.808 29.9553C108.707 29.8087 107.961 29.262 107.57 28.3154C107.178 27.3688 107.089 26.0999 107.301 24.5087ZM108.453 24.6621C108.373 25.2634 108.336 25.8188 108.344 26.3282C108.361 26.8296 108.429 27.2718 108.548 27.6548C108.667 28.0285 108.838 28.3338 109.061 28.5705C109.294 28.7993 109.586 28.9371 109.938 28.9839C110.641 29.0776 111.198 28.8222 111.608 28.2177C112.029 27.6053 112.333 26.6006 112.519 25.2037C112.599 24.6116 112.634 24.0608 112.627 23.5514C112.629 23.0432 112.571 22.5977 112.453 22.2147C112.344 21.833 112.173 21.5277 111.94 21.2989C111.706 21.0701 111.4 20.9305 111.021 20.88C110.327 20.7876 109.77 21.0476 109.349 21.6601C108.937 22.2738 108.639 23.2745 108.453 24.6621Z" fill="white"/>
<path d="M130.184 26.2447L127.301 25.2452L124.422 33.523L123.324 33.1424L126.203 24.8647L123.319 23.8653L123.659 22.8868L130.525 25.2662L130.184 26.2447Z" fill="white"/>
<path d="M137.566 32.229L138.142 31.2643L138.092 31.2394L137.04 31.9983L129.851 35.8023L129.237 35.4967L133.615 26.7288L134.655 27.2465L131.653 33.2587L131.072 34.2046L131.122 34.2295L132.186 33.4769L139.406 29.6102L140.02 29.9158L135.642 38.6837L134.602 38.1661L137.566 32.229Z" fill="white"/>
<path d="M147.527 36.1649L143.792 33.6153L138.839 40.8456L137.879 40.1904L143.418 32.1054L149.072 35.9654L143.534 44.0503L142.574 43.3952L147.527 36.1649Z" fill="white"/>
<path d="M148.79 42.1241C149.889 40.9158 150.986 40.2225 152.082 40.0442C153.184 39.859 154.209 40.1958 155.156 41.0546C155.668 41.5184 156.029 42.0094 156.239 42.5274C156.449 43.0454 156.525 43.5798 156.465 44.1306C156.419 44.6807 156.244 45.2404 155.941 45.8096C155.644 46.3718 155.238 46.9361 154.723 47.5022C153.624 48.7105 152.52 49.4041 151.411 49.5831C150.316 49.7613 149.291 49.418 148.336 48.553C147.831 48.0954 147.474 47.6076 147.264 47.0896C147.061 46.5778 146.982 46.0469 147.028 45.4967C147.088 44.9459 147.266 44.3894 147.563 43.8271C147.866 43.2579 148.275 42.6903 148.79 42.1241ZM149.703 42.9515C149.339 43.352 149.031 43.7662 148.781 44.1942C148.537 44.6284 148.373 45.0589 148.287 45.4855C148.209 45.9052 148.222 46.3139 148.327 46.7115C148.445 47.1085 148.681 47.4669 149.033 47.7865C149.676 48.3695 150.401 48.5854 151.207 48.4343C152.019 48.2763 152.887 47.6898 153.81 46.6748C154.168 46.2813 154.469 45.8674 154.713 45.4331C154.969 44.9982 155.134 44.5678 155.206 44.1418C155.291 43.7152 155.275 43.3034 155.156 42.9064C155.051 42.5087 154.819 42.1469 154.459 41.821C153.823 41.2443 153.099 41.035 152.286 41.193C151.487 41.3504 150.626 41.9365 149.703 42.9515Z" fill="white"/>
<path d="M162.441 52.5476C162.262 52.6979 162.056 52.8226 161.822 52.9219C161.588 53.0212 161.341 53.083 161.081 53.1072C160.827 53.1254 160.564 53.0965 160.292 53.0205C160.021 52.9445 159.75 52.8123 159.481 52.624L159.438 52.6601C159.583 52.904 159.694 53.1583 159.771 53.4229C159.854 53.6947 159.884 53.9686 159.861 54.2445C159.837 54.5205 159.757 54.795 159.622 55.068C159.486 55.3411 159.271 55.6008 158.979 55.8473C158.593 56.172 158.188 56.3726 157.764 56.4491C157.353 56.5267 156.947 56.5088 156.546 56.3954C156.151 56.289 155.768 56.1044 155.4 55.8415C155.031 55.5786 154.699 55.2725 154.404 54.9231C154.301 54.802 154.181 54.6594 154.042 54.4954C153.904 54.3314 153.766 54.1543 153.63 53.9641C153.486 53.7799 153.35 53.5896 153.221 53.3934C153.085 53.2031 152.977 53.0252 152.898 52.8597L160.276 46.6462C160.542 46.8739 160.837 47.1503 161.161 47.4756C161.484 47.8009 161.821 48.1702 162.17 48.5837C162.405 48.8617 162.618 49.1644 162.809 49.4916C163.013 49.82 163.147 50.1589 163.21 50.5084C163.281 50.8519 163.261 51.1976 163.152 51.5457C163.049 51.901 162.812 52.2349 162.441 52.5476ZM155.247 54.3594C155.44 54.5875 155.651 54.7875 155.882 54.9592C156.12 55.125 156.365 55.2418 156.618 55.3095C156.878 55.3713 157.133 55.3764 157.382 55.3248C157.638 55.2803 157.884 55.1588 158.119 54.9604C158.412 54.7139 158.596 54.4549 158.672 54.1834C158.755 53.9191 158.764 53.6486 158.702 53.3719C158.645 53.1024 158.535 52.835 158.372 52.5697C158.209 52.3043 158.028 52.0541 157.829 51.8188L157.043 50.8885L154.355 53.1521C154.383 53.214 154.432 53.2943 154.504 53.393C154.575 53.4917 154.652 53.5975 154.735 53.7104C154.818 53.8234 154.905 53.9399 154.994 54.06C155.09 54.174 155.175 54.2738 155.247 54.3594ZM158.262 50.8133C158.365 50.9345 158.492 51.0776 158.644 51.2427C158.795 51.4078 158.926 51.5413 159.037 51.6434C159.239 51.7663 159.442 51.8696 159.647 51.9532C159.859 52.0308 160.067 52.0815 160.271 52.1054C160.487 52.1304 160.694 52.1148 160.891 52.0587C161.101 52.0038 161.292 51.9041 161.463 51.7598C161.699 51.5614 161.853 51.3528 161.924 51.1339C162.009 50.916 162.034 50.6932 162.001 50.4653C161.967 50.2375 161.887 50.0123 161.76 49.7897C161.64 49.5612 161.496 49.3471 161.327 49.1475C161.128 48.9122 160.937 48.7008 160.754 48.5132C160.585 48.3268 160.447 48.1926 160.341 48.1109L157.792 50.2572L158.262 50.8133Z" fill="white"/>
<path d="M164.98 70.4685C164.658 70.3239 164.358 70.0827 164.08 69.7448C163.802 69.4069 163.548 69.0244 163.317 68.5974C163.037 68.0801 162.862 67.5492 162.791 67.0046C162.727 66.4556 162.786 65.9155 162.965 65.3841C163.145 64.8527 163.461 64.3381 163.913 63.8401C164.374 63.3377 164.99 62.8785 165.763 62.4626C166.568 62.0289 167.308 61.7684 167.982 61.681C168.669 61.5974 169.284 61.637 169.828 61.7998C170.385 61.9664 170.866 62.2272 171.27 62.5821C171.673 62.937 172 63.3444 172.248 63.8042C172.514 64.2969 172.703 64.7148 172.814 65.0578C172.933 65.3964 173.008 65.7008 173.037 65.9712L172.004 66.2094C171.98 65.7135 171.771 65.1001 171.376 64.3693C171.194 64.0326 170.953 63.7333 170.652 63.4712C170.351 63.2091 169.99 63.0219 169.569 62.9096C169.152 62.8055 168.675 62.7971 168.139 62.8845C167.603 62.9718 167.006 63.1925 166.348 63.5465C165.757 63.8651 165.279 64.2178 164.915 64.6045C164.551 64.9913 164.29 65.3916 164.132 65.8054C163.978 66.2275 163.92 66.6508 163.959 67.0753C164.001 67.508 164.134 67.9297 164.356 68.3403C164.555 68.7098 164.765 69.0101 164.986 69.2413C165.21 69.4806 165.431 69.6638 165.648 69.7907L164.98 70.4685Z" fill="white"/>
<path d="M174.601 75.5206C174.384 75.6051 174.148 75.6564 173.895 75.6747C173.642 75.693 173.388 75.6714 173.134 75.61C172.888 75.5452 172.649 75.4328 172.416 75.2728C172.184 75.1128 171.97 74.9002 171.777 74.6349L171.725 74.6552C171.783 74.933 171.806 75.2096 171.793 75.4849C171.783 75.769 171.723 76.0378 171.611 76.2914C171.499 76.5449 171.335 76.7789 171.118 76.9933C170.901 77.2078 170.614 77.3842 170.258 77.5228C169.788 77.7052 169.34 77.764 168.914 77.6991C168.5 77.6396 168.122 77.4911 167.779 77.2538C167.439 77.0252 167.138 76.7268 166.874 76.3587C166.611 75.9905 166.396 75.5933 166.23 75.1672C166.172 75.0194 166.104 74.8454 166.026 74.6454C165.948 74.4454 165.876 74.2333 165.808 74.0091C165.732 73.7883 165.665 73.5642 165.606 73.3366C165.539 73.1125 165.495 72.9093 165.474 72.7272L174.466 69.2353C174.644 69.5368 174.833 69.8938 175.034 70.3065C175.234 70.7191 175.433 71.1776 175.63 71.682C175.762 72.0211 175.865 72.3765 175.94 72.748C176.027 73.1248 176.043 73.4888 175.99 73.84C175.945 74.1878 175.815 74.5087 175.599 74.8028C175.386 75.1057 175.054 75.3449 174.601 75.5206ZM167.21 74.9066C167.318 75.1849 167.454 75.4427 167.616 75.6799C167.788 75.9138 167.982 76.1037 168.199 76.2497C168.425 76.3923 168.664 76.4795 168.917 76.5115C169.173 76.5521 169.445 76.5167 169.732 76.4052C170.089 76.2667 170.347 76.0813 170.507 75.849C170.67 75.6254 170.767 75.3725 170.797 75.0904C170.831 74.817 170.814 74.5284 170.746 74.2245C170.677 73.9206 170.587 73.6252 170.475 73.3382L170.033 72.2033L166.757 73.4754C166.764 73.543 166.785 73.6351 166.82 73.7515C166.855 73.8679 166.894 73.9931 166.936 74.1269C166.978 74.2607 167.022 74.3989 167.068 74.5414C167.122 74.6805 167.169 74.8023 167.21 74.9066ZM171.211 72.5269C171.269 72.6747 171.342 72.8513 171.432 73.0566C171.522 73.262 171.603 73.4308 171.675 73.5632C171.826 73.7449 171.985 73.9085 172.152 74.0539C172.327 74.196 172.507 74.3113 172.692 74.3997C172.889 74.4935 173.089 74.5458 173.294 74.5565C173.511 74.5725 173.723 74.5399 173.932 74.4588C174.219 74.3473 174.432 74.1996 174.571 74.0156C174.721 73.8369 174.818 73.6343 174.86 73.4077C174.902 73.1812 174.899 72.9421 174.851 72.6904C174.811 72.4353 174.744 72.186 174.649 71.9425C174.538 71.6555 174.426 71.3937 174.313 71.1569C174.213 70.9255 174.126 70.754 174.053 70.6424L170.947 71.8486L171.211 72.5269Z" fill="white"/>
<path d="M172.185 85.2841L171.316 81.7783L168.443 81.479L168.167 80.3647L178.723 81.5768L178.851 82.0931L170.084 88.0964L169.791 86.9142L172.185 85.2841ZM172.385 81.9033L173.079 84.7025L175.711 82.927L177.068 82.2311L177.064 82.2175L175.512 82.2407L172.385 81.9033Z" fill="white"/>
<path d="M177.567 95.5883L178.69 95.5491L178.684 95.4935L177.476 95.0208L170.388 91.0412L170.313 90.3594L180.054 89.2861L180.181 90.441L173.502 91.177L172.392 91.2007L172.398 91.2564L173.607 91.7429L180.764 95.7149L180.84 96.3968L171.099 97.47L170.971 96.3151L177.567 95.5883ZM182.686 91.4328C182.346 91.5077 182.096 91.6667 181.935 91.9098C181.774 92.1529 181.715 92.4599 181.756 92.831C181.797 93.2021 181.922 93.4841 182.131 93.677C182.341 93.8792 182.616 93.9851 182.955 93.9947L182.827 95.0087C182.315 94.9619 181.89 94.7693 181.552 94.4309C181.225 94.1008 181.023 93.5925 180.947 92.906C180.874 92.2474 180.939 91.6909 181.143 91.2366C181.356 90.7905 181.737 90.4997 182.286 90.3641L182.686 91.4328Z" fill="white"/>
<path d="M175.74 106.18C177.363 106.359 178.568 106.839 179.355 107.621C180.151 108.404 180.479 109.43 180.339 110.701C180.263 111.388 180.077 111.968 179.78 112.443C179.483 112.917 179.095 113.292 178.613 113.567C178.14 113.853 177.584 114.041 176.945 114.13C176.316 114.22 175.62 114.224 174.86 114.14C173.236 113.961 172.027 113.476 171.232 112.684C170.445 111.902 170.122 110.871 170.264 109.591C170.339 108.914 170.524 108.338 170.821 107.864C171.116 107.399 171.501 107.023 171.974 106.737C172.455 106.462 173.01 106.279 173.64 106.188C174.279 106.099 174.979 106.097 175.74 106.18ZM175.604 107.405C175.066 107.346 174.55 107.34 174.057 107.389C173.562 107.447 173.117 107.567 172.721 107.749C172.335 107.932 172.011 108.183 171.75 108.501C171.498 108.83 171.346 109.231 171.293 109.705C171.198 110.567 171.448 111.28 172.043 111.844C172.647 112.408 173.631 112.765 174.995 112.915C175.524 112.974 176.036 112.974 176.53 112.915C177.033 112.868 177.479 112.748 177.866 112.556C178.262 112.374 178.586 112.118 178.838 111.789C179.099 111.471 179.256 111.07 179.309 110.588C179.403 109.734 179.148 109.025 178.544 108.461C177.948 107.907 176.968 107.555 175.604 107.405Z" fill="white"/>
<path d="M165.727 122.869L165.923 122.096L167.725 122.334L169.411 115.669L167.711 115.024L167.91 114.237L170.666 114.932L170.422 115.896C170.503 115.993 170.707 116.16 171.032 116.396C171.364 116.643 171.851 116.925 172.494 117.241C173.143 117.568 173.963 117.919 174.956 118.295C175.958 118.672 177.165 119.039 178.577 119.395L177.293 124.471L168.795 122.329L168.483 123.564L165.727 122.869ZM169.08 121.202L176.574 123.091L177.305 120.2C176.316 119.922 175.434 119.642 174.658 119.36C173.88 119.087 173.197 118.818 172.609 118.555C172.03 118.293 171.536 118.039 171.127 117.791C170.718 117.544 170.382 117.31 170.12 117.09L169.08 121.202Z" fill="white"/>
<path d="M170.536 133.233L171.543 133.73L171.564 133.679L170.726 132.691L166.378 125.829L166.636 125.193L175.721 128.866L175.285 129.943L169.054 127.424L168.066 126.919L168.045 126.971L168.878 127.972L173.29 134.86L173.032 135.495L163.947 131.823L164.383 130.746L170.536 133.233Z" fill="white"/>
<path d="M163.577 141.477L165.926 137.401L162.03 135.163L162.61 134.156L171.108 139.038L170.527 140.044L166.825 137.917L164.476 141.993L168.178 144.12L167.598 145.126L159.1 140.245L159.68 139.238L163.577 141.477Z" fill="white"/>
<path d="M157.624 150.119C158.829 151.221 159.518 152.32 159.691 153.415C159.871 154.516 159.529 155.537 158.664 156.479C158.197 156.988 157.703 157.346 157.183 157.553C156.663 157.761 156.128 157.833 155.576 157.771C155.025 157.723 154.465 157.546 153.897 157.241C153.335 156.942 152.772 156.534 152.207 156.017C151.002 154.914 150.313 153.809 150.139 152.701C149.966 151.606 150.315 150.585 151.186 149.636C151.647 149.134 152.138 148.779 152.658 148.572C153.171 148.372 153.703 148.296 154.254 148.344C154.806 148.406 155.362 148.587 155.924 148.886C156.493 149.191 157.059 149.602 157.624 150.119ZM156.791 151.026C156.391 150.661 155.978 150.352 155.55 150.1C155.117 149.855 154.686 149.689 154.259 149.601C153.839 149.521 153.43 149.532 153.031 149.635C152.633 149.751 152.273 149.985 151.951 150.335C151.364 150.975 151.144 151.697 151.291 152.503C151.445 153.314 152.029 154.183 153.041 155.11C153.433 155.469 153.846 155.771 154.28 156.016C154.714 156.274 155.145 156.44 155.571 156.514C155.998 156.601 156.411 156.587 156.809 156.47C157.208 156.367 157.571 156.137 157.899 155.78C158.48 155.147 158.694 154.425 158.539 153.613C158.386 152.815 157.803 151.952 156.791 151.026Z" fill="white"/>
<path d="M153.102 161.604L149.032 165.03L148.364 164.239L151.545 161.561L149.647 159.315C149.544 159.438 149.412 159.586 149.252 159.758C149.091 159.929 148.929 160.084 148.765 160.223C148.401 160.529 148.024 160.785 147.636 160.99C147.253 161.202 146.867 161.332 146.479 161.378C146.091 161.425 145.704 161.365 145.321 161.2C144.936 161.048 144.563 160.759 144.201 160.331C143.84 159.903 143.602 159.469 143.487 159.029C143.378 158.596 143.364 158.175 143.445 157.765C143.532 157.362 143.702 156.969 143.953 156.587C144.203 156.218 144.51 155.88 144.874 155.574C144.996 155.471 145.138 155.358 145.301 155.233C145.451 155.106 145.618 154.978 145.801 154.848C145.977 154.724 146.157 154.604 146.339 154.487C146.508 154.369 146.676 154.271 146.841 154.192L153.102 161.604ZM145.418 156.434C145.189 156.626 144.999 156.841 144.846 157.08C144.693 157.318 144.593 157.561 144.545 157.809C144.496 158.069 144.511 158.332 144.588 158.597C144.657 158.867 144.801 159.131 145.017 159.388C145.294 159.716 145.571 159.934 145.847 160.044C146.121 160.166 146.392 160.213 146.66 160.183C146.928 160.152 147.191 160.059 147.45 159.902C147.707 159.759 147.957 159.585 148.2 159.38C148.264 159.326 148.336 159.26 148.416 159.18C148.496 159.101 148.575 159.022 148.655 158.943C148.735 158.863 148.804 158.786 148.863 158.712C148.929 158.645 148.976 158.593 149.006 158.555L146.522 155.614C146.46 155.642 146.386 155.686 146.302 155.745C146.21 155.81 146.115 155.878 146.016 155.949C145.91 156.026 145.807 156.106 145.707 156.19C145.607 156.274 145.511 156.356 145.418 156.434Z" fill="white"/>
<path d="M144.004 167.257L145.883 166.037L146.449 166.905L143.596 168.758L141.516 165.568C141.482 165.602 141.421 165.653 141.332 165.721C141.248 165.798 141.154 165.876 141.05 165.955C140.937 166.039 140.825 166.123 140.713 166.207C140.6 166.291 140.497 166.364 140.403 166.425C140.036 166.664 139.65 166.859 139.247 167.009C138.841 167.173 138.436 167.252 138.032 167.248C137.628 167.243 137.235 167.136 136.854 166.928C136.478 166.727 136.132 166.384 135.816 165.899C135.51 165.43 135.327 164.97 135.267 164.519C135.208 164.068 135.248 163.636 135.39 163.221C135.532 162.806 135.763 162.417 136.083 162.053C136.395 161.694 136.778 161.367 137.232 161.073C137.342 161.001 137.477 160.919 137.639 160.825C137.795 160.723 137.969 160.622 138.159 160.521C138.336 160.416 138.523 160.318 138.718 160.224C138.913 160.131 139.098 160.055 139.272 159.998L144.004 167.257ZM137.653 162.001C137.372 162.184 137.132 162.389 136.936 162.617C136.736 162.858 136.595 163.112 136.512 163.377C136.426 163.655 136.402 163.944 136.44 164.242C136.483 164.547 136.604 164.853 136.803 165.158C137.017 165.486 137.254 165.722 137.515 165.864C137.775 166.007 138.043 166.077 138.32 166.075C138.603 166.081 138.884 166.026 139.166 165.91C139.452 165.802 139.728 165.662 139.994 165.489C140.064 165.443 140.148 165.383 140.245 165.309C140.341 165.235 140.438 165.162 140.534 165.088C140.631 165.014 140.717 164.941 140.793 164.869C140.869 164.798 140.924 164.745 140.958 164.712L138.779 161.37C138.654 161.417 138.485 161.499 138.272 161.616C138.063 161.74 137.857 161.869 137.653 162.001Z" fill="white"/>
<path d="M136.487 172.874L131.69 175.207L131.235 174.275L134.987 172.451L133.582 169.57L130.144 171.241L129.69 170.31L133.127 168.639L131.599 165.506L127.784 167.361L127.329 166.429L132.189 164.066L136.487 172.874Z" fill="white"/>
<path d="M124.166 172.385L124.789 172.173L123.318 167.882L124.418 167.506L127.595 176.777L126.495 177.153L125.015 172.835L124.483 173.224L122.785 178.419L121.513 178.854L123.248 173.808L123.654 173.181L122.797 172.882L117.926 169.723L119.317 169.248L124.166 172.385Z" fill="white"/>
<path d="M111.205 180.018L114.192 179.395L112.398 170.817L113.535 170.58L115.33 179.158L118.318 178.535L118.53 179.549L111.417 181.032L111.205 180.018Z" fill="white"/>
<path d="M96.2942 179.577C96.2921 179.082 96.3832 178.573 96.5675 178.05C96.7426 177.535 96.9783 177.016 97.2747 176.492C97.5617 175.968 97.8862 175.454 98.2479 174.948C98.6098 174.452 98.9717 173.979 99.3337 173.529L100.017 172.924L100.017 172.868L99.1215 173.026L96.0695 173.04L96.065 172.004L101.637 171.979L101.639 172.385C101.434 172.601 101.188 172.868 100.9 173.187C100.612 173.505 100.315 173.856 100.009 174.24C99.6932 174.634 99.387 175.046 99.0903 175.476C98.7842 175.916 98.5108 176.361 98.2701 176.81C98.0201 177.259 97.8214 177.703 97.674 178.143C97.5266 178.582 97.4537 178.998 97.4554 179.39C97.4574 179.847 97.5898 180.224 97.8524 180.522C98.1151 180.829 98.5124 180.981 99.0444 180.979C99.3991 180.977 99.7441 180.901 100.079 180.75C100.415 180.609 100.703 180.444 100.945 180.256L101.411 181.052C101.085 181.334 100.699 181.555 100.252 181.715C99.8044 181.876 99.3241 181.957 98.8107 181.96C98.4094 181.961 98.0545 181.902 97.7459 181.782C97.4375 181.672 97.1754 181.51 96.9598 181.296C96.7442 181.082 96.5797 180.826 96.4664 180.528C96.3532 180.239 96.2958 179.922 96.2942 179.577Z" fill="white"/>
<path d="M92.8163 176.639C92.6237 178.308 92.2098 179.534 91.5746 180.316C90.9302 181.096 90.0888 181.427 89.0503 181.308C87.9283 181.179 87.1652 180.668 86.7608 179.776C86.346 178.892 86.2365 177.602 86.4324 175.905C86.625 174.236 87.0435 173.011 87.6879 172.231C88.3231 171.449 89.1645 171.118 90.2123 171.238C91.3157 171.365 92.0715 171.899 92.4798 172.838C92.8882 173.778 93.0003 175.045 92.8163 176.639ZM91.6619 176.507C91.7314 175.904 91.758 175.348 91.7416 174.839C91.7149 174.338 91.6389 173.897 91.5137 173.516C91.3875 173.145 91.211 172.842 90.9842 172.61C90.747 172.385 90.4523 172.253 90.0999 172.212C89.3952 172.131 88.8432 172.396 88.4437 173.008C88.034 173.628 87.7483 174.638 87.5867 176.038C87.5183 176.631 87.4922 177.183 87.5086 177.692C87.5157 178.2 87.5819 178.644 87.7071 179.025C87.823 179.405 87.9995 179.707 88.2366 179.932C88.4738 180.156 88.7825 180.29 89.1626 180.334C89.858 180.414 90.4106 180.144 90.8204 179.524C91.2209 178.903 91.5014 177.897 91.6619 176.507Z" fill="white"/>
<path d="M69.9063 175.313L72.8074 176.261L75.5371 167.933L76.6417 168.294L73.912 176.622L76.8131 177.569L76.4905 178.554L69.5836 176.298L69.9063 175.313Z" fill="white"/>
<path d="M62.415 169.462L61.8569 170.437L61.9075 170.461L62.9455 169.683L70.0643 165.751L70.6838 166.046L66.4642 174.891L65.4148 174.392L68.3082 168.327L68.873 167.371L68.8224 167.347L67.7718 168.118L60.6228 172.114L60.0032 171.819L64.2229 162.974L65.2723 163.473L62.415 169.462Z" fill="white"/>
<path d="M52.3893 165.705L56.169 168.187L60.9914 160.869L61.9627 161.507L56.5703 169.69L50.8479 165.932L56.2404 157.749L57.2116 158.387L52.3893 165.705Z" fill="white"/>
<path d="M51.0165 159.769C49.9394 160.997 48.8546 161.71 47.7622 161.908C46.6637 162.113 45.6331 161.794 44.6704 160.953C44.1505 160.498 43.7808 160.014 43.5614 159.5C43.342 158.986 43.2571 158.453 43.3066 157.901C43.3429 157.35 43.5076 156.787 43.8005 156.213C44.0873 155.645 44.4831 155.074 44.9878 154.498C46.0649 153.271 47.1563 152.557 48.2619 152.359C49.3542 152.161 50.3853 152.486 51.3549 153.333C51.8679 153.782 52.234 154.263 52.4534 154.777C52.6658 155.285 52.7538 155.815 52.7175 156.366C52.6679 156.918 52.4998 157.477 52.213 158.045C51.9201 158.619 51.5212 159.194 51.0165 159.769ZM50.089 158.958C50.446 158.552 50.7459 158.132 50.9887 157.699C51.2244 157.261 51.3811 156.828 51.4586 156.4C51.5301 155.978 51.5096 155.57 51.3974 155.174C51.2719 154.78 51.0301 154.425 50.6717 154.112C50.0182 153.541 49.2899 153.338 48.4866 153.504C47.6772 153.676 46.8201 154.278 45.9153 155.309C45.5644 155.709 45.2711 156.129 45.0354 156.567C44.7865 157.007 44.6298 157.44 44.5654 157.867C44.4878 158.295 44.5118 158.707 44.6372 159.101C44.7495 159.497 44.9883 159.855 45.3537 160.174C46.0001 160.739 46.728 160.936 47.5374 160.763C48.3337 160.591 49.1842 159.99 50.089 158.958Z" fill="white"/>
<path d="M37.1846 149.592C37.3604 149.439 37.5643 149.31 37.7963 149.207C38.0282 149.103 38.2743 149.037 38.5344 149.008C38.7875 148.985 39.0507 149.01 39.3239 149.081C39.5972 149.152 39.8701 149.279 40.1425 149.462L40.1847 149.426C40.0353 149.184 39.9197 148.932 39.838 148.669C39.7502 148.399 39.7155 148.125 39.7339 147.849C39.7524 147.573 39.8271 147.297 39.958 147.021C40.089 146.746 40.2985 146.482 40.5868 146.231C40.9664 145.899 41.3675 145.691 41.7902 145.607C42.1997 145.522 42.6061 145.533 43.0095 145.639C43.4067 145.738 43.792 145.916 44.1654 146.172C44.5389 146.429 44.8763 146.729 45.1777 147.073C45.2823 147.192 45.4053 147.332 45.5468 147.494C45.6883 147.655 45.8289 147.83 45.9686 148.018C46.1153 148.199 46.255 148.387 46.3877 148.581C46.5274 148.769 46.6382 148.945 46.7199 149.109L39.4543 155.454C39.1845 155.231 38.8849 154.96 38.5553 154.64C38.2258 154.321 37.8827 153.957 37.5259 153.55C37.286 153.277 37.0677 152.978 36.8708 152.654C36.6608 152.329 36.5211 151.993 36.4517 151.645C36.3753 151.302 36.3885 150.956 36.4913 150.606C36.588 150.249 36.8191 149.911 37.1846 149.592ZM44.3447 147.652C44.1478 147.427 43.9326 147.231 43.6988 147.063C43.458 146.902 43.2107 146.789 42.9567 146.726C42.6957 146.669 42.4409 146.669 42.1922 146.725C41.9374 146.774 41.694 146.899 41.462 147.102C41.1737 147.354 40.994 147.616 40.9228 147.889C40.8455 148.155 40.8407 148.425 40.9083 148.701C40.9698 148.969 41.0845 149.235 41.2523 149.497C41.4202 149.759 41.6056 150.006 41.8086 150.238L42.6113 151.154L45.2581 148.843C45.2291 148.781 45.1781 148.702 45.1052 148.604C45.0323 148.507 44.9532 148.403 44.8679 148.291C44.7827 148.18 44.6944 148.065 44.603 147.946C44.5046 147.834 44.4185 147.736 44.3447 147.652ZM41.3933 151.251C41.2888 151.132 41.1591 150.991 41.0045 150.829C40.8498 150.666 40.7163 150.535 40.6038 150.435C40.3999 150.316 40.1948 150.216 39.9882 150.136C39.7747 150.062 39.566 150.015 39.3621 149.995C39.1451 149.974 38.9386 149.993 38.7426 150.053C38.5335 150.112 38.3446 150.215 38.1758 150.362C37.9438 150.565 37.794 150.776 37.7263 150.996C37.6455 151.216 37.624 151.439 37.6617 151.666C37.6995 151.893 37.7839 152.117 37.9148 152.337C38.0387 152.564 38.1868 152.775 38.359 152.972C38.562 153.203 38.7566 153.411 38.9429 153.595C39.116 153.779 39.2562 153.91 39.3634 153.99L41.8731 151.799L41.3933 151.251Z" fill="white"/>
<path d="M34.3202 131.719C34.6449 131.858 34.9492 132.094 35.2333 132.427C35.5174 132.76 35.7786 133.138 36.0169 133.56C36.3056 134.073 36.4906 134.6 36.5718 135.143C36.6449 135.691 36.5964 136.232 36.4262 136.767C36.2561 137.301 35.9494 137.822 35.5061 138.328C35.0546 138.838 34.4464 139.308 33.6815 139.738C32.8841 140.186 32.1491 140.46 31.4766 140.559C30.7914 140.655 30.1753 140.626 29.6283 140.473C29.0686 140.317 28.5837 140.065 28.1734 139.717C27.7632 139.37 27.4297 138.968 27.1731 138.513C26.8981 138.025 26.702 137.611 26.5848 137.27C26.4594 136.933 26.3796 136.63 26.3454 136.36L27.3739 136.104C27.4068 136.599 27.6271 137.209 28.0351 137.932C28.223 138.265 28.4696 138.56 28.775 138.817C29.0804 139.074 29.4448 139.254 29.8681 139.359C30.2868 139.456 30.7635 139.456 31.2981 139.359C31.8328 139.262 32.4256 139.03 33.0765 138.665C33.6624 138.336 34.1338 137.974 34.4907 137.581C34.8476 137.188 35.1015 136.783 35.2524 136.366C35.3986 135.942 35.4487 135.517 35.4027 135.094C35.3521 134.662 35.2122 134.243 34.983 133.836C34.7768 133.47 34.5614 133.174 34.3369 132.947C34.1079 132.711 33.8837 132.532 33.6643 132.409L34.3202 131.719Z" fill="white"/>
<path d="M24.6127 126.84C24.8287 126.752 25.0632 126.697 25.3161 126.674C25.5691 126.651 25.8232 126.668 26.0786 126.725C26.3254 126.785 26.5665 126.893 26.802 127.049C27.0374 127.205 27.2543 127.414 27.4525 127.675L27.5044 127.654C27.4412 127.378 27.4136 127.101 27.4216 126.826C27.426 126.542 27.4817 126.272 27.5887 126.016C27.6957 125.761 27.8557 125.524 28.0688 125.306C28.2819 125.087 28.5655 124.906 28.9197 124.761C29.3861 124.57 29.8329 124.503 30.2599 124.561C30.6748 124.613 31.0558 124.754 31.4029 124.985C31.7465 125.208 32.0534 125.501 32.3236 125.864C32.5938 126.228 32.8158 126.621 32.9895 127.044C33.0497 127.191 33.1206 127.363 33.2021 127.562C33.2836 127.761 33.3601 127.971 33.4314 128.194C33.5114 128.414 33.5827 128.637 33.6454 128.863C33.7167 129.086 33.7645 129.288 33.7886 129.47L24.8608 133.122C24.6778 132.824 24.4822 132.47 24.274 132.061C24.0658 131.653 23.8589 131.198 23.6533 130.697C23.5151 130.36 23.4053 130.007 23.324 129.637C23.2305 129.261 23.2074 128.898 23.2546 128.546C23.2931 128.197 23.4177 127.874 23.6283 127.576C23.8354 127.269 24.1635 127.024 24.6127 126.84ZM32.014 127.322C31.9006 127.046 31.7605 126.79 31.5937 126.556C31.4182 126.325 31.2206 126.139 31.0009 125.997C30.7725 125.858 30.5317 125.775 30.2783 125.748C30.0213 125.712 29.7503 125.752 29.4652 125.869C29.1111 126.014 28.8561 126.204 28.7004 126.439C28.5412 126.665 28.4489 126.92 28.4237 127.202C28.3949 127.476 28.4174 127.765 28.4912 128.067C28.5649 128.37 28.6603 128.664 28.7772 128.949L29.2398 130.075L32.4921 128.745C32.4846 128.677 32.4621 128.586 32.4247 128.47C32.3872 128.354 32.3463 128.23 32.3017 128.097C32.2572 127.964 32.2109 127.826 32.1628 127.685C32.1061 127.546 32.0565 127.426 32.014 127.322ZM28.0563 129.773C27.996 129.626 27.9191 129.451 27.8254 129.247C27.7317 129.044 27.6478 128.876 27.5738 128.745C27.4197 128.566 27.2578 128.405 27.0884 128.263C26.9103 128.124 26.7281 128.012 26.5418 127.927C26.3434 127.837 26.1418 127.788 25.9371 127.781C25.7203 127.769 25.5082 127.805 25.3009 127.89C25.0158 128.007 24.8056 128.158 24.6703 128.345C24.5228 128.526 24.4301 128.73 24.3922 128.958C24.3543 129.185 24.3616 129.424 24.4141 129.675C24.458 129.929 24.5296 130.177 24.6288 130.419C24.7458 130.704 24.8625 130.964 24.979 131.198C25.0834 131.428 25.1733 131.598 25.2488 131.708L28.3327 130.446L28.0563 129.773Z" fill="white"/>
<path d="M26.8543 117.035L27.7867 120.525L30.6642 120.773L30.9606 121.882L20.3841 120.859L20.2467 120.345L28.9042 114.186L29.2186 115.363L26.8543 117.035ZM26.7151 120.419L25.9706 117.633L23.3709 119.455L22.0272 120.175L22.0308 120.189L23.5823 120.138L26.7151 120.419Z" fill="white"/>
<path d="M21.2853 106.829L20.1636 106.888L20.1708 106.944L21.3863 107.395L28.545 111.247L28.6326 111.927L18.9123 113.175L18.7639 112.022L25.4292 111.167L26.5387 111.123L26.5316 111.068L25.3142 110.603L18.0862 106.76L17.9986 106.079L27.7189 104.832L27.8673 105.984L21.2853 106.829ZM16.2423 111.075C16.5801 110.994 16.8272 110.831 16.9838 110.585C17.1403 110.339 17.1947 110.031 17.147 109.661C17.0994 109.29 16.9692 109.011 16.7567 108.822C16.5429 108.623 16.2664 108.522 15.9272 108.519L16.0363 107.503C16.5493 107.54 16.9778 107.725 17.3217 108.057C17.6552 108.382 17.866 108.886 17.9542 109.571C18.0389 110.229 17.9836 110.786 17.7885 111.244C17.5829 111.694 17.2072 111.991 16.6613 112.137L16.2423 111.075Z" fill="white"/>
</svg>
