<svg width="20" height="28" viewBox="0 0 20 28" fill="none" xmlns="http://www.w3.org/2000/svg">
<path d="M16.1699 11.7734C17.2136 11.7734 18.0567 12.6296 18.0567 13.6896C18.0567 14.7496 17.2136 15.6057 16.1699 15.6057" stroke="white" stroke-miterlimit="10" stroke-linecap="round" stroke-linejoin="round"/>
<path d="M8.20166 2.91616C8.20166 1.85616 9.04467 1 10.0884 1C11.1321 1 11.9751 1.85616 11.9751 2.91616" stroke="white" stroke-miterlimit="10" stroke-linecap="round" stroke-linejoin="round"/>
<path d="M17.1133 15.5957C18.157 15.5957 19 16.4519 19 17.5119C19 18.5719 18.157 19.428 17.1133 19.428" stroke="white" stroke-miterlimit="10" stroke-linecap="round" stroke-linejoin="round"/>
<path d="M16.4912 19.418C17.5349 19.418 18.3779 20.2741 18.3779 21.3341C18.3779 22.3941 17.5349 23.2503 16.4912 23.2503" stroke="white" stroke-miterlimit="10" stroke-linecap="round" stroke-linejoin="round"/>
<path d="M15.2266 23.2402C16.2703 23.2402 17.1133 24.0964 17.1133 25.1564C17.1133 26.2164 16.2703 27.0725 15.2266 27.0725" stroke="white" stroke-miterlimit="10" stroke-linecap="round" stroke-linejoin="round"/>
<path d="M11.9648 2.91797C11.9648 9.01297 9.08447 11.7751 9.08447 11.7751H16.1597" stroke="white" stroke-miterlimit="10" stroke-linecap="round" stroke-linejoin="round"/>
<path d="M16.5209 15.5957H12.1353" stroke="white" stroke-miterlimit="10" stroke-linecap="round" stroke-linejoin="round"/>
<path d="M17.113 19.418H12.1353" stroke="white" stroke-miterlimit="10" stroke-linecap="round" stroke-linejoin="round"/>
<path d="M16.4908 23.2402H12.1353" stroke="white" stroke-miterlimit="10" stroke-linecap="round" stroke-linejoin="round"/>
<path d="M15.2265 27.0639C9.65666 27.0639 5.64232 27.0639 1.13623 24.1387" stroke="white" stroke-miterlimit="10" stroke-linecap="round" stroke-linejoin="round"/>
<path d="M8.20146 2.91797C7.65953 8.84989 3.71544 9.99143 1.13623 12.193" stroke="white" stroke-miterlimit="10" stroke-linecap="round" stroke-linejoin="round"/>
</svg>
