<svg width="148" height="1" viewBox="0 0 148 1" fill="none" xmlns="http://www.w3.org/2000/svg">
<line y1="0.5" x2="7" y2="0.5" stroke="#333333" stroke-opacity="0.2"/>
<line x1="10" y1="0.5" x2="17" y2="0.5" stroke="#333333" stroke-opacity="0.2"/>
<line x1="20" y1="0.5" x2="27" y2="0.5" stroke="#333333" stroke-opacity="0.2"/>
<line x1="30" y1="0.5" x2="37" y2="0.5" stroke="#333333" stroke-opacity="0.2"/>
<line x1="40" y1="0.5" x2="47" y2="0.5" stroke="#333333" stroke-opacity="0.2"/>
<line x1="50" y1="0.5" x2="57" y2="0.5" stroke="#333333" stroke-opacity="0.2"/>
<line x1="60" y1="0.5" x2="67" y2="0.5" stroke="#333333" stroke-opacity="0.2"/>
<line x1="70" y1="0.5" x2="77" y2="0.5" stroke="#333333" stroke-opacity="0.2"/>
<line x1="80" y1="0.5" x2="87" y2="0.5" stroke="#333333" stroke-opacity="0.2"/>
<line x1="90" y1="0.5" x2="97" y2="0.5" stroke="#333333" stroke-opacity="0.2"/>
<line x1="101" y1="0.5" x2="108" y2="0.5" stroke="#333333" stroke-opacity="0.2"/>
<line x1="111" y1="0.5" x2="118" y2="0.5" stroke="#333333" stroke-opacity="0.2"/>
<line x1="121" y1="0.5" x2="128" y2="0.5" stroke="#333333" stroke-opacity="0.2"/>
<line x1="131" y1="0.5" x2="138" y2="0.5" stroke="#333333" stroke-opacity="0.2"/>
<line x1="141" y1="0.5" x2="148" y2="0.5" stroke="#333333" stroke-opacity="0.2"/>
</svg>
