<svg width="151" height="27" viewBox="0 0 151 27" fill="none" xmlns="http://www.w3.org/2000/svg">
<path fill-rule="evenodd" clip-rule="evenodd" d="M0 17.7322L20.3725 11.793V26.5168H0.00970459L0 17.7322ZM0.0078125 10.6912L20.3725 0V5.89661L0.0078125 14.2088V10.6912Z" fill="#FE0000"/>
<path fill-rule="evenodd" clip-rule="evenodd" d="M41.2084 17.7322L20.8359 11.793V26.5168H41.1987L41.2084 17.7322ZM41.2006 10.6912L20.8359 0V5.89661L41.2006 14.2088V10.6912Z" fill="#5C5D5D"/>
<path fill-rule="evenodd" clip-rule="evenodd" d="M53.5297 13.6449H48.8047V22.2212H51.0072V15.4536H53.3697L53.5297 13.6449ZM60.4019 22.2212V13.6449H54.9386L54.9017 15.2075C54.8955 15.4515 54.8873 15.7141 54.8771 15.995C54.8647 16.276 54.8504 16.5632 54.834 16.8585C54.8176 17.1538 54.7971 17.4471 54.7745 17.7363C54.7499 18.0275 54.7232 18.3042 54.6925 18.5667C54.6863 18.6303 54.6761 18.7165 54.6617 18.8252C54.6453 18.9318 54.6269 19.0508 54.6043 19.18C54.5817 19.3092 54.5571 19.4364 54.5284 19.5615C54.4997 19.6866 54.469 19.7973 54.4341 19.8957C54.3992 20.0003 54.3479 20.1007 54.2823 20.1991C54.2146 20.2955 54.1183 20.3879 53.9911 20.474C53.9337 20.511 53.8681 20.5457 53.7963 20.5785C53.7245 20.6114 53.6548 20.6421 53.583 20.6688C53.5112 20.6934 53.4476 20.716 53.3881 20.7324L53.0683 20.8185L53.5235 22.3566L54.1757 22.2582C54.3418 22.2356 54.5264 22.2007 54.7294 22.1556C54.9304 22.1085 55.1334 22.0387 55.3364 21.9423C55.5395 21.848 55.7281 21.7148 55.8983 21.5445C56.0522 21.3826 56.1732 21.202 56.2613 21.0051C56.3495 20.8062 56.4172 20.6053 56.4623 20.3982C56.5054 20.1931 56.5403 19.9961 56.5628 19.8095C56.5977 19.5511 56.6284 19.2764 56.6551 18.9892C56.6818 18.7022 56.7043 18.4171 56.7248 18.1341C56.7453 17.8532 56.7617 17.5905 56.7741 17.3485C56.7884 17.1065 56.7987 16.9035 56.8069 16.7354C56.813 16.5693 56.8191 16.4585 56.8212 16.4011L56.8581 15.3675H58.1994V22.2212H60.4019ZM69.0337 22.2212L66.4374 13.6449H64.1487L61.3924 22.2212H63.7057L64.1733 20.5724H66.2036L66.6466 22.2212H69.0337ZM65.7606 18.8743H64.6532L64.9977 17.4716C65.047 17.2644 65.092 17.0491 65.133 16.8256C65.174 16.6021 65.2069 16.3622 65.2315 16.1059C65.2499 16.4053 65.2745 16.6492 65.3033 16.842C65.33 17.0348 65.3607 17.1907 65.3914 17.3118L65.7606 18.8743ZM69.9011 13.6449V22.2212H73.3834C73.6397 22.2233 73.892 22.2048 74.1401 22.1659C74.3903 22.1249 74.6303 22.0552 74.862 21.9527C75.0937 21.8522 75.3111 21.7066 75.5121 21.5199C75.6413 21.401 75.7623 21.2554 75.8771 21.0831C75.99 20.9088 76.0823 20.7057 76.1519 20.4719C76.2238 20.2401 76.2606 19.9736 76.2627 19.6742C76.2627 19.4118 76.232 19.1737 76.1663 18.9625C76.1007 18.7534 75.9982 18.5585 75.8567 18.3821C75.7787 18.2816 75.6823 18.1853 75.5695 18.0889C75.4568 17.9946 75.3275 17.9064 75.1799 17.8306C75.0322 17.7527 74.8682 17.689 74.6877 17.6439C74.8559 17.5926 75.0015 17.527 75.1245 17.447C75.2496 17.367 75.3542 17.281 75.4404 17.1887C75.5265 17.0964 75.5941 17.0061 75.6475 16.918C75.7356 16.7724 75.8033 16.6267 75.8485 16.477C75.8915 16.3293 75.9223 16.1919 75.9346 16.0647C75.949 15.9376 75.9572 15.8331 75.9551 15.749C75.953 15.427 75.9099 15.1439 75.8279 14.8958C75.7438 14.6497 75.6311 14.4447 75.4875 14.2847C75.3603 14.1432 75.2188 14.0304 75.065 13.9463C74.9112 13.8601 74.7533 13.7967 74.5913 13.7515C74.4293 13.7085 74.2714 13.6797 74.1196 13.6653C73.9658 13.6509 73.8284 13.6428 73.7033 13.6449H69.9011ZM72.1037 16.9426V15.4536H72.9527C73.0552 15.4495 73.1619 15.4618 73.2747 15.4926C73.3875 15.5213 73.4839 15.5849 73.568 15.6874C73.6213 15.7571 73.6561 15.833 73.6705 15.913C73.6869 15.995 73.6931 16.0669 73.691 16.1305C73.6889 16.2843 73.6725 16.4073 73.6377 16.5037C73.6028 16.6001 73.5638 16.6718 73.5187 16.721C73.4367 16.8113 73.3485 16.8707 73.2521 16.9015C73.1578 16.9302 73.0655 16.9447 72.9773 16.9426H72.1037ZM72.1037 20.3878V18.6897H72.9158C73.0348 18.6857 73.1557 18.7022 73.2768 18.737C73.3977 18.7719 73.5044 18.8476 73.5926 18.9605C73.652 19.0486 73.691 19.143 73.7074 19.2393C73.7238 19.3378 73.73 19.426 73.7279 19.5019C73.73 19.6024 73.7197 19.7091 73.6951 19.8219C73.6725 19.9347 73.6213 20.0412 73.5434 20.1417C73.4818 20.2155 73.4141 20.2689 73.3403 20.3037C73.2686 20.3386 73.1967 20.3632 73.127 20.3734C73.0573 20.3837 72.9958 20.3899 72.9404 20.3878H72.1037Z" fill="#FE0000"/>
<path fill-rule="evenodd" clip-rule="evenodd" d="M83.2115 22.29V20.9734H83.6299C83.9703 20.9714 84.2697 20.9468 84.5302 20.8976C84.7886 20.8504 85.0142 20.7847 85.2049 20.7027C85.3936 20.6228 85.5556 20.5325 85.6848 20.432C85.9145 20.2577 86.0991 20.0547 86.2426 19.827C86.3841 19.5994 86.4928 19.3594 86.5666 19.1072C86.6405 18.8571 86.6917 18.6109 86.7184 18.3669C86.745 18.1249 86.7574 17.9034 86.7553 17.7004C86.7574 17.5404 86.7512 17.3517 86.7348 17.1323C86.7204 16.9129 86.6876 16.6832 86.6343 16.4412C86.581 16.1992 86.499 15.9633 86.3861 15.7337C86.2754 15.5039 86.1237 15.2968 85.9309 15.1164C85.7935 14.9872 85.6191 14.8723 85.4079 14.7718C85.1988 14.6693 84.9465 14.5893 84.6532 14.5298C84.36 14.4704 84.0195 14.4417 83.6299 14.4396H83.2115V13.2461H81.009V14.4396H80.5906C80.203 14.4417 79.8605 14.4704 79.5673 14.5298C79.274 14.5893 79.0217 14.6693 78.8126 14.7718C78.6013 14.8723 78.4291 14.9872 78.2896 15.1164C78.0969 15.2968 77.9451 15.5039 77.8343 15.7337C77.7216 15.9633 77.6395 16.1992 77.5862 16.4412C77.5349 16.6832 77.5 16.9129 77.4857 17.1323C77.4693 17.3517 77.4632 17.5404 77.4652 17.7004C77.4632 17.9034 77.4754 18.1249 77.5021 18.3669C77.5288 18.6109 77.5801 18.8571 77.6539 19.1072C77.7298 19.3594 77.8364 19.5994 77.98 19.827C78.1215 20.0547 78.306 20.2577 78.5357 20.432C78.667 20.5325 78.8269 20.6228 79.0156 20.7027C79.2063 20.7847 79.4319 20.8504 79.6924 20.8976C79.9508 20.9468 80.2502 20.9714 80.5906 20.9734H81.009V22.29H83.2115ZM83.0638 16.113H83.31C83.3899 16.111 83.4802 16.1151 83.5827 16.1212C83.6853 16.1294 83.7898 16.1479 83.8944 16.1828C83.999 16.2156 84.0954 16.271 84.1836 16.3468C84.2718 16.4289 84.3415 16.5253 84.3907 16.636C84.44 16.7467 84.4748 16.8636 84.4953 16.9887C84.5179 17.1118 84.5302 17.2328 84.5343 17.3517C84.5404 17.4707 84.5425 17.5794 84.5404 17.6758C84.5425 17.7762 84.5404 17.887 84.5343 18.008C84.5302 18.1311 84.5179 18.2541 84.4953 18.3813C84.4748 18.5084 84.44 18.6294 84.3907 18.7442C84.3415 18.8571 84.2718 18.9575 84.1836 19.0416C84.0954 19.1175 84.0011 19.1749 83.8965 19.2118C83.7919 19.2488 83.6873 19.2734 83.5807 19.2856C83.4761 19.2959 83.3776 19.302 83.2854 19.3H83.0638V16.113ZM81.1566 16.113V19.3H80.9352C80.8429 19.302 80.7445 19.2959 80.6398 19.2856C80.5332 19.2734 80.4286 19.2488 80.324 19.2118C80.2194 19.1749 80.1251 19.1175 80.0369 19.0416C79.9487 18.9575 79.879 18.8571 79.8298 18.7442C79.7805 18.6294 79.7457 18.5084 79.7252 18.3813C79.7026 18.2541 79.6903 18.1311 79.6862 18.008C79.68 17.887 79.68 17.7762 79.68 17.6758C79.68 17.5794 79.68 17.4707 79.6862 17.3517C79.6903 17.2328 79.7026 17.1118 79.7252 16.9887C79.7457 16.8636 79.7805 16.7467 79.8298 16.636C79.879 16.5253 79.9487 16.4289 80.0369 16.3468C80.1251 16.271 80.2215 16.2156 80.3261 16.1828C80.4306 16.1479 80.5353 16.1294 80.6378 16.1212C80.7403 16.1151 80.8305 16.111 80.9106 16.113H81.1566ZM94.5381 13.7136H92.2125L91.3388 16.3714C91.2958 16.5027 91.2507 16.6545 91.2076 16.8267C91.1625 16.9969 91.1195 17.1754 91.0785 17.3599C91.0374 17.5445 91.0005 17.7229 90.9677 17.8931C90.9328 18.0634 90.9061 18.211 90.8836 18.3402H90.8344C90.8221 18.2254 90.8016 18.1023 90.777 17.9711C90.7503 17.8398 90.7216 17.7106 90.6908 17.5855C90.6601 17.4625 90.6313 17.3497 90.6047 17.2533C90.576 17.1569 90.5555 17.0831 90.539 17.0359L89.4686 13.7136H87.0445L88.8656 18.4263C88.9702 18.6991 89.0584 18.9309 89.1261 19.1237C89.1938 19.3164 89.2512 19.4887 89.2943 19.6363C89.3373 19.784 89.3763 19.9255 89.407 20.0629L90.0838 19.9891L90.0346 20.1244C89.973 20.2946 89.9116 20.4382 89.8521 20.5509C89.7905 20.6638 89.7331 20.754 89.6757 20.8217C89.6203 20.8914 89.567 20.9468 89.5178 20.9857C89.4378 21.0513 89.3475 21.1108 89.243 21.1642C89.1384 21.2175 89.0317 21.2626 88.919 21.2995C88.8061 21.3364 88.6995 21.3631 88.5949 21.3795L88.1027 21.4656L88.8533 22.9422L89.5424 22.8314C89.8275 22.7925 90.1002 22.7207 90.3586 22.6202C90.6149 22.5177 90.8447 22.368 91.0436 22.167C91.1809 22.0275 91.306 21.8532 91.4209 21.6399C91.5358 21.4287 91.6506 21.1785 91.7654 20.8894C91.8803 20.6002 92.0095 20.2721 92.151 19.9029L94.5381 13.7136ZM101.398 22.29V13.7136H99.1955V16.8636H97.4358V13.7136H95.2333V22.29H97.4358V18.6847H99.1955V22.29H101.398ZM109.673 13.7136H104.296L104.247 15.0548C104.243 15.1799 104.236 15.3317 104.224 15.506C104.212 15.6803 104.197 15.8608 104.181 16.0474C104.165 16.2361 104.148 16.4125 104.13 16.5766C104.113 16.7427 104.099 16.878 104.087 16.9867C104.062 17.1733 104.029 17.3825 103.99 17.6143C103.951 17.8439 103.906 18.0798 103.855 18.3197C103.806 18.5596 103.75 18.7894 103.693 19.0047C103.619 19.2856 103.541 19.542 103.459 19.7778C103.377 20.0137 103.287 20.2433 103.188 20.4689H102.524V24.3572H104.542V22.29H108.541V24.3572H110.559V20.4689H109.673V13.7136ZM107.47 15.4117V20.592H105.096C105.192 20.3992 105.276 20.2105 105.346 20.028C105.418 19.8455 105.485 19.6466 105.551 19.4353C105.604 19.2652 105.649 19.101 105.688 18.9473C105.727 18.7934 105.762 18.6417 105.791 18.492C105.82 18.3402 105.846 18.1823 105.871 18.0203C105.895 17.8542 105.92 17.6696 105.947 17.4707C105.971 17.2718 105.994 17.0708 106.012 16.8718C106.033 16.6729 106.047 16.4883 106.055 16.3222L106.092 15.4117H107.47ZM118.44 22.29L115.844 13.7136H113.555L110.799 22.29H113.112L113.58 20.6412H115.61L116.053 22.29H118.44ZM115.167 18.9431H114.06L114.404 17.5404C114.453 17.3333 114.499 17.118 114.54 16.8944C114.581 16.6709 114.613 16.4309 114.638 16.1746C114.656 16.474 114.681 16.7181 114.71 16.9108C114.736 17.1036 114.767 17.2595 114.798 17.3805L115.167 18.9431ZM128.45 22.29L127.663 13.7136H125.054L124.18 17.2328C124.156 17.3312 124.135 17.4153 124.117 17.485C124.1 17.5548 124.084 17.6225 124.068 17.6881C124.051 17.7537 124.033 17.8296 124.014 17.9157C123.996 17.9998 123.973 18.1085 123.947 18.2377C123.92 18.3689 123.887 18.535 123.848 18.734H123.836C123.815 18.6171 123.795 18.5002 123.77 18.3792C123.748 18.2582 123.719 18.1187 123.684 17.9567C123.649 17.7947 123.606 17.5937 123.553 17.3558L122.716 13.7136H120.021L119.185 22.29H121.399L121.572 18.6233C121.58 18.4325 121.588 18.2562 121.594 18.0941C121.602 17.9321 121.607 17.7701 121.611 17.6101C121.613 17.4502 121.613 17.28 121.609 17.0974H121.621C121.652 17.3046 121.678 17.4789 121.703 17.6225C121.728 17.766 121.75 17.8891 121.773 17.9916C121.793 18.0962 121.814 18.1946 121.836 18.2848C121.857 18.3751 121.879 18.4715 121.904 18.574L122.814 22.29H124.685L125.731 18.4756C125.759 18.371 125.782 18.291 125.796 18.2377C125.811 18.1844 125.823 18.1372 125.831 18.0982C125.841 18.0572 125.852 18.0039 125.864 17.9403C125.876 17.8747 125.895 17.7762 125.919 17.6491C125.944 17.5199 125.981 17.3394 126.026 17.1097H126.038C126.044 17.3558 126.049 17.5527 126.053 17.7004C126.057 17.848 126.061 17.9629 126.063 18.0449C126.067 18.129 126.071 18.1946 126.075 18.2438C126.079 18.293 126.083 18.3423 126.088 18.3915C126.092 18.4407 126.096 18.5043 126.1 18.5863L126.309 22.29H128.45ZM135.224 22.29V20.4567H132.283V18.7093H134.424V16.9621H132.283V15.5224H134.904L135.064 13.7136H130.08V22.29H135.224ZM142.65 22.29V13.7136H140.447V16.8636H138.688V13.7136H136.485V22.29H138.688V18.6847H140.447V22.29H142.65ZM150.26 13.7136H143.788V15.5348H145.781V22.29H148.008V15.5348H150.002L150.26 13.7136Z" fill="#5C5D5D"/>
</svg>
