<svg width="54" height="33" viewBox="0 0 54 33" fill="none" xmlns="http://www.w3.org/2000/svg">
<path d="M52.0917 1.84731L33.8862 16.4346L30.3138 19.2742C28.436 20.7856 25.7338 20.7856 23.8331 19.2742L20.3065 16.4346L2.07812 1.84731C2.65062 1.32061 3.42922 1 4.27652 1H49.8933C50.7406 1 51.4963 1.34351 52.0917 1.84731Z" stroke="#333333" stroke-miterlimit="10" stroke-linecap="round" stroke-linejoin="round"/>
<path d="M53.1646 4.29796V28.572C53.1646 29.5338 52.7524 30.4269 52.0883 30.9994L33.8828 16.435L52.0654 1.84766C52.7524 2.44306 53.1646 3.31326 53.1646 4.29796Z" stroke="#333333" stroke-miterlimit="10" stroke-linecap="round" stroke-linejoin="round"/>
<path d="M52.0883 31.0209C51.5158 31.5476 50.7372 31.8682 49.9128 31.8682H4.29605C3.44875 31.8682 2.67016 31.5476 2.09766 31.0209L20.3032 16.4336L23.8298 19.2732C25.7305 20.7846 28.4326 20.7846 30.3104 19.2732L33.8828 16.4336L52.0883 31.0209Z" stroke="#333333" stroke-miterlimit="10" stroke-linecap="round" stroke-linejoin="round"/>
<path d="M20.3047 16.4316L2.0763 31.0189C1.4122 30.4006 1 29.5533 1 28.5915V4.29459C1 3.33279 1.4122 2.46259 2.0763 1.86719L20.3047 16.4316Z" stroke="#333333" stroke-miterlimit="10" stroke-linecap="round" stroke-linejoin="round"/>
</svg>
