<svg width="46" height="28" viewBox="0 0 46 28" fill="none" xmlns="http://www.w3.org/2000/svg">
<path d="M44.509 1.71367L29.1534 14.0003L26.1403 16.392C24.5564 17.665 22.2772 17.665 20.6741 16.392L17.6996 14.0003L2.32471 1.71367C2.80759 1.27004 3.4643 1 4.17896 1H42.6547C43.3694 1 44.0068 1.28933 44.509 1.71367Z" stroke="#FE0000" stroke-miterlimit="10" stroke-linecap="round" stroke-linejoin="round"/>
<path d="M45.4167 3.77478V24.2203C45.4167 25.0304 45.069 25.7826 44.5089 26.2648L29.1533 13.9975L44.4895 1.71094C45.069 2.21243 45.4167 2.94538 45.4167 3.77478Z" stroke="#FE0000" stroke-miterlimit="10" stroke-linecap="round" stroke-linejoin="round"/>
<path d="M44.5092 26.2866C44.0263 26.7302 43.3696 27.0003 42.6742 27.0003H4.19849C3.48383 27.0003 2.82712 26.7302 2.34424 26.2866L17.6998 14L20.6743 16.3917C22.2775 17.6648 24.5566 17.6648 26.1405 16.3917L29.1537 14L44.5092 26.2866Z" stroke="#FE0000" stroke-miterlimit="10" stroke-linecap="round" stroke-linejoin="round"/>
<path d="M17.6997 13.9978L2.32481 26.2843C1.76467 25.7636 1.41699 25.0499 1.41699 24.2398V3.77502C1.41699 2.96492 1.76467 2.23196 2.32481 1.73047L17.6997 13.9978Z" stroke="#FE0000" stroke-miterlimit="10" stroke-linecap="round" stroke-linejoin="round"/>
</svg>
