<svg width="30" height="74" viewBox="0 0 30 74" fill="none" xmlns="http://www.w3.org/2000/svg">
<path d="M12.1719 53.6094V61.866L15.8019 73.1196" stroke="white" stroke-miterlimit="10" stroke-linecap="round" stroke-linejoin="round"/>
<path d="M12.1719 41.5605V49.405" stroke="white" stroke-miterlimit="10" stroke-linecap="round" stroke-linejoin="round"/>
<path d="M12.1719 11.6914V36.8333" stroke="white" stroke-miterlimit="10" stroke-linecap="round" stroke-linejoin="round"/>
<path d="M12.1719 0.851562V5.32666" stroke="white" stroke-miterlimit="10" stroke-linecap="round" stroke-linejoin="round"/>
<path d="M19.4308 57.752V61.8652L15.8008 73.1187" stroke="white" stroke-miterlimit="10" stroke-linecap="round" stroke-linejoin="round"/>
<path d="M19.4297 45.9648V54.0103" stroke="white" stroke-miterlimit="10" stroke-linecap="round" stroke-linejoin="round"/>
<path d="M19.4297 17.9473V41.9426" stroke="white" stroke-miterlimit="10" stroke-linecap="round" stroke-linejoin="round"/>
<path d="M19.4297 0.851562V12.2861" stroke="white" stroke-miterlimit="10" stroke-linecap="round" stroke-linejoin="round"/>
<path d="M12.17 11.6931C12.17 9.75219 13.07 6.33295 15.81 4.61328C15.81 4.61328 1 7.21793 1 9.3097C1 11.4015 12.17 13.1111 12.17 13.1111" stroke="white" stroke-miterlimit="10" stroke-linecap="round" stroke-linejoin="round"/>
<path d="M19.4309 9.0293C23.7309 9.82377 28.7809 11.4731 28.7809 13.2129C28.7809 15.9382 14.3409 19.7296 6.71094 20.5542C12.1909 19.2167 19.4409 16.0086 19.4409 12.2876V9.0293H19.4309Z" stroke="white" stroke-miterlimit="10" stroke-linecap="round" stroke-linejoin="round"/>
<path d="M12.1734 41.5608C12.1734 40.2635 13.5334 37.9707 15.5834 36.8242C15.5834 36.8242 3.52344 38.564 3.52344 39.9618C3.52344 41.3597 12.1734 42.5061 12.1734 42.5061" stroke="white" stroke-miterlimit="10" stroke-linecap="round" stroke-linejoin="round"/>
<path d="M19.4313 39.7812C22.6413 40.3143 26.2513 41.4105 26.2513 42.5771C26.2513 44.3974 14.4713 46.9418 8.78125 47.4849C12.8713 46.5898 19.4313 44.4477 19.4313 41.9535V39.7812Z" stroke="white" stroke-miterlimit="10" stroke-linecap="round" stroke-linejoin="round"/>
<path d="M12.1734 53.6079C12.1734 52.3105 13.5334 50.0176 15.5834 48.8711C15.5834 48.8711 3.52344 50.6109 3.52344 52.0088C3.52344 53.4067 12.1734 54.5532 12.1734 54.5532" stroke="white" stroke-miterlimit="10" stroke-linecap="round" stroke-linejoin="round"/>
<path d="M19.4313 51.8281C22.6413 52.3611 26.2513 53.4573 26.2513 54.6239C26.2513 56.4441 14.4713 58.9884 8.78125 59.5315C12.8713 58.6365 19.4313 56.4944 19.4313 54.0004V51.8281Z" stroke="white" stroke-miterlimit="10" stroke-linecap="round" stroke-linejoin="round"/>
</svg>
