<svg width="39" height="42" viewBox="0 0 39 42" fill="none" xmlns="http://www.w3.org/2000/svg">
<path d="M10.1233 36.6261C10.1233 39.0551 8.09589 40.9982 5.56164 40.9982C3.0274 40.9982 1 39.0551 1 36.6261C1 34.6829 2.3516 32.9826 4.21004 32.4158C4.63242 32.3349 5.13927 32.2539 5.56164 32.2539C5.98402 32.2539 6.49087 32.3349 6.91324 32.4968C8.77169 33.0636 10.1233 34.6829 10.1233 36.6261Z" stroke="#FE0000" stroke-miterlimit="10" stroke-linecap="round" stroke-linejoin="round"/>
<path d="M6.91413 2.13281V32.4951C6.49176 32.3332 5.98491 32.2522 5.56254 32.2522C5.14016 32.2522 4.63331 32.3332 4.21094 32.4142V3.26634C4.97121 2.94247 5.90043 2.53764 6.91413 2.13281Z" stroke="#333333" stroke-miterlimit="10" stroke-linecap="round" stroke-linejoin="round"/>
<path d="M6.91016 20.4319C8.59965 19.7842 10.6271 19.2984 12.6545 19.2984C15.78 19.2984 19.0745 20.6748 21.1019 21.6464C23.1293 22.6989 26.4239 23.9944 29.5494 23.9944C32.7595 23.9944 35.9695 22.618 37.9969 21.6464V3.34802C35.9695 4.40058 32.675 5.69604 29.5494 5.69604C26.4239 5.69604 23.1293 4.31961 21.1019 3.34802C19.0745 2.29546 15.78 1 12.6545 1C10.7115 1 8.68413 1.4858 6.91016 2.13353" fill="#FE0000"/>
<path d="M6.91016 20.4319C8.59965 19.7842 10.6271 19.2984 12.6545 19.2984C15.78 19.2984 19.0745 20.6748 21.1019 21.6464C23.1293 22.6989 26.4239 23.9944 29.5494 23.9944C32.7595 23.9944 35.9695 22.618 37.9969 21.6464V3.34802C35.9695 4.40058 32.675 5.69604 29.5494 5.69604C26.4239 5.69604 23.1293 4.31961 21.1019 3.34802C19.0745 2.29546 15.78 1 12.6545 1C10.7115 1 8.68413 1.4858 6.91016 2.13353" stroke="#FE0000" stroke-miterlimit="10" stroke-linecap="round" stroke-linejoin="round"/>
</svg>
