<svg width="39" height="42" viewBox="0 0 39 42" fill="none" xmlns="http://www.w3.org/2000/svg">
<path d="M10.1227 36.6301C10.1227 39.0592 8.09547 41.0024 5.56137 41.0024C3.02728 41.0024 1 39.0592 1 36.6301C1 34.6869 2.35152 32.9865 4.20985 32.4197C4.6322 32.3388 5.13902 32.2578 5.56137 32.2578C5.98372 32.2578 6.49054 32.3388 6.91289 32.5007C8.77122 33.0675 10.1227 34.6869 10.1227 36.6301Z" stroke="#FE0000" stroke-miterlimit="10" stroke-linecap="round" stroke-linejoin="round"/>
<path d="M6.91397 2.13281V32.496C6.49162 32.334 5.9848 32.2531 5.56245 32.2531C5.14011 32.2531 4.63329 32.334 4.21094 32.415V3.26637C4.97117 2.9425 5.90033 2.53765 6.91397 2.13281Z" stroke="#333333" stroke-miterlimit="10" stroke-linecap="round" stroke-linejoin="round"/>
<path d="M6.91406 20.4324C8.60346 19.7847 10.6307 19.2989 12.658 19.2989C15.7834 19.2989 19.0777 20.6753 21.105 21.6469C23.1323 22.6995 26.4266 23.995 29.552 23.995C32.7618 23.995 35.9717 22.6186 37.999 21.6469V3.34808C35.9717 4.40067 32.6774 5.69617 29.552 5.69617C26.4266 5.69617 23.1323 4.31971 21.105 3.34808C19.0777 2.2955 15.7834 1 12.658 1C10.7152 1 8.68793 1.48581 6.91406 2.13356" fill="white"/>
<path d="M6.91406 20.4324C8.60346 19.7847 10.6307 19.2989 12.658 19.2989C15.7834 19.2989 19.0777 20.6753 21.105 21.6469C23.1323 22.6995 26.4266 23.995 29.552 23.995C32.7618 23.995 35.9717 22.6186 37.999 21.6469V3.34808C35.9717 4.40067 32.6774 5.69617 29.552 5.69617C26.4266 5.69617 23.1323 4.31971 21.105 3.34808C19.0777 2.2955 15.7834 1 12.658 1C10.7152 1 8.68793 1.48581 6.91406 2.13356" stroke="#333333" stroke-miterlimit="10" stroke-linecap="round" stroke-linejoin="round"/>
<path d="M22.4543 6.91406L14.4297 11.0435V13.5535L22.4543 11.3673V6.91406Z" stroke="#FE0000" stroke-miterlimit="10" stroke-linecap="round" stroke-linejoin="round"/>
<path d="M22.4543 11.3633L14.4297 13.5494V16.9501H22.4543V11.3633Z" stroke="#FE0000" stroke-miterlimit="10" stroke-linecap="round" stroke-linejoin="round"/>
<path d="M22.4531 6.91406L30.4778 11.0435V13.5535L22.4531 11.3673V6.91406Z" stroke="#333333" stroke-miterlimit="10" stroke-linecap="round" stroke-linejoin="round"/>
<path d="M22.4531 11.3633L30.4778 13.5494V16.9501H22.4531V11.3633Z" stroke="#333333" stroke-miterlimit="10" stroke-linecap="round" stroke-linejoin="round"/>
</svg>
