<?xml version="1.0" encoding="UTF-8"?>
<!DOCTYPE svg PUBLIC "-//W3C//DTD SVG 1.1//EN" "http://www.w3.org/Graphics/SVG/1.1/DTD/svg11.dtd">
<!-- Creator: CorelDRAW 2017 -->
<svg xmlns="http://www.w3.org/2000/svg" xml:space="preserve" width="100%" height="auto" version="1.1" style="shape-rendering:geometricPrecision; text-rendering:geometricPrecision; image-rendering:optimizeQuality; fill-rule:evenodd; clip-rule:evenodd"
viewBox="0 0 32444.26 16526.92"
 xmlns:xlink="http://www.w3.org/1999/xlink">
 <defs>
  <style type="text/css">
   <![CDATA[
    .fil0 {fill:#ffffff}
    .fil1 {fill:rgba(255, 255, 255, 0);}
   ]]>
  </style>
 </defs>
 <g id="Слой_x0020_1">
  <metadata id="CorelCorpID_0Corel-Layer"/>
  <g><path class="fil1" d="M6412.36 14149.36c33.95,-12.31 14.83,35.82 42.04,18.05 19.51,-12.73 -5.11,-33.32 19.78,-41.02 67.3,-20.83 102.12,47.75 102.96,73.72 1.23,37.81 -53.5,45.48 -51.56,54.6 3.54,16.65 211.32,149.02 219.5,140.5 23.25,-24.19 231.59,147.46 236.17,118.17 4.92,-31.51 127.24,-124.48 178.49,-63.2 17.75,21.22 3.71,-28.02 14.86,-71.85 1.4,-5.5 16.17,-44.62 -10.88,-39.73 -25.62,4.64 -50.01,47.38 -74.25,57.04 -9.6,3.83 -33.1,-10.22 -35.5,-14.58 -64.73,-117.54 -344.34,-380.54 -299.69,-422.02 37.49,-34.82 168.01,-93.72 235.49,-147.38 93.59,-74.41 126.24,-123.14 180.46,-88.61 31.66,20.16 88.45,214.85 139.4,223.94 30.6,5.46 80.59,23.01 117.63,75.78 24.53,34.93 171.19,197.52 239.73,325.45 65.07,121.46 72.35,211.31 92.51,196.99 84.54,-60.07 272.64,-169.63 363.23,-240.56 145.95,-114.31 177.92,-160.41 280.08,-75.06 35.17,29.38 -85.36,102.77 -219.7,196.06 -179.51,124.67 -392.72,271.4 -378.85,266.3 7.04,-2.59 13.39,250.55 89.2,213.01 28.54,-14.13 491.01,-374.72 646.68,-414.55 56.22,-14.39 158.15,5.65 86.66,60.86 -252.25,194.82 -391.91,289.65 -757.67,549.4 -60.73,43.13 -65.07,-193.84 -113.18,-166.28 -13.03,7.46 -24.57,51.3 -8.17,81.8 54.14,100.69 97.42,109.03 81.62,184.39 -18.38,87.63 -110.62,237.66 -263.97,287.87 -209.76,68.69 -190.14,-36.83 -243.09,-54.07 -12.12,-3.94 56.89,105.49 44.47,108.86 -39.42,10.69 -87.24,65.35 -124.84,79.72 -23.94,9.15 -33.91,-55.24 -57.37,-42.3 -131.16,72.3 -364.1,225.35 -460.1,299.76 -32.74,25.38 -116.1,-26.97 -131.75,-11.09 -4.1,4.17 129.22,49.56 74.55,158.64 -82.28,164.17 -213.83,301.05 -411.12,253.31l-72.46 15.76 -539.53 -739.31 -67.29 -371.01 267.47 -166.29 -39.26 -109.53 40.64 -58.08 -127.65 -266.52c116.92,-106.6 587.6,-398.27 694.26,-436.94z"/></g>
  <g ><polygon class="fil1" points="1561.92,8936.74 586.17,9406.69 900.65,10007.19 825.8,10064.33 917.64,10240.56 1008.31,10212.77 1699.67,11532.93 2686.89,11051.52 2151.24,10044.58 2194.72,10007.01 2056.97,9751.97 1999.34,9759.02 "/></g>
  <g ><polygon class="fil1" points="2510.41,6708.74 2562.07,6674.35 3972.73,8312.08 4031.05,8340.04 4151.96,8267.6 4232.31,8347.83 4473.38,8905.18 4150.52,9034.13 3928.11,8416.61 "/></g>
  <g id="3_1" data-items="3_1" data-group="control" class="objs"><path class="fil1" d="M12140.28 10136.89c-126.65,-44.91 -191.29,85.58 -136.81,136.04 99.15,91.81 -58.78,252.72 -34.43,368.78 5.37,25.58 34.72,33.35 60.64,55.31 55.46,46.98 37.1,121.58 44.69,210.78 5.08,59.76 27.74,102.12 25.69,140.54 -9.86,184.58 270.13,257 259.59,134.7 -2.39,-27.78 -27.27,-55.46 -98.87,-93.88 -30.49,-16.36 -17.61,-24.19 15.12,-22.63 98.09,4.65 117.5,-31.47 112.03,-57.8 -4.35,-20.98 -15.09,-28.43 -82.71,-57.16 -41.34,-17.56 -12.43,-84.33 11.13,-158.72 14.35,-45.3 11.38,-98.85 33.81,-130.17 34.92,-48.76 89.35,-46.87 88.2,-67.25 -0.89,-15.8 -31.96,-37.41 -73.46,-49.78 -1.44,-0.43 -39.95,-82.41 29.08,-40.64 27.86,16.87 39.47,-12.69 92.53,-33.87 17.57,-7.01 104.95,-73.56 0.74,-89.08 -61.96,-9.23 -36.54,-57.39 -159.77,-68.52 -47.31,-4.28 -61.9,-159.62 -135.59,-167.98 -17.97,-2.05 -41.45,-5.07 -51.61,-8.67z"/></g>
  <g id="3_2" data-items="3_2" data-group="raskroi" class="objs"><path class="fil1" d="M16374.57 12429.84c-57.12,87.56 -34.45,213.37 -48.64,254.86 -44.91,131.22 29.04,68.82 -24.02,305.98 -13.09,58.51 -8.55,114.82 -22.04,150.83 -50.54,134.98 97.51,212.06 173.41,202.82 33.85,-4.11 77.49,-56.56 46.83,-87.93 -15.77,-16.14 -34.78,-41.02 -21.1,-48.18 7.25,-3.8 9.65,-15.44 20.35,-11.74 87.51,30.27 131.63,-24.03 98.51,-64.71 -35.01,-42.99 -72.71,-43.01 -84.58,-53.13 -44.04,-37.55 46.01,-210.11 65.41,-224.7 22.14,-16.64 41.11,12.57 88.22,4.25 40.28,-7.11 101.95,-64.3 66.83,-88.02 -21.06,-14.22 38.42,-71.88 6.7,-155.34 -15.9,-41.85 -118.28,-101.29 -127.5,-144.15 -3.84,-17.87 8.57,-12.48 25.37,-33.51 15.46,-19.36 25.62,-63.97 18.32,-75.96 -5.47,-8.98 7.85,-26.13 8.84,-41.38 1,-15.53 -10.34,-29.17 -19.65,-33.29 -31.25,-13.85 -38.33,-39.72 -56.95,-49.95 -114.22,-62.75 -155.18,102.59 -214.31,193.25z"/></g>
  <g><path class="fil1" d="M3659.32 8774.37l-1389 962.82 180.61 385.55 55.5 12.44 -56.67 40.45 61.68 124.65 6.12 48.54 108.54 132.04 50.79 -47.51c81.23,125.37 243.06,411.4 420.35,357.43l45.68 117.63 165.03 -116.06 509.22 423.46 -20.33 92.66 86.7 215.89 79.21 -44.7c133.04,224.54 316.91,413.13 423.14,397.78l158.89 -110.54c-22.72,-158.43 -48.17,-158.2 -121.1,-268.01l67.06 -47.39 38.55 20.74 12.98 -26.79c109.57,69.5 118.18,81.86 200.17,182.33l70.81 -51.85 733.35 265.38 -25.73 364.29 120.07 288.73 129.34 376.85 1195.64 -170.47c42.94,70.52 191.33,112.79 362.8,97.49 198.91,-17.75 353.53,-106.25 345.35,-197.68l-0.09 -0.75 1948.87 -277.86c146.45,158 541.23,125.05 661.01,-104.15l-2.7 -147.37 50.48 87.65 96.11 -16.78c33.52,-15.63 10.33,59.72 63.27,73.51 70.71,18.41 195.94,-1.09 242.07,-41.91 30.09,-26.63 -4.77,-78.81 -2.4,-78.67 91.71,5.37 125.27,16.77 162.07,-59.96 22.67,-47.27 -17.35,-435.49 -8.68,-528.86 26.6,-286.4 -73.19,-526.53 -119.22,-760.87 -9.84,-50.11 -4.97,-110.34 -14.01,-160.56 -24.64,-136.89 -79.72,-259.21 -137.52,-340.32 -56.4,-79.16 -49.43,-268 -151.14,-290.86 -31.58,-68.99 -19.98,-78.46 -93.35,-88.19l-0.9 73.21 -745.45 23.01 -134.64 82.42c-64.93,-42.11 -45.08,-39.62 -109.58,6.01l0.47 106.07c44.34,135.99 68.51,183.26 141.74,306.18l18.55 196.88 -57.53 51.18 -8.27 -133.45 -58.51 -196.12 -87.59 -351.71 -52.96 -1.5 7.93 299.71 -3628.24 473.85 -89.25 -137.2 102.92 -82.78 -149.15 -398.93 -1859.06 -1407.03zm1888.2 2964.25l-400.73 -132.01 383.52 -304.99 33 51.59 -15.79 385.41zm-733.24 -237.85l-68.88 -73.07 562.49 -414.07 97.58 120.35 35.87 -7.16 51.66 83.1 -456.31 365.36 -222.41 -74.51z"/></g>
  <g id="4_1" data-items="4_1" data-group="" class="objs"><polygon class="fil1" points="10309.33,14911.12 10203.86,14968.06 10714.68,15750.36 10820.87,15693.05 10809.39,15652.93 10858.18,15627.14 10947.14,15750.36 10795.04,15830.6 11271.43,16521.19 11503.89,16526.92 11552.68,16502.27 11994.63,16246.1 11816.7,15991.06 11851.14,15965.27 12042.72,16222.11 12632.47,15852.45 12632.47,15780.81 12091.5,15048.66 12031.24,15090.21 11956.62,14997.08 11986.75,14967 11425.7,14213.35 10365.29,14816.55 10352.38,14871 "/></g>
  <g id="4_1" data-items="4_1" data-group="" class="objs"><polygon class="fil1" points="12884.55,13343.72 13427.09,14043.04 13424.1,14108.71 13397.3,14128.5 13482.03,14223.39 13549.56,14170.07 14131.11,14866.03 14130.52,14949.74 13573.77,15316.53 13430.28,15121.68 13281.05,15207.64 13390.1,15345.18 13395.84,15413.96 12798.92,15792.21 12208.77,14999.35 12432.76,14853.13 12345.1,14757.07 12145.36,14906.79 11618.39,14192.86 11618.72,14129.17 12184.13,13782.41 12239.77,13849.24 12335.9,13789.72 12315.67,13710.45 "/></g>
  <g id="4_1" data-items="4_1" data-group="" class="objs"><polygon class="fil1" points="14130.8,12681.79 14100.96,12696.8 14040.42,12629.52 13099.16,13186.71 13095.82,13275.92 12972.83,13330.67 12986.24,13400.19 13525.62,14073.9 13612.76,14013.79 13689.66,14103.71 13617.53,14156.35 13632.67,14221.65 14192.92,14918.35 14752.76,14565 14744.52,14495.21 14614.34,14341.53 14637.59,14330.39 14811.34,14523.94 15346.69,14182.49 15353.69,14106.95 "/></g>
  <g ><polygon class="fil1" points="21962.53,49.42 22846.44,621.09 22685.73,1585.35 22636.08,1628.63 22543.11,1591.14 22469.75,1734.08 22136.93,1898.23 21285.34,1315.21 21410.44,288.69 "/></g>
  <g id="4_2" data-items="4_2" data-group="sklad" class="objs"><path class="fil1" d="M29131.43 7141.97l92.19 69.36 -261.57 199.17 -305.85 -223.94 104.09 -69.65 -744.91 -518.16 -104.32 69.62 -294.53 -213.39 309.05 -164.91 453.43 -1318.15 505.09 343.86 281.25 -802.35 573.97 361.06 68.87 -74.5 332.9 -848.21 470.66 286.56 91.83 -17.2 0 -63.04 25.11 -5.73 163.59 -383.99 49.51 90.97 200.4 114.51 585.22 -363.09 603.48 367.36 -499.12 405.2 139.63 79.04 80.44 3.22 -433.72 976.68 179.16 116.86 -241.39 181.8 -128.26 -74.2 -2296.2 1475.24zm1662.5 -1986.54l-206.36 135.1 37.04 33.97 202.32 -137.55 -33 -31.52zm-307.07 190.56l-215.24 144.71 -27.27 75.94 292.73 -187.7 -50.22 -32.95zm651.42 -455.63l-110.48 81.67 44.48 37.26 66 -118.93zm255.43 -60.18l-96.15 -70.2 -96.14 193.42 192.29 -123.22zm-443.4 200.6l-86.09 74.5 50.22 42.99 97.57 -65.91 -61.7 -51.58zm716.03 80.22l-121.97 276.52 -50.22 -41.55 -107.62 78.8 -93.27 -61.6 373.08 -252.17zm213.07 -461.36l-289.86 180.53 156.41 100.3 133.45 -280.83zm-761.95 713.51l-67.45 -41.55 -53.09 113.19 120.54 -71.64zm-325.73 316.65l-371.65 236.41 208.06 133.25 163.59 -369.66zm-551.02 227.81l-107.62 -73.07 -94.71 210.62 202.33 -137.55zm-202.33 -101.73l-279.81 167.64 165.02 113.19 114.79 -280.83zm-190.84 465.64l-374.52 240.71 213.81 136.11 160.71 -376.82zm-444.83 -70.2l-84.66 196.29 73.18 58.74 460.61 -295.16 -170.76 -136.11 -278.37 176.24zm-81.79 298.01l-37.31 -21.49 -30.14 68.77 67.45 -47.28zm-15.79 -313.78l-152.1 108.89 87.53 61.62 64.57 -170.51zm-153.53 386.85l-196.59 -140.41 129.14 -88.83 126.28 81.67 -58.83 147.57zm1551.15 -1199.24l216.67 -144.71 54.53 44.42 -99.01 207.75 -172.19 -107.46zm799.23 -497.91l186.58 124.66 -500.83 322.37 -107.99 -80.69 52.04 -127.07 370.2 -239.27zm243.94 -435.58l133.35 76.45 -388.77 255.98 -126.26 -78.81 381.68 -253.62zm-2352.49 2124.51l222.49 152.52 -559.76 362.83 157.73 -406.53 179.54 -108.82zm938.37 -593.62l229.59 146.15 -764.81 495.74 172.08 -403.67 31.33 -26.12 331.81 -212.1zm865.96 -557.38l102.16 69.68 -70.2 54.43 120.14 85.08 -609.84 389.71 172.08 -403.67 31.33 -26.11 254.33 -169.12zm-573.97 14.33l189.41 127.52 -485.01 315.22 -169.31 -118.93 9.66 -37.79 455.25 -286.02zm-1767.82 1058.82l255.41 171.94 -137.91 361.66 -47 -20.04 -99.2 71.02 -419 -300.89 447.7 -283.69zm1162.15 -2023.82l103.67 65.55 -0.39 50.9 -117.19 -0.67 -13.28 75.31 -44.74 17 71.93 -208.09zm881.04 -541.59l141.05 89.19 -79.33 11.28 -35.45 94.11 -53.46 -3.49 -44.74 17 71.93 -208.09zm-731.81 149.01l352.11 226.97 -45.9 13.11 -14.48 45.58 -91.48 15.36 -19 61.91 -107.57 3.36 -11.11 48.66 -168.57 -108.32 106 -306.63zm-1107.69 955.66l275.54 177.62 -42.83 19.01 -17.17 45.18 -95.37 34.31 -12.22 51.69 -88.45 11.47 -24.02 45.47 -110.1 -63.79 114.62 -320.96zm149.23 -378.25l453.43 292.29 -253.98 210.62 -305.46 -196.28 106.01 -306.63zm-1089.13 1326.73l127.35 88.27 -228.31 203.79 100.96 -292.06zm307.08 -862.53l417.56 290.86 -45.29 122.7 -35.69 88.81 -66.35 7.08 -11.95 37.87 -366.51 -234.25 108.23 -313.07zm-137.75 381.12l365.9 253.6 -334.34 265.06 -170.75 -116.05 139.19 -402.61z"/></g>
  <g data-group="tehnika"><path class="fil1" d="M22129.36 2012.22l352.97 -278.3 66.4 -131.51 85.96 33.27 1050.12 -849.92 34.44 -286.55 111.63 33.92 104.03 -122.61 100.01 -92.79 -6.88 -67.54 71.65 -10.44 10.71 -30.49 58.35 16.71 54.15 -53.44 103.04 -2.03 861.7 382.43 9.27 100.28 47.81 21.97 62.74 96.49 -38.39 183.24 -33.07 73.74 -47.77 12.09 -27.89 12.7 -76.44 245.98 -44.52 264.34 -75.97 50.24c-41.92,123.11 -16.59,100.87 -138.48,144.36 -69.79,201.81 -77.43,218.07 -298.82,359.5l-84.55 -35.52 -67.54 12.22 -129.61 92.99 -63.15 -3.32 -230.72 177.02 -27.87 119.38 -54.38 52.88c-52.52,198.29 -123.8,343.21 -300.68,407.59l-261.9 -129.86 -80.15 112.13 -28.63 129.03 -252.69 -101.98 -6.05 76.44 -450.56 -212.54 25.63 -66.52 -302.07 -148.9 20.82 -104.16 -151.98 -95.7 49.33 -386.82z"/></g>
  <g id="4_3" data-items="4_3" data-group="sklad" class="objs"><polygon class="fil1" points="24481.29,7762.09 24256.61,7908.14 24235.58,7863.03 24115.41,7890.34 24104.17,7973.58 23619.53,8249.79 23482.58,8256.25 23457.73,8352.17 23428.97,8372.06 23402.5,8336.89 23303.6,8369.17 23278.66,8426.98 23234.78,8402.7 23166.78,8444.15 23103.72,8746.8 23034.22,8795.22 23025.48,8769.53 23073.02,8731.31 23015,8646.88 22770.84,8792.63 22740.85,8750.37 22645.14,8767.75 22607.94,8867.58 22105.53,9167.34 21960.93,9176.47 21953.68,9247.99 21907.74,9277.17 21877.79,9257.35 21775.29,9278.19 21749.57,9349.62 21660.23,9335.28 21550.24,9836.24 21660.17,9892.07 21662.8,9940.7 21763.1,9965.46 21749.08,10030.68 21854.26,10082.24 21869.03,10124.76 21972.7,10154.55 21965.56,10231.22 22157.03,10245.37 22180.06,10257.69 22270.46,10204.14 22312.61,10236.66 22394.48,10179.12 22355.79,10139.58 22384.54,10101.03 22391.27,10065.68 22470.7,10070.99 22475.24,9961.18 22935.05,9702.7 22993.04,9666.25 22993.23,9717.92 23057.66,9752.21 23127.45,9701.63 23164.56,9730.61 23219.48,9690.82 23220.57,9631.73 23201.36,9621.6 23240.13,9600.35 23241.44,9520.85 23397.43,9427.15 23396.92,9373.43 23379.46,9374.75 23380.51,9364.18 23415.21,9349.67 23415.54,9296.63 23395.09,9295.61 23398.53,9281.88 23425.83,9277.7 23433.75,9258.07 23448.39,9202.56 23490.17,9219.97 23493.62,9274.45 23555.36,9294.08 23665.86,9300.89 23687.17,9323.78 23783.96,9269.08 23824.51,9293.53 23872.66,9267.42 23869.77,9220.62 23858.04,9197.34 23895.17,9175.81 23905.47,9131.58 23977.05,9129.34 23988.03,9029.16 24451.77,8769.4 24528.89,8838.63 24602.73,8796.61 24628.28,8821.91 24701.9,8762.46 24674.82,8711.2 24729.11,8679.49 24719.57,8627.84 24857.26,8520.18 24839.28,8469.09 24879.47,8450.96 24881.3,8397.75 24861.53,8396.27 24863.23,8382.22 24905.56,8370.06 24886.56,8302.32 24935.23,8288.18 24922.63,8227.42 24990.04,8176.89 24896.28,8106.25 24827.58,8149.23 24799.32,8135.37 24857.21,8075.88 24789.37,8023.15 24725.65,8071.25 24696.04,8050.96 24753.74,7995.79 24685.34,7942.66 24623.41,7981.69 24595.76,7963.71 24664.28,7915.44 24586.3,7856.36 24524.14,7895.39 24496.48,7876.64 24565.27,7830.9 "/></g>
  <g id="3_3" data-items="3_3" data-group="control" class="objs"><path class="fil1" d="M23588.83 4054.83c44.03,5.79 43.11,-63.38 10.75,-95.7 -0.02,-0.02 7.86,-61.04 7.43,-68.97 -0.82,-14.96 -15.54,-30.75 -15.94,-34.32 -2.23,-19.96 -18.55,-39.56 5.34,-73.21 80.62,-113.5 93.64,-241.91 180.52,-305.42 18.81,-13.75 51.86,-25.89 82.11,-34.62 54.2,-15.65 158.96,-39.7 174.8,-87.99 8.07,-24.57 -23.69,-59.76 -62.99,-93.98 -6.3,-5.48 -74.38,45.88 -71.02,22.55 3.02,-20.88 -14.07,-35.69 -19.01,-46.49 -17.94,-39.16 -46.92,-36.25 -89.46,-29.45 -16.8,2.68 -17.57,-30.89 -28.16,-40.24 -2.98,-2.63 7.44,-17.98 12.49,-40.08 5.1,-22.3 4.86,-51.39 6.17,-57.91 6.28,-31.41 28.09,-54.12 -52.8,-76.99 -39.92,-11.28 -107.76,16.08 -127.81,38.37 -23.41,26.02 -22.77,74.84 -19.78,101.62 9.05,80.99 -31.19,73.08 -48.86,140.78 -6.32,24.22 -19.13,56.89 -12.65,108.51 3.58,28.45 -44.72,53.7 -51.06,101.42 -5.62,42.37 5.97,89.82 1.9,132.44 -7.88,82.61 -48.12,148.94 -65,206.95 -12.35,42.47 -3.69,91.27 1.66,120.37 14.33,77.72 75.6,98.46 181.37,112.36z"/></g>
  <g data-group="sklad"><path class="fil1" d="M22107.37 7031.61l47.9 -294.92 92.3 -42.02 39.2 -234.27 251.94 -115.58 65.08 3.33 12.99 -70.47 516.2 -217.37 495.73 437.2 -36.91 246.41 168 155.61 -19.87 316.62 -27.95 59.8c-150.93,257.09 -294,327.76 -427.09,189.07l-320.95 162.12 24.32 44.28 -88.64 45.23 -149.19 186.4 28.5 54.79 -48.4 33.65 36.73 40.98 -50.54 40.74 28.24 41.42 -74.51 63.09 -47.22 -54.03 -14.81 11.07 18.09 39.21 -64.9 51.58 -48.98 -47.55 -12.43 9.01 13.87 46.36 -67.26 51.81 -37.25 -37.94 -8.91 6.42 13.44 44.6 -59.22 45.09 -61.54 -21.48 17.84 47.85 -67.7 51.21 -176.52 -181.75 -117.37 79.4 -45.93 -43.63 -2.58 -37.77 -20.43 -17.97 6.7 -137.95 -44.42 -35.07 -62.7 28.23 -72.93 -74.67 47.09 -45.86 -147.91 -137.25 -67.61 34.51 -76.46 -75.4 42.51 -36.5 -48.85 -49.05 -111.27 -1.88 -15.57 -93.74 -154.35 68.43 -9.2 -210.77 -83.05 -12.53 68.46 -412.07 -1.96 -68.96 454.05 -228.61 138.83 -11.92 10.69 91.28 55.89 -19.56 214.82 187.42 -8.19 61.73 43.27 33.9 48.89 -41.31z"/></g>
  <g id="4_4" data-items="4_4" data-group="" class="objs"><polygon class="fil1" points="6433.69,8332.74 6837.12,8901.9 6978.7,8805.24 7001.95,8838.52 6855.19,8934.69 7283.64,9546.55 7387.41,9496.36 7381.04,9460.32 7441.77,9429.8 7539.06,9414.41 7640.75,9346.49 7707.03,9341.65 7718.41,9291.13 7807.35,9309.9 7847.97,9222.01 7896.14,9219.41 7958.36,9301.19 8047.92,9260.47 8046.18,9203.26 8164.79,9151.9 8164.68,9191.58 8275.08,9144.09 8276.8,9099.64 8394.51,9048.3 8404.59,9073.88 8531.26,9013.85 8086,8423.72 8000.32,8468.58 7950.53,8484.44 7877.42,8390.78 7979.75,8345.59 7958.87,8254.54 7581.25,7775.05 7425.3,7836.49 7328.51,7726.85 7111.42,7613.31 7068.92,7563.79 6945.79,7540.78 6796.73,7448.73 6773.7,7565.73 6715.21,7638.34 6665.98,7840.55 6624.26,7925.35 6588.87,7957.43 6586.41,8083.48 6548.48,8149.89 6548.29,8244.62 6436.66,8283.28 "/></g>
  <g id="4_4" data-items="4_4" data-group="" class="objs"><polygon class="fil1" points="9093.27,9665.13 9203.51,9595.92 9257.12,9656.72 9333.74,9616.6 9331.77,9574.02 9389.71,9613.06 9438.81,9603.05 9461.1,9573.19 9440.6,9513.57 9489.54,9560.44 9527.57,9557.53 9561.84,9526.5 9596.9,9527.74 9633.83,9496.72 9638.77,9463.77 9603.28,9408.5 9655.9,9409.74 9692.58,9444.14 9750.2,9431.86 9772.8,9406.7 9835.31,9402.71 9867.7,9364.39 9832.71,9314.68 9859.25,9304.09 9904.86,9346.34 9961.4,9340.21 9994.58,9295.01 10029,9269.13 10036.51,9229.97 10096.41,9239.18 10161.81,9183.3 10092.7,9099.9 10161.58,9065.51 10162.29,8981.69 9707.32,8476.48 9637.61,8516.36 9599.93,8481.06 9674.7,8449.25 9666.54,8374.09 9242,7869.69 9160.73,7909.93 9079.4,7820.54 9133.84,7789.49 9124.59,7718.66 8721.04,7228.35 8651.4,7265.52 8504.59,7133.12 8442.4,7128.74 8365.71,7088.4 8251.05,6994.7 8114.27,6836.47 8061.07,6825.74 8012.92,6770.62 7962.29,6766.05 7921.49,6833.54 7963.88,6901.91 7914.09,6915.68 7911.45,6974 7874.58,7009.27 7882.1,7071.78 7818.65,7121 7850.15,7179.63 7794.17,7229.53 7816.42,7294.48 7776.59,7325.34 7774.65,7377.97 7733.31,7387.23 7714.77,7422.39 7773.25,7505.04 7703.01,7528 7702.89,7588.99 7672.38,7597.48 7665.39,7643.27 7704,7705.95 7647.6,7741.63 8056.97,8299.33 8140.28,8267.35 8216.22,8361.77 8180.27,8387.58 8177.09,8462.98 8588.15,8991.57 8674.43,8939.68 8718.81,8992.21 8641.46,9048.73 8645.81,9081.26 "/></g>
  <g id="4_4" data-items="4_4" data-group="" class="objs"><path class="fil1" d="M10252.64 9068.78l71.51 -36.79 17.14 -13.35 73.24 67.78 36.43 -23.62 2.45 -35.69 31.71 8.56 33.97 26.63 40.21 -45.12 -38.88 -83.95 93.08 84.45 58.5 -45.37 -72.78 -95.85 18.41 -13.98 30.87 37.23 42.03 -0.27 56.54 54.38 96.93 -98.17 -51.33 -72.25c35.91,-2.29 103.46,59.93 133.82,60.57 46.08,0.97 55.62,-36.4 56.22,-36.85l47.77 -21.08 3.85 -51.2 -77.34 -98.21 100.07 68.2 69.19 19.42 35.72 -36.62 -11.43 -48.7 39.92 34.6 46.89 -19.84 13.09 -38.35 -48.85 -65.1 91.68 -42.19 -0.77 -85.55 -451.29 -498.24 -136 82.16 -41.54 -41.01 129.81 -59.45 0.99 -83.17 -440.05 -478.85 -163.54 77.74 -99 -95.04 139.87 -49.11 4.25 -83.42 -411.1 -476.42 -180.92 88.81 -177.18 -174.55 -47.67 6.94 -92.76 -99.26 -45.45 -0.72 -28.52 -15.72 -55.96 2.17 -78.33 -88.76 -49.33 11.64 -17.85 30.79 9 51.66 -34.48 32.99 10.63 43.4 -45.55 6.85 -17.37 54.23 -15.54 48.93 -7.36 52.56 20.81 60.74 -37.25 28.86 -1.81 49.21 -38.66 8.66 -52.49 28.58 49.66 70.13 -36.98 9.29 5.58 53.72 -55.76 14.84 -6.53 42.82 34.67 55.75 -59.92 39.09 430.18 527.98 75.03 -34.92 88.24 106.21 -38.64 19.83 -2.26 66.93 429.59 500.75 77.83 -17.71 40.07 46.97 -67.32 25.63 1.2 69.82 447.14 525.95z"/></g>
  <g id="2_1" data-items="2_1" data-group="raskraska" class="objs"><path class="fil1" d="M15633.13 4736.76l1203.14 -582.75 9.78 -62.58 -174.36 -126.4 -1260.09 567.41 -58.77 -58.01 1219.31 -582.54 -9.68 -54.49 63.84 -60.81 41.15 -5.48 2.31 -28.58 -36.43 -30.7 1.05 -37.4 49.5 -7.56 -1.71 -720.76 -84.75 -63.07 452.79 -215.5 3.82 -348.65 272.46 -44.99 108.46 -17.91c-33.42,-64.93 -64.62,-93.5 -86.06,-130.53 -49.83,-86.05 -30.43,-304.46 -42.37,-409.66 -7.34,-64.61 -38.75,-74.82 -45.29,-118.57l-933.56 412.69 153.52 122.4 14.31 79.57 158.98 -19.69 345.43 338.49 -869.09 410.77 -426.32 -359.01 497.5 -267.33 -9.46 -76.93 -236.18 -185.24 -14.24 -150.7 3015.44 -1299.76 118.99 76.21 -3.89 157.12 -1080.94 456.93c82.94,154.79 62.93,297.98 110.44,393.36 34.29,68.84 92.14,116.05 174.4,227.35l535.86 -228.01 359.81 274.44 53.57 -26.76 138.6 105.65 -8.7 289.4 -75.38 20.4 -26.33 458.02c-39.74,23.48 -43.37,38.13 -42.41,52.23 1.17,17.02 13.88,38.54 16.31,72.45 3.71,51.46 -0.19,107.26 -32.03,146.65 -42.03,51.99 -69.4,103.06 -80.57,141.08l-27.49 12.68 -125.58 -140.59 -27.26 -31.52 -24.4 -174.8 -200.89 88.83 38.75 167.64 -22.96 7.16 -9.74 254.92 -751.62 346.72 -82.19 261.68 -162.13 -5.03 0.12 -146.83 -70.97 42.28c3.42,-8.82 6.93,-19.65 10.55,-32.83 3.53,-12.8 -20.26,-48.18 -15.26,-64.73 26.61,-87.9 -131.28,-185.9 -122.68,-223.02 31.32,-135.1 -27.31,-171.48 -62.44,-168.58 -49.16,4.05 -91.68,88.08 -91.07,148.42 0.47,46.02 -44.17,34.97 -66.75,48.3 -49.43,29.2 -78.98,88.51 -87.51,141.88 -8.26,51.69 1.96,55.19 79.32,106.6 11.85,7.87 -0.93,106.61 -11.36,219.34l-0.54 5.95 -30.11 13.84 -1556.24 728.28 -61.71 -88.84zm1778.67 -3172.32c5.47,55.96 57.78,206.58 21.54,367.66 -19.27,85.6 122.35,252.5 179.57,264.33 1.94,9.35 436.59,-200.97 514.44,-223.27 63,-18.06 -186.2,-185.26 -171.74,-331.1 9.15,-92.23 -23.29,-221.83 -93.44,-277.3 -39.83,-31.49 -428.23,194.25 -450.37,199.68zm1495.13 1750.69l-121.93 56.24 6.46 -154.18 115.47 97.94zm-1298.66 611.24l-46.78 27.88c-1.47,-43.99 -4.44,-93.27 -11.47,-127.2 18.98,0 28.31,53.59 43.62,78.63 4.92,8.05 9.77,15.38 14.63,20.69z"/></g>
  <g id="3_4" data-items="3_4" data-group="raskraska" class="objs"><path class="fil1" d="M17301.28 3609.71c-49.43,29.2 -78.98,88.51 -87.51,141.88 -8.26,51.69 1.96,55.19 79.32,106.6 11.85,7.87 -0.93,106.61 -11.36,219.34 -12.34,133.44 -22.99,288.58 7.15,345.38 31.52,59.38 88.3,80.34 120.31,7.09 17.19,-39.36 46.59,33.84 83.88,31.09 33.07,-2.44 47.47,-14.25 62.87,-194.3 8.72,-101.94 9.49,-157.1 7.43,-229.33 -1.18,-41.43 -0.86,-150.13 -13.35,-210.41 18.98,0 28.31,53.59 43.62,78.63 20.96,34.3 40.56,55.43 65.84,-36.36 3.53,-12.8 -20.26,-48.18 -15.26,-64.73 26.61,-87.9 -131.28,-185.9 -122.68,-223.02 31.32,-135.1 -27.31,-171.48 -62.44,-168.58 -49.16,4.05 -91.68,88.08 -91.07,148.42 0.47,46.02 -44.17,34.97 -66.75,48.3z"/></g>
  <g id="3_5" data-items="3_5" data-group="raskraska" class="objs"><path class="fil1" d="M18910.56 2884.78l-200.89 88.83 38.75 167.64 -22.96 7.16 -20.09 525.83 116.23 90.27 228.15 -103.16 1.43 -53.01 -111.92 -100.3 -163.58 85.97 15.78 -376.82 133.45 113.19 162.9 -98.69 -125.59 -140.59 -27.26 -31.52 -24.4 -174.8zm285.3 193.15c-67.94,84.05 -97.63,165.71 -82.34,193.68 18.86,34.53 85.98,9.31 93.35,32.67 0.29,0.95 12.77,284.18 11.51,287.81 -11.22,32.38 -47.57,22.16 -65.92,33.94 -25.17,16.17 -25.58,43.08 -25.48,53.95 0.37,38.12 105,41.79 105.71,42.29 3.28,2.29 -52.83,24.12 -66.29,50.32 -20.21,39.35 -20.49,87.17 76.32,62.83 13.91,-3.5 38.04,-19.01 57.25,-26.52 22.19,-8.67 39.29,-10.29 49.86,-28.63 7.7,-13.37 -0.12,-33.32 2.89,-49.39 2.99,-16.07 29.64,-47.84 20.38,-62.65 -29.6,-47.33 129.42,-364.61 88.04,-465.06 -12.6,-30.58 45.42,-67.79 26.82,-150 -34.9,-154.21 -50.69,-78.78 -78.01,-158.86 -3.2,-9.39 13.66,-22.86 10.47,-32.86 -19.87,-62.2 -49.72,-123.8 -166.43,-54.85 -39.74,23.48 -43.37,38.13 -42.41,52.23 1.17,17.02 13.88,38.54 16.31,72.45 3.71,51.46 -0.19,107.26 -32.03,146.65z"/></g>
  <g data-group="raskroi"><polygon class="fil1" points="15238.31,10627.21 14899.67,10796.27 14891.06,11062.77 15665.92,11902.38 15995.94,11713.25 15998.82,11443.89 "/></g>
  <g data-group="tehnika"><path class="fil1" d="M24670.2 2673.59l-59.11 10.66 -13.13 -20.51 -60.37 33.16c-2.86,7.92 24.62,50.08 11.86,113.94 -11.77,58.95 -45.56,126.48 -116.8,143.87 -56.5,13.78 -172.08,104.42 -48.9,73.81 33.44,-8.3 25.13,-34.35 33.97,-28.77 14.52,9.17 30.62,45.11 8.25,67.17 -44.82,44.2 -154.01,78.78 -172.2,-38.47 -8.76,-56.46 55.11,-94.56 49.37,-101.74 -84.08,-105 -31.28,-250.66 76.09,-295.92l-7.49 -86.86c111.82,-110.94 222.61,-406.97 302.95,-250.25 45.49,-31.5 31.13,-30.29 78.73,-1.2l3857.07 435.56 58.2 130.51 55.36 37.57 87.56 265.74 -33.9 232.26 141.34 35.92 87.48 240.77 -31.41 102.79 -35.17 8.23 -18.22 52.98 -17.6 23 31.52 28.96 -9.13 62.33 -116.5 16.42 -27.04 36.19 -55.51 -40.92 48.36 117.47 1.95 48.32 346.79 236.05 -227.35 494.41 28.18 54.83c-7.97,35.32 -52.65,54.64 -94.24,45.78 -45.34,-9.66 -87.04,-50.66 -73.53,-86.15l41.17 -33.4 86.07 -253.8 -78.56 -218.18 -126.73 -108.85 -28.15 67.03 -83.86 10.94 -63.01 -197.83 -58.76 147.14 -120.36 -336.64 -142.83 -9.06 112.97 343.87c-38.67,250.23 -164.2,333.85 -427.72,308.57 -178.61,-17.14 -242.15,-247.34 -235.87,-399.72l-102.08 -4.99 -220.06 881.04 -175.3 -21.85 305.5 -859.98 -69.31 2.55 -61.26 159.35 -24.95 72.69 -44.06 -21.64c-224.62,58.53 -181.58,53.49 -402.25,-20.24l-58.13 21.37 -22.09 -74.62 -388.66 -4.52 -21.77 49.43 -57.15 4.23 -27.81 60.11 -50.97 1.99 0.05 -131.55c-77.07,235.97 -533.86,324.26 -613.2,-7.39l-75.91 5.24 -31.94 -17.94 -47.37 95.46 -184.53 1.6 -11.93 -75.95 -88.6 -6.56 -89.14 -141.81 -95.36 -506.81 33.71 -278.83 88.2 -349.76 157.16 -289.85 -582.58 -58.75z"/></g>
  <g data-group="raskroi"><path class="fil1" d="M16757.36 11653.89l-129.15 -303.75 -203.76 -100.29 2.87 -68.78 241.07 114.63 137.75 295.15 40.18 -22.93 553.88 289.43 -11.48 108.89 -97.57 134.68 8.61 31.52c38.96,40.6 73.38,77.86 81.76,107.9 13.11,46.96 -18.74,78.38 -53.07,93.18 -6.98,3 -59.66,27.21 -111.16,1 -32.85,-16.73 -65.69,-85.24 -105.53,-101.45 -23.3,-9.48 -31.6,-25.15 -55.77,-30.29 -55.88,-11.88 -86.21,10.61 -131.04,20.66 -47.32,10.61 -107.8,9.07 -113.03,5.78 -49.64,-31.24 -59.71,-110.51 -73.32,-197.42 -2.95,-18.83 -49.46,-57.09 -92.2,-94.29 -21.69,-18.88 -47.94,-44.01 -45.28,-52.04 4.95,-14.98 11.23,-29.24 18.46,-42.98l-487.54 -282.93 28.84 -49.55 489.15 283.87c34.11,-47.68 75.91,-91.12 107.33,-139.99z"/></g>
  <g data-group="raskroi"><polygon class="fil1" points="17048.77,12485.5 17353.6,12720.69 17296.2,13282.33 16951.81,13545.96 16624.89,13221.95 16669.35,12940.66 16824.64,12679.85 "/></g>
  <g id="2_5" data-items="2_5" data-group="raskroi" class="objs"><path class="fil1" d="M18175.85 8995.54l2399.19 -1328.18 197.03 157.66 -7.89 220.81 -635.47 359.15 1033.16 936.07 -193.63 1199.24 -563.95 348.93 31.31 53.66c51.2,82.33 24.82,174.51 -80.82,238.51l-574.12 346.31c-141.06,52.27 -214.59,40.51 -323.93,-62.21l-155.89 -146.44 -371.28 228.53c10.51,-49.91 -7.22,-69.37 -31.79,-101.66 -31.2,-41.01 -46.41,-78.61 -52.82,-90.51 -53.47,-99.26 -231.56,-97.69 -244.64,-57.55 -27.28,83.67 14,78 18.38,132.02 1.48,18.16 -0.94,21.18 -11.9,65.94 -5.84,23.89 -79.48,50.9 -128.51,108.8 -40.78,48.17 -64.55,122.16 -18.1,192.76 7.33,11.14 13.95,19.89 19.99,26.81l-341.62 210.27 -82.34 -72.98 -186.53 123.35 1.32 67.05 76.23 75.97 -222.01 145.75 -180.36 -195.87 83.51 -55 -8.69 -90.9 -39.24 -39.91 1.89 -128.62 -56.65 -57.78 13.55 -124.59 -367.15 -387.03 -86.93 41.99 65.93 84.24 -217.77 122.69 -157.74 -176.23 68.75 -41.07 3.44 -113.24 -47.47 -40.91 18.97 -248.65 910.3 -534.26 -536.25 -538.53 960.21 -562.41 22.33 -291.98zm1432.83 1560.43l-490.74 -481.42 66 -40.11 892.01 834.52c64.62,60.46 142.46,113.86 134.14,151.19 -7.41,33.27 -157.14,115.82 -284.3,199 -119.88,78.42 -229.55,153.65 -267.89,155.45 -22.38,1.04 -47.3,-30.94 -47.3,-30.94l47.65 -59.8 -36.85 -52.23 176.69 -134.07 -63.14 -65.91 13.9 -64.59 57.85 -8.48 5.74 -296.59 -111.92 -94.56 -91.84 -11.46zm-430.48 -1068.86l-344.38 -318.08 327.16 -194.85 17.22 512.93z"/></g>
  <g id="3_6" data-items="3_6" data-group="raskroi" class="objs"><path class="fil1" d="M18600.31 11297.86c-27.28,83.67 14,78 18.38,132.02 1.48,18.16 -0.94,21.18 -11.9,65.94 -5.84,23.89 -79.48,50.9 -128.51,108.8 -40.78,48.17 -64.55,122.16 -18.1,192.76 50.3,76.45 67.49,41.19 87.38,62.56 13.02,13.99 11.01,47.33 0.34,112.88 -4.16,25.57 1.91,60.92 -10.28,94.64 -19.69,54.5 62.34,144.75 14.25,181.77 -8.24,6.35 -24.63,-6.21 -45.07,-3.84 -6.66,0.77 -33.24,-1.39 -49.54,17.91 -22.4,26.51 -31.8,77.65 -1.54,88 44.14,15.09 226.02,71.55 254.37,-8.91 11.97,-33.98 5.14,-45.67 5.14,-112.9 19.42,18.63 74.47,52.84 88.81,42.56 41.11,-29.47 27.76,-135.23 34.24,-227.74 2.75,-39.31 -21.5,-92.86 4.08,-128.24 74.27,-102.72 21.88,-210.44 53.54,-277.95 58.84,-125.45 37.56,-145.29 1.87,-192.2 -31.2,-41.01 -46.41,-78.61 -52.82,-90.51 -53.47,-99.26 -231.56,-97.69 -244.64,-57.55z"/></g>
  <g id="3_7" data-items="3_7" data-group="svarka" class="objs"><path class="fil1" d="M17118.56 7311.55c10.62,7.96 33.45,33.15 30.46,57.74 -6.3,51.65 -11.33,103.99 40.01,149.27 105.59,93.12 147.71,30.17 139.07,83.8 -24.84,34.52 6.03,60.5 20.13,67.47 24.09,11.92 25.7,45.55 42.56,81.73 60.01,128.77 160.95,-41.45 185.81,-59.17 14.77,-10.53 29.45,10.09 41.31,5.03 19.57,-8.37 32.37,-71.58 54.22,-65.72 18.25,4.9 47.91,22.43 67.78,43.82 40.96,44.08 77.69,97.58 148.8,41.96 4.74,-3.71 -12.81,76.84 2.29,162.61 9.77,55.48 70.21,150.01 77.88,200.54 4.67,30.77 -11.8,41.02 -21.63,59.74 -11.21,21.38 5.36,47.89 31.07,65.1 18.91,12.65 44.09,14.37 60.07,35.44 23.57,31.07 95.62,21.61 102.87,-9.1 17.03,-72.2 -9.03,-160.56 -31.07,-282.48 -4.96,-27.47 9.33,-66.18 2.82,-96 -20.41,-93.39 66.27,-97.38 80.35,-127.53 5.58,-11.95 -30.08,-238.82 -4.28,-255.95 47.05,-31.25 87,-37.68 37.28,-133.24 -63.49,-122.07 -138.4,-81.55 -139.2,-88.86 -11.77,-107.05 -39.01,-127.85 -74.45,-140.65 -64.25,-23.22 -115.78,27.23 -128.38,71.87 -4.07,14.43 -2.14,39.82 2.23,46.78 9.05,14.41 66.09,73.71 60.67,89.76 -6.63,19.59 -51.84,29 -58.76,66.55 -5.3,28.76 -66.05,27.91 -67.5,26.41 -46.33,-47.85 -164.96,-145.12 -292.26,-227.7 -89.96,-58.35 -120.97,-74.77 -182.68,-61.24 -134.1,29.4 -248.02,176.61 -227.47,192.02z"/></g>
  <g id="2_6" data-items="2_6" data-group="svarka" class="objs"><path class="fil1" d="M12584.6 8744.94l-309.94 -343.86 0 -590.31 338.64 -189.12 241.07 263.63 63.13 -5.74 143.49 -74.5c-13.16,-217.62 -76.41,-514.87 2.36,-609.56 24.78,-29.79 101.08,-29.03 112.44,13.53l200.89 -91.7 120.53 212.05 -40.18 80.23 34.31 79.42c245.74,212.17 192.5,315.27 247.74,641.67l78.77 330.81 125.82 -54.92 25.49 -100.22 33.36 -0.53 56.86 38.79 138.07 -19.47 -77.71 85.82 8.77 66.09 -22.12 27.64 -46.59 -55.65 -24.88 10.56 10 44.9 -19.25 15.22 -32.31 -40.67 -133.35 71.12 -0.66 75.03 -31.03 0.75 -22.49 -48.33 -24.67 11.02 1.12 42.99 -16.49 16.23 -25.91 -38.64 -186.88 106.36 -6.98 161.75 -37.79 66.64 6.2 144.84 177.93 187.69 -454.87 252.17 -503.66 -560.22 149.24 -85.96 -10.7 -192.19c-78.19,-14.24 -78.52,-9.71 -144.28,-54.25l-143.49 108.89z"/></g>
  <g id="2_7" data-items="2_7" data-group="control" class="objs"><path class="fil1" d="M19937.88 4147.38l-33.38 -61.14 -25.33 -9.55 -64.11 34.07 -134.74 -118.84 -2427.89 1186.34 7.18 194.85 61.54 9.48 34.59 47.84 66.22 -60.43 20.31 28.6 -18.07 127.1 66.35 0.61 72.36 41.38 27.69 -6.05 12.9 -42.03 116.49 96.36 -36.98 63.81 93.16 81.62 76.93 -58.32 -47.19 -65.65 372.36 -180.42 68.9 54.51 109.9 -58.5 -60.46 -53.4 372.53 -193.03 56.98 63.5 121.79 -57.36 -61.5 -57.03 351.6 -176.93 63.72 55.2 64.61 -34.65 23.42 -50.12 -27.58 -25.47 350.37 -179.42 68.72 49.9 117.39 -57.53 -70.49 -44.57 347.6 -175.26 98.24 38.42 50.14 -41.81 25.07 -12.95 0 -34.3c-15.3,-21.37 -75.3,-57.89 -100.35,-79.68 -71.15,-61.91 -87.74,-125.68 -106.9,-144.71 -88.73,-88.08 -89.34,-70.14 -69.67,-73.6l-23.91 -24.49c-3.63,1.49 -7.14,2.71 -10.51,3.65z"/></g>
  <g id="3_8" data-items="3_8" data-group="control" class="objs"><path class="fil1" d="M20180.02 3762.39c-28.19,24.9 -51.14,112.59 -29.81,146.78 8.5,13.63 6.81,10.14 9.13,26.81l-150.07 169.03 4.04 12.21c-32.42,109.84 -110.93,-13.96 28.66,124.6 19.16,19.03 35.75,82.8 106.9,144.71 26.68,23.21 93.02,63.13 102.75,83.66 -19.66,-0.87 98.12,116.24 169.62,-54.49 0.15,-0.34 33.42,-27.66 52.5,-74.85 39.2,-96.91 63.7,-95.28 94.62,-167.51 16.84,-39.33 17.33,-148.45 30.11,-163.74 -16.13,-62.01 14.66,-109.1 -83.02,-170.2 -28.54,-17.84 -5.85,19.68 -63.05,-27.14 -1.4,-1.14 -141.8,-44.81 -145.11,-43.6 -28.56,10.45 -23.95,-37.13 -101.75,-18.14 -12.49,3.05 -13.26,3.56 -21.86,9.21l-3.66 2.66z"/></g>
  <g id="2_8" data-items="2_8" data-group="control" class="objs"><path class="fil1" d="M10735.47 6617.93l-88.98 -83.11 3409.37 -1581.79 183.67 177.67 1.72 -2.54c-1.36,34.15 2.08,61.6 12.25,76.92 90.81,136.83 39.47,56.52 130.97,154.46 28.84,30.88 41.87,139.98 7.87,180.23 -47.7,56.49 82.55,51.89 124.8,136.7 4.62,9.27 111.31,71.13 144.19,-46.8 8.97,-32.16 27.74,-44.57 41.09,-97.54l0.72 21.72 66.13 97.8 -75.36 40.15 7.3 204.65 42.64 54 -73.72 46.11 -91.39 -59.2 47.08 -43.02 -4.22 -167.51 -568.69 271.83 11.46 216.37 59.48 44.32 -102.17 51.93 -81.73 -66.32 42.82 -22.97 -5.05 -193.38 -571.05 283.63 8.75 192.24 62.99 63.48 -103.91 63.73 -80.55 -88.24 41.26 -28.01 -8.47 -177.47 -590.2 298.74 7.83 186.11 68.07 81.51 -99.19 48.98 -87.73 -87.9 40.15 -26.93 -8.11 -168.94 -598.5 284.98 14.61 197.38 71.58 67.75 -121.07 58.9 -75.63 -89.25 32.28 -25.9 -10.27 -175.34 -613.77 298.97 21.01 193.25 68.74 80.24 -105.49 48.52 -82.5 -71.92 37.77 -34.64 -30.57 -279.54 -420.47 -478.32 28.69 160.13 49.27 88.26 -106.29 44.47 -88.27 -80.08 41.87 -47.76 -35.08 -291.71z"/></g>
  <g id="3_9" data-items="3_9" data-group="control" class="objs"><path class="fil1" d="M14362.23 4739.97c-50.83,36.4 -157.74,391.27 -108.73,465.11 90.81,136.83 39.47,56.52 130.97,154.46 28.84,30.88 41.87,139.98 7.87,180.23 -47.7,56.49 82.55,51.89 124.8,136.7 4.62,9.27 111.31,71.13 144.19,-46.8 11.04,-39.57 36.91,-49.24 49.27,-141.36 34.63,-258.1 15.21,-385.88 -60.29,-623.6 -53.52,-168.54 -301.31,-158.94 -301.31,-113.71l13.23 -11.03z"/></g>
  <g id="2_9" data-items="2_9" data-group="raskroi" class="objs"><path class="fil1" d="M14109.78 10190l-11.48 -84.53 64.02 -30.51 -6.8 -259.97 726.94 -383.58 46.26 8.13 2.07 -256.91 76.51 -28.5 195.11 105.33 168.55 -96.52 3.13 -176.15 54.21 -25.46 79.47 87.97 19.21 -10.6 -4.43 -77.96 55.99 -34.22 3.12 -61.86 1071.98 -562.68c46.57,-1.13 100.02,7.01 110.22,18.06 12.65,13.71 16.88,45.86 12.54,94.4l119.1 -62.74 2.98 -184.63 62.65 -37.21 128.85 121.23 175.45 -92.31 9.99 -193.96 60.32 -35.4 114.85 126.35 180.44 -95.24 4.94 -200.94 56.08 -32.82 176.55 149.14 4.9 102.43 -163.86 89.56 -1.96 163.03 43.83 79.34 55.14 -18.64 28.21 73.54 1.91 48.02 38.66 37.66 55.51 -12.63 27.43 20.7 10.26 54.56 126.32 122.59 1.8 72.38 -2478.41 1345.41 0.64 7.54 -20.61 0c-5.59,-60.38 -10.29,-110.25 -10.29,-110.25l-24.25 -194.02 -85.99 -94.81 -30.87 -61.74 -81.58 -44.1 -70.55 19.85 -70.56 52.91 11.02 83.79 48.51 77.17 -57.33 66.14 -68.35 103.63 17.64 123.48 41.89 70.55 141.12 -6.61 33.07 138.91 13.23 94.81c0,0 -48.51,46.3 -94.81,57.32 -46.3,11.02 -4.41,26.46 -4.41,26.46l3.01 17.47 -11.98 -10.8 -109.71 160.85 -38.4 -3.87 -14.83 -26.61 -87.58 -26.12 -17.96 13.72 -42.27 -7.21 4.76 -44.73 -16.05 -0.21 5.39 -153.52 -464.37 254.6 -406.09 -448.46z"/></g>
  <g id="3_10" data-items="3_10" data-group="raskroi" class="objs"><path class="fil1" d="M15294.84 9576.33l70.55 -19.85 81.58 44.1 30.87 61.74 85.99 94.81 24.25 194.02c0,0 28.67,304.27 28.67,319.71 0,15.44 33.07,284.43 33.07,284.43l-130.09 99.22 -112.45 -11.02 2.21 -48.51 63.94 -57.33 13.23 -30.87 -110.24 22.05 -59.54 0 -11.02 -63.94c0,0 -41.89,-15.44 4.41,-26.46 46.3,-11.02 94.81,-57.32 94.81,-57.32l-13.23 -94.81 -33.07 -138.91 -141.12 6.61 -41.89 -70.55 -17.64 -123.48 68.35 -103.63 57.33 -66.14 -48.51 -77.17 -11.02 -83.79 70.56 -52.91z"/></g>
  <g data-group="sklad"><path class="fil1" d="M20245 5316.56c15.62,-13 5.64,-73.91 14.66,-94.64 6,-13.81 -76.76,-72.05 -70.26,-85.87 8.94,-18.98 8.81,-34.94 31.49,-47.78 48.68,-27.57 174.01,177.43 207.73,137.31 18.46,-21.97 76.63,-48.44 121.09,-56.28 46.29,-8.16 112.72,143.28 141.29,80.12 11.07,-24.47 22.49,-233.93 28.18,-280.72 1.38,-11.46 -38.77,-42.44 -54.22,-75.03 -7.43,-15.69 13.18,-37.76 19.55,-39.22 22.72,-5.22 130.14,80.85 241.51,165.88 59.64,45.54 124.26,96.09 188.03,146.55 13.47,10.66 54.19,2.71 67.53,13.31 15.82,12.58 16.93,49.59 31.95,62.18 122.48,102.7 218.91,168.86 266.42,206.53l0.72 440.58 28.7 45.85 11.48 51.58 -22.96 275.09 -41.05 36.17c64.23,85.27 60.15,101.97 38.27,194.73l-341.25 113.5c-82.55,-60.81 -102.27,-72.7 -116.87,-171.04l30.58 -344.34 -523.77 284.94 -207.81 424.19 -255.79 -179.48 -598.45 330.8 -224.02 431.57 -269.43 -243.92 67.65 -238.41 47.81 -178.65 -161.75 77.11 -26.01 -10.06 -12.29 233.35 14.21 74 -92.59 -71.21 19.56 -309.49 -321.03 -303.15 0 -11.16c2.4,0.19 4.69,0.29 6.87,0.29 39.55,0 88.41,-41.89 88.41,-41.89l-37.22 -70.56 0 -24.25 72.12 6.62c0,0 20.95,-26.46 32.58,-44.1 11.63,-17.64 9.29,-70.56 -6.99,-74.97 -16.28,-4.41 -55.84,-35.27 -55.84,-35.27 0,0 -5.71,-1.96 -11.74,-6.36l0 -3.37c2.55,-0.01 5.14,-0.88 7.71,-2.9 45.38,-35.65 165.52,-86.84 183.71,-83.1 35.31,7.24 -87.21,-113.06 -71.54,-145.11 5.26,-10.76 23.42,-18.27 40.72,-19.07 29.79,-1.36 100.58,111.5 139.27,108.11 71.4,-6.25 144.18,-65.11 159.57,-87.61l1.15 -1.86 -0.35 17.99 33.08 68.35 125.67 -30.86 -11.02 -70.56 61.74 24.25 50.71 39.69c0,0 48.52,0 66.15,0 17.63,0 70.55,-13.23 70.55,-13.23l-37.48 -63.94 -48.51 -30.87 6.62 -88.19 2.03 -5.41c75.42,-15.4 261.74,-95.15 371.44,-186.71 15.85,-13.23 22.94,-62.43 9.19,-83.62 -28.54,-43.95 -103.38,-66.08 -78.29,-94.71 66.81,-76.23 181.64,119.84 232.19,100.77 6.15,-2.32 318.54,-142.28 318.64,-142.44zm-1893.1 1046.08l-3.84 164.67 20.35 69.78 -113.57 -86.52 14.82 -14.07 10.78 -271.74 -54.06 -65.11 18.83 -71.05 113.23 92.94c0.83,-4.31 1.84,-8.77 2.95,-13.35l3.11 2.92 -15.25 52.04 0 64.53 0 30.28 0 44.68 2.65 0z"/></g>
  <g id="3_11" data-items="3_11" data-group="sklad" class="objs"><path class="fil1" d="M18635.43 5594.76l-18.62 -103.63 23.27 -88.19 11.63 -63.94 -97.71 -30.87 -58.17 15.43 -60.49 50.72 -62.82 149.93 2.32 183 -25.59 119.06 20.94 136.7 2.33 180.8 -23.27 79.38 0 94.81 62.82 50.71c0,0 79.11,33.07 118.66,33.07 39.55,0 88.41,-41.89 88.41,-41.89l-37.22 -70.56 0 -24.25 72.12 6.62c0,0 20.95,-26.46 32.58,-44.1 11.63,-17.64 9.29,-70.56 -6.99,-74.97 -16.28,-4.41 -55.84,-35.27 -55.84,-35.27 0,0 -25.59,-8.82 -25.59,-30.87 0,-22.05 18.61,-112.45 18.61,-112.45l18.62 -57.33 11.63 -66.14c0,0 -6.98,-30.87 6.98,-30.87 13.96,0 74.45,-2.21 54.6,-2.21l50.72 -8.82 -17.64 -77.17 -57.33 -48.5 -39.69 -59.53 -9.27 -28.67z"/></g>
  <g id="3_12" data-items="3_12" data-group="sklad" class="objs"><path class="fil1" d="M19317.03 4968c-29.6,-13.82 -55.12,79.37 -55.12,79.37l-114.65 52.92 -61.74 105.83 -13.23 687.92 33.08 68.35 125.67 -30.86 -11.02 -70.56 61.74 24.25 50.71 39.69c0,0 48.52,0 66.15,0 17.63,0 70.55,-13.23 70.55,-13.23l-37.48 -63.94 -48.51 -30.87 6.62 -88.19 33.07 -88.2 15.43 -92.6 4.41 -30.87 37.49 -24.25 6.61 -50.72 -2.2 -332.93 -37.49 -72.76 -52.91 -66.15 -77.18 -2.2z"/></g>
  <g data-group="svarka"><path class="fil1" d="M15725.56 6598.7l-0.73 4.45 0 72.12c86.45,36.82 43.78,-27.64 87.82,122.59 6.38,21.74 137.61,45.42 75.54,121.64 -15.12,18.56 -91.83,-0.69 -45.93,133.37 12.86,37.56 43.08,-18.37 65.96,70.05 13.96,53.95 195.95,88.74 208.7,-27.03 1.56,-14.11 29.02,-32.24 31.25,-59.53 0.84,-0.53 4.54,-39.92 8.74,-97.39l189.87 191.51 88.36 -51.7 73.24 100.12 -66.55 35.53 178.39 175.49 -99.28 56.78 0.01 215.61 39.14 32.99 -73.66 42.66 -58.52 -51.22 27.23 -18.61 3.38 -198.24 -591.64 315.03 -0.39 203.68 47.4 8.7 -12.2 54.84 -70.06 38.61 -74.5 -71.73 44.1 -30.61 -5.76 -166.74 -576.13 302.06 -28.76 -16.34 -0.53 238 44.44 37.21 -73.22 58.05 -69.08 -80.48 30.96 -14.77 0.51 -279.59 -36.68 -53.95 -220.89 114.11 -254.48 -318.16 -49.61 32.51 -79.4 -74.99 35.59 -46.99 -2.75 -242.4 -153.16 94.99 -70.49 -99.32 -0.77 -7.92 185.63 -81.28 -36.29 -22.83 -122.33 -1.7 -14 -7.9c8.47,-8.7 15.68,-16.52 18.77,-21.71 29.38,-49.44 -22.06,-139.91 -64.06,-172.86 -12.17,-9.55 -50.12,27.33 -53.57,-1.44 -5.45,-45.44 -44.07,-95.1 -45.96,-118.21 -1.34,-16.55 -21.96,-49.79 -63.16,-70.39 -63.88,-31.95 -159.16,-42.61 -168.82,16.19 -15.29,93.14 -58.11,32.68 -79.15,110.81l-0.02 -0.01 -70.52 43.6 -48.68 -94.33 955.73 -459.3 5.18 -67.38 25.61 -16.17 74.57 38.61 277.08 -139.04 3.45 -56.07 35.03 -32.3 39.39 -0.15 92.96 14.52 9.47 81.4 183.96 179.78 64.82 22.47 115.88 -9.3 113.57 0z"/></g>
  <g id="3_13" data-items="3_13" data-group="svarka" class="objs"><path class="fil1" d="M15836.5 6217.24c-25.88,10.36 -59.91,48.65 -58.74,62.85l-52.93 323.06 0 72.12c86.45,36.82 43.78,-27.64 87.82,122.59 6.38,21.74 137.61,45.42 75.54,121.64 -15.12,18.56 -91.83,-0.69 -45.93,133.37 12.86,37.56 43.08,-18.37 65.96,70.05 13.96,53.95 195.95,88.74 208.7,-27.03 1.56,-14.11 29.02,-32.24 31.25,-59.53 3.02,-1.9 42.72,-500.96 9.96,-546.62 -56.28,-78.42 7.18,-202.29 -181.62,-271.58l-2.68 -0.92 -137.33 0zm-19.3 0l8.93 5"/></g>
  <g id="3_14" data-items="3_14" data-group="svarka" class="objs"><path class="fil1" d="M13927.23 6981.56c-20.59,125.42 -91.12,-27.76 -91.12,254.12 0,44.34 -34.32,271.29 58.2,289.25 10.29,1.99 2.1,37.54 10.43,83.77 8.47,47.04 33.32,105.13 23.06,147.26 -6.37,26.18 -33.51,35.32 -44.11,48.09 -69.36,83.55 44.15,147.6 128.66,21.25 11.73,-17.54 18.41,-40.47 34.67,-56.2 27.15,-26.27 -4.07,-329.13 54.78,-231.64 39.83,65.97 2.45,187.63 41.9,306.25 11.42,34.33 -10.21,98.07 19.54,134.81 21.48,26.54 66.54,18.14 79.58,9.07 58.92,-40.98 27.79,-360.9 24.96,-389.88 -7.92,-81.01 -36.4,-130.97 -6.26,-199.94 6.86,-15.71 52.15,-54.15 61.28,-69.5 29.38,-49.44 -22.06,-139.91 -64.06,-172.86 -12.17,-9.55 -50.12,27.33 -53.57,-1.44 -5.45,-45.44 -44.07,-95.1 -45.96,-118.21 -1.34,-16.55 -21.96,-49.79 -63.16,-70.39 -63.88,-31.95 -159.16,-42.61 -168.82,16.19z"/></g>
 </g>
</svg>
