<svg width="33" height="33" viewBox="0 0 33 33" fill="none" xmlns="http://www.w3.org/2000/svg">
<path d="M16.5 0.6875C25.2175 0.6875 32.3125 7.7825 32.3125 16.5C32.3125 25.2175 25.2175 32.3125 16.5 32.3125C7.7825 32.3125 0.6875 25.2175 0.6875 16.5C0.6875 7.7825 7.7825 0.6875 16.5 0.6875ZM16.5 0C7.39062 0 0 7.39062 0 16.5C0 25.6094 7.39062 33 16.5 33C25.6094 33 33 25.6094 33 16.5C33 7.39062 25.6094 0 16.5 0Z" fill="white"/>
<path d="M18.7267 21.2989C18.7679 21.3401 18.8092 21.3814 18.8435 21.4226C19.7923 22.3714 20.7479 23.327 21.6967 24.2758C21.9579 24.5301 22.1298 24.8326 22.1917 25.197C22.3292 25.9945 21.8342 26.7783 21.0573 26.9983C20.8579 27.0533 20.6517 27.0876 20.4523 27.0533C20.1292 26.9914 19.8198 26.8814 19.5792 26.6339C18.6167 25.6714 17.6542 24.7089 16.6917 23.7464C16.6848 23.7395 16.671 23.7258 16.6642 23.712C16.5267 23.5608 16.4717 23.5814 16.3342 23.712C15.3854 24.6676 14.4298 25.6164 13.481 26.5651C13.2679 26.7783 13.0067 26.902 12.7179 26.9914C11.8448 27.2664 10.6829 26.5239 10.7723 25.307C10.7998 24.9358 10.951 24.6058 11.2192 24.3376C11.7967 23.7533 12.381 23.1758 12.9585 22.5914C13.3573 22.1926 13.756 21.7939 14.1548 21.3951C14.1892 21.3608 14.2235 21.3264 14.2648 21.2783C14.1548 21.2508 14.0585 21.2233 13.9623 21.1958C12.9517 20.9345 12.0098 20.522 11.1229 19.972C10.6279 19.6626 10.3735 19.202 10.3598 18.6383C10.346 18.0126 10.6829 17.4283 11.3085 17.1533C11.8379 16.9195 12.3467 16.9676 12.8417 17.2701C13.5223 17.6895 14.251 17.9851 15.0348 18.157C15.3648 18.2258 15.7017 18.2808 16.0454 18.2945C16.2379 18.3014 16.4304 18.322 16.6298 18.3151C17.5648 18.2876 18.4723 18.102 19.3248 17.7101C19.6204 17.5726 19.9023 17.4145 20.1842 17.2495C20.796 16.892 21.5042 16.9608 22.0267 17.3733C22.3498 17.6276 22.5285 17.9714 22.6042 18.377C22.7073 18.9201 22.4254 19.6351 21.841 19.9926C20.8992 20.5633 19.9023 20.9895 18.8298 21.2508C18.8092 21.2576 18.7817 21.2645 18.761 21.2714C18.7542 21.2783 18.7473 21.2851 18.7267 21.2989Z" fill="white"/>
<path d="M16.4939 16.8378C13.4001 16.8309 10.9251 14.2596 11.0557 11.159C11.1795 8.17527 13.7026 5.73464 16.872 5.94089C19.8489 6.13339 22.0901 8.65652 21.9526 11.6403C21.8014 14.624 19.3401 16.8446 16.4939 16.8378ZM18.7557 11.4065C18.7695 10.1965 17.8001 9.16527 16.5695 9.13089C15.2632 9.09652 14.342 10.1346 14.2595 11.1728C14.1426 12.699 15.3595 13.5928 16.3701 13.6409C17.642 13.7028 18.7489 12.699 18.7557 11.4065Z" fill="white"/>
</svg>
