<svg width="33" height="33" viewBox="0 0 33 33" fill="none" xmlns="http://www.w3.org/2000/svg">
<path d="M16.5 33C25.6127 33 33 25.6127 33 16.5C33 7.3873 25.6127 0 16.5 0C7.3873 0 0 7.3873 0 16.5C0 25.6127 7.3873 33 16.5 33Z" fill="#F9962D"/>
<path d="M18.7267 21.2999C18.7679 21.3411 18.8092 21.3824 18.8435 21.4236C19.7923 22.3724 20.7479 23.328 21.6967 24.2767C21.9579 24.5311 22.1298 24.8336 22.1917 25.198C22.3292 25.9955 21.8342 26.7792 21.0573 26.9992C20.8579 27.0542 20.6517 27.0886 20.4523 27.0542C20.1292 26.9924 19.8198 26.8824 19.5792 26.6349C18.6167 25.6724 17.6542 24.7099 16.6917 23.7474C16.6848 23.7405 16.671 23.7267 16.6642 23.713C16.5267 23.5617 16.4717 23.5824 16.3342 23.713C15.3854 24.6686 14.4298 25.6174 13.481 26.5661C13.2679 26.7792 13.0067 26.903 12.7179 26.9924C11.8448 27.2674 10.6829 26.5249 10.7723 25.308C10.7998 24.9367 10.951 24.6067 11.2192 24.3386C11.7967 23.7542 12.381 23.1767 12.9585 22.5924C13.3573 22.1936 13.756 21.7949 14.1548 21.3961C14.1892 21.3617 14.2235 21.3274 14.2648 21.2792C14.1548 21.2517 14.0585 21.2242 13.9623 21.1967C12.9517 20.9355 12.0098 20.523 11.1229 19.973C10.6279 19.6636 10.3735 19.203 10.3598 18.6392C10.346 18.0136 10.6829 17.4292 11.3085 17.1542C11.8379 16.9205 12.3467 16.9686 12.8417 17.2711C13.5223 17.6905 14.251 17.9861 15.0348 18.158C15.3648 18.2267 15.7017 18.2817 16.0454 18.2955C16.2379 18.3024 16.4304 18.323 16.6298 18.3161C17.5648 18.2886 18.4723 18.103 19.3248 17.7111C19.6204 17.5736 19.9023 17.4155 20.1842 17.2505C20.796 16.893 21.5042 16.9617 22.0267 17.3742C22.3498 17.6286 22.5285 17.9724 22.6042 18.378C22.7073 18.9211 22.4254 19.6361 21.841 19.9936C20.8992 20.5642 19.9023 20.9905 18.8298 21.2517C18.8092 21.2586 18.7817 21.2655 18.761 21.2724C18.7542 21.2792 18.7473 21.2861 18.7267 21.2999Z" fill="white"/>
<path d="M16.4938 16.8378C13.4001 16.8309 10.9251 14.2596 11.0557 11.159C11.1795 8.17527 13.7026 5.73464 16.872 5.94089C19.8488 6.13339 22.0901 8.65652 21.9526 11.6403C21.8013 14.624 19.3401 16.8446 16.4938 16.8378ZM18.7557 11.4065C18.7695 10.1965 17.8001 9.16527 16.5695 9.13089C15.2632 9.09652 14.342 10.1346 14.2595 11.1728C14.1426 12.699 15.3595 13.5928 16.3701 13.6409C17.642 13.7028 18.7488 12.699 18.7557 11.4065Z" fill="white"/>
</svg>
