<svg width="63" height="35" viewBox="0 0 63 35" fill="none" xmlns="http://www.w3.org/2000/svg">
<path d="M50.4806 10.6241H51.3286L51.5406 11.6325L51.6881 12.32L51.9093 13.3559L52.3425 15.4093L52.6282 16.7661L53.043 18.7462L53.4117 20.4788L53.7067 21.8722L54.2413 24.4206H52.3425C52.3425 24.4114 52.3425 24.4114 52.3425 24.4023L52.2596 24.0264L52.1674 23.5589C52.1305 23.3756 52.0936 23.1922 52.0568 23.018C51.9277 22.3947 51.5498 22.0922 50.9046 22.0922H49.9184H48.8768H48.0473H47.9643H47.4574H46.9504H46.1209C45.8812 22.0922 45.2544 22.0922 45.0056 22.8439L44.9871 22.8897C44.8028 23.3939 44.6184 23.8981 44.4249 24.4206H42.7197H42.1759C42.5446 23.5314 42.9225 22.6422 43.3004 21.7622L43.8258 20.5246C44.0193 20.0846 44.2037 19.6354 44.388 19.1954C44.5816 18.737 44.7751 18.2695 44.9687 17.8111L45.448 16.6561L46.1116 15.0977L46.7384 13.6218C47.0702 12.8426 47.3928 12.0542 47.7247 11.275C47.8906 10.8716 48.1302 10.7433 48.3146 10.6883C48.3975 10.6608 48.4897 10.6425 48.545 10.6425C49.1718 10.6241 49.8262 10.6241 50.4806 10.6241ZM47.1255 20.7079H48.0012H49.0427H50.1119H50.4161C50.6926 20.7079 50.9599 20.5796 51.135 20.3688C51.3102 20.1579 51.3747 19.8737 51.3194 19.6079L51.135 18.7095L50.1211 13.8601C50.0474 13.5026 49.7617 13.2184 49.4022 13.1451C49.3377 13.1359 49.2824 13.1267 49.2179 13.1267C48.9229 13.1267 48.6372 13.2734 48.462 13.5209C48.3146 13.7318 46.2407 19.2595 46.213 19.7362C46.1946 19.9929 46.2868 20.2404 46.4619 20.4238C46.6278 20.5979 46.8675 20.7079 47.1255 20.7079ZM50.4806 9.70741C49.817 9.70741 49.1625 9.70741 48.4989 9.71657C48.3238 9.71657 48.1487 9.75324 47.9827 9.80825C47.4205 9.99159 47.0518 10.3858 46.8306 10.9175C46.508 11.6967 46.1762 12.485 45.8443 13.2642C45.4203 14.2818 44.9871 15.2902 44.5631 16.2986C44.2037 17.1419 43.8534 17.9853 43.5031 18.8287C43.1437 19.6904 42.775 20.5429 42.4063 21.4046C41.9362 22.5047 41.4754 23.6139 41.0145 24.714C40.9315 24.9065 40.8578 25.0898 40.7656 25.319C40.867 25.3282 40.9315 25.3373 40.9868 25.3373C42.268 25.3373 43.5492 25.3373 44.8304 25.3373C45.0332 25.3373 45.0424 25.3098 45.0977 25.154C45.3282 24.5031 45.5678 23.8522 45.8075 23.1922C45.8812 22.9905 45.8351 22.9997 46.0748 22.9997C46.3513 22.9997 46.6278 22.9997 46.9043 22.9997C47.2454 22.9997 47.5864 22.9997 47.9274 22.9997C47.9551 22.9997 47.9827 22.9997 48.0104 22.9997C48.6372 22.9997 49.2547 22.9997 49.8815 22.9997C50.2133 22.9997 50.5359 22.9997 50.8677 22.9997C51.0705 22.9997 51.0797 22.9997 51.1166 23.2014C51.1904 23.5406 51.2549 23.8706 51.3194 24.2098C51.3839 24.5306 51.4669 24.8515 51.5222 25.1723C51.5406 25.2823 51.6051 25.3373 51.7065 25.3373C51.7157 25.3373 51.7249 25.3373 51.7342 25.3373C51.7434 25.3373 51.7526 25.3373 51.7618 25.3373C51.7803 25.3373 51.7987 25.3373 51.8263 25.3373C52.9048 25.3373 53.974 25.3373 55.0524 25.3373C55.0708 25.3373 55.0893 25.3373 55.1077 25.3373C55.1353 25.3373 55.163 25.3373 55.1906 25.3373C55.2828 25.3373 55.3381 25.3007 55.3105 25.1906C55.3012 25.154 55.3012 25.1173 55.292 25.0806C55.0524 23.9439 54.8127 22.8164 54.5823 21.6796C54.3611 20.6346 54.1399 19.5895 53.9187 18.5445C53.6882 17.4353 53.4578 16.3169 53.2181 15.2077C53.0062 14.181 52.7849 13.1451 52.5729 12.1184C52.4162 11.3758 52.2596 10.6425 52.1121 9.89992C52.0752 9.70741 52.066 9.69824 51.8724 9.69824C51.4208 9.70741 50.9507 9.70741 50.4806 9.70741ZM47.1255 19.7912C47.1348 19.5895 49.0888 14.2176 49.2086 14.0434C49.6142 15.9594 50.0105 17.8478 50.4161 19.7912C50.3147 19.7912 50.2133 19.7912 50.1119 19.7912C49.393 19.7912 48.6925 19.7912 47.992 19.7912C47.7062 19.7912 47.4113 19.7912 47.1255 19.7912Z" fill="white"/>
<path d="M9.38448 10.6228C10.2509 10.6228 11.1081 10.6228 11.9745 10.6228C12.0943 10.6228 12.2234 10.6228 12.3248 10.6503C12.7119 10.7328 12.9331 10.9436 13.0437 11.3561C13.1267 11.6403 13.1728 11.9428 13.2373 12.2637C13.2649 12.4012 13.2834 12.5387 13.311 12.6762L13.3755 13.0245C13.5507 13.9138 13.7166 14.8121 13.8917 15.7013C14.0392 16.4714 14.1775 17.2414 14.3249 18.0115L14.5646 19.2948C14.6291 19.634 14.6936 19.9732 14.7581 20.3124C14.7858 20.4499 14.8319 20.5507 14.8595 20.6057C15.007 20.9449 15.3388 21.1558 15.7075 21.1558C15.7167 21.1558 15.7167 21.1558 15.726 21.1558C16.0946 21.1466 16.4357 20.9174 16.5647 20.5782L16.7306 20.1657L17.0901 19.2673L17.5049 18.2131L18.5833 15.518L19.2654 13.8038L19.8184 12.4104L20.5374 10.6136H21.5789H22.8232C22.2149 12.0528 21.6158 13.4829 21.0074 14.9221L20.1871 16.8656L18.9889 19.689C18.6017 20.6149 18.2054 21.5408 17.8183 22.4667L17.1823 23.9792L17.0532 24.2726C17.0348 24.3184 17.0164 24.3643 16.9979 24.4101H16.8781H16.4633H14.3341H14.0115L13.4585 22.2833L12.7856 19.7074L11.8455 16.1047L11.6796 15.463C11.4215 14.4729 11.1634 13.4829 10.9053 12.502C10.8592 12.337 10.8039 12.172 10.721 11.9612C10.5458 11.5028 10.2325 11.1178 9.7716 10.8336C9.64256 10.7603 9.51352 10.6869 9.38448 10.6228ZM5.31966 9.70605C5.15375 9.70605 5.17219 9.74272 5.09845 10.0544C5.08001 10.1461 5.11688 10.1827 5.19062 10.2102C5.22749 10.2194 5.26436 10.2286 5.30123 10.2377C6.11235 10.4303 6.92347 10.6411 7.70693 10.9253C8.25075 11.1178 8.78535 11.3286 9.27387 11.6311C9.53195 11.7962 9.74395 12.007 9.84534 12.2912C9.90064 12.4379 9.95595 12.5937 10.002 12.7495C10.3154 13.9504 10.6288 15.1513 10.9422 16.3614C11.4768 18.424 12.0114 20.4774 12.546 22.54C12.7764 23.4109 12.9976 24.2817 13.2281 25.1526C13.2834 25.3543 13.2834 25.3543 13.4954 25.3543C13.5138 25.3543 13.5322 25.3543 13.5415 25.3543C13.5599 25.3543 13.5875 25.3543 13.606 25.3543C14.5554 25.3543 15.4955 25.3543 16.4449 25.3543C16.7214 25.3543 16.9979 25.3543 17.2745 25.3543C17.3113 25.3543 17.3482 25.3543 17.3851 25.3543C17.4035 25.3543 17.4219 25.3543 17.4404 25.3543C17.4496 25.3543 17.4496 25.3543 17.4588 25.3543C17.5602 25.3543 17.6247 25.2993 17.6616 25.1985C17.7722 24.9143 17.9012 24.6393 18.0211 24.3551C18.6202 22.925 19.2193 21.495 19.8184 20.0649C20.4913 18.479 21.1641 16.8839 21.837 15.298C22.602 13.5012 23.3578 11.6953 24.1137 9.89856C24.1321 9.85273 24.1413 9.80689 24.1505 9.74272C24.0768 9.73356 24.0307 9.72439 23.9754 9.72439C23.1643 9.72439 22.3624 9.72439 21.5513 9.72439C21.0627 9.72439 20.565 9.72439 20.0765 9.72439C19.8829 9.72439 19.8829 9.72439 19.8092 9.90773C19.5142 10.6411 19.2285 11.3653 18.9336 12.0987C18.5188 13.1346 18.1132 14.1704 17.6984 15.2063C17.2007 16.453 16.703 17.6998 16.2052 18.9557C16.0301 19.3865 15.8642 19.8174 15.6799 20.2666C15.6614 20.2116 15.643 20.1841 15.6338 20.1566C15.5693 19.8174 15.5047 19.4874 15.4402 19.1482C15.219 17.9473 14.9978 16.7464 14.7674 15.5547C14.5738 14.5463 14.3802 13.5379 14.1867 12.5204C14.0945 12.0528 14.03 11.5853 13.9009 11.1361C13.6982 10.4211 13.2373 9.9444 12.4907 9.77939C12.3156 9.74272 12.122 9.73355 11.9469 9.73355C10.6472 9.73355 9.34761 9.73355 8.03875 9.73355C7.18155 9.73355 6.32434 9.73355 5.46714 9.73355C5.42105 9.70605 5.36575 9.70605 5.31966 9.70605Z" fill="white"/>
<path d="M37.927 10.3396C38.1943 10.3396 38.4524 10.3579 38.7197 10.3671C39.199 10.3946 39.6414 10.4679 40.047 10.5779C40.259 10.6329 40.471 10.6971 40.6738 10.7521C40.5724 11.2104 40.471 11.6688 40.3788 12.1271L40.3604 12.2005C39.7059 11.9988 39.0239 11.8613 38.351 11.8063C38.1482 11.788 37.9454 11.7788 37.7427 11.7788C37.2541 11.7788 36.8025 11.8338 36.3509 11.9346C35.807 12.063 35.3462 12.3105 34.9867 12.6772C34.5904 13.0714 34.3784 13.5664 34.3876 14.0706C34.3968 14.4281 34.5166 14.9506 35.0512 15.4548C35.3646 15.7482 35.7333 16.0048 36.2126 16.2615L36.3601 16.344C36.8486 16.6099 37.3371 16.8665 37.8256 17.1324C38.4432 17.4716 38.9317 17.8383 39.3188 18.2508C39.8258 18.7916 40.0746 19.4058 40.0838 20.1209C40.0931 20.8634 39.9456 21.5143 39.6322 22.101C39.3649 22.596 38.9962 23.0177 38.5169 23.3752C37.798 23.9069 36.9223 24.2736 35.8255 24.4844C35.2263 24.5944 34.618 24.6586 34.0005 24.6586C33.853 24.6586 33.6963 24.6586 33.5488 24.6494C32.4427 24.6036 31.4381 24.4386 30.4702 24.1544L30.6822 23.1735L30.8113 22.5868C31.521 22.8618 32.2031 23.036 32.8759 23.1185C33.2446 23.1643 33.6871 23.201 34.1571 23.201C34.701 23.201 35.1987 23.1368 35.6503 23.0085C36.231 22.8527 36.6827 22.6051 37.0329 22.2476C37.4569 21.8351 37.6874 21.2668 37.6689 20.7076C37.6505 20.13 37.3832 19.58 36.9131 19.1583C36.4246 18.7275 35.89 18.4341 35.4199 18.1958L35.254 18.1133C34.701 17.8383 34.1848 17.5816 33.7147 17.2607C33.0787 16.8207 32.6639 16.4174 32.3782 15.9498C32.0648 15.4365 31.945 14.8773 32.0187 14.2264C32.0648 13.7956 32.1754 13.4105 32.3413 13.053C32.6455 12.4113 33.1248 11.8796 33.7885 11.4396C34.4798 10.9721 35.3001 10.6604 36.2955 10.4771C36.6735 10.4037 37.0975 10.3671 37.6505 10.3396C37.7427 10.3396 37.8348 10.3396 37.927 10.3396ZM37.927 9.42285C37.8164 9.42285 37.715 9.42285 37.6044 9.43202C37.1067 9.45035 36.6089 9.49619 36.1204 9.58786C35.0973 9.78037 34.1387 10.1104 33.2723 10.6879C32.5073 11.2013 31.9081 11.843 31.5118 12.668C31.2906 13.1355 31.1615 13.6214 31.1062 14.1347C31.0141 14.9598 31.1615 15.7298 31.5947 16.4357C32.0003 17.0957 32.5626 17.5907 33.1985 18.0216C33.77 18.4158 34.3876 18.7091 35.0051 19.0208C35.466 19.25 35.9084 19.5067 36.2955 19.8459C36.9039 20.3867 36.8486 21.1384 36.3785 21.6059C36.102 21.8809 35.7609 22.0276 35.3923 22.1285C34.9775 22.2385 34.5627 22.2843 34.1387 22.2843C33.7516 22.2843 33.3552 22.2476 32.9681 22.2018C32.0556 22.0918 31.1892 21.7893 30.3688 21.3951C30.3043 21.3584 30.2306 21.3309 30.1476 21.3034C30.1292 21.3584 30.1108 21.3859 30.1016 21.4226C30.0555 21.6334 30.0094 21.8443 29.9725 22.046C29.7882 22.8893 29.613 23.7327 29.4287 24.5761C29.3918 24.7319 29.401 24.7411 29.5393 24.8053C29.7236 24.8786 29.908 24.9611 30.1016 25.0161C31.2076 25.3461 32.3413 25.5203 33.4935 25.5753C33.6594 25.5845 33.8253 25.5845 33.9912 25.5845C34.6641 25.5845 35.3277 25.5203 35.9914 25.3919C37.1067 25.1811 38.1482 24.8053 39.0607 24.1177C39.6322 23.6869 40.1023 23.1643 40.4341 22.541C40.8397 21.7801 41.0056 20.9734 40.9964 20.1209C40.9779 19.1583 40.6369 18.3424 39.9825 17.6366C39.4847 17.1049 38.8948 16.6924 38.268 16.344C37.7334 16.0507 37.1896 15.7573 36.6458 15.4731C36.2956 15.2898 35.9729 15.079 35.6872 14.8131C35.1618 14.3181 35.2356 13.7589 35.6411 13.3464C35.89 13.0897 36.2126 12.9339 36.5629 12.8514C36.95 12.7597 37.3463 12.723 37.7427 12.723C37.9178 12.723 38.1021 12.7322 38.2773 12.7413C39.0239 12.8055 39.7428 12.9614 40.4433 13.218C40.6277 13.2822 40.812 13.3647 41.0056 13.438C41.0332 13.4014 41.0517 13.383 41.0517 13.3647C41.2729 12.3288 41.4941 11.2929 41.7245 10.2571C41.743 10.1562 41.7153 10.1196 41.6323 10.092C41.1807 9.96371 40.7383 9.82621 40.2866 9.70703C39.7889 9.56953 39.2819 9.49619 38.7658 9.46869C38.4893 9.43202 38.2127 9.42285 37.927 9.42285Z" fill="white"/>
<path d="M26.6472 10.6228H28.5183H28.8501L28.4169 12.612L27.9652 14.7113L27.7717 15.6097L26.8131 20.0741L26.2508 22.7142L25.8913 24.4101H25.5687H23.9834H23.6792C23.8082 23.8051 23.9373 23.2092 24.0663 22.6042L24.4258 20.9174C24.5548 20.3216 24.6839 19.7257 24.8129 19.1298C24.9512 18.5156 25.0802 17.8923 25.2185 17.2781C25.3475 16.6731 25.4766 16.068 25.6056 15.463C25.7162 14.9313 25.8268 14.4088 25.9466 13.8771C26.0757 13.2721 26.2139 12.6579 26.343 12.0528L26.6011 10.8886C26.6103 10.8061 26.6287 10.7144 26.6472 10.6228ZM26.0388 9.70605C25.9374 9.70605 25.8821 9.75189 25.8637 9.86189C25.8084 10.1461 25.7439 10.4303 25.6886 10.7144C25.4766 11.7136 25.2553 12.7129 25.0341 13.7121C24.7945 14.8488 24.5548 15.9764 24.306 17.1131C24.0479 18.3231 23.7714 19.5424 23.5133 20.7524C23.1999 22.2008 22.8957 23.6401 22.5823 25.0885C22.527 25.3176 22.5547 25.3543 22.6653 25.3543C22.7022 25.3543 22.7482 25.3543 22.8036 25.3543C23.1907 25.3543 23.587 25.3543 23.9741 25.3543C24.7668 25.3543 25.5595 25.3543 26.3522 25.3543C26.3983 25.3543 26.4444 25.3543 26.4905 25.3543C26.5826 25.3543 26.6287 25.3176 26.6472 25.226C26.6656 25.1068 26.7025 24.9876 26.7301 24.8684C27.0527 23.3375 27.3845 21.8158 27.7071 20.2849C28.0943 18.4973 28.4722 16.7097 28.8593 14.9221C29.2003 13.3271 29.5506 11.732 29.8916 10.1369C29.9193 10.0086 29.9377 9.8894 29.9746 9.72439C29.8916 9.72439 29.8363 9.72439 29.781 9.72439C29.7534 9.72439 29.7257 9.72439 29.7073 9.72439C28.6473 9.72439 27.5873 9.72439 26.5273 9.72439C26.4259 9.72439 26.3338 9.72439 26.2324 9.72439C26.1679 9.72439 26.1033 9.72439 26.0388 9.72439C26.048 9.70606 26.0388 9.70605 26.0388 9.70605Z" fill="white"/>
<path d="M58.5481 0.91671C60.4837 0.91671 62.0691 2.48428 62.0691 4.41854V30.5815C62.0691 32.5065 60.4929 34.0833 58.5481 34.0833H4.44272C2.5071 34.0833 0.921726 32.5157 0.921726 30.5815V4.41854C0.921726 2.49345 2.49788 0.91671 4.44272 0.91671H58.5481ZM58.5481 0H4.44272C1.99093 0 0 1.98009 0 4.41854V30.5815C0 33.0199 1.99093 35 4.44272 35H58.5573C61.0091 35 63 33.0199 63 30.5815V4.41854C62.9908 1.98009 60.9999 0 58.5481 0Z" fill="white"/>
</svg>
