<svg width="63" height="35" viewBox="0 0 63 35" fill="none" xmlns="http://www.w3.org/2000/svg">
<path d="M58.5566 0.91671C60.5018 0.91671 62.0781 2.48428 62.0781 4.41854V30.5815C62.0781 32.5157 60.5018 34.0833 58.5566 34.0833H4.43415C2.49824 34.0833 0.921861 32.5157 0.921861 30.5815V4.41854C0.921861 2.48428 2.49824 0.91671 4.43415 0.91671H58.5566ZM58.5566 0H4.43415C1.982 0 0 1.98009 0 4.41854V30.5815C0 33.0199 1.982 35 4.43415 35H58.5566C61.0088 35 63 33.0199 63 30.5815V4.41854C63 1.98009 61.0088 0 58.5566 0Z" fill="white"/>
<path d="M8.42719 10.7638C9.5703 10.7638 10.7042 10.7546 11.8473 10.7546C12.216 10.7546 12.5848 10.7729 12.9535 10.7546C13.7371 10.6996 14.5852 11.2771 14.8526 12.1205C15.0277 12.6797 15.2029 13.2389 15.378 13.7981C15.59 14.5039 15.8113 15.2006 16.0233 15.9065C16.2814 16.7407 16.5304 17.5749 16.7885 18.4091C16.8346 18.5466 16.8438 18.7025 16.9821 18.8033C17.1111 18.7941 17.148 18.7116 17.1757 18.6108C17.4799 17.6116 17.7841 16.6215 18.0883 15.6223C18.3464 14.7698 18.6138 13.9172 18.8811 13.0647C18.9917 12.7255 19.1023 12.3863 19.2037 12.0472C19.425 11.323 20.31 10.7454 21.0106 10.7546C22.4395 10.7821 23.8684 10.7638 25.2973 10.7638C25.3987 10.7638 25.4908 10.7638 25.6199 10.7638C25.6291 10.8738 25.6476 10.9654 25.6476 11.0479C25.6476 15.3198 25.6476 19.6009 25.6476 23.8727C25.6476 23.9277 25.6476 23.9919 25.6383 24.0469C25.6291 24.1386 25.5738 24.1936 25.4816 24.1936C25.4355 24.1936 25.3802 24.1936 25.3341 24.1936C24.1265 24.1936 22.9188 24.1936 21.702 24.1936C21.6375 24.1936 21.5637 24.1844 21.4623 24.1752C21.4531 24.0561 21.4439 23.9461 21.4439 23.8269C21.4439 21.4434 21.4439 19.0508 21.4439 16.6674C21.4439 16.5849 21.4439 16.5115 21.4439 16.429C21.4347 16.2365 21.3609 16.154 21.2134 16.1357C21.0659 16.1173 20.9829 16.1815 20.9184 16.374C20.8447 16.6215 20.7617 16.8691 20.6879 17.1166C20.4114 18.0241 20.1256 18.9408 19.8491 19.8484C19.4342 21.1959 19.0286 22.5435 18.6138 23.8911C18.5216 24.1936 18.5216 24.1936 18.1989 24.1936C17.3969 24.1936 16.5949 24.1936 15.8021 24.1936C15.7099 24.1936 15.6269 24.1844 15.5255 24.1844C15.4886 24.0927 15.4518 24.0194 15.4241 23.9369C15.0001 22.571 14.5852 21.2051 14.1612 19.8392C13.9584 19.1883 13.7555 18.5283 13.5527 17.8774C13.4052 17.4007 13.2577 16.9332 13.1102 16.4565C13.0918 16.3924 13.0642 16.3282 13.0365 16.264C12.9904 16.1724 12.9167 16.1449 12.8152 16.1449C12.7138 16.1449 12.6401 16.1999 12.6124 16.2915C12.5848 16.3924 12.5756 16.5024 12.5663 16.6124C12.5663 17.5749 12.5663 18.5375 12.5663 19.5092C12.5663 20.9484 12.5663 22.3876 12.5663 23.8361C12.5663 23.9461 12.5663 24.0561 12.5663 24.1752C12.4926 24.1936 12.4373 24.2119 12.3728 24.2119C11.0545 24.2119 9.73623 24.2119 8.41797 24.2119C8.42719 19.7109 8.42719 15.2373 8.42719 10.7638Z" fill="white"/>
<path d="M56.4191 15.8305C56.3914 15.9314 56.3638 16.0322 56.3177 16.1605C56.2624 16.1697 56.1886 16.188 56.1057 16.188C53.6535 16.188 51.2106 16.2064 48.7584 16.1789C47.8826 16.1697 47.0253 15.9405 46.2141 15.6014C45.3107 15.2163 44.5179 14.6663 43.8633 13.9421C43.1535 13.1446 42.6926 12.2187 42.5082 11.1645C42.4898 11.0545 42.5082 10.9261 42.5082 10.7703C42.628 10.7611 42.7479 10.752 42.8585 10.752C45.0986 10.752 47.3387 10.752 49.5789 10.752C50.3625 10.752 51.1368 10.752 51.9204 10.752C52.9713 10.7611 53.8932 11.1003 54.7044 11.7512C55.6447 12.512 56.2163 13.4746 56.373 14.6755C56.373 14.703 56.4006 14.7213 56.4191 14.7488C56.4191 15.1155 56.4191 15.473 56.4191 15.8305Z" fill="white"/>
<path d="M40.9857 10.7817C40.9857 15.2552 40.9857 19.7013 40.9857 24.129C40.9673 24.1473 40.9581 24.1565 40.9489 24.1656C40.9396 24.1748 40.9304 24.184 40.9212 24.184C39.649 24.1931 38.3861 24.1931 37.1139 24.2023C37.0217 24.2023 36.9388 24.2023 36.865 24.2023C36.7544 24.0831 36.7913 23.9548 36.7913 23.8448C36.7913 21.5347 36.7913 19.2337 36.7913 16.9236C36.7913 16.7128 36.7913 16.5019 36.7913 16.3003C36.7913 16.1719 36.7821 16.0619 36.6346 16.0161C36.5239 15.9794 36.4225 16.0344 36.3396 16.2086C36.0722 16.7494 35.8141 17.2995 35.556 17.8495C35.3624 18.2529 35.1872 18.6654 34.9936 19.0687C34.4866 20.1504 33.9704 21.223 33.4634 22.3047C33.2974 22.6439 33.1499 22.9922 32.9748 23.3314C32.6798 23.8998 32.2004 24.2115 31.5551 24.2115C30.2921 24.2206 29.0384 24.2115 27.7755 24.2115C27.6925 24.2115 27.6187 24.2023 27.5542 24.2023C27.5358 24.184 27.5266 24.1748 27.5173 24.1656C27.5081 24.1565 27.4989 24.1473 27.4989 24.1381C27.4897 24.0923 27.4805 24.0373 27.4805 23.9915C27.4805 19.6279 27.4805 15.2644 27.4805 10.9008C27.4805 10.8733 27.4989 10.8458 27.4989 10.8183C27.7109 10.7633 31.2509 10.745 31.6565 10.8C31.6657 10.91 31.6749 11.02 31.6749 11.1392C31.6749 13.5318 31.6749 15.9336 31.6749 18.3262C31.6749 18.4087 31.6749 18.482 31.6749 18.5645C31.6749 18.6837 31.7303 18.7754 31.8501 18.812C31.9607 18.8487 32.0713 18.8029 32.1451 18.6654C32.2373 18.4912 32.3295 18.3079 32.4124 18.1337C32.7812 17.3453 33.1499 16.5478 33.5279 15.7594C34.1547 14.421 34.7908 13.0826 35.4177 11.7442C35.6205 11.3042 35.9524 11.0108 36.4041 10.8458C36.5147 10.8092 36.6346 10.7817 36.7544 10.7725C38.0819 10.7633 39.4094 10.7725 40.7461 10.7725C40.829 10.7542 40.8936 10.7725 40.9857 10.7817Z" fill="white"/>
<path d="M56.1426 16.8863C56.0043 17.363 55.7462 17.7663 55.442 18.1513C54.8428 18.9214 54.05 19.4164 53.1189 19.7097C52.7225 19.8289 52.3077 19.9023 51.8836 19.9023C50.4455 19.9023 49.0074 19.9023 47.5693 19.9023C47.4587 19.9023 47.3481 19.9023 47.2006 19.9023C47.1913 20.0214 47.1821 20.1223 47.1821 20.2323C47.1821 21.4515 47.1821 22.6799 47.1821 23.8991C47.1821 24.0091 47.1821 24.11 47.1821 24.2108C46.9148 24.275 43.338 24.2841 43.043 24.22C43.043 21.7815 43.043 19.3431 43.043 16.9138C43.0614 16.8954 43.0614 16.8863 43.0706 16.8863C43.0798 16.8771 43.0891 16.8679 43.0983 16.8679C44.2967 16.8588 45.4951 16.8496 46.6935 16.8496C49.8187 16.8496 52.953 16.8496 56.0781 16.8588C56.1057 16.8496 56.1242 16.8679 56.1426 16.8863Z" fill="white"/>
</svg>
