<svg width="63" height="35" viewBox="0 0 63 35" fill="none" xmlns="http://www.w3.org/2000/svg">
<path d="M58.5566 0.91671C60.5018 0.91671 62.0781 2.48428 62.0781 4.41854V30.5815C62.0781 32.5157 60.5018 34.0833 58.5566 34.0833H4.43415C2.49824 34.0833 0.921861 32.5157 0.921861 30.5815V4.41854C0.921861 2.48428 2.49824 0.91671 4.43415 0.91671H58.5566ZM58.5566 0H4.43415C1.982 0 0 1.98009 0 4.41854V30.5815C0 33.0199 1.982 35 4.43415 35H58.5566C61.0088 35 63 33.0199 63 30.5815V4.41854C63 1.98009 61.0088 0 58.5566 0Z" fill="white"/>
<path d="M30.5136 0H4.43415C1.982 0 0 1.98009 0 4.41854V30.5815C0 33.0199 1.982 35 4.43415 35H30.5136V0ZM20.6589 25.0904C20.4561 25.2279 20.2441 25.2737 19.9583 25.3104C19.903 25.0904 19.8477 24.8612 19.7463 24.6412C19.5527 24.2287 19.0733 23.1194 18.0685 22.9269C17.9763 22.9086 18.1791 22.6794 18.2713 22.6886C18.3635 22.6977 18.5386 22.8169 18.6216 22.8719C18.6216 22.8719 18.6216 22.6336 18.6216 22.5969C18.6216 22.5511 18.6585 22.5419 18.6953 22.5419C18.7322 22.5419 18.9811 22.5419 19.0549 22.6244C19.2853 22.8903 19.6725 23.6053 19.8846 24.1278C20.1058 24.6595 20.2533 24.8245 20.4838 24.742C20.7142 24.6595 20.8525 24.3937 21.2581 24.4762C21.3964 24.5037 21.5531 24.5953 21.673 24.7328C21.6361 24.797 21.59 24.8795 21.4056 24.8795C21.212 24.8795 20.8525 24.9529 20.6589 25.0904ZM20.6313 25.4937C20.4838 25.5671 20.198 25.6221 20.1427 25.5487C20.0874 25.4662 20.1611 25.3379 20.4838 25.2554C20.5299 25.2462 20.7234 25.1912 20.7695 25.2554C20.8156 25.3379 20.7788 25.4204 20.6313 25.4937ZM15.8099 25.1912L15.9574 25.4204L16.4921 26.2271L16.2893 26.5113C16.1141 26.2454 15.9298 25.9704 15.8376 25.8329C15.773 25.9612 15.6348 26.1996 15.4781 26.4746L15.2845 26.1354L15.8099 25.1912ZM15.2199 25.2554C15.0724 25.1454 14.9249 24.8887 14.842 24.7145C14.9249 24.7512 15.0632 24.8062 15.2107 24.8062H15.2199C15.3674 24.8062 15.5149 24.7512 15.5887 24.7145C15.5149 24.8887 15.3674 25.1545 15.2199 25.2554ZM15.6901 24.522C15.6901 24.522 15.4227 24.6778 15.2199 24.6778H15.2107C15.0079 24.6778 14.7406 24.522 14.7406 24.522C14.3626 24.8704 13.6804 25.0354 13.6804 25.0354C13.9201 24.8154 14.3626 24.3662 14.547 24.2012C14.7313 24.0361 15.1462 23.4403 15.2107 23.2569C15.2752 23.4403 15.6901 24.0361 15.8745 24.2012C16.0588 24.3662 16.5013 24.8154 16.741 25.0354C16.7502 25.0354 16.0773 24.8612 15.6901 24.522ZM9.78095 25.0904C9.57814 24.9529 9.21861 24.8704 9.03424 24.8704C8.84987 24.8704 8.80378 24.7878 8.7669 24.7237C8.88674 24.5862 9.04346 24.4945 9.18174 24.467C9.58736 24.3845 9.72564 24.6503 9.9561 24.7328C10.1866 24.8153 10.3341 24.6503 10.5553 24.1187C10.7766 23.587 11.1637 22.8811 11.385 22.6152C11.4587 22.5236 11.7076 22.5327 11.7445 22.5327C11.7814 22.5327 11.8183 22.5419 11.8275 22.5877C11.8275 22.6336 11.8275 22.8628 11.8275 22.8628C11.9104 22.8078 12.0856 22.6886 12.1778 22.6794C12.27 22.6702 12.4728 22.8994 12.3714 22.9178C11.3666 23.1103 10.8872 24.2195 10.6936 24.632C10.5922 24.8428 10.5369 25.0812 10.4816 25.3012C10.1958 25.2829 9.98376 25.237 9.78095 25.0904ZM10.3064 25.5487C10.2511 25.6221 9.96532 25.5671 9.81782 25.4937C9.67033 25.4204 9.62423 25.3379 9.67954 25.2554C9.71642 25.1912 9.91923 25.237 9.96532 25.2554C10.2788 25.3379 10.3617 25.4662 10.3064 25.5487ZM8.90518 14.2548C8.97893 14.5574 9.12643 14.759 9.27392 14.8874C9.20018 14.9057 9.13565 14.924 9.08033 14.9424C8.85909 15.0157 8.6655 15.0524 8.13082 14.9149C7.56848 14.7682 7.48552 14.3282 7.48552 14.3282C7.73442 14.1632 8.05707 14.1632 8.223 14.2273C8.37972 14.2915 8.74846 14.2915 8.90518 14.2548ZM7.78051 13.769C7.4763 13.4848 7.20896 12.7881 7.20896 12.7881C7.49473 12.8248 8.04785 13.0723 8.37972 13.2648C8.68393 13.439 9.11721 13.8057 9.30158 13.9432C9.08955 13.9615 8.96049 14.0348 8.95127 14.044L8.87752 14.0898C8.32441 14.1723 8.10316 14.0623 7.78051 13.769ZM8.69315 15.2266L8.72081 15.2999C8.78534 15.4466 8.87752 15.5566 8.97893 15.6391C8.80378 15.7674 8.38894 15.8958 7.95566 15.8866C7.51317 15.8774 7.13521 15.5566 7.13521 15.5566C7.21817 15.4282 7.31036 15.2816 7.66067 15.1441C8.00176 15.0157 8.35206 15.0891 8.69315 15.2266ZM8.50878 15.9324C8.84065 15.8683 9.08955 15.8683 9.37533 15.9233C9.24627 16.0608 9.2094 16.1983 9.14487 16.2899C8.95127 16.565 8.61018 16.7391 8.223 16.8125C7.76207 16.9041 7.51317 16.6933 7.51317 16.6933C7.71598 16.0974 8.1216 16.0058 8.50878 15.9324ZM9.12643 16.5741L9.14487 16.6475L9.21861 16.6658C9.48595 16.73 9.7072 16.7116 9.88235 16.6658C9.86392 16.7208 9.84548 16.8033 9.83626 16.84C9.60579 17.1241 9.29236 17.3258 8.86831 17.3717C8.44425 17.4175 8.27831 17.1241 8.27831 17.1241C8.40738 16.8858 8.79456 16.84 9.12643 16.5741ZM9.20018 17.4175C9.48595 17.225 9.62423 17.1883 9.81782 17.115C9.84548 17.3533 9.96532 17.5092 9.97454 17.5183C9.89157 17.6192 9.58736 18.1417 8.95127 18.0592C8.95127 18.0592 8.77612 17.7017 9.20018 17.4175ZM9.05268 18.1967H9.07112C9.2094 18.1967 9.32924 18.1784 9.43986 18.1417C9.40299 18.1967 9.38455 18.2517 9.36611 18.2975C8.18613 19.3976 8.28753 19.9476 8.28753 19.9476C8.69315 19.7093 9.13565 19.0401 9.36611 18.6276L9.44908 18.6367C9.54126 18.6551 9.64267 18.6551 9.74407 18.6367C9.58736 18.7834 9.36611 19.1959 8.99737 19.8468C8.62862 20.4976 7.74364 20.7727 7.74364 20.7727C7.64223 19.6726 8.60097 18.6551 9.05268 18.1967ZM8.2691 21.066C8.46269 20.846 8.80378 21.0385 9.13565 21.3502C9.47673 21.6619 9.68876 21.9827 9.49517 22.1936C9.3108 22.3952 8.96049 22.2211 8.6194 21.9094C8.28753 21.6069 8.07551 21.286 8.2691 21.066ZM9.47674 21.0477C9.05268 20.296 9.56892 19.2784 9.99298 18.5725C10.0483 18.5542 10.0944 18.5267 10.1497 18.4992C10.0022 19.0401 9.71642 19.6818 9.82704 20.186C10.1958 19.7368 10.3064 18.3984 10.3064 18.3984C10.3617 18.3617 10.4078 18.325 10.4631 18.2884C10.4816 18.27 10.5 18.2517 10.5184 18.2334C10.5184 18.2792 10.5184 18.3342 10.5277 18.38C10.4723 19.1867 10.4078 20.0118 10.1589 20.4243C9.92845 20.8368 9.47674 21.0477 9.47674 21.0477ZM10.3986 18.1875C10.1497 18.38 9.82704 18.5634 9.46752 18.5084C9.46752 18.5084 9.38455 18.2334 10.1036 17.5642C10.3433 17.5275 10.5277 17.445 10.6659 17.3442C10.6936 17.4267 10.7489 17.5458 10.712 17.7108C10.6659 17.8759 10.5553 18.0592 10.3986 18.1875ZM12.4267 17.0966C12.6479 17.1058 12.7678 16.9866 12.8047 16.9316C12.8047 16.9225 12.8139 16.9225 12.8139 16.9133L12.8415 16.9408C12.9153 17.0141 12.9706 17.06 13.1089 17.1241C13.1089 17.1241 13.3025 17.5 13.0628 17.9492C12.8231 18.3984 12.6295 18.8567 12.5281 19.1134C12.5281 19.1134 12.399 19.0951 12.2608 18.3892C12.1686 17.9125 12.0487 17.7933 11.9197 17.6283C12.0579 17.7017 12.1686 17.72 12.1778 17.72L12.27 17.7383L12.3161 17.6558C12.399 17.4908 12.4267 17.335 12.4267 17.2067C12.4359 17.1792 12.4359 17.1333 12.4267 17.0966ZM12.9522 10.4413C13.3946 10.423 14.2059 10.4138 14.464 10.2855C14.464 10.2855 14.4179 10.4505 14.2151 10.5422C14.2151 10.5422 14.3257 10.5422 14.4363 10.6338C14.4363 10.6338 14.3718 10.7713 14.1874 10.8447C14.1874 10.8447 14.5193 11.193 14.8881 11.1655C14.8881 11.1655 14.7221 11.3764 14.3534 11.2939C13.9846 11.2114 13.8648 11.0097 13.8003 10.9272C13.8003 10.9272 13.8464 11.1289 13.8279 11.2022C13.8279 11.2022 13.662 11.193 13.5421 11.0372C13.5421 11.0372 13.6343 11.193 13.6528 11.3305C13.6528 11.3305 13.5514 11.3397 13.367 11.2389C13.367 11.2389 13.4039 11.3397 13.4131 11.4497C13.4131 11.4497 12.989 11.3122 12.777 11.1197C12.777 11.1197 12.777 11.2572 12.7862 11.3305C12.7862 11.3305 12.1225 11.2664 12.0764 10.2947C12.0672 10.2947 12.5097 10.4597 12.9522 10.4413ZM12.6203 9.79047C12.5742 9.68046 12.4175 9.42378 12.4175 9.32295C12.4175 9.22211 12.5465 9.18544 12.6111 9.18544H12.6479C12.7125 9.18544 12.8415 9.21294 12.8415 9.32295C12.8323 9.43295 12.6664 9.68046 12.6203 9.79047ZM15.2199 9.24044C15.6071 9.24044 15.9113 9.30461 15.9113 9.38712C15.9113 9.46962 15.5979 9.53379 15.2199 9.53379C14.8327 9.53379 14.5285 9.46962 14.5285 9.38712C14.5285 9.30461 14.842 9.24044 15.2199 9.24044ZM15.2199 8.80959C15.1923 8.60791 14.9618 8.18622 14.9618 7.99372C14.9618 7.84704 15.0817 7.72787 15.2291 7.72787C15.3766 7.72787 15.4965 7.84704 15.4965 7.99372C15.4873 8.18622 15.2568 8.61708 15.2199 8.80959ZM15.2199 9.57962C15.2937 9.57962 15.3582 9.64379 15.3582 9.71713C15.3582 9.79047 15.3029 9.85464 15.2199 9.85464C15.1462 9.85464 15.0817 9.79047 15.0817 9.71713C15.0817 9.63462 15.1462 9.57962 15.2199 9.57962ZM16.0127 10.6338C16.1234 10.5422 16.234 10.5422 16.234 10.5422C16.0219 10.4505 15.9759 10.2855 15.9759 10.2855C16.2432 10.4138 17.0544 10.423 17.4969 10.4413C17.9394 10.4597 18.3819 10.2947 18.3819 10.2947C18.3358 11.2572 17.6721 11.3305 17.6721 11.3305C17.6721 11.248 17.6721 11.1197 17.6721 11.1197C17.4693 11.3122 17.0452 11.4497 17.0452 11.4497C17.0544 11.3397 17.0913 11.2389 17.0913 11.2389C16.9069 11.3489 16.8055 11.3305 16.8055 11.3305C16.824 11.193 16.9162 11.0372 16.9162 11.0372C16.7871 11.193 16.6304 11.2022 16.6304 11.2022C16.6119 11.1197 16.658 10.9272 16.658 10.9272C16.5935 11.0097 16.4737 11.2114 16.1049 11.2939C15.7362 11.3764 15.5702 11.1655 15.5702 11.1655C15.9298 11.193 16.2616 10.8447 16.2616 10.8447C16.0773 10.7713 16.0127 10.6338 16.0127 10.6338ZM17.8196 9.79047C17.7735 9.68046 17.6168 9.42378 17.6168 9.32295C17.6168 9.22211 17.7458 9.18544 17.8104 9.18544H17.8472C17.9118 9.18544 18.0408 9.21294 18.0408 9.32295C18.0316 9.43295 17.8657 9.68046 17.8196 9.79047ZM18.1146 17.665L18.1607 17.7475L18.2529 17.7292C18.2621 17.7292 18.3727 17.7108 18.511 17.6375C18.3819 17.8025 18.2621 17.9217 18.1699 18.3984C18.0316 19.1042 17.9025 19.1226 17.9025 19.1226C17.8104 18.8659 17.6075 18.4075 17.3679 17.9584C17.1282 17.5092 17.331 17.1333 17.331 17.1333C17.4693 17.0691 17.5246 17.0233 17.5983 16.95L17.6168 16.9225C17.6168 16.9316 17.626 16.9316 17.626 16.9408C17.6721 16.9958 17.7827 17.1058 18.004 17.1058C18.004 17.1425 17.9947 17.1792 17.9947 17.225C18.0132 17.3533 18.0316 17.5092 18.1146 17.665ZM16.824 23.3853C17.1466 23.6053 17.1743 23.8986 17.1743 23.8986C16.068 23.7886 15.7638 22.3769 15.7638 22.3769C15.856 22.2119 15.939 22.0469 15.9574 21.8819C16.0588 21.9277 16.1971 22.0377 16.3354 22.2669C16.4737 22.5052 16.7687 22.6978 17.0083 22.8536C17.248 23.0094 17.3218 23.2753 17.3218 23.2753C16.7871 23.2753 16.446 22.7069 16.2893 22.5052C16.1326 22.3127 16.0496 22.2944 16.0496 22.2944C16.0035 22.8169 16.4921 23.1653 16.824 23.3853ZM11.9565 19.5168C12.0395 19.5718 12.1317 19.6084 12.2054 19.6359C12.3898 20.5435 12.104 20.9193 12.104 20.9193C11.6339 20.3601 11.597 19.7734 11.4956 18.9117C11.5417 19.0309 11.6155 19.1501 11.6984 19.2693C11.8275 20.1401 11.9934 20.2593 11.9934 20.2593C12.0579 19.8834 11.9565 19.5168 11.9565 19.5168ZM12.0303 21.6252C12.2331 21.561 12.7309 21.4877 12.9522 21.4052C12.7586 21.5977 12.6664 21.7902 12.482 21.8635C12.1962 21.9735 11.9381 22.1477 11.9381 22.1477C11.7722 22.0927 11.468 22.0102 11.468 22.0102C11.6708 21.7902 11.8183 21.6894 12.0303 21.6252ZM13.3762 12.3023C13.4592 12.4214 13.6435 12.5406 13.6435 12.5406C13.6067 12.6048 13.4868 13.0265 13.5145 13.2281H13.496C13.4407 13.1365 13.2748 12.8156 13.2103 12.5223C13.1734 12.3114 13.0904 12.1831 12.989 12.1006C12.8692 12.0089 12.6387 11.9356 12.6387 11.9356C12.7032 11.9172 12.8415 11.8806 12.8968 11.8806C13.2103 12.0731 13.3117 12.2198 13.3762 12.3023ZM12.6387 11.4039C12.7125 11.4222 13.0628 11.5322 13.2287 11.6514C13.4407 11.8072 13.5882 11.9814 13.5606 12.2839C13.5606 12.2839 13.3854 12.0456 13.2011 11.9356C13.0536 11.8531 12.777 11.6147 12.6387 11.4039ZM13.6804 13.5581C13.7173 13.6957 13.7265 13.8973 13.6804 14.0898C13.6435 14.2365 13.5514 14.429 13.3854 14.539C13.2379 14.6307 12.8876 14.6582 12.7586 14.319C12.7586 14.319 13.3946 14.3649 13.6804 13.5581ZM13.6804 11.8897C13.5514 11.7614 13.4776 11.6972 13.2103 11.5139C13.2103 11.5139 13.4315 11.5781 13.5053 11.5964C13.5053 11.5964 13.5053 11.468 13.5053 11.4039C13.5698 11.4222 13.6528 11.4405 13.7265 11.4497C13.7265 11.4497 13.9478 11.9356 14.1137 12.1372C14.1137 12.1372 14.1229 12.2473 14.0307 12.4123C14.0215 12.4123 13.9017 12.1189 13.6804 11.8897ZM16.9346 11.5964C17.0083 11.5781 17.2296 11.5139 17.2296 11.5139C16.9715 11.6972 16.8885 11.7614 16.7594 11.8897C16.5382 12.1189 16.4184 12.4123 16.4184 12.4123C16.3262 12.2473 16.3354 12.1372 16.3354 12.1372C16.5013 11.9356 16.7226 11.4497 16.7226 11.4497C16.7963 11.4405 16.8793 11.4222 16.9438 11.4039C16.9346 11.468 16.9346 11.5964 16.9346 11.5964ZM17.4508 12.1006C17.3494 12.1831 17.2665 12.3023 17.2296 12.5223C17.1743 12.8156 16.9991 13.1365 16.9438 13.2281H16.9254C16.953 13.0265 16.8332 12.6048 16.7963 12.5406C16.7963 12.5406 16.9807 12.4306 17.0637 12.3023C17.1282 12.2106 17.2388 12.0639 17.5338 11.8806C17.5891 11.8806 17.7274 11.9172 17.7919 11.9356C17.7919 11.9356 17.5615 12.0089 17.4508 12.1006ZM17.6905 14.319C17.5522 14.649 17.2112 14.6307 17.0637 14.539C16.8885 14.429 16.8055 14.2365 16.7687 14.0898C16.7226 13.8973 16.7318 13.6957 16.7687 13.5581C17.0452 14.3649 17.6905 14.319 17.6905 14.319ZM17.2388 11.9356C17.0544 12.0456 16.8793 12.2839 16.8793 12.2839C16.8608 11.9814 16.9991 11.8072 17.2112 11.6514C17.3863 11.5322 17.7366 11.4222 17.8011 11.4039C17.6629 11.6147 17.3955 11.8531 17.2388 11.9356ZM14.1598 22.5052C14.0031 22.6977 13.662 23.2661 13.1273 23.2753C13.1273 23.2753 13.2103 23.0094 13.4407 22.8536C13.6804 22.6978 13.9754 22.5052 14.1137 22.2669C14.252 22.0286 14.3903 21.9185 14.4917 21.8819C14.5101 22.0561 14.5931 22.2119 14.6853 22.3769C14.6853 22.3769 14.381 23.7886 13.2748 23.8986C13.2748 23.8986 13.2932 23.6053 13.6251 23.3853C13.9478 23.1653 14.4363 22.8169 14.4087 22.2944C14.3995 22.2944 14.3165 22.3127 14.1598 22.5052ZM13.791 21.9552C13.5698 21.9552 13.5237 21.8269 13.4131 21.7719C13.4131 21.7719 13.4684 21.4877 13.7173 21.4144C14.0215 21.3227 14.4917 20.956 14.6853 20.6076C14.6853 20.6902 14.6207 21.1577 14.4917 21.3869C14.3073 21.7077 14.0307 21.9552 13.791 21.9552ZM15.0632 14.6124C15.1185 14.6582 15.1554 14.704 15.2199 14.7407C15.2845 14.704 15.3213 14.6674 15.3766 14.6124C15.4412 14.7407 15.5518 14.8232 15.6071 15.0249C15.6532 15.1899 15.5702 15.4191 15.4965 15.5474C15.3951 15.7032 15.3121 15.7399 15.2291 15.7858C15.137 15.7399 15.0632 15.7124 14.9618 15.5474C14.8788 15.4191 14.8051 15.1899 14.8512 15.0249C14.8881 14.814 14.9987 14.7315 15.0632 14.6124ZM14.9895 13.8607C15.0909 13.7323 15.2107 13.5948 15.2199 13.4848H15.2291C15.2384 13.5948 15.3582 13.7415 15.4596 13.8607C15.5426 13.9615 15.5334 14.099 15.4965 14.1998C15.4596 14.2915 15.349 14.4565 15.2291 14.5574H15.2199C15.1001 14.4474 14.9895 14.2915 14.9526 14.1998C14.9157 14.099 14.9065 13.9615 14.9895 13.8607ZM14.4363 17.5183C14.3995 17.3442 14.4456 16.8216 14.7313 16.565C14.8143 16.785 15.1277 17.0691 15.1277 17.2525C15.1185 17.72 14.9157 17.995 14.8696 18.1509C14.8696 18.1417 14.5009 17.8484 14.4363 17.5183ZM14.6299 18.7742C14.5838 18.8842 14.4548 19.0951 14.3626 19.2509C14.3626 19.2509 14.0492 18.9576 13.9846 18.7467C13.9293 18.5909 13.9478 18.3617 14.0307 18.2242C14.1045 18.0867 14.2704 17.9309 14.3442 17.7842C14.4179 17.94 14.6484 18.1875 14.6853 18.3892C14.6945 18.5359 14.6668 18.6642 14.6299 18.7742ZM14.8051 16.2441C14.8604 15.9324 15.0632 15.9966 15.2291 15.8683C15.3859 15.9966 15.5887 15.9324 15.644 16.2441C15.6809 16.455 15.266 16.8308 15.2291 17.0325C15.1738 16.8308 14.7682 16.4458 14.8051 16.2441ZM14.9065 18.4442C14.971 18.3159 15.1923 18.0134 15.2199 17.9217C15.2476 18.0134 15.4688 18.3159 15.5334 18.4442C15.5887 18.5542 15.5887 18.7101 15.5426 18.8384C15.4596 19.0676 15.266 19.2234 15.2291 19.3518H15.2199C15.1831 19.2234 14.9895 19.0676 14.9065 18.8384C14.8512 18.7009 14.8604 18.545 14.9065 18.4442ZM15.3213 17.2433C15.3213 17.0691 15.6348 16.785 15.7177 16.5558C16.0035 16.8125 16.0496 17.335 16.0127 17.5092C15.9482 17.8484 15.5795 18.1417 15.5795 18.1417C15.5241 17.995 15.3213 17.7108 15.3213 17.2433ZM15.773 18.38C15.8099 18.1784 16.0404 17.9309 16.1141 17.775C16.1879 17.9217 16.3446 18.0775 16.4276 18.215C16.5013 18.3525 16.5198 18.5817 16.4737 18.7376C16.4091 18.9484 16.0957 19.2418 16.0957 19.2418C16.0035 19.0859 15.8652 18.8751 15.8191 18.7651C15.773 18.6642 15.7454 18.5359 15.773 18.38ZM16.234 17.5642C16.1602 17.3808 16.1694 17.1975 16.2063 17.1241C16.2801 16.9591 16.529 16.73 16.6396 16.5283C16.6673 16.6291 17.0083 17.1058 17.0637 17.1608C17.0637 17.1608 17.036 17.335 16.9069 17.5825C16.7779 17.83 16.6027 18.0042 16.5105 18.0959C16.5105 18.0959 16.2985 17.72 16.234 17.5642ZM16.1326 16.895C16.0865 16.7758 15.9574 16.4458 15.7915 16.3358C15.7915 16.3358 15.5887 15.7399 16.2432 15.3732C16.2432 15.3732 16.5105 15.7308 16.5843 16.0608C16.6488 16.3908 16.2985 16.5925 16.1326 16.895ZM16.1049 15.2174C16.0035 15.3641 15.7823 15.5932 15.5887 15.6941C15.5887 15.6941 15.8007 15.3641 15.7823 15.0891C15.7638 14.9149 15.6348 14.759 15.6071 14.649C15.5795 14.5482 15.5979 14.3649 15.6716 14.1998C15.727 14.264 16.0496 14.6399 16.0865 14.7499C16.1326 14.8599 16.2063 15.0707 16.1049 15.2174ZM14.8327 14.649C14.8051 14.759 14.6668 14.9149 14.6576 15.0891C14.6392 15.3641 14.8512 15.6941 14.8512 15.6941C14.6576 15.5932 14.4271 15.3641 14.3349 15.2174C14.2335 15.0707 14.3073 14.8599 14.3534 14.7499C14.3995 14.6399 14.7129 14.264 14.7682 14.1998C14.842 14.3649 14.8604 14.5482 14.8327 14.649ZM14.6484 16.3266C14.4917 16.4366 14.3534 16.7666 14.3073 16.8858C14.1414 16.5833 13.791 16.3816 13.8556 16.0516C13.9293 15.7216 14.1967 15.3641 14.1967 15.3641C14.8512 15.7307 14.6484 16.3266 14.6484 16.3266ZM14.2428 17.1241C14.2704 17.1883 14.2796 17.3717 14.2059 17.5642C14.1414 17.7292 13.9293 18.0959 13.9293 18.0959C13.8371 18.0042 13.662 17.83 13.5329 17.5825C13.4039 17.335 13.3762 17.1608 13.3762 17.1608C13.4315 17.1058 13.7818 16.6291 13.8003 16.5283C13.9201 16.73 14.169 16.9591 14.2428 17.1241ZM14.0953 19.5901C14.0399 19.8009 13.8279 20.0851 13.7542 20.2135C13.7542 20.2135 13.579 19.8559 13.5421 19.6909C13.5053 19.5259 13.5421 19.2601 13.8925 18.9392C13.957 19.0401 14.1506 19.3884 14.0953 19.5901ZM13.7357 20.4151C13.8095 20.3326 13.9846 20.131 14.0584 20.0026C14.1045 20.1585 14.252 20.4426 14.2704 20.5251C14.3073 20.6902 14.2612 20.8827 13.957 21.0935C13.957 21.0935 13.7634 20.956 13.6896 20.7818C13.6251 20.6168 13.662 20.4976 13.7357 20.4151ZM13.7265 21.066C13.791 21.1393 13.8279 21.1668 13.8832 21.2035C13.745 21.2677 13.6067 21.3135 13.5606 21.341C13.3486 21.4694 13.284 21.7444 13.284 21.7444C13.0996 21.8269 12.8047 21.7535 12.8047 21.7535C12.9061 21.6344 13.0996 21.4144 13.2932 21.286C13.496 21.1485 13.7265 21.066 13.7265 21.066ZM14.5378 20.5985C14.5009 20.3876 14.2704 20.1493 14.2612 19.8009C14.252 19.5168 14.6945 18.9942 14.6945 18.9942C14.9249 19.2143 14.9802 19.3609 15.0079 19.5809C15.0356 19.8009 14.9618 19.9751 14.8604 20.1676C14.7682 20.3418 14.5378 20.5985 14.5378 20.5985ZM15.2199 19.8559C15.3582 20.0118 15.5979 20.4243 15.5887 20.6902C15.5702 21.2218 15.2384 21.7169 15.2199 21.8819C15.2015 21.7169 14.8696 21.2218 14.8512 20.6902C14.8512 20.4243 15.0817 20.0118 15.2199 19.8559ZM15.5795 20.1676C15.4781 19.9751 15.4043 19.8009 15.432 19.5809C15.4596 19.3609 15.5149 19.2143 15.7454 18.9942C15.7454 18.9942 16.1879 19.5259 16.1694 19.8009C16.1602 20.1493 15.9205 20.3876 15.8929 20.5985C15.9021 20.5985 15.6716 20.3418 15.5795 20.1676ZM16.1694 20.5251C16.1879 20.4426 16.3354 20.1493 16.3815 20.0026C16.4552 20.131 16.6304 20.3326 16.7041 20.4151C16.7779 20.4976 16.824 20.6168 16.7502 20.7818C16.6765 20.956 16.4829 21.0935 16.4829 21.0935C16.1787 20.8827 16.1326 20.681 16.1694 20.5251ZM16.6949 20.2135C16.6212 20.0943 16.4091 19.8009 16.3538 19.5901C16.2985 19.3884 16.4921 19.0401 16.5658 18.9392C16.9162 19.2693 16.953 19.5351 16.9162 19.6909C16.8608 19.8559 16.6949 20.2135 16.6949 20.2135ZM16.9162 20.5618C16.9162 20.5618 17.3218 20.8185 17.4508 20.9193C17.5707 21.0202 17.8288 21.286 17.8841 21.3685C17.8841 21.3685 17.5707 21.3043 17.331 21.2218C17.0729 21.1393 16.8885 21.0202 16.7963 20.9652C16.8424 20.8918 16.9346 20.7635 16.9162 20.5618ZM17.2112 18.7009C17.1743 18.8384 16.9162 19.1684 16.9162 19.1684C16.8793 19.0584 16.7871 18.9392 16.7133 18.7559C16.6212 18.545 16.6396 18.4259 16.6949 18.2425C16.741 18.0867 16.9346 17.9125 17.0176 17.7292C17.0821 17.8575 17.1743 18.05 17.2204 18.1875C17.2665 18.3342 17.248 18.5634 17.2112 18.7009ZM17.1374 17.0325C17.1743 16.9225 17.3863 16.5283 17.3863 16.5283C17.4416 16.5925 17.5615 16.7116 17.6168 16.7575C17.4969 16.8675 17.4785 16.895 17.3586 16.9775C17.2388 17.06 17.1374 17.0325 17.1374 17.0325ZM17.3218 16.1891C17.2849 16.455 17.119 16.7208 17.0452 16.9133C17.0452 16.9133 16.7594 16.5466 16.7226 16.3266C16.6857 16.1066 16.6949 15.9324 16.6857 15.8224C16.6857 15.8224 16.8424 15.5657 16.9346 15.3916C17.036 15.5199 17.1835 15.6941 17.3033 15.7491C17.3126 15.7399 17.3494 16.0058 17.3218 16.1891ZM16.6027 15.6482C16.529 15.5016 16.363 15.1807 16.2524 14.8874C16.1694 14.6582 16.1418 14.5299 16.151 14.374C16.1602 14.2182 16.2432 14.0532 16.2985 13.989C16.3446 14.1998 16.3907 14.4382 16.5105 14.704C16.6119 14.924 16.8424 15.2449 16.8424 15.2449C16.7502 15.4374 16.6027 15.6482 16.6027 15.6482ZM16.1694 13.2373C16.0865 12.9531 16.2709 12.6781 16.3354 12.5223C16.4921 12.6414 16.6119 12.7789 16.6304 13.1181C16.6488 13.4573 16.5566 13.8973 16.5566 13.8973C16.446 13.6406 16.2524 13.5215 16.1694 13.2373ZM16.234 12.0456C16.1141 12.2381 16.0404 12.5406 16.0496 12.6414C16.0496 12.6414 15.8652 12.2473 15.9574 11.9722C16.0312 11.7522 16.2155 11.4314 16.5751 11.2939C16.5013 11.5781 16.363 11.8439 16.234 12.0456ZM16.1141 13.3931C16.151 13.5031 16.1787 13.7873 16.1602 13.8973C16.1418 14.0165 15.9759 14.2365 15.9759 14.2365C15.8284 13.9798 15.6716 13.8423 15.5887 13.7232C15.4965 13.5948 15.4504 13.4665 15.4965 13.2556C15.5426 13.054 15.8191 12.5223 15.8191 12.5223C15.9298 12.9073 16.0773 13.274 16.1141 13.3931ZM15.2199 13.3198C15.2015 13.1548 14.8143 12.7423 14.8327 12.5314C14.8512 12.3114 15.1462 12.1556 15.2199 12.1281C15.2937 12.1647 15.5795 12.3114 15.6071 12.5314C15.6255 12.7514 15.2384 13.1548 15.2199 13.3198ZM14.9526 13.2556C14.9987 13.4573 14.9526 13.5948 14.8604 13.7232C14.7682 13.8423 14.6115 13.9798 14.4732 14.2365C14.4732 14.2365 14.3073 14.0165 14.2889 13.8973C14.2704 13.7782 14.2981 13.5031 14.3349 13.3931C14.3718 13.274 14.5101 12.9073 14.6299 12.5314C14.6299 12.5314 14.8973 13.054 14.9526 13.2556ZM14.3903 12.6506C14.3995 12.5498 14.3257 12.2381 14.2059 12.0547C14.0768 11.8439 13.9385 11.5872 13.8556 11.303C14.2059 11.4405 14.3995 11.7614 14.4732 11.9814C14.5746 12.2564 14.3903 12.6506 14.3903 12.6506ZM14.1045 12.5131C14.169 12.6689 14.3534 12.944 14.2704 13.2281C14.1874 13.5123 14.0031 13.6406 13.8832 13.879C13.8832 13.879 13.791 13.439 13.8095 13.0998C13.8371 12.7698 13.957 12.6414 14.1045 12.5131ZM14.2981 14.3832C14.3073 14.539 14.2796 14.6674 14.1967 14.8965C14.086 15.1899 13.9201 15.5107 13.8464 15.6574C13.8464 15.6574 13.6989 15.4466 13.6159 15.2541C13.6159 15.2541 13.8464 14.9332 13.9478 14.7132C14.0584 14.4474 14.1045 14.209 14.1506 13.9982C14.1967 14.0623 14.2796 14.2182 14.2981 14.3832ZM13.745 15.8224C13.7357 15.9233 13.7357 16.1066 13.7081 16.3266C13.6712 16.5466 13.3946 16.9133 13.3946 16.9133C13.3209 16.7208 13.155 16.455 13.1181 16.1891C13.0996 16.0149 13.1365 15.7491 13.1365 15.7491C13.2471 15.6941 13.3946 15.5199 13.5053 15.3916C13.5882 15.5657 13.745 15.8224 13.745 15.8224ZM13.3025 17.0325C13.3025 17.0325 13.1918 17.06 13.0812 16.9775C12.9614 16.895 12.9337 16.8675 12.8231 16.7575C12.8784 16.7116 12.9982 16.5925 13.0536 16.5283C13.0628 16.5283 13.2748 16.9225 13.3025 17.0325ZM13.2287 18.1967C13.284 18.05 13.3762 17.8667 13.4407 17.7383C13.5237 17.9125 13.7173 18.0959 13.7634 18.2517C13.8187 18.435 13.8279 18.5542 13.745 18.7651C13.662 18.9484 13.5698 19.0584 13.5421 19.1776C13.5421 19.1776 13.284 18.8476 13.2471 18.7101C13.1918 18.5634 13.1734 18.3342 13.2287 18.1967ZM13.5237 20.5618C13.5053 20.7635 13.5975 20.8918 13.6435 20.9652C13.5421 21.0202 13.367 21.1393 13.1089 21.2218C12.8692 21.3043 12.565 21.3685 12.565 21.3685C12.6203 21.286 12.8784 21.0202 12.9982 20.9193C13.1181 20.8185 13.5237 20.5618 13.5237 20.5618ZM12.4728 21.9552C12.5834 21.9094 12.7493 21.8635 12.7493 21.8635C12.8231 21.891 12.9614 21.9002 12.9614 21.9002C12.8047 21.9369 12.6387 22.1844 12.6018 22.2577C12.5558 22.3311 12.482 22.3677 12.482 22.3677C12.2976 22.2486 12.104 22.1936 12.0672 22.1752C12.2147 22.0744 12.3622 22.001 12.4728 21.9552ZM12.6479 22.5144C12.7032 22.2119 13.1365 21.9094 13.1365 21.9094C13.2564 21.9002 13.3025 21.8819 13.3301 21.8635C13.45 21.9277 13.5606 22.0285 13.5606 22.0285C13.4315 22.0102 13.2103 22.0652 13.0997 22.1569C13.0075 22.2211 12.86 22.4594 12.9522 22.6244C13.0443 22.7894 13.3762 22.6794 13.3762 22.6794C13.1826 23.0828 12.8784 22.9636 12.8139 22.9269C12.7401 22.8903 12.6018 22.7711 12.6479 22.5144ZM14.4917 23.4861C14.5009 23.4678 14.5193 23.4311 14.5378 23.4219C14.5378 23.4219 14.7129 23.4678 14.842 23.4036L14.7498 23.5503C14.252 24.302 13.7081 24.7787 13.1457 25.0904L12.9982 24.8795C13.5145 24.5953 14.0307 24.1737 14.4917 23.4861ZM14.4824 23.3028C14.4824 23.3028 14.9434 23.1469 14.9249 22.7344C14.8973 22.3219 14.6668 22.0744 14.6207 21.8635C14.5746 21.6252 14.5931 21.4052 14.7774 21.1302C14.9249 21.6344 15.0909 22.0102 15.2107 22.2577C15.2199 22.2669 15.2199 22.2761 15.2199 22.2761C15.2199 22.2669 15.2291 22.2577 15.2291 22.2577C15.3582 22.001 15.5149 21.6344 15.6716 21.1302C15.856 21.4052 15.8652 21.6252 15.8191 21.8635C15.7823 22.0744 15.5426 22.3219 15.5149 22.7344C15.4873 23.1469 15.9574 23.3028 15.9574 23.3028C15.8007 23.3578 15.6256 23.3853 15.3398 23.1194C15.2845 23.0736 15.2476 23.0186 15.2199 22.9636C15.1923 23.0186 15.1554 23.0736 15.1001 23.1194C14.8143 23.3853 14.6392 23.3578 14.4824 23.3028ZM15.9482 21.3869C15.8099 21.1577 15.7546 20.6902 15.7546 20.6076C15.9482 20.956 16.4184 21.3227 16.7226 21.4144C16.9715 21.4877 17.0268 21.7719 17.0268 21.7719C16.9162 21.8269 16.8701 21.9552 16.6488 21.9552C16.4091 21.9552 16.1326 21.7077 15.9482 21.3869ZM16.8793 21.341C16.8332 21.3135 16.6857 21.2677 16.5566 21.2035C16.6119 21.1668 16.6488 21.1393 16.7133 21.066C16.7133 21.066 16.953 21.1485 17.1466 21.286C17.3402 21.4144 17.5338 21.6435 17.6352 21.7535C17.6352 21.7535 17.3402 21.8269 17.1558 21.7444C17.1558 21.7444 17.0821 21.4602 16.8793 21.341ZM17.4877 21.4052C17.709 21.4877 18.1975 21.561 18.4096 21.6252C18.6216 21.6894 18.7691 21.7902 18.9627 22.0102C18.9627 22.0102 18.6585 22.0927 18.4925 22.1477C18.4925 22.1477 18.2344 21.9735 17.9486 21.8635C17.7735 21.7902 17.6813 21.5977 17.4877 21.4052ZM18.4464 20.2593C18.4464 20.2593 18.6216 20.1401 18.7414 19.2693C18.8336 19.1501 18.8982 19.0309 18.9535 18.9117C18.8428 19.7734 18.806 20.3601 18.345 20.9193C18.345 20.9193 18.0593 20.5435 18.2436 19.6359C18.3266 19.6176 18.4096 19.5718 18.4925 19.5168C18.4925 19.5168 18.3819 19.8834 18.4464 20.2593ZM18.9627 18.325C18.9166 18.6459 18.8336 18.9576 18.5663 19.2601C18.2989 19.5718 17.9302 19.5259 17.9302 19.5259C18.0132 19.3884 18.1514 18.9942 18.1975 18.8017C18.2436 18.6092 18.3358 18.2792 18.4188 18.0317C18.5294 17.7475 18.7599 17.4542 18.8244 17.3717C18.8613 17.4083 18.8982 17.445 18.9443 17.4817C18.9903 17.7383 18.9996 18.0775 18.9627 18.325ZM17.4601 16.3816C17.4047 16.2349 17.4416 15.8133 17.4416 15.8133C17.709 15.9416 18.0316 15.7674 18.0316 15.7674C18.0316 16.0974 17.7643 16.5466 17.6905 16.6658C17.5615 16.565 17.5061 16.4916 17.4601 16.3816ZM17.6352 15.6757C17.4785 15.6757 17.2388 15.5474 16.9346 15.1716C16.4921 14.6215 16.3999 13.8698 16.3999 13.8698C16.8516 14.6215 17.2941 15.0157 17.6444 14.9974C17.9486 14.979 18.0961 14.5299 18.0961 14.5299C18.2529 14.6582 18.2805 15.0157 18.1975 15.2449C18.1146 15.4741 17.8749 15.6757 17.6352 15.6757ZM17.6536 11.7156C17.7919 11.6056 17.9671 11.358 17.9671 11.358C18.2068 11.413 18.3819 11.4405 18.5663 11.6972C18.7414 11.9356 18.5018 12.2931 18.5018 12.2931C18.3358 11.7064 17.6536 11.7156 17.6536 11.7156ZM18.4096 11.4314C18.4096 11.4314 18.2897 11.358 18.0316 11.2939C18.0316 11.2939 18.1883 11.1014 18.3635 11.028C18.5202 10.9547 18.8428 10.863 18.935 10.5697C19.0825 10.533 19.3867 10.4963 19.525 10.698C19.6633 10.8997 19.608 11.2755 19.3314 11.4314C19.3314 11.4314 18.9166 11.0739 18.4096 11.4314ZM15.7362 11.4772C15.8652 11.3947 16.1326 11.3855 16.1326 11.3855C16.068 11.5781 15.9021 11.7797 15.7638 11.9172C15.6256 12.0547 15.349 12.1006 15.349 12.1006C15.4135 11.8256 15.5702 11.5872 15.7362 11.4772ZM15.0909 12.1097C15.0909 12.1097 14.8143 12.0639 14.6853 11.9264C14.547 11.7889 14.381 11.5872 14.3165 11.3947C14.3165 11.3947 14.5931 11.4039 14.7129 11.4864C14.8696 11.5872 15.0263 11.8256 15.0909 12.1097ZM12.4083 11.2939C12.1409 11.358 12.0303 11.4314 12.0303 11.4314C11.5233 11.0739 11.1084 11.4314 11.1084 11.4314C10.8319 11.2755 10.7858 10.8997 10.9241 10.698C11.0623 10.4963 11.3666 10.533 11.514 10.5697C11.6062 10.863 11.9289 10.9547 12.0856 11.028C12.2515 11.1105 12.4083 11.2939 12.4083 11.2939ZM11.8736 11.7064C12.0579 11.4497 12.2239 11.4222 12.4728 11.3672C12.4728 11.3672 12.6572 11.6147 12.7954 11.7247C12.7954 11.7247 12.1133 11.7156 11.9473 12.3114C11.9381 12.3023 11.6984 11.9356 11.8736 11.7064ZM12.3437 14.5299C12.3437 14.5299 12.4912 14.979 12.7954 14.9974C13.1457 15.0157 13.5882 14.6215 14.0399 13.8698C14.0399 13.8698 13.9385 14.6124 13.5053 15.1716C13.2103 15.5474 12.9706 15.6757 12.8047 15.6757C12.565 15.6757 12.3253 15.4741 12.2423 15.2449C12.1594 15.0157 12.187 14.6582 12.3437 14.5299ZM12.9982 15.8041C12.9982 15.8041 13.0351 16.2349 12.9798 16.3724C12.9337 16.4916 12.8784 16.5558 12.7493 16.6566C12.6664 16.5375 12.4083 16.0883 12.4083 15.7583C12.4083 15.7674 12.7309 15.9324 12.9982 15.8041ZM12.0211 18.0409C12.104 18.2884 12.1962 18.6184 12.2423 18.8109C12.2884 19.0034 12.4267 19.3976 12.5097 19.5351C12.5097 19.5351 12.1501 19.5809 11.8828 19.2693C11.6155 18.9576 11.5325 18.6551 11.4864 18.3342C11.4495 18.0867 11.468 17.7383 11.4956 17.5C11.5417 17.4633 11.5786 17.4175 11.6155 17.39C11.6708 17.4725 11.9012 17.7567 12.0211 18.0409ZM12.2331 22.3952C12.3437 22.4502 12.5189 22.5419 12.5558 22.6336C12.6018 22.7528 12.5373 22.8169 12.4912 22.8719C12.4175 22.6519 12.3345 22.5877 12.2054 22.5602C12.1133 22.5419 11.9565 22.6336 11.9565 22.6336C11.9565 22.5602 11.9842 22.4777 11.9012 22.4227C11.8183 22.3677 11.4864 22.4319 11.3481 22.4044C11.2744 22.3952 11.2559 22.3494 11.2744 22.3127C11.3112 22.2119 11.3942 22.1202 11.3942 22.1202C11.5601 22.1752 12.0579 22.3036 12.2331 22.3952ZM11.3573 18.6184C11.2836 18.8751 11.1269 19.0401 11.0439 19.1409C11.0439 19.1409 10.8042 18.8751 10.7397 18.6642C10.6659 18.435 10.6475 18.1784 10.7305 17.9034C10.7766 17.7567 10.8503 17.6192 10.9241 17.5458C10.9886 17.6375 11.0531 17.6742 11.0623 17.6742L11.1084 17.7017L11.1545 17.6833C11.2006 17.6742 11.2375 17.6558 11.2836 17.6375C11.3389 17.7842 11.3573 17.8575 11.3758 17.9767C11.385 18.1417 11.4126 18.4075 11.3573 18.6184ZM10.6752 18.8476C10.7305 18.9576 10.8411 19.1042 10.8964 19.1776C10.7581 20.1035 10.9794 20.2685 10.9794 20.2685C11.2006 19.8376 11.1269 19.2234 11.1269 19.2234C11.1822 19.1592 11.2928 19.0492 11.3573 18.9392C11.2467 20.8735 10.9425 21.0935 10.9425 21.0935C10.5 20.6718 10.6383 19.3518 10.6752 18.8476ZM12.5004 23.8711L12.2423 24.0545C12.3253 24.1737 13.1365 25.3012 13.791 26.2179L13.5975 26.5113L11.9842 24.247L11.7169 24.4395L11.6984 23.5686L12.5004 23.8711ZM15.6901 23.5503L15.5979 23.4036C15.7362 23.4678 15.9113 23.4219 15.9113 23.4219C15.9205 23.4311 15.939 23.4678 15.9482 23.4861C16.4091 24.1645 16.9162 24.5953 17.4416 24.8795L17.2941 25.0904C16.7318 24.7787 16.1879 24.3112 15.6901 23.5503ZM17.0729 22.6702C17.0729 22.6702 17.4047 22.7803 17.4969 22.6152C17.5891 22.4502 17.4416 22.2211 17.3494 22.1477C17.2296 22.0561 17.0176 22.001 16.8793 22.0194C16.8793 22.0194 16.9807 21.9185 17.1097 21.8544C17.1374 21.8727 17.1927 21.891 17.3033 21.9002C17.3033 21.9002 17.7366 22.2027 17.7919 22.5052C17.838 22.7619 17.6997 22.8811 17.6352 22.9178C17.5707 22.9544 17.2665 23.0828 17.0729 22.6702ZM17.4877 21.9094C17.4877 21.9094 17.6168 21.9002 17.6905 21.8727C17.6905 21.8727 17.8472 21.9094 17.9671 21.9644C18.0777 22.0102 18.2252 22.0836 18.3911 22.1844C18.3543 22.1936 18.1607 22.2577 17.9763 22.3769C17.9763 22.3769 17.8933 22.3402 17.8565 22.2669C17.8104 22.1844 17.6444 21.9369 17.4877 21.9094ZM17.8841 22.6336C17.921 22.5419 18.0961 22.4411 18.2068 22.3952C18.3819 22.3127 18.8797 22.1752 19.0364 22.1294C19.0364 22.1294 19.1194 22.2211 19.1563 22.3219C19.1747 22.3586 19.1471 22.4044 19.0825 22.4136C18.9443 22.4411 18.6124 22.3769 18.5294 22.4319C18.4464 22.4869 18.4741 22.5602 18.4741 22.6427C18.4741 22.6427 18.3266 22.5511 18.2252 22.5694C18.0961 22.5969 18.0132 22.6611 17.9394 22.8811C17.9025 22.8169 17.8472 22.7528 17.8841 22.6336ZM19.4974 21.0843C19.4974 21.0843 19.1932 20.8643 19.0825 18.9301C19.1471 19.0401 19.2577 19.1501 19.313 19.2142C19.313 19.2142 19.2392 19.8284 19.4605 20.2593C19.4605 20.2593 19.6817 20.0943 19.5435 19.1684C19.5988 19.0951 19.7094 18.9484 19.7647 18.8384C19.8108 19.3518 19.9399 20.6718 19.4974 21.0843ZM19.0733 17.9767C19.0917 17.8484 19.1102 17.7842 19.1563 17.6375C19.1932 17.6558 19.2392 17.6742 19.2853 17.6833L19.3407 17.7017L19.3867 17.6742C19.396 17.6742 19.4605 17.6375 19.525 17.5458C19.5896 17.6192 19.6725 17.7567 19.7186 17.9034C19.8016 18.1692 19.7831 18.435 19.7094 18.6642C19.6449 18.8751 19.4052 19.1409 19.4052 19.1409C19.3222 19.0401 19.1655 18.8842 19.0825 18.6184C19.0272 18.4075 19.0549 18.1417 19.0733 17.9767ZM19.7371 17.7108C19.7002 17.5458 19.7463 17.4358 19.7831 17.3442C19.9214 17.445 20.1058 17.5367 20.3455 17.5642C21.0645 18.2334 20.9816 18.5084 20.9816 18.5084C20.622 18.5634 20.2902 18.38 20.0505 18.1875C19.8846 18.0592 19.7739 17.8759 19.7371 17.7108ZM19.903 18.2334C19.9214 18.2517 19.9399 18.27 19.9675 18.2884C20.0136 18.3342 20.0689 18.3709 20.1242 18.3984C20.1242 18.3984 20.2349 19.7368 20.6128 20.186C20.7327 19.6909 20.4469 19.0401 20.2902 18.4992C20.3455 18.5267 20.4008 18.5542 20.4469 18.5725C20.8802 19.2784 21.3872 20.2868 20.9631 21.0477C20.9631 21.0477 20.5114 20.8368 20.2625 20.4335C20.0136 20.021 19.9491 19.1959 19.8938 18.3892C19.903 18.3342 19.903 18.2792 19.903 18.2334ZM21.295 21.3502C21.6361 21.0385 21.968 20.8552 22.1708 21.066C22.3736 21.2768 22.1523 21.5977 21.8205 21.9094C21.4794 22.2211 21.1291 22.3861 20.9447 22.1936C20.7511 21.9827 20.9631 21.6619 21.295 21.3502ZM21.4517 19.8468C21.083 19.1959 20.8617 18.7834 20.705 18.6367C20.8064 18.6459 20.8986 18.6459 21 18.6367L21.083 18.6276C21.3042 19.0401 21.7559 19.7093 22.1523 19.9476C22.1523 19.9476 22.2537 19.4068 21.0737 18.2975C21.0553 18.2517 21.0277 18.1967 21 18.1417C21.1106 18.1784 21.2305 18.2059 21.3687 18.1967H21.3872C21.8389 18.6459 22.7976 19.6726 22.7054 20.7727C22.7054 20.7818 21.8205 20.4976 21.4517 19.8468ZM21.4978 18.0592C20.8617 18.1417 20.5483 17.6192 20.4653 17.5183C20.4745 17.5092 20.5944 17.3533 20.622 17.115C20.8156 17.1883 20.9539 17.225 21.2489 17.4175C21.6637 17.7017 21.4978 18.0592 21.4978 18.0592ZM20.6128 16.84C20.6036 16.7941 20.5852 16.7208 20.5667 16.6658C20.7327 16.7116 20.9539 16.73 21.2305 16.6658L21.3042 16.6475L21.3227 16.5741C21.6545 16.84 22.0417 16.8858 22.1708 17.1241C22.1708 17.1241 22.0048 17.4267 21.5808 17.3717C21.1567 17.3258 20.8341 17.1333 20.6128 16.84ZM21.295 16.2899C21.2305 16.1983 21.1936 16.0608 21.0645 15.9233C21.3503 15.8774 21.5992 15.8683 21.9311 15.9324C22.3183 16.0058 22.7239 16.0974 22.9267 16.6933C22.9267 16.6933 22.6778 16.9041 22.2169 16.8125C21.8297 16.7391 21.4886 16.5741 21.295 16.2899ZM21.4609 15.6482C21.5623 15.5657 21.6545 15.4557 21.7191 15.3091L21.7467 15.2357C22.0878 15.0982 22.4381 15.0249 22.7884 15.1532C23.1387 15.2816 23.2309 15.4282 23.3139 15.5657C23.3139 15.5657 22.9267 15.8866 22.4842 15.8958C22.0509 15.9049 21.6453 15.7766 21.4609 15.6482ZM21.5347 14.2548C21.6914 14.2915 22.0601 14.2915 22.2261 14.2273C22.392 14.1632 22.7054 14.1632 22.9543 14.3282C22.9543 14.3282 22.8714 14.7682 22.309 14.9149C21.7744 15.0524 21.5808 15.0157 21.3595 14.9424C21.3042 14.924 21.2397 14.8965 21.1567 14.8874C21.3134 14.759 21.4609 14.5574 21.5347 14.2548ZM21.4886 14.044C21.4794 14.0348 21.3503 13.9615 21.1383 13.9432C21.3227 13.8057 21.7559 13.4481 22.0601 13.2648C22.392 13.0815 22.9543 12.8248 23.2401 12.7881C23.2401 12.7881 22.9728 13.4848 22.6594 13.769C22.3367 14.0623 22.1155 14.1723 21.5623 14.0898L21.4886 14.044ZM22.5672 14.9607C23.0097 14.7499 23.0834 14.374 23.0926 14.3557C23.6181 14.2548 23.9039 14.2182 24.5584 14.0073C25.2129 13.7965 25.6185 13.5306 25.6185 13.5306C25.3327 13.5581 25.0009 13.5856 24.5492 13.714C23.9776 13.879 23.6826 13.9798 23.0465 14.2182C22.8898 14.1173 22.7054 14.0623 22.5303 14.0532C22.982 13.8515 24.2818 13.3656 25.1299 13.109C25.8582 12.8889 26.7985 12.5956 27.9693 12.6323C27.9693 12.6323 27.7204 13.329 26.3745 13.8973C25.3604 14.3098 23.5075 14.5482 22.5672 14.9607ZM26.5957 11.5322C26.0887 12.2289 24.4478 13.3565 22.9636 13.6131C23.0097 13.549 23.1203 13.3931 23.1572 13.3198C23.7011 13.054 23.8393 12.9715 24.1067 12.8248C24.4109 12.6598 24.7796 12.4123 25.1299 12.1281C25.4434 11.8806 25.8306 11.3764 25.8306 11.3764C25.4065 11.523 24.9917 11.8256 24.7059 12.0364C24.3371 12.3114 23.7472 12.7606 23.2586 13.1548L23.4429 12.6323C24.0237 12.1831 24.8534 11.3672 25.1299 11.0922C25.4065 10.8172 26.4759 9.8913 26.9644 9.79047C26.9644 9.79047 27.1027 10.8355 26.5957 11.5322ZM22.7792 12.0639C23.1756 11.7981 23.5904 11.358 23.8762 11.1014C24.162 10.8447 24.5584 10.3222 24.7796 9.67129C24.5123 9.84547 24.2726 10.0563 23.9961 10.4047C23.5812 10.918 23.1479 11.4772 22.7884 11.9356L22.7976 11.7706C22.7976 11.6972 22.7976 11.6239 22.7976 11.5597V11.5414C23.1018 10.8997 23.5996 10.1113 23.9868 9.55212C24.3003 9.09377 25.0193 8.25956 25.5171 7.83787C25.637 8.3604 25.8121 9.34128 25.3788 10.1847C24.9363 11.028 23.8486 12.2381 22.7423 12.8248L22.6225 12.8798C22.4842 12.9348 22.3551 12.999 22.2353 13.054C22.3828 12.8981 22.5026 12.7331 22.5948 12.5681C22.6594 12.4489 22.7054 12.3298 22.7423 12.2106L22.7792 12.0639ZM21.6084 12.1006C21.7006 11.9539 22.0048 11.4222 22.6225 11.2572C22.6225 11.2572 22.7884 11.9447 22.475 12.4856C22.2076 12.9531 21.6637 13.4481 20.9908 13.769C21.1291 13.5948 21.2305 13.3473 21.3134 13.0631C21.378 12.8339 21.5255 12.2564 21.6084 12.1006ZM20.7142 13.8698C20.4284 14.099 20.3086 14.319 20.3086 14.319C20.9816 13.879 21.4148 14.154 21.4148 14.154C21.2858 14.869 20.6866 14.9974 20.6866 14.9974C21.3319 14.924 21.59 15.2449 21.59 15.2449C21.3503 15.7674 20.7327 15.7949 20.7327 15.7949C21.2766 16.2258 21.1844 16.5375 21.1844 16.5375C20.5759 16.6841 20.2441 16.3816 20.2441 16.3816C20.705 16.9866 20.3547 17.4358 20.3547 17.4358C19.7371 17.3533 19.5342 16.8675 19.5342 16.8675C19.5988 17.4175 19.3222 17.555 19.3222 17.555C18.9903 17.445 18.8244 17.1516 18.8244 17.1516C18.6493 17.5367 18.2344 17.6008 18.2344 17.6008C18.0593 17.2525 18.1883 16.9316 18.1883 16.9316C17.8288 17.0416 17.7274 16.8216 17.7274 16.8216C17.9486 16.5741 18.0869 16.1799 18.0869 16.1799C18.7046 16.4275 19.4697 16.2991 19.6817 16.0516C19.8938 15.8041 19.5342 15.1624 19.3499 14.704C19.1563 14.2548 19.4052 13.934 19.6356 13.7782C20.6405 13.0906 21.0184 12.5773 21.2397 12.0731C21.3503 13.0081 21 13.6407 20.7142 13.8698ZM20.6405 10.2488C20.6405 10.2488 20.2902 10.038 20.1703 10.2397C20.1703 10.1938 20.1611 10.148 20.1611 10.1021C20.1427 9.98298 20.1427 9.88214 20.1519 9.79963C20.3178 9.8638 20.4192 9.90047 20.6405 10.2488ZM20.2717 8.99293C20.2902 9.24044 20.1519 9.47879 20.0874 9.61629C20.0044 9.7813 20.0228 9.99214 20.0413 10.1205C20.0689 10.3405 20.0228 10.5788 19.8753 10.7988C19.8661 10.7163 19.8108 10.4322 19.7463 10.2397C19.6541 10.0013 19.7094 9.65296 19.8108 9.44212C19.9122 9.24044 19.9675 9.04793 19.9491 8.83709C19.9491 8.84625 20.1519 8.91959 20.2717 8.99293ZM19.2485 8.43374C19.5158 8.48874 19.8385 8.80042 19.8385 8.80042C19.8569 8.82792 19.8569 8.91043 19.8477 8.93793C19.7831 8.94709 19.7555 8.95626 19.6172 8.91959C19.4789 8.88292 19.3038 8.74542 19.1563 8.62624C19.0088 8.50707 18.9166 8.51624 18.9166 8.51624C18.9627 8.47957 19.0733 8.39707 19.2485 8.43374ZM18.8889 8.54374C18.8705 8.59874 18.8982 8.68125 18.935 8.78209C18.9811 8.89209 19.1655 9.15794 19.2208 9.26794C19.2853 9.38711 19.3775 9.54296 19.3314 9.76297C19.2853 10.0105 18.8889 10.1021 18.8889 10.1021C18.9627 10.0288 19.018 9.93714 19.0272 9.84547C19.0364 9.6713 18.935 9.52462 18.8705 9.41462C18.7968 9.30461 18.6677 9.01126 18.6677 8.90126C18.6677 8.79125 18.7691 8.66291 18.8889 8.54374ZM18.6585 10.5605C18.5939 10.7255 18.3358 10.918 18.3358 10.918C18.4096 10.7713 18.4649 10.5697 18.4741 10.3588C18.7414 10.2855 18.723 10.3955 18.6585 10.5605ZM18.5018 9.46045C18.4741 9.55212 18.1975 9.97381 18.1607 10.0196C18.0961 10.0105 18.1054 10.0105 17.9486 10.0013C17.9763 9.85464 18.0316 9.46962 18.1238 9.38712C18.2068 9.30461 18.3358 9.29544 18.4004 9.30461C18.4649 9.31378 18.5294 9.37795 18.5018 9.46045ZM17.5154 8.68125H17.7366V8.4429H17.9118V8.68125H18.133V8.83709H17.9118V9.12127H17.7366V8.83709H17.5154V8.68125ZM17.2388 9.30461C17.3033 9.30461 17.4324 9.30461 17.5154 9.38712C17.6076 9.46962 17.6629 9.85464 17.6905 10.0013C17.5246 10.0105 17.543 10.0105 17.4785 10.0196C17.4416 9.96464 17.1558 9.54295 17.1374 9.46045C17.1097 9.37795 17.1743 9.31378 17.2388 9.30461ZM16.6488 10.258C16.6488 10.258 16.2524 10.2855 15.8929 10.0838C15.727 9.98298 15.5795 9.7538 15.5426 9.65296C15.6901 9.63462 16.0496 9.67129 16.2709 9.8363C16.5013 9.99214 16.5658 10.1205 16.6488 10.258ZM16.151 7.97538C16.2432 8.00288 16.3446 8.06705 16.3446 8.14955C16.3538 8.28706 16.1971 8.69042 15.9666 9.24044C15.8284 9.16711 15.7638 9.15794 15.644 9.13043C15.6809 8.81875 15.8007 8.07622 15.9205 7.98455C15.9759 7.94788 16.0588 7.94788 16.151 7.97538ZM15.8284 7.76454C15.8284 7.76454 15.727 8.03955 15.6716 8.31456C15.6163 8.59874 15.5795 8.86459 15.5426 9.13043C15.4873 9.12127 15.4227 9.12127 15.3674 9.12127C15.4043 8.82792 15.5057 8.3329 15.5702 8.14039C15.6256 7.93871 15.6993 7.80121 15.8284 7.76454ZM14.9157 7.24201H15.137V7.00367H15.3121V7.24201H15.5334V7.39785H15.3121V7.68203H15.137V7.39785H14.9157V7.24201ZM14.8788 8.13122C14.9342 8.32373 15.0448 8.81875 15.0724 9.1121C15.0079 9.1121 14.9526 9.12127 14.8973 9.12127C14.8604 8.85542 14.8235 8.58958 14.7682 8.3054C14.7129 8.03038 14.6115 7.75537 14.6115 7.75537C14.7406 7.8012 14.8235 7.93871 14.8788 8.13122ZM14.2889 7.97538C14.381 7.94788 14.464 7.93871 14.5193 7.98455C14.6392 8.07622 14.7498 8.81875 14.7959 9.13043C14.676 9.14877 14.6115 9.16711 14.4732 9.24044C14.2428 8.69042 14.086 8.28706 14.0953 8.14955C14.1045 8.06705 14.1967 8.00288 14.2889 7.97538ZM14.169 9.82714C14.3903 9.6713 14.7498 9.62546 14.8973 9.64379C14.8696 9.7538 14.7221 9.97381 14.5562 10.0746C14.1967 10.2855 13.8003 10.2488 13.8003 10.2488C13.874 10.1205 13.9478 9.99214 14.169 9.82714ZM13.3025 9.46045C13.2748 9.55212 12.9982 9.97381 12.9522 10.0196C12.8876 10.0105 12.8968 10.0105 12.7401 10.0013C12.7678 9.85464 12.8323 9.46962 12.9153 9.38712C12.9982 9.30461 13.1273 9.29544 13.1918 9.30461C13.2656 9.31378 13.3301 9.37795 13.3025 9.46045ZM12.3068 8.68125H12.5281V8.4429H12.7032V8.68125H12.9245V8.83709H12.7032V9.12127H12.5281V8.83709H12.3068V8.68125ZM12.0395 9.30461C12.104 9.30461 12.2331 9.30461 12.3161 9.38712C12.4083 9.46962 12.4636 9.85464 12.4912 10.0013C12.3345 10.0105 12.3437 10.0105 12.2792 10.0196C12.2423 9.96464 11.9565 9.54295 11.9381 9.46045C11.9104 9.37795 11.975 9.31378 12.0395 9.30461ZM11.9658 10.3588C11.9842 10.5697 12.0395 10.7713 12.1133 10.918C12.1133 10.918 11.8551 10.7255 11.7906 10.5605C11.7169 10.3955 11.7076 10.2855 11.9658 10.3588ZM11.7722 8.90126C11.7722 9.02043 11.6339 9.30461 11.5694 9.41462C11.4956 9.52462 11.3942 9.6713 11.4034 9.84547C11.4126 9.93714 11.468 10.0196 11.5417 10.1021C11.5417 10.1021 11.1453 10.0105 11.0992 9.76297C11.0531 9.54296 11.1545 9.38711 11.2191 9.26794C11.2744 9.15794 11.4587 8.89209 11.5048 8.78209C11.5509 8.68125 11.5694 8.59874 11.5509 8.54374C11.6708 8.66291 11.7814 8.79125 11.7722 8.90126ZM10.6014 8.80959C10.6014 8.80959 10.9241 8.4979 11.2006 8.4429C11.3758 8.40623 11.4772 8.47957 11.5325 8.52541C11.5325 8.52541 11.4403 8.51624 11.2928 8.63541C11.1453 8.75459 10.9701 8.89209 10.8319 8.92876C10.6936 8.96543 10.6659 8.95626 10.6014 8.94709C10.583 8.91042 10.583 8.83709 10.6014 8.80959ZM10.5 8.84626C10.4816 9.0571 10.5369 9.24961 10.6383 9.45129C10.7489 9.66213 10.795 10.0105 10.712 10.2488C10.6383 10.4413 10.583 10.7163 10.5737 10.808C10.4263 10.588 10.3802 10.3497 10.4078 10.1296C10.4263 10.0013 10.4447 9.7813 10.3617 9.62546C10.2972 9.48795 10.1497 9.24044 10.1681 9.0021C10.288 8.91959 10.5 8.84626 10.5 8.84626ZM10.288 9.79963C10.2972 9.88214 10.2972 9.98298 10.2788 10.1021C10.2695 10.148 10.2695 10.1938 10.2695 10.2397C10.1497 10.0288 9.79939 10.2488 9.79939 10.2488C10.0206 9.90047 10.122 9.8638 10.288 9.79963ZM9.20939 12.0822C9.43986 12.5773 9.8086 13.0906 10.8134 13.7873C11.0347 13.9432 11.2836 14.264 11.0992 14.7132C10.9056 15.1624 10.5553 15.8041 10.7673 16.0608C10.9794 16.3083 11.7445 16.4366 12.3622 16.1891C12.3622 16.1891 12.4912 16.5833 12.7217 16.8308C12.7217 16.8308 12.6111 17.0508 12.2608 16.9408C12.2608 16.9408 12.3898 17.2617 12.2147 17.61C12.2147 17.61 11.7998 17.5367 11.6247 17.1608C11.6247 17.1608 11.4587 17.4542 11.1269 17.5642C11.1269 17.5642 10.8503 17.4267 10.9148 16.8766C10.9148 16.8766 10.712 17.3625 10.0944 17.445C10.0944 17.445 9.73486 16.9958 10.1958 16.3908C10.1958 16.3908 9.86392 16.6841 9.25549 16.5466C9.25549 16.5466 9.1633 16.2349 9.7072 15.8041C9.7072 15.8041 9.08955 15.7766 8.84987 15.2541C8.84987 15.2541 9.10799 14.9332 9.75329 15.0065C9.75329 15.0065 9.1633 14.8782 9.02502 14.1632C9.02502 14.1632 9.44908 13.8882 10.1313 14.3282C10.1313 14.3282 10.0114 14.099 9.72564 13.879C9.43986 13.6406 9.08955 13.0081 9.20939 12.0822ZM7.81738 11.2664C8.42581 11.4314 8.73925 11.9539 8.83143 12.1097C8.9144 12.2564 9.0619 12.8431 9.12643 13.0723C9.20939 13.3565 9.3108 13.604 9.44908 13.7782C8.77612 13.4573 8.23222 12.9623 7.96488 12.4948C7.66067 11.9447 7.81738 11.2664 7.81738 11.2664ZM4.93196 7.82871C5.42976 8.25039 6.14882 9.0846 6.46225 9.54295C6.84943 10.1021 7.34723 10.8905 7.65145 11.5322V11.5505C7.65145 11.6147 7.65145 11.6881 7.65145 11.7614L7.66067 11.9264C7.30114 11.468 6.86787 10.9089 6.45303 10.3955C6.16725 10.0471 5.92757 9.8363 5.66945 9.66213C5.89069 10.313 6.29631 10.8355 6.57287 11.0922C6.85865 11.3489 7.26427 11.7889 7.66989 12.0547L7.70676 12.1831C7.73442 12.3023 7.78973 12.4306 7.85426 12.5406C7.94645 12.7056 8.06629 12.8706 8.21378 13.0265C8.09394 12.9715 7.96488 12.9073 7.8266 12.8523L7.70676 12.7973C6.60975 12.2106 5.51273 11.0005 5.07024 10.1572C4.62774 9.33211 4.81212 8.35123 4.93196 7.82871ZM3.47542 9.79047C3.964 9.8913 5.03336 10.808 5.30992 11.0922C5.58648 11.3672 6.42537 12.1831 6.99693 12.6323L7.1813 13.1548C6.6835 12.7514 6.0935 12.3114 5.73398 12.0364C5.4482 11.8256 5.03336 11.523 4.60931 11.3764C4.60931 11.3764 4.99649 11.8806 5.30992 12.1281C5.66945 12.4123 6.03819 12.6598 6.33319 12.8248C6.60053 12.9715 6.73881 13.054 7.2827 13.3198C7.31958 13.384 7.4302 13.549 7.4763 13.6131C5.98288 13.3656 4.35119 12.2381 3.84416 11.5322C3.33714 10.8355 3.47542 9.79047 3.47542 9.79047ZM5.32836 13.109C6.17647 13.3656 7.4763 13.8515 7.92801 14.0532C7.76207 14.0623 7.56848 14.1082 7.41177 14.2182C6.77568 13.9707 6.48069 13.8698 5.90913 13.714C5.45742 13.5856 5.11633 13.5581 4.83055 13.5306C4.83055 13.5306 5.22695 13.7965 5.89069 14.0073C6.54522 14.2182 6.82177 14.2548 7.35645 14.3557C7.35645 14.374 7.43942 14.7499 7.88191 14.9607C6.94162 14.5482 5.07946 14.3098 4.08385 13.8973C2.73793 13.3381 2.48903 12.6323 2.48903 12.6323C3.65057 12.6048 4.60009 12.8889 5.32836 13.109ZM4.62774 14.4107C6.01975 14.5024 6.9324 14.8232 7.60536 15.0249C7.50395 15.0616 7.4302 15.0982 7.35645 15.1441C5.85382 14.7132 4.79368 14.9424 4.79368 14.9424C5.22695 15.0891 6.45303 15.2816 7.19052 15.2724C7.11677 15.3457 7.07068 15.4099 7.02458 15.4741C6.39772 15.4649 5.54039 15.6116 4.48025 15.3824C3.42011 15.1532 2.49825 14.5024 2.49825 14.5024C2.87621 14.4015 3.6137 14.3374 4.62774 14.4107ZM4.66462 15.8224C5.16242 15.7216 6.47147 15.7399 7.04302 15.6574C7.05224 15.6666 7.11677 15.7216 7.22739 15.7858C6.74803 15.8316 5.71554 15.8774 5.19008 16.1433C5.19008 16.1433 6.16725 16.2716 7.45786 15.8958C7.58692 15.9599 7.68832 15.9874 7.86348 16.0058C7.77129 16.0699 7.67911 16.1433 7.60536 16.2441C7.13521 16.3816 6.33319 16.5283 5.00571 16.62C3.67823 16.7116 2.97761 16.4733 2.97761 16.4733C3.42932 16.2074 4.16681 15.9141 4.66462 15.8224ZM3.8626 18.2059C4.34197 17.28 5.16242 16.95 5.60492 16.8125C6.05663 16.675 7.06146 16.5558 7.46708 16.4733C7.44864 16.5008 7.43942 16.5283 7.4302 16.565C7.09833 16.6475 6.65584 16.8033 6.25944 16.9683C5.8907 17.1241 5.54039 17.3717 5.54039 17.3717C6.25022 17.3533 6.96005 17.0691 7.49473 16.8308C7.56848 16.8766 7.71598 16.95 7.91879 16.9591C7.66067 17.0233 7.24583 17.1608 5.90913 17.7842C4.57243 18.4259 3.8626 18.2059 3.8626 18.2059ZM4.95961 19.4251C5.27305 18.4809 5.8446 18.0134 6.241 17.8117C6.6374 17.61 7.85426 17.1425 8.20457 17.0141C8.18613 17.0325 8.17691 17.0508 8.16769 17.0691L8.13082 17.1333C7.7252 17.3258 7.37489 17.4358 6.90474 17.7658C6.51756 18.0409 6.31475 18.4167 6.31475 18.4167C7.29192 18.0592 8.20457 17.2525 8.20457 17.2525C8.223 17.28 8.25066 17.3075 8.28753 17.3442C7.94644 17.5917 7.15364 18.38 6.47147 18.9484C5.78007 19.4984 4.95961 19.4251 4.95961 19.4251ZM6.32397 20.2868C6.40694 19.6909 6.56365 19.2234 7.01537 18.7192C7.45786 18.215 8.02941 17.7567 8.45347 17.445C8.56409 17.4908 8.70237 17.5275 8.87752 17.5C8.88674 17.5 8.90518 17.5 8.9144 17.4908C8.85909 17.5642 8.82221 17.6375 8.80377 17.7108C8.48112 17.8942 7.55926 18.3617 7.19052 19.1134C7.19052 19.1134 7.77129 18.9301 8.77612 17.8575C8.77612 17.94 8.79456 18.0134 8.80377 18.05C8.80377 18.0684 8.81299 18.0867 8.82221 18.105C8.46269 18.4534 8.20457 18.7834 7.6791 19.5168C7.16286 20.2593 6.32397 20.2868 6.32397 20.2868ZM8.45347 24.9162C8.01097 24.467 7.74364 23.917 7.6791 23.5503C7.56848 22.8811 7.8727 22.2852 7.98332 21.9644C8.06629 21.726 8.07551 21.561 8.05707 21.2768C8.06629 21.4785 8.223 21.726 8.52722 22.0102C8.84987 22.3127 9.13565 22.4411 9.35689 22.4044C9.35689 22.4044 9.02502 22.4686 8.82221 22.6519C8.65628 22.8078 8.42581 23.2294 8.35206 23.697C8.54565 23.3028 8.94206 23.0369 9.41221 23.0369C9.94689 23.0369 10.4078 23.4036 10.5461 23.8986C10.5184 23.9628 10.3617 24.3203 10.3248 24.3937C10.3248 24.3937 10.3341 24.2837 10.3341 24.2103C10.3341 23.697 9.91923 23.2844 9.41221 23.2844C8.90518 23.2844 8.49034 23.697 8.49034 24.2103C8.49034 24.4762 8.59175 24.7145 8.77612 24.8795C8.78534 24.8887 8.79456 24.8979 8.80377 24.907C8.97893 25.0354 9.30158 25.0262 9.38455 25.0262C9.4583 25.0262 9.55048 25.0537 9.55048 25.1454C9.55048 25.2462 9.39377 25.2554 9.39377 25.2554C9.23705 25.237 8.58253 25.237 8.58253 25.237C8.58253 25.1637 8.54566 25.017 8.45347 24.9162ZM8.73003 25.7962C8.64706 25.6679 8.59175 25.5762 8.61019 25.4937C8.62862 25.402 8.81299 25.3745 8.97893 25.347C9.12643 25.3287 9.37533 25.3195 9.44908 25.3287C9.56892 25.347 9.54127 25.4387 9.47674 25.5121C9.4122 25.5762 9.03424 25.7779 8.96971 25.8054C8.90518 25.8329 8.78534 25.8787 8.73003 25.7962ZM9.35689 26.1446C9.30158 26.1354 9.23705 26.1171 9.17252 26.0896C9.11721 26.0621 9.0619 26.0162 9.08955 25.9154C9.11721 25.8146 9.48595 25.5854 9.58736 25.5487C9.68876 25.512 9.79017 25.5487 9.82704 25.5762C9.86392 25.6037 9.8547 25.6679 9.82704 25.7137C9.79939 25.7596 9.62423 25.9704 9.57814 26.0346C9.54126 26.0987 9.44908 26.1537 9.35689 26.1446ZM10.1681 26.0254C10.0206 26.1262 9.76251 26.1537 9.71642 26.1537C9.67033 26.1629 9.64267 26.1079 9.66111 26.0804C9.67954 26.0529 9.82704 25.8696 9.88235 25.8054C10.0483 25.6129 10.2142 25.5854 10.3156 25.6496C10.4078 25.7321 10.3156 25.9246 10.1681 26.0254ZM11.2467 25.6679C10.9794 25.7046 10.7212 25.7229 10.4816 25.7137C10.4816 25.6496 10.4355 25.5946 10.4355 25.5946C10.4631 25.5579 10.4631 25.5029 10.4539 25.457C10.7028 25.4662 10.9517 25.457 11.2098 25.4204C11.6062 25.3562 12.0303 25.2737 12.4543 25.127L12.6111 25.3379C12.1409 25.512 11.6892 25.6037 11.2467 25.6679ZM14.6392 27.9597L13.9662 27.0155L14.1598 26.7313C14.381 27.043 14.547 27.2813 14.6115 27.3638C14.6945 27.2263 14.8327 26.9696 14.971 26.7313L15.1554 27.0521L14.6392 27.9597ZM14.6023 25.8146C14.4087 26.1079 13.8279 26.988 13.6804 27.208L13.957 27.3913L13.1457 27.7122V26.8504L13.4131 27.0338L14.4824 25.4204L14.6299 25.1912L15.8284 27.3638C16.0773 27.0155 18.0593 24.2378 18.1883 24.0545L17.9302 23.8711L18.7322 23.5686L18.7138 24.4395L18.4464 24.247L15.8007 27.9597L14.6023 25.8146ZM16.4829 27.3913L16.7502 27.208C16.7226 27.1621 16.6857 27.098 16.6304 27.0155L16.8332 26.7313L17.0268 27.0246L17.2941 26.8413L17.3033 27.703L16.4829 27.3913ZM19.9675 25.7137C19.7186 25.7229 19.4605 25.7046 19.1932 25.6679C18.7599 25.6037 18.2989 25.512 17.838 25.3379L17.9855 25.127C18.4096 25.2829 18.8336 25.3654 19.23 25.4204C19.4881 25.457 19.7463 25.4754 19.986 25.457C19.986 25.4937 19.986 25.5487 20.0044 25.5946C20.0136 25.5946 19.9675 25.6496 19.9675 25.7137ZM20.7327 26.1629C20.6866 26.1537 20.4284 26.1354 20.281 26.0346C20.1335 25.9337 20.032 25.7412 20.1334 25.6679C20.2349 25.5946 20.3916 25.6312 20.5667 25.8237C20.622 25.8879 20.7695 26.0712 20.788 26.0987C20.8064 26.1171 20.7788 26.1629 20.7327 26.1629ZM21.2673 26.0987C21.212 26.1262 21.1383 26.1446 21.0922 26.1537C21 26.1629 20.9078 26.1079 20.8617 26.0437C20.8156 25.9887 20.6405 25.7687 20.6128 25.7229C20.5852 25.6771 20.5759 25.6037 20.6128 25.5854C20.6589 25.5579 20.7511 25.5212 20.8617 25.5579C20.9631 25.5946 21.3411 25.8146 21.3595 25.9246C21.378 26.0254 21.3227 26.0712 21.2673 26.0987ZM21.7098 25.7962C21.6545 25.8787 21.5347 25.8329 21.4701 25.8054C21.4056 25.7779 21.0184 25.5762 20.9631 25.5121C20.9078 25.4479 20.8802 25.347 20.9908 25.3287C21.0737 25.3195 21.3134 25.3195 21.4609 25.347C21.6269 25.3745 21.8112 25.402 21.8297 25.4937C21.8481 25.5854 21.7928 25.6679 21.7098 25.7962ZM22.7608 23.5503C22.6962 23.917 22.4381 24.467 21.9864 24.9162C21.8942 25.017 21.8573 25.1637 21.8481 25.2462C21.8481 25.2462 21.1936 25.2462 21.0369 25.2645C21.0369 25.2645 20.8802 25.2462 20.8802 25.1545C20.8802 25.0537 20.9723 25.0354 21.0461 25.0354C21.1198 25.0354 21.4517 25.0445 21.6269 24.9162C21.6361 24.907 21.6453 24.8979 21.6545 24.8887C21.8297 24.7328 21.9403 24.4853 21.9403 24.2195C21.9403 23.7061 21.5255 23.2936 21.0184 23.2936C20.5114 23.2936 20.0966 23.7061 20.0966 24.2195C20.0966 24.2928 20.1058 24.4028 20.1058 24.4028C20.0597 24.3203 19.9122 23.972 19.8846 23.9078C20.0228 23.4128 20.4745 23.0461 21.0184 23.0461C21.4794 23.0461 21.885 23.3119 22.0786 23.7061C22.0048 23.2386 21.7744 22.8169 21.6084 22.6611C21.4148 22.4777 21.0737 22.4136 21.0737 22.4136C21.295 22.4502 21.5808 22.3127 21.9034 22.0194C22.2076 21.7352 22.3736 21.4969 22.3736 21.286C22.3551 21.5794 22.3644 21.7352 22.4473 21.9735C22.5579 22.2852 22.8714 22.8811 22.7608 23.5503ZM22.7515 19.5259C22.2261 18.7926 21.9587 18.4625 21.6084 18.1142C21.6176 18.0959 21.6269 18.0684 21.6269 18.0592C21.6361 18.0225 21.6545 17.9492 21.6545 17.8667C22.6594 18.9392 23.2493 19.1226 23.2493 19.1226C22.8806 18.3709 21.9495 17.9034 21.6361 17.72C21.6176 17.6558 21.5808 17.5825 21.5255 17.5C21.5347 17.5 21.5531 17.5092 21.5716 17.5092C21.7467 17.5275 21.885 17.5 21.9956 17.4542C22.4197 17.7567 22.982 18.2242 23.4337 18.7284C23.8762 19.2326 24.0421 19.7001 24.1251 20.296C24.1159 20.2868 23.2862 20.2593 22.7515 19.5259ZM23.9776 18.9301C23.2954 18.3617 22.5026 17.5825 22.1708 17.3258C22.2076 17.2983 22.2261 17.2617 22.2537 17.2342C22.2537 17.2342 23.1756 18.05 24.1435 18.3984C24.1435 18.3984 23.9407 18.0225 23.5536 17.7475C23.0834 17.4175 22.7331 17.2983 22.3275 17.115L22.2814 17.06C22.2722 17.0416 22.2537 17.0233 22.2445 17.005C22.5856 17.1425 23.8117 17.6008 24.2081 17.8025C24.6045 18.0042 25.176 18.4717 25.4802 19.4159C25.4802 19.4251 24.6598 19.4984 23.9776 18.9301ZM24.5399 17.7933C23.2033 17.1608 22.7884 17.0325 22.5303 16.9683C22.7331 16.95 22.8806 16.8858 22.9543 16.84C23.489 17.0783 24.1989 17.3625 24.9087 17.3808C24.9087 17.3808 24.5584 17.1333 24.1896 16.9775C23.7932 16.8125 23.3507 16.6566 23.0189 16.5741C23.0097 16.5375 22.9912 16.51 22.982 16.4825C23.3876 16.565 24.3925 16.6841 24.8442 16.8216C25.2959 16.9591 26.1071 17.2892 26.5865 18.215C26.5865 18.2059 25.8766 18.4259 24.5399 17.7933ZM25.4434 16.6383C24.1159 16.5466 23.3139 16.3908 22.8437 16.2624C22.7608 16.1616 22.6778 16.0791 22.5856 16.0241C22.7608 16.0058 22.8529 15.9783 22.9912 15.9141C24.2818 16.2899 25.259 16.1616 25.259 16.1616C24.7243 15.8958 23.7011 15.8408 23.2217 15.8041C23.3323 15.7399 23.4061 15.6757 23.4061 15.6757C23.9776 15.7583 25.2867 15.7399 25.7845 15.8408C26.2823 15.9416 27.0198 16.2258 27.4807 16.51C27.4715 16.4916 26.7709 16.73 25.4434 16.6383ZM25.9596 15.3824C24.8995 15.6116 24.0421 15.4649 23.4153 15.4741C23.3784 15.4099 23.3231 15.3457 23.2493 15.2724C23.9868 15.2816 25.2129 15.0891 25.6462 14.9424C25.6462 14.9424 24.5768 14.7224 23.0834 15.1441C23.0189 15.1074 22.9359 15.0616 22.8345 15.0249C23.5075 14.8232 24.4293 14.4932 25.8121 14.4107C26.8262 14.3465 27.5637 14.4015 27.9416 14.5024C27.9508 14.5024 27.0198 15.1532 25.9596 15.3824Z" fill="white"/>
<path d="M19.1119 11.0465C19.1119 10.9824 19.0658 10.9365 19.0012 10.9365C18.9459 10.9365 18.8906 10.9824 18.8906 11.0465C18.8906 11.1107 18.9367 11.1565 19.0012 11.1565C19.0566 11.1565 19.1119 11.1107 19.1119 11.0465Z" fill="white"/>
<path d="M11.4412 10.9365C11.3859 10.9365 11.3398 10.9824 11.3398 11.0465C11.3398 11.1107 11.3859 11.1565 11.4412 11.1565C11.5058 11.1565 11.5519 11.1107 11.5519 11.0465C11.5519 10.9915 11.5058 10.9365 11.4412 10.9365Z" fill="white"/>
<path d="M17.8101 10.9543C17.9023 10.8901 17.9576 10.7984 17.9761 10.6701C17.9761 10.6701 17.5612 10.6884 17.2109 10.6426V10.6701C17.2109 10.6701 17.7917 10.6701 17.8101 10.9543Z" fill="white"/>
<path d="M15.7656 9.78125C15.7656 9.78125 16.0237 10.0563 16.2819 10.1113C16.2727 10.1113 16.1712 9.83625 15.7656 9.78125Z" fill="white"/>
<path d="M14.168 10.1113C14.4261 10.0471 14.6842 9.78125 14.6842 9.78125C14.2694 9.83625 14.168 10.1113 14.168 10.1113Z" fill="white"/>
<path d="M13.2286 10.6701V10.6426C12.8783 10.6884 12.4727 10.6701 12.4727 10.6701C12.4911 10.7984 12.5464 10.8993 12.6386 10.9543C12.657 10.6701 13.2286 10.6701 13.2286 10.6701Z" fill="white"/>
<path d="M34.9102 9.58008H38.8834V16.2537H37.6573V10.6893H36.1362V16.2537H34.9102V9.58008Z" fill="white"/>
<path d="M45.2422 11.4872V9.58046H46.4683V11.3589C46.4683 11.5147 46.5144 11.6247 46.6065 11.7164C46.7356 11.8447 46.9384 11.8997 47.215 11.8997H47.8787V9.57129H49.1048V16.2449H47.8787V13.0181H46.9845C46.5051 13.0181 46.0903 12.8714 45.7492 12.5781C45.4173 12.2939 45.2422 11.9272 45.2422 11.4872Z" fill="white"/>
<path d="M49.8995 25.4299H48.6734V21.9922H46.9864V25.4299H45.7695V18.7471H46.9864V20.883H48.6734V18.7471H49.8995V25.4299Z" fill="white"/>
<path d="M50.4727 10.6893V9.58008H53.7545V10.6893H52.7404V16.2537H51.4959V10.6893H50.4727Z" fill="white"/>
<path d="M54.6946 25.4299L53.487 22.0381C53.3948 22.0381 52.7495 22.0381 52.7495 22.0381V25.4299H51.5234V18.7471H52.7495C52.7495 18.7471 52.7495 20.9013 52.7495 20.9563H53.2565C53.9111 20.9563 54.0954 20.3696 54.1507 19.728C54.1876 19.2971 54.2153 18.8754 54.2245 18.7471H55.4321C55.4321 18.7471 55.2938 19.9846 55.1924 20.4063C55.0818 20.8463 54.8514 21.2772 54.5379 21.5064L56.0129 25.4207H54.6946V25.4299Z" fill="white"/>
<path d="M36.7078 20.938C36.4958 20.938 36.3114 20.9472 36.1362 20.9472V19.8563H38.3395V18.7471H34.9102V25.4207H36.7723C38.6253 25.4207 38.9203 23.7706 38.9203 23.1564C38.9203 22.4414 38.6345 20.938 36.7078 20.938ZM36.5603 24.394C36.4404 24.394 36.1455 24.3665 36.1455 24.3665V22.0197C36.1455 22.0197 36.2376 22.0014 36.3483 22.0014C36.9751 22.0014 37.7034 21.9647 37.7034 23.2023C37.6942 24.3207 36.8922 24.394 36.5603 24.394Z" fill="white"/>
<path d="M44.3427 12.6779C44.3243 11.7246 44.1584 11.037 43.9003 10.5512C43.5039 9.71695 42.8586 9.41444 42.204 9.40527H42.1948H42.1856C41.5311 9.41444 40.895 9.72612 40.4894 10.5512C40.2312 11.037 40.0745 11.7246 40.0469 12.6779C40.0469 12.6779 40.0469 12.8888 40.0469 12.8979C40.0469 13.4938 40.1114 14.0713 40.2405 14.5389C40.5816 15.9048 41.3559 16.3906 42.1672 16.4089C42.1764 16.4089 42.1764 16.4089 42.1856 16.4089H42.1948H42.204C42.2132 16.4089 42.2132 16.4089 42.2225 16.4089C43.0337 16.3906 43.8173 15.9139 44.1492 14.5389C44.2782 14.0713 44.3427 13.4938 44.3427 12.8979V12.6779ZM43.1167 12.9254C43.1075 14.6947 42.6557 15.2906 42.1856 15.2997C41.7154 15.2906 41.273 14.6855 41.2545 12.9254C41.2637 11.1195 41.7154 10.5237 42.1856 10.5145C42.665 10.5237 43.1075 11.1195 43.1167 12.9254Z" fill="white"/>
<path d="M44.0167 20.5438C43.8784 19.3613 43.3253 18.7471 42.0162 18.7471H40.3477L40.1172 25.4207H41.334C41.334 25.4207 41.4447 22.3222 41.4539 22.1756C41.5829 22.1756 42.8643 22.1756 42.9842 22.1756C43.0026 22.3131 43.2239 25.4207 43.2239 25.4207H44.4776C44.4868 25.4299 44.0535 20.8372 44.0167 20.5438ZM41.4723 21.0755C41.4723 20.938 41.5 19.9938 41.5 19.8655L41.7212 19.8563C42.6154 19.8563 42.7814 20.0305 42.8643 21.0847H41.4723V21.0755Z" fill="white"/>
<path d="M58.751 11.3768C58.6128 10.1943 58.0596 9.58008 56.7506 9.58008H55.082L54.8516 16.2537H56.0684C56.0684 16.2537 56.179 13.1552 56.1883 13.0086C56.3173 13.0086 57.5987 13.0086 57.7186 13.0086C57.737 13.1461 57.9582 16.2537 57.9582 16.2537H59.212C59.212 16.2537 58.7787 11.6702 58.751 11.3768ZM56.2067 11.8994C56.2067 11.7618 56.2344 10.8176 56.2344 10.6893H56.4648C57.359 10.6893 57.5065 10.8451 57.5895 11.8994H56.2067Z" fill="white"/>
</svg>
