<svg width="63" height="35" viewBox="0 0 63 35" fill="none" xmlns="http://www.w3.org/2000/svg">
<path d="M58.5566 0.91671C60.5018 0.91671 62.0781 2.48428 62.0781 4.41854V30.5815C62.0781 32.5157 60.5018 34.0833 58.5566 34.0833H4.43415C2.49824 34.0833 0.921861 32.5157 0.921861 30.5815V4.41854C0.921861 2.48428 2.49824 0.91671 4.43415 0.91671H58.5566ZM58.5566 0H4.43415C1.982 0 0 1.98009 0 4.41854V30.5815C0 33.0199 1.982 35 4.43415 35H58.5566C61.0088 35 63 33.0199 63 30.5815V4.41854C63 1.98009 61.0088 0 58.5566 0Z" fill="white"/>
<path d="M15.1732 11.9902C12.085 11.9902 9.63281 14.4654 9.63281 17.4997C9.63281 20.5706 12.1218 23.0091 15.1732 23.0091C18.2246 23.0091 20.7136 20.534 20.7136 17.4997C20.7505 14.4654 18.2246 11.9902 15.1732 11.9902ZM15.1732 19.5623C14.0485 19.5623 13.099 18.618 13.099 17.4997C13.099 16.3813 14.0485 15.4371 15.1732 15.4371C16.2979 15.4371 17.2474 16.3813 17.2474 17.4997C17.2474 18.618 16.3255 19.5623 15.1732 19.5623Z" fill="white"/>
<path d="M9.624 13.5947V21.6159H7.62356L5.09766 13.5947H9.624Z" fill="white"/>
<path d="M56.387 15.0258L55.1609 18.0234C55.124 18.0601 55.124 18.1243 55.124 18.1609L55.0871 18.2343L55.0503 18.1609C55.0503 18.1243 55.0134 18.0601 55.0134 18.0234L53.7873 15.0258H52.2109L54.2851 20.1502L53.4094 22.1028H54.9857L57.8988 15.0166H56.387V15.0258Z" fill="white"/>
<path d="M44.744 15.3001C44.4674 15.0893 44.1171 14.9518 43.6931 14.9151C42.9925 14.8418 42.3287 15.0893 41.8678 15.5385V14.9793H40.4297V20.1037H41.8678V17.4177C41.8678 16.8219 41.9692 16.6477 42.0798 16.5102C42.255 16.2352 42.5684 16.0885 42.9556 16.0885C43.3428 16.0885 43.6931 16.2627 43.8682 16.5377C43.9696 16.7485 44.0065 17.0235 44.0065 17.161C44.0065 17.6102 44.0065 20.0945 44.0065 20.0945H45.4446V16.9869C45.4446 16.2077 45.1957 15.6485 44.744 15.3001Z" fill="white"/>
<path d="M37.6974 15.0609C36.9968 14.8134 36.2225 14.85 35.5219 15.1617C35.0701 15.3726 34.6461 15.7209 34.3972 16.1701C34.1483 16.5551 34.0469 17.041 34.0469 17.5635C34.0469 18.086 34.1483 18.5719 34.3972 18.9569C34.6461 19.3419 34.9595 19.6903 35.3836 19.9011C35.8076 20.112 36.2962 20.2495 36.7479 20.2495C36.9968 20.2495 37.2365 20.2128 37.4854 20.1486C37.6974 20.0753 37.9095 20.0111 38.1123 19.9011C38.5363 19.6536 38.8867 19.3419 39.0987 18.9569C39.3476 18.5719 39.449 18.086 39.449 17.5635C39.4859 16.4176 38.8129 15.4367 37.6974 15.0609ZM38.1123 17.6368C38.0754 18.086 37.9371 18.471 37.6606 18.7186C37.4485 18.8927 37.1351 18.9936 36.7479 19.0302C36.3607 19.0302 36.0842 18.9294 35.8353 18.7186C35.5587 18.471 35.4112 18.0952 35.3836 17.6368C35.3467 17.1143 35.5587 16.6926 35.9459 16.4176C36.1579 16.2801 36.4345 16.1701 36.7203 16.1701C37.0337 16.1701 37.2826 16.2709 37.5315 16.4176C37.9371 16.6651 38.1492 17.1143 38.1123 17.6368Z" fill="white"/>
<path d="M32.396 15.2991C32.1194 15.0882 31.7691 14.9507 31.3451 14.9141C31.2713 14.9141 31.1699 14.9141 31.0962 14.9141C30.5338 14.9141 30.0452 15.1616 29.6212 15.6474L29.5474 15.7483H29.4092C29.3077 15.5741 29.1603 15.4366 29.022 15.3266C28.7454 15.1157 28.3951 14.9782 27.971 14.9416C27.3073 14.8682 26.7818 15.0791 26.3209 15.5649V15.0424H24.8828V20.1668H26.3209V17.4992V17.4258C26.3209 16.8667 26.3947 16.7292 26.4961 16.555C26.6712 16.28 26.9847 16.1058 27.335 16.1333C27.6853 16.1333 27.9987 16.3075 28.1739 16.5825C28.3121 16.7933 28.3121 17.0317 28.3121 17.2792V20.1393H29.7502V17.38C29.7502 16.8575 29.824 16.6833 29.9254 16.5091C30.1005 16.2341 30.414 16.0875 30.7643 16.0875C31.1146 16.0875 31.3912 16.2616 31.5755 16.5366C31.6769 16.7108 31.7138 16.9217 31.7138 17.0592C31.7138 17.1325 31.7138 17.1967 31.7138 17.2333V20.0935H33.1519V16.9583C33.1519 16.6833 33.115 16.3991 33.0505 16.1516C32.9214 15.8216 32.7094 15.5099 32.396 15.2991Z" fill="white"/>
<path d="M50.8481 18.5811C50.6361 18.7919 50.1475 19.177 49.4837 19.2045C48.9214 19.2411 48.4973 19.0669 48.1839 18.7553C48.0456 18.6178 47.935 18.4069 47.8705 18.1961H51.8345V18.1594C51.8714 17.9486 51.9082 17.7744 51.9082 17.5635C51.9082 17.3894 51.8714 17.1419 51.8068 16.8302C51.6317 16.2343 51.2814 15.7851 50.8204 15.4368C50.295 15.0518 49.8064 14.9509 49.6589 14.9509C48.6448 14.7767 47.4833 15.2259 46.8841 16.1701C46.46 16.8302 46.4969 17.4994 46.4969 17.7011C46.4969 17.9486 46.5338 18.7094 47.1606 19.4061C47.8981 20.2128 48.9122 20.2403 49.2348 20.277C50.6361 20.3137 51.5856 19.4428 51.7976 19.2686L50.8481 18.5811ZM48.3867 16.4177C48.5987 16.2801 48.8384 16.1701 49.1611 16.1701C49.4745 16.1701 49.7234 16.271 49.9723 16.4177C50.1844 16.5918 50.3595 16.8027 50.4609 17.041H47.935C47.9719 16.8027 48.147 16.5552 48.3867 16.4177Z" fill="white"/>
</svg>
