<svg width="63" height="35" viewBox="0 0 63 35" fill="none" xmlns="http://www.w3.org/2000/svg">
<path d="M58.5566 0.91671C60.5018 0.91671 62.0781 2.48428 62.0781 4.41854V30.5815C62.0781 32.5157 60.5018 34.0833 58.5566 34.0833H4.43415C2.49824 34.0833 0.921861 32.5157 0.921861 30.5815V4.41854C0.921861 2.48428 2.49824 0.91671 4.43415 0.91671H58.5566ZM58.5566 0H4.43415C1.982 0 0 1.98009 0 4.41854V30.5815C0 33.0199 1.982 35 4.43415 35H58.5566C61.0088 35 63 33.0199 63 30.5815V4.41854C63 1.98009 61.0088 0 58.5566 0Z" fill="white"/>
<path d="M26.1348 17.4998C26.1348 13.3288 28.2643 9.65279 31.5 7.48019C29.5641 6.17846 27.2318 5.42676 24.7151 5.42676C18.004 5.42676 12.5742 10.8353 12.5742 17.4998C12.5742 24.1643 18.0132 29.5729 24.7151 29.5729C27.2226 29.5729 29.5641 28.812 31.5 27.5195C28.2643 25.3469 26.1348 21.6709 26.1348 17.4998Z" stroke="white" stroke-miterlimit="10" stroke-linecap="round" stroke-linejoin="round"/>
<path d="M38.2849 5.42676C35.7774 5.42676 33.4359 6.18763 31.5 7.48019C34.7357 9.65279 36.8652 13.3288 36.8652 17.4998C36.8652 21.6709 34.7357 25.3469 31.5 27.5195C33.4359 28.8212 35.7682 29.5729 38.2849 29.5729C44.9868 29.5729 50.4258 24.1643 50.4258 17.4998C50.4258 10.8262 44.9868 5.42676 38.2849 5.42676Z" stroke="white" stroke-miterlimit="10" stroke-linecap="round" stroke-linejoin="round"/>
<path d="M31.498 27.5198C34.4612 27.5198 36.8633 23.0338 36.8633 17.5001C36.8633 11.9664 34.4612 7.48047 31.498 7.48047C28.5349 7.48047 26.1328 11.9664 26.1328 17.5001C26.1328 23.0338 28.5349 27.5198 31.498 27.5198Z" stroke="white" stroke-miterlimit="10" stroke-linecap="round" stroke-linejoin="round"/>
</svg>
