<svg width="63" height="35" viewBox="0 0 63 35" fill="none" xmlns="http://www.w3.org/2000/svg">
<path d="M58.5566 0.91671C60.5018 0.91671 62.0781 2.48428 62.0781 4.41854V30.5815C62.0781 32.5157 60.5018 34.0833 58.5566 34.0833H4.43415C2.49824 34.0833 0.921861 32.5157 0.921861 30.5815V4.41854C0.921861 2.48428 2.49824 0.91671 4.43415 0.91671H58.5566ZM58.5566 0H4.43415C1.982 0 0 1.98009 0 4.41854V30.5815C0 33.0199 1.982 35 4.43415 35H58.5566C61.0088 35 63 33.0199 63 30.5815V4.41854C63 1.98009 61.0088 0 58.5566 0Z" fill="white"/>
<path d="M39.9243 13.0352V21.7256C39.9243 21.8631 39.8229 21.964 39.6847 21.964H37.9055C37.7672 21.964 37.6658 21.8631 37.6658 21.7256V13.0352C37.6658 12.8977 37.7672 12.7969 37.9055 12.7969H39.6847C39.8137 12.8152 39.9243 12.9161 39.9243 13.0352ZM53.8444 12.8152H51.8532C51.7518 12.8152 51.6596 12.8886 51.632 12.9894L50.0556 18.1413L48.3225 12.9894C48.2856 12.8886 48.2027 12.8336 48.1012 12.8336H46.7C46.5986 12.8336 46.5064 12.9069 46.4788 12.9894L44.7457 18.1413L43.1693 12.9894C43.1324 12.8886 43.0494 12.8152 42.948 12.8152H40.9568C40.8831 12.8152 40.8001 12.8519 40.7632 12.9161C40.7079 12.9894 40.7079 13.0536 40.7264 13.1269L43.6671 21.8356C43.704 21.9365 43.7869 21.9915 43.8883 21.9915H45.4832C45.5846 21.9915 45.6768 21.9181 45.7044 21.8356L47.4191 16.7571L49.1337 21.8356C49.1706 21.9365 49.2536 21.9915 49.355 21.9915H50.9498C51.0512 21.9915 51.1434 21.9181 51.171 21.8356L54.1118 13.1269C54.1302 13.0536 54.1302 12.9711 54.0749 12.9161C53.9919 12.8519 53.9274 12.8152 53.8444 12.8152ZM56.8497 12.8152H55.0705C54.9322 12.8152 54.8308 12.9161 54.8308 13.0536V21.744C54.8308 21.8815 54.9322 21.9823 55.0705 21.9823H56.8497C56.988 21.9823 57.0894 21.8815 57.0894 21.744V13.0536C57.0986 12.9161 56.9696 12.8152 56.8497 12.8152ZM36.6333 21.6798C36.7347 21.799 36.6517 21.9732 36.495 21.9732H34.3102C34.2272 21.9732 34.135 21.9365 34.089 21.8723L33.7294 21.4231C32.9643 21.909 32.0701 22.2023 31.1113 22.2023C28.4472 22.2023 26.2808 20.0481 26.2808 17.3988C26.2808 14.7495 28.4472 12.5952 31.1113 12.5952C33.7755 12.5952 35.9419 14.7495 35.9419 17.3988C35.9419 18.343 35.6653 19.2414 35.1768 20.0022L36.6333 21.6798ZM32.2821 19.7547L31.3326 18.5997C31.2312 18.4805 31.3142 18.288 31.4709 18.288H33.4805C33.5819 18.013 33.6372 17.7013 33.6372 17.3896C33.6372 15.9595 32.5679 14.722 31.0929 14.722C29.6179 14.722 28.5486 15.9595 28.5486 17.3896C28.5486 18.8197 29.6179 20.0389 31.0929 20.0389C31.5262 20.0664 31.9226 19.9381 32.2821 19.7547ZM20.7588 21.6431C20.8142 22.0007 20.6851 22.1565 20.5837 22.1565C20.4638 22.1565 20.3071 22.0007 20.1135 21.7256C19.9199 21.4323 19.8554 21.1023 19.9568 20.9464C20.0121 20.8456 20.1504 20.7906 20.3071 20.8456C20.6021 20.9556 20.722 21.4231 20.7588 21.6431ZM19.0442 22.4223C19.4037 22.734 19.5328 23.1099 19.3392 23.3666C19.2378 23.5041 19.0626 23.5866 18.8414 23.5866C18.6293 23.5866 18.4265 23.5132 18.2698 23.3757C17.9379 23.0824 17.8365 22.5965 18.0578 22.3398C18.1408 22.239 18.279 22.184 18.4542 22.184C18.6478 22.1932 18.8506 22.2848 19.0442 22.4223ZM18.4173 25.4383C20.0121 25.4383 21.7452 25.9883 23.6627 27.6751C23.8563 27.8493 24.1144 27.6384 23.9393 27.4184C22.0494 25.0625 20.3163 24.6133 18.5925 24.2374C16.463 23.7699 15.3752 22.5873 14.61 21.2765C14.4533 21.0198 14.3888 21.0656 14.3888 21.3956C14.3703 21.8081 14.4072 22.3398 14.4902 22.8807C14.4072 22.8807 14.315 22.8807 14.2321 22.8807C11.1991 22.8807 8.72855 20.4331 8.72855 17.4079C8.72855 14.392 11.1899 11.9352 14.2321 11.9352C17.2742 11.9352 19.7356 14.3828 19.7356 17.4079C19.7356 17.6188 19.7171 17.8388 19.6987 18.0405C19.3023 17.9671 18.5003 17.958 17.9472 18.0038C17.7351 18.0221 17.772 18.123 17.9287 18.1413C19.7448 18.4713 20.9893 19.5897 21.2843 21.6156C21.2843 21.6706 21.3581 21.689 21.3673 21.634C22.114 20.3964 22.5473 18.948 22.5473 17.3804C22.5473 12.8152 18.8229 9.10254 14.2228 9.10254C9.62276 9.10254 5.89844 12.806 5.89844 17.3804C5.89844 21.9457 9.62276 25.6583 14.2228 25.6583C15.4397 25.6767 16.6566 25.4383 18.4173 25.4383Z" fill="white"/>
</svg>
