<svg width="36" height="42" viewBox="0 0 36 42" fill="none" xmlns="http://www.w3.org/2000/svg">
<path d="M24.0176 11.9895H34.9999L24.0176 1V11.9895Z" fill="white" stroke="white" stroke-miterlimit="10" stroke-linecap="round" stroke-linejoin="round"/>
<path d="M24.0169 1H3.17969V41.27H34.9992V11.9895L24.0169 1Z" stroke="white" stroke-miterlimit="10" stroke-linecap="round" stroke-linejoin="round"/>
<path d="M14.8865 11.7373C15.439 10.0202 15.3494 8.97501 15.1926 8.50468C14.8791 7.54161 14.2818 7.02648 13.7816 7.14593C13.2814 7.26538 12.9828 7.99701 13.1395 8.99741C13.2217 9.49015 13.6173 10.4607 14.8865 11.7373Z" stroke="white" stroke-miterlimit="10" stroke-linecap="round" stroke-linejoin="round"/>
<path d="M13.103 17.793C11.3411 18.1737 10.4825 18.7784 10.154 19.1443C9.48208 19.8983 9.33276 20.6747 9.68366 21.048C10.042 21.4213 10.8259 21.3168 11.6099 20.6747C11.9906 20.3612 12.6327 19.5325 13.103 17.793Z" stroke="white" stroke-miterlimit="10" stroke-linecap="round" stroke-linejoin="round"/>
<path d="M19.2402 16.3117C20.4497 17.648 21.4053 18.0885 21.8831 18.193C22.8686 18.4021 23.6152 18.1408 23.7645 17.648C23.9139 17.1553 23.4211 16.5282 22.4804 16.1698C22.025 15.9907 20.9798 15.8488 19.2402 16.3117Z" stroke="white" stroke-miterlimit="10" stroke-linecap="round" stroke-linejoin="round"/>
<path d="M19.2393 16.3107L17.0667 14.0188L14.8867 11.7344" stroke="white" stroke-miterlimit="10" stroke-linecap="round" stroke-linejoin="round"/>
<path d="M14.8879 11.7344L13.9994 14.758L13.1035 17.789L16.172 17.0499L19.2404 16.3108" stroke="white" stroke-miterlimit="10" stroke-linecap="round" stroke-linejoin="round"/>
<path d="M29.5125 24.4961H0V35.172H29.5125V24.4961Z" fill="#FE0000"/>
<path d="M4.15059 30.5515V32.8958H3.1875V26.7812H7.19666C8.62264 26.7812 9.40656 27.6324 9.40656 28.6552C9.40656 29.6705 8.61518 30.5515 7.19666 30.5515H4.15059ZM4.15059 27.5801V29.7452H7.00255C7.93578 29.7452 8.40613 29.3196 8.40613 28.6477C8.40613 27.9907 7.93578 27.5726 7.00255 27.5726H4.15059V27.5801Z" fill="white"/>
<path d="M10.8262 32.888V26.7734H14.6412C17.0826 26.7734 18.5608 27.8784 18.5608 29.827C18.5608 31.7905 17.0826 32.8805 14.6412 32.8805H10.8262V32.888ZM14.6412 32.104C16.3136 32.104 17.5529 31.35 17.5529 29.8344C17.5529 28.3338 16.3136 27.5797 14.6412 27.5797H11.7818V32.104H14.6412Z" fill="white"/>
<path d="M21.1272 30.3048V32.888H20.1641V26.7734H26.3159V27.5723H21.1272V29.4985H25.3902V30.2973H21.1272V30.3048Z" fill="white"/>
</svg>
