<svg width="35" height="50" viewBox="0 0 35 50" fill="none" xmlns="http://www.w3.org/2000/svg">
<path d="M31.5028 48.8381H3.1984C1.9847 48.8381 1 47.8534 1 46.6397V3.1984C1 1.9847 1.9847 1 3.1984 1H31.5028C32.7165 1 33.7012 1.9847 33.7012 3.1984V46.6397C33.7012 47.8534 32.7165 48.8381 31.5028 48.8381Z" stroke="#333333" stroke-miterlimit="10" stroke-linecap="round" stroke-linejoin="round"/>
<path d="M6.79297 42.8628H27.9068" stroke="#333333" stroke-miterlimit="10" stroke-linecap="round" stroke-linejoin="round"/>
<path d="M17.3512 12.0609C19.1977 12.0609 20.6946 10.564 20.6946 8.71748C20.6946 6.87097 19.1977 5.37408 17.3512 5.37408C15.5047 5.37408 14.0078 6.87097 14.0078 8.71748C14.0078 10.564 15.5047 12.0609 17.3512 12.0609Z" stroke="#333333" stroke-miterlimit="10" stroke-linecap="round" stroke-linejoin="round"/>
</svg>
