<svg width="29" height="42" viewBox="0 0 29 42" fill="none" xmlns="http://www.w3.org/2000/svg">
<path d="M26.1849 41H2.81512C1.81302 41 1 40.1766 1 39.1618V2.8382C1 1.82336 1.81302 1 2.81512 1H26.1849C27.187 1 28 1.82336 28 2.8382V39.1618C28 40.1766 27.187 41 26.1849 41Z" stroke="white" stroke-miterlimit="10" stroke-linecap="round" stroke-linejoin="round"/>
<path d="M5.78369 36.0039H23.2165" stroke="white" stroke-miterlimit="10" stroke-linecap="round" stroke-linejoin="round"/>
<path d="M14.4998 10.2474C16.0243 10.2474 17.2603 8.99581 17.2603 7.45184C17.2603 5.90788 16.0243 4.65625 14.4998 4.65625C12.9752 4.65625 11.7393 5.90788 11.7393 7.45184C11.7393 8.99581 12.9752 10.2474 14.4998 10.2474Z" stroke="white" stroke-miterlimit="10" stroke-linecap="round" stroke-linejoin="round"/>
</svg>
