<svg width="14" height="20" viewBox="0 0 14 20" fill="none" xmlns="http://www.w3.org/2000/svg">
<path d="M12.9996 8.39258H1V19.0002H12.9996V8.39258Z" stroke="white" stroke-miterlimit="10" stroke-linecap="round" stroke-linejoin="round"/>
<path d="M8.97972 17.54H5.01953L6.22629 12.9894C5.76738 12.7155 5.46569 12.203 5.46569 11.6155C5.46569 10.7319 6.1498 10.0117 6.99963 10.0117C7.84945 10.0117 8.54206 10.7319 8.54206 11.6155C8.54206 12.2075 8.23613 12.72 7.77297 12.9939L8.97972 17.54Z" stroke="white" stroke-miterlimit="10" stroke-linecap="round" stroke-linejoin="round"/>
<path d="M2.64453 7.23743C2.64453 4.74126 4.59913 2.70898 6.99989 2.70898C9.40065 2.70898 11.3553 4.74126 11.3553 7.23743V17.5402" stroke="white" stroke-miterlimit="10" stroke-linecap="round" stroke-linejoin="round"/>
<path d="M1 7.23821C1 3.79217 3.68545 1 6.99978 1C10.3141 1 12.9996 3.79217 12.9996 7.23821" stroke="white" stroke-miterlimit="10" stroke-linecap="round" stroke-linejoin="round"/>
</svg>
