<svg width="31" height="40" viewBox="0 0 31 40" fill="none" xmlns="http://www.w3.org/2000/svg">
<path d="M18.5055 24.3646C16.3742 23.4515 11.2593 21.6067 10.1416 22.7325C9.10669 23.7847 11.5317 25.5105 12.9527 26.7483" stroke="#FE0000" stroke-miterlimit="10" stroke-linecap="round" stroke-linejoin="round"/>
<path d="M14.5494 22.9479L15.3975 20.9684" stroke="#FE0000" stroke-miterlimit="10" stroke-linecap="round" stroke-linejoin="round"/>
<path d="M7.40683 29.1291C9.53816 30.0423 14.653 31.887 15.7708 30.7612C16.8057 29.7091 14.3806 27.9833 12.9597 26.7455" stroke="#FE0000" stroke-miterlimit="10" stroke-linecap="round" stroke-linejoin="round"/>
<path d="M11.3633 30.5465L10.5152 32.526" stroke="#FE0000" stroke-miterlimit="10" stroke-linecap="round" stroke-linejoin="round"/>
<path d="M16.3835 18.6612C17.2491 19.0321 18.2515 18.631 18.6223 17.7654C18.9932 16.8998 18.5921 15.8974 17.7265 15.5266C16.8609 15.1557 15.8585 15.5568 15.4877 16.4224C15.1168 17.288 15.5179 18.2904 16.3835 18.6612Z" stroke="#FE0000" stroke-miterlimit="10" stroke-linecap="round" stroke-linejoin="round"/>
<path d="M22.4942 4.39629C19.6145 3.16252 16.4011 4.25059 15.234 7.76868C13.9887 11.5293 15.4876 16.4206 17.0549 17.0921" stroke="#FE0000" stroke-miterlimit="10" stroke-linecap="round" stroke-linejoin="round"/>
<path d="M18.7603 17.0521C18.0577 17.2389 17.4565 17.2638 17.0552 17.0918" stroke="#FE0000" stroke-miterlimit="10" stroke-linecap="round" stroke-linejoin="round"/>
<path d="M22.4941 4.39807C25.3739 5.63184 26.8028 8.70881 25.0609 11.9806C24.3227 13.3589 23.1693 14.5529 21.9377 15.4501" stroke="#FE0000" stroke-miterlimit="10" stroke-linecap="round" stroke-linejoin="round"/>
<path d="M19.4826 11.4255L8.58665 13.7857L1.00048 31.4926L9.41191 35.0963" stroke="#FE0000" stroke-miterlimit="10" stroke-linecap="round" stroke-linejoin="round"/>
<path d="M19.4825 11.4275L25.2901 20.9441L17.7039 38.651L9.29247 35.0473" stroke="#FE0000" stroke-miterlimit="10" stroke-linecap="round" stroke-linejoin="round"/>
</svg>
