<svg width="31" height="40" viewBox="0 0 31 40" fill="none" xmlns="http://www.w3.org/2000/svg">
<path d="M18.3151 24.365C16.1838 23.4519 11.0689 21.6071 9.95115 22.7329C8.91626 23.7851 11.3413 25.5108 12.7623 26.7486" stroke="#333333" stroke-miterlimit="10" stroke-linecap="round" stroke-linejoin="round"/>
<path d="M14.359 22.9482L15.207 20.9688" stroke="#333333" stroke-miterlimit="10" stroke-linecap="round" stroke-linejoin="round"/>
<path d="M7.2164 29.1295C9.34773 30.0426 14.4626 31.8874 15.5803 30.7616C16.6152 29.7094 14.1902 27.9837 12.7692 26.7458" stroke="#333333" stroke-miterlimit="10" stroke-linecap="round" stroke-linejoin="round"/>
<path d="M11.1729 30.5469L10.3248 32.5264" stroke="#333333" stroke-miterlimit="10" stroke-linecap="round" stroke-linejoin="round"/>
<path d="M16.1931 18.6616C17.0587 19.0324 18.061 18.6314 18.4319 17.7658C18.8027 16.9002 18.4017 15.8978 17.5361 15.527C16.6705 15.1561 15.6681 15.5572 15.2973 16.4228C14.9264 17.2884 15.3275 18.2907 16.1931 18.6616Z" stroke="#333333" stroke-miterlimit="10" stroke-linecap="round" stroke-linejoin="round"/>
<path d="M22.3038 4.39665C19.424 3.16288 16.2107 4.25095 15.0436 7.76904C13.7983 11.5296 15.2972 16.421 16.8645 17.0924" stroke="#333333" stroke-miterlimit="10" stroke-linecap="round" stroke-linejoin="round"/>
<path d="M18.5699 17.0525C17.8672 17.2393 17.2661 17.2641 16.8647 17.0922" stroke="#333333" stroke-miterlimit="10" stroke-linecap="round" stroke-linejoin="round"/>
<path d="M22.3037 4.39844C25.1834 5.63221 26.6124 8.70918 24.8704 11.981C24.1323 13.3593 22.9789 14.5532 21.7472 15.4505" stroke="#333333" stroke-miterlimit="10" stroke-linecap="round" stroke-linejoin="round"/>
<path d="M19.2922 11.4258L8.39622 13.7861L0.810046 31.4929L9.22148 35.0967" stroke="#333333" stroke-miterlimit="10" stroke-linecap="round" stroke-linejoin="round"/>
<path d="M19.2921 11.4279L25.0996 20.9445L17.5135 38.6513L9.10204 35.0476" stroke="#333333" stroke-miterlimit="10" stroke-linecap="round" stroke-linejoin="round"/>
</svg>
