<?xml version="1.0" encoding="UTF-8"?>
<!DOCTYPE svg PUBLIC "-//W3C//DTD SVG 1.1//EN" "http://www.w3.org/Graphics/SVG/1.1/DTD/svg11.dtd">
<!-- Creator: CorelDRAW X6 -->
<svg xmlns="http://www.w3.org/2000/svg" xml:space="preserve" width="100%" height="auto" version="1.1" style="shape-rendering:geometricPrecision; text-rendering:geometricPrecision; image-rendering:optimizeQuality; fill-rule:evenodd; clip-rule:evenodd"
viewBox="0 0 3832 1952"
 xmlns:xlink="http://www.w3.org/1999/xlink">
 <defs>
  <style type="text/css">
   <![CDATA[
    .fil0 {fill:#ffffff}
    .fil1 {fill:rgba(255, 255, 255, 0);}
   ]]>
  </style>
 </defs>
 <g id="Слой_x0020_1">
  <metadata id="CorelCorpID_0Corel-Layer"/>
  <g><path class="fil1" d="M757 1671c4,-1 2,4 5,2 2,-2 -1,-4 2,-5 8,-2 12,6 12,9 0,4 -6,5 -6,6 0,2 25,18 26,17 3,-3 27,17 28,14 1,-4 15,-15 21,-7 2,3 0,-3 2,-8 0,-1 2,-5 -1,-5 -3,1 -6,6 -9,7 -1,0 -4,-1 -4,-2 -8,-14 -41,-45 -35,-50 4,-4 20,-11 28,-17 11,-9 15,-15 21,-10 4,2 10,25 16,26 4,1 10,3 14,9 3,4 20,23 28,38 8,14 9,25 11,23 10,-7 32,-20 43,-28 17,-14 21,-19 33,-9 4,3 -10,12 -26,23 -21,15 -46,32 -45,31 1,0 2,30 11,25 3,-2 58,-44 76,-49 7,-2 19,1 10,7 -30,23 -46,34 -89,65 -7,5 -8,-23 -13,-20 -2,1 -3,6 -1,10 6,12 12,13 10,22 -2,10 -13,28 -31,34 -25,8 -22,-4 -29,-6 -1,0 7,12 5,13 -5,1 -10,8 -15,9 -3,1 -4,-7 -7,-5 -15,9 -43,27 -54,35 -4,3 -14,-3 -16,-1 0,0 15,6 9,19 -10,19 -25,36 -49,30l-9 2 -64 -87 -8 -44 32 -20 -5 -13 5 -7 -15 -31c14,-13 69,-47 82,-52z"/></g>
  <g><polygon class="fil1" points="184,1056 69,1111 106,1182 98,1189 108,1210 119,1206 201,1362 317,1305 254,1186 259,1182 243,1152 236,1153 "/></g>
  <g><polygon class="fil1" points="296,792 303,788 469,982 476,985 490,976 500,986 528,1052 490,1067 464,994 "/></g>
  <g id="3_1" data-items="3_1" data-group="control" class="objs"><path class="fil1" d="M1434 1197c-15,-5 -23,10 -16,16 12,11 -7,30 -4,44 1,3 4,4 7,7 7,6 4,14 5,25 1,7 3,12 3,17 -1,22 32,30 31,16 0,-3 -3,-7 -12,-11 -4,-2 -2,-3 2,-3 12,1 14,-4 13,-7 -1,-2 -2,-3 -10,-7 -5,-2 -1,-10 1,-19 2,-5 1,-12 4,-15 4,-6 11,-6 10,-8 0,-2 -4,-4 -9,-6 0,0 -5,-10 3,-5 3,2 5,-1 11,-4 2,-1 12,-9 0,-11 -7,-1 -4,-7 -19,-8 -6,-1 -7,-19 -16,-20 -2,0 -5,-1 -6,-1z"/></g>
  <g id="3_2" data-items="3_2" data-group="raskroi" class="objs"><path class="fil1" d="M1934 1468c-7,10 -4,25 -6,30 -5,15 3,8 -3,36 -2,7 -1,14 -3,18 -6,16 12,25 20,24 4,0 9,-7 6,-10 -2,-2 -4,-5 -2,-6 1,0 1,-2 2,-1 10,4 16,-3 12,-8 -4,-5 -9,-5 -10,-6 -5,-4 5,-25 8,-27 3,-2 5,1 10,1 5,-1 12,-8 8,-10 -2,-2 5,-8 1,-18 -2,-5 -14,-12 -15,-17 0,-2 1,-1 3,-4 2,-2 3,-8 2,-9 -1,-1 1,-3 1,-5 0,-2 -1,-3 -2,-4 -4,-2 -5,-5 -7,-6 -13,-7 -18,12 -25,23z"/></g>
  <g><path class="fil1" d="M432 1036l-164 114 21 46 7 1 -7 5 7 15 1 6 13 16 6 -6c10,15 29,49 50,42l5 14 19 -14 60 50 -2 11 10 25 9 -5c16,27 37,49 50,47l19 -13c-3,-19 -6,-19 -14,-32l8 -6 5 2 2 -3c13,8 14,10 24,22l8 -6 87 31 -3 43 14 34 15 45 141 -20c5,8 23,13 43,12 23,-2 42,-13 41,-23l0 0 230 -33c17,19 64,15 78,-12l0 -17 6 10 11 -2c4,-2 1,7 7,9 8,2 23,0 29,-5 4,-3 -1,-9 0,-9 11,1 15,2 19,-7 3,-6 -2,-51 -1,-62 3,-34 -9,-62 -14,-90 -1,-6 -1,-13 -2,-19 -3,-16 -9,-31 -16,-40 -7,-9 -6,-32 -18,-34 -4,-8 -2,-9 -11,-10l0 9 -88 3 -16 10c-8,-5 -5,-5 -13,1l0 13c5,16 8,22 17,36l2 23 -7 6 -1 -16 -7 -23 -10 -42 -6 0 1 35 -429 56 -11 -16 12 -10 -18 -47 -220 -166zm223 350l-47 -16 45 -36 4 6 -2 46zm-87 -28l-8 -9 66 -49 12 14 4 -1 6 10 -54 43 -26 -9z"/></g>
  <g id="4_1" data-items="4_1" data-group="" class="objs"><polygon class="fil1" points="1218,1761 1205,1768 1265,1860 1278,1854 1277,1849 1282,1846 1293,1860 1275,1870 1331,1951 1359,1952 1364,1949 1417,1919 1396,1889 1400,1886 1422,1916 1492,1872 1492,1864 1428,1777 1421,1782 1412,1771 1416,1768 1349,1679 1224,1750 1223,1756 "/></g>
  <g id="4_1" data-items="4_1" data-group="" class="objs"><polygon class="fil1" points="1522,1576 1586,1659 1586,1666 1582,1669 1592,1680 1600,1674 1669,1756 1669,1766 1603,1809 1586,1786 1569,1796 1581,1812 1582,1821 1512,1865 1442,1772 1468,1754 1458,1743 1434,1761 1372,1676 1372,1669 1439,1628 1446,1636 1457,1629 1455,1619 "/></g>
  <g id="4_1" data-items="4_1" data-group="" class="objs"><polygon class="fil1" points="1669,1498 1665,1500 1658,1492 1547,1557 1547,1568 1532,1574 1534,1583 1597,1662 1608,1655 1617,1666 1608,1672 1610,1680 1676,1762 1742,1720 1741,1712 1726,1694 1729,1693 1749,1715 1813,1675 1813,1666 "/></g>
  <g><polygon class="fil1" points="2594,6 2698,73 2679,187 2674,192 2663,188 2654,205 2615,224 2514,155 2529,34 "/></g>
  <g><path class="fil1" d="M2614 238l42 -33 8 -16 10 4 124 -100 4 -34 13 4 12 -14 12 -11 -1 -8 8 -1 1 -4 7 2 6 -6 12 0 102 45 1 12 6 3 7 11 -5 22 -4 9 -6 1 -3 2 -9 29 -5 31 -9 6c-5,15 -2,12 -16,17 -8,24 -9,26 -35,42l-10 -4 -8 1 -15 11 -7 0 -27 21 -3 14 -6 6c-6,23 -15,41 -36,48l-31 -15 -9 13 -3 15 -30 -12 -1 9 -53 -25 3 -8 -36 -18 2 -12 -18 -11 6 -46z"/></g>
  <g id="4_3" data-items="4_3" data-group="sklad" class="objs"><polygon class="fil1" points="2891,917 2865,934 2862,929 2848,932 2847,942 2790,974 2774,975 2771,986 2767,989 2764,985 2752,988 2749,995 2744,992 2736,997 2729,1033 2721,1039 2720,1036 2725,1031 2718,1021 2689,1038 2686,1034 2675,1036 2670,1047 2611,1083 2594,1084 2593,1092 2588,1096 2584,1093 2572,1096 2569,1104 2558,1103 2545,1162 2558,1168 2559,1174 2570,1177 2569,1185 2581,1191 2583,1196 2595,1199 2594,1208 2617,1210 2620,1212 2630,1205 2635,1209 2645,1202 2640,1198 2644,1193 2645,1189 2654,1189 2655,1177 2709,1146 2716,1142 2716,1148 2723,1152 2732,1146 2736,1149 2742,1145 2743,1138 2740,1136 2745,1134 2745,1125 2763,1113 2763,1107 2761,1107 2761,1106 2766,1104 2766,1098 2763,1098 2764,1096 2767,1096 2768,1093 2769,1087 2774,1089 2775,1095 2782,1098 2795,1099 2798,1101 2809,1095 2814,1098 2820,1095 2819,1089 2818,1086 2822,1084 2823,1079 2832,1078 2833,1066 2888,1036 2897,1044 2906,1039 2909,1042 2918,1035 2914,1029 2921,1025 2920,1019 2936,1006 2934,1000 2938,998 2939,992 2936,992 2937,990 2942,989 2939,981 2945,979 2944,972 2952,966 2940,957 2932,963 2929,961 2936,954 2928,948 2920,953 2917,951 2924,944 2916,938 2908,943 2905,941 2913,935 2904,928 2897,933 2893,930 2901,925 "/></g>
  <g id="3_3" data-items="3_3" data-group="control" class="objs"><path class="fil1" d="M2786 479c5,1 5,-7 1,-11 0,0 1,-7 1,-8 0,-2 -2,-4 -2,-4 0,-2 -2,-5 1,-9 10,-13 11,-29 21,-36 2,-2 6,-3 10,-4 6,-2 19,-5 21,-10 1,-3 -3,-7 -7,-11 -1,-1 -9,5 -8,3 0,-2 -2,-4 -2,-5 -2,-5 -6,-4 -11,-3 -2,0 -2,-4 -3,-5 0,0 1,-2 1,-5 1,-3 1,-6 1,-7 1,-4 3,-6 -6,-9 -5,-1 -13,2 -15,5 -3,3 -3,9 -2,12 1,10 -4,9 -6,17 -1,3 -2,7 -1,13 0,3 -5,6 -6,12 -1,5 1,11 0,16 -1,10 -6,18 -8,24 -1,5 0,11 0,14 2,9 9,12 21,13z"/></g>
  <g data-group="sklad"><path class="fil1" d="M2611 831l6 -35 11 -5 5 -28 30 -14 8 0 2 -8 61 -26 59 52 -4 29 20 18 -2 37 -3 7c-18,30 -35,39 -50,22l-38 19 3 5 -10 5 -18 22 3 6 -6 4 4 5 -6 5 3 5 -9 7 -6 -6 -2 1 2 5 -8 6 -6 -6 -1 1 2 5 -8 6 -4 -4 -1 1 2 5 -7 5 -7 -3 2 6 -8 6 -21 -21 -14 9 -5 -5 0 -4 -2 -2 1 -16 -5 -4 -7 3 -9 -9 6 -5 -17 -16 -8 4 -9 -9 5 -4 -6 -6 -13 0 -2 -11 -18 8 -1 -25 -10 -1 8 -49 0 -8 54 -27 16 -1 1 11 7 -2 25 22 -1 7 5 4 6 -5z"/></g>
  <g id="4_4" data-items="4_4" data-group="" class="objs"><polygon class="fil1" points="760,984 808,1051 824,1040 827,1044 810,1055 860,1128 873,1122 872,1117 879,1114 890,1112 902,1104 910,1103 912,1097 922,1100 927,1089 933,1089 940,1099 951,1094 950,1087 964,1081 964,1086 977,1080 978,1075 991,1069 993,1072 1008,1065 955,995 945,1000 939,1002 930,991 942,986 940,975 895,918 877,926 866,913 840,899 835,893 820,891 803,880 800,894 793,902 787,926 782,936 778,940 778,955 773,963 773,974 760,978 "/></g>
  <g id="4_4" data-items="4_4" data-group="" class="objs"><polygon class="fil1" points="1074,1142 1087,1133 1093,1141 1102,1136 1102,1131 1109,1135 1115,1134 1117,1131 1115,1124 1121,1129 1125,1129 1129,1125 1133,1125 1138,1122 1138,1118 1134,1111 1140,1111 1145,1115 1152,1114 1154,1111 1162,1111 1165,1106 1161,1100 1164,1099 1170,1104 1177,1103 1180,1098 1185,1095 1185,1090 1192,1091 1200,1085 1192,1075 1200,1071 1200,1061 1147,1001 1138,1006 1134,1002 1143,998 1142,989 1092,929 1082,934 1072,924 1079,920 1078,912 1030,854 1022,858 1004,842 997,842 988,837 975,826 958,807 952,806 946,800 940,799 936,807 941,815 935,817 934,824 930,828 931,835 923,841 927,848 921,854 923,862 918,865 918,871 913,873 911,877 918,886 910,889 910,896 906,897 905,903 910,910 903,914 952,980 961,976 970,988 966,991 966,1000 1014,1062 1025,1056 1030,1062 1021,1069 1021,1073 "/></g>
  <g id="4_4" data-items="4_4" data-group="" class="objs"><path class="fil1" d="M1211 1071l8 -4 2 -2 9 8 4 -3 0 -4 4 1 4 3 5 -5 -5 -10 11 10 7 -5 -9 -11 2 -2 4 4 5 0 7 6 11 -12 -6 -9c4,0 12,7 16,7 5,0 7,-4 7,-4l6 -2 0 -6 -9 -12 12 8 8 2 4 -4 -1 -6 5 4 6 -2 2 -5 -6 -8 11 -5 0 -10 -53 -59 -16 10 -5 -5 15 -7 0 -10 -52 -57 -19 9 -12 -11 17 -6 1 -10 -49 -56 -21 10 -21 -21 -6 1 -11 -12 -5 0 -3 -2 -7 0 -9 -10 -6 1 -2 4 1 6 -4 4 1 5 -5 1 -2 6 -2 6 -1 6 2 7 -4 3 0 6 -5 1 -6 3 6 8 -4 1 1 6 -7 2 -1 5 4 7 -7 5 51 62 9 -4 10 13 -5 2 0 8 51 59 9 -2 5 6 -8 3 0 8 53 62z"/></g>
  <g id="2_1" data-items="2_1" data-group="raskraska" class="objs"><path class="fil1" d="M1846 559l142 -69 1 -7 -21 -15 -149 67 -7 -7 144 -69 -1 -6 8 -7 5 -1 0 -3 -4 -4 0 -4 6 -1 0 -85 -10 -7 53 -25 0 -41 32 -5 13 -2c-4,-8 -8,-11 -10,-15 -6,-10 -4,-36 -5,-48 -1,-8 -5,-9 -5,-14l-110 49 18 14 2 9 19 -2 41 40 -103 49 -50 -42 59 -32 -1 -9 -28 -22 -2 -18 356 -154 14 9 0 19 -128 54c10,18 7,35 13,46 4,8 11,14 21,27l63 -27 42 32 6 -3 16 12 -1 34 -9 2 -3 54c-5,3 -5,5 -5,6 0,2 2,5 2,9 0,6 0,13 -4,17 -5,6 -8,12 -10,17l-3 1 -15 -17 -3 -4 -3 -21 -24 10 5 20 -3 1 -1 30 -89 41 -10 31 -19 -1 0 -17 -8 5c0,-1 1,-2 1,-4 0,-2 -2,-6 -2,-8 3,-10 -16,-22 -14,-26 4,-16 -3,-20 -7,-20 -6,0 -11,10 -11,18 0,5 -5,4 -8,6 -6,3 -9,10 -10,17 -1,6 0,7 9,13 1,1 0,13 -1,26l0 1 -4 2 -184 86 -7 -10zm210 -375c1,7 7,24 3,43 -2,10 14,30 21,31 0,1 52,-24 61,-26 7,-2 -22,-22 -20,-39 1,-11 -3,-26 -11,-33 -5,-4 -51,23 -53,24zm177 207l-14 7 1 -18 14 12zm-153 72l-6 3c0,-5 -1,-11 -1,-15 2,0 3,6 5,9 1,1 1,2 2,2z"/></g>
  <g id="3_4" data-items="3_4" data-group="raskraska" class="objs"><path class="fil1" d="M2043 426c-6,3 -9,10 -10,17 -1,6 0,7 9,13 1,1 0,13 -1,26 -1,16 -3,34 1,41 4,7 10,9 14,1 2,-5 6,4 10,4 4,0 6,-2 7,-23 1,-12 1,-19 1,-27 0,-5 0,-18 -2,-25 2,0 3,6 5,9 2,4 5,7 8,-4 0,-2 -2,-6 -2,-8 3,-10 -16,-22 -14,-26 4,-16 -3,-20 -7,-20 -6,0 -11,10 -11,18 0,5 -5,4 -8,6z"/></g>
  <g id="3_5" data-items="3_5" data-group="raskraska" class="objs"><path class="fil1" d="M2234 341l-24 10 5 20 -3 1 -2 62 14 11 27 -12 0 -6 -13 -12 -19 10 2 -45 16 13 19 -12 -15 -17 -3 -4 -3 -21zm34 23c-8,10 -12,20 -10,23 2,4 10,1 11,4 0,0 2,34 1,34 -1,4 -6,3 -8,4 -3,2 -3,5 -3,6 0,5 12,5 12,5 0,0 -6,3 -8,6 -2,5 -2,10 9,7 2,0 4,-2 7,-3 3,-1 5,-1 6,-3 1,-2 0,-4 0,-6 0,-2 4,-6 2,-7 -3,-6 15,-43 10,-55 -1,-4 5,-8 3,-18 -4,-18 -6,-9 -9,-19 0,-1 2,-3 1,-4 -2,-7 -6,-15 -20,-6 -5,3 -5,5 -5,6 0,2 2,5 2,9 0,6 0,13 -4,17z"/></g>
  <g data-group="raskroi"><polygon class="fil1" points="1800,1255 1760,1275 1759,1307 1850,1406 1889,1383 1890,1352 "/></g>
  <g><path class="fil1" d="M2914 316l-7 1 -2 -2 -7 4c0,1 3,6 1,13 -1,7 -5,15 -14,17 -7,2 -20,12 -6,9 4,-1 3,-4 4,-3 2,1 4,5 1,8 -5,5 -18,9 -20,-5 -1,-7 7,-11 6,-12 -10,-12 -4,-30 9,-35l-1 -10c13,-13 26,-48 36,-30 5,-4 4,-4 9,0l456 51 7 15 7 4 10 31 -4 27 17 4 10 28 -4 12 -4 1 -2 6 -2 3 4 3 -1 7 -14 2 -3 4 -7 -5 6 14 0 6 41 28 -27 58 3 6c-1,4 -6,6 -11,5 -5,-1 -10,-6 -9,-10l5 -4 10 -30 -9 -26 -15 -13 -3 8 -10 1 -7 -23 -7 17 -14 -40 -17 -1 13 41c-5,30 -19,39 -51,36 -21,-2 -29,-29 -28,-47l-12 -1 -26 104 -21 -3 36 -102 -8 0 -7 19 -3 9 -5 -3c-27,7 -21,6 -48,-2l-7 3 -3 -9 -46 -1 -3 6 -7 0 -3 7 -6 0 0 -16c-9,28 -63,38 -72,-1l-9 1 -4 -2 -6 11 -22 0 -1 -9 -10 -1 -11 -17 -11 -60 4 -33 10 -41 19 -34 -69 -7z"/></g>
  <g data-group="raskroi"><path class="fil1" d="M1979 1376l-15 -36 -24 -12 0 -8 28 14 16 35 5 -3 65 34 -1 13 -12 16 1 4c5,5 9,9 10,13 2,6 -2,9 -6,11 -1,0 -7,3 -13,0 -4,-2 -8,-10 -12,-12 -3,-1 -4,-3 -7,-4 -7,-1 -10,1 -15,2 -6,1 -13,1 -13,1 -6,-4 -7,-13 -9,-23 0,-2 -6,-7 -11,-11 -3,-2 -6,-5 -5,-6 1,-2 1,-3 2,-5l-58 -33 3 -6 58 34c4,-6 9,-11 13,-17z"/></g>
  <g data-group="raskroi"><polygon class="fil1" points="2014,1475 2050,1502 2043,1569 2002,1600 1964,1562 1969,1528 1987,1498 "/></g>
  <g id="2_5" data-items="2_5" data-group="raskroi" class="objs"><path class="fil1" d="M2147 1062l283 -157 23 19 -1 26 -75 42 122 111 -23 142 -67 41 4 6c6,10 3,21 -10,28l-68 41c-17,6 -25,5 -38,-7l-18 -17 -44 27c1,-6 -1,-8 -4,-12 -4,-5 -5,-9 -6,-11 -6,-12 -27,-12 -29,-7 -3,10 2,9 2,16 0,2 0,3 -1,8 -1,3 -9,6 -15,13 -5,6 -8,14 -2,23 1,1 2,2 2,3l-40 25 -10 -9 -22 15 0 8 9 9 -26 17 -21 -23 10 -6 -1 -11 -5 -5 0 -15 -7 -7 2 -15 -43 -46 -10 5 8 10 -26 14 -19 -21 8 -5 0 -13 -6 -5 2 -29 108 -63 -63 -64 113 -66 3 -34zm169 184l-58 -57 8 -5 105 99c8,7 17,13 16,18 -1,4 -19,14 -34,24 -14,9 -27,18 -32,18 -3,0 -6,-4 -6,-4l6 -7 -4 -6 21 -16 -7 -8 2 -8 7 -1 1 -35 -13 -11 -11 -1zm-51 -126l-41 -38 39 -23 2 61z"/></g>
  <g id="3_6" data-items="3_6" data-group="raskroi" class="objs"><path class="fil1" d="M2197 1334c-3,10 2,9 2,16 0,2 0,3 -1,8 -1,3 -9,6 -15,13 -5,6 -8,14 -2,23 6,9 8,5 10,7 2,2 1,6 0,13 0,3 0,7 -1,11 -2,6 7,17 2,21 -1,1 -3,-1 -5,0 -1,0 -4,0 -6,2 -3,3 -4,9 0,10 5,2 27,8 30,-1 1,-4 1,-5 1,-13 2,2 9,6 10,5 5,-3 3,-16 4,-27 0,-5 -3,-11 0,-15 9,-12 3,-25 6,-33 7,-15 4,-17 0,-23 -4,-5 -5,-9 -6,-11 -6,-12 -27,-12 -29,-7z"/></g>
  <g id="3_7" data-items="3_7" data-group="svarka" class="objs"><path class="fil1" d="M2022 864c1,1 4,4 4,7 -1,6 -1,12 5,18 12,11 17,4 16,10 -3,4 1,7 2,8 3,1 3,5 5,10 7,15 19,-5 22,-7 2,-1 3,1 5,1 2,-1 4,-8 6,-8 2,1 6,3 8,5 5,5 9,12 18,5 1,0 -2,9 0,19 1,7 8,18 9,24 1,4 -1,5 -3,7 -1,3 1,6 4,8 2,1 5,2 7,4 3,4 11,3 12,-1 2,-9 -1,-19 -4,-33 -1,-3 1,-8 0,-11 -2,-11 8,-12 9,-15 1,-1 -4,-28 -1,-30 6,-4 10,-4 4,-16 -7,-14 -16,-10 -16,-10 -1,-13 -5,-15 -9,-17 -8,-3 -14,3 -15,8 0,2 0,5 0,6 1,2 8,9 7,11 -1,2 -6,3 -7,8 -1,3 -8,3 -8,3 -5,-6 -19,-17 -35,-27 -11,-7 -14,-9 -22,-7 -16,3 -29,21 -27,23z"/></g>
  <g id="2_6" data-items="2_6" data-group="svarka" class="objs"><path class="fil1" d="M1486 1033l-37 -41 0 -70 40 -22 28 31 7 -1 17 -9c-2,-26 -9,-61 0,-72 3,-4 12,-3 13,2l24 -11 14 25 -5 9 4 9c29,25 23,37 29,76l9 39 15 -6 3 -12 4 0 7 5 16 -2 -9 10 1 8 -3 3 -6 -7 -3 1 1 5 -2 2 -4 -5 -16 8 0 9 -4 0 -3 -6 -3 1 0 5 -2 2 -3 -5 -22 13 -1 19 -4 8 1 17 21 22 -54 30 -59 -66 18 -10 -1 -23c-9,-2 -9,-1 -17,-6l-17 13z"/></g>
  <g id="2_7" data-items="2_7" data-group="control" class="objs"><path class="fil1" d="M2355 490l-4 -7 -3 -1 -8 4 -16 -14 -287 140 1 23 7 1 4 6 8 -7 2 3 -2 15 8 0 9 5 3 -1 2 -5 14 11 -4 8 11 10 9 -7 -6 -8 44 -21 8 6 13 -7 -7 -6 44 -23 7 8 14 -7 -7 -7 42 -21 8 7 8 -4 3 -6 -3 -3 41 -21 8 6 14 -7 -8 -5 41 -21 12 5 6 -5 3 -2 0 -4c-2,-3 -9,-7 -12,-9 -8,-7 -10,-15 -13,-17 -10,-10 -11,-8 -8,-9l-3 -3c0,0 -1,0 -1,0z"/></g>
  <g id="3_8" data-items="3_8" data-group="control" class="objs"><path class="fil1" d="M2383 444c-3,3 -6,13 -4,17 1,2 1,1 1,3l-18 20 0 1c-4,13 -13,-2 3,15 2,2 4,10 13,17 3,3 11,7 12,10 -2,0 12,14 20,-6 0,0 4,-3 6,-9 5,-11 8,-11 11,-20 2,-5 2,-18 4,-19 -2,-7 2,-13 -10,-20 -3,-2 -1,2 -7,-3 0,0 -17,-5 -17,-5 -3,1 -3,-4 -12,-2 -1,0 -2,0 -3,1l0 0z"/></g>
  <g id="2_8" data-items="2_8" data-group="control" class="objs"><path class="fil1" d="M1268 782l-11 -10 403 -187 22 21 0 0c0,4 0,7 1,9 11,16 5,7 15,18 3,4 5,17 1,21 -6,7 10,6 15,16 1,1 13,8 17,-6 1,-4 3,-5 5,-12l0 3 8 12 -9 5 1 24 5 6 -9 5 -11 -7 6 -5 0 -20 -67 32 1 26 7 5 -12 6 -10 -8 5 -3 -1 -23 -67 33 1 23 7 7 -12 8 -10 -10 5 -3 -1 -21 -70 35 1 22 8 10 -12 6 -10 -10 5 -3 -1 -20 -71 34 2 23 8 8 -14 7 -9 -11 4 -3 -1 -21 -72 35 2 23 8 9 -12 6 -10 -8 4 -4 -4 -33 -50 -56 3 19 6 10 -13 5 -10 -9 5 -6 -4 -34z"/></g>
  <g id="3_9" data-items="3_9" data-group="control" class="objs"><path class="fil1" d="M1696 560c-6,4 -19,46 -13,55 11,16 5,7 15,18 3,4 5,17 1,21 -6,7 10,6 15,16 1,1 13,8 17,-6 1,-5 4,-6 6,-17 4,-30 2,-46 -7,-74 -6,-20 -36,-19 -36,-13l2 -1z"/></g>
  <g id="2_9" data-items="2_9" data-group="raskroi" class="objs"><path class="fil1" d="M1666 1204l-1 -10 8 -4 -1 -31 86 -45 5 1 0 -30 9 -3 23 12 20 -11 0 -21 6 -3 9 10 2 -1 -1 -9 7 -4 0 -7 127 -66c6,0 12,1 13,2 1,2 2,5 1,11l14 -7 0 -22 7 -4 15 14 21 -11 1 -23 7 -4 14 15 21 -11 1 -24 7 -4 21 18 1 12 -19 11 0 19 5 9 7 -2 3 9 0 6 5 4 7 -1 3 2 1 6 15 14 0 9 -293 159 0 1 -2 0c-1,-7 -1,-13 -1,-13l-3 -23 -10 -11 -4 -7 -10 -5 -8 2 -8 6 1 10 6 9 -7 8 -8 12 2 15 5 8 17 -1 4 16 2 11c0,0 -6,5 -11,7 -5,1 -1,3 -1,3l0 2 -1 -1 -13 19 -5 0 -2 -3 -10 -3 -2 2 -5 -1 1 -5 -2 0 1 -18 -55 30 -48 -53z"/></g>
  <g id="3_10" data-items="3_10" data-group="raskroi" class="objs"><path class="fil1" d="M1806 1131l8 -2 10 5 4 7 10 11 3 23c0,0 3,36 3,38 0,2 4,34 4,34l-15 12 -13 -1 0 -6 8 -7 2 -4 -13 3 -7 0 -1 -8c0,0 -5,-2 1,-3 5,-1 11,-7 11,-7l-2 -11 -4 -16 -17 1 -5 -8 -2 -15 8 -12 7 -8 -6 -9 -1 -10 8 -6z"/></g>
  <g data-group="sklad"><path class="fil1" d="M2391 628c2,-2 1,-9 2,-11 1,-2 -9,-9 -8,-10 1,-2 1,-4 4,-6 6,-3 21,21 25,16 2,-3 9,-6 14,-7 5,-1 13,17 17,9 1,-3 3,-28 3,-33 0,-1 -5,-5 -6,-9 -1,-2 2,-4 2,-5 3,-1 15,10 29,20 7,5 15,11 22,17 2,1 6,0 8,2 2,1 2,6 4,7 14,12 26,20 31,24l0 52 3 5 1 6 -3 32 -5 4c8,10 7,12 5,23l-40 13c-10,-7 -12,-9 -14,-20l4 -41 -62 34 -25 50 -30 -21 -71 39 -26 51 -32 -29 8 -28 6 -21 -19 9 -3 -1 -1 28 2 9 -11 -8 2 -37 -38 -36 0 -1c0,0 1,0 1,0 5,0 10,-5 10,-5l-4 -8 0 -3 9 1c0,0 2,-3 4,-5 1,-2 1,-8 -1,-9 -2,-1 -7,-4 -7,-4 0,0 -1,0 -1,-1l0 0c0,0 1,0 1,0 5,-4 20,-10 22,-10 4,1 -10,-13 -8,-17 1,-1 3,-2 5,-2 4,0 12,13 16,13 8,-1 17,-8 19,-10l0 0 0 2 4 8 15 -4 -1 -8 7 3 6 5c0,0 6,0 8,0 2,0 8,-2 8,-2l-4 -8 -6 -4 1 -10 0 -1c9,-2 31,-11 44,-22 2,-2 3,-7 1,-10 -3,-5 -12,-8 -9,-11 8,-9 21,14 27,12 1,0 38,-17 38,-17zm-224 124l0 19 2 8 -13 -10 2 -2 1 -32 -6 -8 2 -8 13 11c0,-1 0,-1 0,-2l0 0 -2 6 0 8 0 4 0 5 0 0z"/></g>
  <g id="3_11" data-items="3_11" data-group="sklad" class="objs"><path class="fil1" d="M2201 661l-2 -12 3 -10 1 -8 -12 -4 -7 2 -7 6 -7 18 0 22 -3 14 2 16 0 21 -3 9 0 11 7 6c0,0 9,4 14,4 5,0 10,-5 10,-5l-4 -8 0 -3 9 1c0,0 2,-3 4,-5 1,-2 1,-8 -1,-9 -2,-1 -7,-4 -7,-4 0,0 -3,-1 -3,-4 0,-3 2,-13 2,-13l2 -7 1 -8c0,0 -1,-4 1,-4 2,0 9,0 6,0l6 -1 -2 -9 -7 -6 -5 -7 -1 -3z"/></g>
  <g id="3_12" data-items="3_12" data-group="sklad" class="objs"><path class="fil1" d="M2282 587c-3,-2 -7,9 -7,9l-14 6 -7 12 -2 81 4 8 15 -4 -1 -8 7 3 6 5c0,0 6,0 8,0 2,0 8,-2 8,-2l-4 -8 -6 -4 1 -10 4 -10 2 -11 1 -4 4 -3 1 -6 0 -39 -4 -9 -6 -8 -9 0z"/></g>
  <g data-group="svarka"><path class="fil1" d="M1857 779l0 1 0 9c10,4 5,-3 10,14 1,3 16,5 9,14 -2,2 -11,0 -5,16 2,4 5,-2 8,8 2,6 23,10 25,-3 0,-2 3,-4 4,-7 0,0 1,-5 1,-12l22 23 10 -6 9 12 -8 4 21 21 -12 7 0 25 5 4 -9 5 -7 -6 3 -2 0 -23 -70 37 0 24 6 1 -1 6 -8 5 -9 -8 5 -4 -1 -20 -68 36 -3 -2 0 28 5 4 -9 7 -8 -10 4 -2 0 -33 -4 -6 -26 13 -30 -38 -6 4 -9 -9 4 -6 0 -29 -18 11 -8 -12 0 -1 22 -10 -4 -3 -14 0 -2 -1c1,-1 2,-2 2,-3 3,-6 -3,-17 -8,-20 -1,-1 -6,3 -6,0 -1,-5 -5,-11 -5,-14 0,-2 -3,-6 -7,-8 -8,-4 -19,-5 -20,2 -2,11 -7,4 -9,13l0 0 -8 5 -6 -11 113 -54 1 -8 3 -2 9 5 33 -16 0 -7 4 -4 5 0 11 2 1 10 22 21 8 3 14 -1 13 0z"/></g>
  <g id="3_13" data-items="3_13" data-group="svarka" class="objs"><path class="fil1" d="M1870 734c-3,1 -7,6 -7,7l-6 38 0 9c10,4 5,-3 10,14 1,3 16,5 9,14 -2,2 -11,0 -5,16 2,4 5,-2 8,8 2,6 23,10 25,-3 0,-2 3,-4 4,-7 0,0 5,-59 1,-65 -7,-9 1,-24 -21,-32l0 0 -16 0zm-2 0l1 1 -1 -1z"/></g>
  <g id="3_14" data-items="3_14" data-group="svarka" class="objs"><path class="fil1" d="M1645 825c-2,15 -11,-3 -11,30 0,5 -4,32 7,34 1,0 0,4 1,10 1,6 4,12 3,17 -1,3 -4,4 -5,6 -8,10 5,17 15,3 1,-2 2,-5 4,-7 3,-3 0,-39 6,-27 5,8 0,22 5,36 1,4 -1,12 2,16 3,3 8,2 9,1 7,-5 3,-43 3,-46 -1,-10 -4,-15 -1,-24 1,-2 6,-6 7,-8 3,-6 -3,-17 -8,-20 -1,-1 -6,3 -6,0 -1,-5 -5,-11 -5,-14 0,-2 -3,-6 -7,-8 -8,-4 -19,-5 -20,2z"/></g>
  <g id="0_0" data-items="0_0" class="objs cursor-default"><path class="fil1" d="M0 0l3832 0 0 1952 -3832 0 0 -1952zm1868 734l1 1 -1 -1zm39 97c0,0 0,0 0,0 0,0 0,0 0,0zm1 -12l22 23 10 -6 9 12 -8 4 21 21 -12 7 0 25 5 4 -9 5 -7 -6 3 -2 0 -23 -70 37 0 24 6 1 -1 6 -8 5 -9 -8 5 -4 -1 -20 -68 36 -3 -2 0 28 5 4 -9 7 -8 -10 4 -2 0 -33 -4 -6 -26 13 -30 -38 -6 4 -9 -9 4 -6 0 -29 -18 11 -8 -12 0 -1 22 -10 -4 -3 -14 0 -2 -1c-2,2 -4,4 -5,6 -4,8 0,14 1,24 0,3 4,41 -3,46 -2,1 -7,2 -9,-1 -4,-4 -1,-12 -2,-16 -5,-14 0,-28 -5,-36 -7,-12 -3,24 -6,27 -2,2 -3,5 -4,7 -10,15 -23,7 -15,-3 1,-2 4,-3 5,-6 1,-5 -2,-12 -3,-17 -1,-5 0,-10 -1,-10 -11,-2 -7,-29 -7,-34 0,-9 1,-14 1,-17l0 0 -8 5 -6 -11 113 -54 1 -8 3 -2 9 5 33 -16 0 -7 4 -4 5 0 11 2 1 10 22 21 8 3 14 -1 13 0 6 -38c0,-2 4,-6 7,-7l16 0 0 0c22,8 15,23 21,32 3,4 1,36 0,53zm483 -192c2,-2 1,-9 2,-11 1,-2 -9,-9 -8,-10 1,-2 1,-4 4,-6 6,-3 21,21 25,16 2,-3 9,-6 14,-7 5,-1 13,17 17,9 1,-3 3,-28 3,-33 0,-1 -5,-5 -6,-9 -1,-2 2,-4 2,-5 3,-1 15,10 29,20 7,5 15,11 22,17 2,1 6,0 8,2 2,1 2,6 4,7 14,12 26,20 31,24l0 52 3 5 1 6 -3 32 -5 4c8,10 7,12 5,23l-40 13c-10,-7 -12,-9 -14,-20l4 -41 -62 34 -25 50 -30 -21 -71 39 -26 51 -32 -29 8 -28 6 -21 -19 9 -3 -1 -1 28 2 9 -11 -8 2 -37 -38 -36 0 -1c-5,0 -13,-4 -13,-4l-7 -6 0 5 0 0 0 19 2 8 -13 -10 2 -2 1 -32 -6 -8 2 -8 13 11c0,-1 0,-1 0,-2l0 0 -2 6 3 -9 0 -21 -2 -16 3 -14 0 -22 7 -18 7 -6 7 -2 12 4 -1 8 -3 10 2 12 1 3 5 7 7 6 2 9 -6 1c2,0 -5,0 -6,0 -2,0 -1,4 -1,4l-1 8 -2 7c0,0 -2,11 -2,13 0,1 1,2 2,3l0 0c0,0 1,0 1,0 5,-4 20,-10 22,-10 4,1 -10,-13 -8,-17 1,-1 3,-2 5,-2 4,0 12,13 16,13 8,-1 17,-8 19,-10l0 0 0 2 0 -2 0 0 2 -79 7 -12 14 -6c0,0 3,-11 7,-9l9 0 6 8 4 9 0 39 -1 6 -4 3 -1 4 -2 11 -4 10 0 -1c9,-2 31,-11 44,-22 2,-2 3,-7 1,-10 -3,-5 -12,-8 -9,-11 8,-9 21,14 27,12 1,0 38,-17 38,-17zm-725 576l-1 -10 8 -4 -1 -31 86 -45 5 1 0 -30 9 -3 23 12 20 -11 0 -21 6 -3 9 10 2 -1 -1 -9 7 -4 0 -7 127 -66c6,0 12,1 13,2 1,2 2,5 1,11l14 -7 0 -22 7 -4 15 14 21 -11 1 -23 7 -4 14 15 21 -11 1 -24 7 -4 21 18 1 12 -19 11 0 19 5 9 7 -2 3 9 0 6 5 4 7 -1 3 2 1 6 15 14 0 9 -293 159 0 1 -2 0c1,10 2,24 2,25 0,2 4,34 4,34l-15 12 -13 -1 0 -6 8 -7 2 -4 -13 3 -7 0 -1 -8 0 2 -1 -1 -13 19 -5 0 -2 -3 -10 -3 -2 2 -5 -1 1 -5 -2 0 1 -18 -55 30 -48 -53zm-399 -422l-11 -10 403 -187 22 21 0 0c1,-15 10,-42 14,-46l-2 1c0,-5 29,-6 36,13 9,28 11,43 7,74 0,2 -1,4 -1,5l0 3 8 12 -9 5 1 24 5 6 -9 5 -11 -7 6 -5 0 -20 -67 32 1 26 7 5 -12 6 -10 -8 5 -3 -1 -23 -67 33 1 23 7 7 -12 8 -10 -10 5 -3 -1 -21 -70 35 1 22 8 10 -12 6 -10 -10 5 -3 -1 -20 -71 34 2 23 8 8 -14 7 -9 -11 4 -3 -1 -21 -72 35 2 23 8 9 -12 6 -10 -8 4 -4 -4 -33 -50 -56 3 19 6 10 -13 5 -10 -9 5 -6 -4 -34zm415 -169c0,0 0,0 0,0 0,0 0,0 0,0zm0 1c0,0 0,0 0,0 0,0 0,0 0,0zm0 1c0,0 0,0 0,0 0,0 0,0 0,0zm0 0c0,0 0,0 0,0 0,0 0,0 0,0zm0 0c0,0 0,0 0,0 0,0 0,0 0,0zm51 44c0,0 0,-1 1,-1 0,0 0,1 -1,1zm1 -4c0,0 0,-1 0,-1 0,0 0,1 0,1zm619 -165l-4 -7 -3 -1 -8 4 -16 -14 -287 140 1 23 7 1 4 6 8 -7 2 3 -2 15 8 0 9 5 3 -1 2 -5 14 11 -4 8 11 10 9 -7 -6 -8 44 -21 8 6 13 -7 -7 -6 44 -23 7 8 14 -7 -7 -7 42 -21 8 7 8 -4 3 -6 -3 -3 41 -21 8 6 14 -7 -8 -5 41 -21 12 5 6 -5 3 -2 0 -4c0,0 0,0 0,0 -2,0 12,14 20,-6 0,0 4,-3 6,-9 5,-11 8,-11 11,-20 2,-5 2,-18 4,-19 -2,-7 2,-13 -10,-20 -3,-2 -1,2 -7,-3 0,0 -17,-5 -17,-5 -3,1 -3,-4 -12,-2 -1,0 -2,0 -3,1l0 0c-3,3 -6,13 -4,17 1,2 1,1 1,3l-18 20 0 1c-1,5 -4,6 -5,6l-3 -3c0,0 -1,0 -1,0zm3 3c0,0 0,0 0,0 0,0 0,0 0,0zm-871 540l-37 -41 0 -70 40 -22 28 31 7 -1 17 -9c-2,-26 -9,-61 0,-72 3,-4 12,-3 13,2l24 -11 14 25 -5 9 4 9c29,25 23,37 29,76l9 39 15 -6 3 -12 4 0 7 5 16 -2 -9 10 1 8 -3 3 -6 -7 -3 1 1 5 -2 2 -4 -5 -16 8 0 9 -4 0 -3 -6 -3 1 0 5 -2 2 -3 -5 -22 13 -1 19 -4 8 1 17 21 22 -54 30 -59 -66 18 -10 -1 -23c-9,-2 -9,-1 -17,-6l-17 13zm536 -169c1,1 4,4 4,7 -1,6 -1,12 5,18 12,11 17,4 16,10 -3,4 1,7 2,8 3,1 3,5 5,10 7,15 19,-5 22,-7 2,-1 3,1 5,1 2,-1 4,-8 6,-8 2,1 6,3 8,5 5,5 9,12 18,5 1,0 -2,9 0,19 1,7 8,18 9,24 1,4 -1,5 -3,7 -1,3 1,6 4,8 2,1 5,2 7,4 3,4 11,3 12,-1 2,-9 -1,-19 -4,-33 -1,-3 1,-8 0,-11 -2,-11 8,-12 9,-15 1,-1 -4,-28 -1,-30 6,-4 10,-4 4,-16 -7,-14 -16,-10 -16,-10 -1,-13 -5,-15 -9,-17 -8,-3 -14,3 -15,8 0,2 0,5 0,6 1,2 8,9 7,11 -1,2 -6,3 -7,8 -1,3 -8,3 -8,3 -5,-6 -19,-17 -35,-27 -11,-7 -14,-9 -22,-7 -16,3 -29,21 -27,23zm125 199l283 -157 23 19 -1 26 -75 42 122 111 -23 142 -67 41 4 6c6,10 3,21 -10,28l-68 41c-17,6 -25,5 -38,-7l-18 -17 -44 27c-1,3 -2,6 -4,11 -4,8 2,21 -6,33 -3,4 0,11 0,15 -1,11 1,23 -4,27 -2,1 -8,-3 -10,-5 0,8 1,9 -1,13 -3,10 -25,3 -30,1 -4,-1 -2,-7 0,-10 2,-2 5,-2 6,-2 2,0 4,1 5,0 6,-4 -4,-15 -2,-21 1,-4 1,-8 1,-11 1,-8 1,-12 0,-13 -2,-2 -4,1 -8,-4l-40 25 -10 -9 -22 15 0 8 9 9 -26 17 -21 -23 10 -6 -1 -11 -5 -5 0 -15 -7 -7 2 -15 -43 -46 -10 5 8 10 -26 14 -19 -21 8 -5 0 -13 -6 -5 2 -29 108 -63 -63 -64 113 -66 3 -34zm169 184l-58 -57 8 -5 105 99c8,7 17,13 16,18 -1,4 -19,14 -34,24 -14,9 -27,18 -32,18 -3,0 -6,-4 -6,-4l6 -7 -4 -6 21 -16 -7 -8 2 -8 7 -1 1 -35 -13 -11 -11 -1zm-51 -126l-41 -38 39 -23 2 61zm-252 354l36 28 -7 66 -41 31 -39 -38 5 -33 18 -31 26 -23zm-34 -98l-15 -36 -24 -12 0 -8 28 14 16 35 5 -3 65 34 -1 13 -12 16 1 4c5,5 9,9 10,13 2,6 -2,9 -6,11 -1,0 -7,3 -13,0 -4,-2 -8,-10 -12,-12 -3,-1 -4,-3 -7,-4 -7,-1 -10,1 -15,2 -6,1 -13,1 -13,1 -6,-4 -7,-13 -9,-23 0,-2 -6,-7 -11,-11 -3,-2 -6,-5 -5,-6 1,-2 1,-3 2,-5l-58 -33 3 -6 58 34c4,-6 9,-11 13,-17zm935 -1061l-7 1 -2 -2 -7 4c0,1 3,6 1,13 -1,7 -5,15 -14,17 -7,2 -20,12 -6,9 4,-1 3,-4 4,-3 2,1 4,5 1,8 -5,5 -18,9 -20,-5 -1,-7 7,-11 6,-12 -10,-12 -4,-30 9,-35l-1 -10c13,-13 26,-48 36,-30 5,-4 4,-4 9,0l456 51 7 15 7 4 10 31 -4 27 17 4 10 28 -4 12 -4 1 -2 6 -2 3 4 3 -1 7 -14 2 -3 4 -7 -5 6 14 0 6 41 28 -27 58 3 6c-1,4 -6,6 -11,5 -5,-1 -10,-6 -9,-10l5 -4 10 -30 -9 -26 -15 -13 -3 8 -10 1 -7 -23 -7 17 -14 -40 -17 -1 13 41c-5,30 -19,39 -51,36 -21,-2 -29,-29 -28,-47l-12 -1 -26 104 -21 -3 36 -102 -8 0 -7 19 -3 9 -5 -3c-27,7 -21,6 -48,-2l-7 3 -3 -9 -46 -1 -3 6 -7 0 -3 7 -6 0 0 -16c-9,28 -63,38 -72,-1l-9 1 -4 -2 -6 11 -22 0 -1 -9 -10 -1 -11 -17 -11 -60 4 -33 10 -41 19 -34 -69 -7zm-1703 755l8 -4 2 -2 9 8 4 -3 0 -4 4 1 4 3 5 -5 -5 -10 11 10 7 -5 -9 -11 2 -2 4 4 5 0 7 6 11 -12 -6 -9c4,0 12,7 16,7 5,0 7,-4 7,-4l6 -2 0 -6 -9 -12 12 8 8 2 4 -4 -1 -6 5 4 6 -2 2 -5 -6 -8 11 -5 0 -10 -53 -59 -16 10 -5 -5 15 -7 0 -10 -52 -57 -19 9 -12 -11 17 -6 1 -10 -49 -56 -21 10 -21 -21 -6 1 -11 -12 -5 0 -3 -2 -7 0 -9 -10 -6 1 -2 4 1 6 -4 4 1 5 -5 1 -2 6 -2 6 -1 6 2 7 -4 3 0 6 -5 1 -6 3 6 8 -4 1 1 6 -7 2 -1 5 4 7 -7 5 51 62 9 -4 10 13 -5 2 0 8 51 59 9 -2 5 6 -8 3 0 8 53 62zm-137 70l13 -8 6 7 9 -5 0 -5 7 5 6 -1 3 -4 -2 -7 6 6 4 0 4 -4 4 0 4 -4 1 -4 -4 -7 6 0 4 4 7 -1 3 -3 7 0 4 -5 -4 -6 3 -1 5 5 7 -1 4 -5 4 -3 1 -5 7 1 8 -7 -8 -10 8 -4 0 -10 -54 -60 -8 5 -4 -4 9 -4 -1 -9 -50 -60 -10 5 -10 -11 6 -4 -1 -8 -48 -58 -8 4 -17 -16 -7 -1 -9 -5 -14 -11 -16 -19 -6 -1 -6 -7 -6 -1 -5 8 5 8 -6 2 0 7 -4 4 1 7 -7 6 4 7 -7 6 3 8 -5 4 0 6 -5 1 -2 4 7 10 -8 3 0 7 -4 1 -1 5 5 7 -7 4 48 66 10 -4 9 11 -4 3 0 9 49 62 10 -6 5 6 -9 7 1 4 53 69zm726 114l-40 20 -1 31 92 99 39 -22 0 -32 -90 -96zm47 -696l142 -69 1 -7 -21 -15 -149 67 -7 -7 144 -69 -1 -6 8 -7 5 -1 0 -3 -4 -4 0 -4 6 -1 0 -85 -10 -7 53 -25 0 -41 32 -5 13 -2c-4,-8 -8,-11 -10,-15 -6,-10 -4,-36 -5,-48 -1,-8 -5,-9 -5,-14l-110 49 18 14 2 9 19 -2 41 40 -103 49 -50 -42 59 -32 -1 -9 -28 -22 -2 -18 356 -154 14 9 0 19 -128 54c10,18 7,35 13,46 4,8 11,14 21,27l63 -27 42 32 6 -3 16 12 -1 34 -9 2 -3 54c14,-8 17,-1 20,6 0,1 -2,3 -1,4 3,9 5,1 9,19 2,10 -5,14 -3,18 5,12 -14,49 -10,55 1,2 -2,6 -2,7 0,2 1,4 0,6 -1,2 -3,2 -6,3 -2,1 -5,3 -7,3 -11,3 -11,-3 -9,-7 2,-3 8,-6 8,-6 0,0 -12,0 -12,-5 0,-1 0,-4 3,-6 2,-1 6,0 8,-4 0,0 -1,-34 -1,-34 -1,-3 -9,0 -11,-4 -1,-1 -1,-3 0,-6l-3 1 0 0 -19 12 -16 -13 14 12 -14 7 -1 26 19 -10 13 12 0 6 -27 12 -14 -11 2 -62 0 0 -1 30 -89 41 -10 31 -19 -1 0 -17 -8 5c-2,5 -3,5 -5,3l-6 3c0,4 0,8 0,10 0,9 0,15 -1,27 -2,21 -4,23 -7,23 -4,0 -8,-8 -10,-4 -4,9 -10,6 -14,-1 -4,-7 -2,-24 -1,-40l-4 2 -184 86 -7 -10zm387 -219l0 0 0 0zm-177 -156c1,7 7,24 3,43 -2,10 14,30 21,31 0,1 52,-24 61,-26 7,-2 -22,-22 -20,-39 1,-11 -3,-26 -11,-33 -5,-4 -51,23 -53,24zm-1297 799l48 67 17 -11 3 4 -17 11 51 72 12 -6 -1 -4 7 -4 11 -2 12 -8 8 -1 1 -6 11 2 5 -10 6 0 7 10 11 -5 0 -7 14 -6 0 5 13 -6 0 -5 14 -6 1 3 15 -7 -53 -70 -10 5 -6 2 -9 -11 12 -5 -2 -11 -45 -57 -18 7 -11 -13 -26 -13 -5 -6 -15 -3 -18 -11 -3 14 -7 9 -6 24 -5 10 -4 4 0 15 -4 8 0 11 -13 5 0 6zm1851 -154l6 -35 11 -5 5 -28 30 -14 8 0 2 -8 61 -26 59 52 -4 29 20 18 -2 37 -3 7c-18,30 -35,39 -50,22l-38 19 3 5 -10 5 -18 22 3 6 -6 4 4 5 -6 5 3 5 -9 7 -6 -6 -2 1 2 5 -8 6 -6 -6 -1 1 2 5 -8 6 -4 -4 -1 1 2 5 -7 5 -7 -3 2 6 -8 6 -21 -21 -14 9 -5 -5 0 -4 -2 -2 1 -16 -5 -4 -7 3 -9 -9 6 -5 -17 -16 -8 4 -9 -9 5 -4 -6 -6 -13 0 -2 -11 -18 8 -1 -25 -10 -1 8 -49 0 -8 54 -27 16 -1 1 11 7 -2 25 22 -1 7 5 4 6 -5zm175 -352c5,1 5,-7 1,-11 0,0 1,-7 1,-8 0,-2 -2,-4 -2,-4 0,-2 -2,-5 1,-9 10,-13 11,-29 21,-36 2,-2 6,-3 10,-4 6,-2 19,-5 21,-10 1,-3 -3,-7 -7,-11 -1,-1 -9,5 -8,3 0,-2 -2,-4 -2,-5 -2,-5 -6,-4 -11,-3 -2,0 -2,-4 -3,-5 0,0 1,-2 1,-5 1,-3 1,-6 1,-7 1,-4 3,-6 -6,-9 -5,-1 -13,2 -15,5 -3,3 -3,9 -2,12 1,10 -4,9 -6,17 -1,3 -2,7 -1,13 0,3 -5,6 -6,12 -1,5 1,11 0,16 -1,10 -6,18 -8,24 -1,5 0,11 0,14 2,9 9,12 21,13zm105 438l-27 17 -2 -5 -14 3 -1 10 -57 33 -16 1 -3 11 -3 2 -3 -4 -12 4 -3 7 -5 -3 -8 5 -7 36 -8 6 -1 -3 6 -5 -7 -10 -29 17 -4 -5 -11 2 -4 12 -59 35 -17 1 -1 8 -5 3 -4 -2 -12 2 -3 8 -11 -2 -13 59 13 7 0 6 12 3 -2 8 12 6 2 5 12 4 -1 9 23 2 3 1 11 -6 5 4 10 -7 -5 -5 3 -5 1 -4 9 1 1 -13 54 -31 7 -4 0 6 8 4 8 -6 4 3 6 -5 0 -7 -2 -1 5 -3 0 -9 18 -11 0 -6 -2 0 0 -1 4 -2 0 -6 -2 0 0 -2 3 0 1 -2 2 -7 5 2 0 6 7 2 13 1 3 3 11 -6 5 3 6 -3 0 -6 -1 -3 4 -3 1 -5 8 0 1 -12 55 -31 9 8 9 -5 3 3 9 -7 -3 -6 6 -4 -1 -6 16 -13 -2 -6 5 -2 0 -6 -2 0 0 -2 5 -1 -2 -8 6 -2 -1 -7 8 -6 -11 -8 -8 5 -3 -2 7 -7 -8 -6 -8 6 -3 -2 7 -7 -8 -6 -7 5 -3 -2 8 -6 -9 -7 -7 5 -3 -2 8 -5 -10 -8zm-278 -679l42 -33 8 -16 10 4 124 -100 4 -34 13 4 12 -14 12 -11 -1 -8 8 -1 1 -4 7 2 6 -6 12 0 102 45 1 12 6 3 7 11 -5 22 -4 9 -6 1 -3 2 -9 29 -5 31 -9 6c-5,15 -2,12 -16,17 -8,24 -9,26 -35,42l-10 -4 -8 1 -15 11 -7 0 -27 21 -3 14 -6 6c-6,23 -15,41 -36,48l-31 -15 -9 13 -3 15 -30 -12 -1 9 -53 -25 3 -8 -36 -18 2 -12 -18 -11 6 -46zm827 606l11 8 -31 24 -36 -26 12 -8 -88 -61 -12 8 -35 -25 37 -19 54 -156 60 41 33 -95 68 43 8 -9 39 -100 56 34 11 -2 0 -7 3 -1 19 -45 6 11 24 14 69 -43 71 43 -59 48 16 9 10 0 -51 115 21 14 -29 21 -15 -9 -271 174zm196 -235l-24 16 4 4 24 -16 -4 -4zm-36 23l-25 17 -3 9 35 -22 -6 -4zm77 -54l-13 10 5 4 8 -14zm30 -7l-11 -8 -11 23 23 -15zm-52 24l-10 9 6 5 12 -8 -7 -6zm85 9l-14 33 -6 -5 -13 9 -11 -7 44 -30zm25 -54l-34 21 18 12 16 -33zm-90 84l-8 -5 -6 13 14 -8zm-38 37l-44 28 25 16 19 -44zm-65 27l-13 -9 -11 25 24 -16zm-24 -12l-33 20 19 13 14 -33zm-23 55l-44 28 25 16 19 -45zm-53 -8l-10 23 9 7 54 -35 -20 -16 -33 21zm-10 35l-4 -3 -4 8 8 -6zm-2 -37l-18 13 10 7 8 -20zm-18 46l-23 -17 15 -10 15 10 -7 17zm183 -142l26 -17 6 5 -12 25 -20 -13zm94 -59l22 15 -59 38 -13 -10 6 -15 44 -28zm29 -51l16 9 -46 30 -15 -9 45 -30zm-278 251l26 18 -66 43 19 -48 21 -13zm111 -70l27 17 -90 59 20 -48 4 -3 39 -25zm102 -66l12 8 -8 6 14 10 -72 46 20 -48 4 -3 30 -20zm-68 2l22 15 -57 37 -20 -14 1 -4 54 -34zm-209 125l30 20 -16 43 -6 -2 -12 8 -49 -36 53 -34zm137 -239l12 8 0 6 -14 0 -2 9 -5 2 8 -25zm104 -64l17 11 -9 1 -4 11 -6 0 -5 2 8 -25zm-86 18l42 27 -5 2 -2 5 -11 2 -2 7 -13 0 -1 6 -20 -13 13 -36zm-131 113l33 21 -5 2 -2 5 -11 4 -1 6 -10 1 -3 5 -13 -8 14 -38zm18 -45l54 35 -30 25 -36 -23 13 -36zm-129 157l15 10 -27 24 12 -34zm36 -102l49 34 -5 14 -4 10 -8 1 -1 4 -43 -28 13 -37zm-16 45l43 30 -39 31 -20 -14 16 -48zm-747 -643l104 68 -19 114 -6 5 -11 -4 -9 17 -39 19 -101 -69 15 -121 65 -28zm-925 1492l-4 2 -7 -8 -111 66 0 11 -15 6 2 8 64 80 10 -7 9 11 -9 6 2 8 66 82 66 -42 -1 -8 -15 -18 3 -1 21 23 63 -40 1 -9 -144 -168zm-147 78l64 83 0 8 -3 2 10 11 8 -6 69 82 0 10 -66 43 -17 -23 -18 10 13 16 1 8 -71 45 -70 -94 26 -17 -10 -11 -24 18 -62 -84 0 -8 67 -41 7 8 11 -7 -2 -9 67 -43zm-304 185l-12 7 60 92 13 -7 -1 -5 6 -3 11 15 -18 9 56 82 27 1 6 -3 52 -30 -21 -30 4 -3 23 30 70 -44 0 -8 -64 -86 -7 5 -9 -11 4 -4 -66 -89 -125 71 -2 6 -5 5zm-785 -725l-164 114 21 46 7 1 -7 5 7 15 1 6 13 16 6 -6c10,15 29,49 50,42l5 14 19 -14 60 50 -2 11 10 25 9 -5c16,27 37,49 50,47l19 -13c-3,-19 -6,-19 -14,-32l8 -6 5 2 2 -3c13,8 14,10 24,22l8 -6 87 31 -3 43 14 34 15 45 141 -20c5,8 23,13 43,12 23,-2 42,-13 41,-23l0 0 230 -33c17,19 64,15 78,-12l0 -17 6 10 11 -2c4,-2 1,7 7,9 8,2 23,0 29,-5 4,-3 -1,-9 0,-9 11,1 15,2 19,-7 3,-6 -2,-51 -1,-62 3,-34 -9,-62 -14,-90 -1,-6 -1,-13 -2,-19 -3,-16 -9,-31 -16,-40 -7,-9 -6,-32 -18,-34 -4,-8 -2,-9 -11,-10l0 9 -88 3 -16 10c-8,-5 -5,-5 -13,1l0 13c5,16 8,22 17,36l2 23 -7 6 -1 -16 -7 -23 -10 -42 -6 0 1 35 -429 56 -11 -16 12 -10 -18 -47 -220 -166zm223 350l-47 -16 45 -36 4 6 -2 46zm-87 -28l-8 -9 66 -49 12 14 4 -1 6 10 -54 43 -26 -9zm1365 110c-7,10 -4,25 -6,30 -5,15 3,8 -3,36 -2,7 -1,14 -3,18 -6,16 12,25 20,24 4,0 9,-7 6,-10 -2,-2 -4,-5 -2,-6 1,0 1,-2 2,-1 10,4 16,-3 12,-8 -4,-5 -9,-5 -10,-6 -5,-4 5,-25 8,-27 3,-2 5,1 10,1 5,-1 12,-8 8,-10 -2,-2 5,-8 1,-18 -2,-5 -14,-12 -15,-17 0,-2 1,-1 3,-4 2,-2 3,-8 2,-9 -1,-1 1,-3 1,-5 0,-2 -1,-3 -2,-4 -4,-2 -5,-5 -7,-6 -13,-7 -18,12 -25,23zm-500 -271c-15,-5 -23,10 -16,16 12,11 -7,30 -4,44 1,3 4,4 7,7 7,6 4,14 5,25 1,7 3,12 3,17 -1,22 32,30 31,16 0,-3 -3,-7 -12,-11 -4,-2 -2,-3 2,-3 12,1 14,-4 13,-7 -1,-2 -2,-3 -10,-7 -5,-2 -1,-10 1,-19 2,-5 1,-12 4,-15 4,-6 11,-6 10,-8 0,-2 -4,-4 -9,-6 0,0 -5,-10 3,-5 3,2 5,-1 11,-4 2,-1 12,-9 0,-11 -7,-1 -4,-7 -19,-8 -6,-1 -7,-19 -16,-20 -2,0 -5,-1 -6,-1zm-1137 -405l6 -4 167 193 7 3 14 -9 9 9 28 66 -38 15 -26 -73 -167 -202zm-112 263l-115 56 37 71 -9 7 11 21 11 -3 82 156 117 -57 -63 -119 5 -4 -16 -30 -7 1 -52 -97zm573 616c4,-1 2,4 5,2 2,-2 -1,-4 2,-5 8,-2 12,6 12,9 0,4 -6,5 -6,6 0,2 25,18 26,17 3,-3 27,17 28,14 1,-4 15,-15 21,-7 2,3 0,-3 2,-8 0,-1 2,-5 -1,-5 -3,1 -6,6 -9,7 -1,0 -4,-1 -4,-2 -8,-14 -41,-45 -35,-50 4,-4 20,-11 28,-17 11,-9 15,-15 21,-10 4,2 10,25 16,26 4,1 10,3 14,9 3,4 20,23 28,38 8,14 9,25 11,23 10,-7 32,-20 43,-28 17,-14 21,-19 33,-9 4,3 -10,12 -26,23 -21,15 -46,32 -45,31 1,0 2,30 11,25 3,-2 58,-44 76,-49 7,-2 19,1 10,7 -30,23 -46,34 -89,65 -7,5 -8,-23 -13,-20 -2,1 -3,6 -1,10 6,12 12,13 10,22 -2,10 -13,28 -31,34 -25,8 -22,-4 -29,-6 -1,0 7,12 5,13 -5,1 -10,8 -15,9 -3,1 -4,-7 -7,-5 -15,9 -43,27 -54,35 -4,3 -14,-3 -16,-1 0,0 15,6 9,19 -10,19 -25,36 -49,30l-9 2 -64 -87 -8 -44 32 -20 -5 -13 5 -7 -15 -31c14,-13 69,-47 82,-52z"/></g>
 </g>
</svg>
