<svg width="89" height="68" viewBox="0 0 89 68" fill="none" xmlns="http://www.w3.org/2000/svg">
<mask id="path-1-outside-1" maskUnits="userSpaceOnUse" x="-0.353516" y="0.0429688" width="90" height="68" fill="black">
<rect fill="white" x="-0.353516" y="0.0429688" width="90" height="68"/>
<path fill-rule="evenodd" clip-rule="evenodd" d="M0.646484 7.31492L9.65376 53.7068L14.8544 52.9804L18.5191 47.8431L21.8941 49.2854L22.8188 54.687L33.7146 60.8265L42.343 57.7497L46.9071 59.8078L50.1006 66.6332L56.4393 65.9896L55.6177 62.2051L51.7857 60.2202L51.3952 60.0205L51.657 59.6679L54.3876 56.0256L54.4572 55.9316L54.5727 55.8952L60.624 53.9739L60.6982 53.9476L60.7763 53.9578L67.9067 54.7036L71.8291 48.997L72.2104 45.0856L72.2762 44.3952L72.8117 44.8307L77.3142 48.4652L81.8969 47.6141L82.3093 40.8866L82.321 40.6941L82.486 40.594L86.0729 38.3792L87.396 33.3782L84.5598 30.1407L84.3473 29.8979L84.5605 29.6563L88.0376 25.6571L83.7229 22.49L83.6259 22.4197L83.589 22.309L82.0069 17.6751L77.1104 12.3132L77.0275 12.2221L77.0141 12.1025L76.4597 7.11393L72.9911 7.50841L68.4543 11.5202L68.3306 11.6254L68.1667 11.6083L59.6025 10.6729L56.9907 12.6258L56.7588 12.7984L56.5361 12.6195L53.9129 10.5011L46.3617 17.6413L46.1 17.8897L45.8467 17.6343L40.11 11.9524L40.0286 11.8732L40.0072 11.7703L39.0428 7.47205L34.3584 1.04297L14.5867 7.53528L14.4496 7.58068L14.3208 7.52269L10.1711 5.6754L8.24586 6.98335L8.0422 7.12277L7.83753 6.99148L4.73046 4.99198L0.646484 7.31492Z"/>
</mask>
<path d="M0.646484 7.31492L0.399279 6.88031L0.0872259 7.0578L0.15565 7.41022L0.646484 7.31492ZM9.65376 53.7068L9.16292 53.8021L9.2533 54.2676L9.72292 54.202L9.65376 53.7068ZM14.8544 52.9804L14.9235 53.4756L15.1365 53.4458L15.2614 53.2708L14.8544 52.9804ZM18.5191 47.8431L18.7156 47.3833L18.3457 47.2253L18.1121 47.5527L18.5191 47.8431ZM21.8941 49.2854L22.387 49.201L22.341 48.9326L22.0906 48.8256L21.8941 49.2854ZM22.8188 54.687L22.326 54.7714L22.3661 55.0059L22.5734 55.1226L22.8188 54.687ZM33.7146 60.8265L33.4692 61.2621L33.6678 61.3741L33.8826 61.2975L33.7146 60.8265ZM42.343 57.7497L42.5486 57.2939L42.3649 57.211L42.1751 57.2787L42.343 57.7497ZM46.9071 59.8078L47.36 59.5959L47.2815 59.4282L47.1127 59.352L46.9071 59.8078ZM50.1006 66.6332L49.6478 66.8451L49.7981 67.1665L50.1511 67.1307L50.1006 66.6332ZM56.4393 65.9896L56.4898 66.4871L57.0466 66.4306L56.9279 65.8836L56.4393 65.9896ZM55.6177 62.2051L56.1063 62.099L56.0564 61.8692L55.8477 61.7611L55.6177 62.2051ZM51.7857 60.2202L52.0156 59.7762L52.0133 59.775L51.7857 60.2202ZM51.3952 60.0205L50.9938 59.7225L50.6416 60.1967L51.1676 60.4657L51.3952 60.0205ZM51.657 59.6679L51.257 59.368L51.2556 59.3698L51.657 59.6679ZM54.3876 56.0256L54.7877 56.3256L54.7895 56.323L54.3876 56.0256ZM54.4572 55.9316L54.3069 55.4547L54.1519 55.5035L54.0552 55.6342L54.4572 55.9316ZM54.5727 55.8952L54.7229 56.3721L54.724 56.3717L54.5727 55.8952ZM60.624 53.9739L60.7753 54.4505L60.7834 54.4479L60.7915 54.445L60.624 53.9739ZM60.6982 53.9476L60.7631 53.4518L60.6439 53.4362L60.5307 53.4764L60.6982 53.9476ZM60.7763 53.9578L60.7113 54.4537L60.7243 54.4551L60.7763 53.9578ZM67.9067 54.7036L67.8547 55.2009L68.1504 55.2318L68.3188 54.9868L67.9067 54.7036ZM71.8291 48.997L72.2412 49.2802L72.3142 49.1739L72.3268 49.0455L71.8291 48.997ZM72.2104 45.0856L72.708 45.1341L72.7081 45.133L72.2104 45.0856ZM72.2762 44.3952L72.5917 44.0073L71.8671 43.418L71.7785 44.3478L72.2762 44.3952ZM72.8117 44.8307L72.4962 45.2186L72.4976 45.2197L72.8117 44.8307ZM77.3142 48.4652L77.0001 48.8542L77.1792 48.9988L77.4055 48.9568L77.3142 48.4652ZM81.8969 47.6141L81.9881 48.1057L82.372 48.0344L82.3959 47.6447L81.8969 47.6141ZM82.3093 40.8866L82.8083 40.9172L82.8083 40.917L82.3093 40.8866ZM82.321 40.6941L82.0616 40.2667L81.8378 40.4025L81.8219 40.6637L82.321 40.6941ZM82.486 40.594L82.7455 41.0214L82.7487 41.0194L82.486 40.594ZM86.0729 38.3792L86.3356 38.8046L86.5052 38.6999L86.5562 38.5071L86.0729 38.3792ZM87.396 33.3782L87.8794 33.506L87.9474 33.2488L87.7721 33.0487L87.396 33.3782ZM84.5598 30.1407L84.1836 30.47L84.1838 30.4702L84.5598 30.1407ZM84.3473 29.8979L83.9724 29.5672L83.6817 29.8966L83.9711 30.2272L84.3473 29.8979ZM84.5605 29.6563L84.9355 29.9871L84.9378 29.9844L84.5605 29.6563ZM88.0376 25.6571L88.415 25.9852L88.7713 25.5754L88.3335 25.2541L88.0376 25.6571ZM83.7229 22.49L84.0188 22.0869L84.0162 22.085L83.7229 22.49ZM83.6259 22.4197L83.1516 22.5779L83.2025 22.7304L83.3327 22.8247L83.6259 22.4197ZM83.589 22.309L84.0634 22.1508L84.0622 22.1475L83.589 22.309ZM82.0069 17.6751L82.4801 17.5136L82.4464 17.4149L82.3761 17.3379L82.0069 17.6751ZM77.1104 12.3132L76.7404 12.6496L76.7411 12.6504L77.1104 12.3132ZM77.0275 12.2221L76.5306 12.2779L76.5487 12.4388L76.6576 12.5585L77.0275 12.2221ZM77.0141 12.1025L76.5171 12.1578L76.5172 12.1583L77.0141 12.1025ZM76.4597 7.11393L76.9567 7.05871L76.9013 6.56049L76.4033 6.61713L76.4597 7.11393ZM72.9911 7.50841L72.9346 7.01161L72.778 7.02943L72.6599 7.13385L72.9911 7.50841ZM68.4543 11.5202L68.7784 11.901L68.7855 11.8947L68.4543 11.5202ZM68.3306 11.6254L68.2784 12.1227L68.4915 12.145L68.6546 12.0062L68.3306 11.6254ZM68.1667 11.6083L68.1124 12.1053L68.1146 12.1055L68.1667 11.6083ZM59.6025 10.6729L59.6568 10.1758L59.4609 10.1544L59.3031 10.2724L59.6025 10.6729ZM56.9907 12.6258L57.2892 13.0269L57.2901 13.0262L56.9907 12.6258ZM56.7588 12.7984L56.4457 13.1882L56.7472 13.4303L57.0573 13.1995L56.7588 12.7984ZM56.5361 12.6195L56.222 13.0085L56.223 13.0093L56.5361 12.6195ZM53.9129 10.5011L54.227 10.1121L53.887 9.8375L53.5694 10.1378L53.9129 10.5011ZM46.3617 17.6413L46.0181 17.278L46.0174 17.2787L46.3617 17.6413ZM46.1 17.8897L45.745 18.2418L46.0895 18.5891L46.4443 18.2523L46.1 17.8897ZM45.8467 17.6343L46.2017 17.2822L46.1985 17.2791L45.8467 17.6343ZM40.11 11.9524L40.4618 11.5971L40.4588 11.5942L40.11 11.9524ZM40.0286 11.8732L39.5392 11.9752L39.5703 12.1247L39.6798 12.2314L40.0286 11.8732ZM40.0072 11.7703L40.4968 11.6683L40.4951 11.6608L40.0072 11.7703ZM39.0428 7.47205L39.5307 7.36259L39.508 7.26141L39.447 7.1776L39.0428 7.47205ZM34.3584 1.04297L34.7625 0.748525L34.5482 0.454384L34.2024 0.567924L34.3584 1.04297ZM14.5867 7.53528L14.4307 7.06023L14.4296 7.06061L14.5867 7.53528ZM14.4496 7.58068L14.2443 8.03658L14.4218 8.11655L14.6067 8.05535L14.4496 7.58068ZM14.3208 7.52269L14.5261 7.06678L14.5242 7.06591L14.3208 7.52269ZM10.1711 5.6754L10.3745 5.21862L10.1203 5.10546L9.89018 5.26181L10.1711 5.6754ZM8.24586 6.98335L7.96489 6.56976L7.96343 6.57076L8.24586 6.98335ZM8.0422 7.12277L7.77224 7.54362L8.05118 7.72255L8.32463 7.53535L8.0422 7.12277ZM7.83753 6.99148L7.56695 7.41194L7.56757 7.41234L7.83753 6.99148ZM4.73046 4.99198L5.00104 4.57152L4.74643 4.40768L4.48325 4.55737L4.73046 4.99198ZM0.15565 7.41022L9.16292 53.8021L10.1446 53.6115L1.13732 7.21963L0.15565 7.41022ZM9.72292 54.202L14.9235 53.4756L14.7852 52.4852L9.58459 53.2116L9.72292 54.202ZM15.2614 53.2708L18.9262 48.1335L18.1121 47.5527L14.4473 52.69L15.2614 53.2708ZM18.3227 48.3029L21.6977 49.7452L22.0906 48.8256L18.7156 47.3833L18.3227 48.3029ZM21.4013 49.3698L22.326 54.7714L23.3117 54.6027L22.387 49.201L21.4013 49.3698ZM22.5734 55.1226L33.4692 61.2621L33.9601 60.3909L23.0643 54.2514L22.5734 55.1226ZM33.8826 61.2975L42.511 58.2206L42.1751 57.2787L33.5467 60.3556L33.8826 61.2975ZM42.1375 58.2055L46.7016 60.2636L47.1127 59.352L42.5486 57.2939L42.1375 58.2055ZM46.4543 60.0197L49.6478 66.8451L50.5535 66.4213L47.36 59.5959L46.4543 60.0197ZM50.1511 67.1307L56.4898 66.4871L56.3888 65.4922L50.0501 66.1358L50.1511 67.1307ZM56.9279 65.8836L56.1063 62.099L55.1291 62.3111L55.9507 66.0957L56.9279 65.8836ZM55.8477 61.7611L52.0156 59.7762L51.5557 60.6642L55.3877 62.649L55.8477 61.7611ZM52.0133 59.775L51.6229 59.5753L51.1676 60.4657L51.558 60.6653L52.0133 59.775ZM51.7967 60.3186L52.0585 59.9659L51.2556 59.3698L50.9938 59.7225L51.7967 60.3186ZM52.0571 59.9678L54.7876 56.3256L53.9875 55.7257L51.257 59.368L52.0571 59.9678ZM54.7895 56.323L54.8591 56.229L54.0552 55.6342L53.9856 55.7283L54.7895 56.323ZM54.6074 56.4085L54.7229 56.3721L54.4225 55.4183L54.3069 55.4547L54.6074 56.4085ZM54.724 56.3717L60.7753 54.4505L60.4727 53.4974L54.4214 55.4186L54.724 56.3717ZM60.7915 54.445L60.8657 54.4187L60.5307 53.4764L60.4565 53.5028L60.7915 54.445ZM60.6332 54.4433L60.7113 54.4535L60.8412 53.462L60.7631 53.4518L60.6332 54.4433ZM60.7243 54.4551L67.8547 55.2009L67.9587 54.2063L60.8283 53.4605L60.7243 54.4551ZM68.3188 54.9868L72.2412 49.2802L71.4171 48.7138L67.4947 54.4203L68.3188 54.9868ZM72.3268 49.0455L72.708 45.1341L71.7128 45.0371L71.3315 48.9485L72.3268 49.0455ZM72.7081 45.133L72.774 44.4427L71.7785 44.3478L71.7126 45.0381L72.7081 45.133ZM71.9607 44.7831L72.4962 45.2186L73.1271 44.4428L72.5917 44.0073L71.9607 44.7831ZM72.4976 45.2197L77.0001 48.8542L77.6283 48.0761L73.1257 44.4416L72.4976 45.2197ZM77.4055 48.9568L81.9881 48.1057L81.8056 47.1225L77.2229 47.9736L77.4055 48.9568ZM82.3959 47.6447L82.8083 40.9172L81.8102 40.856L81.3978 47.5835L82.3959 47.6447ZM82.8083 40.917L82.8201 40.7245L81.8219 40.6637L81.8102 40.8562L82.8083 40.917ZM82.5804 41.1216L82.7455 41.0214L82.2266 40.1665L82.0616 40.2667L82.5804 41.1216ZM82.7487 41.0194L86.3356 38.8046L85.8102 37.9538L82.2233 40.1685L82.7487 41.0194ZM86.5562 38.5071L87.8794 33.506L86.9127 33.2503L85.5895 38.2513L86.5562 38.5071ZM87.7721 33.0487L84.9359 29.8113L84.1838 30.4702L87.0199 33.7076L87.7721 33.0487ZM84.9361 29.8115L84.7236 29.5686L83.9711 30.2272L84.1836 30.47L84.9361 29.8115ZM84.7223 30.2287L84.9355 29.9871L84.1856 29.3255L83.9724 29.5672L84.7223 30.2287ZM84.9378 29.9844L88.415 25.9852L87.6603 25.3291L84.1832 29.3282L84.9378 29.9844ZM88.3335 25.2541L84.0188 22.0869L83.4271 22.893L87.7418 26.0602L88.3335 25.2541ZM84.0162 22.085L83.9192 22.0148L83.3327 22.8247L83.4297 22.8949L84.0162 22.085ZM84.1003 22.2615L84.0633 22.1508L83.1147 22.4672L83.1516 22.5779L84.1003 22.2615ZM84.0622 22.1475L82.4801 17.5136L81.5337 17.8367L83.1158 22.4706L84.0622 22.1475ZM82.3761 17.3379L77.4796 11.9761L76.7411 12.6504L81.6377 18.0123L82.3761 17.3379ZM77.4803 11.9768L77.3974 11.8857L76.6576 12.5585L76.7404 12.6496L77.4803 11.9768ZM77.5244 12.1663L77.5109 12.0468L76.5172 12.1583L76.5306 12.2779L77.5244 12.1663ZM77.511 12.0473L76.9567 7.05871L75.9628 7.16915L76.5171 12.1578L77.511 12.0473ZM76.4033 6.61713L72.9346 7.01161L73.0476 8.00521L76.5163 7.61073L76.4033 6.61713ZM72.6599 7.13385L68.1231 11.1456L68.7855 11.8947L73.3223 7.88298L72.6599 7.13385ZM68.1302 11.1394L68.0065 11.2447L68.6546 12.0062L68.7783 11.9009L68.1302 11.1394ZM68.3827 11.1282L68.2188 11.111L68.1146 12.1055L68.2784 12.1227L68.3827 11.1282ZM68.221 11.1112L59.6568 10.1758L59.5482 11.1699L68.1124 12.1053L68.221 11.1112ZM59.3031 10.2724L56.6913 12.2254L57.2901 13.0262L59.9019 11.0733L59.3031 10.2724ZM56.6922 12.2247L56.4603 12.3972L57.0573 13.1995L57.2892 13.0269L56.6922 12.2247ZM57.0719 12.4085L56.8492 12.2296L56.223 13.0093L56.4457 13.1882L57.0719 12.4085ZM56.8502 12.2305L54.227 10.1121L53.5988 10.8901L56.222 13.0085L56.8502 12.2305ZM53.5694 10.1378L46.0181 17.278L46.7052 18.0046L54.2564 10.8644L53.5694 10.1378ZM46.0174 17.2787L45.7557 17.5271L46.4443 18.2523L46.7059 18.0039L46.0174 17.2787ZM46.455 17.5376L46.2016 17.2822L45.4917 17.9864L45.745 18.2418L46.455 17.5376ZM46.1985 17.2791L40.4618 11.5972L39.7581 12.3076L45.4948 17.9895L46.1985 17.2791ZM40.4588 11.5942L40.3775 11.515L39.6798 12.2314L39.7611 12.3106L40.4588 11.5942ZM40.5181 11.7712L40.4967 11.6683L39.5177 11.8723L39.5392 11.9752L40.5181 11.7712ZM40.4951 11.6608L39.5307 7.36259L38.555 7.58151L39.5193 11.8798L40.4951 11.6608ZM39.447 7.1776L34.7625 0.748525L33.9543 1.33741L38.6387 7.76649L39.447 7.1776ZM34.2024 0.567924L14.4307 7.06023L14.7427 8.01032L34.5144 1.51801L34.2024 0.567924ZM14.4296 7.06061L14.2924 7.10601L14.6067 8.05535L14.7439 8.00995L14.4296 7.06061ZM14.6549 7.12477L14.5261 7.06679L14.1155 7.9786L14.2443 8.03658L14.6549 7.12477ZM14.5242 7.06591L10.3745 5.21862L9.9678 6.13218L14.1175 7.97948L14.5242 7.06591ZM9.89018 5.26181L7.96489 6.56976L8.52684 7.39693L10.4521 6.08899L9.89018 5.26181ZM7.96343 6.57076L7.75976 6.71018L8.32463 7.53535L8.5283 7.39594L7.96343 6.57076ZM8.31216 6.70191L8.1075 6.57063L7.56757 7.41234L7.77224 7.54362L8.31216 6.70191ZM8.10811 6.57102L5.00104 4.57152L4.45988 5.41244L7.56695 7.41194L8.10811 6.57102ZM4.48325 4.55737L0.399279 6.88031L0.89369 7.74954L4.97766 5.4266L4.48325 4.55737Z" fill="white" mask="url(#path-1-outside-1)"/>
</svg>
