<svg width="26" height="26" viewBox="0 0 26 26" fill="none" xmlns="http://www.w3.org/2000/svg">
<path d="M21.219 19.7379C23.1221 17.7516 24.2567 15.1957 24.4322 12.4996C24.6077 9.80347 23.8134 7.13136 22.1827 4.93219C20.552 2.73302 18.1843 1.14077 15.4773 0.422943C12.7704 -0.294887 9.88914 -0.0945655 7.3176 0.990255C4.74605 2.07508 2.64092 3.9783 1.35583 6.38019C0.0707458 8.78208 -0.315986 11.5363 0.260604 14.1802C0.837193 16.824 2.34197 19.1964 4.52215 20.8988C6.70232 22.6012 9.42506 23.5298 12.2329 23.5288C14.9406 23.5221 17.5703 22.6563 19.7144 21.0655L24.2366 25.6881C24.333 25.7859 24.4489 25.864 24.5775 25.9176C24.7061 25.9712 24.8446 25.9992 24.9847 26C25.2486 25.9997 25.5032 25.9057 25.6996 25.7361C25.892 25.5502 26 25.2986 26 25.0363C26 24.774 25.892 24.5224 25.6996 24.3365L21.219 19.7379ZM19.6895 18.4263C18.0759 20.0995 15.9058 21.1781 13.5537 21.476C11.2017 21.7739 8.81531 21.2723 6.80663 20.058C4.79795 18.8436 3.293 16.9926 2.55159 14.8246C1.81018 12.6565 1.87884 10.3074 2.74572 8.18287C3.6126 6.05832 5.22329 4.29162 7.29973 3.18778C9.37617 2.08394 11.788 1.71223 14.119 2.13682C16.4499 2.56141 18.5536 3.75565 20.0669 5.51337C21.5802 7.2711 22.4081 9.48199 22.4077 11.7644C22.4032 14.2346 21.4329 16.6128 19.6895 18.4263Z" fill="white"/>
</svg>
