<svg width="94" height="90" viewBox="0 0 94 90" fill="none" xmlns="http://www.w3.org/2000/svg">
<path d="M34.1846 42.3283C34.1064 42.3283 34.0282 42.2924 33.9818 42.2248L17.4332 19.934C17.3888 19.8748 17.374 19.8009 17.3867 19.7311C17.4015 19.6593 17.4458 19.598 17.5092 19.5621L50.6043 0.455081C50.7163 0.391701 50.8599 0.421279 50.9339 0.5248L67.4825 22.8156C67.5268 22.8748 67.5416 22.9487 67.529 23.0185C67.5142 23.0903 67.4698 23.1516 67.4064 23.1875L34.3113 42.2945C34.2712 42.3178 34.2268 42.3283 34.1846 42.3283ZM18.0099 19.86L34.2543 41.741L66.9036 22.8896L50.6613 1.0086L18.0099 19.86Z" fill="#333333"/>
<path d="M1.08958 23.2216C0.986058 23.2216 0.888874 23.1561 0.850846 23.0547C0.80648 22.9385 0.855071 22.8075 0.962818 22.7462L34.0579 3.63919C34.0811 3.6244 34.1086 3.61595 34.1361 3.60961L50.6825 0.425807C50.803 0.404681 50.9255 0.470172 50.9699 0.58637C51.0142 0.702567 50.9656 0.833554 50.8579 0.894822L17.7628 20.0019C17.7396 20.0167 17.7121 20.0251 17.6847 20.0314L1.13817 23.2152C1.12127 23.2195 1.10437 23.2216 1.08958 23.2216ZM34.2755 4.10186L2.5262 22.4314L17.5473 19.5413L49.2966 1.21172L34.2755 4.10186Z" fill="#333333"/>
<path d="M31.4256 75.8206C31.2861 75.8206 31.1699 75.7066 31.1699 75.565V38.365C31.1699 38.2256 31.284 38.1094 31.4256 38.1094C31.5671 38.1094 31.6812 38.2235 31.6812 38.365V75.5671C31.6791 75.7065 31.565 75.8206 31.4256 75.8206Z" fill="#333333"/>
<path d="M3.8445 59.8955C3.70506 59.8955 3.58887 59.7814 3.58887 59.6399V22.4314C3.58887 22.292 3.70295 22.1758 3.8445 22.1758C3.98394 22.1758 4.10014 22.2899 4.10014 22.4314V59.642C4.10014 59.7814 3.98394 59.8955 3.8445 59.8955Z" fill="#333333"/>
<path d="M64.5227 39.3156C64.3833 39.3156 64.2671 39.2015 64.2671 39.0599V24.5564C64.2671 24.417 64.3812 24.3008 64.5227 24.3008C64.6643 24.3008 64.7784 24.4149 64.7784 24.5564V39.0599C64.7784 39.2015 64.6643 39.3156 64.5227 39.3156Z" fill="#333333"/>
<path d="M39.5973 38.9664L23.0509 16.6734L23.2537 16.5234L39.8001 38.8143L39.5973 38.9664Z" fill="#333333"/>
<path d="M45.1135 35.781L28.567 13.4881L28.7698 13.3359L45.3163 35.6289L45.1135 35.781Z" fill="#333333"/>
<path d="M50.6298 32.5958L46.4889 27.0162L46.6918 26.8662L50.8326 32.4437L50.6298 32.5958Z" fill="#333333"/>
<path d="M38.2241 15.884L34.0833 10.3045L34.2861 10.1523L38.429 15.7319L38.2241 15.884Z" fill="#333333"/>
<path d="M56.1458 29.4117L39.5973 7.11875L39.8001 6.96875L56.3487 29.2596L56.1458 29.4117Z" fill="#333333"/>
<path d="M45.3134 3.78247L45.1099 3.93359L61.6592 26.2242L61.8628 26.0731L45.3134 3.78247Z" fill="#333333"/>
<path d="M6.62901 19.9069L6.58041 19.6576L23.129 16.4717L23.1755 16.7231L6.62901 19.9069Z" fill="#333333"/>
<path d="M12.1136 16.7412L12.0671 16.4919L28.6453 13.2891L28.6918 13.5384L12.1136 16.7412Z" fill="#333333"/>
<path d="M17.6593 13.5386L17.6128 13.2893L34.1614 10.1055L34.2079 10.3548L17.6593 13.5386Z" fill="#333333"/>
<path d="M23.1754 10.3522L23.129 10.1029L39.6754 6.91699L39.7219 7.1684L23.1754 10.3522Z" fill="#333333"/>
<path d="M28.6917 7.16861L28.6453 6.9172L45.1917 3.7334L45.2382 3.9827L28.6917 7.16861Z" fill="#333333"/>
<path d="M28.7994 51.8482L28.6093 51.7383L6.47691 38.9609V34.1123L8.50296 35.2891V37.7968L26.7755 48.3348V45.8355L28.8015 47.0102V51.8482H28.7994ZM6.72831 38.8151L28.5438 51.4088V47.1581L27.0248 46.2792V48.7764L26.8346 48.6665L8.24521 37.9447V35.4369L6.7262 34.556V38.8151H6.72831Z" fill="#333333"/>
<path d="M26.9001 41.1255V39.9149L8.37402 29.2227V37.8677L9.68811 38.6262V31.1896L26.9001 41.1255Z" fill="#333333"/>
<path d="M26.9 41.3802C26.8556 41.3802 26.8113 41.3675 26.7732 41.3464L9.94156 31.6302V38.6253C9.94156 38.7161 9.89297 38.8006 9.81269 38.845C9.73663 38.8894 9.63522 38.8894 9.55917 38.845L8.24508 38.0886C8.1648 38.0443 8.11621 37.9598 8.11621 37.8689V29.2217C8.11621 29.1309 8.1648 29.0464 8.24508 29.002C8.32114 28.9577 8.42255 28.9577 8.4986 29.002L27.0247 39.6964C27.1049 39.7408 27.1535 39.8253 27.1535 39.9161V41.1267C27.1535 41.2175 27.1049 41.302 27.0247 41.3464C26.9887 41.3696 26.9444 41.3802 26.9 41.3802ZM9.68804 30.9351C9.73241 30.9351 9.77678 30.9478 9.8148 30.9689L26.6465 40.6851V40.0619L8.62959 29.6612V37.721L9.43241 38.1858V31.1908C9.43241 31.0999 9.481 31.0154 9.56128 30.971C9.59931 30.9457 9.64368 30.9351 9.68804 30.9351Z" fill="#333333"/>
<path d="M17.0445 53.7734V52.5629L11.5283 49.377V62.1164L12.8403 62.8749V51.346L17.0445 53.7734Z" fill="#333333"/>
<path d="M12.8424 63.1282C12.798 63.1282 12.7537 63.1156 12.7156 63.0944L11.4016 62.336C11.3213 62.2916 11.2727 62.2071 11.2727 62.1163V49.379C11.2727 49.2881 11.3213 49.2036 11.4016 49.1593C11.4776 49.1149 11.579 49.1149 11.6551 49.1593L17.1713 52.3431C17.2516 52.3874 17.3002 52.4719 17.3002 52.5628V53.7733C17.3002 53.8642 17.2516 53.9487 17.1713 53.993C17.0952 54.0374 16.9938 54.0374 16.9178 53.993L13.0959 51.7874V62.8726C13.0959 62.9635 13.0473 63.048 12.9671 63.0923C12.929 63.1156 12.8847 63.1282 12.8424 63.1282ZM11.7839 61.9684L12.5868 62.4332V51.3459C12.5868 51.255 12.6354 51.1705 12.7156 51.1261C12.7917 51.0818 12.8931 51.0818 12.9692 51.1261L16.7889 53.3318V52.7085L11.7818 49.8184V61.9684H11.7839Z" fill="#333333"/>
<path d="M26.9001 48.8099C26.8558 48.8099 26.8114 48.7972 26.7734 48.7761L9.56141 38.8486C9.48112 38.8043 9.43253 38.7197 9.43253 38.6289V31.1944C9.43253 31.1036 9.48112 31.019 9.56141 30.9747C9.63746 30.9303 9.73887 30.9303 9.81493 30.9747L27.0269 40.9106C27.1072 40.955 27.1558 41.0395 27.1558 41.1303V48.5563C27.1558 48.6472 27.1072 48.7317 27.0269 48.7761C26.9889 48.7993 26.9445 48.8099 26.9001 48.8099ZM9.94169 38.481L26.6445 48.1148V41.2761L9.94169 31.6338V38.481Z" fill="#333333"/>
<path d="M17.0446 65.5555C17.0002 65.5555 16.9558 65.5428 16.9178 65.5217L12.7157 63.0942C12.6354 63.0498 12.5868 62.9653 12.5868 62.8745V51.3477C12.5868 51.2569 12.6354 51.1724 12.7157 51.128C12.7918 51.0836 12.8932 51.0836 12.9692 51.128L17.1713 53.5555C17.2516 53.5998 17.3002 53.6843 17.3002 53.7752V65.3019C17.3002 65.3928 17.2516 65.4773 17.1713 65.5217C17.1333 65.5428 17.0889 65.5555 17.0446 65.5555ZM13.096 62.7266L16.7889 64.8604V53.921L13.096 51.7893V62.7266Z" fill="#333333"/>
<path d="M17.6382 43.4659C17.4988 43.4659 17.3826 43.3518 17.3826 43.2102V35.1736C17.3826 35.0342 17.4967 34.918 17.6382 34.918C17.7776 34.918 17.8938 35.0321 17.8938 35.1736V43.2102C17.8917 43.3518 17.7776 43.4659 17.6382 43.4659Z" fill="#333333"/>
<path d="M35.8516 47.658V43.8995L39.8255 41.6094V45.3678L35.8516 47.658ZM36.1051 44.0453V47.2185L39.572 45.222V42.0488L36.1051 44.0453Z" fill="#333333"/>
<path d="M39.5721 45.512V41.7535L43.5481 39.457V43.2218L42.9544 43.5641L39.5721 45.512ZM39.8256 41.9014V45.0746L43.2946 43.076V39.8986L39.8256 41.9014Z" fill="#333333"/>
<path d="M52.3982 38.1423V34.3839L56.3743 32.0938V35.8522L52.3982 38.1423ZM52.6517 34.5297V37.7029L56.1207 35.7064V32.5332L52.6517 34.5297Z" fill="#333333"/>
<path d="M56.1207 35.9963V32.2379L60.0946 29.9414V33.7062L56.1207 35.9963ZM56.3742 32.3858V35.559L59.8411 33.5604V30.383L56.3742 32.3858Z" fill="#333333"/>
<path d="M3.45577 69.936V67.4346L12.1199 72.4374V74.9388L3.45577 69.936Z" fill="#333333"/>
<path d="M12.1198 75.1944C12.0755 75.1944 12.0311 75.1817 11.9931 75.1606L3.32899 70.1577C3.24871 70.1134 3.20012 70.0288 3.20012 69.938V67.4366C3.20012 67.3457 3.24871 67.2612 3.32899 67.2169C3.40505 67.1725 3.50646 67.1725 3.58252 67.2169L12.2466 72.2197C12.3269 72.2641 12.3755 72.3486 12.3755 72.4394V74.9408C12.3755 75.0317 12.3269 75.1162 12.2466 75.1606C12.2086 75.1817 12.1642 75.1944 12.1198 75.1944ZM3.71139 69.7901L11.8663 74.4993V72.5852L3.71139 67.876V69.7901Z" fill="#333333"/>
<path d="M12.1199 72.6897C12.0756 72.6897 12.0312 72.6771 11.9932 72.6559L3.32907 67.6531C3.24879 67.6087 3.2002 67.5242 3.2002 67.4334C3.2002 67.3425 3.24879 67.258 3.32907 67.2137L5.49668 65.963C5.57274 65.9186 5.67414 65.9186 5.7502 65.963L14.4143 70.9658C14.4946 71.0101 14.5432 71.0947 14.5432 71.1855C14.5432 71.2763 14.4946 71.3609 14.4143 71.4052L12.2467 72.6559C12.2087 72.6771 12.1643 72.6897 12.1199 72.6897ZM3.96499 67.4313L12.1199 72.1404L13.7763 71.1834L5.62133 66.4742L3.96499 67.4313Z" fill="#333333"/>
<path d="M14.2896 68.6885V71.1878L5.62555 66.1808V63.6836L14.2896 68.6885Z" fill="#333333"/>
<path d="M14.2896 71.4404C14.2452 71.4404 14.2008 71.4278 14.1628 71.4066L5.49661 66.4017C5.41633 66.3573 5.36774 66.2728 5.36774 66.182V63.6827C5.36774 63.5918 5.41633 63.5073 5.49661 63.463C5.57267 63.4186 5.67407 63.4186 5.75013 63.463L14.4163 68.4679C14.4966 68.5123 14.5452 68.5968 14.5452 68.6876V71.1869C14.5452 71.2778 14.4966 71.3623 14.4163 71.4066C14.3783 71.4299 14.3339 71.4404 14.2896 71.4404ZM5.879 66.0341L14.0361 70.7454V68.8355L5.879 64.1242V66.0341Z" fill="#333333"/>
<path d="M14.2896 68.9433C14.2452 68.9433 14.2008 68.9307 14.1628 68.9095L5.49661 63.9046C5.41633 63.8581 5.36774 63.7758 5.36774 63.6849C5.36774 63.5941 5.41633 63.5096 5.49661 63.4652L9.82971 60.9659C9.90576 60.9215 10.0072 60.9215 10.0832 60.9659L18.7494 65.9624C18.8276 66.0088 18.8762 66.0912 18.8762 66.1821C18.8762 66.2729 18.8276 66.3574 18.7494 66.4018L14.4163 68.9095C14.3783 68.9307 14.3339 68.9433 14.2896 68.9433ZM6.13464 63.6828L14.2917 68.394L18.1156 66.18L9.95647 61.4772L6.13464 63.6828Z" fill="#333333"/>
<path d="M12.1177 75.1898C12.0734 75.1898 12.029 75.1771 11.991 75.156C11.9107 75.1095 11.8621 75.0271 11.8621 74.9363V72.437C11.8621 72.3461 11.9107 72.2616 11.991 72.2173L14.0339 71.0405V68.6891C14.0339 68.5983 14.0825 68.5137 14.1607 68.4694L18.4938 65.9638C18.5741 65.9173 18.6713 65.9194 18.7494 65.9638C18.8297 66.0081 18.8783 66.0926 18.8783 66.1835V71.1884C18.8783 71.2792 18.8297 71.3637 18.7516 71.4081L12.2466 75.156C12.2065 75.1792 12.1621 75.1898 12.1177 75.1898ZM12.3734 72.5849V74.4968L18.367 71.0426V66.625L14.5452 68.837V71.1884C14.5452 71.2792 14.4966 71.3637 14.4163 71.4081L12.3734 72.5849Z" fill="#333333"/>
<path d="M68.0952 86.4504C67.9558 86.4504 67.8396 86.3363 67.8396 86.1948V68.0955C67.8396 67.956 67.9537 67.8398 68.0952 67.8398C68.2347 67.8398 68.3509 67.9539 68.3509 68.0955V86.1969C68.3488 86.3363 68.2347 86.4504 68.0952 86.4504Z" fill="#333333"/>
<path d="M90.1558 73.4541V76.583L68.0952 89.3224V86.1957L90.1558 73.4541Z" fill="#333333"/>
<path d="M68.0952 89.5779C68.0509 89.5779 68.0065 89.5653 67.9685 89.5441C67.8882 89.4998 67.8396 89.4153 67.8396 89.3244V86.1956C67.8396 86.1047 67.8882 86.0202 67.9685 85.9758L90.029 73.2364C90.1051 73.192 90.2065 73.192 90.2826 73.2364C90.3628 73.2808 90.4114 73.3653 90.4114 73.4561V76.5829C90.4114 76.6737 90.3628 76.7582 90.2826 76.8026L68.222 89.542C68.1819 89.5653 68.1375 89.5779 68.0952 89.5779ZM68.3487 86.3413V88.8808L89.9002 76.435V73.8956L68.3487 86.3413Z" fill="#333333"/>
<path d="M90.1538 73.7119C90.0144 73.7119 89.8982 73.5978 89.8982 73.4563V60.6619C89.8982 60.5224 90.0123 60.4062 90.1538 60.4062C90.2954 60.4062 90.4094 60.5203 90.4094 60.6619V73.4563C90.4094 73.5978 90.2954 73.7119 90.1538 73.7119Z" fill="#333333"/>
<path d="M70.848 72.0616C70.7698 72.0616 70.6916 72.0257 70.6452 71.9581L54.0987 49.6673C54.0543 49.6081 54.0395 49.5342 54.0522 49.4644C54.067 49.3926 54.1114 49.3313 54.1747 49.2954L76.2374 36.5581C76.3494 36.4926 76.493 36.5222 76.567 36.6278L93.1135 58.9187C93.1578 58.9778 93.1726 59.0518 93.1599 59.1215C93.1451 59.1933 93.1008 59.2546 93.0374 59.2905L70.9747 72.0299C70.9346 72.0511 70.8923 72.0616 70.848 72.0616ZM54.6754 49.5933L70.9177 71.4743L92.5367 58.9926L76.2945 37.1116L54.6754 49.5933Z" fill="#333333"/>
<path d="M37.7529 52.9562C37.6494 52.9562 37.5522 52.8907 37.5142 52.7893C37.4698 52.6731 37.5184 52.5421 37.6261 52.4808L59.6909 39.7414C59.7142 39.7266 59.7416 39.7181 59.7691 39.7118L76.3156 36.528C76.4381 36.5047 76.5606 36.5724 76.6029 36.6886C76.6473 36.8048 76.5987 36.9357 76.4909 36.997L54.4283 49.7343C54.405 49.7491 54.3776 49.7576 54.3501 49.7639L37.8015 52.9477C37.7846 52.954 37.7698 52.9562 37.7529 52.9562ZM59.9085 40.204L39.1895 52.166L54.2107 49.2759L74.9275 37.316L59.9085 40.204Z" fill="#333333"/>
<path d="M76.2628 68.7007L59.7163 46.4099L59.9191 46.2578L76.4656 68.5486L76.2628 68.7007Z" fill="#333333"/>
<path d="M65.434 43.0676L65.2305 43.2188L81.7798 65.5094L81.9834 65.3583L65.434 43.0676Z" fill="#333333"/>
<path d="M87.2952 62.3297L70.7466 40.0388L70.9494 39.8867L87.498 62.1797L87.2952 62.3297Z" fill="#333333"/>
<path d="M43.2923 49.644L43.2458 49.3947L59.7945 46.2109L59.8409 46.4602L43.2923 49.644Z" fill="#333333"/>
<path d="M48.8021 46.4608L48.7556 46.2115L65.3084 43.0234L65.3549 43.2727L48.8021 46.4608Z" fill="#333333"/>
<path d="M54.3248 43.2729L54.2783 43.0236L70.8248 39.8398L70.8713 40.0891L54.3248 43.2729Z" fill="#333333"/>
<path d="M43.8121 75.5683C43.7699 75.5683 43.7297 75.5577 43.6896 75.5366L40.3854 73.6225C40.2649 73.5528 40.2227 73.3965 40.2924 73.276C40.3621 73.1556 40.5206 73.1134 40.6389 73.1831L43.9431 75.0887C44.0234 75.1331 44.072 75.2176 44.072 75.3084C44.072 75.3993 44.0234 75.488 43.9431 75.5324C43.9051 75.5577 43.8586 75.5683 43.8121 75.5683Z" fill="#333333"/>
<path d="M64.7803 87.4062L68.0951 89.3203L64.7803 87.4147V87.4062Z" fill="#333333"/>
<path d="M68.0951 89.5774C68.0507 89.5774 68.0085 89.5668 67.9683 89.5436H67.9662L64.6535 87.64C64.5732 87.5957 64.5247 87.5112 64.5247 87.4203C64.5247 87.3295 64.5732 87.2407 64.6535 87.1964C64.7338 87.1499 64.8289 87.1478 64.9071 87.1921L68.2198 89.1062C68.3423 89.176 68.3845 89.3323 68.3127 89.4527C68.2683 89.5309 68.1817 89.5774 68.0951 89.5774Z" fill="#333333"/>
<path d="M68.0953 86.4507C68.0509 86.4507 68.0065 86.4381 67.9685 86.4169L64.6558 84.5028C64.5755 84.4585 64.5269 84.374 64.5269 84.2831V69.731L44.0741 57.9233V72.1817C44.0741 72.2726 44.0256 72.3571 43.9453 72.4014C43.8692 72.4458 43.7678 72.4458 43.6917 72.4014L40.3875 70.4958C40.3072 70.4514 40.2587 70.3669 40.2587 70.2761V52.1768C40.2587 52.0542 40.3453 51.9507 40.4657 51.9275L54.253 49.2697C54.3481 49.2528 54.4474 49.2887 54.5044 49.3669L68.2981 67.9458C68.3319 67.9902 68.3488 68.043 68.3488 68.0979V86.1972C68.3488 86.2881 68.3002 86.3726 68.2199 86.4169C68.1819 86.4402 68.1375 86.4507 68.0953 86.4507ZM65.0361 84.1374L67.8396 85.7578V68.1824L54.1917 49.8L40.7699 52.388V70.1303L43.565 71.7423V57.4838C43.565 57.393 43.6136 57.3085 43.6939 57.2641C43.7699 57.2197 43.8713 57.2197 43.9474 57.2641L64.9093 69.3655C64.9896 69.4099 65.0382 69.4944 65.0382 69.5852V84.1374H65.0361Z" fill="#333333"/>
<path d="M64.7804 69.584V70.9488L45.236 59.6607V76.1311L43.8184 75.3157V57.4805L64.7804 69.584Z" fill="#333333"/>
<path d="M45.236 76.3838C45.1917 76.3838 45.1494 76.3711 45.1093 76.35L43.6917 75.5345C43.6114 75.4901 43.5628 75.4056 43.5628 75.3148V57.4796C43.5628 57.3887 43.6114 57.3042 43.6917 57.2598C43.7677 57.2155 43.8691 57.2155 43.9452 57.2598L64.9072 69.3613C64.9875 69.4056 65.036 69.4901 65.036 69.581V70.9458C65.036 71.0366 64.9875 71.1211 64.9072 71.1655C64.8311 71.2099 64.7297 71.2099 64.6536 71.1655L45.4896 60.0993V76.1282C45.4896 76.219 45.441 76.3035 45.3628 76.3479C45.3248 76.3732 45.2804 76.3838 45.236 76.3838ZM44.0741 75.1669L44.9825 75.6887V59.6598C44.9825 59.569 45.0311 59.4845 45.1114 59.4401C45.1875 59.3958 45.2889 59.3958 45.3649 59.4401L64.529 70.5063V69.7289L44.0762 57.9211V75.1669H44.0741Z" fill="#333333"/>
<path d="M64.7805 87.6751C64.7361 87.6751 64.6917 87.6625 64.6537 87.6413L45.1093 76.3533C45.0291 76.3089 44.9805 76.2244 44.9805 76.1336V59.6632C44.9805 59.5723 45.0291 59.4878 45.1093 59.4434C45.1854 59.3991 45.2868 59.3991 45.3629 59.4434L64.9072 70.7294C64.9875 70.7737 65.0361 70.8582 65.0361 70.9491V87.4195C65.0361 87.5104 64.9875 87.5949 64.9072 87.6392C64.8692 87.6625 64.8248 87.6751 64.7805 87.6751ZM45.4917 75.9857L64.527 86.978V71.0948L45.4917 60.1026V75.9857Z" fill="#333333"/>
<path d="M70.7213 76.7994V74.3825L76.4911 71.0508V73.4677L70.7213 76.7994ZM70.9749 74.5304V76.3599L76.2375 73.324V71.4944L70.9749 74.5304Z" fill="#333333"/>
<path d="M76.2375 73.6158V71.1989L82.0072 67.8672V70.2841L76.2375 73.6158ZM76.491 71.3447V73.1742L81.7537 70.1362V68.3066L76.491 71.3447Z" fill="#333333"/>
<path d="M81.7538 70.4322V68.0153L87.5235 64.6836V67.1005L81.7538 70.4322ZM82.0073 68.1611V69.9906L87.27 66.9526V65.123L82.0073 68.1611Z" fill="#333333"/>
<path d="M42.4536 29.5912C42.4093 29.5912 42.3649 29.5785 42.3269 29.5574C42.2466 29.513 42.198 29.4285 42.198 29.3376V23.6207C42.198 23.5848 42.2065 23.5489 42.2212 23.5151L45.1726 17.0207C45.2086 16.9383 45.2867 16.8834 45.3733 16.8728C45.4663 16.8623 45.5508 16.9003 45.6036 16.97L48.1642 20.2743C48.198 20.3186 48.217 20.3735 48.217 20.4306V26.1454C48.217 26.2362 48.1684 26.3207 48.0902 26.3651L42.5783 29.5552C42.5424 29.5785 42.498 29.5912 42.4536 29.5912ZM42.7093 23.6778V28.8961L47.71 26.0017V20.5214L45.4621 17.6186L42.7093 23.6778ZM44.7036 26.6947C44.6593 26.6947 44.6149 26.682 44.5748 26.6609C44.4966 26.6165 44.448 26.532 44.448 26.4412V21.7447C44.448 21.6538 44.4966 21.5693 44.5769 21.525L45.5973 20.9397C45.6776 20.8933 45.7726 20.8954 45.8529 20.9397C45.9311 20.9841 45.9797 21.0686 45.9797 21.1595V25.8559C45.9797 25.9468 45.9311 26.0313 45.8508 26.0757L44.8304 26.6609C44.7903 26.682 44.748 26.6947 44.7036 26.6947ZM44.9593 21.8904V25.9996L45.4705 25.7059V21.5968L44.9593 21.8904ZM45.7241 25.8538H45.7304H45.7241Z" fill="#333333"/>
<path d="M45.4052 17.3805C45.3291 17.3805 45.2531 17.3467 45.2024 17.2791L40.3453 10.8587C40.2587 10.7467 40.2819 10.5883 40.3939 10.5017C40.5059 10.415 40.6664 10.4383 40.7509 10.5524L45.608 16.9728C45.6946 17.0848 45.6714 17.2432 45.5594 17.3298C45.5129 17.3636 45.458 17.3805 45.4052 17.3805Z" fill="#333333"/>
<path d="M42.4538 23.6233V29.336L37.7509 17.1289L42.4538 23.6233Z" fill="#333333"/>
<path d="M42.4538 29.5927C42.3503 29.5927 42.2553 29.5293 42.2172 29.43L37.5123 17.2209C37.4658 17.1026 37.5165 16.9674 37.6285 16.9061C37.7426 16.8448 37.882 16.8765 37.9559 16.98L42.6609 23.4744C42.6926 23.5188 42.7095 23.5695 42.7095 23.6244V29.3392C42.7095 29.4617 42.6207 29.5674 42.5003 29.5885C42.4855 29.5906 42.4686 29.5927 42.4538 29.5927ZM38.689 18.8603L42.2003 27.9702V23.7068L38.689 18.8603Z" fill="#333333"/>
<path d="M37.7488 17.3844C37.715 17.3844 37.6812 17.3781 37.6474 17.3633C37.5185 17.3084 37.4593 17.1584 37.5164 17.0295L40.3157 10.6049C40.3727 10.476 40.5227 10.4169 40.6516 10.4739C40.7804 10.5288 40.8396 10.6788 40.7826 10.8077L37.9833 17.2323C37.941 17.3274 37.8481 17.3844 37.7488 17.3844Z" fill="#333333"/>
<path d="M45.7243 21.1611V25.8555L44.7059 26.4407V21.7442L45.7243 21.1611Z" fill="#333333"/>
<path d="M44.7038 26.6962C44.6594 26.6962 44.615 26.6835 44.5749 26.6624C44.4967 26.6181 44.4481 26.5335 44.4481 26.4427V21.7462C44.4481 21.6554 44.4967 21.5709 44.577 21.5265L45.5974 20.9413C45.6777 20.8948 45.7728 20.8969 45.8531 20.9413C45.9312 20.9857 45.9798 21.0702 45.9798 21.161V25.8575C45.9798 25.9483 45.9312 26.0328 45.8509 26.0772L44.8305 26.6624C44.7904 26.6835 44.7481 26.6962 44.7038 26.6962ZM44.9594 21.892V26.0012L45.4707 25.7075V21.5983L44.9594 21.892Z" fill="#333333"/>
<path d="M68.0952 86.1963V89.3231L64.7804 87.409V84.2822L68.0952 86.1963Z" fill="#333333"/>
<path d="M68.0952 89.5786C68.0508 89.5786 68.0064 89.566 67.9684 89.5448L64.6557 87.6307C64.5754 87.5864 64.5268 87.5019 64.5268 87.411V84.2843C64.5268 84.1934 64.5754 84.1089 64.6557 84.0645C64.7318 84.0202 64.8332 84.0202 64.9092 84.0645L68.2219 85.9786C68.3022 86.023 68.3508 86.1075 68.3508 86.1983V89.3251C68.3508 89.416 68.3022 89.5005 68.2219 89.5448C68.1818 89.566 68.1374 89.5786 68.0952 89.5786ZM65.036 87.2631L67.8395 88.8836V86.3441L65.036 84.7237V87.2631Z" fill="#333333"/>
<path d="M64.7804 87.6647C64.7361 87.6647 64.6938 87.6541 64.6537 87.6309L43.6917 75.538C43.6114 75.4936 43.5628 75.4091 43.5628 75.3183C43.5628 75.1133 43.8438 74.9992 43.9874 75.1218L45.3628 75.9119L64.9072 87.1894C65.0297 87.2591 65.072 87.4154 65.0001 87.5379C64.9537 87.6182 64.8692 87.6647 64.7804 87.6647Z" fill="#333333"/>
<path d="M8.23873 62.1747L5.62535 63.681V63.7951L5.57253 63.7698L3.84436 62.7684V59.6416L8.23873 62.1747Z" fill="#333333"/>
<path d="M5.62533 64.0507C5.5873 64.0507 5.54927 64.0422 5.51336 64.0253C5.50913 64.0232 5.44786 63.9936 5.44364 63.9915L3.71758 62.9901C3.63941 62.9457 3.59082 62.8612 3.59082 62.7704V59.6436C3.59082 59.5528 3.63941 59.4683 3.71969 59.4239C3.79575 59.3795 3.89716 59.3795 3.97321 59.4239L8.36758 61.957C8.44786 62.0014 8.49645 62.0859 8.49645 62.1767C8.49645 62.2676 8.44786 62.3521 8.36758 62.3964L5.87885 63.8309C5.86828 63.9049 5.82603 63.9725 5.76054 64.0126C5.71829 64.038 5.67181 64.0507 5.62533 64.0507ZM4.09998 62.6225L5.52181 63.4464L7.72955 62.1746L4.09998 60.0809V62.6225Z" fill="#333333"/>
<path d="M31.4233 75.5638V78.7011L18.5698 71.2772L18.5149 71.2497L18.6226 71.1885V68.1758L31.4233 75.5638Z" fill="#333333"/>
<path d="M31.4254 78.9537C31.3811 78.9537 31.3367 78.9411 31.2987 78.9199L18.443 71.496C18.3628 71.4516 18.2888 71.3523 18.2888 71.2615C18.2888 71.1791 18.3057 71.0904 18.3691 71.0418V68.1749C18.3691 68.084 18.4177 67.9995 18.498 67.9551C18.574 67.9108 18.6754 67.9108 18.7515 67.9551L31.5543 75.3432C31.6346 75.3875 31.6832 75.472 31.6832 75.5629V78.7002C31.6832 78.7911 31.6346 78.8756 31.5543 78.9199C31.5121 78.9432 31.4677 78.9537 31.4254 78.9537ZM18.8761 71.1601L31.1698 78.2587V75.7108L18.8761 68.6143V71.1601Z" fill="#333333"/>
<path d="M40.5142 70.2734V73.4002L31.4233 78.6988V75.5615L40.5142 70.2734Z" fill="#333333"/>
<path d="M31.4256 78.9535C31.3812 78.9535 31.3389 78.9409 31.2988 78.9197C31.2185 78.8754 31.1699 78.7909 31.1699 78.7V75.5627C31.1699 75.4718 31.2185 75.3873 31.2967 75.343L40.3854 70.0528C40.4657 70.0084 40.5608 70.0084 40.641 70.0528C40.7213 70.0972 40.7699 70.1817 40.7699 70.2725V73.3993C40.7699 73.4901 40.7213 73.5725 40.6432 73.619L31.5544 78.9176C31.5122 78.943 31.4699 78.9535 31.4256 78.9535ZM31.6791 75.7106V78.2564L40.2586 73.2556V70.7162L31.6791 75.7106Z" fill="#333333"/>
<path d="M43.8184 72.1809V75.3097L40.5142 73.4041V70.2773L43.8184 72.1809Z" fill="#333333"/>
<path d="M43.8184 75.5623C43.774 75.5623 43.7297 75.5496 43.6916 75.5285L40.3874 73.6229C40.3071 73.5785 40.2585 73.494 40.2585 73.4032V70.2764C40.2585 70.1856 40.3071 70.1011 40.3874 70.0567C40.4635 70.0123 40.5649 70.0123 40.6409 70.0567L43.9452 71.9623C44.0254 72.0067 44.074 72.0912 44.074 72.1821V75.3088C44.074 75.3996 44.0254 75.4842 43.9452 75.5285C43.9071 75.5518 43.8628 75.5623 43.8184 75.5623ZM40.7677 73.2553L43.5628 74.8673V72.3278L40.7677 70.7159V73.2553Z" fill="#333333"/>
</svg>
