<svg width="80" height="92" viewBox="0 0 80 92" fill="none" xmlns="http://www.w3.org/2000/svg">
<path d="M58.4774 67.3273C58.4542 67.3273 58.4331 67.3252 58.4119 67.3189C58.3464 67.302 58.2915 67.2576 58.2577 67.2006L50.3457 53.4872C50.3119 53.428 50.3014 53.3583 50.3204 53.2949C50.3373 53.2294 50.3795 53.1745 50.4387 53.1407L71.557 40.94C71.6162 40.9062 71.6859 40.8956 71.7514 40.9147C71.8169 40.9316 71.8718 40.9759 71.9056 41.033L79.8197 54.759C79.8535 54.8182 79.8641 54.8879 79.845 54.9534C79.826 55.0189 79.7838 55.0738 79.7267 55.1076L58.6084 67.2956C58.5662 67.3168 58.5218 67.3273 58.4774 67.3273ZM50.9119 53.4513L58.5704 66.7252L79.2472 54.7928L71.5887 41.5083L50.9119 53.4513Z" fill="#333333"/>
<path d="M58.4776 85.3689V91.4661L43.9487 83.0703V76.9795L58.4776 85.3689Z" fill="#333333"/>
<path d="M58.4754 91.7205C58.4311 91.7205 58.3867 91.7079 58.3487 91.6867L43.8198 83.2909C43.7395 83.2445 43.6909 83.1621 43.6909 83.0712V76.9825C43.6909 76.8916 43.7395 76.8071 43.8198 76.7628C43.8958 76.7184 43.9973 76.7184 44.0733 76.7628L58.6022 85.1501C58.6825 85.1945 58.7311 85.279 58.7311 85.3698V91.467C58.7311 91.5579 58.6825 91.6424 58.6022 91.6867C58.5642 91.7079 58.5198 91.7205 58.4754 91.7205ZM44.2022 82.9212L58.2219 91.0233V85.5135L44.2022 77.4198V82.9212Z" fill="#333333"/>
<path d="M58.4774 85.6225C58.4331 85.6225 58.3887 85.6098 58.3507 85.5887L43.8218 77.2056C43.7415 77.1613 43.6929 77.0767 43.6929 76.9859V58.6922C43.6929 58.5993 43.7436 58.5148 43.8218 58.4704L51.1359 54.3486C51.2584 54.2788 51.4126 54.3232 51.4803 54.4436L58.6929 66.9486C58.7162 66.9887 58.7267 67.031 58.7267 67.0753V85.369C58.7267 85.4599 58.6781 85.5444 58.5979 85.5887C58.5662 85.6098 58.5218 85.6225 58.4774 85.6225ZM44.2042 76.8359L58.2239 84.9275V67.1429L51.1718 54.9148L44.2063 58.8401V76.8359H44.2042Z" fill="#333333"/>
<path d="M78.2882 73.9248V80.0241L58.4775 91.4642V85.367L78.2882 73.9248Z" fill="#333333"/>
<path d="M58.4754 91.7187C58.4311 91.7187 58.3867 91.706 58.3487 91.6848C58.2684 91.6405 58.2198 91.556 58.2198 91.4651V85.368C58.2198 85.2771 58.2684 85.1926 58.3487 85.1482L78.1613 73.7081C78.2374 73.6637 78.3388 73.6637 78.4149 73.7081C78.4951 73.7524 78.5437 73.837 78.5437 73.9278V80.025C78.5437 80.1158 78.4951 80.2003 78.4149 80.2447L58.6022 91.6848C58.5642 91.706 58.5198 91.7187 58.4754 91.7187ZM58.7311 85.5116V91.0215L78.0346 79.875V74.3651L58.7311 85.5116Z" fill="#333333"/>
<path d="M58.4776 85.6218C58.4333 85.6218 58.3889 85.6091 58.3509 85.588C58.2706 85.5436 58.222 85.4591 58.222 85.3683V67.0746C58.222 66.9838 58.2706 66.8993 58.3487 66.8549L78.1572 55.419C78.2333 55.3747 78.3347 55.3747 78.4107 55.419C78.491 55.4634 78.5396 55.5479 78.5396 55.6387V73.9324C78.5396 74.0232 78.491 74.1077 78.4107 74.1521L58.6023 85.5901C58.5663 85.6091 58.522 85.6218 58.4776 85.6218ZM58.7333 67.2183V84.9246L78.0326 73.7824V56.0761L58.7333 67.2183Z" fill="#333333"/>
<path d="M51.2649 54.5688L43.9487 58.6906L42.6388 57.9258L50.5656 53.3604L51.2649 54.5688Z" fill="#333333"/>
<path d="M43.9486 58.9446C43.9042 58.9446 43.8599 58.9319 43.8197 58.9108L42.5099 58.1481C42.4317 58.1016 42.3831 58.0193 42.3831 57.9284C42.3831 57.8376 42.4317 57.7531 42.512 57.7087L50.4388 53.1411C50.5613 53.0714 50.7155 53.1136 50.7852 53.234L51.4845 54.4425C51.5183 54.5016 51.5289 54.5714 51.5099 54.6369C51.4909 54.7023 51.4486 54.7573 51.3895 54.7911L44.0754 58.9129C44.0352 58.934 43.993 58.9446 43.9486 58.9446ZM43.1479 57.9284L43.9528 58.3974L50.9162 54.4742L50.4726 53.7073L43.1479 57.9284Z" fill="#333333"/>
<path d="M53.2 70.1139V68.6033L47.9183 65.5547V73.173L49.112 73.8618V67.754L53.2 70.1139Z" fill="#333333"/>
<path d="M49.112 74.1173C49.0676 74.1173 49.0232 74.1046 48.9852 74.0835L47.7915 73.3948C47.7113 73.3504 47.6627 73.2659 47.6627 73.175V65.5567C47.6627 65.4659 47.7113 65.3814 47.7915 65.337C47.8676 65.2926 47.969 65.2926 48.0451 65.337L53.3267 68.3856C53.407 68.43 53.4556 68.5145 53.4556 68.6053V70.1138C53.4556 70.2046 53.407 70.2891 53.3267 70.3335C53.2507 70.3778 53.1493 70.3778 53.0732 70.3335L49.3676 68.1933V73.8617C49.3676 73.9525 49.319 74.037 49.2387 74.0814C49.2007 74.1046 49.1563 74.1173 49.112 74.1173ZM48.1739 73.0271L48.8584 73.4222V67.7539C48.8584 67.663 48.907 67.5785 48.9873 67.5342C49.0634 67.4898 49.1648 67.4898 49.2408 67.5342L52.9465 69.6743V68.7532L48.1739 65.9983V73.0271Z" fill="#333333"/>
<path d="M53.2002 76.477C53.1558 76.477 53.1114 76.4643 53.0734 76.4432L48.9854 74.0834C48.9051 74.039 48.8565 73.9545 48.8565 73.8636V67.7559C48.8565 67.6651 48.9051 67.5806 48.9854 67.5362C49.0614 67.4918 49.1628 67.4918 49.2389 67.5362L53.3269 69.8961C53.4072 69.9404 53.4558 70.0249 53.4558 70.1158V76.2256C53.4558 76.3164 53.4072 76.401 53.3269 76.4453C53.2889 76.4643 53.2445 76.477 53.2002 76.477ZM49.3678 73.7158L52.9466 75.7819V70.2594L49.3678 68.1932V73.7158Z" fill="#333333"/>
<path d="M37.3592 47.0075C37.2704 47.0075 37.1859 46.9611 37.1394 46.8808L29.2254 33.1632C29.1556 33.0428 29.1979 32.8864 29.3183 32.8188L50.424 20.6308C50.5465 20.5611 50.7007 20.6012 50.7704 20.7238L58.6951 34.4371C58.7289 34.4963 58.7394 34.566 58.7204 34.6315C58.7035 34.697 58.6592 34.7519 58.6021 34.7857L37.4838 46.9737C37.4479 46.997 37.4035 47.0075 37.3592 47.0075ZM29.7937 33.1315L30.3557 34.1202L37.4542 46.4033L58.131 34.4688L50.4599 21.1949L29.7937 33.1315Z" fill="#333333"/>
<path d="M30.1337 34.5053C30.0471 34.5053 29.9605 34.4589 29.914 34.3786L29.2126 33.1701C29.1661 33.092 29.1661 32.9948 29.2126 32.9166C29.3034 32.7582 29.5781 32.7603 29.6668 32.9187L30.3534 34.1272C30.4231 34.2497 30.3809 34.4039 30.2583 34.4737C30.2203 34.4927 30.1781 34.5053 30.1337 34.5053Z" fill="#333333"/>
<path d="M37.3548 80.774V86.8733L22.8259 78.4776V72.3867L37.3548 80.774Z" fill="#333333"/>
<path d="M37.3527 87.1268C37.3083 87.1268 37.264 87.1141 37.2259 87.093L22.6971 78.6972C22.6168 78.6507 22.5682 78.5683 22.5682 78.4775V72.3887C22.5682 72.2979 22.6168 72.2134 22.6971 72.169C22.7731 72.1247 22.8745 72.1247 22.9506 72.169L37.4795 80.5564C37.5597 80.6007 37.6083 80.6852 37.6083 80.7761V86.8733C37.6083 86.9641 37.5597 87.0486 37.4795 87.093C37.4414 87.1162 37.3971 87.1268 37.3527 87.1268ZM23.0794 78.3296L37.0992 86.4317V80.9218L23.0794 72.8282V78.3296Z" fill="#333333"/>
<path d="M37.3591 82.174C37.3169 82.174 37.2746 82.1635 37.2366 82.1423L22.7077 74.1543C22.6274 74.1099 22.5767 74.0233 22.5767 73.9304V38.3719C22.5767 38.279 22.6274 38.1944 22.7056 38.1501L30.0091 34.0282C30.1295 33.9585 30.2838 34.0029 30.3535 34.1233L37.5788 46.6283C37.6021 46.6663 37.6126 46.7106 37.6126 46.755V81.9184C37.6126 82.0092 37.5662 82.0916 37.488 82.1381C37.45 82.1613 37.4056 82.174 37.3591 82.174ZM23.0859 73.7783L37.1056 81.4874V46.8247L30.0408 34.5966L23.088 38.5219V73.7783H23.0859Z" fill="#333333"/>
<path d="M57.1676 49.7615C57.0281 49.7615 56.9119 49.6474 56.9119 49.5059V35.3172C56.9119 35.1777 57.026 35.0615 57.1676 35.0615C57.307 35.0615 57.4232 35.1756 57.4232 35.3172V49.5059C57.4211 49.6474 57.307 49.7615 57.1676 49.7615Z" fill="#333333"/>
<path d="M30.1339 34.2475L22.8324 38.3694L21.5205 37.6193L29.4346 33.0391H29.4472L30.1339 34.2475Z" fill="#333333"/>
<path d="M22.8324 38.6243C22.788 38.6243 22.7458 38.6137 22.7056 38.5905L21.3958 37.8405C21.3176 37.7961 21.2669 37.7116 21.2669 37.6208C21.2669 37.5299 21.3155 37.4454 21.3937 37.4011L29.3056 32.8208C29.4282 32.7511 29.6014 32.7975 29.669 32.9158L30.3556 34.1243C30.3895 34.1834 30.3979 34.2532 30.3789 34.3165C30.362 34.382 30.3176 34.437 30.2606 34.4708L22.957 38.5926C22.9169 38.6116 22.8747 38.6243 22.8324 38.6243ZM22.0317 37.6165L22.8324 38.075L29.7852 34.1496L29.3479 33.3806L22.0317 37.6165Z" fill="#333333"/>
<path d="M16.2281 26.7074C16.2049 26.7074 16.1837 26.7053 16.1626 26.699C16.0971 26.68 16.0422 26.6377 16.0084 26.5807L8.09643 12.8673C8.07319 12.8271 8.06262 12.7849 8.06262 12.7384C8.06262 12.6476 8.11121 12.5504 8.1915 12.506L29.3077 0.317984C29.3669 0.284181 29.4323 0.275728 29.5021 0.29263C29.5676 0.309531 29.6225 0.3539 29.6563 0.410942L37.583 14.1243C37.6168 14.1835 37.6274 14.2532 37.6084 14.3187C37.5915 14.3842 37.5471 14.4391 37.4901 14.4729L16.3591 26.6736C16.3168 26.6948 16.2725 26.7074 16.2281 26.7074ZM8.66051 12.8208L9.23516 13.8053L16.3211 26.1053L37.0105 14.1581L29.3394 0.886295L8.66051 12.8208Z" fill="#333333"/>
<path d="M16.2282 78.562C16.0887 78.562 15.9725 78.448 15.9725 78.3064V26.4529C15.9725 26.3135 16.0866 26.1973 16.2282 26.1973C16.3676 26.1973 16.4838 26.3113 16.4838 26.4529V78.3064C16.4838 78.4459 16.3697 78.562 16.2282 78.562Z" fill="#333333"/>
<path d="M1.7015 73.4202C1.56206 73.4202 1.44586 73.3061 1.44586 73.1646V18.0554C1.44586 17.9625 1.49657 17.878 1.57474 17.8336L8.88882 13.7118C9.01135 13.6421 9.16769 13.6864 9.2353 13.809C9.30502 13.9315 9.26065 14.0857 9.14023 14.1554L1.95502 18.2033V73.1646C1.95502 73.3061 1.84093 73.4202 1.7015 73.4202Z" fill="#333333"/>
<path d="M36.0492 29.3405C35.9098 29.3405 35.7936 29.2264 35.7936 29.0848V15.0017C35.7936 14.8623 35.9077 14.7461 36.0492 14.7461C36.1908 14.7461 36.3049 14.8602 36.3049 15.0017V29.0848C36.3049 29.2264 36.1887 29.3405 36.0492 29.3405Z" fill="#333333"/>
<path d="M16.2282 45.0022C16.0887 45.0022 15.9725 44.8881 15.9725 44.7466V26.4529C15.9725 26.3135 16.0866 26.1973 16.2282 26.1973C16.3676 26.1973 16.4838 26.3113 16.4838 26.4529V44.7466C16.4838 44.886 16.3697 45.0022 16.2282 45.0022Z" fill="#333333"/>
<path d="M9.01543 13.9321L1.70136 18.0539L0.404175 17.3018L8.31614 12.7363L9.01543 13.9321Z" fill="#333333"/>
<path d="M1.70132 18.3084C1.65695 18.3084 1.61258 18.2957 1.57244 18.2746L0.27526 17.5246C0.197091 17.4781 0.148499 17.3957 0.148499 17.3048C0.148499 17.214 0.19709 17.1295 0.277372 17.0851L8.18934 12.5175C8.30765 12.4478 8.4661 12.4879 8.53582 12.6105L9.23511 13.8062C9.26892 13.8654 9.27948 13.9351 9.26047 14.0006C9.24145 14.0661 9.1992 14.1232 9.14004 14.157L1.82596 18.2788C1.78582 18.2978 1.74357 18.3084 1.70132 18.3084ZM0.911174 17.3027L1.70132 17.7591L8.66469 13.8358L8.22314 13.0816L0.911174 17.3027Z" fill="#333333"/>
<path d="M10.9549 29.4849V27.9744L5.67532 24.9258V32.5441L6.86899 33.2349V27.1251L10.9549 29.4849Z" fill="#333333"/>
<path d="M6.86897 33.4884C6.8246 33.4884 6.78024 33.4757 6.74221 33.4546L5.54855 32.7658C5.46827 32.7215 5.41968 32.637 5.41968 32.5461V24.9278C5.41968 24.837 5.46827 24.7524 5.54855 24.7081C5.6246 24.6637 5.72602 24.6637 5.80207 24.7081L11.0816 27.7567C11.1619 27.801 11.2105 27.8855 11.2105 27.9764V29.487C11.2105 29.5778 11.1619 29.6623 11.0816 29.7067C11.0056 29.751 10.9042 29.751 10.8281 29.7067L7.12249 27.5665V33.2348C7.12249 33.3257 7.0739 33.4102 6.99362 33.4546C6.95771 33.4757 6.91334 33.4884 6.86897 33.4884ZM5.92883 32.3982L6.61334 32.7933V27.125C6.61334 27.0341 6.66193 26.9496 6.74221 26.9053C6.81827 26.8609 6.91968 26.8609 6.99573 26.9053L10.7014 29.0454V28.1222L5.93095 25.3672V32.3982H5.92883Z" fill="#333333"/>
<path d="M10.955 35.8481C10.9106 35.8481 10.8662 35.8355 10.8282 35.8143L6.74228 33.4545C6.662 33.4101 6.6134 33.3256 6.6134 33.2348V27.127C6.6134 27.0362 6.662 26.9517 6.74228 26.9073C6.81833 26.8629 6.91974 26.8629 6.9958 26.9073L11.0817 29.2672C11.162 29.3115 11.2106 29.396 11.2106 29.4869V35.5967C11.2106 35.6876 11.162 35.7721 11.0817 35.8164C11.0437 35.8355 10.9993 35.8481 10.955 35.8481ZM7.12256 33.0869L10.6993 35.1531V29.6305L7.12256 27.5643V33.0869Z" fill="#333333"/>
<path d="M32.0774 65.5347V64.0242L26.7979 60.9756V68.596L27.9915 69.2847V63.1749L32.0774 65.5347Z" fill="#333333"/>
<path d="M27.9894 69.5382C27.945 69.5382 27.9007 69.5255 27.8626 69.5044L26.669 68.8156C26.5887 68.7713 26.5401 68.6868 26.5401 68.5959V60.9776C26.5401 60.8868 26.5887 60.8023 26.669 60.7579C26.745 60.7135 26.8464 60.7135 26.9225 60.7579L32.2021 63.8065C32.2823 63.8508 32.3309 63.9354 32.3309 64.0262V65.5368C32.3309 65.6276 32.2823 65.7121 32.2021 65.7565C32.126 65.8008 32.0246 65.8008 31.9485 65.7565L28.2429 63.6163V69.2846C28.2429 69.3755 28.1943 69.46 28.114 69.5044C28.0781 69.5276 28.0338 69.5382 27.9894 69.5382ZM27.0514 68.448L27.7338 68.8431V63.1748C27.7338 63.0839 27.7823 62.9994 27.8626 62.9551C27.9387 62.9107 28.0401 62.9107 28.1162 62.9551L31.8218 65.0952V64.172L27.0514 61.417V68.448Z" fill="#333333"/>
<path d="M32.0774 71.9001C32.033 71.9001 31.9886 71.8874 31.9506 71.8663L27.8626 69.5064C27.7823 69.4621 27.7337 69.3775 27.7337 69.2867V63.1768C27.7337 63.086 27.7823 63.0015 27.8626 62.9571C27.9386 62.9127 28.04 62.9127 28.1161 62.9571L32.2041 65.317C32.2844 65.3613 32.333 65.4458 32.333 65.5367V71.6445C32.333 71.7353 32.2844 71.8198 32.2041 71.8642C32.1661 71.8895 32.1217 71.9001 32.0774 71.9001ZM28.245 69.1388L31.8238 71.205V65.6825L28.245 63.6163V69.1388Z" fill="#333333"/>
<path d="M10.955 60.5766V59.0681L5.67538 56.0195V63.6378L6.86905 64.3266V58.2188L10.955 60.5766Z" fill="#333333"/>
<path d="M6.86903 64.5821C6.82467 64.5821 6.7803 64.5694 6.74227 64.5483L5.54861 63.8596C5.46833 63.8152 5.41974 63.7307 5.41974 63.6398V56.0215C5.41974 55.9307 5.46833 55.8462 5.54861 55.8018C5.62467 55.7575 5.72608 55.7575 5.80213 55.8018L11.0817 58.8504C11.162 58.8948 11.2106 58.9793 11.2106 59.0701V60.5765C11.2106 60.6673 11.162 60.7518 11.0817 60.7962C11.0057 60.8406 10.9042 60.8406 10.8282 60.7962L7.12256 58.6561V64.3244C7.12256 64.4152 7.07396 64.4997 6.99368 64.5441C6.95777 64.5694 6.9134 64.5821 6.86903 64.5821ZM5.92889 63.4899L6.6134 63.8849V58.2166C6.6134 58.1258 6.66199 58.0413 6.74227 57.9969C6.81833 57.9525 6.91974 57.9525 6.99579 57.9969L10.7014 60.137V59.2138L5.93101 56.4589V63.4899H5.92889Z" fill="#333333"/>
<path d="M10.9549 66.9419C10.9105 66.9419 10.8662 66.9292 10.8281 66.9081L6.74222 64.5482C6.66193 64.5039 6.61334 64.4194 6.61334 64.3285V58.2208C6.61334 58.1299 6.66193 58.0454 6.74222 58.001C6.81827 57.9567 6.91968 57.9567 6.99574 58.001L11.0817 60.3609C11.1619 60.4053 11.2105 60.4898 11.2105 60.5806V66.6884C11.2105 66.7792 11.1619 66.8637 11.0817 66.9081C11.0436 66.9313 10.9993 66.9419 10.9549 66.9419ZM7.1225 64.1827L10.6993 66.2489V60.7264L7.1225 58.6602V64.1827Z" fill="#333333"/>
<path d="M32.0774 49.7992V48.2908L26.7979 45.2422V52.8605L27.9915 53.5492V47.4394L32.0774 49.7992Z" fill="#333333"/>
<path d="M27.9894 53.8047C27.945 53.8047 27.9007 53.7921 27.8605 53.7709L26.6669 53.0822C26.5887 53.0357 26.5401 52.9533 26.5401 52.8625V45.2442C26.5401 45.1534 26.5887 45.0689 26.669 45.0245C26.745 44.9801 26.8464 44.9801 26.9225 45.0245L32.2021 48.0731C32.2823 48.1174 32.3309 48.2019 32.3309 48.2928V49.8012C32.3309 49.8921 32.2823 49.9766 32.2021 50.0209C32.126 50.0653 32.0246 50.0653 31.9485 50.0209L28.2429 47.8808V53.5491C28.2429 53.64 28.1943 53.7245 28.114 53.7688C28.0781 53.7921 28.0338 53.8047 27.9894 53.8047ZM27.0514 52.7125L27.7338 53.1076V47.4393C27.7338 47.3484 27.7823 47.2639 27.8626 47.2196C27.9387 47.1752 28.0401 47.1752 28.1162 47.2196L31.8218 49.3597V48.4364L27.0514 45.6815V52.7125Z" fill="#333333"/>
<path d="M32.0775 56.1627C32.0331 56.1627 31.9888 56.1501 31.9507 56.1289L27.8627 53.7691C27.7824 53.7247 27.7338 53.6402 27.7338 53.5494V47.4395C27.7338 47.3487 27.7824 47.2642 27.8627 47.2198C27.9388 47.1754 28.0402 47.1754 28.1162 47.2198L32.2043 49.5796C32.2845 49.624 32.3331 49.7085 32.3331 49.7994V55.9092C32.3331 56.0001 32.2845 56.0846 32.2043 56.1289C32.1662 56.1522 32.1219 56.1627 32.0775 56.1627ZM28.2451 53.4015L31.824 55.4677V49.9451L28.2451 47.879V53.4015Z" fill="#333333"/>
<path d="M32.0774 49.9125V48.4041L26.7979 45.3555V52.9738L27.9915 53.6625V47.5526L32.0774 49.9125Z" fill="#333333"/>
<path d="M27.9894 53.918C27.945 53.918 27.9007 53.9054 27.8605 53.8842L26.6669 53.1955C26.5887 53.149 26.5401 53.0666 26.5401 52.9758V45.3575C26.5401 45.2666 26.5887 45.1821 26.669 45.1378C26.745 45.0934 26.8464 45.0934 26.9225 45.1378L32.2021 48.1864C32.2823 48.2307 32.3309 48.3152 32.3309 48.4061V49.9145C32.3309 50.0054 32.2823 50.0899 32.2021 50.1342C32.126 50.1786 32.0246 50.1786 31.9485 50.1342L28.2429 47.9941V53.6624C28.2429 53.7532 28.1943 53.8377 28.114 53.8821C28.0781 53.9054 28.0338 53.918 27.9894 53.918ZM27.0514 52.8258L27.7338 53.2209V47.5525C27.7338 47.4617 27.7823 47.3772 27.8626 47.3328C27.9387 47.2885 28.0401 47.2885 28.1162 47.3328L31.8218 49.473V48.5497L27.0514 45.7948V52.8258Z" fill="#333333"/>
<path d="M32.0775 56.277C32.0331 56.277 31.9888 56.2643 31.9507 56.2432L27.8627 53.8833C27.7824 53.839 27.7338 53.7545 27.7338 53.6636V47.5538C27.7338 47.4629 27.7824 47.3784 27.8627 47.3341C27.9388 47.2897 28.0402 47.2897 28.1162 47.3341L32.2043 49.6939C32.2845 49.7383 32.3331 49.8228 32.3331 49.9136V56.0235C32.3331 56.1143 32.2845 56.1988 32.2043 56.2432C32.1662 56.2664 32.1219 56.277 32.0775 56.277ZM28.2451 53.5157L31.824 55.5819V50.0594L28.2451 47.9932V53.5157Z" fill="#333333"/>
<path d="M10.9549 45.0307V43.5222L5.67532 40.4736V48.0919L6.86899 48.7807V42.6729L10.9549 45.0307Z" fill="#333333"/>
<path d="M6.86897 49.0362C6.8246 49.0362 6.78024 49.0235 6.74221 49.0024L5.54855 48.3137C5.46827 48.2693 5.41968 48.1848 5.41968 48.094V40.4757C5.41968 40.3848 5.46827 40.3003 5.54855 40.2559C5.6246 40.2116 5.72602 40.2116 5.80207 40.2559L11.0816 43.3045C11.1619 43.3489 11.2105 43.4334 11.2105 43.5242V45.0348C11.2105 45.1257 11.1619 45.2102 11.0816 45.2545C11.0056 45.2989 10.9042 45.2989 10.8281 45.2545L7.12249 43.1144V48.7827C7.12249 48.8735 7.0739 48.958 6.99362 49.0024C6.95771 49.0235 6.91334 49.0362 6.86897 49.0362ZM5.92883 47.9461L6.61334 48.3411V42.6728C6.61334 42.582 6.66193 42.4975 6.74221 42.4531C6.81827 42.4087 6.91968 42.4087 6.99573 42.4531L10.7014 44.5933V43.67L5.93095 40.9151V47.9461H5.92883Z" fill="#333333"/>
<path d="M10.955 51.396C10.9106 51.396 10.8662 51.3833 10.8282 51.3622L6.74228 49.0023C6.662 48.958 6.6134 48.8735 6.6134 48.7826V42.6749C6.6134 42.584 6.662 42.4995 6.74228 42.4551C6.81833 42.4108 6.91974 42.4108 6.9958 42.4551L11.0817 44.815C11.162 44.8594 11.2106 44.9439 11.2106 45.0347V51.1425C11.2106 51.2333 11.162 51.3178 11.0817 51.3622C11.0437 51.3833 10.9993 51.396 10.955 51.396ZM7.12256 48.6347L10.6993 50.7009V45.1784L7.12256 43.1122V48.6347Z" fill="#333333"/>
<path d="M43.9483 71.834C43.8089 71.834 43.6927 71.7199 43.6927 71.5784V58.6804C43.6927 58.541 43.8068 58.4248 43.9483 58.4248C44.0898 58.4248 44.2039 58.5389 44.2039 58.6804V71.5784C44.2018 71.7199 44.0877 71.834 43.9483 71.834Z" fill="#333333"/>
<path d="M37.3548 80.7729V86.8722L43.9484 83.063V76.9658L37.3548 80.7729Z" fill="#333333"/>
<path d="M37.3526 87.1256C37.3083 87.1256 37.2639 87.1129 37.2259 87.0918C37.1456 87.0474 37.097 86.9629 37.097 86.8721V80.7749C37.097 80.684 37.1456 80.5995 37.2259 80.5552L43.8196 76.7481C43.8956 76.7038 43.997 76.7038 44.0731 76.7481C44.1534 76.7925 44.202 76.877 44.202 76.9678V83.065C44.202 83.1559 44.1534 83.2404 44.0731 83.2847L37.4794 87.0918C37.4414 87.115 37.397 87.1256 37.3526 87.1256ZM37.6083 80.9206V86.4326L43.6928 82.9192V77.4073L37.6083 80.9206Z" fill="#333333"/>
<path d="M16.2324 76.2193V82.3165L1.70355 73.9208V67.832L16.2324 76.2193Z" fill="#333333"/>
<path d="M16.2324 82.5721C16.188 82.5721 16.1436 82.5594 16.1056 82.5383L1.57675 74.1425C1.49647 74.096 1.44788 74.0136 1.44788 73.9228V67.834C1.44788 67.7432 1.49647 67.6587 1.57675 67.6143C1.65281 67.57 1.75421 67.57 1.83027 67.6143L16.3591 76.0017C16.4394 76.046 16.488 76.1305 16.488 76.2214V82.3186C16.488 82.4094 16.4394 82.4939 16.3591 82.5383C16.3211 82.5594 16.2767 82.5721 16.2324 82.5721ZM1.95914 73.7728L15.9789 81.8749V76.365L1.95914 68.2714V73.7728Z" fill="#333333"/>
<path d="M16.2323 76.2222V82.3194L22.826 78.5124V72.4131L16.2323 76.2222Z" fill="#333333"/>
<path d="M16.2323 82.5738C16.1879 82.5738 16.1435 82.5612 16.1055 82.54C16.0252 82.4957 15.9766 82.4112 15.9766 82.3203V76.2231C15.9766 76.1323 16.0252 76.0478 16.1055 76.0034L22.6991 72.1964C22.7752 72.152 22.8766 72.152 22.9527 72.1964C23.0329 72.2407 23.0815 72.3252 23.0815 72.4161V78.5133C23.0815 78.6041 23.0329 78.6886 22.9527 78.733L16.359 82.54C16.321 82.5612 16.2766 82.5738 16.2323 82.5738ZM16.4879 76.3668V81.8766L22.5724 78.3633V72.8534L16.4879 76.3668Z" fill="#333333"/>
<path d="M21.4105 23.4614L13.4859 9.7459L13.7077 9.61914L21.6324 23.3346L21.4105 23.4614Z" fill="#333333"/>
<path d="M26.69 20.4095L18.7632 6.69609L18.9851 6.56934L26.9118 20.2827L26.69 20.4095Z" fill="#333333"/>
<path d="M24.2643 3.52533L24.043 3.65332L31.9682 17.3542L32.1894 17.2262L24.2643 3.52533Z" fill="#333333"/>
<path d="M42.5351 43.7728L34.6083 30.0594L34.8301 29.9326L42.7569 43.646L42.5351 43.7728Z" fill="#333333"/>
<path d="M47.8146 40.7181L39.89 27.0047L40.1097 26.8779L48.0343 40.5913L47.8146 40.7181Z" fill="#333333"/>
<path d="M45.3874 23.8388L45.1661 23.9668L53.0913 37.6677L53.3126 37.5397L45.3874 23.8388Z" fill="#333333"/>
<path d="M63.6598 64.0853L55.7352 50.3719L55.9549 50.2451L63.8795 63.9585L63.6598 64.0853Z" fill="#333333"/>
<path d="M68.9393 61.0288L61.0125 47.3133L61.2343 47.1865L69.1611 60.902L68.9393 61.0288Z" fill="#333333"/>
<path d="M66.5127 44.1445L66.2914 44.2725L74.2166 57.9733L74.4379 57.8453L66.5127 44.1445Z" fill="#333333"/>
</svg>
