<svg width="82" height="92" viewBox="0 0 82 92" fill="none" xmlns="http://www.w3.org/2000/svg">
<path d="M57.4767 18.5637V13.9919V9.41797L41.6359 18.5637L33.7155 23.1377L25.7951 27.7095L17.8746 32.2814V36.8553V41.4271V46.0011V50.5729L25.7951 46.0011V36.8553L57.4767 18.5637Z" fill="#333333"/>
<path d="M17.8747 50.8276C17.8303 50.8276 17.7859 50.8149 17.7479 50.7938C17.6676 50.7494 17.619 50.6649 17.619 50.5741V32.2825C17.619 32.1917 17.6676 32.1072 17.7479 32.0628L57.35 9.19734C57.426 9.15297 57.5275 9.15297 57.6035 9.19734C57.6838 9.2417 57.7324 9.32621 57.7324 9.41705V18.5628C57.7324 18.6537 57.6838 18.7382 57.6035 18.7825L26.0486 37.0001V46.0001C26.0486 46.091 26 46.1755 25.9197 46.2199L17.9993 50.7938C17.9634 50.8149 17.919 50.8276 17.8747 50.8276ZM18.1303 32.4283V50.1325L25.5415 45.8523V36.8523C25.5415 36.7614 25.5901 36.6769 25.6704 36.6325L57.2232 18.4149V9.85649L18.1303 32.4283ZM57.4767 18.5628H57.4831H57.4767Z" fill="#333333"/>
<path d="M17.8746 50.8276C17.8302 50.8276 17.7859 50.8149 17.7479 50.7938L1.90701 41.648C1.82673 41.6037 1.77814 41.5192 1.77814 41.4283V23.1368C1.77814 23.0459 1.82673 22.9614 1.90701 22.9171C1.98307 22.8727 2.08447 22.8727 2.16053 22.9171L18.0014 32.0628C18.0817 32.1072 18.1302 32.1917 18.1302 32.2826V50.5741C18.1302 50.6649 18.0817 50.7494 18.0014 50.7938C17.9633 50.8149 17.919 50.8276 17.8746 50.8276ZM2.2894 41.2804L17.6211 50.1325V32.4283L2.2894 23.5762V41.2804Z" fill="#333333"/>
<path d="M17.8746 32.5352C17.8302 32.5352 17.7859 32.5225 17.7479 32.5014L1.90701 23.3556C1.82673 23.3112 1.77814 23.2267 1.77814 23.1359C1.77814 23.045 1.82673 22.9605 1.90701 22.9162L41.5091 0.0528059C41.5852 0.00843971 41.6866 0.00843971 41.7626 0.0528059L57.6035 9.19858C57.6838 9.24294 57.7324 9.32745 57.7324 9.4183C57.7324 9.50914 57.6838 9.59365 57.6035 9.63801L18.0014 32.5014C17.9633 32.5225 17.919 32.5352 17.8746 32.5352ZM2.54504 23.1359L17.8767 31.988L56.9697 9.4183L41.638 0.566184L2.54504 23.1359Z" fill="#333333"/>
<path d="M22.3662 18.3837C22.3282 18.3837 22.2944 18.3815 22.2627 18.3794C21.8972 18.3456 21.7916 18.1766 21.7662 18.0393C21.4535 16.2351 36.6648 6.54211 45.5423 2.44141L45.65 2.67169C35.8599 7.19281 21.7747 16.59 22.0176 17.9949C22.0303 18.0668 22.119 18.1111 22.2838 18.1259C22.3134 18.128 22.3472 18.1301 22.381 18.1301C25.8014 18.1301 49.2543 4.86676 49.4951 4.73155L49.6197 4.95338C48.6416 5.5069 25.8712 18.3837 22.3662 18.3837Z" fill="#333333"/>
<path d="M6.0669 25.5271L5.92535 25.3158C9.52113 22.8799 13.0197 20.1756 16.7211 17.313C23.4289 12.1242 31.0345 6.24466 41.5725 0.160156L41.6993 0.379876C31.1761 6.45593 23.5789 12.3292 16.8754 17.5137C13.1697 20.3806 9.67113 23.0869 6.0669 25.5271Z" fill="#333333"/>
<path d="M10.0261 27.8107L9.88452 27.5994C14.7585 24.3523 21.5909 21.4917 29.5028 18.179C37.0049 15.0375 45.5085 11.4755 53.4564 7.01562L53.581 7.23745C45.6204 11.7037 37.1106 15.2677 29.6021 18.4114C21.7007 21.722 14.8789 24.5783 10.0261 27.8107Z" fill="#333333"/>
<path d="M13.981 30.1007L13.85 29.8831C18.6796 26.9317 23.357 25.3261 28.3091 23.6254C33.5253 21.8338 38.9211 19.9831 45.1619 16.3789L45.2887 16.5986C39.0246 20.2155 33.6183 22.0705 28.3915 23.8662C23.4521 25.5606 18.7873 27.162 13.981 30.1007Z" fill="#333333"/>
<path d="M17.8112 50.68C3.39431 42.3561 1.90698 39.7807 1.90698 23.1328H2.1605C2.1605 39.6476 3.63515 42.2018 17.938 50.4603L17.8112 50.68Z" fill="#333333"/>
<path d="M17.8135 46.1103C5.84516 39.6667 5.85361 33.392 5.86629 26.1244L5.8684 25.4209H6.12193V26.1244C6.10925 33.3096 6.09869 39.5124 17.936 45.8843L17.8135 46.1103Z" fill="#333333"/>
<path d="M17.45 41.3253C11.6084 37.9535 9.82745 34.7718 9.82745 27.707H10.081C10.081 34.6598 11.8324 37.7908 17.5768 41.1056L17.45 41.3253Z" fill="#333333"/>
<path d="M17.4352 37.2045C15.7239 35.8947 13.7866 34.4116 13.7866 29.9961H14.0401C14.0401 34.2869 15.9268 35.7299 17.5873 37.0038L17.4352 37.2045Z" fill="#333333"/>
<path d="M5.45633 58.3652C5.41196 58.3652 5.36971 58.3546 5.32957 58.3314L1.90915 56.3581C1.82887 56.3138 1.78027 56.2293 1.78027 56.1384C1.78027 56.0476 1.82887 55.9567 1.90915 55.9124C1.98943 55.8659 2.08661 55.8616 2.16478 55.906L5.5852 57.8898C5.70774 57.9595 5.74788 58.1159 5.67816 58.2363C5.62957 58.3187 5.54506 58.3652 5.45633 58.3652Z" fill="#333333"/>
<path d="M17.8726 65.5435C17.8282 65.5435 17.7838 65.5308 17.7437 65.5097L10.25 61.1723C10.1296 61.1026 10.0874 60.9463 10.1571 60.8258C10.2268 60.7054 10.3831 60.6632 10.5035 60.7329L17.9972 65.0576C18.0775 65.1019 18.1261 65.1864 18.1261 65.2773V65.2899C18.1261 65.3808 18.0775 65.4653 17.9972 65.5097C17.9613 65.5308 17.9169 65.5435 17.8726 65.5435Z" fill="#333333"/>
<path d="M17.8726 71.09C17.8282 71.09 17.7838 71.0773 17.7458 71.0562L5.48172 63.9787C5.45003 63.9703 5.41834 63.9597 5.3951 63.9428L5.30637 63.8794L1.90496 61.9083C1.82679 61.8639 1.7782 61.7794 1.7782 61.6886V57.7569C1.7782 57.6661 1.82679 57.5815 1.90707 57.5372C1.98313 57.4928 2.08454 57.4928 2.16059 57.5372L17.9655 66.6597C18.0585 66.6999 18.1261 66.7886 18.1261 66.8921V70.8365C18.1261 70.9273 18.0775 71.0118 17.9972 71.0562C17.9613 71.0795 17.9169 71.09 17.8726 71.09ZM5.64439 63.497C5.66552 63.5034 5.68453 63.5097 5.69721 63.5182L17.6169 70.3971V67.0485L2.28735 58.2006V61.5449L5.64439 63.497Z" fill="#333333"/>
<path d="M5.45631 63.9256C5.41194 63.9256 5.36969 63.915 5.32955 63.8917H5.32744L1.90701 61.9206C1.82673 61.8763 1.77814 61.7918 1.77814 61.7009C1.77814 61.6101 1.82673 61.5192 1.90701 61.4749C1.98729 61.4284 2.08447 61.4241 2.16264 61.4685L5.58307 63.4523C5.70349 63.522 5.74575 63.6784 5.67603 63.7988C5.62955 63.8791 5.54504 63.9256 5.45631 63.9256Z" fill="#333333"/>
<path d="M17.8726 71.1012C17.8282 71.1012 17.7838 71.0885 17.7458 71.0674L5.44369 63.9561C5.32115 63.8843 5.2789 63.7301 5.35073 63.6075C5.42256 63.485 5.57679 63.4449 5.69721 63.5146L17.9993 70.6132C18.0796 70.6575 18.1282 70.7421 18.1282 70.8329V70.8456C18.1282 70.9364 18.0796 71.0209 17.9993 71.0653C17.9613 71.0907 17.9169 71.1012 17.8726 71.1012Z" fill="#333333"/>
<path d="M17.8725 76.6486C17.8281 76.6486 17.7838 76.6359 17.7457 76.6148L1.90701 67.4669C1.82673 67.4225 1.77814 67.338 1.77814 67.2472V63.3155C1.77814 63.2246 1.82673 63.1401 1.90701 63.0958C1.98307 63.0514 2.08447 63.0514 2.16053 63.0958L17.9655 72.2183C18.0584 72.2584 18.126 72.3472 18.126 72.4507V76.3929C18.126 76.4838 18.0774 76.5683 17.9971 76.6127C17.9612 76.6359 17.9169 76.6486 17.8725 76.6486ZM2.2894 67.0993L17.619 75.9514V72.6049L2.2894 63.757V67.0993Z" fill="#333333"/>
<path d="M17.8725 76.6609C17.8281 76.6609 17.7838 76.6482 17.7457 76.6271L1.90701 67.4792C1.82673 67.4348 1.77814 67.3503 1.77814 67.2595C1.77814 67.1686 1.82673 67.0778 1.90701 67.0334C1.98307 66.9891 2.08025 66.9785 2.16053 67.0271L17.9993 76.175C18.0795 76.2193 18.1281 76.3039 18.1281 76.3947V76.4074C18.1281 76.4982 18.0795 76.5827 17.9993 76.6271C17.9612 76.6482 17.9169 76.6609 17.8725 76.6609Z" fill="#333333"/>
<path d="M17.8725 59.729V61.3325H17.8598L16.4739 60.5297L13.776 58.9663H13.7634L8.9676 56.205L4.17182 53.4311L2.03379 52.1973L0.761963 51.4599V49.8438L2.03379 50.5811L5.55774 52.6177H5.57041L10.3683 55.3895H10.381L15.1641 58.1635H15.1768L17.8725 59.729Z" fill="#333333"/>
<path d="M17.8725 61.5851C17.8282 61.5851 17.7711 61.5724 17.7331 61.5513L13.6831 59.2041C13.6662 59.1999 13.6514 59.1935 13.6366 59.1851L0.633106 51.6788C0.554937 51.6344 0.506348 51.5499 0.506348 51.459V49.8428C0.506348 49.752 0.554939 49.6675 0.635221 49.6231C0.711277 49.5788 0.810571 49.5788 0.890853 49.6231L5.65071 52.3759C5.66761 52.3802 5.68452 52.3886 5.70142 52.3949L10.4613 55.1499C10.4782 55.1541 10.4951 55.1625 10.5078 55.1689L15.2571 57.9217C15.274 57.9259 15.2909 57.9344 15.3035 57.9407L18.0014 59.5062C18.0796 59.5506 18.1282 59.6351 18.1282 59.7259V61.3294C18.1282 61.471 18.0141 61.5851 17.8725 61.5851ZM13.8563 58.7245C13.8733 58.7309 13.8902 58.7372 13.9028 58.7456L17.6169 60.8984V59.8759L15.0817 58.4034C15.0648 58.3992 15.0479 58.3907 15.0352 58.3844L10.2859 55.6316C10.269 55.6273 10.2542 55.6189 10.2394 55.6125L5.47959 52.8597C5.46269 52.8555 5.44578 52.8471 5.431 52.8407L1.01761 50.2886V51.3154L13.8563 58.7245Z" fill="#333333"/>
<path d="M17.8725 59.9692C17.8282 59.9692 17.7838 59.9566 17.7458 59.9354L15.0817 58.4037C15.0648 58.3974 15.0479 58.3911 15.0352 58.3826L10.2859 55.6298C10.269 55.6256 10.2542 55.6171 10.2394 55.6108L5.47959 52.858C5.46057 52.8537 5.44579 52.8453 5.42888 52.8368L1.97043 50.8277C1.94719 50.8235 1.92607 50.815 1.90494 50.8023L0.633106 50.065C0.554937 50.0206 0.506348 49.9361 0.506348 49.8453C0.506348 49.7545 0.554937 49.6699 0.633106 49.6256L8.53663 45.039C8.65916 44.9671 8.81339 45.0094 8.88522 45.1319C8.95705 45.2545 8.9148 45.4087 8.79226 45.4805L1.26691 49.8474L2.09508 50.327C2.11832 50.3312 2.13945 50.3397 2.16057 50.3523L5.6486 52.3805C5.66762 52.3847 5.6824 52.3932 5.69931 52.3995L10.4592 55.1544C10.4761 55.1587 10.493 55.1671 10.5056 55.1735L15.2549 57.9263C15.2718 57.9305 15.2866 57.9368 15.3014 57.9453L17.8725 59.4242L25.6662 54.9242C25.7887 54.8544 25.943 54.8967 26.0127 55.0171C26.0845 55.1397 26.0423 55.2939 25.9197 55.3657L17.9993 59.9375C17.9613 59.9587 17.9169 59.9692 17.8725 59.9692Z" fill="#333333"/>
<path d="M17.8725 65.2846V66.8881H17.8598L16.4739 66.0874L8.9676 61.7607L4.17182 58.9888L2.03379 57.7529L0.761963 57.0156V55.3994L2.03379 56.1389L5.45633 58.11L5.54506 58.1734H5.57041L10.3683 60.9473H10.381L17.8725 65.2846Z" fill="#333333"/>
<path d="M17.8729 67.1437C17.8285 67.1437 17.7715 67.131 17.7334 67.1099L0.635551 57.2374C0.557382 57.193 0.508789 57.1085 0.508789 57.0176V55.4014C0.508789 55.3106 0.557381 55.2261 0.637662 55.1817C0.715831 55.1373 0.815129 55.1373 0.893298 55.1817L5.64682 57.9345C5.66583 57.9409 5.68696 57.9472 5.70175 57.9557L10.4616 60.7106C10.4785 60.7148 10.4933 60.7233 10.5081 60.7296L18.0018 65.067C18.0799 65.1113 18.1285 65.1958 18.1285 65.2867V66.8902C18.1285 67.0275 18.0144 67.1437 17.8729 67.1437ZM1.01794 56.8697L17.6194 66.455V65.4303L10.2863 61.186C10.2694 61.1817 10.2546 61.1733 10.2398 61.1669L5.48414 58.4162C5.45245 58.4078 5.42076 58.3972 5.39964 58.3803L5.3109 58.3169L1.01794 55.8409V56.8697Z" fill="#333333"/>
<path d="M17.8725 59.9801C17.8282 59.9801 17.7838 59.9674 17.7437 59.9463L15.0458 58.3808C14.9254 58.3111 14.8831 58.1547 14.9528 58.0343C15.0226 57.9118 15.1789 57.8716 15.2993 57.9413H15.3014L17.9972 59.4921C18.0775 59.5364 18.1261 59.6209 18.1261 59.7118V59.7245C18.1261 59.8153 18.0775 59.8998 17.9972 59.9442C17.9613 59.9695 17.9169 59.9801 17.8725 59.9801Z" fill="#333333"/>
<path d="M17.8725 65.5275C17.8281 65.5275 17.7838 65.5148 17.7458 65.4937L10.2859 61.188C10.269 61.1817 10.2542 61.1754 10.2394 61.169L5.48379 58.4183C5.4521 58.4099 5.42041 58.3993 5.39929 58.3824L5.31055 58.319L1.90704 56.3458C1.82887 56.3014 1.78027 56.2169 1.78027 56.1261V52.1944C1.78027 52.1035 1.82887 52.019 1.90915 51.9747C1.9852 51.9303 2.08661 51.9303 2.16267 51.9747L13.8584 58.7226C13.8753 58.7289 13.8922 58.7352 13.9049 58.7437L17.9676 61.0972C18.0605 61.1373 18.1282 61.2261 18.1282 61.3296V65.274C18.1282 65.3648 18.0796 65.4493 17.9993 65.4937C17.9613 65.5148 17.9169 65.5275 17.8725 65.5275ZM10.4613 60.7064C10.4782 60.7106 10.4929 60.719 10.5077 60.7254L17.6211 64.8303V61.4838L13.6852 59.2021C13.6683 59.1979 13.6535 59.1916 13.6387 59.1831L2.29154 52.6359V55.9803L5.64647 57.9345C5.66548 57.9409 5.68661 57.9472 5.7014 57.9557L10.4613 60.7064Z" fill="#333333"/>
<path d="M2.03382 56.3921C1.98945 56.3921 1.94508 56.3794 1.90494 56.3583L0.633107 55.621C0.554937 55.5766 0.506348 55.4921 0.506348 55.4013C0.506348 55.3104 0.554937 55.2259 0.633107 55.1815L1.90494 54.4442C1.98522 54.3977 2.08241 54.3999 2.16058 54.4442C2.24086 54.4886 2.28945 54.5731 2.28945 54.6639V56.1386C2.28945 56.2294 2.24086 56.3139 2.16058 56.3583C2.12255 56.3815 2.07818 56.3921 2.03382 56.3921ZM1.26903 55.3992L1.78029 55.6949V55.1034L1.26903 55.3992Z" fill="#333333"/>
<path d="M17.8725 70.8462V72.4476H17.8598L16.4739 71.6469L4.17182 64.5483L2.03379 63.3145L0.761963 62.5771V60.9609L2.03379 61.6983L5.45633 63.6715L5.54506 63.7349H5.57041L17.8725 70.8462Z" fill="#333333"/>
<path d="M17.8725 72.7023C17.8282 72.7023 17.7711 72.6896 17.731 72.6685L0.633106 62.7959C0.554937 62.7516 0.506348 62.6671 0.506348 62.5762V60.96C0.506348 60.8692 0.554939 60.7847 0.635221 60.7403C0.71339 60.6959 0.812684 60.6959 0.890853 60.7403L5.64437 63.4931C5.6655 63.4995 5.68452 63.5058 5.69719 63.5143L17.9993 70.6255C18.0796 70.672 18.1282 70.7544 18.1282 70.8453V72.4488C18.1282 72.5882 18.0141 72.7023 17.8725 72.7023ZM1.01761 62.4283L4.2986 64.3276L17.619 72.0157V70.991L5.48381 63.9769C5.45212 63.9685 5.42043 63.9579 5.39719 63.941L5.30846 63.8776L1.01761 61.4037V62.4283Z" fill="#333333"/>
<path d="M17.8725 59.9801C17.8282 59.9801 17.7838 59.9674 17.7437 59.9463L15.0458 58.3808C14.9254 58.3111 14.8831 58.1547 14.9528 58.0343C15.0226 57.9118 15.1789 57.8716 15.2993 57.9413H15.3014L17.9972 59.4921C18.0775 59.5364 18.1261 59.6209 18.1261 59.7118V59.7245C18.1261 59.8153 18.0775 59.8998 17.9972 59.9442C17.9613 59.9695 17.9169 59.9801 17.8725 59.9801Z" fill="#333333"/>
<path d="M17.8641 65.5364C17.824 65.5364 17.7817 65.5259 17.7458 65.5048L10.2522 61.1674C10.1317 61.0977 10.0895 60.9414 10.1592 60.821C10.2289 60.7005 10.3853 60.6583 10.5057 60.728L17.9993 65.0526C18.0796 65.097 18.1282 65.1815 18.1282 65.2724C18.1282 65.3632 18.0796 65.454 17.9993 65.4984C17.9571 65.5238 17.9106 65.5364 17.8641 65.5364Z" fill="#333333"/>
<path d="M2.03382 61.9546C1.98945 61.9546 1.94508 61.9419 1.90494 61.9208L0.633107 61.1835C0.554937 61.1391 0.506348 61.0546 0.506348 60.9638C0.506348 60.8729 0.554937 60.7884 0.633107 60.7441L1.90494 60.0067C1.98522 59.9602 2.08241 59.9624 2.16058 60.0067C2.24086 60.0511 2.28945 60.1356 2.28945 60.2264V61.7032C2.28945 61.794 2.24086 61.8786 2.16058 61.9229C2.12255 61.9419 2.07818 61.9546 2.03382 61.9546ZM1.26903 60.9617L1.78029 61.2574V60.6659L1.26903 60.9617Z" fill="#333333"/>
<path d="M17.8725 76.4057V78.0092H17.8598L16.4739 77.2085L16.4613 77.1937L2.03379 68.874L0.761963 68.1367V66.5205L2.03379 67.2599L17.8725 76.4057Z" fill="#333333"/>
<path d="M17.8729 78.2618C17.8285 78.2618 17.7715 78.2492 17.7334 78.228L16.3475 77.4273C16.3285 77.4168 16.3095 77.402 16.2947 77.3872L0.635551 68.3555C0.557382 68.3111 0.508789 68.2266 0.508789 68.1358V66.5196C0.508789 66.4288 0.557381 66.3442 0.637662 66.2999C0.715831 66.2555 0.815129 66.2555 0.893298 66.2999L2.16513 67.0372L18.0017 76.183C18.082 76.2273 18.1306 76.3118 18.1306 76.4027V78.0062C18.1285 78.1478 18.0144 78.2618 17.8729 78.2618ZM1.01794 67.99L2.16302 68.6555L16.5884 76.9752C16.6074 76.9858 16.6264 77.0006 16.6412 77.0154L17.6194 77.5773V76.5527L1.01794 66.9633V67.99Z" fill="#333333"/>
<path d="M17.8725 59.9801C17.8282 59.9801 17.7838 59.9674 17.7437 59.9463L15.0458 58.3808C14.9254 58.3111 14.8831 58.1547 14.9528 58.0343C15.0226 57.9118 15.1789 57.8716 15.2993 57.9413H15.3014L17.9972 59.4921C18.0775 59.5364 18.1261 59.6209 18.1261 59.7118V59.7245C18.1261 59.8153 18.0775 59.8998 17.9972 59.9442C17.9613 59.9695 17.9169 59.9801 17.8725 59.9801Z" fill="#333333"/>
<path d="M17.8641 65.5364C17.824 65.5364 17.7817 65.5259 17.7458 65.5048L10.2522 61.1674C10.1317 61.0977 10.0895 60.9414 10.1592 60.821C10.2289 60.7005 10.3853 60.6583 10.5057 60.728L17.9993 65.0526C18.0796 65.097 18.1282 65.1815 18.1282 65.2724C18.1282 65.3632 18.0796 65.454 17.9993 65.4984C17.9571 65.5238 17.9106 65.5364 17.8641 65.5364Z" fill="#333333"/>
<path d="M2.03382 67.5132C1.98945 67.5132 1.94508 67.5005 1.90494 67.4794L0.633107 66.7421C0.554937 66.6977 0.506348 66.6132 0.506348 66.5224C0.506348 66.4315 0.554937 66.347 0.633107 66.3027L1.90494 65.5653C1.98522 65.5188 2.08241 65.521 2.16058 65.5653C2.24086 65.6097 2.28945 65.6942 2.28945 65.785V67.2618C2.28945 67.3527 2.24086 67.4372 2.16058 67.4815C2.12255 67.5027 2.07818 67.5132 2.03382 67.5132ZM1.26903 66.5203L1.78029 66.816V66.2245L1.26903 66.5203Z" fill="#333333"/>
<path d="M17.8726 71.1012C17.8282 71.1012 17.7838 71.0885 17.7458 71.0674L5.44369 63.9561C5.32115 63.8843 5.2789 63.7301 5.35073 63.6075C5.42256 63.485 5.57679 63.4449 5.69721 63.5146L17.9993 70.6132C18.0796 70.6575 18.1282 70.7421 18.1282 70.8329V70.8456C18.1282 70.9364 18.0796 71.0209 17.9993 71.0653C17.9613 71.0907 17.9169 71.1012 17.8726 71.1012Z" fill="#333333"/>
<path d="M41.6359 80.2759C41.5472 80.2759 41.4627 80.2294 41.4162 80.1491C41.3929 80.109 41.3824 80.0646 41.3824 80.0223C41.3824 79.9336 41.4289 79.8491 41.5113 79.8005L81.1134 56.9413C81.2359 56.8716 81.3902 56.9118 81.4599 57.0343C81.4831 57.0744 81.4937 57.1188 81.4937 57.1611C81.4937 57.2498 81.4472 57.3343 81.3648 57.3829L41.7627 80.2421C41.7225 80.2653 41.6803 80.2759 41.6359 80.2759Z" fill="#333333"/>
<path d="M41.636 86.9073C41.5472 86.9073 41.4627 86.8608 41.4162 86.7805C41.393 86.7404 41.3824 86.696 41.3824 86.6537C41.3824 86.565 41.4289 86.4805 41.5113 86.4319L81.1134 63.5727C81.236 63.503 81.3902 63.5453 81.4599 63.6657C81.4832 63.7058 81.4937 63.7502 81.4937 63.7924C81.4937 63.8812 81.4473 63.9657 81.3649 64.0143L41.7627 86.8735C41.7226 86.8967 41.6803 86.9073 41.636 86.9073Z" fill="#333333"/>
<path d="M41.6359 78.7163C41.5915 78.7163 41.5472 78.7036 41.5091 78.6825C41.4288 78.6381 41.3802 78.5536 41.3802 78.4628V73.4388C41.3802 73.348 41.4288 73.2635 41.5091 73.2191L81.1112 50.3536C81.1873 50.3092 81.2887 50.3092 81.3648 50.3536C81.445 50.398 81.4936 50.4825 81.4936 50.5733V55.6015C81.4936 55.6923 81.445 55.7768 81.3648 55.8212L41.7626 78.6804C41.7246 78.7036 41.6803 78.7163 41.6359 78.7163ZM41.8915 73.5846V78.0212L80.9845 55.4557V51.0149L41.8915 73.5846Z" fill="#333333"/>
<path d="M81.238 55.5986L41.6359 78.4578V80.0191L81.238 57.1599V55.5986Z" fill="#333333"/>
<path d="M41.6359 80.2746C41.5916 80.2746 41.5472 80.2619 41.5092 80.2408C41.4289 80.1964 41.3803 80.1119 41.3803 80.0211V78.4598C41.3803 78.369 41.4289 78.2845 41.5092 78.2401L81.1113 55.3809C81.1873 55.3366 81.2888 55.3366 81.3648 55.3809C81.4451 55.4253 81.4937 55.5098 81.4937 55.6007V57.1619C81.4937 57.2528 81.4451 57.3373 81.3648 57.3816L41.7627 80.2408C41.7247 80.2619 41.6803 80.2746 41.6359 80.2746ZM41.8916 78.6056V79.5795L80.9845 57.014V56.0401L41.8916 78.6056Z" fill="#333333"/>
<path d="M41.6359 85.3484C41.5915 85.3484 41.5472 85.3357 41.5091 85.3146C41.4288 85.2702 41.3802 85.1857 41.3802 85.0949V80.0223C41.3802 79.9315 41.4288 79.847 41.5091 79.8026L81.1112 56.9434C81.1873 56.8991 81.2887 56.8991 81.3648 56.9434C81.445 56.9878 81.4936 57.0723 81.4936 57.1632V62.2357C81.4936 62.3265 81.445 62.411 81.3648 62.4554L41.7626 85.3146C41.7246 85.3357 41.6803 85.3484 41.6359 85.3484ZM41.8915 80.1681V84.6533L80.9845 62.0878V57.6026L41.8915 80.1681Z" fill="#333333"/>
<path d="M41.6359 91.9812C41.5916 91.9812 41.5472 91.9685 41.5092 91.9474C41.4289 91.903 41.3803 91.8185 41.3803 91.7277V86.6551C41.3803 86.5643 41.4289 86.4798 41.5092 86.4354L81.1113 63.5762C81.1873 63.5319 81.2888 63.5319 81.3648 63.5762C81.4451 63.6206 81.4937 63.7051 81.4937 63.796V68.8643C81.4937 68.9551 81.4451 69.0396 81.3648 69.084L41.7627 91.9474C41.7247 91.9685 41.6803 91.9812 41.6359 91.9812ZM41.8916 86.8009V91.2861L80.9845 68.7164V64.2354L41.8916 86.8009Z" fill="#333333"/>
<path d="M81.238 62.2354L41.6359 85.0945V86.6558L81.238 63.7966V62.2354Z" fill="#333333"/>
<path d="M41.6359 86.9113C41.5915 86.9113 41.5472 86.8986 41.5091 86.8775C41.4288 86.8331 41.3802 86.7486 41.3802 86.6578V85.0965C41.3802 85.0057 41.4288 84.9212 41.5091 84.8768L81.1112 62.0176C81.1873 61.9733 81.2887 61.9733 81.3648 62.0176C81.445 62.062 81.4936 62.1465 81.4936 62.2374V63.7986C81.4936 63.8895 81.445 63.974 81.3648 64.0184L41.7626 86.8775C41.7246 86.8986 41.6803 86.9113 41.6359 86.9113ZM41.8915 85.2402V86.2141L80.9845 63.6465V62.6726L41.8915 85.2402Z" fill="#333333"/>
<path d="M41.6359 91.9805C41.5915 91.9805 41.5472 91.9679 41.5092 91.9467L25.6683 82.801C25.588 82.7566 25.5394 82.6721 25.5394 82.5812V77.5108C25.5394 77.42 25.588 77.3355 25.6683 77.2911C25.7444 77.2467 25.8458 77.2467 25.9218 77.2911L41.7627 86.4348C41.843 86.4791 41.8915 86.5636 41.8915 86.6545V91.727C41.8915 91.8179 41.843 91.9024 41.7627 91.9467C41.7246 91.9679 41.6803 91.9805 41.6359 91.9805ZM26.0486 82.4334L41.3803 91.2855V86.8003L26.0486 77.9502V82.4334Z" fill="#333333"/>
<path d="M41.6359 78.7132C41.5915 78.7132 41.5472 78.7005 41.5092 78.6794L25.6683 69.5357C25.588 69.4914 25.5394 69.4068 25.5394 69.316V64.2921C25.5394 64.2012 25.588 64.1167 25.6683 64.0723C25.7444 64.028 25.8458 64.028 25.9218 64.0723L41.7627 73.2181C41.843 73.2625 41.8915 73.347 41.8915 73.4378V78.4618C41.8915 78.5526 41.843 78.6371 41.7627 78.6815C41.7246 78.7005 41.6803 78.7132 41.6359 78.7132ZM26.0486 69.1681L41.3803 78.0181V73.5815L26.0486 64.7294V69.1681Z" fill="#333333"/>
<path d="M41.6359 85.3487C41.5915 85.3487 41.5472 85.336 41.5092 85.3149L25.6683 76.1712C25.588 76.1269 25.5394 76.0423 25.5394 75.9515V70.879C25.5394 70.7881 25.588 70.7036 25.6683 70.6593C25.7444 70.6149 25.8458 70.6149 25.9218 70.6593L41.7627 79.8029C41.843 79.8473 41.8915 79.9318 41.8915 80.0226V85.0952C41.8915 85.186 41.843 85.2705 41.7627 85.3149C41.7246 85.336 41.6803 85.3487 41.6359 85.3487ZM26.0486 75.8015L41.3803 84.6515V80.1663L26.0486 71.3142V75.8015Z" fill="#333333"/>
<path d="M41.636 80.2756C41.4965 80.2756 41.3803 80.1616 41.3803 80.02V78.4588C41.3803 78.3193 41.4944 78.2031 41.636 78.2031C41.7775 78.2031 41.8916 78.3172 41.8916 78.4588V80.02C41.8916 80.1616 41.7775 80.2756 41.636 80.2756Z" fill="#333333"/>
<path d="M41.6359 78.461L25.795 69.3174V70.8787L41.6359 80.0223V78.461Z" fill="#333333"/>
<path d="M41.6359 80.2778C41.5915 80.2778 41.5472 80.2652 41.5092 80.244L25.6683 71.1004C25.588 71.056 25.5394 70.9715 25.5394 70.8807V69.3194C25.5394 69.2286 25.588 69.144 25.6683 69.0997C25.7444 69.0553 25.8458 69.0553 25.9218 69.0997L41.7627 78.2433C41.843 78.2877 41.8915 78.3722 41.8915 78.463V80.0243C41.8915 80.1152 41.843 80.1997 41.7627 80.244C41.7246 80.2652 41.6803 80.2778 41.6359 80.2778ZM26.0486 70.7328L41.3803 79.5828V78.6088L26.0486 69.7567V70.7328Z" fill="#333333"/>
<path d="M41.636 86.9085C41.4965 86.9085 41.3803 86.7944 41.3803 86.6528V85.0916C41.3803 84.9521 41.4944 84.8359 41.636 84.8359C41.7775 84.8359 41.8916 84.95 41.8916 85.0916V86.6528C41.8916 86.7944 41.7775 86.9085 41.636 86.9085Z" fill="#333333"/>
<path d="M25.795 77.5115L41.6359 86.6551V85.0939L25.795 75.9502V77.5115Z" fill="#333333"/>
<path d="M41.6359 86.9107C41.5915 86.9107 41.5472 86.898 41.5092 86.8768L25.6683 77.7332C25.588 77.6888 25.5394 77.6043 25.5394 77.5135V75.9522C25.5394 75.8614 25.588 75.7769 25.6683 75.7325C25.7444 75.6881 25.8458 75.6881 25.9218 75.7325L41.7627 84.874C41.843 84.9184 41.8915 85.0029 41.8915 85.0938V86.655C41.8915 86.7459 41.843 86.8304 41.7627 86.8747C41.7246 86.898 41.6803 86.9107 41.6359 86.9107ZM26.0486 77.3656L41.3803 86.2156V85.2416L26.0486 76.3916V77.3656Z" fill="#333333"/>
<path d="M57.4894 82.8363C57.35 82.8363 57.2338 82.7222 57.2338 82.5806V76.6736C57.2338 76.5342 57.3479 76.418 57.4894 76.418C57.631 76.418 57.7451 76.5321 57.7451 76.6736V82.5806C57.7451 82.7222 57.631 82.8363 57.4894 82.8363Z" fill="#333333"/>
<path d="M73.3154 73.6915C73.176 73.6915 73.0598 73.5774 73.0598 73.4358V68.2049C73.0598 68.0654 73.1739 67.9492 73.3154 67.9492C73.457 67.9492 73.5711 68.0633 73.5711 68.2049V73.4358C73.5711 73.5774 73.457 73.6915 73.3154 73.6915Z" fill="#333333"/>
<path d="M65.3971 71.6294C65.2577 71.6294 65.1415 71.5153 65.1415 71.3737V65.6463C65.1415 65.5068 65.2556 65.3906 65.3971 65.3906C65.5387 65.3906 65.6527 65.5047 65.6527 65.6463V71.3758C65.6506 71.5153 65.5365 71.6294 65.3971 71.6294Z" fill="#333333"/>
<path d="M49.5268 81.2144C49.3873 81.2144 49.2711 81.1003 49.2711 80.9587V74.0799C49.2711 73.9404 49.3852 73.8242 49.5268 73.8242C49.6662 73.8242 49.7824 73.9383 49.7824 74.0799V80.9587C49.7803 81.1003 49.6662 81.2144 49.5268 81.2144Z" fill="#333333"/>
<path d="M73.3154 60.8128C73.176 60.8128 73.0598 60.6987 73.0598 60.5572V55.1424C73.0598 55.0029 73.1739 54.8867 73.3154 54.8867C73.457 54.8867 73.5711 55.0008 73.5711 55.1424V60.5572C73.5711 60.6987 73.457 60.8128 73.3154 60.8128Z" fill="#333333"/>
<path d="M33.7155 74.3376C33.576 74.3376 33.4598 74.2235 33.4598 74.0819V68.8636C33.4598 68.7728 33.5084 68.6883 33.5887 68.6439L49.4296 59.4981C49.5056 59.4538 49.607 59.4538 49.6831 59.4981L57.6035 64.0699C57.6838 64.1143 57.7324 64.1988 57.7324 64.2897V69.4911C57.7324 69.6305 57.6183 69.7467 57.4768 69.7467C57.3352 69.7467 57.2211 69.6326 57.2211 69.4911V64.4354L49.5563 60.0094L33.9711 69.0073V74.0798C33.9711 74.2235 33.857 74.3376 33.7155 74.3376Z" fill="#333333"/>
<path d="M33.7155 87.4105C33.576 87.4105 33.4598 87.2964 33.4598 87.1549V80.9627C33.4598 80.8232 33.5739 80.707 33.7155 80.707C33.8549 80.707 33.9711 80.8211 33.9711 80.9627V87.1549C33.969 87.2964 33.8549 87.4105 33.7155 87.4105Z" fill="#333333"/>
<path d="M73.3156 55.3972C73.2712 55.3972 73.229 55.3867 73.1888 55.3634L65.2684 50.7916C65.1459 50.7219 65.1036 50.5656 65.1754 50.443C65.2473 50.3226 65.4015 50.2803 65.5219 50.3501L73.4423 54.9219C73.5649 54.9916 73.6071 55.148 73.5353 55.2705C73.4888 55.3508 73.4043 55.3972 73.3156 55.3972Z" fill="#333333"/>
<path d="M25.7951 66.2607L17.8726 70.8347V72.4361L19.2606 71.6481L25.7951 67.8727V66.2607Z" fill="#333333"/>
<path d="M17.8726 72.6908C17.8282 72.6908 17.7838 72.6781 17.7437 72.657C17.6655 72.6126 17.6169 72.5281 17.6169 72.4373V70.8338C17.6169 70.7429 17.6655 70.6584 17.7458 70.6141L25.6662 66.0401C25.7423 65.9957 25.8437 65.9957 25.9198 66.0401C26 66.0845 26.0486 66.169 26.0486 66.2598V67.8718C26.0486 67.9626 26 68.0472 25.9198 68.0915L17.9972 72.6549C17.9613 72.6803 17.9169 72.6908 17.8726 72.6908ZM18.1282 70.9795V71.9979L19.1338 71.4253L25.5395 67.726V66.7014L18.1282 70.9795Z" fill="#333333"/>
<path d="M17.8726 76.6481C17.8282 76.6481 17.7838 76.6354 17.7458 76.6143C17.6655 76.5699 17.6169 76.4854 17.6169 76.3945V72.4375C17.6169 72.3466 17.6676 72.2621 17.7458 72.2157L19.1317 71.4276L25.6662 67.6544C25.7423 67.61 25.8437 67.61 25.9198 67.6544C26 67.6987 26.0486 67.7832 26.0486 67.8741V71.8206C26.0486 71.9114 26 71.9959 25.9198 72.0403L17.9993 76.6121C17.9613 76.6354 17.9169 76.6481 17.8726 76.6481ZM18.1282 72.5833V75.9509L25.5395 71.6706V68.3114L18.1282 72.5833Z" fill="#333333"/>
<path d="M25.7951 71.8213L17.8726 76.3931V77.9966L25.7951 73.4227V71.8213Z" fill="#333333"/>
<path d="M17.8726 78.2493C17.8282 78.2493 17.7838 78.2366 17.7458 78.2155C17.6655 78.1711 17.6169 78.0866 17.6169 77.9958V76.3922C17.6169 76.3014 17.6655 76.2169 17.7458 76.1725L25.6662 71.6007C25.7423 71.5563 25.8437 71.5563 25.9198 71.6007C26 71.645 26.0486 71.7295 26.0486 71.8204V73.4239C26.0486 73.5148 26 73.5993 25.9198 73.6436L17.9993 78.2176C17.9613 78.2387 17.9169 78.2493 17.8726 78.2493ZM18.1282 76.5401V77.5563L25.5395 73.276V72.2598L18.1282 76.5401Z" fill="#333333"/>
<path d="M53.5852 28.7386C53.5409 28.7386 53.4986 28.726 53.4585 28.7048L49.343 26.3429C49.2627 26.2985 49.2141 26.214 49.2141 26.1231C49.2141 26.0323 49.2627 25.9478 49.343 25.9034L65.2705 16.7091C65.3465 16.6647 65.4479 16.6647 65.524 16.7091C65.6043 16.7534 65.6528 16.8379 65.6528 16.9288V21.6675C65.6528 21.7584 65.6043 21.8429 65.524 21.8872L53.712 28.707C53.674 28.726 53.6296 28.7386 53.5852 28.7386ZM49.9789 26.121L53.5852 28.1893L65.1437 21.5175V17.3661L49.9789 26.121ZM65.3972 21.6633H65.4036H65.3972Z" fill="#333333"/>
<path d="M69.5 19.2972L65.3972 16.9268V21.6655L69.5 19.2972Z" fill="#333333"/>
<path d="M65.3972 21.921C65.3528 21.921 65.3084 21.9084 65.2704 21.8872C65.1901 21.8429 65.1415 21.7584 65.1415 21.6675V16.9288C65.1415 16.8379 65.1901 16.7534 65.2704 16.7091C65.3465 16.6647 65.4479 16.6647 65.5239 16.7091L69.6267 19.0774C69.707 19.1217 69.7556 19.2062 69.7556 19.2971C69.7556 19.3879 69.707 19.4724 69.6267 19.5168L65.5239 21.8851C65.4859 21.9084 65.4415 21.921 65.3972 21.921ZM65.6528 17.3682V21.226L68.9929 19.2971L65.6528 17.3682Z" fill="#333333"/>
<path d="M51.0373 29.9557L46.9218 27.5938V32.3325L51.0373 29.9557Z" fill="#333333"/>
<path d="M46.9218 32.5859C46.8775 32.5859 46.8331 32.5732 46.7951 32.5521C46.7148 32.5077 46.6662 32.4232 46.6662 32.3324V27.5936C46.6662 27.5028 46.7148 27.4183 46.793 27.3739C46.8732 27.3274 46.9683 27.3295 47.0486 27.3739L51.1641 29.7359C51.2423 29.7803 51.293 29.8648 51.293 29.9556C51.293 30.0464 51.2444 30.131 51.1641 30.1774L47.0486 32.5542C47.0106 32.5753 46.9662 32.5859 46.9218 32.5859ZM47.1775 28.0331V31.8908L50.5282 29.9556L47.1775 28.0331Z" fill="#333333"/>
<path d="M34.9874 39.4784C34.943 39.4784 34.8986 39.4658 34.8606 39.4446L30.7578 37.0763C30.6775 37.032 30.6289 36.9474 30.6289 36.8566C30.6289 36.7658 30.6775 36.6812 30.7578 36.6369L46.7951 27.377C46.8712 27.3327 46.9726 27.3327 47.0486 27.377C47.1289 27.4214 47.1775 27.5059 47.1775 27.5967V32.3355C47.1775 32.4263 47.1289 32.5108 47.0486 32.5552L35.1141 39.4446C35.0761 39.4658 35.0296 39.4784 34.9874 39.4784ZM31.3937 36.8545L34.9874 38.9291L46.6683 32.1855V28.0341L31.3937 36.8545Z" fill="#333333"/>
<path d="M41.6359 43.3171C41.5916 43.3171 41.5472 43.3044 41.5092 43.2833L37.4063 40.915C37.3261 40.8706 37.2775 40.7861 37.2775 40.6953C37.2775 40.6044 37.3261 40.5199 37.4063 40.4756L53.4648 31.2051C53.5408 31.1608 53.6423 31.1608 53.7183 31.2051C53.7986 31.2495 53.8472 31.334 53.8472 31.4249V36.1636C53.8472 36.2544 53.7986 36.339 53.7183 36.3833L41.7648 43.2854C41.7246 43.3044 41.6803 43.3171 41.6359 43.3171ZM38.0423 40.6932L41.6359 42.7678L53.3359 36.0136V31.8622L38.0423 40.6932Z" fill="#333333"/>
<path d="M53.5894 31.4219V36.1606L57.7048 33.7839L53.5894 31.4219Z" fill="#333333"/>
<path d="M53.5894 36.4148C53.545 36.4148 53.5006 36.4021 53.4626 36.381C53.3823 36.3366 53.3337 36.2521 53.3337 36.1613V31.4225C53.3337 31.3317 53.3823 31.2472 53.4605 31.2028C53.5408 31.1563 53.6359 31.1563 53.7161 31.2028L57.8316 33.5648C57.9098 33.6092 57.9605 33.6937 57.9605 33.7845C57.9605 33.8754 57.9119 33.9599 57.8316 34.0064L53.7161 36.3831C53.6781 36.4021 53.6337 36.4148 53.5894 36.4148ZM53.845 31.8599V35.7176L57.1957 33.7824L53.845 31.8599Z" fill="#333333"/>
<path d="M60.255 32.5671C60.2106 32.5671 60.1684 32.5544 60.1282 32.5333L56.0127 30.1713C55.9346 30.1269 55.8839 30.0424 55.8839 29.9516C55.8839 29.8608 55.9324 29.7762 56.0127 29.7298L71.9191 20.546C71.9951 20.5016 72.0965 20.5016 72.1726 20.546C72.2529 20.5903 72.3015 20.6748 72.3015 20.7657V25.5044C72.3015 25.5953 72.2529 25.6798 72.1726 25.7241L60.3817 32.5333C60.3416 32.5544 60.2972 32.5671 60.255 32.5671ZM56.6486 29.9495L60.255 32.0178L71.7923 25.3565V21.2051L56.6486 29.9495Z" fill="#333333"/>
<path d="M72.0458 20.7666V25.5053L76.1487 23.137L72.0458 20.7666Z" fill="#333333"/>
<path d="M72.0457 25.7579C72.0014 25.7579 71.957 25.7453 71.919 25.7241C71.8387 25.6798 71.7901 25.5953 71.7901 25.5044V20.7657C71.7901 20.6748 71.8387 20.5903 71.919 20.546C71.995 20.5016 72.0964 20.5016 72.1725 20.546L76.2753 22.9143C76.3556 22.9586 76.4042 23.0431 76.4042 23.134C76.4042 23.2248 76.3556 23.3093 76.2753 23.3537L72.1725 25.722C72.1324 25.7474 72.088 25.7579 72.0457 25.7579ZM72.2993 21.2072V25.065L75.6394 23.1361L72.2993 21.2072Z" fill="#333333"/>
<path d="M41.6359 64.5452C41.5916 64.5452 41.5472 64.5325 41.5092 64.5114C41.4289 64.4671 41.3803 64.3825 41.3803 64.2917V46.0002C41.3803 45.9093 41.4289 45.8248 41.5092 45.7804L81.1113 22.9171C81.1873 22.8727 81.2888 22.8727 81.3648 22.9171C81.4451 22.9614 81.4937 23.0459 81.4937 23.1368V41.4283C81.4937 41.5192 81.4451 41.6037 81.3648 41.648L41.7627 64.5114C41.7247 64.5347 41.6803 64.5452 41.6359 64.5452ZM41.8916 46.1459V63.8502L80.9845 41.2804V23.5762L41.8916 46.1459Z" fill="#333333"/>
<path d="M41.6359 46.253C41.5915 46.253 41.5472 46.2403 41.5091 46.2192L25.6683 37.0734C25.588 37.029 25.5394 36.9445 25.5394 36.8537C25.5394 36.7628 25.588 36.6783 25.6683 36.634L65.2683 13.7706C65.3444 13.7262 65.4458 13.7262 65.5218 13.7706L81.3627 22.9164C81.4429 22.9607 81.4915 23.0452 81.4915 23.1361C81.4915 23.2269 81.4429 23.3114 81.3627 23.3558L41.7627 46.2192C41.7246 46.2424 41.6803 46.253 41.6359 46.253ZM26.3063 36.8537L41.638 45.7058L80.731 23.1361L65.3993 14.284L26.3063 36.8537Z" fill="#333333"/>
<path d="M41.6359 64.5454C41.5915 64.5454 41.5472 64.5327 41.5092 64.5116L25.6683 55.3658C25.588 55.3215 25.5394 55.237 25.5394 55.1461V36.8546C25.5394 36.7637 25.588 36.6792 25.6683 36.6348C25.7444 36.5905 25.8458 36.5905 25.9218 36.6348L41.7627 45.7806C41.843 45.825 41.8915 45.9095 41.8915 46.0003V64.2919C41.8915 64.3827 41.843 64.4672 41.7627 64.5116C41.7246 64.5348 41.6803 64.5454 41.6359 64.5454ZM26.0507 54.9982L41.3824 63.8503V46.1461L26.0507 37.294V54.9982Z" fill="#333333"/>
<path d="M17.8746 45.8964C20.5366 44.559 23.1775 43.0295 25.7951 41.3773V40.7773C23.1753 42.44 20.5366 43.9759 17.8746 45.3238V45.8964Z" fill="#333333"/>
<path d="M17.8746 36.8508V37.1804C32.8134 28.3727 44.5535 18.9882 44.1626 17.1016L43.645 17.3995C43.2246 18.9861 33.8739 27.1283 17.8746 36.5847V36.8508Z" fill="#333333"/>
<path d="M57.4767 14.4477V13.9871V13.8477C55.5225 15.0477 52.1359 17.5322 47.9549 20.6019C39.3331 26.9293 27.6267 35.5153 17.8746 40.7272V41.304C27.7049 36.0878 39.5528 27.3984 48.2549 21.0117C52.2479 18.0836 55.5098 15.6899 57.4767 14.4477Z" fill="#333333"/>
<path d="M81.2381 50.8256C81.1937 50.8256 81.1515 50.815 81.1113 50.7918L73.1909 46.2179C73.0683 46.1481 73.0261 45.9918 73.0979 45.8693C73.1698 45.7467 73.324 45.7066 73.4444 45.7763L81.3648 50.3502C81.4874 50.42 81.5296 50.5763 81.4578 50.6988C81.4092 50.7791 81.3247 50.8256 81.2381 50.8256Z" fill="#333333"/>
<path d="M41.6359 64.5454C41.5915 64.5454 41.5472 64.5327 41.5092 64.5116L25.6683 55.3658C25.588 55.3215 25.5394 55.237 25.5394 55.1461V36.8546C25.5394 36.7637 25.588 36.6792 25.6683 36.6348C25.7444 36.5905 25.8458 36.5905 25.9218 36.6348L41.7627 45.7806C41.843 45.825 41.8915 45.9095 41.8915 46.0003V64.2919C41.8915 64.3827 41.843 64.4672 41.7627 64.5116C41.7246 64.5348 41.6803 64.5454 41.6359 64.5454ZM26.0507 54.9982L41.3824 63.8503V46.1461L26.0507 37.294V54.9982Z" fill="#333333"/>
<path d="M17.8726 71.0879C17.8282 71.0879 17.7838 71.0752 17.7458 71.0541C17.6655 71.0097 17.6169 70.9252 17.6169 70.8344V66.8773C17.6169 66.7865 17.6676 66.702 17.7458 66.6555L19.1317 65.8675L31.8712 58.5069C31.9472 58.4625 32.0486 58.4625 32.1247 58.5069L33.8402 59.4956C33.9205 59.54 33.9691 59.6245 33.9691 59.7154C33.9691 59.8062 33.9205 59.8907 33.8402 59.9351L26.0465 64.4351V66.2583C26.0465 66.3492 25.9979 66.4337 25.9176 66.478L17.9972 71.052C17.9613 71.0773 17.9169 71.0879 17.8726 71.0879ZM18.1282 67.0252V70.3928L25.5395 66.1125V64.2893C25.5395 64.1985 25.5881 64.1139 25.6683 64.0696L33.2064 59.7175L32.0022 59.0224L18.1282 67.0252Z" fill="#333333"/>
<path d="M17.8726 65.5311C17.8282 65.5311 17.7838 65.5184 17.7458 65.4973C17.6655 65.4529 17.6169 65.3684 17.6169 65.2776V61.3205C17.6169 61.2297 17.6676 61.1452 17.7458 61.0987L19.1317 60.3107L27.0585 55.7325C27.1346 55.6881 27.236 55.6881 27.312 55.7325L30.7303 57.7057C30.8106 57.7501 30.8592 57.8346 30.8592 57.9255C30.8592 58.0163 30.8106 58.1008 30.7303 58.1452L17.9972 65.4952C17.9613 65.5184 17.9169 65.5311 17.8726 65.5311ZM18.1282 61.4684V64.836L30.0986 57.9255L27.1895 56.2459L18.1282 61.4684Z" fill="#333333"/>
<path d="M25.7951 55.1458V55.1416L17.8726 59.7155V61.3191L19.2606 60.5289L27.1895 55.9508L25.7951 55.1458Z" fill="#333333"/>
<path d="M17.8726 61.5717C17.8282 61.5717 17.7838 61.559 17.7437 61.5379C17.6655 61.4935 17.6169 61.409 17.6169 61.3182V59.7146C17.6169 59.6238 17.6655 59.5393 17.7458 59.4949L25.6662 54.921C25.7423 54.8766 25.8437 54.8766 25.9198 54.921C25.9303 54.9273 25.9409 54.9336 25.9514 54.9421L27.3141 55.7301C27.3944 55.7745 27.443 55.859 27.443 55.9498C27.443 56.0407 27.3944 56.1252 27.3141 56.1696L17.9972 61.5379C17.9613 61.5611 17.9169 61.5717 17.8726 61.5717ZM18.1282 59.8604V60.8787L19.1338 60.3062L26.6803 55.9477L25.793 55.4343L18.1282 59.8604Z" fill="#333333"/>
<path d="M30.6078 57.9258L17.8726 65.2758V66.8793L19.2606 66.0913L32.0021 58.7307L30.6078 57.9258Z" fill="#333333"/>
<path d="M17.8726 67.1319C17.8282 67.1319 17.7838 67.1192 17.7437 67.0981C17.6655 67.0538 17.6169 66.9692 17.6169 66.8784V65.2749C17.6169 65.184 17.6655 65.0995 17.7458 65.0552L30.4789 57.7051C30.555 57.6608 30.6564 57.6608 30.7324 57.7051L32.1268 58.5101C32.2071 58.5544 32.2557 58.639 32.2557 58.7298C32.2557 58.8206 32.2071 58.9052 32.1268 58.9495L17.9972 67.0981C17.9613 67.1214 17.9169 67.1319 17.8726 67.1319ZM18.1282 65.4228V66.4411L19.1338 65.8685L31.493 58.7298L30.6078 58.2185L18.1282 65.4228Z" fill="#333333"/>
</svg>
