<svg width="71" height="69" viewBox="0 0 71 69" fill="none" xmlns="http://www.w3.org/2000/svg">
<path d="M67.5463 67.6474H3.45366C2.23596 67.6474 1.25586 66.6673 1.25586 65.4496V20.2759C1.25586 19.0582 2.23596 18.0781 3.45366 18.0781H67.5463C68.764 18.0781 69.744 19.0582 69.744 20.2759V65.4397C69.744 66.6574 68.764 67.6474 67.5463 67.6474Z" stroke="#333333" stroke-miterlimit="10" stroke-linecap="round" stroke-linejoin="round"/>
<path d="M1.25586 20.2744V13.087C1.25586 13.087 6.09696 13.087 7.41366 13.087C8.73036 13.087 10.7896 10.5922 10.7896 8.09737C10.7896 8.09737 11.7202 17.0965 14.314 15.1363C17.0167 13.087 17.68 1.35547 17.68 1.35547C17.68 7.16677 19.2937 15.1462 24.8674 15.1462C30.4411 15.1462 34.1041 15.1462 36.5989 15.1462C39.0937 15.1462 39.8263 13.0969 40.1233 11.7703C40.2718 13.9681 42.0439 15.166 42.7666 14.9977C44.9644 14.4829 45.8455 8.98837 45.8455 6.34507C46.2118 11.5525 48.6274 15.067 49.7956 13.8295C51.0628 12.4732 52.7359 7.00837 53.4685 1.36537C55.3792 11.0476 56.2503 15.8887 58.8936 15.8887C61.5369 15.8887 62.4181 7.67167 62.4181 7.67167C63.4576 16.1758 69.754 12.8098 69.754 12.8098V21.7594" stroke="#333333" stroke-miterlimit="10" stroke-linecap="round" stroke-linejoin="round"/>
<path d="M1.25586 25.5934C7.26516 20.7523 20.7985 22.2967 32.6785 27.5734C44.5585 32.8501 59.2996 20.5345 69.7441 23.8312" stroke="#333333" stroke-miterlimit="10" stroke-linecap="round" stroke-linejoin="round"/>
<path d="M1.25586 34.6502C7.26516 32.2445 20.7985 33.0068 32.6785 35.6402C44.5585 38.2736 59.2996 32.1356 69.7441 33.779" stroke="#333333" stroke-miterlimit="10" stroke-linecap="round" stroke-linejoin="round"/>
<path d="M1.25586 50.3398C22.0063 50.3398 33.7774 50.3398 40.8163 50.3398C55.4485 50.3398 53.4685 55.6165 69.7441 55.6165" stroke="#333333" stroke-miterlimit="10" stroke-linecap="round" stroke-linejoin="round"/>
<path d="M1.25586 57.5586C22.0063 57.5586 20.0362 57.5586 27.0751 57.5586C41.7073 57.5586 39.7273 62.8353 56.0029 62.8353H69.7441" stroke="#333333" stroke-miterlimit="10" stroke-linecap="round" stroke-linejoin="round"/>
<path d="M1.25586 46.0523L7.37406 41.7656L21.5707 45.2801L23.8774 50.339" stroke="#333333" stroke-miterlimit="10" stroke-linecap="round" stroke-linejoin="round"/>
<path d="M4.46387 33.7695L13.0967 39.0165L11.7998 42.8577" stroke="#333333" stroke-miterlimit="10" stroke-linecap="round" stroke-linejoin="round"/>
<path d="M16.5215 44.0347C16.8878 44.1238 24.3227 38.3125 24.3227 38.3125L34.3316 42.8566L31.5794 46.0543H35.1038L37.955 50.341" stroke="#333333" stroke-miterlimit="10" stroke-linecap="round" stroke-linejoin="round"/>
<path d="M30.7079 35.2148L27.5498 39.7886" stroke="#333333" stroke-miterlimit="10" stroke-linecap="round" stroke-linejoin="round"/>
<path d="M34.3223 42.8549H39.3812L43.559 46.0526H46.8557L49.1624 42.8549L52.7957 44.3201C52.7957 44.3201 59.1713 41.2016 58.8446 41.0927C58.5179 40.9838 53.6768 36.2812 53.6768 36.2812L44.7668 39.7661L42.2324 36.2812" stroke="#333333" stroke-miterlimit="10" stroke-linecap="round" stroke-linejoin="round"/>
<path d="M44.7762 39.7891L43.5684 46.0557" stroke="#333333" stroke-miterlimit="10" stroke-linecap="round" stroke-linejoin="round"/>
<path d="M13.0967 39.0156L17.4923 37.5009L15.2945 35.7189L17.4923 33.4023" stroke="#333333" stroke-miterlimit="10" stroke-linecap="round" stroke-linejoin="round"/>
<path d="M52.8047 44.3301L56.7647 48.0327L54.1214 52.7748" stroke="#333333" stroke-miterlimit="10" stroke-linecap="round" stroke-linejoin="round"/>
<path d="M56.7656 48.0352H62.27L65.24 51.3319H69.7445" stroke="#333333" stroke-miterlimit="10" stroke-linecap="round" stroke-linejoin="round"/>
<path d="M58.8545 41.1055H64.6856L69.7445 44.3329" stroke="#333333" stroke-miterlimit="10" stroke-linecap="round" stroke-linejoin="round"/>
<path d="M53.6865 36.2905V34.7461" stroke="#333333" stroke-miterlimit="10" stroke-linecap="round" stroke-linejoin="round"/>
<path d="M61.8242 33.7695L64.2992 37.1454L69.7442 36.2049" stroke="#333333" stroke-miterlimit="10" stroke-linecap="round" stroke-linejoin="round"/>
<path d="M1.25586 28.9062H4.46346" stroke="#333333" stroke-miterlimit="10" stroke-linecap="round" stroke-linejoin="round"/>
<path d="M8.78027 25.7891H11.9879" stroke="#333333" stroke-miterlimit="10" stroke-linecap="round" stroke-linejoin="round"/>
<path d="M14.918 30.1055H18.1256" stroke="#333333" stroke-miterlimit="10" stroke-linecap="round" stroke-linejoin="round"/>
<path d="M24.1152 28.9062H27.3228" stroke="#333333" stroke-miterlimit="10" stroke-linecap="round" stroke-linejoin="round"/>
<path d="M33.8965 32.2812H37.1041" stroke="#333333" stroke-miterlimit="10" stroke-linecap="round" stroke-linejoin="round"/>
<path d="M42.5684 33.4023H45.776" stroke="#333333" stroke-miterlimit="10" stroke-linecap="round" stroke-linejoin="round"/>
<path d="M49.7959 29.4414H53.0035" stroke="#333333" stroke-miterlimit="10" stroke-linecap="round" stroke-linejoin="round"/>
<path d="M57.2695 31.3125H60.4672" stroke="#333333" stroke-miterlimit="10" stroke-linecap="round" stroke-linejoin="round"/>
<path d="M62.6953 27.0273H65.9029" stroke="#333333" stroke-miterlimit="10" stroke-linecap="round" stroke-linejoin="round"/>
<path d="M66.5361 30.1055H69.7437" stroke="#333333" stroke-miterlimit="10" stroke-linecap="round" stroke-linejoin="round"/>
</svg>
