<svg width="70" height="70" viewBox="0 0 70 70" fill="none" xmlns="http://www.w3.org/2000/svg">
<path d="M20.2607 26.5V43.5L34.9997 52.017V35L20.2607 26.5Z" stroke="#333333" stroke-miterlimit="10" stroke-linecap="round" stroke-linejoin="round"/>
<path d="M35 52.017L49.739 43.5V26.5L35 35V52.017Z" stroke="#333333" stroke-miterlimit="10" stroke-linecap="round" stroke-linejoin="round"/>
<path d="M20.2607 26.4975L34.9997 34.9975L49.7387 26.4975L34.9997 17.9805L20.2607 26.4975Z" stroke="#333333" stroke-miterlimit="10" stroke-linecap="round" stroke-linejoin="round"/>
<path d="M16.1979 22.4349L7.57886 13.8159L0.999859 20.3949H0.880859V0.878906H20.3969V0.997906L13.8179 7.5769L22.4369 16.1959" stroke="#333333" stroke-miterlimit="10" stroke-linecap="round" stroke-linejoin="round"/>
<path d="M22.4369 53.8015L13.8179 62.4205L20.3969 68.9995V69.1185H0.880859V49.6025H0.999859L7.57886 56.1815L16.1979 47.5625" stroke="#333333" stroke-miterlimit="10" stroke-linecap="round" stroke-linejoin="round"/>
<path d="M53.8015 47.5625L62.4205 56.1815L68.9995 49.6025H69.1185V69.1185H49.6025V68.9995L56.1815 62.4205L47.5625 53.8015" stroke="#333333" stroke-miterlimit="10" stroke-linecap="round" stroke-linejoin="round"/>
<path d="M47.5625 16.1959L56.1815 7.5769L49.6025 0.997906V0.878906H69.1185V20.3949H68.9995L62.4205 13.8159L53.8015 22.4349" stroke="#333333" stroke-miterlimit="10" stroke-linecap="round" stroke-linejoin="round"/>
</svg>
