<svg width="77" height="55" viewBox="0 0 77 55" fill="none" xmlns="http://www.w3.org/2000/svg">
<path d="M1 46.8212C1 46.8212 15.3584 46.8212 21.8188 46.8212C28.2793 46.8212 34.7398 43.4133 41.4667 43.4133C48.1937 43.4133 49.8976 46.1025 59.233 45.1173C68.5683 44.1321 74.5766 40.813 74.5766 40.813V54.0004H1V46.8212Z" stroke="#252630" stroke-miterlimit="10" stroke-linecap="round" stroke-linejoin="round"/>
<path d="M1 51.3916C9.16441 47.4427 16.1659 51.3916 20.9224 51.3916C29.2645 51.3916 29.3534 48.5167 39.5851 47.8061C49.2516 47.1277 60.4039 53.8143 74.5766 46.9985" stroke="#252630" stroke-miterlimit="10" stroke-linecap="round" stroke-linejoin="round"/>
<path d="M2.25171 53.9923L6.36218 49.8818" stroke="#252630" stroke-miterlimit="10" stroke-linecap="round" stroke-linejoin="round"/>
<path d="M7.90454 53.9923L12.015 49.8818" stroke="#252630" stroke-miterlimit="10" stroke-linecap="round" stroke-linejoin="round"/>
<path d="M13.5576 53.9918L16.6344 50.915" stroke="#252630" stroke-miterlimit="10" stroke-linecap="round" stroke-linejoin="round"/>
<path d="M19.2104 53.9925L21.7462 51.4648" stroke="#252630" stroke-miterlimit="10" stroke-linecap="round" stroke-linejoin="round"/>
<path d="M24.8634 53.9918L28.6428 50.2124" stroke="#252630" stroke-miterlimit="10" stroke-linecap="round" stroke-linejoin="round"/>
<path d="M30.5162 53.992L36.3791 48.1372" stroke="#252630" stroke-miterlimit="10" stroke-linecap="round" stroke-linejoin="round"/>
<path d="M36.1692 53.9925L42.3309 47.8389" stroke="#252630" stroke-miterlimit="10" stroke-linecap="round" stroke-linejoin="round"/>
<path d="M41.822 53.9924L47.4184 48.396" stroke="#252630" stroke-miterlimit="10" stroke-linecap="round" stroke-linejoin="round"/>
<path d="M47.475 53.9928L52.2396 49.2363" stroke="#252630" stroke-miterlimit="10" stroke-linecap="round" stroke-linejoin="round"/>
<path d="M53.1278 53.9926L57.1414 49.979" stroke="#252630" stroke-miterlimit="10" stroke-linecap="round" stroke-linejoin="round"/>
<path d="M58.7808 53.9919L62.7378 50.043" stroke="#252630" stroke-miterlimit="10" stroke-linecap="round" stroke-linejoin="round"/>
<path d="M64.4336 53.9923L69.497 48.937" stroke="#252630" stroke-miterlimit="10" stroke-linecap="round" stroke-linejoin="round"/>
<path d="M22.3599 46.8129L28.3681 40.8047" stroke="#252630" stroke-miterlimit="10" stroke-linecap="round" stroke-linejoin="round"/>
<path d="M29.0787 45.7391L33.8191 41.0068" stroke="#252630" stroke-miterlimit="10" stroke-linecap="round" stroke-linejoin="round"/>
<path d="M36.6699 43.8088L39.674 40.8047" stroke="#252630" stroke-miterlimit="10" stroke-linecap="round" stroke-linejoin="round"/>
<path d="M42.7507 43.3727L45.3268 40.8047" stroke="#252630" stroke-miterlimit="10" stroke-linecap="round" stroke-linejoin="round"/>
<path d="M47.7495 44.0354L50.8828 40.894" stroke="#252630" stroke-miterlimit="10" stroke-linecap="round" stroke-linejoin="round"/>
<path d="M52.288 45.1493L56.6326 40.8047" stroke="#252630" stroke-miterlimit="10" stroke-linecap="round" stroke-linejoin="round"/>
<path d="M57.8521 45.2382L62.2855 40.8047" stroke="#252630" stroke-miterlimit="10" stroke-linecap="round" stroke-linejoin="round"/>
<path d="M64.6356 44.0995L67.9385 40.8047" stroke="#252630" stroke-miterlimit="10" stroke-linecap="round" stroke-linejoin="round"/>
<path d="M70.0865 53.9922L74.5766 49.5103" stroke="#252630" stroke-miterlimit="10" stroke-linecap="round" stroke-linejoin="round"/>
<path d="M74.5765 40.8047H22.3518L20.0664 42.9124" stroke="#252630" stroke-miterlimit="10" stroke-linecap="round" stroke-linejoin="round"/>
<path d="M20.4783 44.6163L19.2993 41.1196L13.6464 42.872" stroke="#252630" stroke-miterlimit="10" stroke-linecap="round" stroke-linejoin="round"/>
<path d="M15.31 44.6158C15.0435 44.4382 11.9425 41.854 11.9425 41.854L7.95313 42.9684L7.59781 44.3897L4.58562 44.2121L3.10779 46.8124" stroke="#252630" stroke-miterlimit="10" stroke-linecap="round" stroke-linejoin="round"/>
<path d="M26.0908 40.5947C27.8079 40.5947 29.1999 39.2027 29.1999 37.4856C29.1999 35.7685 27.8079 34.3765 26.0908 34.3765C24.3737 34.3765 22.9817 35.7685 22.9817 37.4856C22.9817 39.2027 24.3737 40.5947 26.0908 40.5947Z" stroke="#252630" stroke-miterlimit="10" stroke-linecap="round" stroke-linejoin="round"/>
<path d="M54.533 40.5947C56.2502 40.5947 57.6421 39.2027 57.6421 37.4856C57.6421 35.7685 56.2502 34.3765 54.533 34.3765C52.8159 34.3765 51.424 35.7685 51.424 37.4856C51.424 39.2027 52.8159 40.5947 54.533 40.5947Z" stroke="#252630" stroke-miterlimit="10" stroke-linecap="round" stroke-linejoin="round"/>
<path d="M60.7591 40.5947C62.4762 40.5947 63.8682 39.2027 63.8682 37.4856C63.8682 35.7685 62.4762 34.3765 60.7591 34.3765C59.042 34.3765 57.65 35.7685 57.65 37.4856C57.65 39.2027 59.042 40.5947 60.7591 40.5947Z" stroke="#252630" stroke-miterlimit="10" stroke-linecap="round" stroke-linejoin="round"/>
<path d="M19.7434 35.8782L22.1742 30.1607C22.6587 29.014 23.7812 28.2791 25.0248 28.2791H27.1326C28.1016 28.2791 28.9899 27.73 29.4179 26.8578L31.1865 23.2803C31.7599 22.1255 32.9389 21.3906 34.2229 21.3906H39.2379V37.4852H30.9927L29.1999 32.6964H21.0759" stroke="#252630" stroke-miterlimit="10" stroke-linecap="round" stroke-linejoin="round"/>
<path d="M37.6308 27.2541V23.0063H34.231C33.5527 23.0063 32.9389 23.3859 32.6401 23.9916L31.025 27.2541H37.6308Z" stroke="#252630" stroke-miterlimit="10" stroke-linecap="round" stroke-linejoin="round"/>
<path d="M21.6007 36.1689H18.314V37.8406H21.6007V36.1689Z" stroke="#252630" stroke-miterlimit="10" stroke-linecap="round" stroke-linejoin="round"/>
<path d="M39.2458 37.4855H50.1963V34.1099H39.2458" stroke="#252630" stroke-miterlimit="10" stroke-linecap="round" stroke-linejoin="round"/>
<path d="M45.2299 28.2707H50.7051H56.1803V26.4053V24.5317H50.7051H45.2299V26.4053V28.2707Z" stroke="#252630" stroke-miterlimit="10" stroke-linecap="round" stroke-linejoin="round"/>
<path d="M41.2244 27.23H39.2458V34.1104H41.2244V27.23Z" stroke="#252630" stroke-miterlimit="10" stroke-linecap="round" stroke-linejoin="round"/>
<path d="M43.203 27.23H41.2245V34.1104H43.203V27.23Z" stroke="#252630" stroke-miterlimit="10" stroke-linecap="round" stroke-linejoin="round"/>
<path d="M65.2734 30.1611H43.2029V34.1101H65.2734V30.1611Z" stroke="#252630" stroke-miterlimit="10" stroke-linecap="round" stroke-linejoin="round"/>
<path d="M47.5636 28.2715V30.1612" stroke="#252630" stroke-miterlimit="10" stroke-linecap="round" stroke-linejoin="round"/>
<path d="M53.8466 28.2715V30.1612" stroke="#252630" stroke-miterlimit="10" stroke-linecap="round" stroke-linejoin="round"/>
<path d="M56.1804 26.4058H62.3421V30.1609" stroke="#252630" stroke-miterlimit="10" stroke-linecap="round" stroke-linejoin="round"/>
<path d="M45.989 28.2788C46.5624 26.6879 47.693 25.3554 49.1385 24.5317" stroke="#252630" stroke-miterlimit="10" stroke-linecap="round" stroke-linejoin="round"/>
<path d="M52.8774 28.2788C53.4508 26.6879 54.5814 25.3554 56.0269 24.5317" stroke="#252630" stroke-miterlimit="10" stroke-linecap="round" stroke-linejoin="round"/>
<path d="M49.4374 28.2788C50.0107 26.6879 51.1413 25.3554 52.5869 24.5317" stroke="#252630" stroke-miterlimit="10" stroke-linecap="round" stroke-linejoin="round"/>
<path d="M67.1307 40.805V9.55251L70.4175 3.92383H71.9115" stroke="#252630" stroke-miterlimit="10" stroke-linecap="round" stroke-linejoin="round"/>
<path d="M71.9116 1V40.8045" stroke="#252630" stroke-miterlimit="10" stroke-linecap="round" stroke-linejoin="round"/>
<path d="M74.5765 1V36.5325" stroke="#252630" stroke-miterlimit="10" stroke-linecap="round" stroke-linejoin="round"/>
<path d="M73.5266 30.1616L75.6182 28.7241" stroke="#252630" stroke-miterlimit="10" stroke-linecap="round" stroke-linejoin="round"/>
<path d="M73.5266 32.4619L75.6182 31.0244" stroke="#252630" stroke-miterlimit="10" stroke-linecap="round" stroke-linejoin="round"/>
<path d="M73.5266 34.7636L75.6182 33.3262" stroke="#252630" stroke-miterlimit="10" stroke-linecap="round" stroke-linejoin="round"/>
<path d="M74.5766 9.67285H71.9116" stroke="#252630" stroke-miterlimit="10" stroke-linecap="round" stroke-linejoin="round"/>
<path d="M74.5766 20.8984H71.9116" stroke="#252630" stroke-miterlimit="10" stroke-linecap="round" stroke-linejoin="round"/>
<path d="M71.9115 40.8047L67.1307 36.0239" stroke="#252630" stroke-miterlimit="10" stroke-linecap="round" stroke-linejoin="round"/>
<path d="M71.9115 31.2358L67.1307 36.0247" stroke="#252630" stroke-miterlimit="10" stroke-linecap="round" stroke-linejoin="round"/>
<path d="M71.9115 31.4607L67.1307 26.6719" stroke="#252630" stroke-miterlimit="10" stroke-linecap="round" stroke-linejoin="round"/>
<path d="M71.9115 21.8921L67.1307 26.6728" stroke="#252630" stroke-miterlimit="10" stroke-linecap="round" stroke-linejoin="round"/>
<path d="M71.9115 22.1179L67.1307 17.3291" stroke="#252630" stroke-miterlimit="10" stroke-linecap="round" stroke-linejoin="round"/>
<path d="M71.9115 12.54L67.1307 17.3289" stroke="#252630" stroke-miterlimit="10" stroke-linecap="round" stroke-linejoin="round"/>
<path d="M71.9117 12.766L67.7043 8.55859" stroke="#252630" stroke-miterlimit="10" stroke-linecap="round" stroke-linejoin="round"/>
<path d="M65.2734 30.1611H67.1308" stroke="#252630" stroke-miterlimit="10" stroke-linecap="round" stroke-linejoin="round"/>
<path d="M65.2734 31.7441H67.1308" stroke="#252630" stroke-miterlimit="10" stroke-linecap="round" stroke-linejoin="round"/>
</svg>
