<svg width="55" height="55" viewBox="0 0 55 55" fill="none" xmlns="http://www.w3.org/2000/svg">
<path d="M54.2042 49.3478V54.1111H1V46.638C1 46.638 1.83316 46.638 3.1965 46.638H22.6873C22.8809 46.638 23.066 46.638 23.2596 46.6296C25.5907 46.5622 27.9135 46.091 30.2614 45.5103C34.4946 44.4751 38.7782 43.0781 43.1712 43.0781C47.8755 43.0781 50.2235 44.3405 54.2042 44.8623V49.3478Z" stroke="#252630" stroke-miterlimit="10" stroke-linecap="round" stroke-linejoin="round"/>
<path d="M54.2042 49.1209C52.5463 48.8432 50.9389 48.5402 49.3651 48.2877C46.5206 47.8164 43.8108 47.4798 41.2019 47.665C39.9564 47.7491 38.8539 47.8669 37.8693 48.01C30.4045 49.0704 29.4367 51.4015 21.7532 51.4015C19.22 51.4015 16.081 50.3327 12.479 49.8278C9.02859 49.3481 5.15736 49.3902 1 51.4015" stroke="#252630" stroke-miterlimit="10" stroke-linecap="round" stroke-linejoin="round"/>
<path d="M2.30444 54.1201L6.58804 49.8281" stroke="#252630" stroke-miterlimit="10" stroke-linecap="round" stroke-linejoin="round"/>
<path d="M8.19543 54.1201L12.479 49.8281" stroke="#252630" stroke-miterlimit="10" stroke-linecap="round" stroke-linejoin="round"/>
<path d="M14.0864 54.1196L17.2928 50.9048" stroke="#252630" stroke-miterlimit="10" stroke-linecap="round" stroke-linejoin="round"/>
<path d="M19.9775 54.1201L22.6201 51.4775" stroke="#252630" stroke-miterlimit="10" stroke-linecap="round" stroke-linejoin="round"/>
<path d="M25.8685 54.1202L29.8071 50.1816" stroke="#252630" stroke-miterlimit="10" stroke-linecap="round" stroke-linejoin="round"/>
<path d="M31.7595 54.1201L37.8693 48.0103" stroke="#252630" stroke-miterlimit="10" stroke-linecap="round" stroke-linejoin="round"/>
<path d="M37.6505 54.1199L44.0717 47.6987" stroke="#252630" stroke-miterlimit="10" stroke-linecap="round" stroke-linejoin="round"/>
<path d="M43.5415 54.1203L49.3736 48.2798" stroke="#252630" stroke-miterlimit="10" stroke-linecap="round" stroke-linejoin="round"/>
<path d="M54.2042 49.3481L49.4325 54.1114" stroke="#252630" stroke-miterlimit="10" stroke-linecap="round" stroke-linejoin="round"/>
<path d="M23.2595 46.6299L29.5124 40.3687" stroke="#252630" stroke-miterlimit="10" stroke-linecap="round" stroke-linejoin="round"/>
<path d="M30.2615 45.5191L35.1931 40.5791" stroke="#252630" stroke-miterlimit="10" stroke-linecap="round" stroke-linejoin="round"/>
<path d="M38.1722 43.4993L41.2945 40.3687" stroke="#252630" stroke-miterlimit="10" stroke-linecap="round" stroke-linejoin="round"/>
<path d="M44.5092 43.0449L47.1854 40.3687" stroke="#252630" stroke-miterlimit="10" stroke-linecap="round" stroke-linejoin="round"/>
<path d="M49.7102 43.7351L52.9839 40.4614" stroke="#252630" stroke-miterlimit="10" stroke-linecap="round" stroke-linejoin="round"/>
<path d="M20.8695 42.5652L23.2512 40.3687H29.5124H41.2944H47.1854H54.2042" stroke="#252630" stroke-miterlimit="10" stroke-linecap="round" stroke-linejoin="round"/>
<path d="M21.2988 44.3408L20.0701 40.6968L14.1791 42.523" stroke="#252630" stroke-miterlimit="10" stroke-linecap="round" stroke-linejoin="round"/>
<path d="M15.9127 44.3406C15.635 44.1554 12.4033 41.4624 12.4033 41.4624L8.24596 42.6322L7.87567 44.1134L4.74503 43.9282L3.19653 46.6381" stroke="#252630" stroke-miterlimit="10" stroke-linecap="round" stroke-linejoin="round"/>
<path d="M54.2041 44.8626V40.3687" stroke="#252630" stroke-miterlimit="10" stroke-linecap="round" stroke-linejoin="round"/>
<path d="M31.1366 40.2761C33.995 40.2761 36.3123 37.9589 36.3123 35.1005C36.3123 32.242 33.995 29.9248 31.1366 29.9248C28.2782 29.9248 25.9609 32.242 25.9609 35.1005C25.9609 37.9589 28.2782 40.2761 31.1366 40.2761Z" stroke="#252630" stroke-miterlimit="10" stroke-linecap="round" stroke-linejoin="round"/>
<path d="M31.1366 29.9248L29.302 31.7678" stroke="#252630" stroke-miterlimit="10" stroke-linecap="round" stroke-linejoin="round"/>
<path d="M34.7217 31.3721L33.4425 32.6428" stroke="#252630" stroke-miterlimit="10" stroke-linecap="round" stroke-linejoin="round"/>
<path d="M36.1608 34.9487L34.3177 36.7918" stroke="#252630" stroke-miterlimit="10" stroke-linecap="round" stroke-linejoin="round"/>
<path d="M31.1366 40.2765L32.9796 38.4419" stroke="#252630" stroke-miterlimit="10" stroke-linecap="round" stroke-linejoin="round"/>
<path d="M27.5515 38.8372L28.8307 37.5664" stroke="#252630" stroke-miterlimit="10" stroke-linecap="round" stroke-linejoin="round"/>
<path d="M26.1124 35.2526L27.9555 33.418" stroke="#252630" stroke-miterlimit="10" stroke-linecap="round" stroke-linejoin="round"/>
<path d="M31.1367 37.2798C32.3405 37.2798 33.3164 36.3039 33.3164 35.1001C33.3164 33.8963 32.3405 32.9204 31.1367 32.9204C29.9329 32.9204 28.957 33.8963 28.957 35.1001C28.957 36.3039 29.9329 37.2798 31.1367 37.2798Z" stroke="#252630" stroke-miterlimit="10" stroke-linecap="round" stroke-linejoin="round"/>
<path d="M38.9127 25.2203L36.9014 23.209H25.9609V25.2203H38.9127Z" stroke="#252630" stroke-miterlimit="10" stroke-linecap="round" stroke-linejoin="round"/>
<path d="M25.9609 25.2207L20.4907 30.6909V33.4513" stroke="#252630" stroke-miterlimit="10" stroke-linecap="round" stroke-linejoin="round"/>
<path d="M26.2304 33.4515H18.6226L16.4513 31.2803" stroke="#252630" stroke-miterlimit="10" stroke-linecap="round" stroke-linejoin="round"/>
<path d="M23.6215 27.5596H38.9128" stroke="#252630" stroke-miterlimit="10" stroke-linecap="round" stroke-linejoin="round"/>
<path d="M26.0199 35.8744H19.2284L15.071 38.1971L18.6225 33.4507" stroke="#252630" stroke-miterlimit="10" stroke-linecap="round" stroke-linejoin="round"/>
<path d="M15.071 35.1001V42.102" stroke="#252630" stroke-miterlimit="10" stroke-linecap="round" stroke-linejoin="round"/>
<path d="M36.0431 33.4507H38.9128" stroke="#252630" stroke-miterlimit="10" stroke-linecap="round" stroke-linejoin="round"/>
<path d="M36.3123 35.8242H38.9127" stroke="#252630" stroke-miterlimit="10" stroke-linecap="round" stroke-linejoin="round"/>
<path d="M40.6884 35.1001V9.46582H38.9127V37.2882H42.2369V35.1001H40.6884Z" stroke="#252630" stroke-miterlimit="10" stroke-linecap="round" stroke-linejoin="round"/>
<path d="M43.5919 33.4507H42.237V37.2883H40.5707V38.8283H43.5919" stroke="#252630" stroke-miterlimit="10" stroke-linecap="round" stroke-linejoin="round"/>
<path d="M43.5919 33.4507H44.9468V37.2883H46.6047V38.8283H43.5919" stroke="#252630" stroke-miterlimit="10" stroke-linecap="round" stroke-linejoin="round"/>
<path d="M43.5919 33.451V19.2368" stroke="#252630" stroke-miterlimit="10" stroke-linecap="round" stroke-linejoin="round"/>
<path d="M44.5682 1H42.6073V19.2369H44.5682V1Z" stroke="#252630" stroke-miterlimit="10" stroke-linecap="round" stroke-linejoin="round"/>
<path d="M42.6073 15.5425H40.6885" stroke="#252630" stroke-miterlimit="10" stroke-linecap="round" stroke-linejoin="round"/>
<path d="M42.6073 2.36328C42.6073 5.25829 35.3109 5.82214 35.3109 10.779C35.3109 13.4131 37.1708 14.5913 38.9128 15.1215" stroke="#252630" stroke-miterlimit="10" stroke-linecap="round" stroke-linejoin="round"/>
<path d="M38.9127 35.8242V40.2761" stroke="#252630" stroke-miterlimit="10" stroke-linecap="round" stroke-linejoin="round"/>
</svg>
