<svg width="53" height="52" viewBox="0 0 53 52" fill="none" xmlns="http://www.w3.org/2000/svg">
<path d="M41.3652 22.5254V26.652" stroke="#333333" stroke-miterlimit="10" stroke-linecap="round" stroke-linejoin="round"/>
<path d="M41.3652 11.9316V15.1579" stroke="#333333" stroke-miterlimit="10" stroke-linecap="round" stroke-linejoin="round"/>
<path d="M44.8828 22.3457V26.6524" stroke="#333333" stroke-miterlimit="10" stroke-linecap="round" stroke-linejoin="round"/>
<path d="M44.8828 11.9316V16.4259" stroke="#333333" stroke-miterlimit="10" stroke-linecap="round" stroke-linejoin="round"/>
<path d="M43.2711 15.082C40.8851 15.082 35.543 15.8698 35.543 16.5826C35.543 17.2954 39.7747 18.1958 41.3653 18.1958C41.3653 16.7927 42.0706 15.8323 43.2711 15.082Z" stroke="#333333" stroke-miterlimit="10" stroke-linecap="round" stroke-linejoin="round"/>
<path d="M37.9883 22.728C40.3742 22.728 51.7263 22.5254 51.7188 19.3892C51.7188 17.4309 46.4817 16.418 44.891 16.418C44.891 18.6839 45.0261 19.0965 44.0807 20.2595C42.6176 22.0602 40.7494 22.1653 37.9883 22.728Z" stroke="#333333" stroke-miterlimit="10" stroke-linecap="round" stroke-linejoin="round"/>
<path d="M41.3652 18.1973V22.0088" stroke="#333333" stroke-miterlimit="10" stroke-linecap="round" stroke-linejoin="round"/>
<path d="M41.3652 26.6523V34.2004" stroke="#333333" stroke-miterlimit="10" stroke-linecap="round" stroke-linejoin="round"/>
<path d="M44.8841 40.3691V46.1464L41.3652 51.0009V46.1464V40.3691" stroke="#333333" stroke-miterlimit="10" stroke-linecap="round" stroke-linejoin="round"/>
<path d="M44.8828 26.6523V35.4684" stroke="#333333" stroke-miterlimit="10" stroke-linecap="round" stroke-linejoin="round"/>
<path d="M43.2702 34.4551C40.8843 34.4551 36.8477 35.1379 36.8477 35.8506C36.8477 36.5634 39.7663 37.2462 41.3645 37.2462C41.3645 35.8431 42.0697 35.2054 43.2702 34.4551Z" stroke="#333333" stroke-miterlimit="10" stroke-linecap="round" stroke-linejoin="round"/>
<path d="M37.9883 40.3982C40.3742 40.3982 50.8784 40.4057 50.8784 37.9447C50.8784 36.3691 46.4817 35.4688 44.8835 35.4688C44.8835 37.2395 44.1858 37.9297 43.608 38.53C42.4676 39.7079 40.7494 39.8355 37.9883 40.3982Z" stroke="#333333" stroke-miterlimit="10" stroke-linecap="round" stroke-linejoin="round"/>
<path d="M41.3652 37.2402V40.369" stroke="#333333" stroke-miterlimit="10" stroke-linecap="round" stroke-linejoin="round"/>
<path d="M41.3647 11.9314L36.5703 2.45508H49.6781L44.8836 11.9314" stroke="#333333" stroke-miterlimit="10" stroke-linecap="round" stroke-linejoin="round"/>
<path d="M41.3652 2.45558V1H44.8841V2.45558" stroke="#333333" stroke-miterlimit="10" stroke-linecap="round" stroke-linejoin="round"/>
<path d="M41.3652 25.1973H44.8541" stroke="#333333" stroke-miterlimit="10" stroke-linecap="round" stroke-linejoin="round"/>
<path d="M11.3555 34.5391V38.6657" stroke="#333333" stroke-miterlimit="10" stroke-linecap="round" stroke-linejoin="round"/>
<path d="M11.3555 11.9316V27.1702" stroke="#333333" stroke-miterlimit="10" stroke-linecap="round" stroke-linejoin="round"/>
<path d="M7.83398 34.3594V38.6661" stroke="#333333" stroke-miterlimit="10" stroke-linecap="round" stroke-linejoin="round"/>
<path d="M7.83398 11.9316V28.4382" stroke="#333333" stroke-miterlimit="10" stroke-linecap="round" stroke-linejoin="round"/>
<path d="M9.44727 27.0957C11.8332 27.0957 17.1754 27.8835 17.1754 28.5963C17.1754 29.3091 12.9437 30.2094 11.353 30.2094C11.353 28.8064 10.6477 27.846 9.44727 27.0957Z" stroke="#333333" stroke-miterlimit="10" stroke-linecap="round" stroke-linejoin="round"/>
<path d="M14.7305 34.7417C12.3445 34.7417 0.992501 34.5391 1 31.4028C1 29.4445 6.2371 28.4316 7.82773 28.4316C7.82773 30.6975 7.69268 31.1102 8.63806 32.2732C10.1011 34.0739 11.9694 34.1789 14.7305 34.7417Z" stroke="#333333" stroke-miterlimit="10" stroke-linecap="round" stroke-linejoin="round"/>
<path d="M11.3555 30.209V34.0205" stroke="#333333" stroke-miterlimit="10" stroke-linecap="round" stroke-linejoin="round"/>
<path d="M11.3555 38.6641V45.0341" stroke="#333333" stroke-miterlimit="10" stroke-linecap="round" stroke-linejoin="round"/>
<path d="M7.83398 47.5332V50.9996H11.3529V47.5332" stroke="#333333" stroke-miterlimit="10" stroke-linecap="round" stroke-linejoin="round"/>
<path d="M7.83398 38.6641V47.5326" stroke="#333333" stroke-miterlimit="10" stroke-linecap="round" stroke-linejoin="round"/>
<path d="M11.422 43.1747C12.4499 42.9947 13.7855 42.567 13.7855 41.9292C13.7855 41.1039 11.5721 40.7888 9.59878 40.6762C7.62549 40.5637 5.41211 40.2486 5.41211 39.4232C5.41211 38.7855 6.74764 38.3503 7.77555 38.1777" stroke="#333333" stroke-miterlimit="10" stroke-linecap="round" stroke-linejoin="round"/>
<path d="M11.422 48.622C12.4499 48.4419 13.7855 48.0143 13.7855 47.3765C13.7855 46.5512 11.5721 46.236 9.59878 46.1235C7.62549 46.011 5.41211 45.6958 5.41211 44.8705C5.41211 44.2327 6.74764 43.7976 7.77555 43.625" stroke="#333333" stroke-miterlimit="10" stroke-linecap="round" stroke-linejoin="round"/>
<path d="M11.3555 44.4043V47.533" stroke="#333333" stroke-miterlimit="10" stroke-linecap="round" stroke-linejoin="round"/>
<path d="M11.3529 24.4994V1H7.83398V24.4994" stroke="#333333" stroke-miterlimit="10" stroke-linecap="round" stroke-linejoin="round"/>
<path d="M24.5977 29.8867V34.0134" stroke="#333333" stroke-miterlimit="10" stroke-linecap="round" stroke-linejoin="round"/>
<path d="M24.5977 2.45508V22.5181" stroke="#333333" stroke-miterlimit="10" stroke-linecap="round" stroke-linejoin="round"/>
<path d="M28.125 29.707V34.0138" stroke="#333333" stroke-miterlimit="10" stroke-linecap="round" stroke-linejoin="round"/>
<path d="M28.125 19.291V23.7853" stroke="#333333" stroke-miterlimit="10" stroke-linecap="round" stroke-linejoin="round"/>
<path d="M26.5035 22.4434C24.1175 22.4434 18.7754 23.2312 18.7754 23.944C18.7754 24.6567 23.0071 25.5571 24.5977 25.5571C24.5977 24.1615 25.303 23.1937 26.5035 22.4434Z" stroke="#333333" stroke-miterlimit="10" stroke-linecap="round" stroke-linejoin="round"/>
<path d="M21.2207 30.0893C23.6067 30.0893 34.9587 29.8867 34.9512 26.7505C34.9512 24.7922 29.7141 23.7793 28.1235 23.7793C28.1235 26.0452 28.2585 26.4579 27.3131 27.6208C25.8576 29.4216 23.9818 29.5266 21.2207 30.0893Z" stroke="#333333" stroke-miterlimit="10" stroke-linecap="round" stroke-linejoin="round"/>
<path d="M24.5977 25.5566V29.3682" stroke="#333333" stroke-miterlimit="10" stroke-linecap="round" stroke-linejoin="round"/>
<path d="M24.5977 34.0137V36.9098" stroke="#333333" stroke-miterlimit="10" stroke-linecap="round" stroke-linejoin="round"/>
<path d="M26.3609 51L24.5977 44.2773" stroke="#333333" stroke-miterlimit="10" stroke-linecap="round" stroke-linejoin="round"/>
<path d="M28.1245 44.0977L26.3613 51.0004" stroke="#333333" stroke-miterlimit="10" stroke-linecap="round" stroke-linejoin="round"/>
<path d="M28.125 34.0137V38.1703" stroke="#333333" stroke-miterlimit="10" stroke-linecap="round" stroke-linejoin="round"/>
<path d="M26.5035 36.834C24.1175 36.834 18.7754 37.6218 18.7754 38.3346C18.7754 39.0474 23.0071 39.9477 24.5977 39.9477C24.5977 38.5447 25.303 37.5843 26.5035 36.834Z" stroke="#333333" stroke-miterlimit="10" stroke-linecap="round" stroke-linejoin="round"/>
<path d="M21.2207 44.4799C23.6067 44.4799 34.9587 44.2774 34.9512 41.1411C34.9512 39.1828 29.7141 38.1699 28.1235 38.1699C28.1235 40.4358 28.2585 40.8485 27.3131 42.0115C25.8576 43.8122 23.9818 43.9172 21.2207 44.4799Z" stroke="#333333" stroke-miterlimit="10" stroke-linecap="round" stroke-linejoin="round"/>
<path d="M24.5977 39.9473V43.7588" stroke="#333333" stroke-miterlimit="10" stroke-linecap="round" stroke-linejoin="round"/>
<path d="M24.5977 2.45558V1.72779V1H26.3609H28.1241V10.1462V19.2923" stroke="#333333" stroke-miterlimit="10" stroke-linecap="round" stroke-linejoin="round"/>
<path d="M28.125 2.45508H31.1712V9.80052L28.3051 12.6667" stroke="#333333" stroke-miterlimit="10" stroke-linecap="round" stroke-linejoin="round"/>
<path d="M24.597 2.45508H21.5508V9.80052L24.4169 12.6667" stroke="#333333" stroke-miterlimit="10" stroke-linecap="round" stroke-linejoin="round"/>
</svg>
