<svg width="49" height="52" viewBox="0 0 49 52" fill="none" xmlns="http://www.w3.org/2000/svg">
<path d="M47.6476 24.3238C47.6476 34.7139 40.8617 43.5132 31.4693 46.5241C29.2223 47.2611 26.8135 47.6476 24.3238 47.6476C21.8341 47.6476 19.4254 47.2611 17.1784 46.5241C7.79491 43.5132 1 34.7139 1 24.3238C1 11.444 11.444 1.00001 24.3238 1.00001C37.2126 0.991018 47.6476 11.4351 47.6476 24.3238Z" stroke="#333333" stroke-miterlimit="10" stroke-linecap="round" stroke-linejoin="round"/>
<path d="M24.3223 42.9364C14.0401 42.9364 5.69922 34.5956 5.69922 24.3133C5.69922 14.0311 14.0401 5.69922 24.3223 5.69922C34.6046 5.69922 42.9454 14.0401 42.9454 24.3223" stroke="#333333" stroke-miterlimit="10" stroke-linecap="round" stroke-linejoin="round"/>
<path d="M21.5566 24.3152C21.5566 23.5512 21.8712 22.8591 22.3656 22.3558C22.8689 21.8525 23.561 21.5469 24.3249 21.5469C25.0889 21.5469 25.781 21.8615 26.2843 22.3558C26.7876 22.8591 27.0932 23.5512 27.0932 24.3152C27.0932 25.0792 26.7787 25.7712 26.2843 26.2746C25.781 26.7779 25.0889 27.0835 24.3249 27.0835C23.561 27.0835 22.8689 26.7689 22.3656 26.2746C21.8622 25.7802 21.5566 25.0881 21.5566 24.3152Z" stroke="#333333" stroke-miterlimit="10" stroke-linecap="round" stroke-linejoin="round"/>
<path d="M38.4271 17.2782C34.724 15.3997 29.1694 19.5432 26.5 22.1407C29.0975 19.4713 33.241 13.9257 31.3625 10.2227C34.4184 11.7506 36.9081 14.2313 38.4271 17.2782Z" stroke="#333333" stroke-miterlimit="10" stroke-linecap="round" stroke-linejoin="round"/>
<path d="M28.3689 9.08966C27.0836 8.74812 25.7264 8.56836 24.3243 8.56836C15.6239 8.56836 8.56836 15.6239 8.56836 24.3243C8.56836 27.0566 9.26942 29.6272 10.4918 31.8652" stroke="#333333" stroke-miterlimit="10" stroke-linecap="round" stroke-linejoin="round"/>
<path d="M38.1641 31.8565C39.3864 29.6185 40.0875 27.0479 40.0875 24.3156C40.0875 22.9854 39.9257 21.7001 39.6111 20.4688" stroke="#333333" stroke-miterlimit="10" stroke-linecap="round" stroke-linejoin="round"/>
<path d="M15.7852 32.8644L22.3644 26.2852" stroke="#333333" stroke-miterlimit="10" stroke-linecap="round" stroke-linejoin="round"/>
<path d="M26.4997 22.1484C26.4278 22.2203 26.3559 22.2922 26.293 22.3552" stroke="#333333" stroke-miterlimit="10" stroke-linecap="round" stroke-linejoin="round"/>
<path d="M31.3613 10.2338V10.2227" stroke="#333333" stroke-miterlimit="10" stroke-linecap="round" stroke-linejoin="round"/>
<path d="M26.4997 22.1484C26.4278 22.2203 26.3559 22.2922 26.293 22.3552" stroke="#333333" stroke-miterlimit="10" stroke-linecap="round" stroke-linejoin="round"/>
<path d="M24.3242 8.56055V12.686" stroke="#333333" stroke-miterlimit="10" stroke-linecap="round" stroke-linejoin="round"/>
<path d="M8.56836 24.3145H12.6938" stroke="#333333" stroke-miterlimit="10" stroke-linecap="round" stroke-linejoin="round"/>
<path d="M40.0884 24.3145H35.9629" stroke="#333333" stroke-miterlimit="10" stroke-linecap="round" stroke-linejoin="round"/>
<path d="M31.4686 46.5234V50.0288C29.1947 50.6669 26.8039 50.9995 24.3232 50.9995C21.8515 50.9995 19.4517 50.6579 17.1777 50.0288V46.5234C19.4247 47.2605 21.8335 47.6469 24.3232 47.6469C26.8128 47.6469 29.2216 47.2605 31.4686 46.5234Z" stroke="#333333" stroke-miterlimit="10" stroke-linecap="round" stroke-linejoin="round"/>
</svg>
