<svg width="59" height="52" viewBox="0 0 59 52" fill="none" xmlns="http://www.w3.org/2000/svg">
<path d="M41.0081 21.4165L41.9723 22.373L52.8007 33.2014C53.4053 33.806 54.3925 33.806 55.0047 33.2014L58.0351 30.171C58.6396 29.5664 58.6396 28.5793 58.0351 27.9671L46.2425 16.1897C45.6379 15.5852 44.6507 15.5852 44.0385 16.1897L41.0081 19.2202C40.4035 19.8247 40.4035 20.8119 41.0081 21.4165Z" stroke="#333333" stroke-miterlimit="10" stroke-linecap="round" stroke-linejoin="round"/>
<path d="M24.684 42.3168L26.138 43.7708L31.403 49.0357L32.8493 47.5894L35.4818 44.9569L35.5048 44.9339C35.5048 44.9339 35.5124 44.9263 35.5201 44.9186C35.918 44.5207 35.918 43.8779 35.5201 43.4723L34.3339 42.2862C33.936 41.8882 33.2855 41.8882 32.8876 42.2862C33.2855 41.8882 33.2855 41.2454 32.8876 40.8475L31.6938 39.6537C31.2959 39.2557 30.6531 39.2557 30.2551 39.6537C30.6454 39.2404 30.6377 38.59 30.2322 38.1844L29.0843 37.0365C28.671 36.6233 28.0053 36.6233 27.5997 37.0365L24.6917 39.9445C24.0259 40.6179 24.0259 41.6663 24.684 42.3168Z" stroke="#333333" stroke-miterlimit="10" stroke-linecap="round" stroke-linejoin="round"/>
<path d="M28.4037 33.6453L29.2302 34.4718C29.4904 34.732 29.9113 34.732 30.1714 34.4718L31.0591 33.5841L34.5334 30.1174C35.0614 29.5971 35.9109 29.5971 36.4312 30.1174L42.6222 36.316L46.0123 39.6985L49.785 35.9258C50.3589 35.3595 50.7416 34.6248 50.9023 33.8366L51.3231 31.7321L41.9717 22.373L40.533 23.8117C40.1198 24.2173 39.6224 24.5387 39.0867 24.7453L35.4747 25.656L32.8958 26.3065C32.4136 26.4901 31.9774 26.7733 31.6101 27.1406L29.2914 29.4593L28.4037 30.347C27.493 31.2577 27.493 32.7346 28.4037 33.6453Z" stroke="#333333" stroke-miterlimit="10" stroke-linecap="round" stroke-linejoin="round"/>
<path d="M31.4043 49.0427L32.8583 50.4967C33.5088 51.1471 34.5648 51.1471 35.2153 50.4967L35.4831 50.2288L38.1156 47.5963L38.1386 47.5734C38.5441 47.1678 38.5441 46.5097 38.1386 46.1041L36.9754 44.9409C36.5698 44.5353 35.927 44.5353 35.5137 44.9256C35.5137 44.9256 35.5061 44.9332 35.4984 44.9409L35.4755 44.9639L32.843 47.5963L31.4043 49.0427Z" stroke="#333333" stroke-miterlimit="10" stroke-linecap="round" stroke-linejoin="round"/>
<path d="M19.6328 31.7321L20.0537 33.8366C20.2144 34.6248 20.6047 35.3518 21.171 35.9258L24.9437 39.6985L27.5838 37.0583C27.9894 36.6451 28.6628 36.6451 29.0684 37.0583L30.2163 38.2062C30.6143 38.6118 30.6219 39.2623 30.2393 39.6755C30.6372 39.2776 31.28 39.2776 31.678 39.6755L32.8718 40.8693C33.2697 41.2673 33.2697 41.9101 32.8718 42.308C33.2697 41.9101 33.9125 41.9101 34.3181 42.308L35.5042 43.4942C35.9022 43.8921 35.9022 44.5426 35.5042 44.9405C35.9098 44.5502 36.5603 44.5502 36.9659 44.9558L38.1291 46.119C38.5347 46.5246 38.5347 47.1827 38.1291 47.5883L38.1061 47.6112L35.4736 50.2437L35.7415 50.5116C36.3919 51.162 37.448 51.162 38.0985 50.5116L39.5525 49.0576L46.2714 42.3386C46.9219 41.6881 46.9219 40.6321 46.2714 39.9816L46.0036 39.7138L42.6135 36.3313L36.4226 30.1328C35.9022 29.6124 35.0527 29.6047 34.5247 30.1328L31.0504 33.5994L30.1628 34.4871C29.9026 34.7473 29.4817 34.7473 29.2215 34.4871L28.4027 33.6453C27.492 32.7346 27.492 31.2577 28.4027 30.347L29.2904 29.4593L31.6091 27.1406C31.9764 26.7733 32.4126 26.4901 32.8947 26.3065L35.4736 25.656L31.8769 24.7453C31.3336 24.5387 30.8362 24.225 30.4306 23.8117L28.9919 22.373L19.6328 31.7321Z" stroke="#333333" stroke-miterlimit="10" stroke-linecap="round" stroke-linejoin="round"/>
<path d="M35.4746 25.6562L35.4823 25.6639" stroke="#333333" stroke-miterlimit="10" stroke-linecap="round" stroke-linejoin="round"/>
<path d="M32.8809 42.2949L28.7715 46.412" stroke="#333333" stroke-miterlimit="10" stroke-linecap="round" stroke-linejoin="round"/>
<path d="M30.2481 39.6602L26.1387 43.7772" stroke="#333333" stroke-miterlimit="10" stroke-linecap="round" stroke-linejoin="round"/>
<path d="M38.1152 47.5898L39.5616 49.0438" stroke="#333333" stroke-miterlimit="10" stroke-linecap="round" stroke-linejoin="round"/>
<path d="M38.0859 42.2949L42.1954 46.412" stroke="#333333" stroke-miterlimit="10" stroke-linecap="round" stroke-linejoin="round"/>
<path d="M40.7168 39.6602L44.8262 43.7772" stroke="#333333" stroke-miterlimit="10" stroke-linecap="round" stroke-linejoin="round"/>
<path d="M53.8489 30.7389C54.7957 30.7389 55.5631 29.9714 55.5631 29.0247C55.5631 28.078 54.7957 27.3105 53.8489 27.3105C52.9022 27.3105 52.1348 28.078 52.1348 29.0247C52.1348 29.9714 52.9022 30.7389 53.8489 30.7389Z" stroke="#333333" stroke-miterlimit="10" stroke-linecap="round" stroke-linejoin="round"/>
<path d="M12.9319 30.1786L15.9623 33.2091C16.5669 33.8136 17.5541 33.8136 18.1663 33.2091L28.9947 22.3807L29.9589 21.4241C30.5635 20.8195 30.5635 19.8247 29.9589 19.2202L26.9285 16.1897C26.3239 15.5852 25.3368 15.5852 24.7245 16.1897L12.9319 27.9824C12.3274 28.5869 12.3274 29.5741 12.9319 30.1786ZM15.3884 29.0231C15.3884 28.0742 16.1537 27.3089 17.1026 27.3089C18.0515 27.3089 18.8168 28.0742 18.8168 29.0231C18.8168 29.972 18.0515 30.7373 17.1026 30.7373C16.1537 30.7373 15.3884 29.972 15.3884 29.0231Z" stroke="#333333" stroke-miterlimit="10" stroke-linecap="round" stroke-linejoin="round"/>
<path d="M12.9299 30.1786L15.9603 33.2091C16.5648 33.8136 17.552 33.8136 18.1642 33.2091L28.9926 22.3807L29.9568 21.4241C30.5614 20.8195 30.5614 19.8247 29.9568 19.2202L26.9264 16.1897C26.3219 15.5852 25.3347 15.5852 24.7225 16.1897L12.9299 27.9824C12.3177 28.5869 12.3177 29.5741 12.9299 30.1786Z" stroke="#333333" stroke-miterlimit="10" stroke-linecap="round" stroke-linejoin="round"/>
<path d="M14.1624 14.1701V1L1 14.1701H14.1624Z" stroke="#333333" stroke-miterlimit="10" stroke-linecap="round" stroke-linejoin="round"/>
<path d="M35.8116 25.5724V1H14.1624L1 14.1701V42.8902H25.251" stroke="#333333" stroke-miterlimit="10" stroke-linecap="round" stroke-linejoin="round"/>
<path d="M17.8963 39.9294H3.96094V21.4102" stroke="#333333" stroke-miterlimit="10" stroke-linecap="round" stroke-linejoin="round"/>
<path d="M17.7676 3.9707H32.8508V16.475" stroke="#333333" stroke-miterlimit="10" stroke-linecap="round" stroke-linejoin="round"/>
<path d="M17.7676 7.58789H29.2464" stroke="#333333" stroke-miterlimit="10" stroke-linecap="round" stroke-linejoin="round"/>
<path d="M17.7676 10.8789H29.2464" stroke="#333333" stroke-miterlimit="10" stroke-linecap="round" stroke-linejoin="round"/>
</svg>
