<svg width="64" height="52" viewBox="0 0 64 52" fill="none" xmlns="http://www.w3.org/2000/svg">
<path d="M21.7053 5.70117V9.88074L15.4746 12.967C16.0358 11.5545 16.4615 9.98716 16.5872 8.24568V8.236L21.7053 5.70117Z" stroke="#333333" stroke-miterlimit="10" stroke-linecap="round" stroke-linejoin="round"/>
<path d="M21.7043 36.5548V40.7344L1 50.9995V15.9763L5.67299 13.6543C6.23413 14.9024 6.89203 16.0053 7.54992 16.9147L4.75387 18.2983V44.972L21.7043 36.5548Z" stroke="#333333" stroke-miterlimit="10" stroke-linecap="round" stroke-linejoin="round"/>
<path d="M42.4191 46.8198V50.9993L21.7051 40.7439V36.5547L42.4191 46.8198Z" stroke="#333333" stroke-miterlimit="10" stroke-linecap="round" stroke-linejoin="round"/>
<path d="M42.4191 15.9759V20.1458L21.7051 9.88074V5.70117L42.4191 15.9759Z" stroke="#333333" stroke-miterlimit="10" stroke-linecap="round" stroke-linejoin="round"/>
<path d="M49.2794 16.7496L42.4102 20.1455V15.9756L48.5054 12.957C48.6118 14.3115 48.8827 15.5886 49.2794 16.7496Z" stroke="#333333" stroke-miterlimit="10" stroke-linecap="round" stroke-linejoin="round"/>
<path d="M63.132 5.70117V40.7437L42.418 50.9992V46.8196L59.3975 38.4218V18.4334C60.2489 16.5758 60.868 14.3602 60.868 11.8931C60.868 10.2581 60.2295 8.76812 59.1846 7.66518L63.132 5.70117Z" stroke="#333333" stroke-miterlimit="10" stroke-linecap="round" stroke-linejoin="round"/>
<path d="M21.7043 9.88086V36.5546L4.74414 44.9718V18.298L7.54019 16.9145C9.01078 18.985 10.4233 20.146 10.4233 20.146C10.4233 20.146 13.6838 17.4466 15.4833 12.9768V12.9672L21.7043 9.88086Z" stroke="#333333" stroke-miterlimit="10" stroke-linecap="round" stroke-linejoin="round"/>
<path d="M21.7051 9.88086V36.5546L42.4094 46.8197V20.146L21.7051 9.88086ZM32.0572 38.4316C32.0572 38.4316 25.8653 33.2845 25.8653 25.4768C25.8653 22.0519 28.6323 19.2849 32.0572 19.2849C35.4822 19.2849 38.2589 22.0519 38.2589 25.4768C38.2589 33.2845 32.0572 38.4316 32.0572 38.4316Z" stroke="#333333" stroke-miterlimit="10" stroke-linecap="round" stroke-linejoin="round"/>
<path d="M59.3878 18.4334V38.4218L42.418 46.8197V20.1459L49.2872 16.75C50.9609 21.7713 54.6664 24.8479 54.6664 24.8479C54.6664 24.8479 57.5592 22.4582 59.3878 18.4334Z" stroke="#333333" stroke-miterlimit="10" stroke-linecap="round" stroke-linejoin="round"/>
<path d="M10.4224 1C6.9975 1 4.23047 3.76703 4.23047 7.19195C4.23047 9.63971 4.83031 11.8069 5.66236 13.6548C6.2235 14.9029 6.8814 16.0058 7.53929 16.9152C9.00988 18.9857 10.4224 20.1467 10.4224 20.1467C10.4224 20.1467 13.6829 17.4474 15.4824 12.9776V12.9679C16.0436 11.5553 16.4692 9.988 16.595 8.24652V8.23684C16.624 7.88854 16.6337 7.54992 16.6337 7.19195C16.624 3.76703 13.8377 1 10.4224 1ZM10.4224 9.95898C8.90346 9.95898 7.65539 8.72059 7.65539 7.19195C7.65539 5.65364 8.90346 4.42492 10.4224 4.42492C11.9607 4.42492 13.2088 5.66331 13.2088 7.19195C13.2088 8.72059 11.9607 9.95898 10.4224 9.95898Z" stroke="#333333" stroke-miterlimit="10" stroke-linecap="round" stroke-linejoin="round"/>
<path d="M32.0552 19.2852C28.6303 19.2852 25.8633 22.0522 25.8633 25.4771C25.8633 33.2944 32.0552 38.4318 32.0552 38.4318C32.0552 38.4318 38.2569 33.2848 38.2569 25.4771C38.2569 22.0522 35.4705 19.2852 32.0552 19.2852ZM32.0552 28.2441C30.5363 28.2441 29.2882 27.0057 29.2882 25.4771C29.2882 23.9388 30.5363 22.7101 32.0552 22.7101C33.5935 22.7101 34.8416 23.9485 34.8416 25.4771C34.8319 27.0154 33.5839 28.2441 32.0552 28.2441Z" stroke="#333333" stroke-miterlimit="10" stroke-linecap="round" stroke-linejoin="round"/>
<path d="M34.8327 25.478C34.8327 27.0163 33.5846 28.2451 32.0463 28.2451C30.5274 28.2451 29.2793 27.0067 29.2793 25.478C29.2793 23.9397 30.5274 22.711 32.0463 22.711C33.5846 22.7013 34.8327 23.9397 34.8327 25.478Z" stroke="#333333" stroke-miterlimit="10" stroke-linecap="round" stroke-linejoin="round"/>
<path d="M59.175 7.66518C58.0527 6.45581 56.437 5.70117 54.6568 5.70117C51.2319 5.70117 48.4648 8.4682 48.4648 11.8931C48.4648 12.2511 48.4745 12.6091 48.5035 12.9574C48.6003 14.3215 48.8809 15.5889 49.2775 16.7499C50.9513 21.7712 54.6568 24.8478 54.6568 24.8478C54.6568 24.8478 57.5496 22.4485 59.3878 18.4334C60.2392 16.5758 60.8584 14.3602 60.8584 11.8931C60.8584 10.2581 60.2295 8.7778 59.175 7.66518ZM57.2884 12.7832C56.9111 13.8862 55.8758 14.6698 54.6568 14.6698C54.3569 14.6698 54.0569 14.6214 53.7861 14.5247C52.6831 14.1667 51.8898 13.1315 51.8898 11.9028C51.8898 11.6803 51.9188 11.4578 51.9768 11.2449C52.2671 10.0355 53.3604 9.13577 54.6568 9.13577C55.0535 9.13577 55.4308 9.22284 55.7694 9.35829C56.7563 9.78399 57.4432 10.7708 57.4432 11.9028C57.4432 12.2027 57.3948 12.5026 57.2884 12.7832Z" stroke="#333333" stroke-miterlimit="10" stroke-linecap="round" stroke-linejoin="round"/>
<path d="M57.4422 11.8941C57.4422 12.2037 57.3938 12.5036 57.297 12.7842C56.9197 13.8871 55.8845 14.6708 54.6655 14.6708C54.3655 14.6708 54.0656 14.6224 53.7947 14.5257C52.6918 14.1677 51.8984 13.1325 51.8984 11.9037C51.8984 11.6812 51.9275 11.4587 51.9855 11.2459C52.2758 10.0365 53.369 9.13672 54.6655 9.13672C55.0621 9.13672 55.4395 9.22379 55.7781 9.35924C56.7553 9.77526 57.4422 10.7621 57.4422 11.8941Z" stroke="#333333" stroke-miterlimit="10" stroke-linecap="round" stroke-linejoin="round"/>
<path d="M13.2097 7.19091C13.2097 8.72922 11.9616 9.95794 10.4233 9.95794C8.90431 9.95794 7.65625 8.71955 7.65625 7.19091C7.65625 5.6526 8.90431 4.42388 10.4233 4.42388C11.9616 4.41421 13.2097 5.6526 13.2097 7.19091Z" stroke="#333333" stroke-miterlimit="10" stroke-linecap="round" stroke-linejoin="round"/>
</svg>
