<svg width="78" height="52" viewBox="0 0 78 52" fill="none" xmlns="http://www.w3.org/2000/svg">
<path d="M42.4266 3.02312C42.4266 4.17919 40.8852 5.04624 38.9584 5.04624C37.0317 5.04624 35.4902 4.17919 35.4902 3.02312C35.4902 1.86705 37.0317 1 38.9584 1C40.8852 1 42.4266 1.86705 42.4266 3.02312Z" stroke="#333333" stroke-miterlimit="10" stroke-linecap="round" stroke-linejoin="round"/>
<path d="M18.4384 16.8942C18.4384 18.0503 16.8969 18.9173 14.9702 18.9173C13.0434 18.9173 11.502 18.0503 11.502 16.8942C11.502 15.7381 13.0434 14.8711 14.9702 14.8711C16.8969 14.8711 18.4384 15.7381 18.4384 16.8942Z" stroke="#333333" stroke-miterlimit="10" stroke-linecap="round" stroke-linejoin="round"/>
<path d="M18.439 16.8945V35.1026C18.439 35.6807 18.0536 36.1624 17.4756 36.5477C16.8012 36.9331 15.9342 37.1257 14.9708 37.1257C14.0074 37.1257 13.1404 36.9331 12.466 36.5477C11.8879 36.1624 11.4062 35.6807 11.4062 35.1026V16.8945C11.4062 18.0506 12.9477 18.9177 14.8745 18.9177C16.8012 18.9177 18.439 18.0506 18.439 16.8945Z" stroke="#333333" stroke-miterlimit="10" stroke-linecap="round" stroke-linejoin="round"/>
<path d="M42.426 3.02148V21.1332C42.426 21.7113 42.0406 22.193 41.3662 22.5783C40.6919 22.9637 39.8248 23.1564 38.8614 23.1564C37.898 23.1564 37.031 22.9637 36.3566 22.5783C35.6822 22.193 35.2969 21.7113 35.2969 21.1332V3.02148C35.2969 4.17755 36.8383 5.0446 38.7651 5.0446C40.8845 5.0446 42.426 4.08121 42.426 3.02148Z" stroke="#333333" stroke-miterlimit="10" stroke-linecap="round" stroke-linejoin="round"/>
<path d="M42.4266 30.7673C42.4266 31.9233 40.8852 32.7904 38.9584 32.7904C37.0317 32.7904 35.4902 31.9233 35.4902 30.7673C35.4902 29.6112 37.0317 28.7441 38.9584 28.7441C40.8852 28.7441 42.4266 29.6112 42.4266 30.7673Z" stroke="#333333" stroke-miterlimit="10" stroke-linecap="round" stroke-linejoin="round"/>
<path d="M66.4149 16.8005C66.4149 17.9565 64.8735 18.8236 62.9467 18.8236C61.0199 18.8236 59.4785 17.9565 59.4785 16.8005C59.4785 15.6444 61.0199 14.7773 62.9467 14.7773C64.8735 14.7773 66.4149 15.7407 66.4149 16.8005Z" stroke="#333333" stroke-miterlimit="10" stroke-linecap="round" stroke-linejoin="round"/>
<path d="M66.4156 16.7988V35.0069C66.4156 36.163 64.8741 37.03 62.9474 37.03C61.984 37.03 61.1169 36.8374 60.4425 36.452C59.8645 36.0667 59.3828 35.585 59.3828 35.0069V16.7988C59.3828 17.9549 60.9242 18.8219 62.851 18.8219C64.7778 18.8219 66.4156 17.9549 66.4156 16.7988Z" stroke="#333333" stroke-miterlimit="10" stroke-linecap="round" stroke-linejoin="round"/>
<path d="M42.4273 30.7656V48.9737C42.4273 50.1298 40.8859 50.9968 38.9591 50.9968C37.9957 50.9968 37.1286 50.8042 36.4543 50.4188C35.7799 50.0334 35.3945 49.5518 35.3945 48.9737V30.7656C35.3945 31.9217 36.936 32.7887 38.8627 32.7887C40.8859 32.7887 42.4273 31.8254 42.4273 30.7656Z" stroke="#333333" stroke-miterlimit="10" stroke-linecap="round" stroke-linejoin="round"/>
<path d="M41.3652 22.5762L59.3806 32.9808" stroke="#333333" stroke-miterlimit="10" stroke-linecap="round" stroke-linejoin="round"/>
<path d="M25.6641 13.5215L35.3943 19.1092" stroke="#333333" stroke-miterlimit="10" stroke-linecap="round" stroke-linejoin="round"/>
<path d="M36.4512 22.5762C37.0292 22.9615 37.9926 23.1542 38.956 23.1542C39.9194 23.1542 40.7864 22.9615 41.4608 22.5762" stroke="#333333" stroke-miterlimit="10" stroke-linecap="round" stroke-linejoin="round"/>
<path d="M42.4258 19.1092L52.2524 13.5215" stroke="#333333" stroke-miterlimit="10" stroke-linecap="round" stroke-linejoin="round"/>
<path d="M18.4375 32.9808L36.4529 22.5762" stroke="#333333" stroke-miterlimit="10" stroke-linecap="round" stroke-linejoin="round"/>
<path d="M17.4727 36.4513C18.0507 36.0659 18.436 35.5842 18.436 35.0062V32.8867" stroke="#333333" stroke-miterlimit="10" stroke-linecap="round" stroke-linejoin="round"/>
<path d="M11.4046 32.9834L1 26.9141" stroke="#333333" stroke-miterlimit="10" stroke-linecap="round" stroke-linejoin="round"/>
<path d="M35.3917 46.8577L17.4727 36.4531" stroke="#333333" stroke-miterlimit="10" stroke-linecap="round" stroke-linejoin="round"/>
<path d="M60.4412 36.4531L42.4258 46.8577" stroke="#333333" stroke-miterlimit="10" stroke-linecap="round" stroke-linejoin="round"/>
<path d="M76.915 26.9141L66.4141 32.9834" stroke="#333333" stroke-miterlimit="10" stroke-linecap="round" stroke-linejoin="round"/>
<path d="M59.3828 32.9824V35.0055C59.3828 35.5836 59.7682 36.0653 60.4425 36.4506" stroke="#333333" stroke-miterlimit="10" stroke-linecap="round" stroke-linejoin="round"/>
<path d="M42.4266 30.7673C42.4266 31.9233 40.8852 32.7904 38.9584 32.7904C37.0317 32.7904 35.4902 31.9233 35.4902 30.7673C35.4902 29.6112 37.0317 28.7441 38.9584 28.7441C40.8852 28.7441 42.4266 29.6112 42.4266 30.7673Z" stroke="#333333" stroke-miterlimit="10" stroke-linecap="round" stroke-linejoin="round"/>
</svg>
