<svg width="36" height="52" viewBox="0 0 36 52" fill="none" xmlns="http://www.w3.org/2000/svg">
<path d="M29.7285 21.6602C31.723 21.6602 33.3338 23.302 33.3338 25.3348C33.3338 27.3676 31.723 29.0095 29.7285 29.0095" stroke="#333333" stroke-miterlimit="10" stroke-linecap="round" stroke-linejoin="round"/>
<path d="M14.5 4.67466C14.5 2.64187 16.1109 1 18.1053 1C20.0998 1 21.7107 2.64187 21.7107 4.67466" stroke="#333333" stroke-miterlimit="10" stroke-linecap="round" stroke-linejoin="round"/>
<path d="M31.5293 28.9922C33.5237 28.9922 35.1346 30.6341 35.1346 32.6668C35.1346 34.6996 33.5237 36.3415 31.5293 36.3415" stroke="#333333" stroke-miterlimit="10" stroke-linecap="round" stroke-linejoin="round"/>
<path d="M30.3398 36.3203C32.3343 36.3203 33.9452 37.9622 33.9452 39.995C33.9452 42.0278 32.3343 43.6696 30.3398 43.6696" stroke="#333333" stroke-miterlimit="10" stroke-linecap="round" stroke-linejoin="round"/>
<path d="M27.9238 43.6504C29.9183 43.6504 31.5292 45.2923 31.5292 47.3251C31.5292 49.3578 29.9183 50.9997 27.9238 50.9997" stroke="#333333" stroke-miterlimit="10" stroke-linecap="round" stroke-linejoin="round"/>
<path d="M21.6933 4.67773C21.6933 16.3663 16.1895 21.6633 16.1895 21.6633H29.7094" stroke="#333333" stroke-miterlimit="10" stroke-linecap="round" stroke-linejoin="round"/>
<path d="M30.4 28.9922H22.0195" stroke="#333333" stroke-miterlimit="10" stroke-linecap="round" stroke-linejoin="round"/>
<path d="M31.5315 36.3203H22.0195" stroke="#333333" stroke-miterlimit="10" stroke-linecap="round" stroke-linejoin="round"/>
<path d="M30.3425 43.6504H22.0195" stroke="#333333" stroke-miterlimit="10" stroke-linecap="round" stroke-linejoin="round"/>
<path d="M27.9249 50.9828C17.2815 50.9828 9.61059 50.9828 1 45.373" stroke="#333333" stroke-miterlimit="10" stroke-linecap="round" stroke-linejoin="round"/>
<path d="M14.5008 4.67773C13.4652 16.0535 5.92856 18.2427 1 22.4646" stroke="#333333" stroke-miterlimit="10" stroke-linecap="round" stroke-linejoin="round"/>
</svg>
