<svg width="77" height="48" viewBox="0 0 77 48" fill="none" xmlns="http://www.w3.org/2000/svg">
<path d="M29.9512 19.6348V22.8045C29.9512 23.4289 30.2874 24.0148 30.8253 24.3318L31.8434 24.9273" stroke="#252630" stroke-miterlimit="10" stroke-linecap="round" stroke-linejoin="round"/>
<path d="M38.5097 34.4941L36.2812 33.3415L36.3677 31.3916" stroke="#252630" stroke-miterlimit="10" stroke-linecap="round" stroke-linejoin="round"/>
<path d="M36.3676 31.3916C34.9076 31.3916 32.7752 32.9381 34.2448 37.5967L37.6451 34.0427" stroke="#252630" stroke-miterlimit="10" stroke-linecap="round" stroke-linejoin="round"/>
<path d="M37.6444 34.042L35.1758 44.0988L38.5088 46.9996" stroke="#252630" stroke-miterlimit="10" stroke-linecap="round" stroke-linejoin="round"/>
<path d="M35.1773 44.1374H24.2656C24.2848 42.7638 24.5538 41.4767 24.9956 40.3145" stroke="#252630" stroke-miterlimit="10" stroke-linecap="round" stroke-linejoin="round"/>
<path d="M33.7544 33.4561C32.2848 33.5137 30.7383 34.0324 29.3359 34.9449" stroke="#252630" stroke-miterlimit="10" stroke-linecap="round" stroke-linejoin="round"/>
<path d="M40.6623 31.3916C42.1223 31.3916 44.2547 32.9381 42.7851 37.5967L39.3848 34.0427" stroke="#252630" stroke-miterlimit="10" stroke-linecap="round" stroke-linejoin="round"/>
<path d="M39.3742 34.042L41.8524 44.0988L38.5098 46.9996" stroke="#252630" stroke-miterlimit="10" stroke-linecap="round" stroke-linejoin="round"/>
<path d="M52.0256 40.3242C52.4674 41.4865 52.7268 42.7736 52.7556 44.1471H41.8535" stroke="#252630" stroke-miterlimit="10" stroke-linecap="round" stroke-linejoin="round"/>
<path d="M48.9022 35.8574C47.2116 34.3878 45.1945 33.5329 43.2734 33.4561" stroke="#252630" stroke-miterlimit="10" stroke-linecap="round" stroke-linejoin="round"/>
<path d="M45.1856 19.6348V25.7246C45.1856 26.6275 44.8206 27.4919 44.1675 28.1067L41.0073 31.1228C40.5943 31.5166 40.0372 31.7375 39.4705 31.7375H38.5195" stroke="#252630" stroke-miterlimit="10" stroke-linecap="round" stroke-linejoin="round"/>
<path d="M31.8457 19.6348V25.7246C31.8457 26.6275 32.2107 27.4919 32.8639 28.1067L36.024 31.1228C36.4371 31.5166 36.9942 31.7375 37.5609 31.7375H38.5118" stroke="#252630" stroke-miterlimit="10" stroke-linecap="round" stroke-linejoin="round"/>
<path d="M47.0778 19.6348V22.8045C47.0778 23.4289 46.7416 24.0148 46.2037 24.3318L45.1855 24.9273" stroke="#252630" stroke-miterlimit="10" stroke-linecap="round" stroke-linejoin="round"/>
<path d="M47.0679 15.3887V19.4998H37.4049C36.041 19.4998 34.9075 18.4048 34.9075 17.0409C34.9075 18.0686 34.2544 18.9523 33.3515 19.3269C33.0633 19.4326 32.7559 19.4998 32.4197 19.4998H29.9512V15.3887C29.9512 15.2927 29.9512 15.2062 29.9704 15.1102C30.1049 12.6512 32.1316 10.7109 34.629 10.7109H39.6334C40.9973 10.7109 42.1308 11.8156 42.1308 13.1699C42.1308 12.1517 42.3229 10.8934 43.6868 10.8934C45.9249 10.8934 46.9526 13.0931 47.0679 15.1102C47.0679 15.2062 47.0679 15.3023 47.0679 15.3887Z" stroke="#252630" stroke-miterlimit="10" stroke-linecap="round" stroke-linejoin="round"/>
<path d="M38.5098 34.4941L40.7382 33.3415L40.6614 31.3916" stroke="#252630" stroke-miterlimit="10" stroke-linecap="round" stroke-linejoin="round"/>
<path d="M54.8747 21.0938L53.8565 20.4983C53.3186 20.1813 52.9824 19.605 52.9824 18.971V17.1748H54.8747" stroke="#252630" stroke-miterlimit="10" stroke-linecap="round" stroke-linejoin="round"/>
<path d="M48.9004 35.8574C50.2259 37.0005 51.3498 38.5085 52.0317 40.3239" stroke="#252630" stroke-miterlimit="10" stroke-linecap="round" stroke-linejoin="round"/>
<path d="M59.3126 30.9307C59.1589 30.9403 58.9956 30.9403 58.8419 30.9691C57.3723 31.0843 55.6241 31.4974 53.9336 32.2082C52.0029 33.015 50.1491 34.2253 48.9004 35.8582" stroke="#252630" stroke-miterlimit="10" stroke-linecap="round" stroke-linejoin="round"/>
<path d="M52.0234 40.3247H58.2093H64.8754H75.7871C75.7198 36.3097 72.5693 33.649 69.1594 32.2082C67.4688 31.4878 65.7111 31.0843 64.251 30.9691C64.0877 30.9499 63.9341 30.9403 63.7804 30.9307" stroke="#252630" stroke-miterlimit="10" stroke-linecap="round" stroke-linejoin="round"/>
<path d="M68.2167 15.8115V21.9013C68.2167 22.8042 67.8517 23.6687 67.1986 24.2834L64.0384 27.2995C63.6254 27.6933 63.0683 27.9143 62.5016 27.9143H61.541" stroke="#252630" stroke-miterlimit="10" stroke-linecap="round" stroke-linejoin="round"/>
<path d="M68.2188 21.0938L69.2369 20.4983C69.7748 20.1813 70.111 19.605 70.111 18.971V17.1748H68.2188" stroke="#252630" stroke-miterlimit="10" stroke-linecap="round" stroke-linejoin="round"/>
<path d="M63.6946 27.5781L63.7811 30.9688C62.3787 31.6892 60.7266 31.6892 59.3242 30.9688L59.4107 27.5781" stroke="#252630" stroke-miterlimit="10" stroke-linecap="round" stroke-linejoin="round"/>
<path d="M6.67773 15.2832V18.453C6.67773 19.0773 7.01392 19.6632 7.55182 19.9802L8.56999 20.5757" stroke="#252630" stroke-miterlimit="10" stroke-linecap="round" stroke-linejoin="round"/>
<path d="M8.30967 40.3247H1C1 38.711 1 37.3855 1.05763 36.2904C1.1825 33.2456 1.69158 32.0353 3.60305 31.3149C3.99687 31.1708 4.44832 31.0459 4.98622 30.9307L8.30967 40.3247Z" stroke="#252630" stroke-miterlimit="10" stroke-linecap="round" stroke-linejoin="round"/>
<path d="M15.234 40.3242H8.30859" stroke="#252630" stroke-miterlimit="10" stroke-linecap="round" stroke-linejoin="round"/>
<path d="M4.96875 30.9306C5.81402 30.7385 6.8514 30.5656 8.1193 30.3831C9.26234 30.2102 10.5879 30.0181 12.1247 29.7588" stroke="#252630" stroke-miterlimit="10" stroke-linecap="round" stroke-linejoin="round"/>
<path d="M21.9103 15.2832V21.373C21.9103 22.2759 21.5452 23.1404 20.8921 23.7551L17.7319 26.7712C17.3189 27.165 16.7618 27.3859 16.1951 27.3859H15.2441" stroke="#252630" stroke-miterlimit="10" stroke-linecap="round" stroke-linejoin="round"/>
<path d="M8.57031 15.2832V21.373C8.57031 22.2759 8.93532 23.1404 9.58848 23.7551L12.7486 26.7712C13.1617 27.165 13.7188 27.3859 14.2855 27.3859H15.2364" stroke="#252630" stroke-miterlimit="10" stroke-linecap="round" stroke-linejoin="round"/>
<path d="M23.7926 15.2832V18.453C23.7926 19.0773 23.4565 19.6632 22.9186 19.9802L21.9004 20.5757" stroke="#252630" stroke-miterlimit="10" stroke-linecap="round" stroke-linejoin="round"/>
<path d="M12.1133 26.166V29.7584C12.1133 30.3828 12.4303 30.9591 12.9586 31.2953L15.235 32.7169" stroke="#252630" stroke-miterlimit="10" stroke-linecap="round" stroke-linejoin="round"/>
<path d="M8.11719 30.3828L10.7875 37.4139H15.2347" stroke="#252630" stroke-miterlimit="10" stroke-linecap="round" stroke-linejoin="round"/>
<path d="M24.9941 40.3235C25.8778 37.9894 27.4915 36.1356 29.3358 34.9541" stroke="#252630" stroke-miterlimit="10" stroke-linecap="round" stroke-linejoin="round"/>
<path d="M15.2441 40.3242H22.1696H24.9936" stroke="#252630" stroke-miterlimit="10" stroke-linecap="round" stroke-linejoin="round"/>
<path d="M29.3363 34.9457C29.0386 32.3426 28.1645 31.5262 25.5038 30.9306C24.6585 30.7385 23.6212 30.5752 22.3629 30.3831C21.2198 30.2102 19.8943 30.0085 18.3574 29.7588" stroke="#252630" stroke-miterlimit="10" stroke-linecap="round" stroke-linejoin="round"/>
<path d="M18.3659 26.166V29.7584C18.3659 30.3828 18.0489 30.9591 17.5206 31.2953L15.2441 32.7169" stroke="#252630" stroke-miterlimit="10" stroke-linecap="round" stroke-linejoin="round"/>
<path d="M22.3635 30.3828L19.6932 37.4139H15.2363" stroke="#252630" stroke-miterlimit="10" stroke-linecap="round" stroke-linejoin="round"/>
<path d="M22.1699 40.3247L25.503 30.9307" stroke="#252630" stroke-miterlimit="10" stroke-linecap="round" stroke-linejoin="round"/>
<path d="M23.7943 11.9893V15.159H14.1313C12.7674 15.159 11.6339 14.064 11.6339 12.7001C11.6339 13.7278 10.9712 14.6115 10.0683 14.9765C9.7801 15.0822 9.46312 15.159 9.14615 15.159H6.66797V11.9893H23.7943V11.9893Z" stroke="#252630" stroke-miterlimit="10" stroke-linecap="round" stroke-linejoin="round"/>
<path d="M25.3407 11.9885H5.14062L6.68709 10.4517C6.68709 6.59031 9.24211 3.3341 12.7481 2.27751V1.34579C13.5453 1.12487 14.381 1 15.2454 1C16.1099 1 16.9456 1.12487 17.7428 1.34579V2.27751C21.2488 3.3437 23.8038 6.59992 23.8038 10.4517L25.3407 11.9885Z" stroke="#252630" stroke-miterlimit="10" stroke-linecap="round" stroke-linejoin="round"/>
<path d="M53.9336 32.1976C54.0585 33.7152 56.5078 35.1945 59.3222 35.6267L61.5506 31.5156" stroke="#252630" stroke-miterlimit="10" stroke-linecap="round" stroke-linejoin="round"/>
<path d="M69.1581 32.1976C69.0332 33.7152 66.5838 35.1945 63.7695 35.6267L61.541 31.5156" stroke="#252630" stroke-miterlimit="10" stroke-linecap="round" stroke-linejoin="round"/>
<path d="M54.877 18.4527C54.877 16.6373 64.5399 18.0396 64.5399 13.9189C64.5399 16.0898 68.2188 16.7141 68.2188 19.2019" stroke="#252630" stroke-miterlimit="10" stroke-linecap="round" stroke-linejoin="round"/>
<path d="M64.5391 7.87793C64.5391 10.0487 68.2179 10.6731 68.2179 13.1609" stroke="#252630" stroke-miterlimit="10" stroke-linecap="round" stroke-linejoin="round"/>
<path d="M64.5399 7.87793V10.9324C64.5399 15.0435 54.877 13.6507 54.877 15.4662V17.9251V21.9017C54.877 22.8046 55.242 23.6691 55.8951 24.2839L59.0553 27.2999C59.4683 27.6938 60.0254 27.9147 60.5921 27.9147H61.5431" stroke="#252630" stroke-miterlimit="10" stroke-linecap="round" stroke-linejoin="round"/>
<path d="M61.5432 7.4834C55.732 7.4834 51.0254 10.8549 51.0254 16.5701C51.0254 22.2852 54.4449 22.3141 54.4449 25.3397C54.4449 28.3654 51.8803 28.9898 51.8803 28.9898C53.6669 29.7678 54.8579 30.9781 59.3148 30.9781" stroke="#252630" stroke-miterlimit="10" stroke-linecap="round" stroke-linejoin="round"/>
<path d="M61.541 7.4834C67.3522 7.4834 72.0589 10.8549 72.0589 16.5701C72.0589 22.2852 68.6394 22.3141 68.6394 25.3397C68.6394 28.3654 71.204 28.9898 71.204 28.9898C69.4174 29.7678 68.2263 30.9781 63.7695 30.9781" stroke="#252630" stroke-miterlimit="10" stroke-linecap="round" stroke-linejoin="round"/>
<path d="M12.7383 2.27734V11.9883" stroke="#252630" stroke-miterlimit="10" stroke-linecap="round" stroke-linejoin="round"/>
<path d="M17.7324 2.27734V11.9883" stroke="#252630" stroke-miterlimit="10" stroke-linecap="round" stroke-linejoin="round"/>
</svg>
