<svg width="56" height="52" viewBox="0 0 56 52" fill="none" xmlns="http://www.w3.org/2000/svg">
<path d="M34.7778 15.3402C35.6128 11.0634 37.0287 8.24609 38.6334 8.24609C41.1966 8.24609 43.2805 15.4491 43.2805 24.3295C43.2805 33.2098 41.1966 40.4128 38.6334 40.4128C36.0703 40.4128 33.9863 33.2098 33.9863 24.3295C33.9863 21.7445 34.1606 19.2975 34.4801 17.1337" stroke="#252630" stroke-miterlimit="10" stroke-linecap="round" stroke-linejoin="round"/>
<path d="M52.5627 32.3793C53.846 30.1567 48.6504 24.7545 40.9581 20.3132C33.2658 15.8719 25.9896 14.0733 24.7064 16.2959C23.4231 18.5185 28.6187 23.9207 36.311 28.362C44.0033 32.8033 51.2795 34.6019 52.5627 32.3793Z" stroke="#252630" stroke-miterlimit="10" stroke-linecap="round" stroke-linejoin="round"/>
<path d="M42.7884 17.1338C47.7332 15.1588 51.6542 14.7159 52.5618 16.2915C53.847 18.5134 48.6481 23.9157 40.9513 28.3595C38.105 30.0005 35.3239 31.2784 32.877 32.1353" stroke="#252630" stroke-miterlimit="10" stroke-linecap="round" stroke-linejoin="round"/>
<path d="M27.5684 26.7413C29.6668 24.6719 32.7165 22.3846 36.3107 20.308C38.1042 19.2696 39.8759 18.3838 41.546 17.6504" stroke="#252630" stroke-miterlimit="10" stroke-linecap="round" stroke-linejoin="round"/>
<path d="M30.4148 14.6073V1H11.1075L1 11.1075V37.3564H8.30468" stroke="#252630" stroke-miterlimit="10" stroke-linecap="round" stroke-linejoin="round"/>
<path d="M14.5566 4.44141H26.9659" stroke="#252630" stroke-miterlimit="10" stroke-linecap="round" stroke-linejoin="round"/>
<path d="M14.5566 11.1074H26.9659" stroke="#252630" stroke-miterlimit="10" stroke-linecap="round" stroke-linejoin="round"/>
<path d="M14.5566 7.77539H26.9659" stroke="#252630" stroke-miterlimit="10" stroke-linecap="round" stroke-linejoin="round"/>
<path d="M4.44141 17.7734H21.9842" stroke="#252630" stroke-miterlimit="10" stroke-linecap="round" stroke-linejoin="round"/>
<path d="M4.44141 14.4395H21.9842" stroke="#252630" stroke-miterlimit="10" stroke-linecap="round" stroke-linejoin="round"/>
<path d="M11.1075 11.1075V1L1 11.1075H11.1075Z" stroke="#252630" stroke-miterlimit="10" stroke-linecap="round" stroke-linejoin="round"/>
<path d="M31.2585 31.1201V39.877C30.0095 39.877 29.0075 40.8863 29.0075 42.1279C29.0075 42.5418 29.1164 42.9194 29.3197 43.2534L21.7246 47.6246C21.3398 46.9566 20.6137 46.4991 19.7786 46.4991C18.9436 46.4991 18.2175 46.9566 17.8327 47.6246L10.2448 43.2462C10.4409 42.9121 10.5498 42.5346 10.5498 42.1207C10.5498 40.879 9.54048 39.8697 8.29883 39.8697V31.1201C9.54048 31.1201 10.5498 30.1108 10.5498 28.8692C10.5498 28.4553 10.4409 28.0777 10.2448 27.7437L17.8327 23.3652C18.2175 24.0333 18.9436 24.4907 19.7786 24.4907C20.6137 24.4907 21.3398 24.0333 21.7246 23.3652L29.3125 27.7437C29.1092 28.0777 29.0002 28.4553 29.0002 28.8692C29.0075 30.1108 30.0095 31.1201 31.2585 31.1201Z" stroke="#252630" stroke-miterlimit="10" stroke-linecap="round" stroke-linejoin="round"/>
<path d="M21.7227 34.37L24.8667 32.5547" stroke="#252630" stroke-linecap="round" stroke-linejoin="round"/>
<path d="M26.166 31.8075L29.3101 29.9922" stroke="#252630" stroke-linecap="round" stroke-linejoin="round"/>
<path d="M10.25 29.9941L13.3941 31.8094" stroke="#252630" stroke-linecap="round" stroke-linejoin="round"/>
<path d="M14.6875 32.5566L17.8316 34.3719" stroke="#252630" stroke-linecap="round" stroke-linejoin="round"/>
<path d="M10.5488 28.8681C10.5488 30.1098 9.53947 31.1191 8.29782 31.1191C7.05617 31.1191 6.04688 30.1098 6.04688 28.8681C6.04688 27.6265 7.05617 26.6172 8.29782 26.6172C9.12559 26.6172 9.85896 27.0674 10.2438 27.7427C10.4398 28.0767 10.5488 28.4615 10.5488 28.8681Z" stroke="#252630" stroke-miterlimit="10" stroke-linecap="round" stroke-linejoin="round"/>
<path d="M10.5488 42.1201C10.5488 42.534 10.4398 42.9115 10.2438 43.2456C9.85896 43.9208 9.12559 44.371 8.29782 44.371C7.05617 44.371 6.04688 43.3617 6.04688 42.1201C6.04688 40.8784 7.05617 39.8691 8.29782 39.8691C9.53947 39.8691 10.5488 40.8784 10.5488 42.1201Z" stroke="#252630" stroke-miterlimit="10" stroke-linecap="round" stroke-linejoin="round"/>
<path d="M33.5077 28.8681C33.5077 30.1098 32.4985 31.1191 31.2568 31.1191C30.0079 31.1191 29.0059 30.1098 29.0059 28.8681C29.0059 28.4542 29.1148 28.0767 29.3181 27.7427C29.6957 27.0674 30.429 26.6172 31.2641 26.6172C32.4985 26.6244 33.5077 27.6337 33.5077 28.8681Z" stroke="#252630" stroke-miterlimit="10" stroke-linecap="round" stroke-linejoin="round"/>
<path d="M33.5092 42.1201C33.5092 43.3617 32.4999 44.371 31.2582 44.371C30.4232 44.371 29.6898 43.9208 29.3122 43.2456C29.1089 42.9115 29 42.534 29 42.1201C29 40.8784 30.0093 39.8691 31.2509 39.8691C32.4999 39.8764 33.5092 40.8784 33.5092 42.1201Z" stroke="#252630" stroke-miterlimit="10" stroke-linecap="round" stroke-linejoin="round"/>
<path d="M22.0273 22.247C22.0273 22.6537 21.9184 23.0385 21.7223 23.3725C21.3375 24.0405 20.6114 24.498 19.7763 24.498C18.9413 24.498 18.2152 24.0405 17.8304 23.3725C17.6343 23.0385 17.5254 22.6537 17.5254 22.247C17.5254 21.0054 18.5347 19.9961 19.7763 19.9961C21.018 20.0034 22.0273 21.0054 22.0273 22.247Z" stroke="#252630" stroke-miterlimit="10" stroke-linecap="round" stroke-linejoin="round"/>
<path d="M19.7763 37.748C21.0195 37.748 22.0273 36.7402 22.0273 35.497C22.0273 34.2539 21.0195 33.2461 19.7763 33.2461C18.5332 33.2461 17.5254 34.2539 17.5254 35.497C17.5254 36.7402 18.5332 37.748 19.7763 37.748Z" stroke="#252630" stroke-miterlimit="10" stroke-linecap="round" stroke-linejoin="round"/>
<path d="M22.0273 48.749C22.0273 49.9979 21.018 50.9999 19.7763 50.9999C18.5347 50.9999 17.5254 49.9906 17.5254 48.749C17.5254 48.3424 17.6343 47.9575 17.8304 47.6235C18.2152 46.9555 18.9413 46.498 19.7763 46.498C20.6114 46.498 21.3375 46.9555 21.7223 47.6235C21.9184 47.9575 22.0273 48.3424 22.0273 48.749Z" stroke="#252630" stroke-miterlimit="10" stroke-linecap="round" stroke-linejoin="round"/>
<path d="M19.7754 37.748V41.3786" stroke="#252630" stroke-linecap="round" stroke-linejoin="round"/>
<path d="M19.7754 42.8672V46.4977" stroke="#252630" stroke-linecap="round" stroke-linejoin="round"/>
</svg>
