<svg width="55" height="40" viewBox="0 0 55 40" fill="none" xmlns="http://www.w3.org/2000/svg">
<path d="M30.7092 28.392C30.1594 28.1066 29.6722 27.8491 29.2547 27.5638C28.5379 27.0906 28.0229 26.5269 27.7584 25.6082L27.6401 25.1976L20.7782 1C19.2263 3.7211 18.927 7.01287 19.964 10.0263C21.5785 14.696 24.07 21.9337 26.0325 27.5708C26.1995 28.0579 26.3666 28.5311 26.5266 28.9905C26.9372 30.1527 27.313 31.2244 27.6471 32.1639C28.1482 33.5906 28.5448 34.7041 28.7815 35.3374C30.3612 39.6104 33.8131 39.854 35.4972 38.3229C38.6011 35.4974 35.358 30.8277 30.7092 28.392ZM34.1819 37.0563C33.0545 37.8636 31.3355 36.9102 30.4447 34.7041C29.0737 31.3079 30.055 31.0296 30.5561 30.8834C31.5165 30.605 34.2654 33.1452 34.7178 34.7667C34.9683 35.6575 34.9196 36.5274 34.1819 37.0563Z" stroke="#252630" stroke-miterlimit="10" stroke-linecap="round" stroke-linejoin="round"/>
<path d="M34.1826 37.0563C33.0552 37.8636 31.3363 36.9102 30.4455 34.7041C29.0745 31.3079 30.0558 31.0295 30.5568 30.8834C31.5172 30.605 34.2662 33.1452 34.7185 34.7667C34.9691 35.6575 34.9203 36.5274 34.1826 37.0563Z" stroke="#252630" stroke-miterlimit="10" stroke-linecap="round" stroke-linejoin="round"/>
<path d="M34.1826 37.0563C33.0552 37.8636 31.3363 36.9102 30.4455 34.7041C29.0745 31.3079 30.0558 31.0295 30.5568 30.8834C31.5172 30.605 34.2662 33.1452 34.7185 34.7667C34.9691 35.6575 34.9203 36.5274 34.1826 37.0563Z" stroke="#252630" stroke-miterlimit="10" stroke-linecap="round" stroke-linejoin="round"/>
<path d="M26.5274 28.99C26.938 30.1522 27.3138 31.224 27.6479 32.1635C27.1398 33.5901 26.7432 34.7036 26.5065 35.3369C24.9198 39.61 21.468 39.8535 19.7838 38.3225C16.6869 35.497 19.93 30.8342 24.5718 28.3915C25.1286 28.1062 25.6157 27.8487 26.0333 27.5703C26.2003 28.0575 26.3674 28.5307 26.5274 28.99Z" stroke="#252630" stroke-miterlimit="10" stroke-linecap="round" stroke-linejoin="round"/>
<path d="M35.3168 10.0263C33.7092 14.696 31.2177 21.9267 29.2552 27.5638C28.5384 27.0906 28.0234 26.5269 27.7589 25.6082L27.6406 25.1976L34.5025 1C36.0545 3.7211 36.3537 7.01287 35.3168 10.0263Z" stroke="#252630" stroke-miterlimit="10" stroke-linecap="round" stroke-linejoin="round"/>
<path d="M24.8353 34.7041C26.2063 31.301 25.218 31.0226 24.7239 30.8834C23.7566 30.605 21.0146 33.1452 20.5622 34.7737C20.3117 35.6575 20.3604 36.5274 21.0981 37.0563C22.2255 37.8636 23.9445 36.9032 24.8353 34.7041Z" stroke="#252630" stroke-miterlimit="10" stroke-linecap="round" stroke-linejoin="round"/>
<path d="M20.6743 12.0859H9.19141V18.0779H22.7482" stroke="#252630" stroke-miterlimit="10" stroke-linecap="round" stroke-linejoin="round"/>
<path d="M16.4637 8.29395H6.74145H1L5.22432 11.2865L1.98823 14.2859H7.77144H9.19114" stroke="#252630" stroke-miterlimit="10" stroke-linecap="round" stroke-linejoin="round"/>
<path d="M9.19141 12.0868L16.4639 8.29395V12.0868" stroke="#252630" stroke-miterlimit="10" stroke-linecap="round" stroke-linejoin="round"/>
<path d="M34.6071 12.0859H46.09V18.0779H32.5332" stroke="#252630" stroke-miterlimit="10" stroke-linecap="round" stroke-linejoin="round"/>
<path d="M38.8164 8.29395H48.5386H54.2801L50.0557 11.2865L53.2918 14.2859H47.5086H46.0889" stroke="#252630" stroke-miterlimit="10" stroke-linecap="round" stroke-linejoin="round"/>
<path d="M46.0889 12.0868L38.8164 8.29395V12.0868" stroke="#252630" stroke-miterlimit="10" stroke-linecap="round" stroke-linejoin="round"/>
<path d="M23.9238 12.0859H31.3564" stroke="#252630" stroke-miterlimit="10" stroke-linecap="round" stroke-linejoin="round"/>
<path d="M25.623 18.0781H29.6595" stroke="#252630" stroke-miterlimit="10" stroke-linecap="round" stroke-linejoin="round"/>
<path d="M17.528 21.7314H13.6934" stroke="#252630" stroke-miterlimit="10" stroke-linecap="round" stroke-linejoin="round"/>
<path d="M17.9876 24.7588L14.334 25.9071" stroke="#252630" stroke-miterlimit="10" stroke-linecap="round" stroke-linejoin="round"/>
<path d="M19.3379 27.5146L16.1992 29.6999" stroke="#252630" stroke-miterlimit="10" stroke-linecap="round" stroke-linejoin="round"/>
<path d="M37.752 21.7314H41.5866" stroke="#252630" stroke-miterlimit="10" stroke-linecap="round" stroke-linejoin="round"/>
<path d="M37.293 24.7588L40.9466 25.9071" stroke="#252630" stroke-miterlimit="10" stroke-linecap="round" stroke-linejoin="round"/>
<path d="M35.9434 27.5146L39.082 29.6999" stroke="#252630" stroke-miterlimit="10" stroke-linecap="round" stroke-linejoin="round"/>
</svg>
