<svg width="88" height="58" viewBox="0 0 88 58" fill="none" xmlns="http://www.w3.org/2000/svg">
<path d="M34.3305 16.1619C35.5801 17.6167 34.9926 19.8082 33.5471 20.8806C31.4676 22.4286 28.5207 21.58 27.1219 19.5377C25.2475 16.7867 26.3759 13.0286 29.0803 11.3127C30.2086 10.5947 31.4582 10.2496 32.7172 10.2496C35.2723 10.2496 37.7902 11.6298 39.189 13.9052C39.5341 14.474 39.8045 15.2854 39.991 16.1713H34.3305V16.1619Z" stroke="#252630" stroke-miterlimit="10" stroke-linecap="round" stroke-linejoin="round"/>
<path d="M84.3531 56.0758C83.2247 56.7938 81.9751 57.1389 80.7162 57.1389H48.0586C49.3082 57.1389 50.5578 56.8032 51.6955 56.0758C54.3999 54.3412 55.5376 50.5924 53.6538 47.8321C52.7866 46.5545 51.3038 45.7432 49.8024 45.6873H82.4694C83.9614 45.7339 85.4442 46.5545 86.3208 47.8321C88.1952 50.5924 87.0482 54.3506 84.3531 56.0758Z" stroke="#252630" stroke-miterlimit="10" stroke-linecap="round" stroke-linejoin="round"/>
<path d="M73.0497 45.6968H49.8014C51.3028 45.7434 52.7855 46.5641 53.6528 47.8417C55.5272 50.5927 54.3988 54.3508 51.6945 56.0853C50.5661 56.8034 49.3165 57.1484 48.0575 57.1484C45.5024 57.1484 42.9845 55.7496 41.5857 53.4742C40.7184 52.0754 40.3454 49.1192 40.3921 47.5899L40.3827 21.6839V19.7815C40.4107 18.8676 40.2708 17.4501 40.0004 16.1632C39.8046 15.2866 39.5434 14.466 39.1984 13.8971C37.7996 11.6217 35.2724 10.2416 32.7266 10.2416H65.3842C67.9487 10.2416 70.4758 11.6217 71.8653 13.8971C72.7233 15.296 73.0963 18.2521 73.059 19.7815V45.6968H73.0497Z" stroke="#252630" stroke-miterlimit="10" stroke-linecap="round" stroke-linejoin="round"/>
<path d="M31.1484 21.6652H40.3806" stroke="#252630" stroke-miterlimit="10" stroke-linecap="round" stroke-linejoin="round"/>
<path d="M45.6523 21.6835H67.7816" stroke="#252630" stroke-miterlimit="10" stroke-linecap="round" stroke-linejoin="round"/>
<path d="M45.6523 16.9843H67.7816" stroke="#252630" stroke-miterlimit="10" stroke-linecap="round" stroke-linejoin="round"/>
<path d="M45.6523 31.0835H67.7816" stroke="#252630" stroke-miterlimit="10" stroke-linecap="round" stroke-linejoin="round"/>
<path d="M45.6523 40.4927H67.7816" stroke="#252630" stroke-miterlimit="10" stroke-linecap="round" stroke-linejoin="round"/>
<path d="M45.6523 35.7936H67.7816" stroke="#252630" stroke-miterlimit="10" stroke-linecap="round" stroke-linejoin="round"/>
<path d="M45.6523 26.3844H67.7816" stroke="#252630" stroke-miterlimit="10" stroke-linecap="round" stroke-linejoin="round"/>
<path d="M40.3812 24.0151L29.6104 29.3493L25.4046 27.2604L14.9135 22.0568L12.2278 20.7326L9.55141 19.4084L1 15.1746L29.6104 1L48.2612 10.2415" stroke="#252630" stroke-miterlimit="10" stroke-linecap="round" stroke-linejoin="round"/>
<path d="M14.9153 22.057V34.0868C11.5954 32.0632 9.5625 29.3588 9.5625 26.384V19.4086L12.2296 20.7328L14.9153 22.057Z" stroke="#252630" stroke-miterlimit="10" stroke-linecap="round" stroke-linejoin="round"/>
<path d="M40.3805 35.9423C37.2658 37.0613 33.5729 37.7141 29.6096 37.7141C28.1642 37.7141 26.756 37.6302 25.3945 37.4623V27.2603L29.6096 29.3399L40.3805 24.0057" stroke="#252630" stroke-miterlimit="10" stroke-linecap="round" stroke-linejoin="round"/>
<path d="M25.4052 27.2605V46.5268L19.9871 39.3089L14.9141 41.4351V22.0569L25.4052 27.2605Z" stroke="#252630" stroke-miterlimit="10" stroke-linecap="round" stroke-linejoin="round"/>
</svg>
