<svg width="52" height="52" viewBox="0 0 52 52" fill="none" xmlns="http://www.w3.org/2000/svg">
<path d="M31.8906 5.30811C31.8906 6.43059 30.8605 7.27246 29.5728 7.27246C28.285 7.27246 27.2549 6.43059 27.2549 5.30811C27.2549 4.18562 28.285 3.34375 29.5728 3.34375C30.8605 3.34375 31.8906 4.18562 31.8906 5.30811Z" stroke="white" stroke-miterlimit="10" stroke-linecap="round" stroke-linejoin="round"/>
<path d="M26.8585 36.3334H10.3901C10.056 36.3334 9.78418 35.9385 9.78418 35.4531V39.2377C9.78418 39.7231 10.056 40.118 10.3901 40.118H26.8585C27.1926 40.118 27.4645 39.7231 27.4645 39.2377V35.4531C27.4645 35.9385 27.1926 36.3334 26.8585 36.3334Z" stroke="white" stroke-miterlimit="10" stroke-linecap="round" stroke-linejoin="round"/>
<path d="M27.4645 24.3214V35.4694C27.4645 35.9548 27.1926 36.3415 26.8642 36.3415H10.3958C10.0617 36.3415 9.78418 35.9466 9.78418 35.4694V24.3214C9.78418 23.9101 9.97673 23.5728 10.2429 23.4823C10.2882 23.4576 10.3448 23.4493 10.3958 23.4493H26.8642C27.1983 23.4411 27.4645 23.836 27.4645 24.3214Z" stroke="white" stroke-miterlimit="10" stroke-linecap="round" stroke-linejoin="round"/>
<path d="M11.4434 25.3008H26.2411V32.7382" stroke="white" stroke-miterlimit="10" stroke-linecap="round" stroke-linejoin="round"/>
<path d="M15.4938 40.1367C17.2607 40.1367 18.0535 44.4643 14.4688 44.4643" stroke="white" stroke-miterlimit="10" stroke-linecap="round" stroke-linejoin="round"/>
<path d="M21.9182 40.1367C20.1513 40.1367 19.3584 44.4643 22.9432 44.4643" stroke="white" stroke-miterlimit="10" stroke-linecap="round" stroke-linejoin="round"/>
<path d="M36.0929 44.5312H1.29297V46.8267H36.0929V44.5312Z" stroke="white" stroke-miterlimit="10" stroke-linecap="round" stroke-linejoin="round"/>
<path d="M7.56332 33.3047C7.37644 33.3047 3.0498 33.3047 3.0498 33.3047C3.0498 33.3047 3.79167 41.2111 5.70015 44.4609" stroke="white" stroke-miterlimit="10" stroke-linecap="round" stroke-linejoin="round"/>
<path d="M10.9283 40.1367C10.5375 41.7822 10.0278 43.3865 9.39355 44.4643" stroke="white" stroke-miterlimit="10" stroke-linecap="round" stroke-linejoin="round"/>
<path d="M7.53906 33.3047C7.62967 33.3047 8.72832 33.3047 9.8213 33.3047" stroke="white" stroke-miterlimit="10" stroke-linecap="round" stroke-linejoin="round"/>
<path d="M17.0068 38.2852H20.3424" stroke="white" stroke-miterlimit="10" stroke-linecap="round" stroke-linejoin="round"/>
<path d="M7.34545 31.2942C7.35677 32.01 7.43606 32.6846 7.5833 33.3181C6.99433 32.1252 6.60924 30.4797 6.38838 28.5875C6.23547 27.2382 6.16751 25.7655 6.17318 24.2434V24.227C6.1845 22.5898 6.28644 20.9032 6.462 19.2742V19.2577C6.69985 16.9705 7.09061 14.7574 7.57763 12.9062C8.04767 14.6833 8.4271 16.7813 8.66496 18.978C8.14395 21.3804 7.73054 23.8485 7.50401 26.1604C7.50401 26.1686 7.49835 26.1686 7.50401 26.1769C7.42473 26.9667 7.3681 27.7565 7.33412 28.497V28.5134C7.32846 28.5134 7.32846 28.5134 7.33412 28.5216V28.5299C7.28881 29.4513 7.28315 30.3152 7.32846 31.1215L7.33412 31.1297C7.32846 31.1544 7.33412 31.1873 7.33412 31.212C7.33412 31.2366 7.33412 31.2695 7.34545 31.2942Z" stroke="white" stroke-miterlimit="10" stroke-linecap="round" stroke-linejoin="round"/>
<path d="M7.26043 31.2013C7.2491 31.2178 7.2491 31.2342 7.2491 31.2425C7.2491 31.2178 7.24343 31.1849 7.2491 31.1602C7.2491 31.1684 7.2491 31.1931 7.26043 31.2013Z" stroke="white" stroke-miterlimit="10" stroke-linecap="round" stroke-linejoin="round"/>
<path d="M7.58209 33.3794C7.42919 32.7377 7.35556 32.063 7.34424 31.3555C7.37822 32.0959 7.46316 32.7788 7.58209 33.3794Z" stroke="white" stroke-miterlimit="10" stroke-linecap="round" stroke-linejoin="round"/>
<path d="M7.54991 33.3739C6.81937 31.9752 6.17943 29.869 5.6471 27.4008C5.18272 25.2288 4.79763 22.7853 4.51447 20.2925C4.08974 16.582 3.8802 12.781 3.93683 9.6875C4.85992 12.3696 5.74337 15.8004 6.42861 19.3134V19.3299C6.25305 20.9671 6.15112 22.6537 6.13979 24.2827V24.2992C6.13413 25.8212 6.20209 27.2939 6.35499 28.6432C6.57585 30.5354 6.95528 32.1809 7.54991 33.3739Z" stroke="white" stroke-miterlimit="10" stroke-linecap="round" stroke-linejoin="round"/>
<path d="M7.26043 31.2013C7.2491 31.2178 7.2491 31.2342 7.2491 31.2425C7.2491 31.2178 7.24343 31.1849 7.2491 31.1602C7.2491 31.1684 7.2491 31.1931 7.26043 31.2013Z" stroke="white" stroke-miterlimit="10" stroke-linecap="round" stroke-linejoin="round"/>
<path d="M7.58209 33.3794C7.42919 32.7377 7.35556 32.063 7.34424 31.3555C7.37822 32.0959 7.46316 32.7788 7.58209 33.3794Z" stroke="white" stroke-miterlimit="10" stroke-linecap="round" stroke-linejoin="round"/>
<path d="M7.54583 33.3221C5.75628 31.9235 4.19892 28.3364 3.1569 24.3133C2.38672 21.3843 1.89402 18.2333 1.78076 15.543C2.72084 16.8182 3.66658 18.4472 4.51039 20.2325C4.79355 22.7254 5.17864 25.1689 5.64302 27.3409C6.17535 29.8173 6.81528 31.9317 7.54583 33.3221Z" stroke="white" stroke-miterlimit="10" stroke-linecap="round" stroke-linejoin="round"/>
<path d="M7.26043 31.2013C7.2491 31.2178 7.2491 31.2342 7.2491 31.2425C7.2491 31.2178 7.24343 31.1849 7.2491 31.1602C7.2491 31.1684 7.2491 31.1931 7.26043 31.2013Z" stroke="white" stroke-miterlimit="10" stroke-linecap="round" stroke-linejoin="round"/>
<path d="M7.58209 33.3794C7.42919 32.7377 7.35556 32.063 7.34424 31.3555C7.37822 32.0959 7.46316 32.7788 7.58209 33.3794Z" stroke="white" stroke-miterlimit="10" stroke-linecap="round" stroke-linejoin="round"/>
<path d="M7.54658 33.3541C4.6867 33.0826 1.81549 27.4634 1 22.7656C1.71355 23.1523 2.4441 23.6953 3.15199 24.3535C4.19967 28.3766 5.75703 31.9637 7.54658 33.3541Z" stroke="white" stroke-miterlimit="10" stroke-linecap="round" stroke-linejoin="round"/>
<path d="M7.26043 31.2013C7.2491 31.2178 7.2491 31.2342 7.2491 31.2425C7.2491 31.2178 7.24343 31.1849 7.2491 31.1602C7.2491 31.1684 7.2491 31.1931 7.26043 31.2013Z" stroke="white" stroke-miterlimit="10" stroke-linecap="round" stroke-linejoin="round"/>
<path d="M7.58209 33.3794C7.42919 32.7377 7.35556 32.063 7.34424 31.3555C7.37822 32.0959 7.46316 32.7788 7.58209 33.3794Z" stroke="white" stroke-miterlimit="10" stroke-linecap="round" stroke-linejoin="round"/>
<path d="M10.6927 19.8518C10.5795 21.0777 10.4379 22.2953 10.268 23.4965C10.0018 23.587 9.80928 23.9243 9.80928 24.3357V26.2444C9.2373 29.2062 8.47278 31.7731 7.53837 33.3281C7.41944 32.7275 7.34016 32.0446 7.30051 31.3042C7.28353 31.2713 7.28352 31.2384 7.28352 31.2137C7.28352 31.2054 7.28352 31.189 7.28919 31.1643C7.28352 31.1643 7.28352 31.1396 7.28352 31.1314L7.27786 31.1232C7.23256 30.3169 7.23822 29.453 7.28352 28.5316V28.5234C7.28352 28.5234 7.28352 28.5234 7.28352 28.5151V28.4987C7.3175 27.7582 7.37413 26.9766 7.45342 26.1786C7.44776 26.1704 7.45342 26.1704 7.45342 26.1621C7.67994 23.8503 8.09335 21.3821 8.61436 18.9797C9.25996 15.9932 10.0868 13.1301 10.9532 10.8594C11.0778 13.5003 10.9872 16.6925 10.6927 19.8518Z" stroke="white" stroke-miterlimit="10" stroke-linecap="round" stroke-linejoin="round"/>
<path d="M7.26043 31.2013C7.2491 31.2178 7.2491 31.2342 7.2491 31.2425C7.2491 31.2178 7.24343 31.1849 7.2491 31.1602C7.2491 31.1684 7.2491 31.1931 7.26043 31.2013Z" stroke="white" stroke-miterlimit="10" stroke-linecap="round" stroke-linejoin="round"/>
<path d="M12.8997 16.8125C12.9506 18.894 12.7468 21.2223 12.322 23.4766H10.4249C10.3739 23.4766 10.3173 23.4848 10.272 23.5095C10.4419 22.3166 10.5834 21.0907 10.6967 19.8648C11.3933 18.6966 12.1408 17.6517 12.8997 16.8125Z" stroke="white" stroke-miterlimit="10" stroke-linecap="round" stroke-linejoin="round"/>
<path d="M9.80998 26.2773V30.8682C9.14173 32.02 8.37721 32.8921 7.53906 33.361C8.47348 31.8061 9.238 29.2392 9.80998 26.2773Z" stroke="white" stroke-miterlimit="10" stroke-linecap="round" stroke-linejoin="round"/>
<path d="M7.58209 33.3794C7.42919 32.7377 7.35556 32.063 7.34424 31.3555C7.37822 32.0959 7.46316 32.7788 7.58209 33.3794Z" stroke="white" stroke-miterlimit="10" stroke-linecap="round" stroke-linejoin="round"/>
<path d="M18.8608 20.69V13.5898H45.7494V50.9993H18.8608V46.8116" stroke="white" stroke-miterlimit="10" stroke-linecap="round" stroke-linejoin="round"/>
<path d="M50.9963 1V44.4894H45.7636V13.5631H36.1362V1H50.9963Z" stroke="white" stroke-miterlimit="10" stroke-linecap="round" stroke-linejoin="round"/>
<path d="M42.97 21.4574V17.8867H38.0884V21.4574" stroke="white" stroke-miterlimit="10" stroke-linecap="round" stroke-linejoin="round"/>
<path d="M35.2652 21.4574V17.8867H30.3779V21.4574" stroke="white" stroke-miterlimit="10" stroke-linecap="round" stroke-linejoin="round"/>
<path d="M42.97 31.6058V28.0352H38.0884V31.6058" stroke="white" stroke-miterlimit="10" stroke-linecap="round" stroke-linejoin="round"/>
<path d="M35.2652 31.6058V28.0352H30.3779V31.6058" stroke="white" stroke-miterlimit="10" stroke-linecap="round" stroke-linejoin="round"/>
<path d="M42.97 41.6605V38.0898H38.0884V41.6605" stroke="white" stroke-miterlimit="10" stroke-linecap="round" stroke-linejoin="round"/>
<path d="M35.2652 41.6605V38.0898H30.3779V41.6605" stroke="white" stroke-miterlimit="10" stroke-linecap="round" stroke-linejoin="round"/>
<path d="M45.7636 11.1523H36.1362" stroke="white" stroke-miterlimit="10" stroke-linecap="round" stroke-linejoin="round"/>
<path d="M45.7636 8.71094H36.1362" stroke="white" stroke-miterlimit="10" stroke-linecap="round" stroke-linejoin="round"/>
<path d="M45.7636 6.26953H36.1362" stroke="white" stroke-miterlimit="10" stroke-linecap="round" stroke-linejoin="round"/>
<path d="M49.1172 6.26953V10.9344" stroke="white" stroke-miterlimit="10" stroke-linecap="round" stroke-linejoin="round"/>
<path d="M49.1172 17.4961V22.161" stroke="white" stroke-miterlimit="10" stroke-linecap="round" stroke-linejoin="round"/>
<path d="M49.1172 28.6211V33.2777" stroke="white" stroke-miterlimit="10" stroke-linecap="round" stroke-linejoin="round"/>
<path d="M49.1172 39.8438V44.5086" stroke="white" stroke-miterlimit="10" stroke-linecap="round" stroke-linejoin="round"/>
</svg>
