<svg width="52" height="52" viewBox="0 0 52 52" fill="none" xmlns="http://www.w3.org/2000/svg">
<path d="M51.0792 46.5089V50.9924H1V43.9582C1 43.9582 1.78422 43.9582 3.06749 43.9582H21.4135C21.5957 43.9582 21.7699 43.9582 21.9521 43.9503C24.1464 43.8869 26.3327 43.4433 28.5428 42.8967C32.5272 41.9224 36.5592 40.6074 40.6942 40.6074C45.1223 40.6074 47.3323 41.7956 51.0792 42.2868V46.5089Z" stroke="#333333" stroke-miterlimit="10" stroke-linecap="round" stroke-linejoin="round"/>
<path d="M51.0792 46.2921C49.5187 46.0307 48.0057 45.7455 46.5244 45.5079C43.8469 45.0643 41.2962 44.7474 38.8406 44.9217C37.6682 45.0009 36.6305 45.1118 35.7037 45.2465C28.6774 46.2446 27.7665 48.4388 20.5342 48.4388C18.1499 48.4388 15.1952 47.4328 11.8048 46.9575C8.55703 46.506 4.91318 46.5456 1 48.4388" stroke="#333333" stroke-miterlimit="10" stroke-linecap="round" stroke-linejoin="round"/>
<path d="M2.22852 50.9989L6.26051 46.959" stroke="#333333" stroke-miterlimit="10" stroke-linecap="round" stroke-linejoin="round"/>
<path d="M7.77344 50.9989L11.8054 46.959" stroke="#333333" stroke-miterlimit="10" stroke-linecap="round" stroke-linejoin="round"/>
<path d="M13.3203 50.9986L16.3384 47.9727" stroke="#333333" stroke-miterlimit="10" stroke-linecap="round" stroke-linejoin="round"/>
<path d="M18.8652 50.9971L21.3526 48.5098" stroke="#333333" stroke-miterlimit="10" stroke-linecap="round" stroke-linejoin="round"/>
<path d="M24.4062 50.9982L28.1135 47.291" stroke="#333333" stroke-miterlimit="10" stroke-linecap="round" stroke-linejoin="round"/>
<path d="M29.9512 50.997L35.7021 45.2461" stroke="#333333" stroke-miterlimit="10" stroke-linecap="round" stroke-linejoin="round"/>
<path d="M35.498 50.9972L41.5421 44.9531" stroke="#333333" stroke-miterlimit="10" stroke-linecap="round" stroke-linejoin="round"/>
<path d="M41.043 50.9975L46.5325 45.5" stroke="#333333" stroke-miterlimit="10" stroke-linecap="round" stroke-linejoin="round"/>
<path d="M51.0793 46.5078L46.5879 50.9913" stroke="#333333" stroke-miterlimit="10" stroke-linecap="round" stroke-linejoin="round"/>
<path d="M21.9531 43.9482L27.8387 38.0547" stroke="#333333" stroke-miterlimit="10" stroke-linecap="round" stroke-linejoin="round"/>
<path d="M28.541 42.9018L33.183 38.252" stroke="#333333" stroke-miterlimit="10" stroke-linecap="round" stroke-linejoin="round"/>
<path d="M35.9863 41.0015L38.9252 38.0547" stroke="#333333" stroke-miterlimit="10" stroke-linecap="round" stroke-linejoin="round"/>
<path d="M41.9531 40.5737L44.4721 38.0547" stroke="#333333" stroke-miterlimit="10" stroke-linecap="round" stroke-linejoin="round"/>
<path d="M46.8477 41.2201L49.9291 38.1387" stroke="#333333" stroke-miterlimit="10" stroke-linecap="round" stroke-linejoin="round"/>
<path d="M19.6992 40.1222L21.941 38.0547H27.8345H38.9245H44.4695H51.0759" stroke="#333333" stroke-miterlimit="10" stroke-linecap="round" stroke-linejoin="round"/>
<path d="M20.1058 41.7952L18.9493 38.3652L13.4043 40.0842" stroke="#333333" stroke-miterlimit="10" stroke-linecap="round" stroke-linejoin="round"/>
<path d="M15.0376 41.7951C14.7762 41.6208 11.7344 39.0859 11.7344 39.0859L7.82121 40.187L7.47266 41.5812L4.5259 41.4069L3.06836 43.9576" stroke="#333333" stroke-miterlimit="10" stroke-linecap="round" stroke-linejoin="round"/>
<path d="M51.0801 42.2847V38.0547" stroke="#333333" stroke-miterlimit="10" stroke-linecap="round" stroke-linejoin="round"/>
<path d="M29.3658 37.9679C32.0564 37.9679 34.2375 35.7868 34.2375 33.0963C34.2375 30.4057 32.0564 28.2246 29.3658 28.2246C26.6753 28.2246 24.4941 30.4057 24.4941 33.0963C24.4941 35.7868 26.6753 37.9679 29.3658 37.9679Z" stroke="#333333" stroke-miterlimit="10" stroke-linecap="round" stroke-linejoin="round"/>
<path d="M29.3655 28.2246L27.6387 29.9594" stroke="#333333" stroke-miterlimit="10" stroke-linecap="round" stroke-linejoin="round"/>
<path d="M32.7373 29.5898L31.5332 30.786" stroke="#333333" stroke-miterlimit="10" stroke-linecap="round" stroke-linejoin="round"/>
<path d="M34.0903 32.9551L32.3555 34.6899" stroke="#333333" stroke-miterlimit="10" stroke-linecap="round" stroke-linejoin="round"/>
<path d="M29.3633 37.9671L31.0981 36.2402" stroke="#333333" stroke-miterlimit="10" stroke-linecap="round" stroke-linejoin="round"/>
<path d="M25.9883 36.6141L27.1923 35.418" stroke="#333333" stroke-miterlimit="10" stroke-linecap="round" stroke-linejoin="round"/>
<path d="M24.6348 33.2386L26.3696 31.5117" stroke="#333333" stroke-miterlimit="10" stroke-linecap="round" stroke-linejoin="round"/>
<path d="M29.3641 35.1482C30.4972 35.1482 31.4158 34.2297 31.4158 33.0966C31.4158 31.9635 30.4972 31.0449 29.3641 31.0449C28.2311 31.0449 27.3125 31.9635 27.3125 33.0966C27.3125 34.2297 28.2311 35.1482 29.3641 35.1482Z" stroke="#333333" stroke-miterlimit="10" stroke-linecap="round" stroke-linejoin="round"/>
<path d="M36.6852 23.7975L34.792 21.9043H24.4941V23.7975H36.6852Z" stroke="#333333" stroke-miterlimit="10" stroke-linecap="round" stroke-linejoin="round"/>
<path d="M24.4927 23.7969L19.3438 28.9458V31.544" stroke="#333333" stroke-miterlimit="10" stroke-linecap="round" stroke-linejoin="round"/>
<path d="M24.7457 31.5437H17.5847L15.541 29.5" stroke="#333333" stroke-miterlimit="10" stroke-linecap="round" stroke-linejoin="round"/>
<path d="M22.293 26H36.6862" stroke="#333333" stroke-miterlimit="10" stroke-linecap="round" stroke-linejoin="round"/>
<path d="M24.5499 33.8263H18.1573L14.2441 36.0126L17.587 31.5449" stroke="#333333" stroke-miterlimit="10" stroke-linecap="round" stroke-linejoin="round"/>
<path d="M14.2441 33.0957V39.6863" stroke="#333333" stroke-miterlimit="10" stroke-linecap="round" stroke-linejoin="round"/>
<path d="M33.9863 31.5449H36.6875" stroke="#333333" stroke-miterlimit="10" stroke-linecap="round" stroke-linejoin="round"/>
<path d="M34.2383 33.7773H36.686" stroke="#333333" stroke-miterlimit="10" stroke-linecap="round" stroke-linejoin="round"/>
<path d="M38.357 33.0974V8.96875H36.6855V35.1569H39.8145V33.0974H38.357Z" stroke="#333333" stroke-miterlimit="10" stroke-linecap="round" stroke-linejoin="round"/>
<path d="M41.0899 31.5449H39.8145V35.1571H38.2461V36.6067H41.0899" stroke="#333333" stroke-miterlimit="10" stroke-linecap="round" stroke-linejoin="round"/>
<path d="M41.0879 31.5449H42.3632V35.1571H43.9238V36.6067H41.0879" stroke="#333333" stroke-miterlimit="10" stroke-linecap="round" stroke-linejoin="round"/>
<path d="M41.0879 31.5453V18.166" stroke="#333333" stroke-miterlimit="10" stroke-linecap="round" stroke-linejoin="round"/>
<path d="M42.0098 1H40.1641V18.1657H42.0098V1Z" stroke="#333333" stroke-miterlimit="10" stroke-linecap="round" stroke-linejoin="round"/>
<path d="M40.1596 14.6875H38.3535" stroke="#333333" stroke-miterlimit="10" stroke-linecap="round" stroke-linejoin="round"/>
<path d="M40.1628 2.2832C40.1628 5.00817 33.2949 5.5389 33.2949 10.2046C33.2949 12.684 35.0456 13.793 36.6853 14.2921" stroke="#333333" stroke-miterlimit="10" stroke-linecap="round" stroke-linejoin="round"/>
<path d="M36.6855 33.7773V37.9678" stroke="#333333" stroke-miterlimit="10" stroke-linecap="round" stroke-linejoin="round"/>
</svg>
