<svg width="79" height="52" viewBox="0 0 79 52" fill="none" xmlns="http://www.w3.org/2000/svg">
<path d="M30.6799 14.5012C31.7927 15.7967 31.2695 17.7482 29.9823 18.7032C28.1305 20.0817 25.5063 19.326 24.2607 17.5074C22.5915 15.0576 23.5964 11.711 26.0046 10.183C27.0094 9.54359 28.1222 9.23633 29.2433 9.23633C31.5186 9.23633 33.7608 10.4654 35.0064 12.4916C35.3137 12.9982 35.5545 13.7206 35.7206 14.5095H30.6799V14.5012Z" stroke="#252630" stroke-miterlimit="10" stroke-linecap="round" stroke-linejoin="round"/>
<path d="M75.2245 50.0439C74.2197 50.6834 73.1069 50.9906 71.9858 50.9906H42.9043C44.0171 50.9906 45.1298 50.6917 46.143 50.0439C48.5512 48.4993 49.5643 45.161 47.8869 42.703C47.1146 41.5653 45.7942 40.8428 44.4572 40.793H73.547C74.8757 40.8345 76.1961 41.5653 76.9767 42.703C78.6459 45.161 77.6244 48.5076 75.2245 50.0439Z" stroke="#252630" stroke-miterlimit="10" stroke-linecap="round" stroke-linejoin="round"/>
<path d="M65.1596 40.8013H44.4571C45.7941 40.8429 47.1144 41.5736 47.8867 42.7113C49.5559 45.1611 48.5511 48.5077 46.1428 50.0523C45.138 50.6917 44.0252 50.999 42.9042 50.999C40.6288 50.999 38.3866 49.7533 37.141 47.7271C36.3687 46.4815 36.0365 43.849 36.0781 42.4871L36.0698 19.4179V17.7238C36.0947 16.91 35.9701 15.6477 35.7293 14.5017C35.5549 13.7211 35.3224 12.9903 35.0151 12.4838C33.7695 10.4575 31.519 9.22852 29.252 9.22852H58.3335C60.6172 9.22852 62.8676 10.4575 64.105 12.4838C64.869 13.7294 65.2011 16.3619 65.1679 17.7238V40.8013H65.1596Z" stroke="#252630" stroke-miterlimit="10" stroke-linecap="round" stroke-linejoin="round"/>
<path d="M27.8496 19.4004H36.0708" stroke="#252630" stroke-miterlimit="10" stroke-linecap="round" stroke-linejoin="round"/>
<path d="M40.7617 19.418H60.4677" stroke="#252630" stroke-miterlimit="10" stroke-linecap="round" stroke-linejoin="round"/>
<path d="M40.7617 15.2324H60.4677" stroke="#252630" stroke-miterlimit="10" stroke-linecap="round" stroke-linejoin="round"/>
<path d="M40.7617 27.7891H60.4677" stroke="#252630" stroke-miterlimit="10" stroke-linecap="round" stroke-linejoin="round"/>
<path d="M40.7617 36.168H60.4677" stroke="#252630" stroke-miterlimit="10" stroke-linecap="round" stroke-linejoin="round"/>
<path d="M40.7617 31.9824H60.4677" stroke="#252630" stroke-miterlimit="10" stroke-linecap="round" stroke-linejoin="round"/>
<path d="M40.7617 23.6035H60.4677" stroke="#252630" stroke-miterlimit="10" stroke-linecap="round" stroke-linejoin="round"/>
<path d="M36.0689 21.4949L26.4775 26.245L22.7323 24.3848L13.39 19.751L10.9983 18.5718L8.61501 17.3926L1 13.6225L26.4775 1L43.086 9.22953" stroke="#252630" stroke-miterlimit="10" stroke-linecap="round" stroke-linejoin="round"/>
<path d="M13.3897 19.751V30.4635C10.4334 28.6615 8.62305 26.2532 8.62305 23.6042V17.3926L10.9981 18.5718L13.3897 19.751Z" stroke="#252630" stroke-miterlimit="10" stroke-linecap="round" stroke-linejoin="round"/>
<path d="M36.0696 32.1158C33.2959 33.1123 30.0075 33.6936 26.4781 33.6936C25.191 33.6936 23.937 33.6189 22.7246 33.4694V24.3845L26.4781 26.2364L36.0696 21.4863" stroke="#252630" stroke-miterlimit="10" stroke-linecap="round" stroke-linejoin="round"/>
<path d="M22.7329 24.3857V41.5424L17.9081 35.1148L13.3906 37.0082V19.752L22.7329 24.3857Z" stroke="#252630" stroke-miterlimit="10" stroke-linecap="round" stroke-linejoin="round"/>
</svg>
