<svg width="50" height="52" viewBox="0 0 50 52" fill="none" xmlns="http://www.w3.org/2000/svg">
<path d="M14.3915 14.3915V1L1 14.3915H14.3915Z" stroke="#333333" stroke-miterlimit="10" stroke-linecap="round" stroke-linejoin="round"/>
<path d="M36.4173 19.9738V1H14.3915L1 14.3915V43.6191H11.1059" stroke="#333333" stroke-miterlimit="10" stroke-linecap="round" stroke-linejoin="round"/>
<path d="M11.1045 40.6052H4.01172V21.7637" stroke="#333333" stroke-miterlimit="10" stroke-linecap="round" stroke-linejoin="round"/>
<path d="M18.0586 4.01172H33.4043V16.7336" stroke="#333333" stroke-miterlimit="10" stroke-linecap="round" stroke-linejoin="round"/>
<path d="M18.0586 7.69531H29.745" stroke="#333333" stroke-miterlimit="10" stroke-linecap="round" stroke-linejoin="round"/>
<path d="M18.0586 11.043H29.745" stroke="#333333" stroke-miterlimit="10" stroke-linecap="round" stroke-linejoin="round"/>
<path d="M39.0409 22.1001V24.1711H36.5728V22.9176C36.5728 22.4037 36.059 21.9755 35.4128 21.9755H25.0344C24.3882 21.9755 23.8587 22.4037 23.8587 22.9176V24.1711H21.3984V22.1001C21.3984 20.9244 22.5741 19.9668 24.0144 19.9668H36.4093C37.8731 19.9746 39.0409 20.9244 39.0409 22.1001Z" stroke="#333333" stroke-miterlimit="10" stroke-linecap="round" stroke-linejoin="round"/>
<path d="M36.5813 22.9167V24.1702H23.8594V22.9167C23.8594 22.4028 24.381 21.9746 25.035 21.9746H35.4134C36.0596 21.9746 36.5813 22.395 36.5813 22.9167Z" stroke="#333333" stroke-miterlimit="10" stroke-linecap="round" stroke-linejoin="round"/>
<path d="M36.5813 22.9167V24.1702H23.8594V22.9167C23.8594 22.4028 24.381 21.9746 25.035 21.9746H35.4134C36.0596 21.9746 36.5813 22.395 36.5813 22.9167Z" stroke="#333333" stroke-miterlimit="10" stroke-linecap="round" stroke-linejoin="round"/>
<path d="M49.349 27.0215V38.4353C49.349 40.7866 47.4493 42.6864 45.098 42.6864H15.3409C13.0052 42.6864 11.0977 40.7866 11.0977 38.4353V27.0215C11.0977 25.4487 12.3745 24.1719 13.9472 24.1719H46.4994C48.0721 24.1719 49.349 25.4487 49.349 27.0215Z" stroke="#333333" stroke-miterlimit="10" stroke-linecap="round" stroke-linejoin="round"/>
<path d="M13.3242 33.7404V27.0213C13.3242 26.6787 13.6045 26.3984 13.9471 26.3984H36.5724" stroke="#333333" stroke-miterlimit="10" stroke-linecap="round" stroke-linejoin="round"/>
<path d="M45.098 42.6866H15.3409C13.0052 42.6866 11.0977 40.7868 11.0977 38.4355V49.4212C11.0977 50.2932 11.8062 51.0017 12.6782 51.0017H47.7607C48.6327 51.0017 49.3412 50.2932 49.3412 49.4212V38.4355C49.349 40.7868 47.4415 42.6866 45.098 42.6866Z" stroke="#333333" stroke-miterlimit="10" stroke-linecap="round" stroke-linejoin="round"/>
<path d="M36.5813 42.6855V44.632L30.2203 46.267L23.8594 44.632V42.6855" stroke="#333333" stroke-miterlimit="10" stroke-linecap="round" stroke-linejoin="round"/>
</svg>
