<svg width="54" height="52" viewBox="0 0 54 52" fill="none" xmlns="http://www.w3.org/2000/svg">
<path d="M7.2789 15.8965V25.9205L1 20.9085L7.2789 15.8965Z" stroke="#333333" stroke-miterlimit="10" stroke-linecap="round" stroke-linejoin="round"/>
<path d="M38.0732 9.30405H15.5469L25.2935 1.52709C26.172 0.824302 27.4389 0.824302 28.3266 1.52709L38.0732 9.30405Z" stroke="#333333" stroke-miterlimit="10" stroke-linecap="round" stroke-linejoin="round"/>
<path d="M52.6168 20.9085L46.3379 25.9205V15.8965L52.6168 20.9085Z" stroke="#333333" stroke-miterlimit="10" stroke-linecap="round" stroke-linejoin="round"/>
<path d="M52.6183 51.0004H1L19.8459 35.9551L25.2926 40.3013C26.1711 41.0041 27.4287 41.0041 28.3072 40.3013L33.7538 35.9551L52.6183 51.0004Z" stroke="#333333" stroke-miterlimit="10" stroke-linecap="round" stroke-linejoin="round"/>
<path d="M19.8552 35.9535L1 50.9988V20.9082L19.8552 35.9535Z" stroke="#333333" stroke-miterlimit="10" stroke-linecap="round" stroke-linejoin="round"/>
<path d="M52.6189 20.9082V50.9988L33.7637 35.9535L52.6189 20.9082Z" stroke="#333333" stroke-miterlimit="10" stroke-linecap="round" stroke-linejoin="round"/>
<path d="M27.1707 18.0428L38.3322 13.0215V27.327L27.1707 35.9547L16 27.327V13.0215L27.1707 18.0428Z" stroke="#333333" stroke-miterlimit="10" stroke-linecap="round" stroke-linejoin="round"/>
<path d="M46.3378 9.30469V25.922L33.7615 35.9553L28.3241 40.3015C27.4456 41.0043 26.188 41.0043 25.291 40.3015L19.8536 35.9553L7.27734 25.922V9.30469H46.3378Z" stroke="#333333" stroke-miterlimit="10" stroke-linecap="round" stroke-linejoin="round"/>
<path d="M28.8432 22.6755L32.1167 20.1973H22.2129V28.5938" stroke="#333333" stroke-miterlimit="10" stroke-linecap="round" stroke-linejoin="round"/>
<path d="M22.2129 25.1448H32.1167L28.8432 22.6758" stroke="#333333" stroke-miterlimit="10" stroke-linecap="round" stroke-linejoin="round"/>
<path d="M19.4941 40.6973L26.8087 46.2549" stroke="#333333" stroke-miterlimit="10" stroke-linecap="round" stroke-linejoin="round"/>
<path d="M34.1232 40.6973L26.8086 46.2549" stroke="#333333" stroke-miterlimit="10" stroke-linecap="round" stroke-linejoin="round"/>
<path d="M32.1167 13.0215L27.1694 15.2501L22.2129 13.0215" stroke="#333333" stroke-miterlimit="10" stroke-linecap="round" stroke-linejoin="round"/>
</svg>
