<svg width="56" height="55" viewBox="0 0 56 55" fill="none" xmlns="http://www.w3.org/2000/svg">
<path d="M44.1416 23.9519V28.3519" stroke="#333333" stroke-miterlimit="10" stroke-linecap="round" stroke-linejoin="round"/>
<path d="M44.1416 12.656V16.096" stroke="#333333" stroke-miterlimit="10" stroke-linecap="round" stroke-linejoin="round"/>
<path d="M47.9297 23.76V28.352" stroke="#333333" stroke-miterlimit="10" stroke-linecap="round" stroke-linejoin="round"/>
<path d="M47.9297 12.656V17.448" stroke="#333333" stroke-miterlimit="10" stroke-linecap="round" stroke-linejoin="round"/>
<path d="M46.1929 16.016C43.6249 16.016 37.875 16.8559 37.875 17.6159C37.875 18.3759 42.4297 19.3358 44.1417 19.3358C44.1417 17.8399 44.9008 16.8159 46.1929 16.016Z" stroke="#333333" stroke-miterlimit="10" stroke-linecap="round" stroke-linejoin="round"/>
<path d="M40.5078 24.168C43.0759 24.168 55.2944 23.952 55.2864 20.608C55.2864 18.5199 49.6495 17.4399 47.9375 17.4399C47.9375 19.856 48.0828 20.296 47.0653 21.536C45.4905 23.456 43.4797 23.568 40.5078 24.168Z" stroke="#333333" stroke-miterlimit="10" stroke-linecap="round" stroke-linejoin="round"/>
<path d="M44.1416 19.3359V23.3999" stroke="#333333" stroke-miterlimit="10" stroke-linecap="round" stroke-linejoin="round"/>
<path d="M44.1416 28.3521V36.4" stroke="#333333" stroke-miterlimit="10" stroke-linecap="round" stroke-linejoin="round"/>
<path d="M47.9291 42.9761V49.136L44.1416 54.312V49.136V42.9761" stroke="#333333" stroke-miterlimit="10" stroke-linecap="round" stroke-linejoin="round"/>
<path d="M47.9297 28.3521V37.7521" stroke="#333333" stroke-miterlimit="10" stroke-linecap="round" stroke-linejoin="round"/>
<path d="M46.1931 36.6719C43.625 36.6719 39.2803 37.3999 39.2803 38.1599C39.2803 38.9199 42.4217 39.6479 44.1418 39.6479C44.1418 38.1519 44.9009 37.4719 46.1931 36.6719Z" stroke="#333333" stroke-miterlimit="10" stroke-linecap="round" stroke-linejoin="round"/>
<path d="M40.5078 43.0081C43.0759 43.0081 54.3819 43.0161 54.3819 40.392C54.3819 38.712 49.6495 37.752 47.9294 37.752C47.9294 39.64 47.1784 40.376 46.5565 41.016C45.329 42.272 43.4797 42.408 40.5078 43.0081Z" stroke="#333333" stroke-miterlimit="10" stroke-linecap="round" stroke-linejoin="round"/>
<path d="M44.1416 39.6399V42.9759" stroke="#333333" stroke-miterlimit="10" stroke-linecap="round" stroke-linejoin="round"/>
<path d="M44.1418 12.656L38.9814 2.552H53.0897L47.9293 12.656" stroke="#333333" stroke-miterlimit="10" stroke-linecap="round" stroke-linejoin="round"/>
<path d="M44.1416 2.552V1H47.9291V2.552" stroke="#333333" stroke-miterlimit="10" stroke-linecap="round" stroke-linejoin="round"/>
<path d="M44.1416 26.8H47.8969" stroke="#333333" stroke-miterlimit="10" stroke-linecap="round" stroke-linejoin="round"/>
<path d="M11.8389 36.76V41.16" stroke="#333333" stroke-miterlimit="10" stroke-linecap="round" stroke-linejoin="round"/>
<path d="M11.8389 12.656V28.904" stroke="#333333" stroke-miterlimit="10" stroke-linecap="round" stroke-linejoin="round"/>
<path d="M8.05176 36.5681V41.1601" stroke="#333333" stroke-miterlimit="10" stroke-linecap="round" stroke-linejoin="round"/>
<path d="M8.05176 12.656V30.256" stroke="#333333" stroke-miterlimit="10" stroke-linecap="round" stroke-linejoin="round"/>
<path d="M9.78711 28.824C12.3552 28.824 18.1051 29.664 18.1051 30.424C18.1051 31.184 13.5504 32.144 11.8383 32.144C11.8383 30.648 11.0792 29.624 9.78711 28.824Z" stroke="#333333" stroke-miterlimit="10" stroke-linecap="round" stroke-linejoin="round"/>
<path d="M15.4729 36.9761C12.9048 36.9761 0.686264 36.7601 0.69434 33.4161C0.69434 31.3281 6.33118 30.248 8.04322 30.248C8.04322 32.6641 7.89786 33.1041 8.9154 34.3441C10.4902 36.2641 12.501 36.3761 15.4729 36.9761Z" stroke="#333333" stroke-miterlimit="10" stroke-linecap="round" stroke-linejoin="round"/>
<path d="M11.8389 32.144V36.208" stroke="#333333" stroke-miterlimit="10" stroke-linecap="round" stroke-linejoin="round"/>
<path d="M11.8389 41.1599V47.9519" stroke="#333333" stroke-miterlimit="10" stroke-linecap="round" stroke-linejoin="round"/>
<path d="M8.05176 50.616V54.312H11.8393V50.616" stroke="#333333" stroke-miterlimit="10" stroke-linecap="round" stroke-linejoin="round"/>
<path d="M8.05176 41.1599V50.6159" stroke="#333333" stroke-miterlimit="10" stroke-linecap="round" stroke-linejoin="round"/>
<path d="M11.912 45.968C13.0184 45.776 14.4558 45.32 14.4558 44.64C14.4558 43.76 12.0735 43.424 9.9496 43.304C7.82569 43.1839 5.44336 42.8479 5.44336 41.9679C5.44336 41.2879 6.88083 40.8239 7.9872 40.6399" stroke="#333333" stroke-miterlimit="10" stroke-linecap="round" stroke-linejoin="round"/>
<path d="M11.912 51.7759C13.0184 51.5839 14.4558 51.1279 14.4558 50.4479C14.4558 49.5679 12.0735 49.2319 9.9496 49.1119C7.82569 48.9919 5.44336 48.656 5.44336 47.776C5.44336 47.096 6.88083 46.632 7.9872 46.448" stroke="#333333" stroke-miterlimit="10" stroke-linecap="round" stroke-linejoin="round"/>
<path d="M11.8389 47.28V50.616" stroke="#333333" stroke-miterlimit="10" stroke-linecap="round" stroke-linejoin="round"/>
<path d="M11.8393 26.0559V1H8.05176V26.0559" stroke="#333333" stroke-miterlimit="10" stroke-linecap="round" stroke-linejoin="round"/>
<path d="M26.0928 31.8V36.2001" stroke="#333333" stroke-miterlimit="10" stroke-linecap="round" stroke-linejoin="round"/>
<path d="M26.0928 2.552V23.944" stroke="#333333" stroke-miterlimit="10" stroke-linecap="round" stroke-linejoin="round"/>
<path d="M29.8887 31.6079V36.1999" stroke="#333333" stroke-miterlimit="10" stroke-linecap="round" stroke-linejoin="round"/>
<path d="M29.8887 20.5039V25.2959" stroke="#333333" stroke-miterlimit="10" stroke-linecap="round" stroke-linejoin="round"/>
<path d="M28.1442 23.864C25.5761 23.864 19.8262 24.704 19.8262 25.464C19.8262 26.2241 24.3809 27.1841 26.0929 27.1841C26.0929 25.6961 26.852 24.664 28.1442 23.864Z" stroke="#333333" stroke-miterlimit="10" stroke-linecap="round" stroke-linejoin="round"/>
<path d="M22.459 32.0161C25.0271 32.0161 37.2456 31.8001 37.2375 28.4561C37.2375 26.3681 31.6007 25.2881 29.8886 25.2881C29.8886 27.7041 30.034 28.1441 29.0165 29.3841C27.4498 31.3041 25.4308 31.4161 22.459 32.0161Z" stroke="#333333" stroke-miterlimit="10" stroke-linecap="round" stroke-linejoin="round"/>
<path d="M26.0928 27.1841V31.2481" stroke="#333333" stroke-miterlimit="10" stroke-linecap="round" stroke-linejoin="round"/>
<path d="M26.0928 36.2V39.288" stroke="#333333" stroke-miterlimit="10" stroke-linecap="round" stroke-linejoin="round"/>
<path d="M27.9905 54.312L26.0928 47.144" stroke="#333333" stroke-miterlimit="10" stroke-linecap="round" stroke-linejoin="round"/>
<path d="M29.8881 46.9519L27.9902 54.312" stroke="#333333" stroke-miterlimit="10" stroke-linecap="round" stroke-linejoin="round"/>
<path d="M29.8887 36.2V40.632" stroke="#333333" stroke-miterlimit="10" stroke-linecap="round" stroke-linejoin="round"/>
<path d="M28.1442 39.208C25.5761 39.208 19.8262 40.048 19.8262 40.808C19.8262 41.5681 24.3809 42.5281 26.0929 42.5281C26.0929 41.032 26.852 40.008 28.1442 39.208Z" stroke="#333333" stroke-miterlimit="10" stroke-linecap="round" stroke-linejoin="round"/>
<path d="M22.459 47.3601C25.0271 47.3601 37.2456 47.1441 37.2375 43.8001C37.2375 41.7121 31.6007 40.6321 29.8886 40.6321C29.8886 43.0481 30.034 43.4881 29.0165 44.7281C27.4498 46.6481 25.4308 46.7601 22.459 47.3601Z" stroke="#333333" stroke-miterlimit="10" stroke-linecap="round" stroke-linejoin="round"/>
<path d="M26.0928 42.5281V46.5921" stroke="#333333" stroke-miterlimit="10" stroke-linecap="round" stroke-linejoin="round"/>
<path d="M26.0928 2.55199V1.776V1H27.9905H29.8883V10.752V20.5039" stroke="#333333" stroke-miterlimit="10" stroke-linecap="round" stroke-linejoin="round"/>
<path d="M29.8887 2.552H33.1675V10.384L30.0825 13.4399" stroke="#333333" stroke-miterlimit="10" stroke-linecap="round" stroke-linejoin="round"/>
<path d="M26.0931 2.552H22.8145V10.384L25.8993 13.4399" stroke="#333333" stroke-miterlimit="10" stroke-linecap="round" stroke-linejoin="round"/>
</svg>
