<svg width="64" height="52" viewBox="0 0 64 52" fill="none" xmlns="http://www.w3.org/2000/svg">
<path d="M21.7053 5.70312V9.88269L15.4746 12.969C16.0358 11.5565 16.4615 9.98912 16.5872 8.24763V8.23795L21.7053 5.70312Z" stroke="white" stroke-miterlimit="10" stroke-linecap="round" stroke-linejoin="round"/>
<path d="M21.7043 36.5568V40.7364L1 51.0014V15.9782L5.67299 13.6562C6.23413 14.9043 6.89203 16.0073 7.54992 16.9167L4.75387 18.3002V44.974L21.7043 36.5568Z" stroke="white" stroke-miterlimit="10" stroke-linecap="round" stroke-linejoin="round"/>
<path d="M42.4186 46.8198V50.9993L21.7046 40.7439V36.5547L42.4186 46.8198Z" stroke="white" stroke-miterlimit="10" stroke-linecap="round" stroke-linejoin="round"/>
<path d="M42.4186 15.9779V20.1478L21.7046 9.88269V5.70312L42.4186 15.9779Z" stroke="white" stroke-miterlimit="10" stroke-linecap="round" stroke-linejoin="round"/>
<path d="M49.2789 16.7496L42.4097 20.1455V15.9756L48.5049 12.957C48.6113 14.3115 48.8822 15.5886 49.2789 16.7496Z" stroke="white" stroke-miterlimit="10" stroke-linecap="round" stroke-linejoin="round"/>
<path d="M63.133 5.70312V40.7457L42.4189 51.0011V46.8215L59.3984 38.4237V18.4353C60.2498 16.5777 60.869 14.3622 60.869 11.8951C60.869 10.26 60.2305 8.77007 59.1856 7.66713L63.133 5.70312Z" stroke="white" stroke-miterlimit="10" stroke-linecap="round" stroke-linejoin="round"/>
<path d="M21.7033 9.88281V36.5566L4.74316 44.9738V18.3L7.53922 16.9165C9.0098 18.9869 10.4223 20.1479 10.4223 20.1479C10.4223 20.1479 13.6828 17.4486 15.4823 12.9788V12.9691L21.7033 9.88281Z" stroke="white" stroke-miterlimit="10" stroke-linecap="round" stroke-linejoin="round"/>
<path d="M21.7046 9.88281V36.5566L42.4089 46.8217V20.1479L21.7046 9.88281ZM32.0568 38.4335C32.0568 38.4335 25.8648 33.2865 25.8648 25.4788C25.8648 22.0539 28.6318 19.2868 32.0568 19.2868C35.4817 19.2868 38.2584 22.0539 38.2584 25.4788C38.2584 33.2865 32.0568 38.4335 32.0568 38.4335Z" stroke="white" stroke-miterlimit="10" stroke-linecap="round" stroke-linejoin="round"/>
<path d="M59.3888 18.4334V38.4218L42.4189 46.8197V20.1459L49.2881 16.75C50.9619 21.7713 54.6674 24.8479 54.6674 24.8479C54.6674 24.8479 57.5602 22.4582 59.3888 18.4334Z" stroke="white" stroke-miterlimit="10" stroke-linecap="round" stroke-linejoin="round"/>
<path d="M10.4234 1C6.99847 1 4.23145 3.76703 4.23145 7.19195C4.23145 9.63971 4.83129 11.8069 5.66333 13.6548C6.22448 14.9029 6.88237 16.0058 7.54027 16.9152C9.01086 18.9857 10.4234 20.1467 10.4234 20.1467C10.4234 20.1467 13.6838 17.4474 15.4834 12.9776V12.9679C16.0445 11.5553 16.4702 9.988 16.596 8.24652V8.23684C16.625 7.88854 16.6347 7.54992 16.6347 7.19195C16.625 3.76703 13.8386 1 10.4234 1ZM10.4234 9.95898C8.90443 9.95898 7.65637 8.72059 7.65637 7.19195C7.65637 5.65364 8.90443 4.42492 10.4234 4.42492C11.9617 4.42492 13.2098 5.66331 13.2098 7.19195C13.2098 8.72059 11.9617 9.95898 10.4234 9.95898Z" stroke="white" stroke-miterlimit="10" stroke-linecap="round" stroke-linejoin="round"/>
<path d="M32.0557 19.2852C28.6308 19.2852 25.8638 22.0522 25.8638 25.4771C25.8638 33.2944 32.0557 38.4318 32.0557 38.4318C32.0557 38.4318 38.2573 33.2848 38.2573 25.4771C38.2573 22.0522 35.471 19.2852 32.0557 19.2852ZM32.0557 28.2441C30.5368 28.2441 29.2887 27.0057 29.2887 25.4771C29.2887 23.9388 30.5368 22.7101 32.0557 22.7101C33.594 22.7101 34.8421 23.9485 34.8421 25.4771C34.8324 27.0154 33.5844 28.2441 32.0557 28.2441Z" stroke="white" stroke-miterlimit="10" stroke-linecap="round" stroke-linejoin="round"/>
<path d="M34.8337 25.478C34.8337 27.0163 33.5856 28.2451 32.0473 28.2451C30.5283 28.2451 29.2803 27.0067 29.2803 25.478C29.2803 23.9397 30.5283 22.711 32.0473 22.711C33.5856 22.7013 34.8337 23.9397 34.8337 25.478Z" stroke="white" stroke-miterlimit="10" stroke-linecap="round" stroke-linejoin="round"/>
<path d="M59.176 7.66713C58.0537 6.45777 56.438 5.70312 54.6578 5.70312C51.2328 5.70312 48.4658 8.47015 48.4658 11.8951C48.4658 12.253 48.4755 12.611 48.5045 12.9593C48.6013 14.3235 48.8818 15.5909 49.2785 16.7519C50.9523 21.7732 54.6578 24.8498 54.6578 24.8498C54.6578 24.8498 57.5506 22.4504 59.3888 18.4353C60.2402 16.5777 60.8594 14.3622 60.8594 11.8951C60.8594 10.26 60.2305 8.77975 59.176 7.66713ZM57.2894 12.7852C56.912 13.8881 55.8768 14.6718 54.6578 14.6718C54.3578 14.6718 54.0579 14.6234 53.787 14.5267C52.6841 14.1687 51.8907 13.1335 51.8907 11.9048C51.8907 11.6822 51.9198 11.4597 51.9778 11.2469C52.2681 10.0375 53.3613 9.13772 54.6578 9.13772C55.0544 9.13772 55.4318 9.2248 55.7704 9.36024C56.7572 9.78594 57.4442 10.7728 57.4442 11.9048C57.4442 12.2047 57.3958 12.5046 57.2894 12.7852Z" stroke="white" stroke-miterlimit="10" stroke-linecap="round" stroke-linejoin="round"/>
<path d="M57.4427 11.8941C57.4427 12.2037 57.3943 12.5036 57.2975 12.7842C56.9202 13.8871 55.885 14.6708 54.666 14.6708C54.366 14.6708 54.0661 14.6224 53.7952 14.5257C52.6923 14.1677 51.8989 13.1325 51.8989 11.9037C51.8989 11.6812 51.9279 11.4587 51.986 11.2459C52.2762 10.0365 53.3695 9.13672 54.666 9.13672C55.0626 9.13672 55.4399 9.22379 55.7786 9.35924C56.7557 9.77526 57.4427 10.7621 57.4427 11.8941Z" stroke="white" stroke-miterlimit="10" stroke-linecap="round" stroke-linejoin="round"/>
<path d="M13.2106 7.19286C13.2106 8.73118 11.9626 9.95989 10.4243 9.95989C8.90529 9.95989 7.65723 8.7215 7.65723 7.19286C7.65723 5.65455 8.90529 4.42584 10.4243 4.42584C11.9626 4.41616 13.2106 5.65455 13.2106 7.19286Z" stroke="white" stroke-miterlimit="10" stroke-linecap="round" stroke-linejoin="round"/>
</svg>
