<svg width="51" height="49" viewBox="0 0 51 49" fill="none" xmlns="http://www.w3.org/2000/svg">
<path d="M6.91095 15.0234V24.4601L1 19.7418L6.91095 15.0234Z" stroke="#252630" stroke-miterlimit="10" stroke-linecap="round" stroke-linejoin="round"/>
<path d="M35.8997 8.81743H14.6934L23.8688 1.49621C24.6958 0.834598 25.8885 0.834598 26.7242 1.49621L35.8997 8.81743Z" stroke="#252630" stroke-miterlimit="10" stroke-linecap="round" stroke-linejoin="round"/>
<path d="M49.5926 19.7418L43.6816 24.4601V15.0234L49.5926 19.7418Z" stroke="#252630" stroke-miterlimit="10" stroke-linecap="round" stroke-linejoin="round"/>
<path d="M49.5934 48.0699H1L18.7416 33.9062L23.869 37.9978C24.696 38.6594 25.88 38.6594 26.707 37.9978L31.8345 33.9062L49.5934 48.0699Z" stroke="#252630" stroke-miterlimit="10" stroke-linecap="round" stroke-linejoin="round"/>
<path d="M18.7503 33.9058L1 48.0695V19.7422L18.7503 33.9058Z" stroke="#252630" stroke-miterlimit="10" stroke-linecap="round" stroke-linejoin="round"/>
<path d="M49.594 19.7422V48.0695L31.8438 33.9058L49.594 19.7422Z" stroke="#252630" stroke-miterlimit="10" stroke-linecap="round" stroke-linejoin="round"/>
<path d="M25.6372 17.0434L36.1446 12.3164V25.7836L25.6372 33.9058L15.1211 25.7836V12.3164L25.6372 17.0434Z" stroke="#252630" stroke-miterlimit="10" stroke-linecap="round" stroke-linejoin="round"/>
<path d="M43.6817 8.81836V24.4619L31.8424 33.9073L26.7236 37.9988C25.8966 38.6604 24.7127 38.6604 23.8682 37.9988L18.7495 33.9073L6.91016 24.4619V8.81836H43.6817Z" stroke="#252630" stroke-miterlimit="10" stroke-linecap="round" stroke-linejoin="round"/>
<path d="M27.2125 21.4053L30.2942 19.0723H20.9707V26.9768" stroke="#252630" stroke-miterlimit="10" stroke-linecap="round" stroke-linejoin="round"/>
<path d="M20.9707 23.7286H30.2942L27.2125 21.4043" stroke="#252630" stroke-miterlimit="10" stroke-linecap="round" stroke-linejoin="round"/>
<path d="M18.4102 38.3711L25.2961 43.603" stroke="#252630" stroke-miterlimit="10" stroke-linecap="round" stroke-linejoin="round"/>
<path d="M32.1828 38.3711L25.2969 43.603" stroke="#252630" stroke-miterlimit="10" stroke-linecap="round" stroke-linejoin="round"/>
<path d="M30.2942 12.3164L25.6368 14.4144L20.9707 12.3164" stroke="#252630" stroke-miterlimit="10" stroke-linecap="round" stroke-linejoin="round"/>
</svg>
