<svg width="40" height="58" viewBox="0 0 40 58" fill="none" xmlns="http://www.w3.org/2000/svg">
<path d="M32.9805 23.9995C35.2007 23.9995 36.9939 25.8273 36.9939 28.0902C36.9939 30.3531 35.2007 32.1808 32.9805 32.1808" stroke="#333333" stroke-miterlimit="10" stroke-linecap="round" stroke-linejoin="round"/>
<path d="M16.0273 5.09066C16.0273 2.82774 17.8206 1 20.0408 1C22.261 1 24.0543 2.82774 24.0543 5.09066" stroke="#333333" stroke-miterlimit="10" stroke-linecap="round" stroke-linejoin="round"/>
<path d="M34.9844 32.1592C37.2046 32.1592 38.9979 33.9869 38.9979 36.2498C38.9979 38.5128 37.2046 40.3405 34.9844 40.3405" stroke="#333333" stroke-miterlimit="10" stroke-linecap="round" stroke-linejoin="round"/>
<path d="M33.6641 40.3193C35.8843 40.3193 37.6775 42.1471 37.6775 44.41C37.6775 46.6729 35.8843 48.5007 33.6641 48.5007" stroke="#333333" stroke-miterlimit="10" stroke-linecap="round" stroke-linejoin="round"/>
<path d="M30.9727 48.479C33.1929 48.479 34.9861 50.3067 34.9861 52.5697C34.9861 54.8326 33.1929 56.6603 30.9727 56.6603" stroke="#333333" stroke-miterlimit="10" stroke-linecap="round" stroke-linejoin="round"/>
<path d="M24.0332 5.09473C24.0332 18.1065 17.9062 24.0032 17.9062 24.0032H32.9568" stroke="#333333" stroke-miterlimit="10" stroke-linecap="round" stroke-linejoin="round"/>
<path d="M33.7276 32.1592H24.3984" stroke="#333333" stroke-miterlimit="10" stroke-linecap="round" stroke-linejoin="round"/>
<path d="M34.9872 40.3193H24.3984" stroke="#333333" stroke-miterlimit="10" stroke-linecap="round" stroke-linejoin="round"/>
<path d="M33.6636 48.479H24.3984" stroke="#333333" stroke-miterlimit="10" stroke-linecap="round" stroke-linejoin="round"/>
<path d="M30.973 56.6418C19.1247 56.6418 10.5854 56.6418 1 50.397" stroke="#333333" stroke-miterlimit="10" stroke-linecap="round" stroke-linejoin="round"/>
<path d="M16.0292 5.09473C14.8764 17.7584 6.48651 20.1954 1 24.8953" stroke="#333333" stroke-miterlimit="10" stroke-linecap="round" stroke-linejoin="round"/>
</svg>
