<svg width="52" height="52" viewBox="0 0 52 52" fill="none" xmlns="http://www.w3.org/2000/svg">
<path d="M31.8897 5.30615C31.8897 6.42864 30.8595 7.27051 29.5718 7.27051C28.2841 7.27051 27.2539 6.42864 27.2539 5.30615C27.2539 4.18366 28.2841 3.3418 29.5718 3.3418C30.8595 3.3418 31.8897 4.18366 31.8897 5.30615Z" stroke="#333333" stroke-miterlimit="10" stroke-linecap="round" stroke-linejoin="round"/>
<path d="M26.8575 36.3334H10.3892C10.055 36.3334 9.7832 35.9385 9.7832 35.4531V39.2377C9.7832 39.7231 10.055 40.118 10.3892 40.118H26.8575C27.1917 40.118 27.4635 39.7231 27.4635 39.2377V35.4531C27.4635 35.9385 27.1917 36.3334 26.8575 36.3334Z" stroke="#333333" stroke-miterlimit="10" stroke-linecap="round" stroke-linejoin="round"/>
<path d="M27.4635 24.3214V35.4694C27.4635 35.9548 27.1917 36.3415 26.8632 36.3415H10.3948C10.0607 36.3415 9.7832 35.9466 9.7832 35.4694V24.3214C9.7832 23.9101 9.97575 23.5728 10.2419 23.4823C10.2872 23.4576 10.3439 23.4493 10.3948 23.4493H26.8632C27.1973 23.4411 27.4635 23.836 27.4635 24.3214Z" stroke="#333333" stroke-miterlimit="10" stroke-linecap="round" stroke-linejoin="round"/>
<path d="M11.4434 25.3027H26.2411V32.7402" stroke="#333333" stroke-miterlimit="10" stroke-linecap="round" stroke-linejoin="round"/>
<path d="M15.4938 40.1387C17.2607 40.1387 18.0535 44.4662 14.4688 44.4662" stroke="#333333" stroke-miterlimit="10" stroke-linecap="round" stroke-linejoin="round"/>
<path d="M21.9172 40.1387C20.1503 40.1387 19.3574 44.4662 22.9422 44.4662" stroke="#333333" stroke-miterlimit="10" stroke-linecap="round" stroke-linejoin="round"/>
<path d="M36.0929 44.5293H1.29297V46.8247H36.0929V44.5293Z" stroke="#333333" stroke-miterlimit="10" stroke-linecap="round" stroke-linejoin="round"/>
<path d="M7.56234 33.3066C7.37546 33.3066 3.04883 33.3066 3.04883 33.3066C3.04883 33.3066 3.7907 41.2131 5.69917 44.4628" stroke="#333333" stroke-miterlimit="10" stroke-linecap="round" stroke-linejoin="round"/>
<path d="M10.9292 40.1387C10.5385 41.7841 10.0288 43.3884 9.39453 44.4662" stroke="#333333" stroke-miterlimit="10" stroke-linecap="round" stroke-linejoin="round"/>
<path d="M7.53906 33.3066C7.62967 33.3066 8.72832 33.3066 9.8213 33.3066" stroke="#333333" stroke-miterlimit="10" stroke-linecap="round" stroke-linejoin="round"/>
<path d="M17.0059 38.2832H20.3414" stroke="#333333" stroke-miterlimit="10" stroke-linecap="round" stroke-linejoin="round"/>
<path d="M7.34642 31.2962C7.35775 32.012 7.43703 32.6866 7.58427 33.3201C6.99531 32.1271 6.61022 30.4817 6.38935 28.5894C6.23645 27.2401 6.16849 25.7675 6.17415 24.2454V24.2289C6.18548 22.5917 6.28742 20.9051 6.46297 19.2761V19.2597C6.70083 16.9725 7.09158 14.7593 7.57861 12.9082C8.04865 14.6853 8.42808 16.7833 8.66593 18.9799C8.14492 21.3823 7.73151 23.8505 7.50499 26.1624C7.50499 26.1706 7.49933 26.1706 7.50499 26.1788C7.42571 26.9686 7.36907 27.7585 7.3351 28.4989V28.5154C7.32943 28.5154 7.32943 28.5154 7.3351 28.5236V28.5318C7.28979 29.4533 7.28413 30.3171 7.32943 31.1234L7.3351 31.1316C7.32943 31.1563 7.3351 31.1892 7.3351 31.2139C7.3351 31.2386 7.3351 31.2715 7.34642 31.2962Z" stroke="#333333" stroke-miterlimit="10" stroke-linecap="round" stroke-linejoin="round"/>
<path d="M7.25995 31.1994C7.24861 31.2158 7.24861 31.2323 7.24861 31.2405C7.24861 31.2158 7.24295 31.1829 7.24861 31.1582C7.24861 31.1664 7.24861 31.1911 7.25995 31.1994Z" stroke="#333333" stroke-miterlimit="10" stroke-linecap="round" stroke-linejoin="round"/>
<path d="M7.5816 33.3774C7.4287 32.7357 7.35508 32.0611 7.34375 31.3535C7.37773 32.094 7.46268 32.7768 7.5816 33.3774Z" stroke="#333333" stroke-miterlimit="10" stroke-linecap="round" stroke-linejoin="round"/>
<path d="M7.54991 33.3719C6.81937 31.9733 6.17943 29.8671 5.6471 27.3989C5.18272 25.2269 4.79763 22.7834 4.51447 20.2905C4.08974 16.58 3.8802 12.779 3.93683 9.68555C4.85992 12.3676 5.74337 15.7984 6.42861 19.3115V19.3279C6.25305 20.9652 6.15112 22.6517 6.13979 24.2807V24.2972C6.13413 25.8193 6.20209 27.2919 6.35499 28.6412C6.57585 30.5335 6.95528 32.1789 7.54991 33.3719Z" stroke="#333333" stroke-miterlimit="10" stroke-linecap="round" stroke-linejoin="round"/>
<path d="M7.25995 31.1994C7.24861 31.2158 7.24861 31.2323 7.24861 31.2405C7.24861 31.2158 7.24295 31.1829 7.24861 31.1582C7.24861 31.1664 7.24861 31.1911 7.25995 31.1994Z" stroke="#333333" stroke-miterlimit="10" stroke-linecap="round" stroke-linejoin="round"/>
<path d="M7.5816 33.3774C7.4287 32.7357 7.35508 32.0611 7.34375 31.3535C7.37773 32.094 7.46268 32.7768 7.5816 33.3774Z" stroke="#333333" stroke-miterlimit="10" stroke-linecap="round" stroke-linejoin="round"/>
<path d="M7.54632 33.3221C5.75677 31.9235 4.19941 28.3364 3.15739 24.3133C2.3872 21.3843 1.89451 18.2333 1.78125 15.543C2.72133 16.8182 3.66707 18.4472 4.51088 20.2325C4.79404 22.7254 5.17913 25.1689 5.6435 27.3409C6.17584 29.8173 6.81577 31.9317 7.54632 33.3221Z" stroke="#333333" stroke-miterlimit="10" stroke-linecap="round" stroke-linejoin="round"/>
<path d="M7.25995 31.1994C7.24861 31.2158 7.24861 31.2323 7.24861 31.2405C7.24861 31.2158 7.24295 31.1829 7.24861 31.1582C7.24861 31.1664 7.24861 31.1911 7.25995 31.1994Z" stroke="#333333" stroke-miterlimit="10" stroke-linecap="round" stroke-linejoin="round"/>
<path d="M7.5816 33.3774C7.4287 32.7357 7.35508 32.0611 7.34375 31.3535C7.37773 32.094 7.46268 32.7768 7.5816 33.3774Z" stroke="#333333" stroke-miterlimit="10" stroke-linecap="round" stroke-linejoin="round"/>
<path d="M7.54658 33.3541C4.6867 33.0826 1.81549 27.4634 1 22.7656C1.71355 23.1523 2.4441 23.6953 3.15199 24.3535C4.19967 28.3766 5.75703 31.9637 7.54658 33.3541Z" stroke="#333333" stroke-miterlimit="10" stroke-linecap="round" stroke-linejoin="round"/>
<path d="M7.25995 31.1994C7.24861 31.2158 7.24861 31.2323 7.24861 31.2405C7.24861 31.2158 7.24295 31.1829 7.24861 31.1582C7.24861 31.1664 7.24861 31.1911 7.25995 31.1994Z" stroke="#333333" stroke-miterlimit="10" stroke-linecap="round" stroke-linejoin="round"/>
<path d="M7.5816 33.3774C7.4287 32.7357 7.35508 32.0611 7.34375 31.3535C7.37773 32.094 7.46268 32.7768 7.5816 33.3774Z" stroke="#333333" stroke-miterlimit="10" stroke-linecap="round" stroke-linejoin="round"/>
<path d="M10.6922 19.8498C10.579 21.0757 10.4374 22.2933 10.2675 23.4945C10.0013 23.585 9.80879 23.9223 9.80879 24.3337V26.2424C9.23682 29.2043 8.47229 31.7712 7.53788 33.3261C7.41895 32.7255 7.33967 32.0427 7.30003 31.3022C7.28304 31.2693 7.28304 31.2364 7.28304 31.2117C7.28304 31.2035 7.28304 31.187 7.2887 31.1624C7.28304 31.1624 7.28304 31.1377 7.28304 31.1295L7.27737 31.1212C7.23207 30.3149 7.23773 29.4511 7.28304 28.5296V28.5214C7.28304 28.5214 7.28304 28.5214 7.28304 28.5132V28.4967C7.31702 27.7563 7.37365 26.9747 7.45293 26.1766C7.44727 26.1684 7.45293 26.1684 7.45293 26.1602C7.67946 23.8483 8.09286 21.3801 8.61387 18.9778C9.25947 15.9912 10.0863 13.1282 10.9527 10.8574C11.0773 13.4984 10.9867 16.6906 10.6922 19.8498Z" stroke="#333333" stroke-miterlimit="10" stroke-linecap="round" stroke-linejoin="round"/>
<path d="M7.25995 31.1994C7.24861 31.2158 7.24861 31.2323 7.24861 31.2405C7.24861 31.2158 7.24295 31.1829 7.24861 31.1582C7.24861 31.1664 7.24861 31.1911 7.25995 31.1994Z" stroke="#333333" stroke-miterlimit="10" stroke-linecap="round" stroke-linejoin="round"/>
<path d="M12.8992 16.8105C12.9501 18.892 12.7463 21.2204 12.3215 23.4746H10.4244C10.3734 23.4746 10.3168 23.4829 10.2715 23.5076C10.4414 22.3146 10.583 21.0887 10.6962 19.8629C11.3928 18.6946 12.1403 17.6497 12.8992 16.8105Z" stroke="#333333" stroke-miterlimit="10" stroke-linecap="round" stroke-linejoin="round"/>
<path d="M9.80998 26.2793V30.8701C9.14173 32.0219 8.37721 32.894 7.53906 33.363C8.47348 31.808 9.238 29.2411 9.80998 26.2793Z" stroke="#333333" stroke-miterlimit="10" stroke-linecap="round" stroke-linejoin="round"/>
<path d="M7.5816 33.3774C7.4287 32.7357 7.35508 32.0611 7.34375 31.3535C7.37773 32.094 7.46268 32.7768 7.5816 33.3774Z" stroke="#333333" stroke-miterlimit="10" stroke-linecap="round" stroke-linejoin="round"/>
<path d="M18.8613 20.69V13.5898H45.7499V50.9993H18.8613V46.8116" stroke="#333333" stroke-miterlimit="10" stroke-linecap="round" stroke-linejoin="round"/>
<path d="M50.9968 1V44.4894H45.764V13.5631H36.1367V1H50.9968Z" stroke="#333333" stroke-miterlimit="10" stroke-linecap="round" stroke-linejoin="round"/>
<path d="M42.9695 21.4554V17.8848H38.0879V21.4554" stroke="#333333" stroke-miterlimit="10" stroke-linecap="round" stroke-linejoin="round"/>
<path d="M35.2642 21.4554V17.8848H30.377V21.4554" stroke="#333333" stroke-miterlimit="10" stroke-linecap="round" stroke-linejoin="round"/>
<path d="M42.9695 31.6058V28.0352H38.0879V31.6058" stroke="#333333" stroke-miterlimit="10" stroke-linecap="round" stroke-linejoin="round"/>
<path d="M35.2642 31.6058V28.0352H30.377V31.6058" stroke="#333333" stroke-miterlimit="10" stroke-linecap="round" stroke-linejoin="round"/>
<path d="M42.9695 41.6585V38.0879H38.0879V41.6585" stroke="#333333" stroke-miterlimit="10" stroke-linecap="round" stroke-linejoin="round"/>
<path d="M35.2642 41.6585V38.0879H30.377V41.6585" stroke="#333333" stroke-miterlimit="10" stroke-linecap="round" stroke-linejoin="round"/>
<path d="M45.764 11.1504H36.1367" stroke="#333333" stroke-miterlimit="10" stroke-linecap="round" stroke-linejoin="round"/>
<path d="M45.764 8.71094H36.1367" stroke="#333333" stroke-miterlimit="10" stroke-linecap="round" stroke-linejoin="round"/>
<path d="M45.764 6.26953H36.1367" stroke="#333333" stroke-miterlimit="10" stroke-linecap="round" stroke-linejoin="round"/>
<path d="M49.1172 6.26953V10.9344" stroke="#333333" stroke-miterlimit="10" stroke-linecap="round" stroke-linejoin="round"/>
<path d="M49.1172 17.4941V22.159" stroke="#333333" stroke-miterlimit="10" stroke-linecap="round" stroke-linejoin="round"/>
<path d="M49.1172 28.6211V33.2777" stroke="#333333" stroke-miterlimit="10" stroke-linecap="round" stroke-linejoin="round"/>
<path d="M49.1172 39.8457V44.5106" stroke="#333333" stroke-miterlimit="10" stroke-linecap="round" stroke-linejoin="round"/>
</svg>
