<svg width="58" height="65" viewBox="0 0 58 65" fill="none" xmlns="http://www.w3.org/2000/svg">
<path d="M22.5068 4.9375C27.7177 7.0989 31.3771 12.2242 31.3771 18.2055" stroke="#333333" stroke-miterlimit="10" stroke-linecap="round" stroke-linejoin="round"/>
<path d="M2.64746 18.2055C2.64746 12.2135 6.30686 7.0882 11.5178 4.9375" stroke="#333333" stroke-miterlimit="10" stroke-linecap="round" stroke-linejoin="round"/>
<path d="M22.5075 1.8988V18.2056H11.5186V1.8988C13.2413 1.3103 15.0924 1 17.0077 1C18.9337 1 20.7741 1.3103 22.5075 1.8988Z" stroke="#333333" stroke-miterlimit="10" stroke-linecap="round" stroke-linejoin="round"/>
<path d="M33.0251 18.207V21.0532H29.783V23.3965H24.2404V27.195H1.01074V18.207H33.0251Z" stroke="#333333" stroke-miterlimit="10" stroke-linecap="round" stroke-linejoin="round"/>
<path d="M4.83008 27.1953V46.7335L13.4115 53.6029H17.0174" stroke="#333333" stroke-miterlimit="10" stroke-linecap="round" stroke-linejoin="round"/>
<path d="M24.2401 50.7031L20.6128 53.6028H17.0176" stroke="#333333" stroke-miterlimit="10" stroke-linecap="round" stroke-linejoin="round"/>
<path d="M4.8306 30.9609H1V36.9636L4.7985 40.7621" stroke="#333333" stroke-miterlimit="10" stroke-linecap="round" stroke-linejoin="round"/>
<path d="M47.5452 21.0508H29.7832V25.7374H47.5452V21.0508Z" stroke="#333333" stroke-miterlimit="10" stroke-linecap="round" stroke-linejoin="round"/>
<path d="M53.0981 23.3945V60.8659H24.2402V23.3945H29.7828V25.7378H47.5555V23.3945H53.0981Z" stroke="#333333" stroke-miterlimit="10" stroke-linecap="round" stroke-linejoin="round"/>
<path d="M53.0979 26.8086H56.5112V64.28H27.6533V60.8667" stroke="#333333" stroke-miterlimit="10" stroke-linecap="round" stroke-linejoin="round"/>
<path d="M38.6747 34.2109L30.4678 39.914" stroke="#333333" stroke-miterlimit="10" stroke-linecap="round" stroke-linejoin="round"/>
<path d="M38.6748 34.2109L46.871 39.914V50.0576" stroke="#333333" stroke-miterlimit="10" stroke-linecap="round" stroke-linejoin="round"/>
<path d="M36.4384 36.0508L41.9917 39.9135V50.0571H30.4678V44.8248" stroke="#333333" stroke-miterlimit="10" stroke-linecap="round" stroke-linejoin="round"/>
</svg>
