<svg width="54" height="52" viewBox="0 0 54 52" fill="none" xmlns="http://www.w3.org/2000/svg">
<path d="M15.9043 13.3301V13.8211C15.9043 14.2378 16.0382 14.647 16.2763 14.9819" stroke="#252630" stroke-miterlimit="10" stroke-linecap="round" stroke-linejoin="round"/>
<path d="M25.1445 10.389V10.1211" stroke="#252630" stroke-miterlimit="10" stroke-linecap="round" stroke-linejoin="round"/>
<path d="M25.1443 7.54027V10.0477H25.0848C25.003 9.80962 24.8318 9.60128 24.6086 9.46736L23.9911 9.11021V10.0477H19.2738C18.4479 10.0477 17.756 9.37807 17.756 8.55218C17.756 9.17718 17.3616 9.71289 16.811 9.94355C16.6324 10.0031 16.4464 10.0477 16.2455 10.0477H15.9033V9.11021L15.2857 9.46736C15.0625 9.60128 14.8914 9.80962 14.8095 10.0477H14.75V7.54027C14.75 7.48819 14.75 7.43611 14.7574 7.38402C14.8467 5.88849 16.0744 4.71289 17.5848 4.71289H20.6205C21.4539 4.71289 22.1384 5.38253 22.1384 6.20099C22.1384 5.58343 22.2574 4.81706 23.0833 4.81706C24.4449 4.81706 25.0699 6.15634 25.1295 7.38402C25.1443 7.43611 25.1443 7.48819 25.1443 7.54027Z" stroke="#252630" stroke-miterlimit="10" stroke-linecap="round" stroke-linejoin="round"/>
<path d="M18.6337 18.7815C18.6188 18.7146 18.6113 18.6476 18.6113 18.5732C18.6113 18.5658 18.6113 18.5583 18.6113 18.5509L18.6485 17.2637" stroke="#252630" stroke-miterlimit="10" stroke-linecap="round" stroke-linejoin="round"/>
<path d="M21.2539 17.2637L21.2837 18.5509C21.2837 18.6253 21.2762 18.7071 21.2613 18.7815" stroke="#252630" stroke-miterlimit="10" stroke-linecap="round" stroke-linejoin="round"/>
<path d="M16.2889 22.6582L15.8945 23.8636" stroke="#252630" stroke-miterlimit="10" stroke-linecap="round" stroke-linejoin="round"/>
<path d="M23.6055 22.6582L23.9998 23.8636" stroke="#252630" stroke-miterlimit="10" stroke-linecap="round" stroke-linejoin="round"/>
<path d="M15.9033 9.11133V13.3301L15.2857 12.9655C14.9807 12.7944 14.7946 12.4893 14.7649 12.1545C14.75 12.1173 14.75 12.0801 14.75 12.0429V10.3985C14.75 10.3613 14.75 10.3241 14.7574 10.2869C14.7649 10.2051 14.7798 10.1232 14.8095 10.0488C14.8914 9.81073 15.0625 9.6024 15.2857 9.46847L15.9033 9.11133Z" stroke="#252630" stroke-miterlimit="10" stroke-linecap="round" stroke-linejoin="round"/>
<path d="M25.1455 10.3985V12.0429C25.1455 12.0801 25.1455 12.1173 25.138 12.1545C25.1008 12.4893 24.9148 12.7944 24.6097 12.9655L23.9922 13.3301V9.11133L24.6097 9.46847C24.833 9.6024 25.0041 9.81073 25.0859 10.0488C25.1157 10.1232 25.1306 10.2051 25.138 10.2869C25.1455 10.3241 25.1455 10.3613 25.1455 10.3985Z" stroke="#252630" stroke-miterlimit="10" stroke-linecap="round" stroke-linejoin="round"/>
<path d="M14.7653 12.1527C14.7578 12.1527 14.7578 12.1527 14.7504 12.1527C14.237 12.1527 13.8203 11.736 13.8203 11.2152C13.8203 10.7018 14.237 10.2852 14.7504 10.2852H14.7578C14.7504 10.3224 14.7504 10.3596 14.7504 10.3968V12.0411C14.7504 12.0783 14.7504 12.1155 14.7653 12.1527Z" stroke="#252630" stroke-miterlimit="10" stroke-linecap="round" stroke-linejoin="round"/>
<path d="M26.0738 11.2152C26.0738 11.736 25.6572 12.1527 25.1438 12.1527H25.1289C25.1438 12.1155 25.1438 12.0783 25.1438 12.0411V10.3968C25.1438 10.3596 25.1438 10.3224 25.1363 10.2852H25.1438C25.6572 10.2852 26.0738 10.7018 26.0738 11.2152Z" stroke="#252630" stroke-miterlimit="10" stroke-linecap="round" stroke-linejoin="round"/>
<path d="M18.6117 15.6123V14.7715L19.951 15.2328V16.2521L16.2754 14.9798" stroke="#252630" stroke-miterlimit="10" stroke-linecap="round" stroke-linejoin="round"/>
<path d="M28.9834 25.4563V28.4176H3.28404C2.0638 28.4176 1.07422 27.428 1.07422 26.2152V23.2539C1.07422 24.2137 1.69922 25.0322 2.56231 25.3372C2.78553 25.4116 3.03106 25.4563 3.28404 25.4563H28.9834V25.4563Z" stroke="#252630" stroke-miterlimit="10" stroke-linecap="round" stroke-linejoin="round"/>
<path d="M36.6174 1H3.28404C2.0638 1 1.07422 1.98958 1.07422 3.20238V23.247C1.07422 24.2068 1.69922 25.0253 2.56231 25.3304C2.78553 25.4048 3.03106 25.4494 3.28404 25.4494H28.9834V9.02083C28.9834 7.99405 29.8168 7.16071 30.8436 7.16071H38.8198V3.20982C38.8198 1.99702 37.8376 1 36.6174 1ZM14.7498 10.0476V7.54018C14.7498 7.4881 14.7498 7.43601 14.7573 7.38393C14.8465 5.88839 16.0742 4.7128 17.5846 4.7128H20.6203C21.4537 4.7128 22.1382 5.38244 22.1382 6.20089C22.1382 5.58333 22.2573 4.81697 23.0831 4.81697C24.4448 4.81697 25.0698 6.15625 25.1293 7.38393C25.1442 7.43601 25.1442 7.4881 25.1442 7.54018V10.0476H25.0846C25.1144 10.122 25.1293 10.2039 25.1367 10.2857H25.1442C25.6576 10.2857 26.0742 10.7024 26.0742 11.2158C26.0742 11.7366 25.6576 12.1533 25.1442 12.1533H25.1367C25.0995 12.4881 24.9135 12.7932 24.6084 12.9643L23.9909 13.3289V13.8199C23.9909 14.3631 23.7677 14.8914 23.3808 15.2634L21.4537 17.1012C21.2081 17.3318 20.8733 17.4732 20.5236 17.4732H19.3703C19.1099 17.4732 18.857 17.3988 18.6486 17.2649C18.5742 17.2128 18.5073 17.1607 18.4403 17.1012L16.5132 15.2634C16.4239 15.1741 16.3421 15.0848 16.2751 14.9807L14.8614 14.497C14.2364 14.2813 13.8198 13.7009 13.8198 13.0387V11.2158C13.8198 10.7024 14.2364 10.2857 14.7498 10.2857H14.7573C14.7647 10.2039 14.7796 10.122 14.8093 10.0476H14.7498ZM12.6293 23.872C12.6367 23.4256 13.0608 21.5952 13.8049 20.3899C14.229 19.6979 14.7126 19.2961 15.7394 19.1176L18.6337 18.7827C18.6933 19.1845 18.9314 19.5417 19.2959 19.7426C19.6977 19.9732 20.1962 19.9732 20.598 19.7426H20.6055C20.9626 19.5417 21.2007 19.1845 21.2602 18.7827L24.1546 19.1176C25.1814 19.2961 25.665 19.6979 26.0891 20.3899C26.8332 21.5952 27.2573 23.4256 27.2647 23.872H12.6293Z" stroke="#252630" stroke-miterlimit="10" stroke-linecap="round" stroke-linejoin="round"/>
<path d="M13.8203 13.0388V11.2159C13.8203 10.7025 14.237 10.2858 14.7504 10.2858H14.7578C14.7653 10.204 14.7801 10.1221 14.8099 10.0477H14.7504V7.54027C14.7504 7.48819 14.7504 7.43611 14.7578 7.38402C14.8471 5.88849 16.0748 4.71289 17.5852 4.71289H20.6209C21.4542 4.71289 22.1388 5.38253 22.1388 6.20099C22.1388 5.58343 22.2578 4.81706 23.0837 4.81706C24.4453 4.81706 25.0703 6.15634 25.1298 7.38402C25.1447 7.43611 25.1447 7.48819 25.1447 7.54027V10.0477H25.0852C25.115 10.1221 25.1298 10.204 25.1373 10.2858H25.1447C25.6581 10.2858 26.0748 10.7025 26.0748 11.2159C26.0748 11.7367 25.6581 12.1534 25.1447 12.1534H25.1373C25.1001 12.4882 24.9141 12.7932 24.609 12.9644L23.9914 13.329V13.82C23.9914 14.3632 23.7682 14.8915 23.3813 15.2635L21.4542 17.1013C21.2087 17.3319 20.8739 17.4733 20.5242 17.4733H19.3709C19.1105 17.4733 18.8575 17.3989 18.6492 17.265C18.5748 17.2129 18.5078 17.1608 18.4408 17.1013L16.5138 15.2635C16.4245 15.1742 16.3426 15.0849 16.2757 14.9807L14.862 14.4971C14.237 14.2813 13.8203 13.701 13.8203 13.0388Z" stroke="#252630" stroke-miterlimit="10" stroke-linecap="round" stroke-linejoin="round"/>
<path d="M27.2663 23.8725H12.6309C12.6383 23.4261 13.0624 21.5957 13.8065 20.3903C14.2306 19.6984 14.7142 19.2966 15.741 19.118L18.6353 18.7832C18.6948 19.185 18.9329 19.5421 19.2975 19.743C19.6993 19.9737 20.1978 19.9737 20.5996 19.743H20.607C20.9642 19.5421 21.2023 19.185 21.2618 18.7832L24.1562 19.118C25.1829 19.2966 25.6666 19.6984 26.0907 20.3903C26.8347 21.5957 27.2588 23.4261 27.2663 23.8725Z" stroke="#252630" stroke-miterlimit="10" stroke-linecap="round" stroke-linejoin="round"/>
<path d="M18.6113 26.9434H21.2825" stroke="#252630" stroke-miterlimit="10" stroke-linecap="round" stroke-linejoin="round"/>
<path d="M53.4545 44.1543V47.2942C53.4545 48.321 52.6212 49.1543 51.5944 49.1543H30.8429C29.8757 49.1543 29.0795 48.4177 28.9902 47.4727H34.0721C34.6004 47.4727 35.0319 47.0486 35.0319 46.5204V46.0144H51.5944C52.6212 46.0144 53.4545 45.1811 53.4545 44.1543Z" stroke="#252630" stroke-miterlimit="10" stroke-linecap="round" stroke-linejoin="round"/>
<path d="M53.4541 9.02028V12.1602C53.4541 11.1334 52.6208 10.3 51.594 10.3H30.8425C29.8158 10.3 28.9824 11.1334 28.9824 12.1602V9.02028C28.9824 7.99349 29.8158 7.16016 30.8425 7.16016H51.594C52.6208 7.16016 53.4541 7.99349 53.4541 9.02028Z" stroke="#252630" stroke-miterlimit="10" stroke-linecap="round" stroke-linejoin="round"/>
<path d="M41.2371 12.0723C39.0049 12.0723 37.1895 13.8803 37.1895 16.1199C37.1895 16.8565 37.3903 17.5485 37.7326 18.1437C38.432 16.9383 39.7415 16.1199 41.2371 16.1199C42.7401 16.1199 44.0421 16.9383 44.7415 18.1437C45.0912 17.5485 45.2921 16.8565 45.2921 16.1199C45.2921 13.8803 43.4767 12.0723 41.2371 12.0723ZM41.2371 15.8967C40.5228 15.8967 39.9424 15.3163 39.9424 14.602C39.9424 13.8803 40.5228 13.2999 41.2371 13.2999C41.9588 13.2999 42.5392 13.8803 42.5392 14.602C42.5392 15.3163 41.9588 15.8967 41.2371 15.8967Z" stroke="#252630" stroke-miterlimit="10" stroke-linecap="round" stroke-linejoin="round"/>
<path d="M44.7413 18.1429C44.0419 19.3557 42.7399 20.1742 41.2369 20.1742C39.7413 20.1742 38.4318 19.3557 37.7324 18.1429C38.4318 16.9376 39.7413 16.1191 41.2369 16.1191C42.7399 16.1191 44.0419 16.9376 44.7413 18.1429Z" stroke="#252630" stroke-miterlimit="10" stroke-linecap="round" stroke-linejoin="round"/>
<path d="M41.2361 15.8959C41.9503 15.8959 42.5307 15.3156 42.5307 14.6013C42.5307 13.887 41.9503 13.3066 41.2361 13.3066C40.5218 13.3066 39.9414 13.887 39.9414 14.6013C39.9414 15.3081 40.5218 15.8959 41.2361 15.8959Z" stroke="#252630" stroke-miterlimit="10" stroke-linecap="round" stroke-linejoin="round"/>
<path d="M41.2371 24.0664C39.0049 24.0664 37.1895 25.8819 37.1895 28.1215C37.1895 28.8581 37.3903 29.55 37.7326 30.1453C38.432 28.9399 39.7415 28.1215 41.2371 28.1215C42.7401 28.1215 44.0421 28.9399 44.7415 30.1453C45.0912 29.55 45.2921 28.8581 45.2921 28.1215C45.2921 25.8819 43.4767 24.0664 41.2371 24.0664ZM41.2371 27.8982C40.5228 27.8982 39.9424 27.3179 39.9424 26.5962C39.9424 25.8819 40.5228 25.3015 41.2371 25.3015C41.9588 25.3015 42.5392 25.8819 42.5392 26.5962C42.5392 27.3179 41.9588 27.8982 41.2371 27.8982Z" stroke="#252630" stroke-miterlimit="10" stroke-linecap="round" stroke-linejoin="round"/>
<path d="M44.7413 30.143C44.0419 31.3557 42.7399 32.1668 41.2369 32.1668C39.7413 32.1668 38.4318 31.3557 37.7324 30.143C38.4318 28.9376 39.7413 28.1191 41.2369 28.1191C42.7399 28.1191 44.0419 28.9376 44.7413 30.143Z" stroke="#252630" stroke-miterlimit="10" stroke-linecap="round" stroke-linejoin="round"/>
<path d="M41.2361 27.8901C41.9503 27.8901 42.5307 27.3097 42.5307 26.5954C42.5307 25.8811 41.9503 25.3008 41.2361 25.3008C40.5218 25.3008 39.9414 25.8811 39.9414 26.5954C39.9414 27.3097 40.5218 27.8901 41.2361 27.8901Z" stroke="#252630" stroke-miterlimit="10" stroke-linecap="round" stroke-linejoin="round"/>
<path d="M41.2371 36.0684C39.0049 36.0684 37.1895 37.8838 37.1895 40.1234C37.1895 40.86 37.3903 41.552 37.7326 42.1472C38.432 40.9344 39.7415 40.1234 41.2371 40.1234C42.7401 40.1234 44.0421 40.9344 44.7415 42.1472C45.0912 41.552 45.2921 40.86 45.2921 40.1234C45.2921 37.8838 43.4767 36.0684 41.2371 36.0684ZM41.2371 39.9002C40.5228 39.9002 39.9424 39.3198 39.9424 38.5981C39.9424 37.8838 40.5228 37.3035 41.2371 37.3035C41.9588 37.3035 42.5392 37.8838 42.5392 38.5981C42.5392 39.3198 41.9588 39.9002 41.2371 39.9002Z" stroke="#252630" stroke-miterlimit="10" stroke-linecap="round" stroke-linejoin="round"/>
<path d="M44.7413 42.1469C44.0419 43.3596 42.7399 44.1707 41.2369 44.1707C39.7413 44.1707 38.4318 43.3596 37.7324 42.1469C38.4318 40.9341 39.7413 40.123 41.2369 40.123C42.7399 40.123 44.0419 40.9341 44.7413 42.1469Z" stroke="#252630" stroke-miterlimit="10" stroke-linecap="round" stroke-linejoin="round"/>
<path d="M41.2361 39.892C41.9503 39.892 42.5307 39.3117 42.5307 38.5974C42.5307 37.8831 41.9503 37.3027 41.2361 37.3027C40.5218 37.3027 39.9414 37.8831 39.9414 38.5974C39.9414 39.3117 40.5218 39.892 41.2361 39.892Z" stroke="#252630" stroke-miterlimit="10" stroke-linecap="round" stroke-linejoin="round"/>
<path d="M47.1598 22.1172H41.2372H35.2773" stroke="#252630" stroke-miterlimit="10" stroke-linecap="round" stroke-linejoin="round"/>
<path d="M47.1598 34.1191H41.2372H35.2773" stroke="#252630" stroke-miterlimit="10" stroke-linecap="round" stroke-linejoin="round"/>
<path d="M38.4102 47.5547H44.0277" stroke="#252630" stroke-miterlimit="10" stroke-linecap="round" stroke-linejoin="round"/>
<path d="M35.0343 37.0282V46.5222C35.0343 47.0505 34.6028 47.4746 34.0745 47.4746H27.8319L18.1668 51.0014V47.4746H15.079C14.5507 47.4746 14.1191 47.0505 14.1191 46.5222V43.494L19.4316 45.4359V41.9091H22.5194C23.0477 41.9091 23.4718 41.485 23.4718 40.9568V36.0684H34.0745C34.6028 36.0684 35.0343 36.4999 35.0343 37.0282Z" stroke="#252630" stroke-miterlimit="10" stroke-linecap="round" stroke-linejoin="round"/>
<path d="M23.4702 31.4618V40.9558C23.4702 41.4841 23.0461 41.9082 22.5179 41.9082H19.4301V45.435L14.1176 43.493L9.76488 41.9082H1.95982C1.43155 41.9082 1 41.4841 1 40.9558V31.4618C1 30.9335 1.43155 30.502 1.95982 30.502H22.5179C23.0461 30.502 23.4702 30.9335 23.4702 31.4618Z" stroke="#252630" stroke-miterlimit="10" stroke-linecap="round" stroke-linejoin="round"/>
<path d="M4.125 33.5977H20.3452" stroke="#252630" stroke-miterlimit="10" stroke-linecap="round" stroke-linejoin="round"/>
<path d="M4.125 36.0684H20.3452" stroke="#252630" stroke-miterlimit="10" stroke-linecap="round" stroke-linejoin="round"/>
<path d="M4.125 38.5293H20.3452" stroke="#252630" stroke-miterlimit="10" stroke-linecap="round" stroke-linejoin="round"/>
<path d="M23.4712 45.8154C24.0054 45.8154 24.4384 45.3823 24.4384 44.8481C24.4384 44.3139 24.0054 43.8809 23.4712 43.8809C22.937 43.8809 22.5039 44.3139 22.5039 44.8481C22.5039 45.3823 22.937 45.8154 23.4712 45.8154Z" stroke="#252630" stroke-miterlimit="10" stroke-linecap="round" stroke-linejoin="round"/>
<path d="M27.7485 45.8154C28.2827 45.8154 28.7158 45.3823 28.7158 44.8481C28.7158 44.3139 28.2827 43.8809 27.7485 43.8809C27.2143 43.8809 26.7812 44.3139 26.7812 44.8481C26.7812 45.3823 27.2143 45.8154 27.7485 45.8154Z" stroke="#252630" stroke-miterlimit="10" stroke-linecap="round" stroke-linejoin="round"/>
<path d="M32.02 45.8154C32.5542 45.8154 32.9873 45.3823 32.9873 44.8481C32.9873 44.3139 32.5542 43.8809 32.02 43.8809C31.4858 43.8809 31.0527 44.3139 31.0527 44.8481C31.0527 45.3823 31.4858 45.8154 32.02 45.8154Z" stroke="#252630" stroke-miterlimit="10" stroke-linecap="round" stroke-linejoin="round"/>
<path d="M28.9824 28.418V36.0668" stroke="#252630" stroke-miterlimit="10" stroke-linecap="round" stroke-linejoin="round"/>
<path d="M53.4551 12.1602V44.1542" stroke="#252630" stroke-miterlimit="10" stroke-linecap="round" stroke-linejoin="round"/>
</svg>
