<svg width="46" height="52" viewBox="0 0 46 52" fill="none" xmlns="http://www.w3.org/2000/svg">
<path d="M17.9941 4.11133C22.1115 5.81914 25.0029 9.86885 25.0029 14.5949" stroke="#333333" stroke-miterlimit="10" stroke-linecap="round" stroke-linejoin="round"/>
<path d="M2.30273 14.5949C2.30273 9.8604 5.19418 5.81069 9.31153 4.11133" stroke="#333333" stroke-miterlimit="10" stroke-linecap="round" stroke-linejoin="round"/>
<path d="M17.9933 1.71018V14.5949H9.31055V1.71018C10.6717 1.24518 12.1344 1 13.6477 1C15.1695 1 16.6237 1.24518 17.9933 1.71018Z" stroke="#333333" stroke-miterlimit="10" stroke-linecap="round" stroke-linejoin="round"/>
<path d="M26.3057 14.5957V16.8446H23.744V18.6961H19.3645V21.6975H1.00977V14.5957H26.3057Z" stroke="#333333" stroke-miterlimit="10" stroke-linecap="round" stroke-linejoin="round"/>
<path d="M4.02539 21.6973V37.1352L10.8059 42.563H13.6551" stroke="#333333" stroke-miterlimit="10" stroke-linecap="round" stroke-linejoin="round"/>
<path d="M19.363 40.2734L16.497 42.5646H13.6562" stroke="#333333" stroke-miterlimit="10" stroke-linecap="round" stroke-linejoin="round"/>
<path d="M4.02672 24.6738H1V29.4168L4.00135 32.4182" stroke="#333333" stroke-miterlimit="10" stroke-linecap="round" stroke-linejoin="round"/>
<path d="M37.7767 16.8438H23.7422V20.5468H37.7767V16.8438Z" stroke="#333333" stroke-miterlimit="10" stroke-linecap="round" stroke-linejoin="round"/>
<path d="M42.1651 18.6953V48.303H19.3633V18.6953H23.7427V20.5469H37.7857V18.6953H42.1651Z" stroke="#333333" stroke-miterlimit="10" stroke-linecap="round" stroke-linejoin="round"/>
<path d="M42.1654 21.3926H44.8624V51.0003H22.0605V48.3033" stroke="#333333" stroke-miterlimit="10" stroke-linecap="round" stroke-linejoin="round"/>
<path d="M30.7678 27.2402L24.2832 31.7465" stroke="#333333" stroke-miterlimit="10" stroke-linecap="round" stroke-linejoin="round"/>
<path d="M30.7676 27.2402L37.2437 31.7465V39.7614" stroke="#333333" stroke-miterlimit="10" stroke-linecap="round" stroke-linejoin="round"/>
<path d="M29.0008 28.6934L33.3887 31.7454V39.7603H24.2832V35.6261" stroke="#333333" stroke-miterlimit="10" stroke-linecap="round" stroke-linejoin="round"/>
</svg>
