<svg width="44" height="52" viewBox="0 0 44 52" fill="none" xmlns="http://www.w3.org/2000/svg">
<path d="M13.4421 13.4421V1L1 13.4421H13.4421Z" stroke="#333333" stroke-miterlimit="10" stroke-linecap="round" stroke-linejoin="round"/>
<path d="M33.9065 13.0587V1H13.4421L1 13.4421V40.5906H15.5182" stroke="#333333" stroke-miterlimit="10" stroke-linecap="round" stroke-linejoin="round"/>
<path d="M13.9623 37.7909H3.79883V20.2852" stroke="#333333" stroke-miterlimit="10" stroke-linecap="round" stroke-linejoin="round"/>
<path d="M16.8418 3.79883H31.0996V10.3309" stroke="#333333" stroke-miterlimit="10" stroke-linecap="round" stroke-linejoin="round"/>
<path d="M16.8418 7.2207H27.6997" stroke="#333333" stroke-miterlimit="10" stroke-linecap="round" stroke-linejoin="round"/>
<path d="M16.8418 10.332H27.6997" stroke="#333333" stroke-miterlimit="10" stroke-linecap="round" stroke-linejoin="round"/>
<path d="M19.4824 22.668V25.9449C19.4824 26.5959 19.8296 27.1963 20.3866 27.5218L21.4355 28.1367" stroke="#333333" stroke-miterlimit="10" stroke-linecap="round" stroke-linejoin="round"/>
<path d="M28.3427 38.0542L26.0352 36.8606L26.122 34.8496" stroke="#333333" stroke-miterlimit="10" stroke-linecap="round" stroke-linejoin="round"/>
<path d="M26.1214 34.8496C24.6096 34.8496 22.396 36.4555 23.9224 41.2732L27.4452 37.5985" stroke="#333333" stroke-miterlimit="10" stroke-linecap="round" stroke-linejoin="round"/>
<path d="M27.4461 37.5898L24.8926 47.9993L28.3431 51.0013" stroke="#333333" stroke-miterlimit="10" stroke-linecap="round" stroke-linejoin="round"/>
<path d="M23.41 36.9824C18.8744 37.1633 13.7023 41.5976 13.5938 48.0429H24.8857" stroke="#333333" stroke-miterlimit="10" stroke-linecap="round" stroke-linejoin="round"/>
<path d="M30.564 34.8496C32.0759 34.8496 34.2894 36.4555 32.7631 41.2732L29.2402 37.5985" stroke="#333333" stroke-miterlimit="10" stroke-linecap="round" stroke-linejoin="round"/>
<path d="M29.2407 37.5898L31.7943 47.9993L28.3438 51.0013" stroke="#333333" stroke-miterlimit="10" stroke-linecap="round" stroke-linejoin="round"/>
<path d="M33.2778 36.9824C37.8134 37.1633 42.9856 41.5976 43.0941 48.0429H31.7949" stroke="#333333" stroke-miterlimit="10" stroke-linecap="round" stroke-linejoin="round"/>
<path d="M35.2448 22.668V28.9686C35.2448 29.9018 34.8614 30.7915 34.1887 31.4426L30.919 34.5676C30.4922 34.9799 29.9207 35.2041 29.3275 35.2041H28.3438" stroke="#333333" stroke-miterlimit="10" stroke-linecap="round" stroke-linejoin="round"/>
<path d="M21.4355 22.668V28.9686C21.4355 29.9018 21.8189 30.7915 22.4917 31.4426L25.7614 34.5676C26.1882 34.9799 26.7596 35.2041 27.3528 35.2041H28.3366" stroke="#333333" stroke-miterlimit="10" stroke-linecap="round" stroke-linejoin="round"/>
<path d="M37.2051 22.668V25.9449C37.2051 26.5959 36.8579 27.1963 36.3009 27.5218L35.252 28.1367" stroke="#333333" stroke-miterlimit="10" stroke-linecap="round" stroke-linejoin="round"/>
<path d="M37.2052 18.2833V22.5441H27.1936C25.7831 22.5441 24.6112 21.4083 24.6112 19.9978C24.6112 21.0611 23.9312 21.9726 22.998 22.3632C22.6942 22.4717 22.3759 22.5441 22.036 22.5441H19.4824V18.2833C19.4824 18.1893 19.4824 18.0953 19.4969 18.0012C19.6343 15.4549 21.7394 13.4512 24.3146 13.4512H29.494C30.9046 13.4512 32.0765 14.5941 32.0765 15.9975C32.0765 14.9413 32.2718 13.6465 33.6824 13.6465C35.9972 13.6465 37.0678 15.9251 37.1763 18.0085C37.2052 18.088 37.2052 18.1821 37.2052 18.2833Z" stroke="#333333" stroke-miterlimit="10" stroke-linecap="round" stroke-linejoin="round"/>
<path d="M28.3438 38.0542L30.6513 36.8606L30.5645 34.8496" stroke="#333333" stroke-miterlimit="10" stroke-linecap="round" stroke-linejoin="round"/>
</svg>
