<svg width="77" height="52" viewBox="0 0 77 52" fill="none" xmlns="http://www.w3.org/2000/svg">
<path d="M26.7104 37.8295C28.4808 35.405 29.3942 32.5182 29.4281 29.6089C26.4962 29.7668 24.2183 29.0112 23.9477 27.6355C23.6545 26.2711 25.4587 24.6923 28.2102 23.6662C27.6351 22.3694 26.8345 21.1177 25.8309 20.0013C24.8385 18.8737 23.6883 17.9377 22.4592 17.2048C21.7262 18.6707 20.8354 19.8209 19.9671 20.4524C19.2792 20.9598 18.6026 21.1741 18.0275 20.9711C16.6969 20.5313 16.2233 18.1971 16.7194 15.3103C13.8327 15.0058 10.8557 15.5697 8.23951 17.0469C9.84078 19.5052 10.3369 21.8394 9.28823 22.7753C8.23951 23.7113 5.97294 22.9445 3.71764 21.0613C1.94723 23.4858 1.03383 26.3725 1 29.2819C3.92061 29.124 6.18719 29.8795 6.48038 31.2553C6.75102 32.6197 4.96933 34.1984 2.20659 35.2246C2.80424 36.5214 3.58232 37.7731 4.58593 38.8895C5.58954 40.0171 6.73974 40.9531 7.9576 41.686C9.28823 39.0699 11.0699 37.4686 12.4005 37.9197C13.7312 38.3595 14.2048 40.6937 13.6973 43.603C14.7009 43.7045 15.7271 43.7045 16.7307 43.5918C18.6252 43.3888 20.452 42.8137 22.166 41.8552C20.576 39.3969 20.0911 37.0627 21.1286 36.1267C22.166 35.1908 24.4438 35.9576 26.7104 37.8295ZM18.7379 33.4204C18.5237 33.6008 18.3094 33.7699 18.0839 33.9052C15.9301 35.3148 13.0095 34.9765 11.2391 32.9919C9.2995 30.7929 9.47993 27.4325 11.6788 25.493C13.8665 23.5421 17.2269 23.7338 19.1664 25.9328C19.1777 25.944 19.1777 25.944 19.2003 25.9666C21.1173 28.1542 20.903 31.5034 18.7379 33.4204Z" stroke="#333333" stroke-miterlimit="10" stroke-linecap="round" stroke-linejoin="round"/>
<path d="M18.7381 33.4211C18.5238 33.6015 18.3095 33.7707 18.084 33.906C15.9302 35.3155 13.0096 34.9772 11.2392 32.9926C9.29962 30.7937 9.48005 27.4333 11.679 25.4937C13.8666 23.5429 17.227 23.7346 19.1666 25.9335C19.1778 25.9448 19.1778 25.9448 19.2004 25.9673C21.1174 28.155 20.9031 31.5041 18.7381 33.4211Z" stroke="#333333" stroke-miterlimit="10" stroke-linecap="round" stroke-linejoin="round"/>
<path d="M26.3271 50.9985H15.6934L16.7308 43.5898" stroke="#333333" stroke-miterlimit="10" stroke-linecap="round" stroke-linejoin="round"/>
<path d="M19.957 20.4754L22.1447 4.85742H26.3283" stroke="#333333" stroke-miterlimit="10" stroke-linecap="round" stroke-linejoin="round"/>
<path d="M26.3262 1H19.9324L19.2559 4.84529H22.1314" stroke="#333333" stroke-miterlimit="10" stroke-linecap="round" stroke-linejoin="round"/>
<path d="M26.3281 4.85742H30.5117L33.5789 26.8917" stroke="#333333" stroke-miterlimit="10" stroke-linecap="round" stroke-linejoin="round"/>
<path d="M26.3281 1H32.7106L33.3985 4.84529H30.5117" stroke="#333333" stroke-miterlimit="10" stroke-linecap="round" stroke-linejoin="round"/>
<path d="M76.4271 12.6602V51.0003H62.1172V26.9813L76.4271 12.6602Z" stroke="#333333" stroke-miterlimit="10" stroke-linecap="round" stroke-linejoin="round"/>
<path d="M62.118 12.6602V51.0003H47.7969V26.9813L62.118 12.6602Z" stroke="#333333" stroke-miterlimit="10" stroke-linecap="round" stroke-linejoin="round"/>
<path d="M47.7978 12.6602V51.0003H36.9498L33.5781 26.8911L47.7978 12.6602Z" stroke="#333333" stroke-miterlimit="10" stroke-linecap="round" stroke-linejoin="round"/>
<path d="M26.3281 51H36.9506" stroke="#333333" stroke-miterlimit="10" stroke-linecap="round" stroke-linejoin="round"/>
<path d="M43.2871 35.6172V50.9983" stroke="#333333" stroke-miterlimit="10" stroke-linecap="round" stroke-linejoin="round"/>
<path d="M43.2871 25.3242V31.8308" stroke="#333333" stroke-miterlimit="10" stroke-linecap="round" stroke-linejoin="round"/>
<path d="M57.6074 35.6172V50.9983" stroke="#333333" stroke-miterlimit="10" stroke-linecap="round" stroke-linejoin="round"/>
<path d="M57.6074 25.3242V31.8308" stroke="#333333" stroke-miterlimit="10" stroke-linecap="round" stroke-linejoin="round"/>
<path d="M71.9297 35.6172V50.9983" stroke="#333333" stroke-miterlimit="10" stroke-linecap="round" stroke-linejoin="round"/>
<path d="M71.9297 25.3242V31.8308" stroke="#333333" stroke-miterlimit="10" stroke-linecap="round" stroke-linejoin="round"/>
</svg>
