<svg width="53" height="52" viewBox="0 0 53 52" fill="none" xmlns="http://www.w3.org/2000/svg">
<path d="M25.6549 42.3375V46.6896H3.35788C1.99309 46.6896 0.886719 45.7136 0.886719 44.5135C0.886719 44.4415 0.886719 44.3615 0.902871 44.2895C1.02401 43.1855 2.08192 42.3375 3.35788 42.3375H25.6549Z" stroke="#333333" stroke-miterlimit="10" stroke-linecap="round" stroke-linejoin="round"/>
<path d="M0.902344 44.2881C1.00733 42.008 2.90512 40.2 5.23899 40.2H22.7794" stroke="#333333" stroke-miterlimit="10" stroke-linecap="round" stroke-linejoin="round"/>
<path d="M45.8042 46.4094H35.7338H25.6553V44.5134V42.6094H35.7338H45.8042L50.5123 44.5134L45.8042 46.4094Z" stroke="#333333" stroke-miterlimit="10" stroke-linecap="round" stroke-linejoin="round"/>
<path d="M50.5117 44.512H52.038" stroke="#333333" stroke-miterlimit="10" stroke-linecap="round" stroke-linejoin="round"/>
<path d="M26.123 36.704L27.2052 34.824L29.1757 35.76L31.332 30.416L32.9471 39.6641L34.4734 36.2H38.8667" stroke="#333333" stroke-miterlimit="10" stroke-linecap="round" stroke-linejoin="round"/>
<path d="M43.8738 46.688V51.3359H5.8291V46.688" stroke="#333333" stroke-miterlimit="10" stroke-linecap="round" stroke-linejoin="round"/>
<path d="M5.8291 42.3359V16.288L17.9427 4.28809H43.8738V42.6079" stroke="#333333" stroke-miterlimit="10" stroke-linecap="round" stroke-linejoin="round"/>
<path d="M17.9426 4.28809V16.2881H5.8291" stroke="#333333" stroke-miterlimit="10" stroke-linecap="round" stroke-linejoin="round"/>
<path d="M38.0831 8.15308H29.8701V16.2891H38.0831V8.15308Z" stroke="#333333" stroke-miterlimit="10" stroke-linecap="round" stroke-linejoin="round"/>
<path d="M32.2041 10.2881L33.9808 13.5281L38.0833 1" stroke="#333333" stroke-miterlimit="10" stroke-linecap="round" stroke-linejoin="round"/>
<path d="M10.8281 20.2H38.8671" stroke="#333333" stroke-miterlimit="10" stroke-linecap="round" stroke-linejoin="round"/>
<path d="M10.8281 23.4468H38.8671" stroke="#333333" stroke-miterlimit="10" stroke-linecap="round" stroke-linejoin="round"/>
<path d="M10.8281 26.6968H38.8671" stroke="#333333" stroke-miterlimit="10" stroke-linecap="round" stroke-linejoin="round"/>
</svg>
