<svg width="58" height="55" viewBox="0 0 58 55" fill="none" xmlns="http://www.w3.org/2000/svg">
<path d="M16.9102 14.1613V14.6855C16.9102 15.1303 17.0531 15.5672 17.3073 15.9247" stroke="#333333" stroke-miterlimit="10" stroke-linecap="round" stroke-linejoin="round"/>
<path d="M26.7773 11.0233V10.7373" stroke="#333333" stroke-miterlimit="10" stroke-linecap="round" stroke-linejoin="round"/>
<path d="M26.7764 7.98133V10.6582H26.7129C26.6255 10.404 26.4428 10.1816 26.2045 10.0386L25.5452 9.65736V10.6582H20.5092C19.6275 10.6582 18.8888 9.94332 18.8888 9.06161C18.8888 9.72885 18.4678 10.3008 17.88 10.547C17.6893 10.6106 17.4908 10.6582 17.2763 10.6582H16.9109V9.65736L16.2516 10.0386C16.0133 10.1816 15.8306 10.404 15.7432 10.6582H15.6797V7.98133C15.6797 7.92573 15.6797 7.87012 15.6876 7.81452C15.783 6.21793 17.0936 4.96289 18.7061 4.96289H21.9469C22.8366 4.96289 23.5673 5.67778 23.5673 6.55154C23.5673 5.89225 23.6944 5.0741 24.5761 5.0741C26.0298 5.0741 26.697 6.50388 26.7605 7.81452C26.7764 7.87012 26.7764 7.92573 26.7764 7.98133Z" stroke="#333333" stroke-miterlimit="10" stroke-linecap="round" stroke-linejoin="round"/>
<path d="M19.8285 19.983C19.8126 19.9115 19.8047 19.84 19.8047 19.7606C19.8047 19.7526 19.8047 19.7447 19.8047 19.7367L19.8444 18.3625" stroke="#333333" stroke-miterlimit="10" stroke-linecap="round" stroke-linejoin="round"/>
<path d="M22.6211 18.3625L22.6529 19.7367C22.6529 19.8162 22.6449 19.9035 22.629 19.983" stroke="#333333" stroke-miterlimit="10" stroke-linecap="round" stroke-linejoin="round"/>
<path d="M17.3233 24.1213L16.9023 25.4081" stroke="#333333" stroke-miterlimit="10" stroke-linecap="round" stroke-linejoin="round"/>
<path d="M25.1328 24.1213L25.5538 25.4081" stroke="#333333" stroke-miterlimit="10" stroke-linecap="round" stroke-linejoin="round"/>
<path d="M16.9109 9.65747V14.1613L16.2516 13.7721C15.9259 13.5894 15.7273 13.2637 15.6956 12.9063C15.6797 12.8665 15.6797 12.8268 15.6797 12.7871V11.0317C15.6797 10.9919 15.6797 10.9522 15.6876 10.9125C15.6956 10.8251 15.7115 10.7378 15.7432 10.6583C15.8306 10.4041 16.0133 10.1817 16.2516 10.0387L16.9109 9.65747Z" stroke="#333333" stroke-miterlimit="10" stroke-linecap="round" stroke-linejoin="round"/>
<path d="M26.7781 11.0317V12.7871C26.7781 12.8268 26.7781 12.8665 26.7701 12.9063C26.7304 13.2637 26.5318 13.5894 26.2062 13.7721L25.5469 14.1613V9.65747L26.2062 10.0387C26.4445 10.1817 26.6272 10.4041 26.7145 10.6583C26.7463 10.7378 26.7622 10.8251 26.7701 10.9125C26.7781 10.9522 26.7781 10.9919 26.7781 11.0317Z" stroke="#333333" stroke-miterlimit="10" stroke-linecap="round" stroke-linejoin="round"/>
<path d="M15.6963 12.9064C15.6884 12.9064 15.6884 12.9064 15.6804 12.9064C15.1323 12.9064 14.6875 12.4615 14.6875 11.9055C14.6875 11.3574 15.1323 10.9126 15.6804 10.9126H15.6884C15.6804 10.9523 15.6804 10.992 15.6804 11.0317V12.7872C15.6804 12.8269 15.6804 12.8666 15.6963 12.9064Z" stroke="#333333" stroke-miterlimit="10" stroke-linecap="round" stroke-linejoin="round"/>
<path d="M27.7705 11.9055C27.7705 12.4615 27.3257 12.9064 26.7776 12.9064H26.7617C26.7776 12.8666 26.7776 12.8269 26.7776 12.7872V11.0317C26.7776 10.992 26.7776 10.9523 26.7697 10.9126H26.7776C27.3257 10.9126 27.7705 11.3574 27.7705 11.9055Z" stroke="#333333" stroke-miterlimit="10" stroke-linecap="round" stroke-linejoin="round"/>
<path d="M19.8028 16.5994V15.7018L21.2326 16.1943V17.2825L17.3086 15.9242" stroke="#333333" stroke-miterlimit="10" stroke-linecap="round" stroke-linejoin="round"/>
<path d="M30.8733 27.1096V30.271H3.43727C2.13458 30.271 1.07812 29.2146 1.07812 27.9198V24.7584C1.07812 25.7831 1.74536 26.6569 2.66678 26.9825C2.90508 27.062 3.1672 27.1096 3.43727 27.1096H30.8733V27.1096Z" stroke="#333333" stroke-miterlimit="10" stroke-linecap="round" stroke-linejoin="round"/>
<path d="M39.0231 1H3.43727C2.13458 1 1.07812 2.05645 1.07812 3.35121V24.7504C1.07812 25.775 1.74536 26.6488 2.66678 26.9745C2.90508 27.0539 3.1672 27.1016 3.43727 27.1016H30.8733V9.56284C30.8733 8.46667 31.7629 7.57702 32.8591 7.57702H41.3743V3.35915C41.3743 2.0644 40.3258 1 39.0231 1ZM15.6778 10.659V7.98213C15.6778 7.92653 15.6778 7.87092 15.6858 7.81532C15.7811 6.21872 17.0917 4.96369 18.7042 4.96369H21.9451C22.8347 4.96369 23.5655 5.67858 23.5655 6.55234C23.5655 5.89305 23.6926 5.07489 24.5743 5.07489C26.0279 5.07489 26.6951 6.50468 26.7587 7.81532C26.7746 7.87092 26.7746 7.92653 26.7746 7.98213V10.659H26.711C26.7428 10.7384 26.7587 10.8258 26.7666 10.9132H26.7746C27.3227 10.9132 27.7675 11.358 27.7675 11.9061C27.7675 12.4621 27.3227 12.907 26.7746 12.907H26.7666C26.7269 13.2644 26.5283 13.5901 26.2027 13.7728L25.5434 14.162V14.6862C25.5434 15.2661 25.3051 15.8301 24.892 16.2272L22.8347 18.1892C22.5726 18.4355 22.2151 18.5864 21.8418 18.5864H20.6106C20.3326 18.5864 20.0625 18.5069 19.8401 18.364C19.7607 18.3084 19.6892 18.2528 19.6177 18.1892L17.5604 16.2272C17.4651 16.1319 17.3777 16.0366 17.3062 15.9254L15.797 15.4091C15.1298 15.1787 14.6849 14.5592 14.6849 13.8522V11.9061C14.6849 11.358 15.1298 10.9132 15.6778 10.9132H15.6858C15.6937 10.8258 15.7096 10.7384 15.7414 10.659H15.6778ZM13.414 25.4176C13.422 24.941 13.8747 22.987 14.669 21.7001C15.1218 20.9614 15.6381 20.5325 16.7343 20.3418L19.8242 19.9844C19.8878 20.4133 20.142 20.7946 20.5312 21.0091C20.9601 21.2553 21.4923 21.2553 21.9212 21.0091H21.9292C22.3105 20.7946 22.5646 20.4133 22.6282 19.9844L25.7181 20.3418C26.8143 20.5325 27.3306 20.9614 27.7834 21.7001C28.5777 22.987 29.0305 24.941 29.0384 25.4176H13.414Z" stroke="#333333" stroke-miterlimit="10" stroke-linecap="round" stroke-linejoin="round"/>
<path d="M14.6875 13.8524V11.9063C14.6875 11.3582 15.1323 10.9134 15.6804 10.9134H15.6884C15.6963 10.826 15.7122 10.7386 15.744 10.6592H15.6804V7.98231C15.6804 7.9267 15.6804 7.8711 15.6884 7.8155C15.7837 6.2189 17.0943 4.96387 18.7068 4.96387H21.9476C22.8373 4.96387 23.5681 5.67876 23.5681 6.55252C23.5681 5.89323 23.6952 5.07507 24.5769 5.07507C26.0305 5.07507 26.6977 6.50486 26.7613 7.8155C26.7771 7.8711 26.7771 7.9267 26.7771 7.98231V10.6592H26.7136C26.7454 10.7386 26.7613 10.826 26.7692 10.9134H26.7771C27.3252 10.9134 27.7701 11.3582 27.7701 11.9063C27.7701 12.4623 27.3252 12.9071 26.7771 12.9071H26.7692C26.7295 13.2646 26.5309 13.5903 26.2052 13.7729L25.5459 14.1622V14.6864C25.5459 15.2663 25.3076 15.8303 24.8946 16.2274L22.8373 18.1894C22.5752 18.4356 22.2177 18.5866 21.8444 18.5866H20.6132C20.3352 18.5866 20.0651 18.5071 19.8427 18.3642C19.7632 18.3085 19.6918 18.2529 19.6203 18.1894L17.563 16.2274C17.4676 16.1321 17.3803 16.0368 17.3088 15.9256L15.7996 15.4093C15.1323 15.1789 14.6875 14.5593 14.6875 13.8524Z" stroke="#333333" stroke-miterlimit="10" stroke-linecap="round" stroke-linejoin="round"/>
<path d="M29.0385 25.4179H13.4141C13.422 24.9413 13.8748 22.9873 14.6691 21.7005C15.1219 20.9618 15.6382 20.5328 16.7343 20.3422L19.8243 19.9847C19.8878 20.4137 20.142 20.795 20.5312 21.0094C20.9602 21.2557 21.4924 21.2557 21.9213 21.0094H21.9292C22.3105 20.795 22.5647 20.4137 22.6282 19.9847L25.7182 20.3422C26.8143 20.5328 27.3307 20.9618 27.7834 21.7005C28.5778 22.9873 29.0305 24.9413 29.0385 25.4179Z" stroke="#333333" stroke-miterlimit="10" stroke-linecap="round" stroke-linejoin="round"/>
<path d="M19.8008 28.6975H22.6524" stroke="#333333" stroke-miterlimit="10" stroke-linecap="round" stroke-linejoin="round"/>
<path d="M57.0003 47.0709V50.423C57.0003 51.5192 56.1106 52.4088 55.0144 52.4088H32.8607C31.8281 52.4088 30.9781 51.6224 30.8828 50.6136H36.3081C36.872 50.6136 37.3327 50.1609 37.3327 49.5969V49.0567H55.0144C56.1106 49.0567 57.0003 48.1671 57.0003 47.0709Z" stroke="#333333" stroke-miterlimit="10" stroke-linecap="round" stroke-linejoin="round"/>
<path d="M57.0004 9.56223V12.9143C57.0004 11.8181 56.1107 10.9285 55.0146 10.9285H32.8608C31.7646 10.9285 30.875 11.8181 30.875 12.9143V9.56223C30.875 8.46606 31.7646 7.57642 32.8608 7.57642H55.0146C56.1107 7.57642 57.0004 8.46606 57.0004 9.56223Z" stroke="#333333" stroke-miterlimit="10" stroke-linecap="round" stroke-linejoin="round"/>
<path d="M43.9579 12.8203C41.5749 12.8203 39.6367 14.7505 39.6367 17.1414C39.6367 17.9278 39.8512 18.6666 40.2166 19.302C40.9632 18.0152 42.3613 17.1414 43.9579 17.1414C45.5624 17.1414 46.9525 18.0152 47.6991 19.302C48.0725 18.6666 48.2869 17.9278 48.2869 17.1414C48.2869 14.7505 46.3488 12.8203 43.9579 12.8203ZM43.9579 16.9031C43.1953 16.9031 42.5757 16.2836 42.5757 15.521C42.5757 14.7505 43.1953 14.131 43.9579 14.131C44.7284 14.131 45.3479 14.7505 45.3479 15.521C45.3479 16.2836 44.7284 16.9031 43.9579 16.9031Z" stroke="#333333" stroke-miterlimit="10" stroke-linecap="round" stroke-linejoin="round"/>
<path d="M47.6974 19.3016C46.9507 20.5963 45.5607 21.4701 43.9561 21.4701C42.3595 21.4701 40.9615 20.5963 40.2148 19.3016C40.9615 18.0147 42.3595 17.141 43.9561 17.141C45.5607 17.141 46.9507 18.0147 47.6974 19.3016Z" stroke="#333333" stroke-miterlimit="10" stroke-linecap="round" stroke-linejoin="round"/>
<path d="M43.9564 16.9032C44.7189 16.9032 45.3385 16.2836 45.3385 15.521C45.3385 14.7585 44.7189 14.1389 43.9564 14.1389C43.1938 14.1389 42.5742 14.7585 42.5742 15.521C42.5742 16.2757 43.1938 16.9032 43.9564 16.9032Z" stroke="#333333" stroke-miterlimit="10" stroke-linecap="round" stroke-linejoin="round"/>
<path d="M43.9579 25.6241C41.5749 25.6241 39.6367 27.5623 39.6367 29.9532C39.6367 30.7396 39.8512 31.4783 40.2166 32.1138C40.9632 30.827 42.3613 29.9532 43.9579 29.9532C45.5624 29.9532 46.9525 30.827 47.6991 32.1138C48.0725 31.4783 48.2869 30.7396 48.2869 29.9532C48.2869 27.5623 46.3488 25.6241 43.9579 25.6241ZM43.9579 29.7149C43.1953 29.7149 42.5757 29.0953 42.5757 28.3249C42.5757 27.5623 43.1953 26.9427 43.9579 26.9427C44.7284 26.9427 45.3479 27.5623 45.3479 28.3249C45.3479 29.0953 44.7284 29.7149 43.9579 29.7149Z" stroke="#333333" stroke-miterlimit="10" stroke-linecap="round" stroke-linejoin="round"/>
<path d="M47.6974 32.1122C46.9507 33.407 45.5607 34.2728 43.9561 34.2728C42.3595 34.2728 40.9615 33.407 40.2148 32.1122C40.9615 30.8254 42.3595 29.9517 43.9561 29.9517C45.5607 29.9517 46.9507 30.8254 47.6974 32.1122Z" stroke="#333333" stroke-miterlimit="10" stroke-linecap="round" stroke-linejoin="round"/>
<path d="M43.9564 29.7063C44.7189 29.7063 45.3385 29.0867 45.3385 28.3241C45.3385 27.5616 44.7189 26.942 43.9564 26.942C43.1938 26.942 42.5742 27.5616 42.5742 28.3241C42.5742 29.0867 43.1938 29.7063 43.9564 29.7063Z" stroke="#333333" stroke-miterlimit="10" stroke-linecap="round" stroke-linejoin="round"/>
<path d="M43.9579 38.4373C41.5749 38.4373 39.6367 40.3754 39.6367 42.7663C39.6367 43.5527 39.8512 44.2914 40.2166 44.9269C40.9632 43.6321 42.3613 42.7663 43.9579 42.7663C45.5624 42.7663 46.9525 43.6321 47.6991 44.9269C48.0725 44.2914 48.2869 43.5527 48.2869 42.7663C48.2869 40.3754 46.3488 38.4373 43.9579 38.4373ZM43.9579 42.528C43.1953 42.528 42.5757 41.9085 42.5757 41.138C42.5757 40.3754 43.1953 39.7558 43.9579 39.7558C44.7284 39.7558 45.3479 40.3754 45.3479 41.138C45.3479 41.9085 44.7284 42.528 43.9579 42.528Z" stroke="#333333" stroke-miterlimit="10" stroke-linecap="round" stroke-linejoin="round"/>
<path d="M47.6974 44.9261C46.9507 46.2208 45.5607 47.0866 43.9561 47.0866C42.3595 47.0866 40.9615 46.2208 40.2148 44.9261C40.9615 43.6313 42.3595 42.7655 43.9561 42.7655C45.5607 42.7655 46.9507 43.6313 47.6974 44.9261Z" stroke="#333333" stroke-miterlimit="10" stroke-linecap="round" stroke-linejoin="round"/>
<path d="M43.9564 42.52C44.7189 42.52 45.3385 41.9004 45.3385 41.1379C45.3385 40.3753 44.7189 39.7557 43.9564 39.7557C43.1938 39.7557 42.5742 40.3753 42.5742 41.1379C42.5742 41.9004 43.1938 42.52 43.9564 42.52Z" stroke="#333333" stroke-miterlimit="10" stroke-linecap="round" stroke-linejoin="round"/>
<path d="M50.2791 23.5437H43.9563H37.5938" stroke="#333333" stroke-miterlimit="10" stroke-linecap="round" stroke-linejoin="round"/>
<path d="M50.2791 36.3568H43.9563H37.5938" stroke="#333333" stroke-miterlimit="10" stroke-linecap="round" stroke-linejoin="round"/>
<path d="M40.9375 50.7013H46.9347" stroke="#333333" stroke-miterlimit="10" stroke-linecap="round" stroke-linejoin="round"/>
<path d="M37.3324 39.4619V49.5975C37.3324 50.1615 36.8717 50.6143 36.3077 50.6143H29.6433L19.325 54.3794V50.6143H16.0286C15.4646 50.6143 15.0039 50.1615 15.0039 49.5975V46.3646L20.6754 48.4378V44.6727H23.9718C24.5358 44.6727 24.9886 44.22 24.9886 43.656V38.4373H36.3077C36.8717 38.4373 37.3324 38.898 37.3324 39.4619Z" stroke="#333333" stroke-miterlimit="10" stroke-linecap="round" stroke-linejoin="round"/>
<path d="M24.9887 33.52V43.6556C24.9887 44.2196 24.5359 44.6724 23.9719 44.6724H20.6755V48.4375L15.004 46.3643L10.3572 44.6724H2.02468C1.46071 44.6724 1 44.2196 1 43.6556V33.52C1 32.9561 1.46071 32.4954 2.02468 32.4954H23.9719C24.5359 32.4954 24.9887 32.9561 24.9887 33.52Z" stroke="#333333" stroke-miterlimit="10" stroke-linecap="round" stroke-linejoin="round"/>
<path d="M4.33594 35.7998H21.6522" stroke="#333333" stroke-miterlimit="10" stroke-linecap="round" stroke-linejoin="round"/>
<path d="M4.33594 38.4373H21.6522" stroke="#333333" stroke-miterlimit="10" stroke-linecap="round" stroke-linejoin="round"/>
<path d="M4.33594 41.0654H21.6522" stroke="#333333" stroke-miterlimit="10" stroke-linecap="round" stroke-linejoin="round"/>
<path d="M24.9897 48.843C25.56 48.843 26.0223 48.3806 26.0223 47.8103C26.0223 47.24 25.56 46.7777 24.9897 46.7777C24.4194 46.7777 23.957 47.24 23.957 47.8103C23.957 48.3806 24.4194 48.843 24.9897 48.843Z" stroke="#333333" stroke-miterlimit="10" stroke-linecap="round" stroke-linejoin="round"/>
<path d="M29.5561 48.843C30.1264 48.843 30.5887 48.3806 30.5887 47.8103C30.5887 47.24 30.1264 46.7777 29.5561 46.7777C28.9858 46.7777 28.5234 47.24 28.5234 47.8103C28.5234 48.3806 28.9858 48.843 29.5561 48.843Z" stroke="#333333" stroke-miterlimit="10" stroke-linecap="round" stroke-linejoin="round"/>
<path d="M34.1147 48.843C34.685 48.843 35.1473 48.3806 35.1473 47.8103C35.1473 47.24 34.685 46.7777 34.1147 46.7777C33.5444 46.7777 33.082 47.24 33.082 47.8103C33.082 48.3806 33.5444 48.843 34.1147 48.843Z" stroke="#333333" stroke-miterlimit="10" stroke-linecap="round" stroke-linejoin="round"/>
<path d="M30.875 30.2706V38.4363" stroke="#333333" stroke-miterlimit="10" stroke-linecap="round" stroke-linejoin="round"/>
<path d="M57 12.9149V47.0709" stroke="#333333" stroke-miterlimit="10" stroke-linecap="round" stroke-linejoin="round"/>
</svg>
