<svg width="50" height="52" viewBox="0 0 50 52" fill="none" xmlns="http://www.w3.org/2000/svg">
<path d="M14.6562 1L27.7882 12.4475L42.7421 25.4849L48.8784 30.8305V1.00859H14.6562V1ZM44.3664 20.9042L42.7421 19.4861L34.6636 12.4475L26.7053 5.51196H44.3664V20.9042Z" stroke="#333333" stroke-miterlimit="10" stroke-linecap="round" stroke-linejoin="round"/>
<path d="M44.3662 5.51172V20.9039L42.7419 19.4859L34.6633 12.4472L26.7051 5.51172H44.3662Z" stroke="#333333" stroke-miterlimit="10" stroke-linecap="round" stroke-linejoin="round"/>
<path d="M44.3662 5.51172V20.9039L42.7419 19.4859L34.6633 12.4472L26.7051 5.51172H44.3662Z" stroke="#333333" stroke-miterlimit="10" stroke-linecap="round" stroke-linejoin="round"/>
<path d="M20.2676 1V2.53836" stroke="#333333" stroke-miterlimit="10" stroke-linecap="round" stroke-linejoin="round"/>
<path d="M25.9922 1V2.53836" stroke="#333333" stroke-miterlimit="10" stroke-linecap="round" stroke-linejoin="round"/>
<path d="M31.7168 1V2.53836" stroke="#333333" stroke-miterlimit="10" stroke-linecap="round" stroke-linejoin="round"/>
<path d="M37.4395 1V2.53836" stroke="#333333" stroke-miterlimit="10" stroke-linecap="round" stroke-linejoin="round"/>
<path d="M43.1641 1V2.53836" stroke="#333333" stroke-miterlimit="10" stroke-linecap="round" stroke-linejoin="round"/>
<path d="M8.63165 5.04883V33.891H5.28851C2.91651 33.891 1 35.8075 1 38.1709V9.32874C1 6.96533 2.91651 5.04883 5.28851 5.04883H8.63165Z" stroke="#333333" stroke-miterlimit="10" stroke-linecap="round" stroke-linejoin="round"/>
<path d="M42.7426 16.7272V19.4859L34.6641 12.4473H38.4627C40.8347 12.4473 42.7426 14.3638 42.7426 16.7272Z" stroke="#333333" stroke-miterlimit="10" stroke-linecap="round" stroke-linejoin="round"/>
<path d="M27.7881 12.4473L42.742 25.4847V46.721C42.742 44.3575 40.8255 42.441 38.4621 42.441H5.28851C2.91651 42.441 1 40.5245 1 38.1611C1 35.8665 2.80478 33.9929 5.08225 33.8898C5.151 33.8812 5.21975 33.8812 5.28851 33.8812H8.63165V12.4473H27.7881Z" stroke="#333333" stroke-miterlimit="10" stroke-linecap="round" stroke-linejoin="round"/>
<path d="M42.7422 46.7194C42.7422 49.0828 40.8257 50.9993 38.4623 50.9993H35.1191V42.4395H38.4623C40.8343 42.4395 42.7422 44.356 42.7422 46.7194Z" stroke="#333333" stroke-miterlimit="10" stroke-linecap="round" stroke-linejoin="round"/>
<path d="M8.63281 19.7871H32.9716V38.6428H25.0134" stroke="#333333" stroke-miterlimit="10" stroke-linecap="round" stroke-linejoin="round"/>
<path d="M25.0132 38.644C25.0132 35.5415 22.5037 33.0234 19.3926 33.0234" stroke="#333333" stroke-miterlimit="10" stroke-linecap="round" stroke-linejoin="round"/>
<path d="M19.3992 38.644H5.08984V33.8828" stroke="#333333" stroke-miterlimit="10" stroke-linecap="round" stroke-linejoin="round"/>
<path d="M19.4004 38.645V37.2441" stroke="#333333" stroke-miterlimit="10" stroke-linecap="round" stroke-linejoin="round"/>
<path d="M14.252 38.6429V25.0039" stroke="#333333" stroke-miterlimit="10" stroke-linecap="round" stroke-linejoin="round"/>
<path d="M32.9701 28.8203H14.252" stroke="#333333" stroke-miterlimit="10" stroke-linecap="round" stroke-linejoin="round"/>
<path d="M25.0117 19.7871V28.8196" stroke="#333333" stroke-miterlimit="10" stroke-linecap="round" stroke-linejoin="round"/>
</svg>
