<svg width="45" height="52" viewBox="0 0 45 52" fill="none" xmlns="http://www.w3.org/2000/svg">
<path d="M31.8456 19.0117V27.3085L23.5488 19.0117H31.8456Z" stroke="#333333" stroke-miterlimit="10" stroke-linecap="round" stroke-linejoin="round"/>
<path d="M12.7636 14.3004V14.3278L16.7794 18.3527L17.4471 19.0113L22.7709 24.3352L24.1065 25.6707L24.4907 26.0549L27.4087 28.9638L31.086 32.6502L26.0366 37.6996H1V1H31.8452V14.3004H12.7636Z" stroke="#333333" stroke-miterlimit="10" stroke-linecap="round" stroke-linejoin="round"/>
<path d="M5.44531 5.71094V11.0348H12.7633H20.0812H27.3992V5.71094H5.44531Z" stroke="#333333" stroke-miterlimit="10" stroke-linecap="round" stroke-linejoin="round"/>
<path d="M12.7633 11.0352H5.44531V18.3531H12.7633V11.0352Z" stroke="#333333" stroke-miterlimit="10" stroke-linecap="round" stroke-linejoin="round"/>
<path d="M12.7633 25.6719H5.44531V32.9898H12.7633V25.6719Z" stroke="#333333" stroke-miterlimit="10" stroke-linecap="round" stroke-linejoin="round"/>
<path d="M12.7633 18.3535H5.44531V25.6715H12.7633V18.3535Z" stroke="#333333" stroke-miterlimit="10" stroke-linecap="round" stroke-linejoin="round"/>
<path d="M16.7794 18.353H12.7637V14.3281L16.7794 18.353Z" stroke="#333333" stroke-miterlimit="10" stroke-linecap="round" stroke-linejoin="round"/>
<path d="M20.0908 11.0352H12.7637V14.3008H20.0908V11.0352Z" stroke="#333333" stroke-miterlimit="10" stroke-linecap="round" stroke-linejoin="round"/>
<path d="M20.0908 21.6557V25.6715H12.7637V18.3535H16.7794L17.4472 19.0121L20.0908 21.6557Z" stroke="#333333" stroke-miterlimit="10" stroke-linecap="round" stroke-linejoin="round"/>
<path d="M20.0816 25.6719H12.7637V32.9898H20.0816V25.6719Z" stroke="#333333" stroke-miterlimit="10" stroke-linecap="round" stroke-linejoin="round"/>
<path d="M24.1056 25.67H20.0898V21.6543L22.77 24.3345L24.1056 25.67Z" stroke="#333333" stroke-miterlimit="10" stroke-linecap="round" stroke-linejoin="round"/>
<path d="M27.4091 19.0117V22.8719L23.5488 19.0117H27.4091Z" stroke="#333333" stroke-miterlimit="10" stroke-linecap="round" stroke-linejoin="round"/>
<path d="M27.4078 11.0352H20.0898V14.3008H27.4078V11.0352Z" stroke="#333333" stroke-miterlimit="10" stroke-linecap="round" stroke-linejoin="round"/>
<path d="M27.4078 28.965V32.999H20.0898V25.6719H24.1056L24.4898 26.0561L27.4078 28.965Z" stroke="#333333" stroke-miterlimit="10" stroke-linecap="round" stroke-linejoin="round"/>
<path d="M39.1261 22.4309V19.0098H23.548L37.1869 32.6486L31.8082 38.0273L30.8751 38.9695L24.4902 45.3361L23.548 46.2875H39.1261V42.8663H43.5718V50.9984H12.7266L17.4466 46.2875L24.4902 39.2439L24.7738 38.9695L26.0361 37.698L31.0855 32.6486L27.4082 28.9622L24.4902 26.0533L24.106 25.6691L22.7705 24.3336L17.4466 19.0098L16.7789 18.3512L12.7632 14.3263V14.2988H43.5718V22.4309H39.1261Z" stroke="#333333" stroke-miterlimit="10" stroke-linecap="round" stroke-linejoin="round"/>
<path d="M12.7632 14.2988V14.3263L12.7266 14.2988H12.7632Z" stroke="#333333" stroke-miterlimit="10" stroke-linecap="round" stroke-linejoin="round"/>
</svg>
