<svg width="68" height="55" viewBox="0 0 68 55" fill="none" xmlns="http://www.w3.org/2000/svg">
<path d="M39.6105 15.8409L32.6905 22.7609L31.6605 23.7909L31.1805 24.2709C30.5505 24.9009 29.5405 24.9009 28.9105 24.2709L27.1405 22.5009C26.5105 21.8709 26.5105 20.8609 27.1405 20.2309L32.6905 14.6809L35.5705 11.8009C36.1905 11.1809 37.2105 11.1809 37.8305 11.8009L39.6105 13.5809C40.2405 14.2009 40.2405 15.2209 39.6105 15.8409Z" stroke="#252630" stroke-miterlimit="10" stroke-linecap="round" stroke-linejoin="round"/>
<path d="M54.4819 30.71L46.0619 39.13C45.4319 39.75 44.4119 39.75 43.7919 39.13L42.0119 37.35C41.3919 36.73 41.3919 35.71 42.0119 35.09L42.5019 34.6L49.9619 27.14L50.4519 26.66C51.0719 26.03 52.0919 26.03 52.7119 26.66L54.4919 28.43C55.1019 29.08 55.1019 30.08 54.4819 30.71Z" stroke="#252630" stroke-miterlimit="10" stroke-linecap="round" stroke-linejoin="round"/>
<path d="M49.9502 27.1503L42.5002 34.6103L38.6402 30.7503L35.5202 27.6403L32.5602 24.6903L31.6602 23.7903L32.6902 22.7503L39.1302 16.3203L49.9502 27.1503Z" stroke="#252630" stroke-miterlimit="10" stroke-linecap="round" stroke-linejoin="round"/>
<path d="M38.6405 30.7506L36.3405 33.0506L33.2305 29.9306L35.5205 27.6406L38.6405 30.7506Z" stroke="#252630" stroke-miterlimit="10" stroke-linecap="round" stroke-linejoin="round"/>
<path d="M12.2909 51.5005L14.7709 53.9805C15.2109 54.4205 15.9309 54.4205 16.3709 53.9805L34.5409 35.8105L30.4609 31.7305L12.2909 49.9005C11.8509 50.3405 11.8509 51.0605 12.2909 51.5005Z" stroke="#252630" stroke-miterlimit="10" stroke-linecap="round" stroke-linejoin="round"/>
<path d="M29.262 30.5303L35.752 37.0203C35.992 37.2603 36.382 37.2603 36.612 37.0203L38.032 35.6003C38.272 35.3603 38.272 34.9703 38.032 34.7403L31.542 28.2503C31.302 28.0103 30.912 28.0103 30.682 28.2503L29.262 29.6703C29.022 29.9103 29.022 30.2903 29.262 30.5303Z" stroke="#252630" stroke-miterlimit="10" stroke-linecap="round" stroke-linejoin="round"/>
<path d="M55.5714 51.0309H43.4414V48.5809C43.4414 48.1909 43.7614 47.8809 44.1414 47.8809H54.8714C55.2614 47.8809 55.5714 48.2009 55.5714 48.5809V51.0309V51.0309Z" stroke="#252630" stroke-miterlimit="10" stroke-linecap="round" stroke-linejoin="round"/>
<path d="M59.682 54.1812H39.332V51.7312C39.332 51.3412 39.652 51.0312 40.032 51.0312H58.982C59.372 51.0312 59.682 51.3512 59.682 51.7312V54.1812V54.1812Z" stroke="#252630" stroke-miterlimit="10" stroke-linecap="round" stroke-linejoin="round"/>
<path d="M64.3702 54.1816H25.6602" stroke="#252630" stroke-miterlimit="10" stroke-linecap="round" stroke-linejoin="round"/>
<path d="M63.4297 21.6992C67.8097 26.0792 67.8097 33.1992 63.4297 37.5792" stroke="#252630" stroke-miterlimit="10" stroke-linecap="round" stroke-linejoin="round"/>
<path d="M60.6992 24.4395C63.5692 27.3095 63.5692 31.9795 60.6992 34.8495" stroke="#252630" stroke-miterlimit="10" stroke-linecap="round" stroke-linejoin="round"/>
<path d="M57.9609 27.1797C59.3209 28.5397 59.3209 30.7497 57.9609 32.1097" stroke="#252630" stroke-miterlimit="10" stroke-linecap="round" stroke-linejoin="round"/>
<path d="M16.85 30.0209C16.85 27.1309 13.86 27.0109 10.17 27.0109H4.94C2.77 27.0109 1 25.6309 1 23.9309V3.38086C1 4.94086 2.51 6.23086 4.44 6.42086V21.7009C4.44 23.4009 5.82 24.7809 7.52 24.7809H11.6C14.5 24.7809 16.85 27.1309 16.85 30.0209Z" stroke="#252630" stroke-miterlimit="10" stroke-linecap="round" stroke-linejoin="round"/>
<path d="M16.8492 9.32V30.01C16.8492 27.12 14.4992 24.77 11.6092 24.77H7.52922C5.82922 24.77 4.44922 23.39 4.44922 21.69V1C4.44922 2.7 5.82922 4.08 7.52922 4.08H11.6092C14.4992 4.09 16.8492 6.43 16.8492 9.32Z" stroke="#252630" stroke-miterlimit="10" stroke-linecap="round" stroke-linejoin="round"/>
<path d="M32.5598 24.6891C32.1298 26.0291 30.5898 27.0091 28.7498 27.0091H23.5198C19.8298 27.0091 16.8398 27.1291 16.8398 30.0191C16.8398 27.1291 19.1898 24.7791 22.0798 24.7791H26.1598C27.0498 24.7791 27.8598 24.3891 28.4298 23.7891L28.9098 24.2691C29.5398 24.8991 30.5498 24.8991 31.1798 24.2691L31.6598 23.7891L32.5598 24.6891Z" stroke="#252630" stroke-miterlimit="10" stroke-linecap="round" stroke-linejoin="round"/>
<path d="M32.69 3.38086V14.6809L29.25 18.1209V6.42086C31.18 6.23086 32.69 4.94086 32.69 3.38086Z" stroke="#252630" stroke-miterlimit="10" stroke-linecap="round" stroke-linejoin="round"/>
<path d="M29.2516 1V18.12L27.1516 20.22C26.5216 20.85 26.5216 21.86 27.1516 22.49L28.4416 23.78C27.8716 24.39 27.0616 24.77 26.1716 24.77H22.0916C19.2016 24.77 16.8516 27.12 16.8516 30.01V9.32C16.8516 6.43 19.2016 4.08 22.0916 4.08H26.1716C27.8716 4.09 29.2516 2.7 29.2516 1Z" stroke="#252630" stroke-miterlimit="10" stroke-linecap="round" stroke-linejoin="round"/>
</svg>
