<svg width="36" height="52" viewBox="0 0 36 52" fill="none" xmlns="http://www.w3.org/2000/svg">
<path d="M22.1555 15.5058C22.1555 18.8815 17.4238 21.6152 11.5814 21.6152C5.73889 21.6152 1 18.8815 1 15.5058C1 12.1374 5.73889 9.39648 11.5814 9.39648C17.4238 9.39648 22.1555 12.1374 22.1555 15.5058Z" stroke="#333333" stroke-miterlimit="10" stroke-linecap="round" stroke-linejoin="round"/>
<path d="M1 44.8894V15.5039C1 18.8796 5.73889 21.6133 11.5814 21.6133C17.4238 21.6133 22.1555 18.8796 22.1555 15.5039V44.8894C22.1555 48.265 17.4238 50.9987 11.5814 50.9987C5.73889 50.9987 1 48.265 1 44.8894Z" stroke="#333333" stroke-miterlimit="10" stroke-linecap="round" stroke-linejoin="round"/>
<path d="M35.4344 5.44316C35.4344 7.89556 31.5754 9.87911 26.8077 9.87911C22.04 9.87911 18.1738 7.89556 18.1738 5.44316C18.1738 2.99077 22.04 1 26.8077 1C31.5754 1 35.4344 2.99077 35.4344 5.44316Z" stroke="#333333" stroke-miterlimit="10" stroke-linecap="round" stroke-linejoin="round"/>
<path d="M17.8848 23.5605V49.6569" stroke="#333333" stroke-miterlimit="10" stroke-linecap="round" stroke-linejoin="round"/>
<path d="M15.7012 21.1309V46.3184" stroke="#333333" stroke-miterlimit="10" stroke-linecap="round" stroke-linejoin="round"/>
<path d="M32.2598 9.0293V38.0974" stroke="#333333" stroke-miterlimit="10" stroke-linecap="round" stroke-linejoin="round"/>
<path d="M30.0684 13.623V38.8683" stroke="#333333" stroke-miterlimit="10" stroke-linecap="round" stroke-linejoin="round"/>
<path d="M11.5819 19.5737C7.26134 19.5737 3.75586 17.7488 3.75586 15.5056C3.75586 13.2624 7.26134 11.4375 11.5819 11.4375C14.1713 11.4375 16.465 12.0939 17.8932 13.1037" stroke="#333333" stroke-miterlimit="10" stroke-linecap="round" stroke-linejoin="round"/>
<path d="M26.8082 7.86662C23.5624 7.86662 20.9297 6.77747 20.9297 5.44307C20.9297 4.10147 23.5624 3.01953 26.8082 3.01953C28.6403 3.01953 30.2849 3.36575 31.3596 3.90672" stroke="#333333" stroke-miterlimit="10" stroke-linecap="round" stroke-linejoin="round"/>
<path d="M18.1738 10.7304V5.44336C18.1738 7.89575 22.04 9.87931 26.8077 9.87931C31.5754 9.87931 35.4344 7.89575 35.4344 5.44336V34.8288C35.4344 37.2812 31.5754 39.2648 26.8077 39.2648C25.091 39.2648 23.497 39.0051 22.1482 38.5651" stroke="#333333" stroke-miterlimit="10" stroke-linecap="round" stroke-linejoin="round"/>
</svg>
