<svg width="72" height="52" viewBox="0 0 72 52" fill="none" xmlns="http://www.w3.org/2000/svg">
<path d="M1 44.2287C1 44.2287 14.5456 44.2287 20.6404 44.2287C26.7352 44.2287 32.83 41.0137 39.1761 41.0137C45.5223 41.0137 47.1298 43.5506 55.9368 42.6212C64.7437 41.6917 70.4119 38.5605 70.4119 38.5605V51.0015H1V44.2287Z" stroke="#333333" stroke-miterlimit="10" stroke-linecap="round" stroke-linejoin="round"/>
<path d="M1 48.539C8.70227 44.8135 15.3075 48.539 19.7948 48.539C27.6646 48.539 27.7484 45.8268 37.401 45.1564C46.5203 44.5164 57.0414 50.8245 70.4119 44.3945" stroke="#333333" stroke-miterlimit="10" stroke-linecap="round" stroke-linejoin="round"/>
<path d="M2.18164 50.9911L6.05944 47.1133" stroke="#333333" stroke-miterlimit="10" stroke-linecap="round" stroke-linejoin="round"/>
<path d="M7.51367 50.9911L11.3915 47.1133" stroke="#333333" stroke-miterlimit="10" stroke-linecap="round" stroke-linejoin="round"/>
<path d="M12.8477 50.9925L15.7503 48.0898" stroke="#333333" stroke-miterlimit="10" stroke-linecap="round" stroke-linejoin="round"/>
<path d="M18.1797 50.992L20.5719 48.6074" stroke="#333333" stroke-miterlimit="10" stroke-linecap="round" stroke-linejoin="round"/>
<path d="M23.5137 50.9912L27.0791 47.4258" stroke="#333333" stroke-miterlimit="10" stroke-linecap="round" stroke-linejoin="round"/>
<path d="M28.8457 50.9921L34.3767 45.4688" stroke="#333333" stroke-miterlimit="10" stroke-linecap="round" stroke-linejoin="round"/>
<path d="M34.1797 50.9928L39.9926 45.1875" stroke="#333333" stroke-miterlimit="10" stroke-linecap="round" stroke-linejoin="round"/>
<path d="M39.5117 50.9925L44.7913 45.7129" stroke="#333333" stroke-miterlimit="10" stroke-linecap="round" stroke-linejoin="round"/>
<path d="M44.8457 50.9931L49.3406 46.5059" stroke="#333333" stroke-miterlimit="10" stroke-linecap="round" stroke-linejoin="round"/>
<path d="M50.1777 50.9934L53.9641 47.207" stroke="#333333" stroke-miterlimit="10" stroke-linecap="round" stroke-linejoin="round"/>
<path d="M55.5098 50.993L59.2428 47.2676" stroke="#333333" stroke-miterlimit="10" stroke-linecap="round" stroke-linejoin="round"/>
<path d="M60.8438 50.9918L65.6205 46.2227" stroke="#333333" stroke-miterlimit="10" stroke-linecap="round" stroke-linejoin="round"/>
<path d="M21.1504 44.2189L26.8185 38.5508" stroke="#333333" stroke-miterlimit="10" stroke-linecap="round" stroke-linejoin="round"/>
<path d="M27.4883 43.2047L31.9603 38.7402" stroke="#333333" stroke-miterlimit="10" stroke-linecap="round" stroke-linejoin="round"/>
<path d="M34.6504 41.3848L37.4845 38.5508" stroke="#333333" stroke-miterlimit="10" stroke-linecap="round" stroke-linejoin="round"/>
<path d="M40.3867 40.9735L42.817 38.5508" stroke="#333333" stroke-miterlimit="10" stroke-linecap="round" stroke-linejoin="round"/>
<path d="M45.1035 41.5984L48.0595 38.6348" stroke="#333333" stroke-miterlimit="10" stroke-linecap="round" stroke-linejoin="round"/>
<path d="M49.3848 42.6495L53.4835 38.5508" stroke="#333333" stroke-miterlimit="10" stroke-linecap="round" stroke-linejoin="round"/>
<path d="M54.6348 42.7333L58.8173 38.5508" stroke="#333333" stroke-miterlimit="10" stroke-linecap="round" stroke-linejoin="round"/>
<path d="M61.0332 41.6591L64.1492 38.5508" stroke="#333333" stroke-miterlimit="10" stroke-linecap="round" stroke-linejoin="round"/>
<path d="M66.1758 50.9919L70.4117 46.7637" stroke="#333333" stroke-miterlimit="10" stroke-linecap="round" stroke-linejoin="round"/>
<path d="M70.411 38.5508H21.1424L18.9863 40.5392" stroke="#333333" stroke-miterlimit="10" stroke-linecap="round" stroke-linejoin="round"/>
<path d="M19.3749 42.1464L18.2626 38.8477L12.9297 40.5009" stroke="#333333" stroke-miterlimit="10" stroke-linecap="round" stroke-linejoin="round"/>
<path d="M14.4998 42.1465C14.2484 41.9789 11.3229 39.541 11.3229 39.541L7.55936 40.5924L7.22415 41.9332L4.38246 41.7656L2.98828 44.2188" stroke="#333333" stroke-miterlimit="10" stroke-linecap="round" stroke-linejoin="round"/>
<path d="M24.6694 38.3525C26.2893 38.3525 27.6025 37.0393 27.6025 35.4194C27.6025 33.7995 26.2893 32.4863 24.6694 32.4863C23.0495 32.4863 21.7363 33.7995 21.7363 35.4194C21.7363 37.0393 23.0495 38.3525 24.6694 38.3525Z" stroke="#333333" stroke-miterlimit="10" stroke-linecap="round" stroke-linejoin="round"/>
<path d="M51.5034 38.3525C53.1233 38.3525 54.4365 37.0393 54.4365 35.4194C54.4365 33.7995 53.1233 32.4863 51.5034 32.4863C49.8835 32.4863 48.5703 33.7995 48.5703 35.4194C48.5703 37.0393 49.8835 38.3525 51.5034 38.3525Z" stroke="#333333" stroke-miterlimit="10" stroke-linecap="round" stroke-linejoin="round"/>
<path d="M57.3765 38.3525C58.9964 38.3525 60.3096 37.0393 60.3096 35.4194C60.3096 33.7995 58.9964 32.4863 57.3765 32.4863C55.7566 32.4863 54.4434 33.7995 54.4434 35.4194C54.4434 37.0393 55.7566 38.3525 57.3765 38.3525Z" stroke="#333333" stroke-miterlimit="10" stroke-linecap="round" stroke-linejoin="round"/>
<path d="M18.6816 33.9039L20.9748 28.51C21.4319 27.4282 22.4909 26.7349 23.6641 26.7349H25.6525C26.5668 26.7349 27.4048 26.2168 27.8086 25.394L29.477 22.019C30.0179 20.9296 31.1302 20.2363 32.3416 20.2363H37.0726V35.4199H29.2942L27.6029 30.9022H19.9387" stroke="#333333" stroke-miterlimit="10" stroke-linecap="round" stroke-linejoin="round"/>
<path d="M35.5581 25.7671V21.7598H32.3507C31.7108 21.7598 31.1317 22.1178 30.8499 22.6892L29.3262 25.7671H35.5581Z" stroke="#333333" stroke-miterlimit="10" stroke-linecap="round" stroke-linejoin="round"/>
<path d="M20.4347 34.1797H17.334V35.7567H20.4347V34.1797Z" stroke="#333333" stroke-miterlimit="10" stroke-linecap="round" stroke-linejoin="round"/>
<path d="M37.0801 35.4208H47.4107V32.2363H37.0801" stroke="#333333" stroke-miterlimit="10" stroke-linecap="round" stroke-linejoin="round"/>
<path d="M42.7266 26.7285H47.8919H53.0572V24.9687V23.2012H47.8919H42.7266V24.9687V26.7285Z" stroke="#333333" stroke-miterlimit="10" stroke-linecap="round" stroke-linejoin="round"/>
<path d="M38.9466 25.7461H37.0801V32.237H38.9466V25.7461Z" stroke="#333333" stroke-miterlimit="10" stroke-linecap="round" stroke-linejoin="round"/>
<path d="M40.8138 25.7461H38.9473V32.237H40.8138V25.7461Z" stroke="#333333" stroke-miterlimit="10" stroke-linecap="round" stroke-linejoin="round"/>
<path d="M61.6357 28.5098H40.8145V32.2352H61.6357V28.5098Z" stroke="#333333" stroke-miterlimit="10" stroke-linecap="round" stroke-linejoin="round"/>
<path d="M44.9277 26.7266V28.5093" stroke="#333333" stroke-miterlimit="10" stroke-linecap="round" stroke-linejoin="round"/>
<path d="M50.8555 26.7266V28.5093" stroke="#333333" stroke-miterlimit="10" stroke-linecap="round" stroke-linejoin="round"/>
<path d="M53.0566 24.9688H58.8695V28.5113" stroke="#333333" stroke-miterlimit="10" stroke-linecap="round" stroke-linejoin="round"/>
<path d="M43.4414 26.7361C43.9823 25.2353 45.0489 23.9783 46.4126 23.2012" stroke="#333333" stroke-miterlimit="10" stroke-linecap="round" stroke-linejoin="round"/>
<path d="M49.9414 26.7361C50.4823 25.2353 51.5489 23.9783 52.9126 23.2012" stroke="#333333" stroke-miterlimit="10" stroke-linecap="round" stroke-linejoin="round"/>
<path d="M46.6953 26.7361C47.2362 25.2353 48.3028 23.9783 49.6665 23.2012" stroke="#333333" stroke-miterlimit="10" stroke-linecap="round" stroke-linejoin="round"/>
<path d="M63.3867 38.5514V9.06789L66.4874 3.75781H67.8968" stroke="#333333" stroke-miterlimit="10" stroke-linecap="round" stroke-linejoin="round"/>
<path d="M67.8965 1V38.5514" stroke="#333333" stroke-miterlimit="10" stroke-linecap="round" stroke-linejoin="round"/>
<path d="M70.4121 1V34.5213" stroke="#333333" stroke-miterlimit="10" stroke-linecap="round" stroke-linejoin="round"/>
<path d="M69.4199 28.5104L71.3931 27.1543" stroke="#333333" stroke-miterlimit="10" stroke-linecap="round" stroke-linejoin="round"/>
<path d="M69.4199 30.6823L71.3931 29.3262" stroke="#333333" stroke-miterlimit="10" stroke-linecap="round" stroke-linejoin="round"/>
<path d="M69.4199 32.8522L71.3931 31.4961" stroke="#333333" stroke-miterlimit="10" stroke-linecap="round" stroke-linejoin="round"/>
<path d="M70.4106 9.18164H67.8965" stroke="#333333" stroke-miterlimit="10" stroke-linecap="round" stroke-linejoin="round"/>
<path d="M70.4106 19.7715H67.8965" stroke="#333333" stroke-miterlimit="10" stroke-linecap="round" stroke-linejoin="round"/>
<path d="M67.8968 38.5511L63.3867 34.041" stroke="#333333" stroke-miterlimit="10" stroke-linecap="round" stroke-linejoin="round"/>
<path d="M67.8968 29.5234L63.3867 34.0412" stroke="#333333" stroke-miterlimit="10" stroke-linecap="round" stroke-linejoin="round"/>
<path d="M67.8968 29.7365L63.3867 25.2188" stroke="#333333" stroke-miterlimit="10" stroke-linecap="round" stroke-linejoin="round"/>
<path d="M67.8968 20.709L63.3867 25.2191" stroke="#333333" stroke-miterlimit="10" stroke-linecap="round" stroke-linejoin="round"/>
<path d="M67.8968 20.922L63.3867 16.4043" stroke="#333333" stroke-miterlimit="10" stroke-linecap="round" stroke-linejoin="round"/>
<path d="M67.8968 11.8867L63.3867 16.4045" stroke="#333333" stroke-miterlimit="10" stroke-linecap="round" stroke-linejoin="round"/>
<path d="M67.897 12.1001L63.9277 8.13086" stroke="#333333" stroke-miterlimit="10" stroke-linecap="round" stroke-linejoin="round"/>
<path d="M61.6348 28.5098H63.387" stroke="#333333" stroke-miterlimit="10" stroke-linecap="round" stroke-linejoin="round"/>
<path d="M61.6348 30.0039H63.387" stroke="#333333" stroke-miterlimit="10" stroke-linecap="round" stroke-linejoin="round"/>
</svg>
