<svg width="58" height="55" viewBox="0 0 58 55" fill="none" xmlns="http://www.w3.org/2000/svg">
<path d="M16.9102 14.1613V14.6855C16.9102 15.1303 17.0531 15.5672 17.3073 15.9247" stroke="#333333" stroke-miterlimit="10" stroke-linecap="round" stroke-linejoin="round"/>
<path d="M26.7754 11.0233V10.7373" stroke="#333333" stroke-miterlimit="10" stroke-linecap="round" stroke-linejoin="round"/>
<path d="M26.7745 7.98133V10.6582H26.7109C26.6235 10.404 26.4409 10.1816 26.2026 10.0386L25.5433 9.65736V10.6582H20.5072C19.6255 10.6582 18.8868 9.94332 18.8868 9.06161C18.8868 9.72885 18.4658 10.3008 17.878 10.547C17.6874 10.6106 17.4888 10.6582 17.2743 10.6582H16.9089V9.65736L16.2497 10.0386C16.0114 10.1816 15.8287 10.404 15.7413 10.6582H15.6777V7.98133C15.6777 7.92573 15.6777 7.87012 15.6857 7.81452C15.781 6.21793 17.0916 4.96289 18.7041 4.96289H21.945C22.8346 4.96289 23.5654 5.67778 23.5654 6.55154C23.5654 5.89225 23.6925 5.0741 24.5742 5.0741C26.0278 5.0741 26.695 6.50388 26.7586 7.81452C26.7745 7.87012 26.7745 7.92573 26.7745 7.98133Z" stroke="#333333" stroke-miterlimit="10" stroke-linecap="round" stroke-linejoin="round"/>
<path d="M19.8246 19.983C19.8087 19.9115 19.8008 19.84 19.8008 19.7606C19.8008 19.7526 19.8008 19.7447 19.8008 19.7367L19.8405 18.3625" stroke="#333333" stroke-miterlimit="10" stroke-linecap="round" stroke-linejoin="round"/>
<path d="M22.6211 18.3625L22.6529 19.7367C22.6529 19.8162 22.6449 19.9035 22.629 19.983" stroke="#333333" stroke-miterlimit="10" stroke-linecap="round" stroke-linejoin="round"/>
<path d="M17.3233 24.1213L16.9023 25.4081" stroke="#333333" stroke-miterlimit="10" stroke-linecap="round" stroke-linejoin="round"/>
<path d="M25.1309 24.1213L25.5519 25.4081" stroke="#333333" stroke-miterlimit="10" stroke-linecap="round" stroke-linejoin="round"/>
<path d="M16.9089 9.65747V14.1613L16.2497 13.7721C15.924 13.5894 15.7254 13.2637 15.6936 12.9063C15.6777 12.8665 15.6777 12.8268 15.6777 12.7871V11.0317C15.6777 10.9919 15.6777 10.9522 15.6857 10.9125C15.6936 10.8251 15.7095 10.7378 15.7413 10.6583C15.8287 10.4041 16.0114 10.1817 16.2497 10.0387L16.9089 9.65747Z" stroke="#333333" stroke-miterlimit="10" stroke-linecap="round" stroke-linejoin="round"/>
<path d="M26.7742 11.0317V12.7871C26.7742 12.8268 26.7742 12.8665 26.7662 12.9063C26.7265 13.2637 26.5279 13.5894 26.2023 13.7721L25.543 14.1613V9.65747L26.2023 10.0387C26.4406 10.1817 26.6233 10.4041 26.7106 10.6583C26.7424 10.7378 26.7583 10.8251 26.7662 10.9125C26.7742 10.9522 26.7742 10.9919 26.7742 11.0317Z" stroke="#333333" stroke-miterlimit="10" stroke-linecap="round" stroke-linejoin="round"/>
<path d="M15.6943 12.9064C15.6864 12.9064 15.6864 12.9064 15.6785 12.9064C15.1304 12.9064 14.6855 12.4615 14.6855 11.9055C14.6855 11.3574 15.1304 10.9126 15.6785 10.9126H15.6864C15.6785 10.9523 15.6785 10.992 15.6785 11.0317V12.7872C15.6785 12.8269 15.6785 12.8666 15.6943 12.9064Z" stroke="#333333" stroke-miterlimit="10" stroke-linecap="round" stroke-linejoin="round"/>
<path d="M27.7686 11.9055C27.7686 12.4615 27.3237 12.9064 26.7757 12.9064H26.7598C26.7757 12.8666 26.7757 12.8269 26.7757 12.7872V11.0317C26.7757 10.992 26.7757 10.9523 26.7677 10.9126H26.7757C27.3237 10.9126 27.7686 11.3574 27.7686 11.9055Z" stroke="#333333" stroke-miterlimit="10" stroke-linecap="round" stroke-linejoin="round"/>
<path d="M19.8008 16.5994V15.7018L21.2306 16.1943V17.2825L17.3066 15.9242" stroke="#333333" stroke-miterlimit="10" stroke-linecap="round" stroke-linejoin="round"/>
<path d="M30.8753 27.1096V30.271H3.43923C2.13653 30.271 1.08008 29.2146 1.08008 27.9198V24.7584C1.08008 25.7831 1.74731 26.6569 2.66873 26.9825C2.90703 27.062 3.16916 27.1096 3.43923 27.1096H30.8753V27.1096Z" stroke="#333333" stroke-miterlimit="10" stroke-linecap="round" stroke-linejoin="round"/>
<path d="M39.025 1H3.43923C2.13653 1 1.08008 2.05645 1.08008 3.35121V24.7504C1.08008 25.775 1.74731 26.6488 2.66873 26.9745C2.90703 27.0539 3.16916 27.1016 3.43923 27.1016H30.8753V9.56284C30.8753 8.46667 31.7649 7.57702 32.8611 7.57702H41.3763V3.35915C41.3763 2.0644 40.3277 1 39.025 1ZM15.6798 10.659V7.98213C15.6798 7.92653 15.6798 7.87092 15.6877 7.81532C15.7831 6.21872 17.0937 4.96369 18.7062 4.96369H21.947C22.8367 4.96369 23.5675 5.67858 23.5675 6.55234C23.5675 5.89305 23.6945 5.07489 24.5762 5.07489C26.0299 5.07489 26.6971 6.50468 26.7606 7.81532C26.7765 7.87092 26.7765 7.92653 26.7765 7.98213V10.659H26.713C26.7448 10.7384 26.7606 10.8258 26.7686 10.9132H26.7765C27.3246 10.9132 27.7694 11.358 27.7694 11.9061C27.7694 12.4621 27.3246 12.907 26.7765 12.907H26.7686C26.7289 13.2644 26.5303 13.5901 26.2046 13.7728L25.5453 14.162V14.6862C25.5453 15.2661 25.307 15.8301 24.894 16.2272L22.8367 18.1892C22.5745 18.4355 22.2171 18.5864 21.8438 18.5864H20.6126C20.3345 18.5864 20.0645 18.5069 19.8421 18.364C19.7626 18.3084 19.6911 18.2528 19.6197 18.1892L17.5623 16.2272C17.467 16.1319 17.3797 16.0366 17.3082 15.9254L15.7989 15.4091C15.1317 15.1787 14.6869 14.5592 14.6869 13.8522V11.9061C14.6869 11.358 15.1317 10.9132 15.6798 10.9132H15.6877C15.6957 10.8258 15.7116 10.7384 15.7433 10.659H15.6798ZM13.416 25.4176C13.4239 24.941 13.8767 22.987 14.671 21.7001C15.1238 20.9614 15.6401 20.5325 16.7362 20.3418L19.8262 19.9844C19.8897 20.4133 20.1439 20.7946 20.5331 21.0091C20.9621 21.2553 21.4943 21.2553 21.9232 21.0091H21.9311C22.3124 20.7946 22.5666 20.4133 22.6301 19.9844L25.7201 20.3418C26.8162 20.5325 27.3326 20.9614 27.7853 21.7001C28.5797 22.987 29.0324 24.941 29.0404 25.4176H13.416Z" stroke="#333333" stroke-miterlimit="10" stroke-linecap="round" stroke-linejoin="round"/>
<path d="M14.6855 13.8524V11.9063C14.6855 11.3582 15.1304 10.9134 15.6785 10.9134H15.6864C15.6943 10.826 15.7102 10.7386 15.742 10.6592H15.6785V7.98231C15.6785 7.9267 15.6785 7.8711 15.6864 7.8155C15.7817 6.2189 17.0924 4.96387 18.7048 4.96387H21.9457C22.8353 4.96387 23.5661 5.67876 23.5661 6.55252C23.5661 5.89323 23.6932 5.07507 24.5749 5.07507C26.0285 5.07507 26.6958 6.50486 26.7593 7.8155C26.7752 7.8711 26.7752 7.9267 26.7752 7.98231V10.6592H26.7116C26.7434 10.7386 26.7593 10.826 26.7672 10.9134H26.7752C27.3233 10.9134 27.7681 11.3582 27.7681 11.9063C27.7681 12.4623 27.3233 12.9071 26.7752 12.9071H26.7672C26.7275 13.2646 26.529 13.5903 26.2033 13.7729L25.544 14.1622V14.6864C25.544 15.2663 25.3057 15.8303 24.8926 16.2274L22.8353 18.1894C22.5732 18.4356 22.2158 18.5866 21.8424 18.5866H20.6112C20.3332 18.5866 20.0631 18.5071 19.8407 18.3642C19.7613 18.3085 19.6898 18.2529 19.6183 18.1894L17.561 16.2274C17.4657 16.1321 17.3783 16.0368 17.3068 15.9256L15.7976 15.4093C15.1304 15.1789 14.6855 14.5593 14.6855 13.8524Z" stroke="#333333" stroke-miterlimit="10" stroke-linecap="round" stroke-linejoin="round"/>
<path d="M29.0404 25.4179H13.416C13.424 24.9413 13.8767 22.9873 14.6711 21.7005C15.1238 20.9618 15.6401 20.5328 16.7363 20.3422L19.8262 19.9847C19.8898 20.4137 20.144 20.795 20.5332 21.0094C20.9621 21.2557 21.4943 21.2557 21.9233 21.0094H21.9312C22.3125 20.795 22.5667 20.4137 22.6302 19.9847L25.7201 20.3422C26.8163 20.5328 27.3326 20.9618 27.7854 21.7005C28.5797 22.9873 29.0325 24.9413 29.0404 25.4179Z" stroke="#333333" stroke-miterlimit="10" stroke-linecap="round" stroke-linejoin="round"/>
<path d="M19.8008 28.6975H22.6524" stroke="#333333" stroke-miterlimit="10" stroke-linecap="round" stroke-linejoin="round"/>
<path d="M57.0003 47.0709V50.423C57.0003 51.5192 56.1106 52.4088 55.0144 52.4088H32.8607C31.8281 52.4088 30.9781 51.6224 30.8828 50.6136H36.3081C36.872 50.6136 37.3327 50.1609 37.3327 49.5969V49.0567H55.0144C56.1106 49.0567 57.0003 48.1671 57.0003 47.0709Z" stroke="#333333" stroke-miterlimit="10" stroke-linecap="round" stroke-linejoin="round"/>
<path d="M57.0004 9.56223V12.9143C57.0004 11.8181 56.1107 10.9285 55.0146 10.9285H32.8608C31.7646 10.9285 30.875 11.8181 30.875 12.9143V9.56223C30.875 8.46606 31.7646 7.57642 32.8608 7.57642H55.0146C56.1107 7.57642 57.0004 8.46606 57.0004 9.56223Z" stroke="#333333" stroke-miterlimit="10" stroke-linecap="round" stroke-linejoin="round"/>
<path d="M43.9559 12.8203C41.5729 12.8203 39.6348 14.7505 39.6348 17.1414C39.6348 17.9278 39.8492 18.6666 40.2146 19.302C40.9613 18.0152 42.3593 17.1414 43.9559 17.1414C45.5604 17.1414 46.9505 18.0152 47.6972 19.302C48.0705 18.6666 48.285 17.9278 48.285 17.1414C48.285 14.7505 46.3468 12.8203 43.9559 12.8203ZM43.9559 16.9031C43.1933 16.9031 42.5738 16.2836 42.5738 15.521C42.5738 14.7505 43.1933 14.131 43.9559 14.131C44.7264 14.131 45.346 14.7505 45.346 15.521C45.346 16.2836 44.7264 16.9031 43.9559 16.9031Z" stroke="#333333" stroke-miterlimit="10" stroke-linecap="round" stroke-linejoin="round"/>
<path d="M47.6974 19.3016C46.9507 20.5963 45.5607 21.4701 43.9561 21.4701C42.3595 21.4701 40.9615 20.5963 40.2148 19.3016C40.9615 18.0147 42.3595 17.141 43.9561 17.141C45.5607 17.141 46.9507 18.0147 47.6974 19.3016Z" stroke="#333333" stroke-miterlimit="10" stroke-linecap="round" stroke-linejoin="round"/>
<path d="M43.9564 16.9032C44.7189 16.9032 45.3385 16.2836 45.3385 15.521C45.3385 14.7585 44.7189 14.1389 43.9564 14.1389C43.1938 14.1389 42.5742 14.7585 42.5742 15.521C42.5742 16.2757 43.1938 16.9032 43.9564 16.9032Z" stroke="#333333" stroke-miterlimit="10" stroke-linecap="round" stroke-linejoin="round"/>
<path d="M43.9559 25.6241C41.5729 25.6241 39.6348 27.5623 39.6348 29.9532C39.6348 30.7396 39.8492 31.4783 40.2146 32.1138C40.9613 30.827 42.3593 29.9532 43.9559 29.9532C45.5604 29.9532 46.9505 30.827 47.6972 32.1138C48.0705 31.4783 48.285 30.7396 48.285 29.9532C48.285 27.5623 46.3468 25.6241 43.9559 25.6241ZM43.9559 29.7149C43.1933 29.7149 42.5738 29.0953 42.5738 28.3249C42.5738 27.5623 43.1933 26.9427 43.9559 26.9427C44.7264 26.9427 45.346 27.5623 45.346 28.3249C45.346 29.0953 44.7264 29.7149 43.9559 29.7149Z" stroke="#333333" stroke-miterlimit="10" stroke-linecap="round" stroke-linejoin="round"/>
<path d="M47.6974 32.1122C46.9507 33.407 45.5607 34.2728 43.9561 34.2728C42.3595 34.2728 40.9615 33.407 40.2148 32.1122C40.9615 30.8254 42.3595 29.9517 43.9561 29.9517C45.5607 29.9517 46.9507 30.8254 47.6974 32.1122Z" stroke="#333333" stroke-miterlimit="10" stroke-linecap="round" stroke-linejoin="round"/>
<path d="M43.9564 29.7063C44.7189 29.7063 45.3385 29.0867 45.3385 28.3241C45.3385 27.5616 44.7189 26.942 43.9564 26.942C43.1938 26.942 42.5742 27.5616 42.5742 28.3241C42.5742 29.0867 43.1938 29.7063 43.9564 29.7063Z" stroke="#333333" stroke-miterlimit="10" stroke-linecap="round" stroke-linejoin="round"/>
<path d="M43.9559 38.4373C41.5729 38.4373 39.6348 40.3754 39.6348 42.7663C39.6348 43.5527 39.8492 44.2914 40.2146 44.9269C40.9613 43.6321 42.3593 42.7663 43.9559 42.7663C45.5604 42.7663 46.9505 43.6321 47.6972 44.9269C48.0705 44.2914 48.285 43.5527 48.285 42.7663C48.285 40.3754 46.3468 38.4373 43.9559 38.4373ZM43.9559 42.528C43.1933 42.528 42.5738 41.9085 42.5738 41.138C42.5738 40.3754 43.1933 39.7558 43.9559 39.7558C44.7264 39.7558 45.346 40.3754 45.346 41.138C45.346 41.9085 44.7264 42.528 43.9559 42.528Z" stroke="#333333" stroke-miterlimit="10" stroke-linecap="round" stroke-linejoin="round"/>
<path d="M47.6974 44.9261C46.9507 46.2208 45.5607 47.0866 43.9561 47.0866C42.3595 47.0866 40.9615 46.2208 40.2148 44.9261C40.9615 43.6313 42.3595 42.7655 43.9561 42.7655C45.5607 42.7655 46.9507 43.6313 47.6974 44.9261Z" stroke="#333333" stroke-miterlimit="10" stroke-linecap="round" stroke-linejoin="round"/>
<path d="M43.9564 42.52C44.7189 42.52 45.3385 41.9004 45.3385 41.1379C45.3385 40.3753 44.7189 39.7557 43.9564 39.7557C43.1938 39.7557 42.5742 40.3753 42.5742 41.1379C42.5742 41.9004 43.1938 42.52 43.9564 42.52Z" stroke="#333333" stroke-miterlimit="10" stroke-linecap="round" stroke-linejoin="round"/>
<path d="M50.2791 23.5437H43.9563H37.5938" stroke="#333333" stroke-miterlimit="10" stroke-linecap="round" stroke-linejoin="round"/>
<path d="M50.2791 36.3568H43.9563H37.5938" stroke="#333333" stroke-miterlimit="10" stroke-linecap="round" stroke-linejoin="round"/>
<path d="M40.9395 50.7013H46.9366" stroke="#333333" stroke-miterlimit="10" stroke-linecap="round" stroke-linejoin="round"/>
<path d="M37.3324 39.4619V49.5975C37.3324 50.1615 36.8717 50.6143 36.3077 50.6143H29.6433L19.325 54.3794V50.6143H16.0286C15.4646 50.6143 15.0039 50.1615 15.0039 49.5975V46.3646L20.6754 48.4378V44.6727H23.9718C24.5358 44.6727 24.9886 44.22 24.9886 43.656V38.4373H36.3077C36.8717 38.4373 37.3324 38.898 37.3324 39.4619Z" stroke="#333333" stroke-miterlimit="10" stroke-linecap="round" stroke-linejoin="round"/>
<path d="M24.9887 33.52V43.6556C24.9887 44.2196 24.5359 44.6724 23.9719 44.6724H20.6755V48.4375L15.004 46.3643L10.3572 44.6724H2.02468C1.46071 44.6724 1 44.2196 1 43.6556V33.52C1 32.9561 1.46071 32.4954 2.02468 32.4954H23.9719C24.5359 32.4954 24.9887 32.9561 24.9887 33.52Z" stroke="#333333" stroke-miterlimit="10" stroke-linecap="round" stroke-linejoin="round"/>
<path d="M4.33594 35.7998H21.6522" stroke="#333333" stroke-miterlimit="10" stroke-linecap="round" stroke-linejoin="round"/>
<path d="M4.33594 38.4373H21.6522" stroke="#333333" stroke-miterlimit="10" stroke-linecap="round" stroke-linejoin="round"/>
<path d="M4.33594 41.0654H21.6522" stroke="#333333" stroke-miterlimit="10" stroke-linecap="round" stroke-linejoin="round"/>
<path d="M24.9877 48.843C25.558 48.843 26.0203 48.3806 26.0203 47.8103C26.0203 47.24 25.558 46.7777 24.9877 46.7777C24.4174 46.7777 23.9551 47.24 23.9551 47.8103C23.9551 48.3806 24.4174 48.843 24.9877 48.843Z" stroke="#333333" stroke-miterlimit="10" stroke-linecap="round" stroke-linejoin="round"/>
<path d="M29.5561 48.843C30.1264 48.843 30.5887 48.3806 30.5887 47.8103C30.5887 47.24 30.1264 46.7777 29.5561 46.7777C28.9858 46.7777 28.5234 47.24 28.5234 47.8103C28.5234 48.3806 28.9858 48.843 29.5561 48.843Z" stroke="#333333" stroke-miterlimit="10" stroke-linecap="round" stroke-linejoin="round"/>
<path d="M34.1147 48.843C34.685 48.843 35.1473 48.3806 35.1473 47.8103C35.1473 47.24 34.685 46.7777 34.1147 46.7777C33.5444 46.7777 33.082 47.24 33.082 47.8103C33.082 48.3806 33.5444 48.843 34.1147 48.843Z" stroke="#333333" stroke-miterlimit="10" stroke-linecap="round" stroke-linejoin="round"/>
<path d="M30.875 30.2706V38.4363" stroke="#333333" stroke-miterlimit="10" stroke-linecap="round" stroke-linejoin="round"/>
<path d="M57 12.9149V47.0709" stroke="#333333" stroke-miterlimit="10" stroke-linecap="round" stroke-linejoin="round"/>
</svg>
