<svg width="66" height="46" viewBox="0 0 66 46" fill="none" xmlns="http://www.w3.org/2000/svg">
<path d="M34.2312 32.2463H13.0998C12.6711 32.2463 12.3223 31.8975 12.3223 31.4688V34.8114C12.3223 35.2401 12.6711 35.5889 13.0998 35.5889H34.2312C34.6599 35.5889 35.0087 35.2401 35.0087 34.8114V31.4688C35.0087 31.8975 34.6599 32.2463 34.2312 32.2463Z" stroke="#252630" stroke-miterlimit="10" stroke-linecap="round" stroke-linejoin="round"/>
<path d="M35.0009 21.6229V31.4692C35.0009 31.8979 34.6521 32.2395 34.2306 32.2395H13.0993C12.6705 32.2395 12.3145 31.8907 12.3145 31.4692V21.6229C12.3145 21.2596 12.5615 20.9617 12.9031 20.8817C12.9612 20.8599 13.0339 20.8527 13.0993 20.8527H34.2306C34.6594 20.8454 35.0009 21.1942 35.0009 21.6229Z" stroke="#252630" stroke-miterlimit="10" stroke-linecap="round" stroke-linejoin="round"/>
<path d="M14.4062 22.459H33.394V29.028" stroke="#252630" stroke-miterlimit="10" stroke-linecap="round" stroke-linejoin="round"/>
<path d="M19.5457 35.5889C21.8129 35.5889 22.8303 39.4111 18.2305 39.4111" stroke="#252630" stroke-miterlimit="10" stroke-linecap="round" stroke-linejoin="round"/>
<path d="M27.7839 35.5889C25.5167 35.5889 24.4994 39.4111 29.0992 39.4111" stroke="#252630" stroke-miterlimit="10" stroke-linecap="round" stroke-linejoin="round"/>
<path d="M46.0461 39.4121H1.39258V41.4395H46.0461V39.4121Z" stroke="#252630" stroke-miterlimit="10" stroke-linecap="round" stroke-linejoin="round"/>
<path d="M9.39308 29.5576C9.15328 29.5576 3.60156 29.5576 3.60156 29.5576C3.60156 29.5576 4.55349 36.5409 7.00235 39.4112" stroke="#252630" stroke-miterlimit="10" stroke-linecap="round" stroke-linejoin="round"/>
<path d="M13.7525 35.5889C13.2511 37.0422 12.5971 38.4592 11.7832 39.4111" stroke="#252630" stroke-miterlimit="10" stroke-linecap="round" stroke-linejoin="round"/>
<path d="M9.39258 29.5576C9.50884 29.5576 10.9186 29.5576 12.321 29.5576" stroke="#252630" stroke-miterlimit="10" stroke-linecap="round" stroke-linejoin="round"/>
<path d="M21.5801 33.918H25.8601" stroke="#252630" stroke-miterlimit="10" stroke-linecap="round" stroke-linejoin="round"/>
<path d="M9.09641 27.7702C9.11094 28.4024 9.21268 28.9983 9.40161 29.5578C8.64588 28.5042 8.15175 27.0508 7.86835 25.3795C7.67215 24.1878 7.58495 22.8871 7.59222 21.5427V21.5282C7.60675 20.0821 7.73755 18.5925 7.96281 17.1537V17.1391C8.26801 15.119 8.76941 13.1643 9.39434 11.5293C9.99747 13.0989 10.4843 14.9519 10.7895 16.8921C10.121 19.0139 9.59054 21.1939 9.29988 23.2359C9.29988 23.2431 9.29261 23.2431 9.29988 23.2504C9.19814 23.948 9.12548 24.6456 9.08188 25.2996V25.3141C9.07461 25.3141 9.07461 25.3141 9.08188 25.3214V25.3287C9.02374 26.1425 9.01648 26.9055 9.07461 27.6176L9.08188 27.6249C9.07461 27.6467 9.08188 27.6758 9.08188 27.6976C9.08188 27.7194 9.08188 27.7484 9.09641 27.7702Z" stroke="#252630" stroke-miterlimit="10" stroke-linecap="round" stroke-linejoin="round"/>
<path d="M9.09394 27.6613C9.0794 27.6759 9.0794 27.6904 9.0794 27.6977C9.0794 27.6759 9.07213 27.6468 9.0794 27.625C9.0794 27.6323 9.0794 27.6541 9.09394 27.6613Z" stroke="#252630" stroke-miterlimit="10" stroke-linecap="round" stroke-linejoin="round"/>
<path d="M9.4009 29.5581C9.2047 28.9913 9.11024 28.3954 9.0957 27.7705C9.1393 28.4245 9.2483 29.0276 9.4009 29.5581Z" stroke="#252630" stroke-miterlimit="10" stroke-linecap="round" stroke-linejoin="round"/>
<path d="M9.39975 29.5574C8.46235 28.3221 7.64122 26.4618 6.95815 24.2818C6.36229 22.3634 5.86816 20.2052 5.50483 18.0034C4.95983 14.7262 4.69096 11.369 4.76363 8.63672C5.94809 11.0056 7.08169 14.0358 7.96095 17.1387V17.1532C7.73569 18.5993 7.60489 20.089 7.59035 21.5277V21.5423C7.58309 22.8866 7.67029 24.1873 7.86649 25.3791C8.14988 27.0504 8.63675 28.5037 9.39975 29.5574Z" stroke="#252630" stroke-miterlimit="10" stroke-linecap="round" stroke-linejoin="round"/>
<path d="M9.09394 27.6613C9.0794 27.6759 9.0794 27.6904 9.0794 27.6977C9.0794 27.6759 9.07213 27.6468 9.0794 27.625C9.0794 27.6323 9.0794 27.6541 9.09394 27.6613Z" stroke="#252630" stroke-miterlimit="10" stroke-linecap="round" stroke-linejoin="round"/>
<path d="M9.4009 29.5581C9.2047 28.9913 9.11024 28.3954 9.0957 27.7705C9.1393 28.4245 9.2483 29.0276 9.4009 29.5581Z" stroke="#252630" stroke-miterlimit="10" stroke-linecap="round" stroke-linejoin="round"/>
<path d="M9.40135 29.5587C7.10509 28.3234 5.10676 25.1551 3.7697 21.6017C2.78144 19.0148 2.14924 16.2317 2.00391 13.8555C3.21017 14.9818 4.4237 16.4206 5.50643 17.9975C5.86976 20.1992 6.36389 22.3574 6.95976 24.2758C7.64282 26.4631 8.46395 28.3306 9.40135 29.5587Z" stroke="#252630" stroke-miterlimit="10" stroke-linecap="round" stroke-linejoin="round"/>
<path d="M9.09394 27.6613C9.0794 27.6759 9.0794 27.6904 9.0794 27.6977C9.0794 27.6759 9.07213 27.6468 9.0794 27.625C9.0794 27.6323 9.0794 27.6541 9.09394 27.6613Z" stroke="#252630" stroke-miterlimit="10" stroke-linecap="round" stroke-linejoin="round"/>
<path d="M9.4009 29.5581C9.2047 28.9913 9.11024 28.3954 9.0957 27.7705C9.1393 28.4245 9.2483 29.0276 9.4009 29.5581Z" stroke="#252630" stroke-miterlimit="10" stroke-linecap="round" stroke-linejoin="round"/>
<path d="M9.40024 29.5572C5.73058 29.3174 2.0464 24.3543 1 20.2051C1.9156 20.5466 2.85299 21.0262 3.76132 21.6075C5.10565 25.1609 7.10398 28.3292 9.40024 29.5572Z" stroke="#252630" stroke-miterlimit="10" stroke-linecap="round" stroke-linejoin="round"/>
<path d="M9.09394 27.6613C9.0794 27.6759 9.0794 27.6904 9.0794 27.6977C9.0794 27.6759 9.07213 27.6468 9.0794 27.625C9.0794 27.6323 9.0794 27.6541 9.09394 27.6613Z" stroke="#252630" stroke-miterlimit="10" stroke-linecap="round" stroke-linejoin="round"/>
<path d="M9.4009 29.5581C9.2047 28.9913 9.11024 28.3954 9.0957 27.7705C9.1393 28.4245 9.2483 29.0276 9.4009 29.5581Z" stroke="#252630" stroke-miterlimit="10" stroke-linecap="round" stroke-linejoin="round"/>
<path d="M13.4551 17.6622C13.3098 18.7449 13.1281 19.8204 12.9101 20.8813C12.5686 20.9612 12.3215 21.2592 12.3215 21.6225V23.3084C11.5876 25.9243 10.6066 28.1915 9.40761 29.5649C9.25501 29.0345 9.15327 28.4313 9.10241 27.7773C9.08061 27.7483 9.08061 27.7192 9.08061 27.6974C9.08061 27.6901 9.08061 27.6756 9.08787 27.6538C9.08061 27.6538 9.08061 27.632 9.08061 27.6247L9.07334 27.6175C9.01521 26.9053 9.02247 26.1423 9.08061 25.3285V25.3212C9.08061 25.3212 9.08061 25.3212 9.08061 25.3139V25.2994C9.12421 24.6454 9.19687 23.9551 9.29861 23.2502C9.29134 23.243 9.29861 23.243 9.29861 23.2357C9.58927 21.1938 10.1197 19.0138 10.7883 16.8919C11.6167 14.2541 12.6776 11.7253 13.7894 9.71973C13.9493 12.0523 13.833 14.8718 13.4551 17.6622Z" stroke="#252630" stroke-miterlimit="10" stroke-linecap="round" stroke-linejoin="round"/>
<path d="M9.09394 27.6613C9.0794 27.6759 9.0794 27.6904 9.0794 27.6977C9.0794 27.6759 9.07213 27.6468 9.0794 27.625C9.0794 27.6323 9.0794 27.6541 9.09394 27.6613Z" stroke="#252630" stroke-miterlimit="10" stroke-linecap="round" stroke-linejoin="round"/>
<path d="M16.276 14.9658C16.3414 16.8043 16.0798 18.8607 15.5348 20.8518H13.1005C13.0351 20.8518 12.9624 20.8591 12.9043 20.8809C13.1223 19.8272 13.304 18.7445 13.4493 17.6617C14.3431 16.6299 15.3023 15.707 16.276 14.9658Z" stroke="#252630" stroke-miterlimit="10" stroke-linecap="round" stroke-linejoin="round"/>
<path d="M12.3143 23.3086V27.3634C11.4569 28.3807 10.4759 29.151 9.40039 29.5652C10.5994 28.1918 11.5804 25.9246 12.3143 23.3086Z" stroke="#252630" stroke-miterlimit="10" stroke-linecap="round" stroke-linejoin="round"/>
<path d="M9.4009 29.5581C9.2047 28.9913 9.11024 28.3954 9.0957 27.7705C9.1393 28.4245 9.2483 29.0276 9.4009 29.5581Z" stroke="#252630" stroke-miterlimit="10" stroke-linecap="round" stroke-linejoin="round"/>
<path d="M23.9043 18.3668V12.0957H58.4063V45.1371H23.9043V41.4384" stroke="#252630" stroke-miterlimit="10" stroke-linecap="round" stroke-linejoin="round"/>
<path d="M65.1204 1V39.4115H58.406V12.0962H46.0527V1H65.1204Z" stroke="#252630" stroke-miterlimit="10" stroke-linecap="round" stroke-linejoin="round"/>
<path d="M54.9123 19.101V15.9473H48.6484V19.101" stroke="#252630" stroke-miterlimit="10" stroke-linecap="round" stroke-linejoin="round"/>
<path d="M44.9781 19.101V15.9473H38.707V19.101" stroke="#252630" stroke-miterlimit="10" stroke-linecap="round" stroke-linejoin="round"/>
<path d="M54.9123 28.0102V24.8564H48.6484V28.0102" stroke="#252630" stroke-miterlimit="10" stroke-linecap="round" stroke-linejoin="round"/>
<path d="M44.9781 28.0102V24.8564H38.707V28.0102" stroke="#252630" stroke-miterlimit="10" stroke-linecap="round" stroke-linejoin="round"/>
<path d="M54.9123 36.9193V33.7656H48.6484V36.9193" stroke="#252630" stroke-miterlimit="10" stroke-linecap="round" stroke-linejoin="round"/>
<path d="M44.9781 36.9193V33.7656H38.707V36.9193" stroke="#252630" stroke-miterlimit="10" stroke-linecap="round" stroke-linejoin="round"/>
<path d="M58.406 9.95312H46.0527" stroke="#252630" stroke-miterlimit="10" stroke-linecap="round" stroke-linejoin="round"/>
<path d="M58.406 7.80176H46.0527" stroke="#252630" stroke-miterlimit="10" stroke-linecap="round" stroke-linejoin="round"/>
<path d="M58.406 5.6582H46.0527" stroke="#252630" stroke-miterlimit="10" stroke-linecap="round" stroke-linejoin="round"/>
<path d="M62.709 5.6582V9.77839" stroke="#252630" stroke-miterlimit="10" stroke-linecap="round" stroke-linejoin="round"/>
<path d="M62.709 15.5332V19.6534" stroke="#252630" stroke-miterlimit="10" stroke-linecap="round" stroke-linejoin="round"/>
<path d="M62.709 25.416V29.5289" stroke="#252630" stroke-miterlimit="10" stroke-linecap="round" stroke-linejoin="round"/>
<path d="M62.709 35.292V39.4122" stroke="#252630" stroke-miterlimit="10" stroke-linecap="round" stroke-linejoin="round"/>
</svg>
