<svg width="52" height="52" viewBox="0 0 52 52" fill="none" xmlns="http://www.w3.org/2000/svg">
<path d="M25.3722 42.0586V46.3815H3.43166C2.08868 46.3815 1 45.4121 1 44.2201C1 44.1486 1 44.0691 1.01589 43.9976C1.13509 42.9009 2.1761 42.0586 3.43166 42.0586H25.3722Z" stroke="white" stroke-miterlimit="10" stroke-linecap="round" stroke-linejoin="round"/>
<path d="M1.01562 43.9982C1.11893 41.7334 2.98638 39.9375 5.28295 39.9375H22.543" stroke="white" stroke-miterlimit="10" stroke-linecap="round" stroke-linejoin="round"/>
<path d="M45.1988 46.1028H35.2894H25.3721V44.2194V42.3281H35.2894H45.1988L49.8317 44.2194L45.1988 46.1028Z" stroke="white" stroke-miterlimit="10" stroke-linecap="round" stroke-linejoin="round"/>
<path d="M49.8311 44.2227H51.333" stroke="white" stroke-miterlimit="10" stroke-linecap="round" stroke-linejoin="round"/>
<path d="M25.833 36.4648L26.8978 34.5973L28.8368 35.5271L30.9586 30.2188L32.5479 39.405L34.0498 35.9641H38.3727" stroke="white" stroke-miterlimit="10" stroke-linecap="round" stroke-linejoin="round"/>
<path d="M43.2987 46.3828V50.9998H5.8623V46.3828" stroke="white" stroke-miterlimit="10" stroke-linecap="round" stroke-linejoin="round"/>
<path d="M5.8623 42.0596V16.1855L17.7822 4.26562H43.2987V42.3298" stroke="white" stroke-miterlimit="10" stroke-linecap="round" stroke-linejoin="round"/>
<path d="M17.7822 4.26562V16.1855H5.8623" stroke="white" stroke-miterlimit="10" stroke-linecap="round" stroke-linejoin="round"/>
<path d="M37.6022 8.10547H29.5205V16.1872H37.6022V8.10547Z" stroke="white" stroke-miterlimit="10" stroke-linecap="round" stroke-linejoin="round"/>
<path d="M31.8164 10.226L33.5647 13.4444L37.6015 1" stroke="white" stroke-miterlimit="10" stroke-linecap="round" stroke-linejoin="round"/>
<path d="M10.7832 20.0703H38.3738" stroke="white" stroke-miterlimit="10" stroke-linecap="round" stroke-linejoin="round"/>
<path d="M10.7832 23.2969H38.3738" stroke="white" stroke-miterlimit="10" stroke-linecap="round" stroke-linejoin="round"/>
<path d="M10.7822 26.5234H38.3728" stroke="white" stroke-miterlimit="10" stroke-linecap="round" stroke-linejoin="round"/>
</svg>
