<svg width="72" height="52" viewBox="0 0 72 52" fill="none" xmlns="http://www.w3.org/2000/svg">
<path d="M39.905 36.8703C39.1851 36.4966 38.5471 36.1594 38.0003 35.7858C37.0616 35.1661 36.3872 34.4279 36.0409 33.2249L35.886 32.6872L26.9002 1C24.8679 4.56333 24.4761 8.87396 25.834 12.8201C27.9483 18.9351 31.2108 28.4131 33.7808 35.7949C33.9995 36.4328 34.2183 37.0525 34.4279 37.654C34.9656 39.176 35.4577 40.5794 35.8951 41.8097C36.5513 43.678 37.0708 45.1361 37.3806 45.9654C39.4493 51.5611 43.9696 51.88 46.175 49.8751C50.2396 46.175 45.9928 40.06 39.905 36.8703ZM44.4526 48.2164C42.9762 49.2736 40.7252 48.0251 39.5587 45.1361C37.7634 40.6888 39.0484 40.3242 39.7045 40.1329C40.9622 39.7683 44.562 43.0947 45.1543 45.2181C45.4824 46.3846 45.4186 47.5238 44.4526 48.2164Z" stroke="#333333" stroke-miterlimit="10" stroke-linecap="round" stroke-linejoin="round"/>
<path d="M44.4543 48.2147C42.9779 49.2719 40.7269 48.0233 39.5604 45.1344C37.7651 40.6871 39.05 40.3225 39.7062 40.1311C40.9639 39.7666 44.5636 43.093 45.156 45.2164C45.4841 46.3829 45.4203 47.5221 44.4543 48.2147Z" stroke="#333333" stroke-miterlimit="10" stroke-linecap="round" stroke-linejoin="round"/>
<path d="M44.4543 48.2147C42.9779 49.2719 40.7269 48.0233 39.5604 45.1344C37.7651 40.6871 39.05 40.3225 39.7062 40.1311C40.9639 39.7666 44.5636 43.093 45.156 45.2164C45.4841 46.3829 45.4203 47.5221 44.4543 48.2147Z" stroke="#333333" stroke-miterlimit="10" stroke-linecap="round" stroke-linejoin="round"/>
<path d="M34.4277 37.6541C34.9653 39.176 35.4575 40.5794 35.8949 41.8098C35.2296 43.678 34.7102 45.1361 34.4003 45.9655C32.3225 51.5611 27.8022 51.88 25.5968 49.8751C21.5413 46.1751 25.7882 40.0691 31.8668 36.8703C32.5959 36.4967 33.2338 36.1595 33.7806 35.7949C33.9993 36.4329 34.218 37.0526 34.4277 37.6541Z" stroke="#333333" stroke-miterlimit="10" stroke-linecap="round" stroke-linejoin="round"/>
<path d="M45.9368 12.8201C43.8316 18.9351 40.569 28.4039 37.9991 35.7858C37.0604 35.1661 36.386 34.4279 36.0397 33.2249L35.8848 32.6872L44.8706 1C46.9028 4.56333 47.2947 8.87396 45.9368 12.8201Z" stroke="#333333" stroke-miterlimit="10" stroke-linecap="round" stroke-linejoin="round"/>
<path d="M32.2138 45.1344C34.0091 40.6779 32.715 40.3134 32.0679 40.1311C30.8012 39.7666 27.2105 43.093 26.6181 45.2255C26.2901 46.3829 26.3539 47.5221 27.3199 48.2147C28.7962 49.2719 31.0472 48.0142 32.2138 45.1344Z" stroke="#333333" stroke-miterlimit="10" stroke-linecap="round" stroke-linejoin="round"/>
<path d="M26.7617 15.5195H11.7246V23.3662H29.4775" stroke="#333333" stroke-miterlimit="10" stroke-linecap="round" stroke-linejoin="round"/>
<path d="M21.2499 10.5508H8.51854H1L6.53182 14.4695L2.2941 18.3974H9.86732H11.7265" stroke="#333333" stroke-miterlimit="10" stroke-linecap="round" stroke-linejoin="round"/>
<path d="M11.7246 15.5176L21.2481 10.5508V15.5176" stroke="#333333" stroke-miterlimit="10" stroke-linecap="round" stroke-linejoin="round"/>
<path d="M45.0068 15.5195H60.0439V23.3662H42.291" stroke="#333333" stroke-miterlimit="10" stroke-linecap="round" stroke-linejoin="round"/>
<path d="M50.5215 10.5508H63.2529H70.7714L65.2396 14.4695L69.4773 18.3974H61.9041H60.045" stroke="#333333" stroke-miterlimit="10" stroke-linecap="round" stroke-linejoin="round"/>
<path d="M60.045 15.5176L50.5215 10.5508V15.5176" stroke="#333333" stroke-miterlimit="10" stroke-linecap="round" stroke-linejoin="round"/>
<path d="M31.0215 15.5195H40.7546" stroke="#333333" stroke-miterlimit="10" stroke-linecap="round" stroke-linejoin="round"/>
<path d="M33.2402 23.3633H38.526" stroke="#333333" stroke-miterlimit="10" stroke-linecap="round" stroke-linejoin="round"/>
<path d="M22.6445 28.1484H17.623" stroke="#333333" stroke-miterlimit="10" stroke-linecap="round" stroke-linejoin="round"/>
<path d="M23.2474 32.1133L18.4629 33.617" stroke="#333333" stroke-miterlimit="10" stroke-linecap="round" stroke-linejoin="round"/>
<path d="M25.0125 35.7207L20.9023 38.5823" stroke="#333333" stroke-miterlimit="10" stroke-linecap="round" stroke-linejoin="round"/>
<path d="M49.127 28.1484H54.1484" stroke="#333333" stroke-miterlimit="10" stroke-linecap="round" stroke-linejoin="round"/>
<path d="M48.5273 32.1133L53.3119 33.617" stroke="#333333" stroke-miterlimit="10" stroke-linecap="round" stroke-linejoin="round"/>
<path d="M46.7598 35.7207L50.8699 38.5823" stroke="#333333" stroke-miterlimit="10" stroke-linecap="round" stroke-linejoin="round"/>
</svg>
