<svg width="83" height="52" viewBox="0 0 83 52" fill="none" xmlns="http://www.w3.org/2000/svg">
<path d="M32.4668 21.2598V24.7054C32.4668 25.3841 32.8322 26.021 33.4169 26.3655L34.5237 27.0129" stroke="#333333" stroke-miterlimit="10" stroke-linecap="round" stroke-linejoin="round"/>
<path d="M41.7739 37.4096L39.3516 36.1567L39.4455 34.0371" stroke="#333333" stroke-miterlimit="10" stroke-linecap="round" stroke-linejoin="round"/>
<path d="M39.4431 34.0371C37.856 34.0371 35.538 35.7182 37.1356 40.7821L40.8318 36.9189" stroke="#333333" stroke-miterlimit="10" stroke-linecap="round" stroke-linejoin="round"/>
<path d="M40.8318 36.916L38.1484 47.848L41.7715 51.0012" stroke="#333333" stroke-miterlimit="10" stroke-linecap="round" stroke-linejoin="round"/>
<path d="M38.1483 47.89H26.2871C26.308 46.3969 26.6003 44.9978 27.0806 43.7344" stroke="#333333" stroke-miterlimit="10" stroke-linecap="round" stroke-linejoin="round"/>
<path d="M36.6037 36.2832C35.0062 36.3459 33.3252 36.9097 31.8008 37.9016" stroke="#333333" stroke-miterlimit="10" stroke-linecap="round" stroke-linejoin="round"/>
<path d="M44.1094 34.0371C45.6965 34.0371 48.0144 35.7182 46.4169 40.7821L42.7207 36.9189" stroke="#333333" stroke-miterlimit="10" stroke-linecap="round" stroke-linejoin="round"/>
<path d="M42.7131 36.916L45.407 47.848L41.7734 51.0012" stroke="#333333" stroke-miterlimit="10" stroke-linecap="round" stroke-linejoin="round"/>
<path d="M56.4635 43.7461C56.9438 45.0095 57.2257 46.4086 57.257 47.9017H45.4062" stroke="#333333" stroke-miterlimit="10" stroke-linecap="round" stroke-linejoin="round"/>
<path d="M53.0678 38.8935C51.2301 37.296 49.0375 36.3667 46.9492 36.2832" stroke="#333333" stroke-miterlimit="10" stroke-linecap="round" stroke-linejoin="round"/>
<path d="M49.0294 21.2598V27.8795C49.0294 28.861 48.6326 29.8007 47.9226 30.4689L44.4875 33.7475C44.0385 34.1756 43.4329 34.4157 42.8169 34.4157H41.7832" stroke="#333333" stroke-miterlimit="10" stroke-linecap="round" stroke-linejoin="round"/>
<path d="M34.5254 21.2598V27.8795C34.5254 28.861 34.9222 29.8007 35.6322 30.4689L39.0673 33.7475C39.5163 34.1756 40.1219 34.4157 40.7379 34.4157H41.7716" stroke="#333333" stroke-miterlimit="10" stroke-linecap="round" stroke-linejoin="round"/>
<path d="M51.0862 21.2598V24.7054C51.0862 25.3841 50.7208 26.021 50.1361 26.3655L49.0293 27.0129" stroke="#333333" stroke-miterlimit="10" stroke-linecap="round" stroke-linejoin="round"/>
<path d="M51.0731 16.6415V21.1104H40.5692C39.0865 21.1104 37.8545 19.9201 37.8545 18.4374C37.8545 19.5546 37.1445 20.5152 36.163 20.9224C35.8498 21.0373 35.5156 21.1104 35.1502 21.1104H32.4668V16.6415C32.4668 16.5371 32.4668 16.4431 32.4877 16.3387C32.6339 13.6658 34.837 11.5566 37.5517 11.5566H42.9916C44.4742 11.5566 45.7063 12.7574 45.7063 14.2296C45.7063 13.1228 45.9151 11.755 47.3978 11.755C49.8306 11.755 50.9478 14.1461 51.0731 16.3387C51.0731 16.4431 51.0731 16.5476 51.0731 16.6415Z" stroke="#333333" stroke-miterlimit="10" stroke-linecap="round" stroke-linejoin="round"/>
<path d="M41.7734 37.4096L44.1958 36.1567L44.1123 34.0371" stroke="#333333" stroke-miterlimit="10" stroke-linecap="round" stroke-linejoin="round"/>
<path d="M59.5667 22.8401L58.4599 22.1927C57.8752 21.8482 57.5098 21.2217 57.5098 20.5326V18.5801H59.5667" stroke="#333333" stroke-miterlimit="10" stroke-linecap="round" stroke-linejoin="round"/>
<path d="M53.0703 38.8906C54.5112 40.1331 55.7328 41.7724 56.4742 43.7458" stroke="#333333" stroke-miterlimit="10" stroke-linecap="round" stroke-linejoin="round"/>
<path d="M64.3886 33.5371C64.2215 33.5476 64.044 33.5475 63.877 33.5789C62.2795 33.7042 60.3792 34.1531 58.5415 34.9258C56.4428 35.8029 54.4277 37.1184 53.0703 38.8935" stroke="#333333" stroke-miterlimit="10" stroke-linecap="round" stroke-linejoin="round"/>
<path d="M56.4648 43.7486H63.189H70.4352H82.2964C82.2234 39.3842 78.7986 36.492 75.092 34.9258C73.2543 34.1427 71.3436 33.7042 69.7565 33.5789C69.579 33.558 69.412 33.5476 69.2449 33.5371" stroke="#333333" stroke-miterlimit="10" stroke-linecap="round" stroke-linejoin="round"/>
<path d="M74.0692 17.1016V23.7213C74.0692 24.7028 73.6724 25.6425 72.9624 26.3107L69.5272 29.5893C69.0782 30.0174 68.4727 30.2575 67.8566 30.2575H66.8125" stroke="#333333" stroke-miterlimit="10" stroke-linecap="round" stroke-linejoin="round"/>
<path d="M74.0664 22.8401L75.1732 22.1927C75.7579 21.8482 76.1233 21.2217 76.1233 20.5326V18.5801H74.0664" stroke="#333333" stroke-miterlimit="10" stroke-linecap="round" stroke-linejoin="round"/>
<path d="M69.1492 29.8887L69.2432 33.5744C67.7187 34.3575 65.9229 34.3575 64.3984 33.5744L64.4924 29.8887" stroke="#333333" stroke-miterlimit="10" stroke-linecap="round" stroke-linejoin="round"/>
<path d="M7.16992 16.5273V19.9729C7.16992 20.6516 7.53536 21.2885 8.12007 21.6331L9.22685 22.2805" stroke="#333333" stroke-miterlimit="10" stroke-linecap="round" stroke-linejoin="round"/>
<path d="M8.94578 43.7486H1C1 41.9945 1 40.5536 1.06265 39.3633C1.19838 36.0534 1.75177 34.7378 3.82957 33.9548C4.25766 33.7981 4.7484 33.6624 5.33311 33.5371L8.94578 43.7486Z" stroke="#333333" stroke-miterlimit="10" stroke-linecap="round" stroke-linejoin="round"/>
<path d="M16.4754 43.7461H8.94727" stroke="#333333" stroke-miterlimit="10" stroke-linecap="round" stroke-linejoin="round"/>
<path d="M5.3125 33.5356C6.23133 33.3267 7.35898 33.1388 8.73722 32.9404C9.97973 32.7525 11.4206 32.5436 13.0912 32.2617" stroke="#333333" stroke-miterlimit="10" stroke-linecap="round" stroke-linejoin="round"/>
<path d="M23.7325 16.5273V23.1471C23.7325 24.1286 23.3358 25.0683 22.6258 25.7365L19.1906 29.0151C18.7416 29.4431 18.136 29.6833 17.52 29.6833H16.4863" stroke="#333333" stroke-miterlimit="10" stroke-linecap="round" stroke-linejoin="round"/>
<path d="M9.22461 16.5273V23.1471C9.22461 24.1286 9.62138 25.0683 10.3314 25.7365L13.7665 29.0151C14.2155 29.4431 14.8211 29.6833 15.4371 29.6833H16.4708" stroke="#333333" stroke-miterlimit="10" stroke-linecap="round" stroke-linejoin="round"/>
<path d="M25.7776 16.5273V19.9729C25.7776 20.6516 25.4122 21.2885 24.8275 21.6331L23.7207 22.2805" stroke="#333333" stroke-miterlimit="10" stroke-linecap="round" stroke-linejoin="round"/>
<path d="M13.082 28.3535V32.2585C13.082 32.9372 13.4266 33.5637 14.0009 33.9291L16.4754 35.4744" stroke="#333333" stroke-miterlimit="10" stroke-linecap="round" stroke-linejoin="round"/>
<path d="M8.73633 32.9414L11.639 40.5844H16.4733" stroke="#333333" stroke-miterlimit="10" stroke-linecap="round" stroke-linejoin="round"/>
<path d="M27.084 43.7488C28.0446 41.2115 29.7987 39.1964 31.8034 37.9121" stroke="#333333" stroke-miterlimit="10" stroke-linecap="round" stroke-linejoin="round"/>
<path d="M16.4863 43.7461H24.0145H27.0842" stroke="#333333" stroke-miterlimit="10" stroke-linecap="round" stroke-linejoin="round"/>
<path d="M31.8035 37.9C31.4798 35.0704 30.5296 34.1829 27.6374 33.5356C26.7186 33.3267 25.5909 33.1492 24.2231 32.9404C22.9806 32.7525 21.5397 32.5332 19.8691 32.2617" stroke="#333333" stroke-miterlimit="10" stroke-linecap="round" stroke-linejoin="round"/>
<path d="M19.8797 28.3535V32.2585C19.8797 32.9372 19.5352 33.5637 18.9609 33.9291L16.4863 35.4744" stroke="#333333" stroke-miterlimit="10" stroke-linecap="round" stroke-linejoin="round"/>
<path d="M24.224 32.9414L21.3213 40.5844H16.4766" stroke="#333333" stroke-miterlimit="10" stroke-linecap="round" stroke-linejoin="round"/>
<path d="M24.0137 43.7486L27.6368 33.5371" stroke="#333333" stroke-miterlimit="10" stroke-linecap="round" stroke-linejoin="round"/>
<path d="M25.7769 12.9414V16.387H15.273C13.7903 16.387 12.5583 15.1967 12.5583 13.7141C12.5583 14.8313 11.8378 15.7919 10.8564 16.1886C10.5431 16.3035 10.1986 16.387 9.85399 16.387H7.16016V12.9414H25.7769V12.9414Z" stroke="#333333" stroke-miterlimit="10" stroke-linecap="round" stroke-linejoin="round"/>
<path d="M27.4579 12.9448H5.5L7.18104 11.2742C7.18104 7.0768 9.9584 3.53722 13.7695 2.38868V1.37588C14.6361 1.13574 15.5445 1 16.4842 1C17.4239 1 18.3323 1.13574 19.1989 1.37588V2.38868C23.0099 3.54766 25.7873 7.08724 25.7873 11.2742L27.4579 12.9448Z" stroke="#333333" stroke-miterlimit="10" stroke-linecap="round" stroke-linejoin="round"/>
<path d="M58.541 34.9112C58.6768 36.561 61.3393 38.1689 64.3985 38.6388L66.8209 34.1699" stroke="#333333" stroke-miterlimit="10" stroke-linecap="round" stroke-linejoin="round"/>
<path d="M75.0924 34.9112C74.9567 36.561 72.2941 38.1689 69.2349 38.6388L66.8125 34.1699" stroke="#333333" stroke-miterlimit="10" stroke-linecap="round" stroke-linejoin="round"/>
<path d="M59.5664 19.9712C59.5664 17.9978 70.0703 19.5223 70.0703 15.043C70.0703 17.4027 74.0693 18.0814 74.0693 20.7856" stroke="#333333" stroke-miterlimit="10" stroke-linecap="round" stroke-linejoin="round"/>
<path d="M70.0703 8.47852C70.0703 10.8382 74.0693 11.5169 74.0693 14.2212" stroke="#333333" stroke-miterlimit="10" stroke-linecap="round" stroke-linejoin="round"/>
<path d="M70.0703 8.47852V11.7988C70.0703 16.2677 59.5664 14.7537 59.5664 16.7271V19.4V23.7227C59.5664 24.7042 59.9632 25.6439 60.6732 26.3121L64.1083 29.5907C64.5573 30.0188 65.1629 30.2589 65.7789 30.2589H66.8126" stroke="#333333" stroke-miterlimit="10" stroke-linecap="round" stroke-linejoin="round"/>
<path d="M66.8101 8.04883C60.4932 8.04883 55.377 11.7137 55.377 17.9262C55.377 24.1388 59.094 24.1701 59.094 27.4591C59.094 30.7481 56.3062 31.4267 56.3062 31.4267C58.2483 32.2725 59.543 33.5881 64.3877 33.5881" stroke="#333333" stroke-miterlimit="10" stroke-linecap="round" stroke-linejoin="round"/>
<path d="M66.8125 8.04883C73.1294 8.04883 78.2457 11.7137 78.2457 17.9262C78.2457 24.1388 74.5286 24.1701 74.5286 27.4591C74.5286 30.7481 77.3164 31.4267 77.3164 31.4267C75.3743 32.2725 74.0796 33.5881 69.2349 33.5881" stroke="#333333" stroke-miterlimit="10" stroke-linecap="round" stroke-linejoin="round"/>
<path d="M13.7598 2.38867V12.9448" stroke="#333333" stroke-miterlimit="10" stroke-linecap="round" stroke-linejoin="round"/>
<path d="M19.1895 2.38867V12.9448" stroke="#333333" stroke-miterlimit="10" stroke-linecap="round" stroke-linejoin="round"/>
</svg>
