<svg width="64" height="52" viewBox="0 0 64 52" fill="none" xmlns="http://www.w3.org/2000/svg">
<path d="M37.2112 14.9206L30.7208 21.4109L29.7548 22.377L29.3046 22.8272C28.7137 23.4181 27.7664 23.4181 27.1755 22.8272L25.5154 21.1671C24.9245 20.5762 24.9245 19.6289 25.5154 19.038L30.7208 13.8326L33.422 11.1314C34.0035 10.5499 34.9602 10.5499 35.5417 11.1314L37.2112 12.8009C37.8021 13.3824 37.8021 14.3391 37.2112 14.9206Z" stroke="#333333" stroke-miterlimit="10" stroke-linecap="round" stroke-linejoin="round"/>
<path d="M51.1592 28.8667L43.262 36.7639C42.6711 37.3454 41.7145 37.3454 41.133 36.7639L39.4635 35.0944C38.882 34.5129 38.882 33.5563 39.4635 32.9747L39.923 32.5152L46.9199 25.5184L47.3794 25.0682C47.9609 24.4773 48.9176 24.4773 49.4991 25.0682L51.1686 26.7283C51.7407 27.3379 51.7407 28.2758 51.1592 28.8667Z" stroke="#333333" stroke-miterlimit="10" stroke-linecap="round" stroke-linejoin="round"/>
<path d="M46.9102 25.5287L39.9228 32.5255L36.3025 28.9051L33.3762 25.9882L30.6 23.2214L29.7559 22.3773L30.7219 21.4019L36.7621 15.3711L46.9102 25.5287Z" stroke="#333333" stroke-miterlimit="10" stroke-linecap="round" stroke-linejoin="round"/>
<path d="M36.3026 28.9052L34.1454 31.0624L31.2285 28.1361L33.3763 25.9883L36.3026 28.9052Z" stroke="#333333" stroke-miterlimit="10" stroke-linecap="round" stroke-linejoin="round"/>
<path d="M11.5888 48.3667L13.9148 50.6927C14.3275 51.1054 15.0028 51.1054 15.4155 50.6927L32.4573 33.6509L28.6306 29.8242L11.5888 46.866C11.1761 47.2787 11.1761 47.954 11.5888 48.3667Z" stroke="#333333" stroke-miterlimit="10" stroke-linecap="round" stroke-linejoin="round"/>
<path d="M27.5048 28.6979L33.5918 34.7849C33.8169 35.01 34.1827 35.01 34.3984 34.7849L35.7302 33.4531C35.9553 33.228 35.9553 32.8622 35.7302 32.6465L29.6432 26.5594C29.4181 26.3344 29.0523 26.3344 28.8366 26.5594L27.5048 27.8913C27.2797 28.1164 27.2797 28.4728 27.5048 28.6979Z" stroke="#333333" stroke-miterlimit="10" stroke-linecap="round" stroke-linejoin="round"/>
<path d="M52.1815 47.9232H40.8047V45.6253C40.8047 45.2595 41.1048 44.9688 41.4612 44.9688H51.525C51.8908 44.9688 52.1815 45.2689 52.1815 45.6253V47.9232V47.9232Z" stroke="#333333" stroke-miterlimit="10" stroke-linecap="round" stroke-linejoin="round"/>
<path d="M56.0357 50.8782H36.9492V48.5804C36.9492 48.2146 37.2493 47.9238 37.6058 47.9238H55.3792C55.7449 47.9238 56.0357 48.224 56.0357 48.5804V50.8782V50.8782Z" stroke="#333333" stroke-miterlimit="10" stroke-linecap="round" stroke-linejoin="round"/>
<path d="M60.4354 50.8789H24.1289" stroke="#333333" stroke-miterlimit="10" stroke-linecap="round" stroke-linejoin="round"/>
<path d="M59.5547 20.4141C63.6627 24.5221 63.6627 31.2 59.5547 35.3081" stroke="#333333" stroke-miterlimit="10" stroke-linecap="round" stroke-linejoin="round"/>
<path d="M56.9941 22.9844C59.6859 25.6762 59.6859 30.0562 56.9941 32.748" stroke="#333333" stroke-miterlimit="10" stroke-linecap="round" stroke-linejoin="round"/>
<path d="M54.4238 25.5547C55.6994 26.8302 55.6994 28.903 54.4238 30.1786" stroke="#333333" stroke-miterlimit="10" stroke-linecap="round" stroke-linejoin="round"/>
<path d="M15.8659 28.2184C15.8659 25.5078 13.0615 25.3952 9.60064 25.3952H4.69537C2.6601 25.3952 1 24.1009 1 22.5065V3.23242C1 4.69556 2.41625 5.90547 4.22641 6.08367V20.4149C4.22641 22.0094 5.52073 23.3037 7.11518 23.3037H10.9419C13.6618 23.3037 15.8659 25.5078 15.8659 28.2184Z" stroke="#333333" stroke-miterlimit="10" stroke-linecap="round" stroke-linejoin="round"/>
<path d="M15.8645 8.80341V28.2088C15.8645 25.4982 13.6604 23.2941 10.9498 23.2941H7.12314C5.52869 23.2941 4.23438 21.9998 4.23438 20.4054V1C4.23438 2.59445 5.52869 3.88876 7.12314 3.88876H10.9498C13.6604 3.89814 15.8645 6.09285 15.8645 8.80341Z" stroke="#333333" stroke-miterlimit="10" stroke-linecap="round" stroke-linejoin="round"/>
<path d="M30.5994 23.2191C30.1961 24.4759 28.7517 25.3951 27.026 25.3951H22.1207C18.6598 25.3951 15.8555 25.5076 15.8555 28.2182C15.8555 25.5076 18.0596 23.3035 20.7701 23.3035H24.5968C25.4315 23.3035 26.1912 22.9377 26.7259 22.375L27.176 22.8252C27.7669 23.4161 28.7142 23.4161 29.3051 22.8252L29.7553 22.375L30.5994 23.2191Z" stroke="#333333" stroke-miterlimit="10" stroke-linecap="round" stroke-linejoin="round"/>
<path d="M30.7225 3.23242V13.8308L27.4961 17.0572V6.08367C29.3063 5.90547 30.7225 4.69556 30.7225 3.23242Z" stroke="#333333" stroke-miterlimit="10" stroke-linecap="round" stroke-linejoin="round"/>
<path d="M27.4953 1V17.057L25.5257 19.0266C24.9348 19.6175 24.9348 20.5648 25.5257 21.1557L26.7356 22.3656C26.201 22.9377 25.4413 23.2941 24.6066 23.2941H20.7799C18.0693 23.2941 15.8652 25.4982 15.8652 28.2088V8.80341C15.8652 6.09285 18.0693 3.88876 20.7799 3.88876H24.6066C26.201 3.89814 27.4953 2.59445 27.4953 1Z" stroke="#333333" stroke-miterlimit="10" stroke-linecap="round" stroke-linejoin="round"/>
</svg>
