<svg width="52" height="52" viewBox="0 0 52 52" fill="none" xmlns="http://www.w3.org/2000/svg">
<path d="M25.3722 42.0605V46.3835H3.43166C2.08868 46.3835 1 45.414 1 44.222C1 44.1505 1 44.071 1.01589 43.9995C1.13509 42.9029 2.1761 42.0605 3.43166 42.0605H25.3722Z" stroke="#333333" stroke-miterlimit="10" stroke-linecap="round" stroke-linejoin="round"/>
<path d="M1.01562 43.9982C1.11893 41.7334 2.98638 39.9375 5.28295 39.9375H22.543" stroke="#333333" stroke-miterlimit="10" stroke-linecap="round" stroke-linejoin="round"/>
<path d="M45.1998 46.1047H35.2904H25.373V44.2214V42.3301H35.2904H45.1998L49.8327 44.2214L45.1998 46.1047Z" stroke="#333333" stroke-miterlimit="10" stroke-linecap="round" stroke-linejoin="round"/>
<path d="M49.832 44.2227H51.3339" stroke="#333333" stroke-miterlimit="10" stroke-linecap="round" stroke-linejoin="round"/>
<path d="M25.834 36.4648L26.8988 34.5973L28.8378 35.5271L30.9595 30.2188L32.5489 39.405L34.0508 35.9641H38.3737" stroke="#333333" stroke-miterlimit="10" stroke-linecap="round" stroke-linejoin="round"/>
<path d="M43.2997 46.3828V50.9998H5.86328V46.3828" stroke="#333333" stroke-miterlimit="10" stroke-linecap="round" stroke-linejoin="round"/>
<path d="M5.86328 42.0596V16.1855L17.7832 4.26562H43.2997V42.3298" stroke="#333333" stroke-miterlimit="10" stroke-linecap="round" stroke-linejoin="round"/>
<path d="M17.7832 4.26562V16.1855H5.86328" stroke="#333333" stroke-miterlimit="10" stroke-linecap="round" stroke-linejoin="round"/>
<path d="M37.6032 8.10352H29.5215V16.1852H37.6032V8.10352Z" stroke="#333333" stroke-miterlimit="10" stroke-linecap="round" stroke-linejoin="round"/>
<path d="M31.8164 10.226L33.5647 13.4444L37.6015 1" stroke="#333333" stroke-miterlimit="10" stroke-linecap="round" stroke-linejoin="round"/>
<path d="M10.7832 20.0723H38.3738" stroke="#333333" stroke-miterlimit="10" stroke-linecap="round" stroke-linejoin="round"/>
<path d="M10.7832 23.2988H38.3738" stroke="#333333" stroke-miterlimit="10" stroke-linecap="round" stroke-linejoin="round"/>
<path d="M10.7832 26.5234H38.3738" stroke="#333333" stroke-miterlimit="10" stroke-linecap="round" stroke-linejoin="round"/>
</svg>
