<svg width="65" height="44" viewBox="0 0 65 44" fill="none" xmlns="http://www.w3.org/2000/svg">
<path d="M35.3997 2.68005C35.3997 3.64009 34.1197 4.36011 32.5196 4.36011C30.9196 4.36011 29.6396 3.64009 29.6396 2.68005C29.6396 1.72002 30.9196 1 32.5196 1C34.1197 1 35.3997 1.72002 35.3997 2.68005Z" stroke="#333333" stroke-miterlimit="10" stroke-linecap="round" stroke-linejoin="round"/>
<path d="M15.4797 14.1997C15.4797 15.1597 14.1997 15.8796 12.5997 15.8796C10.9997 15.8796 9.71973 15.1597 9.71973 14.1997C9.71973 13.2397 10.9997 12.5198 12.5997 12.5198C14.1997 12.5198 15.4797 13.2397 15.4797 14.1997Z" stroke="#333333" stroke-miterlimit="10" stroke-linecap="round" stroke-linejoin="round"/>
<path d="M15.4796 14.1995V29.3195C15.4796 29.7995 15.1596 30.1995 14.6796 30.5195C14.1196 30.8395 13.3996 30.9995 12.5996 30.9995C11.7996 30.9995 11.0796 30.8395 10.5196 30.5195C10.0396 30.1995 9.63965 29.7995 9.63965 29.3195V14.1995C9.63965 15.1595 10.9196 15.8795 12.5196 15.8795C14.1196 15.8795 15.4796 15.1595 15.4796 14.1995Z" stroke="#333333" stroke-miterlimit="10" stroke-linecap="round" stroke-linejoin="round"/>
<path d="M35.4006 2.67993V17.7199C35.4006 18.1999 35.0806 18.5999 34.5206 18.9199C33.9606 19.2399 33.2405 19.3999 32.4405 19.3999C31.6405 19.3999 30.9205 19.2399 30.3605 18.9199C29.8005 18.5999 29.4805 18.1999 29.4805 17.7199V2.67993C29.4805 3.63993 30.7605 4.35993 32.3605 4.35993C34.1206 4.35993 35.4006 3.55993 35.4006 2.67993Z" stroke="#333333" stroke-miterlimit="10" stroke-linecap="round" stroke-linejoin="round"/>
<path d="M35.3997 25.7192C35.3997 26.6792 34.1197 27.3992 32.5196 27.3992C30.9196 27.3992 29.6396 26.6792 29.6396 25.7192C29.6396 24.7593 30.9196 24.0393 32.5196 24.0393C34.1197 24.0393 35.3997 24.7593 35.3997 25.7192Z" stroke="#333333" stroke-miterlimit="10" stroke-linecap="round" stroke-linejoin="round"/>
<path d="M55.3196 14.1198C55.3196 15.0798 54.0396 15.7998 52.4396 15.7998C50.8396 15.7998 49.5596 15.0798 49.5596 14.1198C49.5596 13.1597 50.8396 12.4397 52.4396 12.4397C54.0396 12.4397 55.3196 13.2397 55.3196 14.1198Z" stroke="#333333" stroke-miterlimit="10" stroke-linecap="round" stroke-linejoin="round"/>
<path d="M55.3205 14.1194V29.2394C55.3205 30.1994 54.0405 30.9194 52.4405 30.9194C51.6405 30.9194 50.9205 30.7594 50.3605 30.4394C49.8805 30.1194 49.4805 29.7194 49.4805 29.2394V14.1194C49.4805 15.0794 50.7605 15.7994 52.3605 15.7994C53.9605 15.7994 55.3205 15.0794 55.3205 14.1194Z" stroke="#333333" stroke-miterlimit="10" stroke-linecap="round" stroke-linejoin="round"/>
<path d="M35.3996 25.719V40.839C35.3996 41.799 34.1196 42.519 32.5196 42.519C31.7196 42.519 30.9996 42.359 30.4396 42.039C29.8796 41.719 29.5596 41.319 29.5596 40.839V25.719C29.5596 26.679 30.8396 27.399 32.4396 27.399C34.1196 27.399 35.3996 26.599 35.3996 25.719Z" stroke="#333333" stroke-miterlimit="10" stroke-linecap="round" stroke-linejoin="round"/>
<path d="M34.5205 18.9202L49.4805 27.5603" stroke="#333333" stroke-miterlimit="10" stroke-linecap="round" stroke-linejoin="round"/>
<path d="M21.4805 11.4006L29.5605 16.0408" stroke="#333333" stroke-miterlimit="10" stroke-linecap="round" stroke-linejoin="round"/>
<path d="M30.4404 18.9202C30.9204 19.2402 31.7204 19.4001 32.5204 19.4001C33.3204 19.4001 34.0404 19.2402 34.6004 18.9202" stroke="#333333" stroke-miterlimit="10" stroke-linecap="round" stroke-linejoin="round"/>
<path d="M35.4004 16.0408L43.5603 11.4006" stroke="#333333" stroke-miterlimit="10" stroke-linecap="round" stroke-linejoin="round"/>
<path d="M15.4805 27.5603L30.4405 18.9202" stroke="#333333" stroke-miterlimit="10" stroke-linecap="round" stroke-linejoin="round"/>
<path d="M14.6797 30.4407C15.1597 30.1207 15.4797 29.7207 15.4797 29.2407V27.4807" stroke="#333333" stroke-miterlimit="10" stroke-linecap="round" stroke-linejoin="round"/>
<path d="M9.64009 27.5599L1 22.5199" stroke="#333333" stroke-miterlimit="10" stroke-linecap="round" stroke-linejoin="round"/>
<path d="M29.5597 39.0798L14.6797 30.4397" stroke="#333333" stroke-miterlimit="10" stroke-linecap="round" stroke-linejoin="round"/>
<path d="M50.3603 30.4397L35.4004 39.0798" stroke="#333333" stroke-miterlimit="10" stroke-linecap="round" stroke-linejoin="round"/>
<path d="M64.0403 22.5198L55.3203 27.5598" stroke="#333333" stroke-miterlimit="10" stroke-linecap="round" stroke-linejoin="round"/>
<path d="M49.4805 27.5608V29.2407C49.4805 29.7207 49.8005 30.1207 50.3604 30.4407" stroke="#333333" stroke-miterlimit="10" stroke-linecap="round" stroke-linejoin="round"/>
<path d="M35.3997 25.7192C35.3997 26.6792 34.1197 27.3992 32.5196 27.3992C30.9196 27.3992 29.6396 26.6792 29.6396 25.7192C29.6396 24.7593 30.9196 24.0393 32.5196 24.0393C34.1197 24.0393 35.3997 24.7593 35.3997 25.7192Z" stroke="#333333" stroke-miterlimit="10" stroke-linecap="round" stroke-linejoin="round"/>
</svg>
