<svg width="62" height="58" viewBox="0 0 62 58" fill="none" xmlns="http://www.w3.org/2000/svg">
<path d="M38.6798 16.9974C39.6113 12.2265 41.1908 9.08374 42.9809 9.08374C45.8402 9.08374 48.1649 17.1189 48.1649 27.0252C48.1649 36.9315 45.8402 44.9667 42.9809 44.9667C40.1216 44.9667 37.7969 36.9315 37.7969 27.0252C37.7969 24.1416 37.9913 21.4119 38.3477 18.9981" stroke="#333333" stroke-miterlimit="10" stroke-linecap="round" stroke-linejoin="round"/>
<path d="M58.5182 36.005C59.9498 33.5256 54.1539 27.4993 45.5729 22.5449C36.9919 17.5905 28.8751 15.5841 27.4436 18.0635C26.012 20.5429 31.8079 26.5692 40.3889 31.5236C48.9699 36.478 57.0867 38.4844 58.5182 36.005Z" stroke="#333333" stroke-miterlimit="10" stroke-linecap="round" stroke-linejoin="round"/>
<path d="M47.6151 18.9983C53.1312 16.7951 57.5052 16.301 58.5177 18.0587C59.9514 20.5373 54.1518 26.5637 45.5658 31.5209C42.3906 33.3515 39.2883 34.7771 36.5586 35.7329" stroke="#333333" stroke-miterlimit="10" stroke-linecap="round" stroke-linejoin="round"/>
<path d="M30.6367 29.7146C32.9776 27.4061 36.3796 24.8546 40.3891 22.538C42.3898 21.3797 44.3662 20.3915 46.2292 19.5734" stroke="#333333" stroke-miterlimit="10" stroke-linecap="round" stroke-linejoin="round"/>
<path d="M33.8131 16.1794V1H12.2752L1 12.2752V41.5567H9.1486" stroke="#333333" stroke-miterlimit="10" stroke-linecap="round" stroke-linejoin="round"/>
<path d="M16.1211 4.83936H29.964" stroke="#333333" stroke-miterlimit="10" stroke-linecap="round" stroke-linejoin="round"/>
<path d="M16.1211 12.2753H29.964" stroke="#333333" stroke-miterlimit="10" stroke-linecap="round" stroke-linejoin="round"/>
<path d="M16.1211 8.55725H29.964" stroke="#333333" stroke-miterlimit="10" stroke-linecap="round" stroke-linejoin="round"/>
<path d="M4.83984 19.7111H24.4094" stroke="#333333" stroke-miterlimit="10" stroke-linecap="round" stroke-linejoin="round"/>
<path d="M4.83984 15.9932H24.4094" stroke="#333333" stroke-miterlimit="10" stroke-linecap="round" stroke-linejoin="round"/>
<path d="M12.2752 12.2752V1L1 12.2752H12.2752Z" stroke="#333333" stroke-miterlimit="10" stroke-linecap="round" stroke-linejoin="round"/>
<path d="M34.7528 34.5987V44.3673C33.3596 44.3673 32.2418 45.4932 32.2418 46.8783C32.2418 47.34 32.3633 47.7612 32.5901 48.1338L24.1175 53.01C23.6882 52.2648 22.8782 51.7545 21.9467 51.7545C21.0152 51.7545 20.2052 52.2648 19.7759 53.01L11.3114 48.1257C11.5301 47.7531 11.6516 47.3319 11.6516 46.8702C11.6516 45.4851 10.5257 44.3592 9.14062 44.3592V34.5987C10.5257 34.5987 11.6516 33.4728 11.6516 32.0877C11.6516 31.626 11.5301 31.2048 11.3114 30.8322L19.7759 25.9479C20.2052 26.6931 21.0152 27.2034 21.9467 27.2034C22.8782 27.2034 23.6882 26.6931 24.1175 25.9479L32.582 30.8322C32.3552 31.2048 32.2337 31.626 32.2337 32.0877C32.2418 33.4728 33.3596 34.5987 34.7528 34.5987Z" stroke="#333333" stroke-miterlimit="10" stroke-linecap="round" stroke-linejoin="round"/>
<path d="M24.1172 38.2278L27.6245 36.2028" stroke="#333333" stroke-linecap="round" stroke-linejoin="round"/>
<path d="M29.0742 35.3684L32.5815 33.3434" stroke="#333333" stroke-linecap="round" stroke-linejoin="round"/>
<path d="M11.3203 33.3434L14.8276 35.3684" stroke="#333333" stroke-linecap="round" stroke-linejoin="round"/>
<path d="M16.2695 36.2028L19.7768 38.2278" stroke="#333333" stroke-linecap="round" stroke-linejoin="round"/>
<path d="M11.6509 32.0879C11.6509 33.473 10.525 34.5989 9.13991 34.5989C7.75481 34.5989 6.62891 33.473 6.62891 32.0879C6.62891 30.7028 7.75481 29.5769 9.13991 29.5769C10.0633 29.5769 10.8814 30.0791 11.3107 30.8324C11.5294 31.205 11.6509 31.6343 11.6509 32.0879Z" stroke="#333333" stroke-miterlimit="10" stroke-linecap="round" stroke-linejoin="round"/>
<path d="M11.6509 46.8704C11.6509 47.3321 11.5294 47.7533 11.3107 48.1259C10.8814 48.8792 10.0633 49.3814 9.13991 49.3814C7.75481 49.3814 6.62891 48.2555 6.62891 46.8704C6.62891 45.4853 7.75481 44.3594 9.13991 44.3594C10.525 44.3594 11.6509 45.4853 11.6509 46.8704Z" stroke="#333333" stroke-miterlimit="10" stroke-linecap="round" stroke-linejoin="round"/>
<path d="M37.2642 32.0879C37.2642 33.473 36.1383 34.5989 34.7532 34.5989C33.36 34.5989 32.2422 33.473 32.2422 32.0879C32.2422 31.6262 32.3637 31.205 32.5905 30.8324C33.0117 30.0791 33.8298 29.5769 34.7613 29.5769C36.1383 29.585 37.2642 30.7109 37.2642 32.0879Z" stroke="#333333" stroke-miterlimit="10" stroke-linecap="round" stroke-linejoin="round"/>
<path d="M37.2645 46.8704C37.2645 48.2555 36.1386 49.3814 34.7535 49.3814C33.822 49.3814 33.0039 48.8792 32.5827 48.1259C32.3559 47.7533 32.2344 47.3321 32.2344 46.8704C32.2344 45.4853 33.3603 44.3594 34.7454 44.3594C36.1386 44.3675 37.2645 45.4853 37.2645 46.8704Z" stroke="#333333" stroke-miterlimit="10" stroke-linecap="round" stroke-linejoin="round"/>
<path d="M24.4595 24.7006C24.4595 25.1542 24.338 25.5835 24.1193 25.9561C23.69 26.7013 22.88 27.2116 21.9485 27.2116C21.017 27.2116 20.207 26.7013 19.7777 25.9561C19.559 25.5835 19.4375 25.1542 19.4375 24.7006C19.4375 23.3155 20.5634 22.1896 21.9485 22.1896C23.3336 22.1977 24.4595 23.3155 24.4595 24.7006Z" stroke="#333333" stroke-miterlimit="10" stroke-linecap="round" stroke-linejoin="round"/>
<path d="M21.9485 41.994C23.3353 41.994 24.4595 40.8698 24.4595 39.483C24.4595 38.0963 23.3353 36.972 21.9485 36.972C20.5617 36.972 19.4375 38.0963 19.4375 39.483C19.4375 40.8698 20.5617 41.994 21.9485 41.994Z" stroke="#333333" stroke-miterlimit="10" stroke-linecap="round" stroke-linejoin="round"/>
<path d="M24.4595 54.2655C24.4595 55.6587 23.3336 56.7765 21.9485 56.7765C20.5634 56.7765 19.4375 55.6506 19.4375 54.2655C19.4375 53.8119 19.559 53.3826 19.7777 53.01C20.207 52.2648 21.017 51.7545 21.9485 51.7545C22.88 51.7545 23.69 52.2648 24.1193 53.01C24.338 53.3826 24.4595 53.8119 24.4595 54.2655Z" stroke="#333333" stroke-miterlimit="10" stroke-linecap="round" stroke-linejoin="round"/>
<path d="M21.9453 41.9943V46.0443" stroke="#333333" stroke-linecap="round" stroke-linejoin="round"/>
<path d="M21.9453 47.7046V51.7546" stroke="#333333" stroke-linecap="round" stroke-linejoin="round"/>
</svg>
