<svg width="84" height="52" viewBox="0 0 84 52" fill="none" xmlns="http://www.w3.org/2000/svg">
<path d="M67.7715 8.89566C67.7715 4.52971 71.3012 1 75.6671 1V33.7203C71.3012 33.7203 67.7715 37.25 67.7715 41.616" stroke="#333333" stroke-miterlimit="10" stroke-linecap="round" stroke-linejoin="round"/>
<path d="M75.6701 9.06973C77.1092 7.59172 79.1123 6.66797 81.339 6.66797V39.3883C76.9731 39.3883 73.4434 42.918 73.4434 47.284" stroke="#333333" stroke-miterlimit="10" stroke-linecap="round" stroke-linejoin="round"/>
<path d="M67.7715 8.89453V50.9983" stroke="#333333" stroke-miterlimit="10" stroke-linecap="round" stroke-linejoin="round"/>
<path d="M83.4758 51H5.79297" stroke="#333333" stroke-miterlimit="10" stroke-linecap="round" stroke-linejoin="round"/>
<path d="M27.9071 39.3024C28.5515 39.3024 29.0739 38.78 29.0739 38.1356C29.0739 37.4912 28.5515 36.9688 27.9071 36.9688C27.2626 36.9688 26.7402 37.4912 26.7402 38.1356C26.7402 38.78 27.2626 39.3024 27.9071 39.3024Z" stroke="#333333" stroke-miterlimit="10" stroke-linecap="round" stroke-linejoin="round"/>
<path d="M27.9062 51.0004V39.3027" stroke="#333333" stroke-miterlimit="10" stroke-linecap="round" stroke-linejoin="round"/>
<path d="M2.16685 39.3024C2.81128 39.3024 3.33369 38.78 3.33369 38.1356C3.33369 37.4912 2.81128 36.9688 2.16685 36.9688C1.52241 36.9688 1 37.4912 1 38.1356C1 38.78 1.52241 39.3024 2.16685 39.3024Z" stroke="#333333" stroke-miterlimit="10" stroke-linecap="round" stroke-linejoin="round"/>
<path d="M2.16602 51.0004V39.3027" stroke="#333333" stroke-miterlimit="10" stroke-linecap="round" stroke-linejoin="round"/>
<path d="M64.4283 20.5156H10.1602V50.9995H64.4283V20.5156Z" stroke="#333333" stroke-miterlimit="10" stroke-linecap="round" stroke-linejoin="round"/>
<path d="M10.1602 24.6074H37.2893H64.4283" stroke="#333333" stroke-miterlimit="10" stroke-linecap="round" stroke-linejoin="round"/>
<path d="M10.1602 50.9976L18.1531 45.6009V24.6074" stroke="#333333" stroke-miterlimit="10" stroke-linecap="round" stroke-linejoin="round"/>
<path d="M56.4336 41.0016V24.5977" stroke="#333333" stroke-miterlimit="10" stroke-linecap="round" stroke-linejoin="round"/>
<path d="M64.428 20.5145C58.5257 20.5145 53.7416 15.7304 53.7416 9.82812H37.2891" stroke="#333333" stroke-miterlimit="10" stroke-linecap="round" stroke-linejoin="round"/>
<path d="M10.1602 20.5145C16.0625 20.5145 20.8465 15.7304 20.8465 9.82812H37.2991" stroke="#333333" stroke-miterlimit="10" stroke-linecap="round" stroke-linejoin="round"/>
<path d="M64.4385 41.0039H36.5605V50.9999H64.4385V41.0039Z" stroke="#333333" stroke-miterlimit="10" stroke-linecap="round" stroke-linejoin="round"/>
<path d="M53.0033 29.25H36.5508V36.358H53.0033V29.25Z" stroke="#333333" stroke-miterlimit="10" stroke-linecap="round" stroke-linejoin="round"/>
<path d="M18.1523 45.6016H36.5496" stroke="#333333" stroke-miterlimit="10" stroke-linecap="round" stroke-linejoin="round"/>
<path d="M2.16602 39.3027C5.41374 41.3933 9.97417 42.706 15.0402 42.706C20.1063 42.706 24.6667 41.3933 27.9144 39.3027" stroke="#333333" stroke-miterlimit="10" stroke-linecap="round" stroke-linejoin="round"/>
<path d="M37.2891 9.82812V20.5145" stroke="#333333" stroke-miterlimit="10" stroke-linecap="round" stroke-linejoin="round"/>
<path d="M29.0723 9.82812C29.0723 13.0078 28.5862 17.6363 25.4648 20.5145" stroke="#333333" stroke-miterlimit="10" stroke-linecap="round" stroke-linejoin="round"/>
<path d="M45.5137 9.82812C45.5137 13.0078 45.9999 17.6363 49.1212 20.5145" stroke="#333333" stroke-miterlimit="10" stroke-linecap="round" stroke-linejoin="round"/>
<path d="M73.4434 50.9992V34.041" stroke="#333333" stroke-miterlimit="10" stroke-linecap="round" stroke-linejoin="round"/>
</svg>
