<svg width="49" height="51" viewBox="0 0 49 51" fill="none" xmlns="http://www.w3.org/2000/svg">
<path d="M14.3232 1L27.1347 12.1681L41.7238 24.8874L47.7103 30.1026V1.00838H14.3232V1ZM43.3084 20.4185L41.7238 19.035L33.8423 12.1681L26.0783 5.40186H43.3084V20.4185Z" stroke="#252630" stroke-miterlimit="10" stroke-linecap="round" stroke-linejoin="round"/>
<path d="M43.3083 5.40234V20.419L41.7236 19.0355L33.8422 12.1686L26.0781 5.40234H43.3083Z" stroke="#252630" stroke-miterlimit="10" stroke-linecap="round" stroke-linejoin="round"/>
<path d="M43.3083 5.40234V20.419L41.7236 19.0355L33.8422 12.1686L26.0781 5.40234H43.3083Z" stroke="#252630" stroke-miterlimit="10" stroke-linecap="round" stroke-linejoin="round"/>
<path d="M19.7988 1V2.50082" stroke="#252630" stroke-miterlimit="10" stroke-linecap="round" stroke-linejoin="round"/>
<path d="M25.3828 1V2.50082" stroke="#252630" stroke-miterlimit="10" stroke-linecap="round" stroke-linejoin="round"/>
<path d="M30.9668 1V2.50082" stroke="#252630" stroke-miterlimit="10" stroke-linecap="round" stroke-linejoin="round"/>
<path d="M36.5508 1V2.50082" stroke="#252630" stroke-miterlimit="10" stroke-linecap="round" stroke-linejoin="round"/>
<path d="M42.1348 1V2.50082" stroke="#252630" stroke-miterlimit="10" stroke-linecap="round" stroke-linejoin="round"/>
<path d="M8.44543 4.94922V33.0876H5.18386C2.86974 33.0876 1 34.9573 1 37.263V9.12469C1 6.81896 2.86974 4.94922 5.18386 4.94922H8.44543Z" stroke="#252630" stroke-miterlimit="10" stroke-linecap="round" stroke-linejoin="round"/>
<path d="M41.7232 16.3434V19.0349L33.8418 12.168H37.5477C39.8619 12.168 41.7232 14.0377 41.7232 16.3434Z" stroke="#252630" stroke-miterlimit="10" stroke-linecap="round" stroke-linejoin="round"/>
<path d="M27.1345 12.168L41.7235 24.8872V45.6053C41.7235 43.2996 39.8537 41.4298 37.548 41.4298H5.18386C2.86974 41.4298 1 39.5601 1 37.2544C1 35.0157 2.76074 33.1879 4.98263 33.0873C5.04971 33.0789 5.11678 33.0789 5.18386 33.0789H8.44543V12.168H27.1345Z" stroke="#252630" stroke-miterlimit="10" stroke-linecap="round" stroke-linejoin="round"/>
<path d="M41.7232 45.6052C41.7232 47.9109 39.8534 49.7806 37.5477 49.7806H34.2861V41.4297H37.5477C39.8618 41.4297 41.7232 43.2994 41.7232 45.6052Z" stroke="#252630" stroke-miterlimit="10" stroke-linecap="round" stroke-linejoin="round"/>
<path d="M8.44531 19.3281H32.1902V37.7237H24.4262" stroke="#252630" stroke-miterlimit="10" stroke-linecap="round" stroke-linejoin="round"/>
<path d="M24.4258 37.7237C24.4258 34.6969 21.9776 32.2402 18.9424 32.2402" stroke="#252630" stroke-miterlimit="10" stroke-linecap="round" stroke-linejoin="round"/>
<path d="M18.9514 37.7231H4.99121V33.0781" stroke="#252630" stroke-miterlimit="10" stroke-linecap="round" stroke-linejoin="round"/>
<path d="M18.9512 37.7241V36.3574" stroke="#252630" stroke-miterlimit="10" stroke-linecap="round" stroke-linejoin="round"/>
<path d="M13.9287 37.7242V24.418" stroke="#252630" stroke-miterlimit="10" stroke-linecap="round" stroke-linejoin="round"/>
<path d="M32.1901 28.1406H13.9287" stroke="#252630" stroke-miterlimit="10" stroke-linecap="round" stroke-linejoin="round"/>
<path d="M24.4258 19.3281V28.1402" stroke="#252630" stroke-miterlimit="10" stroke-linecap="round" stroke-linejoin="round"/>
</svg>
