<svg width="16" height="23" viewBox="0 0 16 23" fill="none" xmlns="http://www.w3.org/2000/svg">
<path d="M14.32 21.89H1.96C1.43 21.89 1 21.46 1 20.93V1.96C1 1.43 1.43 1 1.96 1H14.32C14.85 1 15.28 1.43 15.28 1.96V20.93C15.28 21.46 14.85 21.89 14.32 21.89Z" stroke="#FE0000" stroke-miterlimit="10" stroke-linecap="round" stroke-linejoin="round"/>
<path d="M3.5293 19.2812H12.7493" stroke="#FE0000" stroke-miterlimit="10" stroke-linecap="round" stroke-linejoin="round"/>
<path d="M8.13969 5.83015C8.94602 5.83015 9.59969 5.17649 9.59969 4.37016C9.59969 3.56382 8.94602 2.91016 8.13969 2.91016C7.33335 2.91016 6.67969 3.56382 6.67969 4.37016C6.67969 5.17649 7.33335 5.83015 8.13969 5.83015Z" stroke="#FE0000" stroke-miterlimit="10" stroke-linecap="round" stroke-linejoin="round"/>
</svg>
