<svg width="33" height="33" viewBox="0 0 33 33" fill="none" xmlns="http://www.w3.org/2000/svg">
<path d="M16.5 0.6875C25.2175 0.6875 32.3125 7.7825 32.3125 16.5C32.3125 25.2175 25.2175 32.3125 16.5 32.3125C7.7825 32.3125 0.6875 25.2175 0.6875 16.5C0.6875 7.7825 7.7825 0.6875 16.5 0.6875ZM16.5 0C7.39062 0 0 7.39062 0 16.5C0 25.6094 7.39062 33 16.5 33C25.6094 33 33 25.6094 33 16.5C33 7.39062 25.6094 0 16.5 0Z" fill="white"/>
<path fill-rule="evenodd" clip-rule="evenodd" d="M7.46636 16.3273C12.2789 14.2305 15.4826 12.8486 17.0914 12.1817C21.677 10.2773 22.6257 9.94734 23.2445 9.93359C23.382 9.93359 23.6845 9.96797 23.8839 10.1261C24.0489 10.2636 24.097 10.4423 24.1176 10.573C24.1382 10.7036 24.1657 10.9923 24.1451 11.2192C23.8976 13.8248 22.8251 20.1567 22.2751 23.0786C22.0414 24.3161 21.5876 24.7286 21.1476 24.7698C20.192 24.8592 19.4632 24.1373 18.5351 23.5255C17.0845 22.5767 16.2595 21.9786 14.8501 21.0505C13.2207 19.978 14.2795 19.3867 15.2076 18.4242C15.4482 18.1698 19.6695 14.3336 19.752 13.983C19.7589 13.9417 19.7726 13.7767 19.6764 13.6942C19.5801 13.6117 19.4357 13.6392 19.3326 13.6598C19.1882 13.6942 16.8645 15.2273 12.3751 18.2592C11.7151 18.713 11.117 18.933 10.5876 18.9192C9.99636 18.9055 8.86198 18.5892 8.02323 18.3142C6.99198 17.9773 6.16698 17.7986 6.24261 17.228C6.27698 16.9392 6.68948 16.6367 7.46636 16.3273Z" fill="white"/>
</svg>
