<svg width="34" height="34" viewBox="0 0 34 34" fill="none" xmlns="http://www.w3.org/2000/svg">
<path d="M16.8 33.6C26.0784 33.6 33.6 26.0784 33.6 16.8C33.6 7.52162 26.0784 0 16.8 0C7.52162 0 0 7.52162 0 16.8C0 26.0784 7.52162 33.6 16.8 33.6Z" fill="url(#paint0_linear)"/>
<path fill-rule="evenodd" clip-rule="evenodd" d="M7.60246 16.6252C12.5025 14.4902 15.7645 13.0832 17.4025 12.4042C22.0715 10.4652 23.0375 10.1292 23.6675 10.1152C23.8075 10.1152 24.1155 10.1502 24.3185 10.3112C24.4865 10.4512 24.5355 10.6332 24.5565 10.7662C24.5775 10.8992 24.6055 11.1932 24.5845 11.4242C24.3325 14.0772 23.2405 20.5242 22.6805 23.4992C22.4425 24.7592 21.9805 25.1792 21.5325 25.2212C20.5595 25.3122 19.8175 24.5772 18.8725 23.9542C17.3955 22.9882 16.5555 22.3792 15.1205 21.4342C13.4615 20.3422 14.5395 19.7402 15.4845 18.7602C15.7295 18.5012 20.0275 14.5952 20.1115 14.2382C20.1185 14.1962 20.1325 14.0282 20.0345 13.9442C19.9365 13.8602 19.7895 13.8882 19.6845 13.9092C19.5375 13.9442 17.1715 15.5052 12.6005 18.5922C11.9285 19.0542 11.3195 19.2782 10.7805 19.2642C10.1785 19.2502 9.02346 18.9282 8.16946 18.6482C7.11946 18.3052 6.27947 18.1232 6.35647 17.5422C6.39147 17.2482 6.81146 16.9402 7.60246 16.6252Z" fill="white"/>
<defs>
<linearGradient id="paint0_linear" x1="16.8" y1="0" x2="16.8" y2="33.39" gradientUnits="userSpaceOnUse">
<stop stop-color="#2AABEE"/>
<stop offset="1" stop-color="#229ED9"/>
</linearGradient>
</defs>
</svg>
