<svg width="46" height="54" viewBox="0 0 46 54" fill="none" xmlns="http://www.w3.org/2000/svg">
<path d="M0.926025 15.8461C2.10903 14.1171 3.50002 12.5311 5.04702 11.1271" stroke="#333333" stroke-miterlimit="10" stroke-linecap="round" stroke-linejoin="round"/>
<path d="M40.953 11.14C42.5 12.544 43.891 14.13 45.074 15.859" stroke="#333333" stroke-miterlimit="10" stroke-linecap="round" stroke-linejoin="round"/>
<path d="M32.724 1.45508H13.276V5.69308H32.724V1.45508Z" stroke="#333333" stroke-miterlimit="10" stroke-linecap="round" stroke-linejoin="round"/>
<path d="M18.3719 5.69312V9.63211" stroke="#333333" stroke-miterlimit="10" stroke-linecap="round" stroke-linejoin="round"/>
<path d="M27.615 5.69312V9.63211" stroke="#333333" stroke-miterlimit="10" stroke-linecap="round" stroke-linejoin="round"/>
<path d="M23 13.649V16.821" stroke="#333333" stroke-miterlimit="10" stroke-linecap="round" stroke-linejoin="round"/>
<path d="M5.67102 30.978H8.84303" stroke="#333333" stroke-miterlimit="10" stroke-linecap="round" stroke-linejoin="round"/>
<path d="M33.218 11.972L31.203 15.716C30.904 15.547 30.592 15.391 30.267 15.248C29.916 15.079 29.552 14.923 29.175 14.793C28.72 14.611 28.252 14.455 27.771 14.325C27.42 14.208 27.069 14.13 26.705 14.052C26.315 13.961 25.925 13.883 25.522 13.831C25.496 13.818 25.483 13.818 25.457 13.818C25.275 13.792 25.08 13.766 24.885 13.753C24.274 13.688 23.637 13.649 23 13.649C13.432 13.649 5.67101 21.41 5.67101 30.978C5.67101 33.942 6.41201 36.737 7.73801 39.181L3.99402 41.196C5.00802 43.055 6.26902 44.745 7.75102 46.227L38.249 15.729C36.767 14.247 35.077 12.986 33.218 11.972ZM29.409 51.57C28.733 51.778 28.044 51.96 27.342 52.103C28.044 51.96 28.733 51.791 29.409 51.57Z" stroke="#333333" stroke-miterlimit="10" stroke-linecap="round" stroke-linejoin="round"/>
<path d="M44.567 30.9781C44.567 39.1941 39.978 46.3311 33.218 49.9841C32.932 50.1401 32.646 50.2831 32.347 50.4131C32.165 50.5041 31.983 50.5951 31.788 50.6731C31.567 50.7771 31.346 50.8811 31.112 50.9591C30.904 51.0501 30.696 51.1281 30.488 51.2061C30.137 51.3361 29.773 51.4661 29.409 51.5701C28.733 51.7781 28.044 51.9601 27.342 52.1031H27.329C27.095 52.1551 26.861 52.2071 26.627 52.2331C26.432 52.2721 26.224 52.3111 26.029 52.3241C25.782 52.3631 25.535 52.4021 25.288 52.4151C25.21 52.4281 25.145 52.4411 25.067 52.4411C24.781 52.4801 24.495 52.4931 24.209 52.5061C23.806 52.5321 23.403 52.5451 23 52.5451C17.046 52.5451 11.651 50.1271 7.75098 46.2271L10.741 43.2371C13.887 46.3701 18.216 48.3071 23 48.3071C23.637 48.3071 24.274 48.2681 24.885 48.2031C25.08 48.1901 25.275 48.1641 25.457 48.1381C27.16 47.8911 28.772 47.4101 30.267 46.7081C30.592 46.5651 30.891 46.4091 31.203 46.2401C36.637 43.3151 40.329 37.5821 40.329 30.9781C40.329 26.1941 38.392 21.8651 35.259 18.7191L38.249 15.7291C42.149 19.6291 44.567 25.0241 44.567 30.9781Z" stroke="#FE0000" stroke-miterlimit="10" stroke-linecap="round" stroke-linejoin="round"/>
<path d="M40.3291 30.9781C40.3291 37.5821 36.6371 43.3151 31.2031 46.2401C30.8911 46.4091 30.5921 46.5651 30.2671 46.7081C28.7721 47.4101 27.1601 47.8911 25.4571 48.1381C25.2751 48.1641 25.0801 48.1901 24.8851 48.2031C24.2741 48.2681 23.6371 48.3071 23.0001 48.3071C18.2161 48.3071 13.8871 46.3701 10.7411 43.2371L13.7441 40.2341C16.1231 42.6001 19.3991 44.0691 23.0001 44.0691C30.2151 44.0691 36.0911 38.1931 36.0911 30.9781C36.0911 27.3771 34.6221 24.1011 32.2561 21.7221L35.2591 18.7191C38.3921 21.8651 40.3291 26.1941 40.3291 30.9781Z" stroke="#FE0000" stroke-miterlimit="10" stroke-linecap="round" stroke-linejoin="round"/>
<path d="M36.091 30.9781C36.091 38.1931 30.215 44.0691 23 44.0691C19.399 44.0691 16.123 42.6001 13.744 40.2341L16.747 37.231C18.346 38.8431 20.569 39.8311 23 39.8311C27.888 39.8311 31.853 35.8531 31.853 30.9781C31.853 28.5471 30.865 26.324 29.253 24.725L32.256 21.722C34.622 24.101 36.091 27.3771 36.091 30.9781Z" stroke="#FE0000" stroke-miterlimit="10" stroke-linecap="round" stroke-linejoin="round"/>
<path d="M31.853 30.9781C31.853 35.8531 27.8879 39.8311 22.9999 39.8311C20.5689 39.8311 18.3459 38.8431 16.7469 37.2311L19.737 34.2411C20.569 35.0731 21.7259 35.5931 22.9999 35.5931C25.5479 35.5931 27.6149 33.5261 27.6149 30.9781C27.6149 29.7041 27.0949 28.5471 26.2629 27.7151L29.253 24.7251C30.865 26.3241 31.853 28.5471 31.853 30.9781Z" stroke="#FE0000" stroke-miterlimit="10" stroke-linecap="round" stroke-linejoin="round"/>
<path d="M27.6151 30.9781C27.6151 33.5261 25.5481 35.5931 23.0001 35.5931C21.7261 35.5931 20.5691 35.0731 19.7371 34.2411L26.2631 27.7151C27.0951 28.5471 27.6151 29.7041 27.6151 30.9781Z" stroke="#FE0000" stroke-miterlimit="10" stroke-linecap="round" stroke-linejoin="round"/>
<path d="M33.218 11.9721L31.203 15.7161C30.904 15.5471 30.579 15.3911 30.267 15.2481C29.916 15.0791 29.552 14.9231 29.175 14.7931C28.72 14.6111 28.252 14.4551 27.771 14.3251C27.42 14.2081 27.069 14.1301 26.705 14.0521C26.315 13.9611 25.925 13.8831 25.522 13.8311C25.496 13.8181 25.483 13.8181 25.457 13.8181C25.275 13.7921 25.08 13.7661 24.885 13.7531C24.274 13.6881 23.637 13.6491 23 13.6491C13.432 13.6491 5.67098 21.4101 5.67098 30.9781C5.67098 33.9421 6.41198 36.7371 7.73798 39.1811L3.99398 41.1961C2.36898 38.1541 1.43298 34.6701 1.43298 30.9781C1.43298 19.0701 11.092 9.41113 23 9.41113C23.403 9.41113 23.806 9.42413 24.209 9.45013C24.495 9.46313 24.781 9.47613 25.067 9.51513C25.132 9.51513 25.21 9.52813 25.288 9.54113C25.535 9.55413 25.782 9.59313 26.029 9.63213C26.133 9.64513 26.224 9.64513 26.328 9.67113C26.432 9.68413 26.523 9.69713 26.627 9.72313C26.653 9.72313 26.666 9.72313 26.692 9.73613C26.887 9.76213 27.082 9.80113 27.264 9.84013C27.29 9.84013 27.303 9.85313 27.329 9.85313C27.342 9.85313 27.342 9.85313 27.342 9.85313C28.044 9.99613 28.733 10.1781 29.409 10.3861C29.747 10.4901 30.085 10.5941 30.41 10.7241C30.436 10.7371 30.462 10.7371 30.488 10.7501C30.696 10.8281 30.904 10.9061 31.112 10.9971C31.346 11.0751 31.567 11.1791 31.788 11.2831C31.983 11.3611 32.165 11.4521 32.347 11.5431C32.646 11.6861 32.932 11.8291 33.218 11.9721Z" stroke="#333333" stroke-miterlimit="10" stroke-linecap="round" stroke-linejoin="round"/>
</svg>
