<svg width="30" height="35" viewBox="0 0 30 35" fill="none" xmlns="http://www.w3.org/2000/svg">
<path d="M1 10.2942C1.75922 9.17739 2.65192 8.15296 3.64475 7.24609" stroke="#333333" stroke-miterlimit="10" stroke-linecap="round" stroke-linejoin="round"/>
<path d="M28.9987 20.0692C28.9987 27.7608 22.7998 33.9997 15.1575 33.9997C7.51529 33.9997 1.31641 27.7608 1.31641 20.0692C1.31641 12.3776 7.51529 6.13867 15.1575 6.13867C17.527 6.13867 19.7629 6.74325 21.7152 7.79287L20.422 10.2112C18.8535 9.3547 17.0597 8.87607 15.1575 8.87607C9.01704 8.87607 4.03624 13.8891 4.03624 20.0692C4.03624 26.2494 9.01704 31.2623 15.1575 31.2623C21.298 31.2623 26.2788 26.2494 26.2788 20.0692C26.2788 18.1547 25.8033 16.3494 24.9523 14.7707L27.3551 13.4692C28.398 15.4341 28.9987 17.6845 28.9987 20.0692Z" stroke="#333333" stroke-miterlimit="10" stroke-linecap="round" stroke-linejoin="round"/>
<path d="M21.3992 1H8.91797V3.7374H21.3992V1Z" stroke="#333333" stroke-miterlimit="10" stroke-linecap="round" stroke-linejoin="round"/>
<path d="M12.1953 3.73828V6.28255" stroke="#333333" stroke-miterlimit="10" stroke-linecap="round" stroke-linejoin="round"/>
<path d="M18.127 3.73828V6.28255" stroke="#333333" stroke-miterlimit="10" stroke-linecap="round" stroke-linejoin="round"/>
<path d="M15.1582 20.0686L26.9553 8.19531" stroke="#333333" stroke-miterlimit="10" stroke-linecap="round" stroke-linejoin="round"/>
<path d="M15.1582 8.87695V10.9258" stroke="#333333" stroke-miterlimit="10" stroke-linecap="round" stroke-linejoin="round"/>
<path d="M4.03711 20.0703H6.07281" stroke="#333333" stroke-miterlimit="10" stroke-linecap="round" stroke-linejoin="round"/>
<path d="M15.1582 31.2637V29.2148" stroke="#333333" stroke-miterlimit="10" stroke-linecap="round" stroke-linejoin="round"/>
<path d="M26.2793 20.0703H24.252" stroke="#333333" stroke-miterlimit="10" stroke-linecap="round" stroke-linejoin="round"/>
</svg>
