<svg width="42" height="39" viewBox="0 0 42 39" fill="none" xmlns="http://www.w3.org/2000/svg">
<path d="M16.8548 34.1671H4.65845C5.2086 31.7164 6.88765 30.8376 8.52383 30.0016C9.28834 29.6086 10.1743 29.1442 10.7673 28.4512C11.3604 29.1442 12.232 29.6015 13.0108 30.0016C14.6327 30.8376 16.3118 31.7164 16.8548 34.1671Z" stroke="#252630" stroke-miterlimit="10" stroke-linecap="round" stroke-linejoin="round"/>
<path d="M12.9964 30.0016C12.2248 29.6086 11.346 29.1442 10.7529 28.4512C10.1599 29.1442 9.28108 29.6015 8.50943 30.0016C6.8804 30.8376 5.20134 31.7164 4.64404 34.1671H16.8404C16.3117 31.7164 14.6326 30.8376 12.9964 30.0016Z" stroke="#252630" stroke-miterlimit="10" stroke-linecap="round" stroke-linejoin="round"/>
<path d="M20.527 36.0098H1V38.4605H20.527V36.0098Z" stroke="#252630" stroke-miterlimit="10" stroke-linecap="round" stroke-linejoin="round"/>
<path d="M7.43042 12.8105C8.26637 10.2955 9.68106 7.98771 11.6102 6.05144C14.8683 2.79337 19.1981 1 23.7994 1C28.4078 1 32.7376 2.79337 35.9886 6.05144C39.2466 9.30951 41.04 13.6393 41.04 18.2406C41.04 22.8491 39.2466 27.1718 35.9886 30.4298C32.7305 33.6879 28.4007 35.4813 23.7994 35.4813" stroke="#252630" stroke-miterlimit="10" stroke-linecap="round" stroke-linejoin="round"/>
<path d="M13.0257 27.9147C12.3612 27.536 11.9182 27.1573 11.9182 26.6143C11.9182 26.5857 11.9182 26.5571 11.9254 26.5285C12.104 24.4637 18.8774 24.8138 18.8774 17.2188H2.62988C2.62988 24.9138 9.59615 24.4565 9.59615 26.6143C9.59615 28.772 2.62988 28.3076 2.62988 36.0098H18.8845C18.8845 33.9378 18.3772 32.4517 17.6199 31.3442C16.3195 29.4008 14.2832 28.6434 13.0257 27.9147ZM8.51728 23.2348C6.88824 22.3988 5.20919 21.52 4.65189 19.0693H16.8482C16.3052 21.52 14.6262 22.3988 12.9971 23.2348C12.2541 23.6134 11.4181 24.0564 10.8394 24.6995C10.8036 24.728 10.7822 24.7566 10.7536 24.7852C10.1677 24.0921 9.28178 23.6277 8.51728 23.2348ZM4.65903 34.1664C5.20919 31.7157 6.88824 30.8369 8.52442 30.001C9.28892 29.608 10.1749 29.1436 10.7679 28.4505C11.3609 29.1436 12.2326 29.6009 13.0114 30.001C14.6405 30.8369 16.3195 31.7157 16.8625 34.1664H4.65903Z" stroke="#252630" stroke-miterlimit="10" stroke-linecap="round" stroke-linejoin="round"/>
<path d="M16.8546 19.0703C16.3116 21.521 14.6325 22.3998 13.0035 23.2358C12.2604 23.6145 11.4245 24.0575 10.8457 24.7005C10.81 24.7291 10.7886 24.7577 10.76 24.7862C10.167 24.0932 9.28816 23.6359 8.51651 23.2358C6.88748 22.3998 5.20842 21.521 4.65112 19.0703H16.8546V19.0703Z" stroke="#252630" stroke-miterlimit="10" stroke-linecap="round" stroke-linejoin="round"/>
<path d="M38.2757 18.2483C38.2757 22.2495 36.6538 25.8648 34.0387 28.487C31.4237 31.102 27.8012 32.7239 23.8072 32.7239C21.5923 32.7239 19.4917 32.2237 17.6198 31.3378C16.3194 29.3944 14.2831 28.637 13.0256 27.9082C12.3611 27.5296 11.9181 27.1509 11.9181 26.6079C11.9181 26.5793 11.9181 26.5507 11.9253 26.5221C12.1039 24.4572 18.8773 24.8073 18.8773 17.2123H20.5206V14.7616H9.74609C10.382 12.1609 11.7252 9.83879 13.5615 8.00255C16.1908 5.38752 19.799 3.76562 23.8001 3.76562C27.7941 3.76562 31.4166 5.38752 34.0316 8.00255C36.6538 10.6319 38.2757 14.2543 38.2757 18.2483Z" stroke="#252630" stroke-miterlimit="10" stroke-linecap="round" stroke-linejoin="round"/>
<path d="M20.527 14.7686H1V17.2193H20.527V14.7686Z" stroke="#252630" stroke-miterlimit="10" stroke-linecap="round" stroke-linejoin="round"/>
<path d="M23.7991 8.7742C22.9059 8.38837 21.7985 7.98111 21.8556 7.53813C21.9128 7.09515 24.4421 6.79506 25.6496 7.03084" stroke="#252630" stroke-miterlimit="10" stroke-linecap="round" stroke-linejoin="round"/>
<path d="M23.7995 8.77441C24.6926 9.16024 25.8001 9.5675 25.7429 10.0105C25.6858 10.4535 23.1565 10.7535 21.949 10.5178" stroke="#252630" stroke-miterlimit="10" stroke-linecap="round" stroke-linejoin="round"/>
<path d="M23.8494 6.9442V6.04395" stroke="#252630" stroke-miterlimit="10" stroke-linecap="round" stroke-linejoin="round"/>
<path d="M23.7568 10.6025V11.5028" stroke="#252630" stroke-miterlimit="10" stroke-linecap="round" stroke-linejoin="round"/>
<path d="M23.7995 27.7217C24.6926 28.1075 25.8001 28.5148 25.7429 28.9577C25.6858 29.4007 23.1565 29.7008 21.949 29.465" stroke="#252630" stroke-miterlimit="10" stroke-linecap="round" stroke-linejoin="round"/>
<path d="M23.7991 27.7224C22.9059 27.3366 21.7985 26.9294 21.8556 26.4864C21.9128 26.0434 24.4421 25.7433 25.6496 25.9791" stroke="#252630" stroke-miterlimit="10" stroke-linecap="round" stroke-linejoin="round"/>
<path d="M23.7568 29.5508V30.451" stroke="#252630" stroke-miterlimit="10" stroke-linecap="round" stroke-linejoin="round"/>
<path d="M23.8494 25.8924V24.9922" stroke="#252630" stroke-miterlimit="10" stroke-linecap="round" stroke-linejoin="round"/>
<path d="M33.9443 18.2488C33.0512 17.863 31.9437 17.4557 32.0009 17.0127C32.0581 16.5698 34.5874 16.2697 35.7948 16.5055" stroke="#252630" stroke-miterlimit="10" stroke-linecap="round" stroke-linejoin="round"/>
<path d="M33.9453 18.249C34.8384 18.6348 35.9458 19.0421 35.8887 19.4851C35.8315 19.9281 33.3022 20.2282 32.0947 19.9924" stroke="#252630" stroke-miterlimit="10" stroke-linecap="round" stroke-linejoin="round"/>
<path d="M33.9875 16.4188V15.5186" stroke="#252630" stroke-miterlimit="10" stroke-linecap="round" stroke-linejoin="round"/>
<path d="M33.8948 20.0771V20.9774" stroke="#252630" stroke-miterlimit="10" stroke-linecap="round" stroke-linejoin="round"/>
<path d="M23.7996 18.248H29.7941" stroke="#252630" stroke-miterlimit="10" stroke-linecap="round" stroke-linejoin="round"/>
<path d="M23.7996 18.2477L30.7015 11.3457" stroke="#252630" stroke-miterlimit="10" stroke-linecap="round" stroke-linejoin="round"/>
<path d="M13.5671 8.00879L14.9747 9.42348" stroke="#252630" stroke-miterlimit="10" stroke-linecap="round" stroke-linejoin="round"/>
<path d="M34.0385 28.486L32.6238 27.0713" stroke="#252630" stroke-miterlimit="10" stroke-linecap="round" stroke-linejoin="round"/>
<path d="M34.0385 8.00879L32.6238 9.42348" stroke="#252630" stroke-miterlimit="10" stroke-linecap="round" stroke-linejoin="round"/>
</svg>
