<svg width="46" height="54" viewBox="0 0 46 54" fill="none" xmlns="http://www.w3.org/2000/svg">
<path d="M0.926025 15.8459C2.10903 14.1169 3.50002 12.531 5.04702 11.127" stroke="#333333" stroke-miterlimit="10" stroke-linecap="round" stroke-linejoin="round"/>
<path d="M40.953 11.1406C42.5 12.5446 43.891 14.1306 45.074 15.8596" stroke="#333333" stroke-miterlimit="10" stroke-linecap="round" stroke-linejoin="round"/>
<path d="M32.724 1.45508H13.276V5.69308H32.724V1.45508Z" stroke="#333333" stroke-miterlimit="10" stroke-linecap="round" stroke-linejoin="round"/>
<path d="M18.3721 5.69336V9.63236" stroke="#333333" stroke-miterlimit="10" stroke-linecap="round" stroke-linejoin="round"/>
<path d="M27.615 5.69336V9.63236" stroke="#333333" stroke-miterlimit="10" stroke-linecap="round" stroke-linejoin="round"/>
<path d="M23 13.6494V16.8214" stroke="#333333" stroke-miterlimit="10" stroke-linecap="round" stroke-linejoin="round"/>
<path d="M5.67102 30.9785H8.84302" stroke="#333333" stroke-miterlimit="10" stroke-linecap="round" stroke-linejoin="round"/>
<path d="M23 48.3068V45.1348" stroke="#333333" stroke-miterlimit="10" stroke-linecap="round" stroke-linejoin="round"/>
<path d="M44.567 30.9785C44.567 36.9325 42.149 42.3275 38.249 46.2275L35.246 43.2375V43.2245C38.392 40.0785 40.329 35.7495 40.329 30.9785C40.329 30.5625 40.316 30.1595 40.277 29.7565C40.264 29.4315 40.238 29.1065 40.186 28.7945C40.16 28.4955 40.108 28.2095 40.056 27.9235C39.796 26.4415 39.354 25.0375 38.73 23.7115C38.587 23.3865 38.431 23.0875 38.262 22.7755C37.456 21.2805 36.442 19.9285 35.246 18.7325L38.249 15.7295C39.731 17.2115 40.992 18.9015 42.006 20.7605C42.149 21.0465 42.292 21.3325 42.435 21.6315C42.578 21.9305 42.721 22.2295 42.851 22.5415C42.864 22.5675 42.877 22.5935 42.877 22.6065C43.007 22.9055 43.124 23.2045 43.228 23.5165C43.371 23.8545 43.488 24.2055 43.592 24.5695C43.8 25.2455 43.982 25.9345 44.125 26.6365C44.125 26.6365 44.125 26.6365 44.125 26.6495C44.177 26.8835 44.229 27.1175 44.255 27.3515C44.294 27.5465 44.333 27.7545 44.346 27.9495C44.385 28.1965 44.424 28.4435 44.437 28.6905C44.45 28.7685 44.463 28.8465 44.463 28.9115C44.502 29.1975 44.515 29.4835 44.528 29.7695C44.554 30.1725 44.567 30.5755 44.567 30.9785Z" stroke="#FE0000" stroke-miterlimit="10" stroke-linecap="round" stroke-linejoin="round"/>
<path d="M31.203 46.2401L33.218 49.9841C30.176 51.6091 26.692 52.5451 23 52.5451C11.092 52.5451 1.43298 42.8861 1.43298 30.9781C1.43298 19.0701 11.092 9.41113 23 9.41113C23.403 9.41113 23.806 9.42413 24.209 9.45013C24.495 9.46313 24.781 9.47613 25.067 9.51513C25.132 9.51513 25.21 9.52813 25.288 9.54113C25.535 9.55413 25.782 9.59313 26.029 9.63213C26.224 9.64513 26.432 9.68413 26.627 9.72313C26.861 9.74913 27.095 9.80113 27.329 9.85313C27.342 9.85313 27.342 9.85313 27.342 9.85313C28.044 9.99613 28.733 10.1781 29.409 10.3861C29.773 10.4901 30.137 10.6201 30.488 10.7501C30.696 10.8281 30.904 10.9061 31.112 10.9971C31.346 11.0751 31.567 11.1791 31.788 11.2831C31.983 11.3611 32.165 11.4521 32.347 11.5431C32.646 11.6861 32.932 11.8291 33.218 11.9721L31.203 15.7161C30.904 15.5471 30.592 15.3911 30.267 15.2481C28.772 14.5461 27.147 14.0651 25.457 13.8181C25.275 13.7921 25.08 13.7661 24.885 13.7531C24.274 13.6881 23.637 13.6491 23 13.6491C13.432 13.6491 5.67098 21.4101 5.67098 30.9781C5.67098 40.5461 13.432 48.3071 23 48.3071C25.964 48.3071 28.759 47.5661 31.203 46.2401Z" stroke="#333333" stroke-miterlimit="10" stroke-linecap="round" stroke-linejoin="round"/>
<path d="M40.329 30.9784C40.329 35.7494 38.392 40.0784 35.246 43.2244L32.256 40.2344C34.622 37.8554 36.091 34.5794 36.091 30.9784C36.091 27.3774 34.622 24.1014 32.256 21.7224L35.246 18.7324C36.442 19.9284 37.456 21.2804 38.262 22.7754C38.431 23.0874 38.587 23.3864 38.73 23.7114C39.354 25.0374 39.796 26.4414 40.056 27.9234C40.108 28.2094 40.16 28.4954 40.186 28.7944C40.238 29.1064 40.264 29.4314 40.277 29.7564C40.316 30.1594 40.329 30.5624 40.329 30.9784Z" stroke="#FE0000" stroke-miterlimit="10" stroke-linecap="round" stroke-linejoin="round"/>
<path d="M36.091 30.9777C36.091 34.5787 34.622 37.8547 32.256 40.2337L29.2531 37.2307C30.8521 35.6317 31.8531 33.4087 31.8531 30.9777C31.8531 28.5467 30.8521 26.3237 29.2531 24.7247L32.256 21.7217C34.622 24.1007 36.091 27.3767 36.091 30.9777Z" stroke="#FE0000" stroke-miterlimit="10" stroke-linecap="round" stroke-linejoin="round"/>
<path d="M31.8531 30.9786C31.8531 33.4096 30.8521 35.6326 29.2531 37.2316L26.2631 34.2416C27.0951 33.4096 27.6151 32.2526 27.6151 30.9786C27.6151 29.7046 27.0951 28.5476 26.2631 27.7156L29.2531 24.7256C30.8521 26.3246 31.8531 28.5476 31.8531 30.9786Z" stroke="#FE0000" stroke-miterlimit="10" stroke-linecap="round" stroke-linejoin="round"/>
<path d="M27.615 30.9778C27.615 32.2518 27.095 33.4088 26.263 34.2408L23 30.9778L26.263 27.7148C27.095 28.5468 27.615 29.7038 27.615 30.9778Z" stroke="#FE0000" stroke-miterlimit="10" stroke-linecap="round" stroke-linejoin="round"/>
</svg>
