<svg width="46" height="54" viewBox="0 0 46 54" fill="none" xmlns="http://www.w3.org/2000/svg">
<path d="M1.18604 15.8461C2.36904 14.1171 3.76003 12.5311 5.30703 11.1271" stroke="#333333" stroke-miterlimit="10" stroke-linecap="round" stroke-linejoin="round"/>
<path d="M44.8139 30.9781C44.8139 42.8861 35.1549 52.5451 23.2469 52.5451C11.3389 52.5451 1.67993 42.8861 1.67993 30.9781C1.67993 19.0701 11.3389 9.41113 23.2469 9.41113C26.9389 9.41113 30.4229 10.3471 33.4649 11.9721L31.4499 15.7161C29.0059 14.3901 26.2109 13.6491 23.2469 13.6491C13.6789 13.6491 5.91793 21.4101 5.91793 30.9781C5.91793 40.5461 13.6789 48.3071 23.2469 48.3071C32.8149 48.3071 40.5759 40.5461 40.5759 30.9781C40.5759 28.0141 39.8349 25.2191 38.5089 22.7751L42.2529 20.7601C43.8779 23.8021 44.8139 27.2861 44.8139 30.9781Z" stroke="#333333" stroke-miterlimit="10" stroke-linecap="round" stroke-linejoin="round"/>
<path d="M32.9709 1.45508H13.5229V5.69308H32.9709V1.45508Z" stroke="#333333" stroke-miterlimit="10" stroke-linecap="round" stroke-linejoin="round"/>
<path d="M18.6321 5.69312V9.63211" stroke="#333333" stroke-miterlimit="10" stroke-linecap="round" stroke-linejoin="round"/>
<path d="M27.875 5.69312V9.63211" stroke="#333333" stroke-miterlimit="10" stroke-linecap="round" stroke-linejoin="round"/>
<path d="M23.2471 30.9781L41.6291 12.5961" stroke="#333333" stroke-miterlimit="10" stroke-linecap="round" stroke-linejoin="round"/>
<path d="M23.2471 13.649V16.821" stroke="#333333" stroke-miterlimit="10" stroke-linecap="round" stroke-linejoin="round"/>
<path d="M5.91797 30.978H9.08996" stroke="#333333" stroke-miterlimit="10" stroke-linecap="round" stroke-linejoin="round"/>
<path d="M23.2471 48.3071V45.1351" stroke="#333333" stroke-miterlimit="10" stroke-linecap="round" stroke-linejoin="round"/>
<path d="M40.576 30.978H37.417" stroke="#333333" stroke-miterlimit="10" stroke-linecap="round" stroke-linejoin="round"/>
</svg>
