<svg width="37" height="43" viewBox="0 0 37 43" fill="none" xmlns="http://www.w3.org/2000/svg">
<path d="M0.524902 12.5488C1.47397 11.1612 2.5899 9.88844 3.83098 8.76172" stroke="#FE0000" stroke-miterlimit="10" stroke-linecap="round" stroke-linejoin="round"/>
<path d="M35.5247 24.6905C35.5247 34.2468 27.7758 41.9982 18.2226 41.9982C8.66935 41.9982 0.92041 34.2468 0.92041 24.6905C0.92041 15.1342 8.66935 7.38281 18.2226 7.38281C21.1845 7.38281 23.9795 8.13396 26.42 9.43803L24.8034 12.4426C22.8427 11.3785 20.6004 10.7838 18.2226 10.7838C10.5466 10.7838 4.32035 17.0121 4.32035 24.6905C4.32035 32.3689 10.5466 38.5972 18.2226 38.5972C25.8985 38.5972 32.1248 32.3689 32.1248 24.6905C32.1248 22.3119 31.5303 20.0689 30.4665 18.1075L33.4701 16.4905C34.7738 18.9317 35.5247 21.7276 35.5247 24.6905Z" stroke="#FE0000" stroke-miterlimit="10" stroke-linecap="round" stroke-linejoin="round"/>
<path d="M26.025 1H10.4229V4.40103H26.025V1Z" stroke="#FE0000" stroke-miterlimit="10" stroke-linecap="round" stroke-linejoin="round"/>
<path d="M14.5205 4.40234V7.56343" stroke="#FE0000" stroke-miterlimit="10" stroke-linecap="round" stroke-linejoin="round"/>
<path d="M21.936 4.40234V7.56343" stroke="#FE0000" stroke-miterlimit="10" stroke-linecap="round" stroke-linejoin="round"/>
<path d="M18.2236 24.6931L32.9706 9.94141" stroke="#FE0000" stroke-miterlimit="10" stroke-linecap="round" stroke-linejoin="round"/>
<path d="M18.2236 10.7852V13.3307" stroke="#FE0000" stroke-miterlimit="10" stroke-linecap="round" stroke-linejoin="round"/>
<path d="M4.32178 24.6914H6.86651" stroke="#FE0000" stroke-miterlimit="10" stroke-linecap="round" stroke-linejoin="round"/>
<path d="M18.2236 38.6041V36.0586" stroke="#FE0000" stroke-miterlimit="10" stroke-linecap="round" stroke-linejoin="round"/>
<path d="M32.1256 24.6914H29.5913" stroke="#FE0000" stroke-miterlimit="10" stroke-linecap="round" stroke-linejoin="round"/>
</svg>
