<svg width="46" height="54" viewBox="0 0 46 54" fill="none" xmlns="http://www.w3.org/2000/svg">
<path d="M0.926025 15.8461C2.10903 14.1171 3.50002 12.5311 5.04702 11.1271" stroke="#333333" stroke-miterlimit="10" stroke-linecap="round" stroke-linejoin="round"/>
<path d="M40.9531 11.14C42.5001 12.544 43.8911 14.13 45.0741 15.859" stroke="#333333" stroke-miterlimit="10" stroke-linecap="round" stroke-linejoin="round"/>
<path d="M32.7241 1.45508H13.2761V5.69308H32.7241V1.45508Z" stroke="#333333" stroke-miterlimit="10" stroke-linecap="round" stroke-linejoin="round"/>
<path d="M18.3721 5.69312V9.63211" stroke="#333333" stroke-miterlimit="10" stroke-linecap="round" stroke-linejoin="round"/>
<path d="M27.615 5.69312V9.63211" stroke="#333333" stroke-miterlimit="10" stroke-linecap="round" stroke-linejoin="round"/>
<path d="M23 13.649V16.821" stroke="#333333" stroke-miterlimit="10" stroke-linecap="round" stroke-linejoin="round"/>
<path d="M5.6709 30.978H8.8429" stroke="#333333" stroke-miterlimit="10" stroke-linecap="round" stroke-linejoin="round"/>
<path d="M23 48.3071V45.1351" stroke="#333333" stroke-miterlimit="10" stroke-linecap="round" stroke-linejoin="round"/>
<path d="M44.567 30.9781H40.329C40.329 29.2361 40.069 27.5721 39.588 25.9861C38.769 23.2041 37.248 20.7211 35.259 18.7191L38.249 15.7291C40.732 18.2121 42.617 21.3061 43.657 24.7641C44.255 26.7271 44.567 28.8201 44.567 30.9781Z" stroke="#FE0000" stroke-miterlimit="10" stroke-linecap="round" stroke-linejoin="round"/>
<path d="M40.3291 30.9781H36.0911C36.0911 30.6531 36.0781 30.3281 36.0521 30.0031C36.0391 29.8341 36.0261 29.6651 36.0001 29.4961C35.9871 29.3271 35.9611 29.1581 35.9351 28.9891C35.9221 28.8591 35.8961 28.7291 35.8701 28.5861C35.8311 28.3521 35.7791 28.1181 35.7141 27.8841C35.6621 27.6631 35.6101 27.4291 35.5321 27.2081C35.4671 26.9611 35.3891 26.7271 35.2981 26.4931C35.1811 26.1551 35.0381 25.8301 34.8951 25.5181C34.8171 25.3231 34.7131 25.1411 34.6221 24.9591C34.5311 24.7771 34.4401 24.6081 34.3361 24.4391C34.1931 24.1921 34.0371 23.9451 33.8811 23.7111C33.7381 23.5031 33.5821 23.2821 33.4261 23.0741C33.2051 22.7621 32.9581 22.4761 32.6981 22.1901C32.5551 22.0341 32.4121 21.8781 32.2561 21.7221L35.2591 18.7191C37.2481 20.7211 38.7691 23.2041 39.5881 25.9861C40.0691 27.5721 40.3291 29.2361 40.3291 30.9781Z" stroke="#FE0000" stroke-miterlimit="10" stroke-linecap="round" stroke-linejoin="round"/>
<path d="M36.0909 30.978H31.8529C31.8529 30.679 31.8399 30.367 31.8009 30.081C31.7749 29.782 31.7359 29.483 31.6709 29.197C31.6189 28.937 31.5539 28.677 31.4759 28.43C31.1249 27.273 30.5399 26.207 29.7859 25.297C29.6169 25.102 29.4349 24.907 29.2529 24.725L32.2559 21.722C32.4119 21.878 32.5549 22.034 32.6979 22.19C32.9579 22.476 33.2049 22.762 33.4259 23.074C33.5819 23.282 33.7379 23.503 33.8809 23.711C34.0369 23.945 34.1929 24.192 34.3359 24.439C34.4399 24.608 34.5309 24.777 34.6219 24.959C34.7129 25.141 34.8039 25.323 34.8949 25.518C35.0379 25.83 35.1809 26.155 35.2979 26.493C35.3889 26.727 35.4669 26.961 35.5319 27.208C35.6099 27.429 35.6619 27.663 35.7139 27.884C35.7789 28.118 35.8309 28.352 35.8699 28.586C35.8959 28.729 35.9219 28.859 35.9349 28.989C35.9609 29.158 35.9869 29.327 35.9999 29.496C36.0259 29.665 36.0389 29.834 36.0519 30.003C36.0779 30.328 36.0909 30.653 36.0909 30.978Z" stroke="#FE0000" stroke-miterlimit="10" stroke-linecap="round" stroke-linejoin="round"/>
<path d="M31.8529 30.9781H27.6149C27.6149 30.7701 27.6019 30.5621 27.5629 30.3541C27.5629 30.3281 27.5629 30.2891 27.5499 30.2631C27.5239 30.0551 27.4849 29.8601 27.4199 29.6521C27.3679 29.4961 27.3159 29.3401 27.2509 29.1841C27.1989 29.0541 27.1339 28.9111 27.0559 28.7811C26.9909 28.6641 26.9259 28.5471 26.8479 28.4431C26.7829 28.3391 26.7049 28.2351 26.6399 28.1311C26.5099 27.9751 26.3929 27.8451 26.2629 27.7151L29.2529 24.7251C29.4349 24.9071 29.6169 25.1021 29.7859 25.2971C30.5399 26.2071 31.1249 27.2731 31.4759 28.4301C31.5539 28.6771 31.6189 28.9371 31.6709 29.1971C31.7359 29.4831 31.7749 29.7821 31.8009 30.0811C31.8399 30.3671 31.8529 30.6791 31.8529 30.9781Z" stroke="#FE0000" stroke-miterlimit="10" stroke-linecap="round" stroke-linejoin="round"/>
<path d="M27.615 30.9781H23L26.263 27.7151C26.393 27.8451 26.51 27.9751 26.64 28.1311C26.705 28.2351 26.783 28.3391 26.848 28.4431C26.926 28.5471 26.991 28.6641 27.056 28.7811C27.134 28.9111 27.199 29.0541 27.251 29.1841C27.316 29.3401 27.368 29.4961 27.42 29.6521C27.485 29.8601 27.524 30.0551 27.55 30.2631C27.563 30.2891 27.563 30.3281 27.563 30.3541C27.602 30.5621 27.615 30.7701 27.615 30.9781Z" stroke="#FE0000" stroke-miterlimit="10" stroke-linecap="round" stroke-linejoin="round"/>
<path d="M43.6571 37.1921C42.0061 42.7041 38.1971 47.2931 33.2181 49.9841C32.9321 50.1401 32.6461 50.2831 32.3471 50.4131C32.1651 50.5041 31.9831 50.5951 31.7881 50.6731C31.5671 50.7771 31.3461 50.8811 31.1121 50.9591C30.9041 51.0501 30.6961 51.1281 30.4881 51.2061C30.1371 51.3361 29.7731 51.4661 29.4091 51.5701C28.7331 51.7781 28.0441 51.9601 27.3421 52.1031H27.3291C27.0951 52.1551 26.8611 52.2071 26.6271 52.2331C26.4321 52.2721 26.2241 52.3111 26.0291 52.3241C25.7821 52.3631 25.5351 52.4021 25.2881 52.4151C25.2101 52.4281 25.1451 52.4411 25.0671 52.4411C24.7811 52.4801 24.4951 52.4931 24.2091 52.5061C23.8061 52.5321 23.4031 52.5451 23.0001 52.5451C17.0461 52.5451 11.6511 50.1271 7.75111 46.2271C6.26911 44.7451 5.00811 43.0551 3.99411 41.1961C2.36911 38.1541 1.43311 34.6701 1.43311 30.9781C1.43311 19.0701 11.0921 9.41113 23.0001 9.41113C23.4031 9.41113 23.8061 9.42413 24.2091 9.45013C24.4951 9.46313 24.7811 9.47613 25.0671 9.51513C25.1321 9.51513 25.2101 9.52813 25.2881 9.54113C25.5351 9.55413 25.7821 9.59313 26.0291 9.63213C26.1331 9.64513 26.2241 9.64513 26.3281 9.67113C26.4321 9.68413 26.5231 9.69713 26.6271 9.72313C26.6531 9.72313 26.6661 9.72313 26.6921 9.73613C26.8871 9.76213 27.0821 9.80113 27.2641 9.84013C27.2901 9.84013 27.3031 9.85313 27.3291 9.85313C27.3421 9.85313 27.3421 9.85313 27.3421 9.85313C28.0441 9.99613 28.7331 10.1781 29.4091 10.3861C29.7471 10.4901 30.0851 10.5941 30.4101 10.7241C30.4361 10.7371 30.4621 10.7371 30.4881 10.7501C30.6961 10.8281 30.9041 10.9061 31.1121 10.9971C31.3461 11.0751 31.5671 11.1791 31.7881 11.2831C31.9831 11.3611 32.1651 11.4521 32.3471 11.5431C32.6461 11.6861 32.9321 11.8291 33.2181 11.9721L31.2031 15.7161C30.9041 15.5471 30.5791 15.3911 30.2671 15.2481C29.9161 15.0791 29.5521 14.9231 29.1751 14.7931C28.7201 14.6111 28.2521 14.4551 27.7711 14.3251C27.4201 14.2081 27.0691 14.1301 26.7051 14.0521C26.3151 13.9611 25.9251 13.8831 25.5221 13.8311C25.4961 13.8181 25.4831 13.8181 25.4571 13.8181C25.2751 13.7921 25.0801 13.7661 24.8851 13.7531C24.2741 13.6881 23.6371 13.6491 23.0001 13.6491C13.4321 13.6491 5.6711 21.4101 5.6711 30.9781C5.6711 33.9421 6.4121 36.7371 7.7381 39.1811C8.5311 40.6761 9.5581 42.0411 10.7411 43.2371C13.8871 46.3701 18.2161 48.3071 23.0001 48.3071C23.6371 48.3071 24.2741 48.2681 24.8851 48.2031C25.0801 48.1901 25.2751 48.1641 25.4571 48.1381C27.1601 47.8911 28.7721 47.4101 30.2671 46.7081C30.5921 46.5651 30.8911 46.4091 31.2031 46.2401C35.2071 44.0821 38.2621 40.4031 39.5881 35.9701L43.6571 37.1921Z" stroke="#333333" stroke-miterlimit="10" stroke-linecap="round" stroke-linejoin="round"/>
</svg>
