<svg width="46" height="54" viewBox="0 0 46 54" fill="none" xmlns="http://www.w3.org/2000/svg">
<path d="M0.926025 15.8461C2.10903 14.1171 3.50002 12.5311 5.04702 11.1271" stroke="#333333" stroke-miterlimit="10" stroke-linecap="round" stroke-linejoin="round"/>
<path d="M40.953 11.14C42.5 12.544 43.891 14.13 45.074 15.859" stroke="#333333" stroke-miterlimit="10" stroke-linecap="round" stroke-linejoin="round"/>
<path d="M32.724 1.45508H13.276V5.69308H32.724V1.45508Z" stroke="#333333" stroke-miterlimit="10" stroke-linecap="round" stroke-linejoin="round"/>
<path d="M18.3719 5.69312V9.63211" stroke="#333333" stroke-miterlimit="10" stroke-linecap="round" stroke-linejoin="round"/>
<path d="M27.615 5.69312V9.63211" stroke="#333333" stroke-miterlimit="10" stroke-linecap="round" stroke-linejoin="round"/>
<path d="M23 13.6492V16.8212" stroke="#333333" stroke-miterlimit="10" stroke-linecap="round" stroke-linejoin="round"/>
<path d="M44.567 30.9781C44.567 39.1941 39.978 46.3311 33.218 49.9841C32.932 50.1401 32.646 50.2831 32.347 50.4131C32.165 50.5041 31.983 50.5951 31.788 50.6731C31.567 50.7771 31.346 50.8811 31.112 50.9591C30.904 51.0501 30.696 51.1281 30.488 51.2061C30.137 51.3361 29.773 51.4661 29.409 51.5701C28.733 51.7781 28.044 51.9601 27.342 52.1031H27.329C27.095 52.1551 26.861 52.2071 26.627 52.2331C26.432 52.2721 26.224 52.3111 26.029 52.3241C25.782 52.3631 25.535 52.4021 25.288 52.4151C25.21 52.4281 25.145 52.4411 25.067 52.4411C24.781 52.4801 24.495 52.4931 24.209 52.5061C23.806 52.5321 23.403 52.5451 23 52.5451C17.046 52.5451 11.651 50.1271 7.75098 46.2271C6.26898 44.7451 5.00798 43.0551 3.99398 41.1961C2.36898 38.1541 1.43298 34.6701 1.43298 30.9781H5.67098C5.67098 33.9421 6.41198 36.7371 7.73798 39.1811C8.53098 40.6761 9.55798 42.0411 10.741 43.2371C13.887 46.3701 18.216 48.3071 23 48.3071C23.637 48.3071 24.274 48.2681 24.885 48.2031C25.08 48.1901 25.275 48.1641 25.457 48.1381C27.16 47.8911 28.772 47.4101 30.267 46.7081C30.592 46.5651 30.891 46.4091 31.203 46.2401C36.637 43.3151 40.329 37.5821 40.329 30.9781C40.329 26.1941 38.392 21.8651 35.259 18.7191L38.249 15.7291C42.149 19.6291 44.567 25.0241 44.567 30.9781Z" stroke="#FE0000" stroke-miterlimit="10" stroke-linecap="round" stroke-linejoin="round"/>
<path d="M40.329 30.9781C40.329 37.5821 36.637 43.3151 31.203 46.2401C30.891 46.4091 30.592 46.5651 30.267 46.7081C28.772 47.4101 27.16 47.8911 25.457 48.1381C25.275 48.1641 25.08 48.1901 24.885 48.2031C24.274 48.2681 23.637 48.3071 23 48.3071C18.216 48.3071 13.887 46.3701 10.741 43.2371C9.55802 42.0411 8.53102 40.6761 7.73802 39.1811C6.41202 36.7371 5.67102 33.9421 5.67102 30.9781H9.90902C9.90902 33.2141 10.481 35.3331 11.482 37.1791C12.08 38.3101 12.847 39.3371 13.744 40.2341C16.123 42.6001 19.399 44.0691 23 44.0691C30.215 44.0691 36.091 38.1931 36.091 30.9781C36.091 27.3771 34.622 24.1011 32.256 21.7221L35.259 18.7191C38.392 21.8651 40.329 26.1941 40.329 30.9781Z" stroke="#FE0000" stroke-miterlimit="10" stroke-linecap="round" stroke-linejoin="round"/>
<path d="M33.218 11.9721L31.203 15.7161C30.904 15.5471 30.579 15.3911 30.267 15.2481C29.916 15.0791 29.552 14.9231 29.175 14.7931C28.72 14.6111 28.252 14.4551 27.771 14.3251C27.42 14.2081 27.069 14.1301 26.705 14.0521C26.315 13.9611 25.925 13.8831 25.522 13.8311C25.496 13.8181 25.483 13.8181 25.457 13.8181C25.275 13.7921 25.08 13.7661 24.885 13.7531C24.274 13.6881 23.637 13.6491 23 13.6491C15.174 13.6491 8.54396 18.8491 6.39896 25.9861L2.35596 24.7641C5.00796 15.8851 13.25 9.41113 23 9.41113C23.403 9.41113 23.806 9.42413 24.209 9.45013C24.495 9.46313 24.781 9.47613 25.067 9.51513C25.132 9.51513 25.21 9.52813 25.288 9.54113C25.535 9.55413 25.782 9.59313 26.029 9.63213C26.133 9.64513 26.224 9.64513 26.328 9.67113C26.432 9.68413 26.523 9.69713 26.627 9.72313C26.653 9.72313 26.666 9.72313 26.692 9.73613C26.887 9.76213 27.082 9.80113 27.264 9.84013C27.29 9.84013 27.303 9.85313 27.329 9.85313C27.342 9.85313 27.342 9.85313 27.342 9.85313C28.044 9.99613 28.733 10.1781 29.409 10.3861C29.747 10.4901 30.085 10.5941 30.41 10.7241C30.436 10.7371 30.462 10.7371 30.488 10.7501C30.6959 10.8281 30.904 10.9061 31.112 10.9971C31.346 11.0751 31.5669 11.1791 31.7879 11.2831C31.9829 11.3611 32.165 11.4521 32.347 11.5431C32.6459 11.6861 32.932 11.8291 33.218 11.9721Z" stroke="#FE0000" stroke-miterlimit="10" stroke-linecap="round" stroke-linejoin="round"/>
<path d="M36.0909 30.9782C36.0909 38.1932 30.2149 44.0692 22.9999 44.0692C19.3989 44.0692 16.1229 42.6002 13.7439 40.2342C12.8469 39.3372 12.0799 38.3102 11.4819 37.1792C10.4809 35.3332 9.90894 33.2142 9.90894 30.9782H14.1469C14.1469 32.4862 14.5239 33.9162 15.1999 35.1642C15.6159 35.9312 16.1359 36.6202 16.7469 37.2312C18.3459 38.8432 20.5689 39.8312 22.9999 39.8312C27.8879 39.8312 31.8529 35.8532 31.8529 30.9782C31.8529 28.5472 30.8649 26.3242 29.2529 24.7252L32.2559 21.7222C34.6219 24.1012 36.0909 27.3772 36.0909 30.9782Z" stroke="#FE0000" stroke-miterlimit="10" stroke-linecap="round" stroke-linejoin="round"/>
<path d="M31.853 30.9781C31.853 35.8531 27.888 39.8311 23 39.8311C20.569 39.8311 18.346 38.8431 16.747 37.2311C16.136 36.6201 15.616 35.9311 15.2 35.1641C14.524 33.9161 14.147 32.4861 14.147 30.9781H18.385C18.385 31.7711 18.58 32.5121 18.944 33.1621C19.152 33.5651 19.425 33.9291 19.737 34.2411C20.569 35.0731 21.726 35.5931 23 35.5931C25.548 35.5931 27.615 33.5261 27.615 30.9781C27.615 29.7041 27.095 28.5471 26.263 27.7151L29.253 24.7251C30.865 26.3241 31.853 28.5471 31.853 30.9781Z" stroke="#FE0000" stroke-miterlimit="10" stroke-linecap="round" stroke-linejoin="round"/>
<path d="M27.615 30.9782C27.615 33.5262 25.548 35.5932 23 35.5932C21.726 35.5932 20.569 35.0732 19.737 34.2412C19.425 33.9292 19.152 33.5652 18.944 33.1622C18.58 32.5122 18.385 31.7712 18.385 30.9782H23L26.263 27.7152C27.095 28.5472 27.615 29.7042 27.615 30.9782Z" stroke="#FE0000" stroke-miterlimit="10" stroke-linecap="round" stroke-linejoin="round"/>
</svg>
