<svg width="33" height="33" viewBox="0 0 33 33" fill="none" xmlns="http://www.w3.org/2000/svg">
<path d="M16.5 33C25.6127 33 33 25.6127 33 16.5C33 7.3873 25.6127 0 16.5 0C7.3873 0 0 7.3873 0 16.5C0 25.6127 7.3873 33 16.5 33Z" fill="#1DA1F2"/>
<path d="M28.1816 10.4837C28.1128 10.58 28.0716 10.6556 28.0166 10.7244C27.4941 11.4187 26.8959 12.0375 26.1947 12.56C26.0297 12.6837 25.9609 12.8144 25.9678 13.0206C26.0159 14.5125 25.7822 15.97 25.2941 17.3794C24.6753 19.1944 23.7197 20.8031 22.3859 22.1919C20.5228 24.1306 18.2678 25.3269 15.6278 25.8219C14.5484 26.0281 13.4553 26.0969 12.3553 26.0419C10.4372 25.9456 8.62219 25.4506 6.91719 24.55C6.67656 24.4194 6.43594 24.2819 6.19531 24.1444C8.62219 24.2956 10.7947 23.6975 12.7334 22.2606V22.2056C12.6578 22.1919 12.5891 22.1781 12.5134 22.1644C10.6778 21.9719 9.39907 21.0231 8.64969 19.3456C8.61531 19.2837 8.60156 19.2081 8.56719 19.105C9.22719 19.2219 9.85969 19.2219 10.4853 19.0294C10.4509 18.9125 10.3478 18.9262 10.2859 18.9125C9.35094 18.6512 8.57406 18.1562 7.96219 17.4137C7.35031 16.6712 6.99969 15.8119 6.95844 14.8425C6.95844 14.7737 6.95844 14.705 6.95844 14.6019C7.60469 14.9044 8.23031 15.1106 8.93156 15.09C7.98969 14.3819 7.35031 13.4812 7.08906 12.3331C6.96531 11.7831 6.93781 11.2262 7.04094 10.6694C7.15781 10.0437 7.35719 9.52812 7.59781 9.17749C10.0728 12.0375 13.1941 13.5775 16.9891 13.8387C16.9547 13.5706 16.9341 13.3575 16.8997 13.1512C16.8172 12.5875 16.8928 12.0306 17.0716 11.4944C17.6491 9.78937 18.8316 8.73062 20.6053 8.40062C22.1247 8.11874 23.4722 8.53124 24.6066 9.59687C24.7441 9.72749 24.8609 9.72062 25.0122 9.68624C25.8234 9.50062 26.6072 9.21187 27.3497 8.82C27.4184 8.77875 27.4872 8.74437 27.5697 8.70999C27.5697 8.97812 27.2466 9.59687 26.8753 10.0506C26.5522 10.4562 26.1534 10.7725 25.7409 11.0819C26.1672 11.0819 26.5659 10.9856 26.9647 10.8687C27.3634 10.7587 27.7553 10.6212 28.1816 10.4837Z" fill="white"/>
</svg>
