<svg width="33" height="33" viewBox="0 0 33 33" fill="none" xmlns="http://www.w3.org/2000/svg">
<path d="M0 15.8125C0 8.36 6.55651e-07 4.63375 2.31688 2.31688C4.63375 6.55651e-07 8.36 0 15.8125 0H17.1875C24.64 0 28.3662 6.55651e-07 30.6831 2.31688C33 4.63375 33 8.36 33 15.8125V17.1875C33 24.64 33 28.3662 30.6831 30.6831C28.3662 33 24.64 33 17.1875 33H15.8125C8.36 33 4.63375 33 2.31688 30.6831C6.55651e-07 28.3662 0 24.64 0 17.1875V15.8125Z" fill="#2787F5"/>
<path fill-rule="evenodd" clip-rule="evenodd" d="M8.93828 10.3125H6.53203C5.84453 10.3125 5.70703 10.6357 5.70703 10.9932C5.70703 11.6325 6.52516 14.7882 9.50891 18.975C11.4958 21.8282 14.3008 23.375 16.8514 23.375C18.3845 23.375 18.5702 23.0313 18.5702 22.44V20.2813C18.5702 19.5938 18.7145 19.4563 19.2027 19.4563C19.5602 19.4563 20.172 19.635 21.602 21.01C23.2314 22.6394 23.4995 23.375 24.4208 23.375H26.827C27.5145 23.375 27.8583 23.0313 27.6589 22.3507C27.4389 21.6769 26.662 20.6938 25.6308 19.5319C25.067 18.8719 24.2283 18.1569 23.9739 17.7994C23.6164 17.3388 23.7195 17.1394 23.9739 16.7269C23.9739 16.7269 26.9095 12.595 27.212 11.1925C27.3633 10.6838 27.212 10.3057 26.4833 10.3057H24.077C23.4652 10.3057 23.1833 10.6288 23.032 10.9863C23.032 10.9863 21.8083 13.97 20.0758 15.9088C19.512 16.4725 19.2577 16.6513 18.9552 16.6513C18.8039 16.6513 18.5839 16.4725 18.5839 15.9638V11.1994C18.5633 10.5875 18.3914 10.3125 17.8758 10.3125H14.0945C13.7095 10.3125 13.4827 10.5944 13.4827 10.8625C13.4827 11.44 14.3489 11.5775 14.4383 13.2069V16.7475C14.4383 17.5244 14.3008 17.6619 13.9914 17.6619C13.1733 17.6619 11.1933 14.6644 10.0108 11.2407C9.78391 10.5807 9.55703 10.3125 8.93828 10.3125Z" fill="white"/>
</svg>
