<svg width="33" height="34" viewBox="0 0 33 34" fill="none" xmlns="http://www.w3.org/2000/svg">
<path fill-rule="evenodd" clip-rule="evenodd" d="M28.119 4.802C25.025 1.708 20.909 0 16.527 0C7.497 0 0.140001 7.35 0.140001 16.387C0.140001 19.271 0.896 22.092 2.324 24.577L0 33.068L8.687 30.786C11.081 32.095 13.776 32.781 16.52 32.781H16.527C21.042 32.781 25.137 30.94 28.105 27.979C31.073 25.011 32.914 20.916 32.914 16.394C32.914 12.019 31.213 7.903 28.119 4.802ZM16.527 30.016H16.52C14.077 30.016 11.676 29.358 9.59 28.119L9.093 27.825L3.934 29.176L5.313 24.15L4.991 23.632C3.626 21.462 2.905 18.956 2.905 16.387C2.912 8.876 9.016 2.765 16.534 2.765C20.167 2.765 23.59 4.186 26.159 6.762C28.728 9.338 30.149 12.754 30.142 16.394C30.142 23.905 24.031 30.016 16.527 30.016Z" fill="#25D366"/>
<path fill-rule="evenodd" clip-rule="evenodd" d="M26.1603 6.76226C23.5913 4.18626 20.1683 2.76526 16.5353 2.76526C9.01725 2.76526 2.91325 8.87626 2.90625 16.3873C2.90625 18.9563 3.62725 21.4623 4.99225 23.6323L5.31425 24.1503L3.93525 29.1763L9.09425 27.8253L9.59125 28.1193C11.6772 29.3583 14.0783 30.0163 16.5213 30.0163H16.5283C24.0323 30.0163 30.1433 23.9053 30.1433 16.3943C30.1503 12.7543 28.7293 9.33826 26.1603 6.76226ZM24.5433 22.2393C24.2003 23.1983 22.5693 24.0733 21.7782 24.1853C21.0713 24.2903 20.1823 24.3393 19.2022 24.0243C18.6073 23.8353 17.8443 23.5833 16.8643 23.1633C12.7623 21.3923 10.0743 17.2553 9.87125 16.9823C9.66825 16.7093 8.19825 14.7633 8.19825 12.7473C8.19825 10.7313 9.25525 9.73726 9.63325 9.33126C10.0113 8.91826 10.4523 8.82026 10.7253 8.82026C10.9983 8.82026 11.2713 8.82026 11.5093 8.83426C11.7613 8.84126 12.0973 8.73626 12.4333 9.53426C12.7693 10.3533 13.5883 12.3693 13.6933 12.5723C13.7983 12.7823 13.8612 13.0203 13.7283 13.2933C13.5883 13.5663 13.5253 13.7343 13.3153 13.9723C13.1123 14.2173 12.8883 14.5113 12.7063 14.6933C12.4963 14.8963 12.2863 15.1203 12.5243 15.5263C12.7623 15.9393 13.5883 17.2763 14.7993 18.3613C16.3673 19.7613 17.6833 20.1883 18.0963 20.3983C18.5023 20.6013 18.7403 20.5663 18.9783 20.2933C19.2233 20.0203 20.0073 19.0963 20.2803 18.6903C20.5533 18.2773 20.8263 18.3473 21.1973 18.4803C21.5753 18.6203 23.5843 19.6073 23.9973 19.8173C24.4033 20.0203 24.6763 20.1253 24.7813 20.2933C24.8863 20.4613 24.8863 21.2873 24.5433 22.2393Z" fill="white"/>
<path fill-rule="evenodd" clip-rule="evenodd" d="M24.5403 22.2391C24.1973 23.1981 22.5663 24.0731 21.7753 24.1851C21.0683 24.2901 20.1793 24.3391 19.1993 24.0241C18.6043 23.8351 17.8413 23.5831 16.8613 23.1631C12.7593 21.3921 10.0713 17.2551 9.86831 16.9821C9.66531 16.7091 8.19531 14.7631 8.19531 12.7471C8.19531 10.7311 9.25231 9.73713 9.63031 9.33113C10.0083 8.91813 10.4493 8.82013 10.7223 8.82013C10.9953 8.82013 11.2683 8.82013 11.5063 8.83413C11.7583 8.84113 12.0943 8.73613 12.4303 9.53413C12.7663 10.3531 13.5853 12.3691 13.6903 12.5721C13.7953 12.7821 13.8583 13.0201 13.7253 13.2931C13.5853 13.5661 13.5223 13.7341 13.3123 13.9721C13.1093 14.2171 12.8853 14.5111 12.7033 14.6931C12.4933 14.8961 12.2833 15.1201 12.5213 15.5261C12.7593 15.9391 13.5853 17.2761 14.7963 18.3611C16.3643 19.7611 17.6803 20.1881 18.0933 20.3981C18.4993 20.6011 18.7373 20.5661 18.9753 20.2931C19.2203 20.0201 20.0043 19.0961 20.2773 18.6901C20.5503 18.2771 20.8233 18.3471 21.1943 18.4801C21.5723 18.6201 23.5813 19.6071 23.9943 19.8171C24.4003 20.0201 24.6733 20.1251 24.7783 20.2931C24.8833 20.4611 24.8833 21.2871 24.5403 22.2391Z" fill="#25D366"/>
</svg>
