<svg width="33" height="33" viewBox="0 0 33 33" fill="none" xmlns="http://www.w3.org/2000/svg">
<path d="M16.5702 0.69856C20.7741 0.69856 24.7254 2.32621 27.6942 5.2881C30.6629 8.25 32.2982 12.1829 32.2982 16.3603C32.2982 20.5377 30.6559 24.4636 27.6801 27.4255C24.6974 30.3874 20.7531 32.015 16.5632 32.015C13.9383 32.015 11.3345 31.3584 9.04658 30.108C8.9413 30.0521 8.82901 30.0241 8.7097 30.0241C8.64653 30.0241 8.59039 30.0311 8.53424 30.0451L1.00362 32.015L3.01085 24.7081C3.05997 24.5265 3.03892 24.3378 2.94066 24.1772C1.5721 21.8021 0.842195 19.0986 0.842195 16.3533C0.842195 7.71909 7.89558 0.69856 16.5702 0.69856ZM16.5702 0C7.51659 0 0.140366 7.33489 0.140366 16.3533C0.140366 19.2314 0.898341 22.0466 2.33007 24.5265L0 33L8.7097 30.7227C11.11 32.029 13.812 32.7136 16.5632 32.7136H16.5702C21.097 32.7136 25.2027 30.8764 28.1784 27.9215C31.1542 24.9596 33 20.873 33 16.3603C33 11.9943 31.2946 7.88675 28.1925 4.79213C25.0904 1.70449 20.9636 0 16.5702 0Z" fill="white"/>
<path fill-rule="evenodd" clip-rule="evenodd" d="M24.6065 22.1961C24.2626 23.1531 22.6273 24.0263 21.8342 24.1381C21.1254 24.2429 20.2341 24.2918 19.2515 23.9774C18.6549 23.7888 17.89 23.5373 16.9074 23.1182C12.7947 21.3508 10.0997 17.2223 9.89612 16.9499C9.69259 16.6775 8.21875 14.7355 8.21875 12.7236C8.21875 10.7118 9.27851 9.7198 9.6575 9.31464C10.0365 8.90249 10.4786 8.80469 10.7524 8.80469C11.0261 8.80469 11.2998 8.80469 11.5384 8.81866C11.7911 8.82564 12.1279 8.72086 12.4648 9.51722C12.8017 10.3345 13.6228 12.3464 13.7281 12.549C13.8334 12.7585 13.8965 12.996 13.7632 13.2685C13.6228 13.5409 13.5597 13.7086 13.3491 13.9461C13.1456 14.1906 12.921 14.484 12.7385 14.6656C12.528 14.8682 12.3174 15.0917 12.5561 15.4969C12.7947 15.909 13.6228 17.2433 14.837 18.3261C16.4091 19.7232 17.7285 20.1493 18.1426 20.3589C18.5497 20.5615 18.7883 20.5265 19.0269 20.2541C19.2726 19.9817 20.0586 19.0596 20.3323 18.6544C20.606 18.2422 20.8797 18.3121 21.2517 18.4448C21.6307 18.5845 23.6449 19.5695 24.059 19.7791C24.4661 19.9817 24.7398 20.0864 24.8451 20.2541C24.9503 20.4217 24.9503 21.246 24.6065 22.1961Z" fill="white"/>
</svg>
