<svg width="33" height="23" viewBox="0 0 33 23" fill="none" xmlns="http://www.w3.org/2000/svg">
<path d="M23 11.4922C19.6504 9.64316 16.3741 7.81766 13.0652 6C13.0326 6.10185 13.0163 6.14886 13.0082 6.19587C13 6.28989 13 6.3839 13 6.47008C13 9.82336 13 13.1766 13 16.5299C13 16.6631 13.0245 16.8041 13.0408 17C16.3822 15.1588 19.6585 13.3412 23 11.4922Z" fill="white"/>
<path d="M21.0316 23C18.0986 23 15.1655 23 12.2395 23C12.1422 22.9862 12.0449 22.9656 11.9406 22.9656C10.9259 22.9311 9.90417 22.8898 8.88943 22.8554C7.45072 22.8072 6.01895 22.7039 4.59414 22.518C3.82266 22.4147 3.07203 22.2356 2.41175 21.7949C1.36226 21.0994 0.764533 20.1216 0.528223 18.9027C0.291913 17.6632 0.166807 16.403 0.0903533 15.1428C0.0695024 14.7641 0.0278012 14.3922 0 14.0135C0 12.3332 0 10.6599 0 8.97964C0.0139006 8.91078 0.0347509 8.84192 0.0347509 8.76617C0.0903533 7.96737 0.139005 7.16856 0.208508 6.36976C0.291912 5.44701 0.389217 4.51737 0.646378 3.62216C1.1051 2.0521 2.13374 1.01916 3.73926 0.612874C4.87911 0.323652 6.06066 0.27545 7.22831 0.213474C8.69482 0.130839 10.1683 0.0895204 11.6417 0.0344306C11.7321 0.0275444 11.8225 0.00688623 11.9128 0C14.9918 0 18.0638 0 21.1428 0C21.2888 0.0137725 21.4278 0.0344321 21.5737 0.0413183C22.38 0.0688632 23.1931 0.0826349 23.9994 0.123952C25.0072 0.172156 26.015 0.227246 27.0227 0.323654C27.8081 0.392516 28.6005 0.47515 29.3719 0.640419C30.9914 0.998503 32.0478 2.00389 32.5204 3.57395C32.6455 3.98024 32.715 4.4003 32.7915 4.81347C32.8749 5.26797 32.9305 5.72246 33 6.17695C33 9.70958 33 13.2491 33 16.7817C32.9791 16.8713 32.9583 16.9539 32.9513 17.0434C32.861 17.6425 32.7845 18.2416 32.6803 18.8338C32.5621 19.5362 32.3258 20.1973 31.9019 20.7758C31.1234 21.8293 30.0531 22.3596 28.7673 22.5249C27.0436 22.7521 25.313 22.8347 23.5754 22.9036C22.8248 22.9311 22.0672 22.9449 21.3096 22.9656C21.2123 22.9725 21.1219 22.9862 21.0316 23ZM21.8587 11.5C19.0021 9.87485 16.2081 8.27036 13.3863 6.67276C13.3585 6.76228 13.3446 6.80359 13.3376 6.84491C13.3307 6.92755 13.3307 7.01018 13.3307 7.08593C13.3307 10.0332 13.3307 12.9805 13.3307 15.9278C13.3307 16.0449 13.3515 16.1689 13.3654 16.341C16.215 14.7228 19.0091 13.1252 21.8587 11.5Z" fill="#FF0000"/>
</svg>
