<svg width="33" height="23" viewBox="0 0 33 23" fill="none" xmlns="http://www.w3.org/2000/svg">
<path d="M21.1125 0.688623L21.2098 0.69551C21.328 0.709283 21.4392 0.723053 21.5574 0.723053C21.8494 0.72994 22.1344 0.743713 22.4264 0.750599C22.9408 0.764371 23.4622 0.778145 23.9766 0.80569C24.9429 0.853894 25.9718 0.908983 26.9728 0.998504C27.7931 1.07425 28.537 1.15 29.2321 1.3015C30.5947 1.5976 31.4567 2.40329 31.8669 3.75988C31.9711 4.0973 32.0337 4.45539 32.1032 4.83413L32.1171 4.91677C32.1727 5.21976 32.2145 5.52964 32.2562 5.83952L32.3118 6.20449V16.6922V16.706C32.2979 16.7817 32.284 16.8506 32.2701 16.9263C32.2423 17.126 32.2075 17.3257 32.1797 17.5323C32.1241 17.9249 32.0685 18.3174 31.9989 18.703C31.8877 19.371 31.6722 19.9081 31.3455 20.3488C30.7268 21.1889 29.8509 21.671 28.676 21.8225C26.952 22.0497 25.2001 22.1323 23.5456 22.1943C23.0798 22.215 22.6071 22.2219 22.1414 22.2356C21.8563 22.2425 21.5713 22.2494 21.2863 22.2563C21.1959 22.2563 21.1055 22.2701 21.0152 22.2838L20.9874 22.2907H12.2907L12.249 22.2838C12.1586 22.2701 12.0613 22.2563 11.9709 22.2563C10.949 22.2219 9.93406 22.1805 8.91216 22.1461C7.36887 22.091 5.98546 21.9877 4.68549 21.8156C3.85823 21.7054 3.27428 21.5195 2.80156 21.2027C1.93954 20.6311 1.42511 19.8323 1.21656 18.7512C1.00801 17.6769 0.875921 16.5063 0.7925 15.0808C0.778597 14.8192 0.750789 14.5506 0.729934 14.2889L0.702128 13.9653V9.02785C0.716031 8.9521 0.729934 8.87635 0.736886 8.79371C0.757741 8.51826 0.771645 8.24282 0.7925 7.97425C0.827259 7.4509 0.862018 6.92755 0.903728 6.41108C0.980197 5.50898 1.07057 4.63443 1.31388 3.8012C1.71013 2.43772 2.55825 1.60449 3.90689 1.26707C4.90099 1.01916 5.9229 0.957187 7.00737 0.902097L7.27154 0.888324C8.26564 0.833234 9.27365 0.798804 10.2538 0.757487C10.7266 0.743714 11.1993 0.723054 11.672 0.702396C11.7624 0.695509 11.8527 0.688624 11.9431 0.667965L11.964 0.661077H21.1125V0.688623ZM21.1473 0C18.0676 0 14.9949 0 11.9153 0C11.8249 0.0137725 11.7346 0.0344306 11.6442 0.0344306C10.1704 0.0964067 8.69665 0.130839 7.22983 0.213474C6.06193 0.282336 4.88013 0.330539 3.74005 0.612874C2.13419 1.01916 1.10533 2.0521 0.646514 3.62216C0.389299 4.51737 0.291973 5.44012 0.208552 6.36976C0.139035 7.16856 0.0973241 7.96737 0.0347583 8.76617C0.0278065 8.83503 0.00695176 8.90389 0 8.97964C0 10.6599 0 12.3332 0 14.0135C0.027807 14.3922 0.069517 14.7641 0.0903723 15.1428C0.166842 16.403 0.291974 17.6563 0.528334 18.9027C0.764694 20.1216 1.36254 21.0994 2.41226 21.7949C3.07268 22.2356 3.82347 22.4147 4.59511 22.518C6.02022 22.7039 7.45228 22.8072 8.8913 22.8554C9.90626 22.8898 10.9282 22.9243 11.9431 22.9656C12.0404 22.9725 12.1378 22.9862 12.242 23C15.1757 23 18.1093 23 21.036 23C21.1264 22.9862 21.2168 22.9656 21.3071 22.9656C22.0649 22.9449 22.8157 22.9311 23.5734 22.9036C25.3114 22.8347 27.0423 22.7521 28.7664 22.5249C30.0525 22.3596 31.123 21.8293 31.9016 20.7758C32.3326 20.1973 32.562 19.5362 32.6802 18.8338C32.7845 18.2416 32.861 17.6425 32.9513 17.0434C32.9652 16.9539 32.9861 16.8644 33 16.7817C33 13.2491 33 9.70958 33 6.17695C32.9305 5.72246 32.8749 5.26797 32.7914 4.81347C32.715 4.4003 32.6455 3.97336 32.5203 3.57395C32.0407 1.99701 30.9909 0.991617 29.3712 0.640419C28.5995 0.47515 27.807 0.392516 27.0215 0.323654C26.0135 0.234133 25.0055 0.179042 23.9975 0.123952C23.1911 0.0826349 22.3777 0.0688632 21.5713 0.0413183C21.4323 0.0344321 21.2932 0.0137725 21.1473 0Z" fill="white"/>
<path d="M21.8657 11.5001C19.0086 9.87495 16.214 8.27046 13.3916 6.67285C13.3637 6.76237 13.3498 6.80369 13.3429 6.84501C13.3359 6.92764 13.3359 7.01028 13.3359 7.08602C13.3359 10.0333 13.3359 12.9806 13.3359 15.9279C13.3359 16.045 13.3568 16.169 13.3707 16.3411C16.2209 14.7229 19.0155 13.1252 21.8657 11.5001Z" fill="white"/>
</svg>
